<svg width="91" height="98" viewBox="0 0 91 98" fill="none" xmlns="http://www.w3.org/2000/svg">
<g filter="url(#filter0_dd_163_378)">
<ellipse cx="45.5" cy="45" rx="41.5" ry="45" fill="#D9D9D9"/>
<g filter="url(#filter1_ddd_163_378)">
<path d="M36.5405 78.8759C36.5405 78.8759 34.5894 78.4075 34.403 77.4134C34.275 76.7307 34.7316 76.38 34.9655 75.7259C35.3639 74.6121 35.7819 74.0554 36.0905 72.9134C36.426 71.6718 36.7558 70.9189 36.5405 69.6509C36.3725 68.6613 36.0163 68.1654 35.528 67.2884C34.857 66.0831 34.1324 65.639 33.3905 64.4759C32.7457 63.4649 32.3357 62.9036 31.928 61.7759C31.591 60.8438 31.5943 60.2653 31.3655 59.3009C31.0728 58.0671 30.9168 57.3728 30.578 56.1509C30.37 55.4007 30.237 54.9847 30.0155 54.2384C29.7545 53.359 29.5398 52.8839 29.3405 51.9884C29.1475 51.1211 29.0149 50.6268 29.003 49.7384C28.99 48.763 29.0053 48.1795 29.3405 47.2634C29.7934 46.0256 30.4624 45.5234 31.3655 44.5634C32.0905 43.7927 32.4772 43.2976 33.3905 42.7634C33.9681 42.4256 34.5083 42.577 34.9655 42.0884C35.4401 41.5812 35.2696 41.0457 35.528 40.4009C35.7255 39.9082 36.0905 39.1634 36.0905 39.1634L36.3155 38.2634L36.5405 37.3634C36.5405 37.3634 36.654 35.3494 37.328 34.3259C37.8758 33.494 38.3546 33.0937 39.2405 32.6384C39.9705 32.2632 40.8822 32.8017 41.2655 32.0759V30.7259V28.4759V27.8009V26.3947V24.9884L41.7155 21.0509L41.9405 18.9697L42.1655 16.8884C42.1655 16.8884 42.0512 14.8949 42.1655 13.6259C42.2614 12.5613 42.3478 11.9608 42.6155 10.9259C42.8243 10.1189 42.7367 9.52394 43.2905 8.90091C43.9192 8.19359 44.5942 8.01373 45.5405 8.00091C46.319 7.99036 46.8548 8.06514 47.453 8.56341C48.0569 9.06642 48.1624 9.60096 48.353 10.3634C48.5661 11.2159 48.353 11.7347 48.353 12.6134V16.2134V18.5759V19.2509V23.1884V25.6634V28.4759V30.7259C48.353 31.4728 48.0429 31.9589 48.353 32.6384C48.5727 33.1197 49.253 33.6509 49.253 33.6509L50.2655 34.3259C50.2655 34.3259 50.984 34.4925 51.3905 34.3259C51.9111 34.1125 52.2905 33.2009 52.2905 33.2009V32.0759L52.853 29.3759L53.753 26.9009L55.103 23.9759L55.778 21.0509V18.2384V16.2134C55.778 15.5105 55.5052 15.0613 55.778 14.4134C56.0432 13.7835 56.3954 13.4633 57.0155 13.1759C57.7729 12.8249 58.3503 12.947 59.153 13.1759C60.0085 13.4198 60.5352 13.6992 61.0655 14.4134C61.7804 15.3762 61.4108 16.2563 61.5155 17.4509C61.669 19.2016 61.5155 21.9509 61.5155 21.9509V23.4697V24.9884V29.3759L60.278 32.0759L59.7155 34.6634L58.8155 37.9259L59.153 41.1884L58.8155 44.2259L59.153 47.9384L60.278 50.1884V52.8884L59.7155 56.1509L59.153 59.3009L58.253 61.7759L57.0155 63.8009L55.778 65.0384V65.9384L54.653 70.5509L53.753 74.7134L52.853 78.8759L50.2655 80.1134L45.9905 81.1259H42.1655L39.2405 80.1134L36.5405 78.8759Z" fill="#ECCCC0"/>
<path d="M55.778 65.0384V65.9384L54.653 70.5509L53.753 74.7134L52.853 78.8759L50.2655 80.1134L45.9905 81.1259H42.1655L39.2405 80.1134L36.5405 78.8759C36.5405 78.8759 34.5894 78.4075 34.403 77.4134C34.275 76.7307 34.7316 76.38 34.9655 75.7259C35.3639 74.6121 35.7819 74.0554 36.0905 72.9134C36.426 71.6718 36.7558 70.9189 36.5405 69.6509C36.3725 68.6613 36.0163 68.1654 35.528 67.2884C34.857 66.0831 34.1324 65.639 33.3905 64.4759M55.778 65.0384L57.0155 63.8009L58.253 61.7759L59.153 59.3009L59.7155 56.1509L60.278 52.8884V50.1884L59.153 47.9384M55.778 65.0384C55.778 65.0384 55.3657 65.0168 55.103 65.0384C54.1598 65.1159 53.7812 65.7536 52.853 65.9384C51.862 66.1358 51.2464 66.181 50.2655 65.9384C49.4642 65.7402 49.0569 65.4695 48.353 65.0384C47.8434 64.7263 47.527 64.5717 47.1155 64.1384C46.4118 63.3975 46.3018 62.7492 45.9905 61.7759C45.6913 60.8402 45.5778 60.2826 45.5405 59.3009C45.4934 58.0592 45.7472 57.3695 45.9905 56.1509C46.1407 55.3985 46.1281 54.9392 46.4405 54.2384C46.9101 53.1851 47.3891 52.6215 48.353 51.9884M59.153 47.9384C59.153 47.9384 58.0398 45.7402 57.0155 44.5634C56.3421 43.7898 55.9224 43.3803 55.103 42.7634C54.0973 42.0063 53.3889 41.8035 52.2905 41.1884M59.153 47.9384L58.8155 44.2259L59.153 41.1884M52.2905 41.1884C51.4997 40.8809 50.2655 40.4009 50.2655 40.4009M52.2905 41.1884C53.2131 41.1884 54.653 41.1884 54.653 41.1884H56.453H59.153M50.2655 40.4009C50.2655 40.4009 49.169 39.5176 48.353 39.1634C47.483 38.7858 45.9905 38.6009 45.9905 38.6009M50.2655 40.4009C50.0019 40.9281 49.8541 41.2237 49.5905 41.7509C49.5905 41.7509 49.4521 42.3972 49.253 42.7634C48.8205 43.5592 47.453 44.2259 47.453 44.2259C47.453 44.2259 46.5527 44.3266 45.9905 44.2259C45.3882 44.1181 44.8753 44.1672 44.528 43.6634C44.1789 43.157 44.528 42.7035 44.528 42.0884C44.528 41.2097 44.1289 40.6212 44.528 39.8384C44.8678 39.1719 45.9905 38.6009 45.9905 38.6009M45.9905 38.6009C45.9905 38.6009 45.0733 38.431 44.528 38.6009C43.8137 38.8234 43.4657 39.2062 43.0655 39.8384C42.5862 40.5956 42.6312 41.1925 42.6155 42.0884C42.5983 43.0707 42.5591 43.7216 43.0655 44.5634C43.4662 45.2295 44.528 45.9134 44.528 45.9134L45.9905 47.2634M45.9905 38.6009L45.5405 37.9259L44.753 35.9009L44.303 34.7759M45.9905 47.2634L47.453 48.5009M45.9905 47.2634V48.9509C45.9905 48.9509 45.9905 49.7051 45.9905 50.1884C45.9905 50.5399 45.9905 50.7369 45.9905 51.0884M47.453 48.5009L49.253 49.4009L51.1655 50.1884L52.853 51.0884M47.453 48.5009L49.253 49.7384C49.253 49.7384 48.898 50.7652 48.353 51.0884C47.7106 51.4694 47.1874 51.0884 46.4405 51.0884C46.2648 51.0884 46.1662 51.0884 45.9905 51.0884M59.153 41.1884L58.8155 37.9259M58.8155 37.9259L59.7155 34.6634L60.278 32.0759L61.5155 29.3759V24.9884V23.4697M58.8155 37.9259C58.8155 37.9259 58.3177 36.9299 57.803 36.4634C57.2496 35.9618 56.1155 35.5634 56.1155 35.5634C56.1155 35.5634 54.6903 34.7801 53.753 34.3259C53.1869 34.0516 52.8968 33.4832 52.2905 33.6509C51.7806 33.7919 51.742 34.268 51.3905 34.6634M55.778 21.0509C55.778 21.0509 55.778 19.3368 55.778 18.2384C55.778 17.4476 55.778 17.0042 55.778 16.2134C55.778 15.5105 55.5052 15.0613 55.778 14.4134C56.0432 13.7835 56.3954 13.4633 57.0155 13.1759C57.7729 12.8249 58.3503 12.947 59.153 13.1759C60.0085 13.4198 60.5352 13.6992 61.0655 14.4134C61.7804 15.3762 61.4108 16.2563 61.5155 17.4509C61.669 19.2016 61.5155 21.9509 61.5155 21.9509V23.4697M55.778 21.0509L55.103 23.9759L53.753 26.9009L52.853 29.3759M55.778 21.0509C55.778 21.0509 57.3377 20.7405 58.253 21.0509C58.8881 21.2663 59.1676 21.5642 59.7155 21.9509C60.467 22.4812 61.5155 23.4697 61.5155 23.4697M52.853 29.3759L52.2905 32.0759V33.2009C52.2905 33.2009 51.9111 34.1125 51.3905 34.3259C50.984 34.4925 50.2655 34.3259 50.2655 34.3259M52.853 29.3759C52.853 29.3759 53.8858 28.6464 54.653 28.4759C55.3392 28.3234 55.7649 28.3325 56.453 28.4759C57.4933 28.6928 58.8155 29.8259 58.8155 29.8259M50.2655 34.3259L49.253 33.6509C49.253 33.6509 48.5727 33.1197 48.353 32.6384C48.0429 31.9589 48.353 31.4728 48.353 30.7259C48.353 29.8472 48.353 28.4759 48.353 28.4759V25.6634M50.2655 34.3259C50.2655 34.3259 48.8985 34.0912 48.0155 34.1009C47.2199 34.1097 46.7717 34.1745 45.9905 34.3259C45.3209 34.4557 44.303 34.7759 44.303 34.7759M48.353 25.6634V23.1884V19.2509V18.5759M48.353 25.6634C48.353 25.6634 46.947 26.2608 45.9905 26.3947C45.1638 26.5104 44.6878 26.3947 43.853 26.3947C42.8425 26.3947 41.2655 26.3947 41.2655 26.3947M33.3905 64.4759C32.7457 63.4649 32.3357 62.9036 31.928 61.7759C31.591 60.8438 31.5943 60.2653 31.3655 59.3009C31.0728 58.0671 30.9168 57.3728 30.578 56.1509C30.37 55.4007 30.237 54.9847 30.0155 54.2384C29.7545 53.359 29.5398 52.8839 29.3405 51.9884C29.1475 51.1211 29.0149 50.6268 29.003 49.7384C28.99 48.763 29.0053 48.1795 29.3405 47.2634C29.7934 46.0256 30.4624 45.5234 31.3655 44.5634C32.0905 43.7927 32.4772 43.2976 33.3905 42.7634C33.9681 42.4256 34.5083 42.577 34.9655 42.0884C35.4401 41.5812 35.2696 41.0457 35.528 40.4009C35.7255 39.9082 36.0905 39.1634 36.0905 39.1634C36.0905 39.1634 36.2276 38.6149 36.3155 38.2634M33.3905 64.4759C33.3905 64.4759 34.5617 65.6396 35.528 65.9384C36.4934 66.2369 37.1114 66.0519 38.1155 65.9384C38.9631 65.8426 39.4842 65.858 40.253 65.4884C41.2333 65.0171 41.5826 64.4124 42.278 63.5759C43.0104 62.6949 43.853 61.1009 43.853 61.1009M56.453 44.5634C56.453 44.5634 55.6993 45.4659 55.103 45.9134C54.6149 46.2798 54.3326 46.5095 53.753 46.7009C52.877 46.9903 51.3905 46.7009 51.3905 46.7009M41.2655 26.3947V24.9884L41.7155 21.0509L41.9405 18.9697M41.2655 26.3947V27.8009V28.4759V30.7259V32.0759C40.8822 32.8017 39.9705 32.2632 39.2405 32.6384C38.3546 33.0937 37.8758 33.494 37.328 34.3259C36.654 35.3494 36.5405 37.3634 36.5405 37.3634C36.5405 37.3634 36.4034 37.9119 36.3155 38.2634M41.9405 18.9697L42.1655 16.8884C42.1655 16.8884 42.0512 14.8949 42.1655 13.6259C42.2614 12.5613 42.3478 11.9608 42.6155 10.9259C42.8243 10.1189 42.7367 9.52394 43.2905 8.90091C43.9192 8.19359 44.5942 8.01373 45.5405 8.00091C46.319 7.99036 46.8548 8.06514 47.453 8.56341C48.0569 9.06642 48.1624 9.60096 48.353 10.3634C48.5661 11.2159 48.353 11.7347 48.353 12.6134C48.353 14.0193 48.353 14.8075 48.353 16.2134C48.353 17.136 48.353 18.5759 48.353 18.5759M41.9405 18.9697C41.9405 18.9697 43.6454 18.6334 44.753 18.5759C45.4111 18.5418 45.7815 18.5759 46.4405 18.5759C47.1874 18.5759 48.353 18.5759 48.353 18.5759M50.2655 52.8884C50.2655 52.8884 51.8157 53.5266 52.853 53.7884C53.9736 54.0712 54.6235 54.1865 55.778 54.2384C56.2608 54.2601 57.0155 54.2384 57.0155 54.2384M41.9405 32.0759C41.9405 32.0759 43.3526 32.8228 43.853 33.6509C44.0977 34.0559 44.303 34.7759 44.303 34.7759M36.3155 38.2634C37.2381 39.0982 38.678 40.4009 38.678 40.4009C38.678 40.4009 39.9117 41.7896 40.5905 42.7634C41.0645 43.4435 41.4557 43.7763 41.7155 44.5634C41.8831 45.071 41.757 45.4114 41.9405 45.9134C42.0958 46.3382 42.503 46.9259 42.503 46.9259M44.753 50.1884C44.4015 49.7051 44.2129 49.4279 43.853 48.9509C43.5513 48.551 43.0655 47.9384 43.0655 47.9384L42.503 46.9259M44.753 50.1884C45.0605 50.5399 45.5405 51.0884 45.5405 51.0884C45.5405 51.0884 45.8148 51.0884 45.9905 51.0884M44.753 50.1884C45.0961 50.9223 45.203 51.4033 45.203 52.2134C45.203 53.0235 45.2139 53.5722 44.753 54.2384C44.3024 54.8897 43.8406 55.2002 43.0655 55.3634C42.6356 55.4539 42.3642 55.4798 41.9405 55.3634C41.2788 55.1816 41.0283 54.7669 40.5905 54.2384C40.2012 53.7684 40.1553 53.3868 39.803 52.8884C39.2469 52.1016 38.423 51.7474 38.1155 51.0884C37.808 50.4294 37.6355 50.0599 37.328 49.4009C37.0205 48.7419 36.2853 48.7113 35.528 48.5009C34.4697 48.2069 33.8139 48.5009 32.7155 48.5009M42.503 46.9259C42.503 46.9259 41.6755 47.4674 41.2655 47.9384C40.9535 48.2969 40.6985 48.4881 40.5905 48.9509C40.5206 49.2504 40.5905 49.7384 40.5905 49.7384M41.2655 52.2134C41.3721 52.8741 41.3955 53.4001 41.9405 53.7884C42.5488 54.2218 43.2129 54.1732 43.853 53.7884C44.4602 53.4235 44.6289 52.9109 44.753 52.2134C44.895 51.4158 45.023 50.5597 44.303 50.1884C43.8735 49.9669 43.5414 50.104 43.0655 50.1884C42.2917 50.3257 41.5574 50.3587 41.2655 51.0884C41.1023 51.4963 41.1956 51.7797 41.2655 52.2134Z" stroke="#725050" stroke-width="0.36"/>
</g>
</g>
<defs>
<filter id="filter0_dd_163_378" x="0" y="0" width="91" height="98" filterUnits="userSpaceOnUse" color-interpolation-filters="sRGB">
<feFlood flood-opacity="0" result="BackgroundImageFix"/>
<feColorMatrix in="SourceAlpha" type="matrix" values="0 0 0 0 0 0 0 0 0 0 0 0 0 0 0 0 0 0 127 0" result="hardAlpha"/>
<feOffset dy="4"/>
<feGaussianBlur stdDeviation="2"/>
<feComposite in2="hardAlpha" operator="out"/>
<feColorMatrix type="matrix" values="0 0 0 0 0 0 0 0 0 0 0 0 0 0 0 0 0 0 0.25 0"/>
<feBlend mode="normal" in2="BackgroundImageFix" result="effect1_dropShadow_163_378"/>
<feColorMatrix in="SourceAlpha" type="matrix" values="0 0 0 0 0 0 0 0 0 0 0 0 0 0 0 0 0 0 127 0" result="hardAlpha"/>
<feOffset dy="4"/>
<feGaussianBlur stdDeviation="2"/>
<feComposite in2="hardAlpha" operator="out"/>
<feColorMatrix type="matrix" values="0 0 0 0 0 0 0 0 0 0 0 0 0 0 0 0 0 0 0.25 0"/>
<feBlend mode="normal" in2="effect1_dropShadow_163_378" result="effect2_dropShadow_163_378"/>
<feBlend mode="normal" in="SourceGraphic" in2="effect2_dropShadow_163_378" result="shape"/>
</filter>
<filter id="filter1_ddd_163_378" x="24.0201" y="7.81995" width="42.5436" height="83.086" filterUnits="userSpaceOnUse" color-interpolation-filters="sRGB">
<feFlood flood-opacity="0" result="BackgroundImageFix"/>
<feColorMatrix in="SourceAlpha" type="matrix" values="0 0 0 0 0 0 0 0 0 0 0 0 0 0 0 0 0 0 127 0" result="hardAlpha"/>
<feOffset dy="4.8"/>
<feGaussianBlur stdDeviation="2.4"/>
<feComposite in2="hardAlpha" operator="out"/>
<feColorMatrix type="matrix" values="0 0 0 0 0 0 0 0 0 0 0 0 0 0 0 0 0 0 0.25 0"/>
<feBlend mode="normal" in2="BackgroundImageFix" result="effect1_dropShadow_163_378"/>
<feColorMatrix in="SourceAlpha" type="matrix" values="0 0 0 0 0 0 0 0 0 0 0 0 0 0 0 0 0 0 127 0" result="hardAlpha"/>
<feOffset dy="4.8"/>
<feGaussianBlur stdDeviation="2.4"/>
<feComposite in2="hardAlpha" operator="out"/>
<feColorMatrix type="matrix" values="0 0 0 0 0 0 0 0 0 0 0 0 0 0 0 0 0 0 0.25 0"/>
<feBlend mode="normal" in2="effect1_dropShadow_163_378" result="effect2_dropShadow_163_378"/>
<feColorMatrix in="SourceAlpha" type="matrix" values="0 0 0 0 0 0 0 0 0 0 0 0 0 0 0 0 0 0 127 0" result="hardAlpha"/>
<feOffset dy="4.8"/>
<feGaussianBlur stdDeviation="2.4"/>
<feComposite in2="hardAlpha" operator="out"/>
<feColorMatrix type="matrix" values="0 0 0 0 0 0 0 0 0 0 0 0 0 0 0 0 0 0 0.25 0"/>
<feBlend mode="normal" in2="effect2_dropShadow_163_378" result="effect3_dropShadow_163_378"/>
<feBlend mode="normal" in="SourceGraphic" in2="effect3_dropShadow_163_378" result="shape"/>
</filter>
</defs>
</svg>
