<svg width="207" height="206" viewBox="0 0 207 206" fill="none" xmlns="http://www.w3.org/2000/svg">
<path d="M152 129.799L113 173.674L109.408 142.547L100.25 151.172L91.5473 142.547L81.875 151.172L57.125 127.547L66.5743 117.797L58.25 109.547L69.5 97.8646L36.5 94.924L77 56.674L108.5 54.7144C125.44 40.5371 145.96 26.1422 163.625 15.9851C183.076 4.80102 199.065 -1.24475 203 3.79626C207.541 9.61437 205.047 25.5294 196.432 44.6716C188.143 63.092 174.185 84.5008 155.375 102.777L152 129.799Z" fill="white"/>
<path d="M74.375 98.299L108.5 134.674M74.375 98.299L36.5 94.924L77 56.674L108.5 54.7144M74.375 98.299C69.3341 83.4269 123.753 38.9108 163.625 15.9851M108.5 134.674C151.621 116.26 182.283 76.1126 196.432 44.6716M108.5 134.674L109.408 142.547M155.375 102.777L152 129.799L113 173.674L109.408 142.547M163.625 15.9851C183.076 4.80102 199.065 -1.24475 203 3.79626C207.541 9.61437 205.047 25.5294 196.432 44.6716M163.625 15.9851C162.125 30.7966 174.125 46.1716 196.432 44.6716M69.5 97.8646L58.25 109.547L66.5743 117.797M109.408 142.547L100.25 151.172L91.5473 142.547M66.5743 117.797L57.125 127.547L81.875 151.172L91.5473 142.547M66.5743 117.797L91.5473 142.547M2 204.797L59.375 148.922M17 171.422L50 138.047M38.375 189.047L70.625 158.297M133.25 50.6716C116.75 58.1716 121.625 73.5466 130.625 80.2966C139.625 87.0466 149.375 82.9216 155.375 74.2966C161.375 65.6716 149.75 43.1716 133.25 50.6716Z" stroke="black" stroke-width="3"/>
</svg>
