<svg width="91" height="98" viewBox="0 0 91 98" fill="none" xmlns="http://www.w3.org/2000/svg">
<g filter="url(#filter0_d_149_255)">
<ellipse cx="45.5" cy="45" rx="41.5" ry="45" fill="#D9D9D9"/>
<g filter="url(#filter1_d_149_255)">
<path d="M11.8848 61.6216V44.1542C11.8848 44.1542 22.2634 44.1542 24.3048 40.3054C26.2758 36.5894 28.2302 30.3947 30.2103 25.9467C30.8343 24.5449 31.4609 23.3166 32.0913 22.394C33.3319 20.5785 34.5875 19.9467 35.8683 21.5057C38.8662 25.1549 33.7269 32.6502 35.2972 33.9402C36.8676 35.2302 43.2918 33.6441 44.2911 36.7527C44.7318 38.1238 43.2918 40.3054 43.2918 40.3054C43.2918 40.3054 45.0824 40.9273 45.2904 41.9337C45.7187 44.0061 44.0055 45.6344 44.0055 45.6344C44.0055 45.6344 45.729 47.4065 45.8614 48.299C46.1469 50.2234 43.72 51.8517 43.72 51.8517C43.72 51.8517 46.1826 52.4438 45.0049 55.7004C43.8271 58.957 28.4448 60.4374 24.5903 59.6972C20.7358 58.957 11.8848 61.6216 11.8848 61.6216Z" fill="#ECCCC0"/>
<path d="M32.0913 22.394C33.3319 20.5785 34.5875 19.9467 35.8683 21.5057C38.8662 25.1549 33.7269 32.6502 35.2972 33.9402C36.8676 35.2302 43.2918 33.6441 44.2911 36.7527C44.7318 38.1238 43.2918 40.3054 43.2918 40.3054C43.2918 40.3054 45.0824 40.9273 45.2904 41.9337C45.7187 44.0061 44.0055 45.6344 44.0055 45.6344C44.0055 45.6344 45.729 47.4065 45.8614 48.299C46.1469 50.2234 43.72 51.8517 43.72 51.8517C43.72 51.8517 46.1826 52.4438 45.0049 55.7004C43.8271 58.957 28.4448 60.4374 24.5903 59.6972C20.7358 58.957 11.8848 61.6216 11.8848 61.6216V44.1542C11.8848 44.1542 22.2634 44.1542 24.3048 40.3054C26.2758 36.5894 28.2302 30.3947 30.2103 25.9467M32.0913 22.394L33.8697 22.838C33.8697 22.838 33.7939 24.4985 33.1559 25.2065C32.3478 26.1033 30.2103 25.9467 30.2103 25.9467M32.0913 22.394C31.4609 23.3166 30.8343 24.5449 30.2103 25.9467M29.1586 30.8316C29.1586 30.8316 30.3961 29.7514 31.1572 30.0915C31.7269 30.346 32.0913 31.4237 32.0913 31.4237" stroke="#725050" stroke-width="0.3"/>
</g>
<g filter="url(#filter2_d_149_255)">
<path d="M76.7541 60H62.2211L57.6704 45.4062C57.6704 45.4062 56.5239 43.9946 56.0556 43.5648C53.5631 41.2768 51.8339 35.4664 55.1748 35.7954C59.7256 36.2437 61.2644 42.7906 64.2763 41.7718C65.5714 41.3338 68.5334 39.7358 68.6802 37.8872L66.1846 34.7495L63.2487 32.8072L60.2139 32.0601C59.4675 32.9906 58.9916 33.8531 58.9916 33.8531C58.9916 33.8531 55.6152 35.8836 54.7344 35.4966C54.1401 35.2354 53.992 34.9866 53.9869 34.5768C53.8645 35.2843 53.4934 36.2908 52.3809 36.5425C50.9047 36.8764 50.1534 36.126 50.1207 34.9069C49.8005 36.0211 48.4567 36.2288 47.3945 36.5425C46.127 36.9168 45.6916 34.0025 46.2201 32.6578C47.1597 30.2672 50.4172 25.5562 51.5049 25.1872C52.3857 24.8884 53.2665 25.1872 53.2665 25.1872C53.2665 25.1872 54.0951 22.5513 55.4684 22.3484L60.7532 21.0037C62.0602 20.9176 63.8359 22.3484 63.8359 22.3484C63.8359 22.3484 75.5797 26.5319 76.7541 31.1637C77.9285 35.7954 74.4787 43.0044 75.1393 50.5871C75.4632 54.3041 76.7541 60 76.7541 60Z" fill="#ECCCC0"/>
<path d="M63.8359 22.3484C63.8359 22.3484 75.5797 26.5319 76.7541 31.1637C77.9285 35.7954 74.4787 43.0044 75.1393 50.5871C75.4632 54.3041 76.7541 60 76.7541 60H62.2211L57.6704 45.4062M63.8359 22.3484C63.8359 22.3484 62.0602 20.9176 60.7532 21.0037L55.4684 22.3484C54.0951 22.5513 53.2665 25.1872 53.2665 25.1872M63.8359 22.3484C63.8359 22.3484 57.6704 24.1414 56.0556 27.5778C54.4409 31.0143 54.811 31.4625 54.811 31.4625M53.2665 25.1872C53.2665 25.1872 52.3857 24.8884 51.5049 25.1872C50.4172 25.5562 47.1597 30.2672 46.2201 32.6578C45.6916 34.0025 46.127 36.9168 47.3945 36.5425C48.662 36.1681 50.3305 35.9448 50.1823 34.1519M53.2665 25.1872L51.2103 31.1637M61.7807 48.3459L57.6704 45.4062M57.6704 45.4062C57.6704 45.4062 56.5239 43.9946 56.0556 43.5648C53.5631 41.2768 51.8339 35.4664 55.1748 35.7954C59.7256 36.2437 61.2644 42.7906 64.2763 41.7718C65.5714 41.3338 68.5334 39.7358 68.6802 37.8872M50.1823 34.1519L52.5325 34.4507C52.5325 34.4507 52.7173 33.4208 52.5325 32.8072C52.2936 32.0141 51.2103 31.1637 51.2103 31.1637M50.1823 34.1519L51.2103 31.1637M50.1823 34.1519C49.8901 35.7954 50.6193 36.941 52.3809 36.5425C54.1425 36.144 54.0451 33.8531 54.0451 33.8531M54.0451 33.8531L56.3492 34.1519C56.3492 34.1519 56.5183 33.3033 56.3492 32.8072C56.0896 32.0458 54.811 31.4625 54.811 31.4625M54.0451 33.8531L54.811 31.4625M54.0451 33.8531C53.953 34.7495 53.8537 35.1096 54.7344 35.4966C55.6152 35.8836 58.9916 33.8531 58.9916 33.8531C58.9916 33.8531 59.4675 32.9906 60.2139 32.0601M59.2851 43.5648C59.2851 43.5648 58.7127 42.1602 59.2851 41.7718C59.6667 41.5129 60.4595 41.7718 60.4595 41.7718M62.2211 30.2108C62.5536 30.0178 62.8984 29.8784 63.2487 29.819C65.8911 29.3707 69.4969 33.3975 69.1206 35.7954C69.0032 36.5439 69.459 37.5374 68.6802 37.8872M62.2211 30.2108L65.4506 32.0601L66.1846 34.7495M62.2211 30.2108C61.4601 30.6525 60.7637 31.3748 60.2139 32.0601M66.1846 34.7495L68.6802 37.8872M66.1846 34.7495L63.2487 32.8072L60.2139 32.0601M53.8537 37.8872L55.9088 36.3931C55.9088 36.3931 56.9113 37.1754 56.9364 37.8872C56.9567 38.4615 56.8048 38.8924 56.3492 39.2319C55.8844 39.5783 55.4177 39.5952 54.8812 39.3813C54.2297 39.1214 53.8537 37.8872 53.8537 37.8872ZM46.367 34.4507H48.7157C48.7157 34.4507 49.2124 33.7507 49.1561 33.2554C49.0861 32.6393 48.7241 32.1917 48.1286 32.0601C47.5022 31.9218 47.0451 32.2853 46.6606 32.8072C46.276 33.3291 46.367 34.4507 46.367 34.4507Z" stroke="#725050" stroke-width="0.3"/>
</g>
</g>
<defs>
<filter id="filter0_d_149_255" x="0" y="0" width="91" height="98" filterUnits="userSpaceOnUse" color-interpolation-filters="sRGB">
<feFlood flood-opacity="0" result="BackgroundImageFix"/>
<feColorMatrix in="SourceAlpha" type="matrix" values="0 0 0 0 0 0 0 0 0 0 0 0 0 0 0 0 0 0 127 0" result="hardAlpha"/>
<feOffset dy="4"/>
<feGaussianBlur stdDeviation="2"/>
<feComposite in2="hardAlpha" operator="out"/>
<feColorMatrix type="matrix" values="0 0 0 0 0 0 0 0 0 0 0 0 0 0 0 0 0 0 0.25 0"/>
<feBlend mode="normal" in2="BackgroundImageFix" result="effect1_dropShadow_149_255"/>
<feBlend mode="normal" in="SourceGraphic" in2="effect1_dropShadow_149_255" result="shape"/>
</filter>
<filter id="filter1_d_149_255" x="7.73486" y="20.4717" width="42.3" height="49.3518" filterUnits="userSpaceOnUse" color-interpolation-filters="sRGB">
<feFlood flood-opacity="0" result="BackgroundImageFix"/>
<feColorMatrix in="SourceAlpha" type="matrix" values="0 0 0 0 0 0 0 0 0 0 0 0 0 0 0 0 0 0 127 0" result="hardAlpha"/>
<feOffset dy="4"/>
<feGaussianBlur stdDeviation="2"/>
<feComposite in2="hardAlpha" operator="out"/>
<feColorMatrix type="matrix" values="0 0 0 0 0 0 0 0 0 0 0 0 0 0 0 0 0 0 0.25 0"/>
<feBlend mode="normal" in2="BackgroundImageFix" result="effect1_dropShadow_149_255"/>
<feBlend mode="normal" in="SourceGraphic" in2="effect1_dropShadow_149_255" result="shape"/>
</filter>
<filter id="filter2_d_149_255" x="41.8501" y="20.8501" width="39.2998" height="47.2998" filterUnits="userSpaceOnUse" color-interpolation-filters="sRGB">
<feFlood flood-opacity="0" result="BackgroundImageFix"/>
<feColorMatrix in="SourceAlpha" type="matrix" values="0 0 0 0 0 0 0 0 0 0 0 0 0 0 0 0 0 0 127 0" result="hardAlpha"/>
<feOffset dy="4"/>
<feGaussianBlur stdDeviation="2"/>
<feComposite in2="hardAlpha" operator="out"/>
<feColorMatrix type="matrix" values="0 0 0 0 0 0 0 0 0 0 0 0 0 0 0 0 0 0 0.25 0"/>
<feBlend mode="normal" in2="BackgroundImageFix" result="effect1_dropShadow_149_255"/>
<feBlend mode="normal" in="SourceGraphic" in2="effect1_dropShadow_149_255" result="shape"/>
</filter>
</defs>
</svg>
