<svg width="91" height="98" viewBox="0 0 91 98" fill="none" xmlns="http://www.w3.org/2000/svg">
<g filter="url(#filter0_dd_144_85)">
<ellipse cx="45.5" cy="45" rx="41.5" ry="45" fill="#D9D9D9"/>
<g filter="url(#filter1_dd_144_85)">
<path d="M53.1035 41.5804L55.4473 40.9375L55.916 41.5804L54.3223 42.0625" stroke="#725050" stroke-width="0.3"/>
<path d="M53.8535 43.5625L56.1035 42.8125" stroke="#725050" stroke-width="0.3"/>
<path d="M37.7914 74.9301V73.0023V72.2393C37.7914 72.2393 38.2897 70.7358 37.7914 69.9501C37.4947 69.4822 36.6653 68.9862 36.6653 68.9862C36.6653 68.9862 35.649 67.8624 35.1639 67.0585C34.4565 65.8863 34.3428 65.12 33.9439 63.8456C33.6426 62.8827 33.4542 62.3422 33.2871 61.3556C33.0974 60.2363 33.2841 59.5839 33.0994 58.464C32.9154 57.3489 32.5326 56.7678 32.3487 55.6527C32.1639 54.5329 32.1937 53.8918 32.161 52.7611C32.1347 51.8517 32.046 51.3361 32.161 50.4318C32.2457 49.7652 32.2883 49.3811 32.5363 48.745C32.7543 48.186 32.9237 47.8801 33.2871 47.3795C33.6586 46.8677 33.8983 46.5857 34.4131 46.1747C34.8742 45.8066 35.2206 45.6931 35.7269 45.3715C36.2096 45.0649 36.6379 45.0096 36.9468 44.5683C37.38 43.9494 36.8519 43.4377 36.9468 42.7209C37.0399 42.0177 37.2505 41.6471 37.416 40.9538C37.5801 40.2666 37.5721 39.8625 37.7914 39.1867C38.0554 38.3729 38.1285 37.8483 38.7298 37.1786C39.1731 36.685 39.4959 36.428 40.1374 36.1344C40.6791 35.8865 41.3906 36.2138 41.6388 35.7328V35.0099V32.9215V30.3512V27.8612V25.7729V25.3713C41.6388 24.6184 41.6777 24.1956 41.6388 23.4435C41.59 22.4987 41.4615 21.9754 41.3573 21.0339C41.2809 20.344 41.2015 19.9592 41.1696 19.2668C41.1451 18.7339 41.0562 18.4256 41.1696 17.9013C41.2688 17.4428 41.2349 17.0897 41.6388 16.7768C41.9825 16.5105 42.3088 16.5265 42.7649 16.4555C43.3418 16.3657 43.698 16.3319 44.2663 16.4555C45.0347 16.6225 45.4455 16.8998 45.9555 17.4194C46.5377 18.0125 46.5347 18.5261 46.8 19.2668C47.4063 20.9593 47.2087 22.0073 47.4569 23.7648C47.5455 24.3921 47.5946 24.7438 47.681 25.3713C47.8867 26.8455 48.2076 27.829 48.2076 29.1464V32.5199C48.373 32.8102 48.6769 32.9547 49.0522 32.9215C49.519 32.8803 49.4759 32.4065 49.8029 32.1183C50.2576 31.7177 50.5025 31.4232 51.1167 31.2348C51.7721 31.0337 52.2139 31.1315 52.8996 31.2348C53.5503 31.3328 54.0544 32.1381 54.4949 31.7167C54.8126 31.4128 54.4741 31.0799 54.4949 30.6725C54.5585 29.4308 55.1518 27.54 55.1518 27.54C55.1518 27.54 55.0159 25.4787 55.1518 24.1664C55.2698 23.0261 55.4482 22.3967 55.7148 21.2748C55.8496 20.708 55.659 20.2743 56.0902 19.829C56.4151 19.4935 56.7308 19.398 57.2163 19.2668C57.8802 19.0872 58.3401 19.0747 58.9992 19.2668C59.7857 19.496 60.2233 19.8354 60.5945 20.4716C61.0366 21.2293 60.5945 21.7934 60.5945 22.6403V25.7729C60.5945 27.6863 60.6483 28.7596 60.5945 30.6725C60.5009 34.0038 60.2445 35.8648 59.9376 39.1867C59.7695 41.0071 59.5474 42.0205 59.4684 43.8454C59.4088 45.2246 59.4684 47.3795 59.4684 47.3795V51.8776V55.4118V58.705V61.3556L58.9992 63.8456C58.816 64.818 58.5343 65.0187 58.0608 65.693C57.6568 66.2684 56.9884 66.3992 56.8409 67.0585C56.7789 67.3358 56.8173 67.4998 56.8409 67.7814C56.8893 68.3583 57.1274 68.6538 57.2163 69.2272C57.3513 70.0978 57.2163 70.5979 57.2163 71.4762C57.2163 72.825 58.2542 73.9151 57.2163 74.9301C56.7609 75.3754 56.3004 75.4185 55.7148 75.7333C55.0174 76.1082 54.6561 76.3616 53.9319 76.6972C53.0516 77.105 52.5253 77.2851 51.5859 77.5807C50.6173 77.8854 50.0568 78.0213 49.0522 78.2233C48.0023 78.4343 47.4092 78.6197 46.3308 78.6249C45.2163 78.6302 44.5975 78.4526 43.5156 78.2233C42.5819 78.0254 42.0864 77.8299 41.1696 77.5807C40.4737 77.3915 40.0598 77.341 39.3867 77.0988C38.7368 76.8649 38.1428 76.8989 37.7914 76.3759C37.4625 75.8864 37.7914 75.4947 37.7914 74.9301Z" fill="#ECCCC0"/>
<path d="M37.7914 70.2714C37.7914 70.2714 37.7914 71.0057 37.7914 71.4762C37.7914 71.7742 37.7914 72.2393 37.7914 72.2393M48.2076 32.5199C48.373 32.8102 48.6769 32.9547 49.0522 32.9215C49.519 32.8803 49.4759 32.4065 49.8029 32.1183C50.2576 31.7177 50.5025 31.4232 51.1167 31.2348C51.7721 31.0337 52.2139 31.1315 52.8996 31.2348C53.5503 31.3328 54.0544 32.1381 54.4949 31.7167C54.8126 31.4128 54.4741 31.0799 54.4949 30.6725C54.5585 29.4308 55.1518 27.54 55.1518 27.54C55.1518 27.54 55.0159 25.4787 55.1518 24.1664C55.2698 23.0261 55.4482 22.3967 55.7148 21.2748C55.8496 20.708 55.659 20.2743 56.0902 19.829C56.4151 19.4935 56.7308 19.398 57.2163 19.2668C57.8802 19.0872 58.3401 19.0747 58.9992 19.2668C59.7857 19.496 60.2233 19.8354 60.5945 20.4716C61.0366 21.2293 60.5945 21.7934 60.5945 22.6403C60.5945 23.8636 60.5945 24.5495 60.5945 25.7729C60.5945 27.6863 60.6483 28.7596 60.5945 30.6725C60.5009 34.0038 60.2445 35.8648 59.9376 39.1867C59.7695 41.0071 59.5474 42.0205 59.4684 43.8454C59.4088 45.2246 59.4684 47.3795 59.4684 47.3795V51.8776V55.4118V58.705V61.3556C59.2852 62.328 59.1825 62.8732 58.9992 63.8456C58.816 64.818 58.5343 65.0187 58.0608 65.693C57.6568 66.2684 56.9884 66.3992 56.8409 67.0585C56.7789 67.3358 56.8173 67.4998 56.8409 67.7814C56.8893 68.3583 57.1274 68.6538 57.2163 69.2272C57.3513 70.0978 57.2163 70.5979 57.2163 71.4762C57.2163 72.825 58.2542 73.9151 57.2163 74.9301C56.7609 75.3754 56.3004 75.4185 55.7148 75.7333C55.0174 76.1082 54.6561 76.3616 53.9319 76.6972C53.0516 77.105 52.5253 77.2851 51.5859 77.5807C50.6173 77.8854 50.0568 78.0213 49.0522 78.2233C48.0023 78.4343 47.4092 78.6197 46.3308 78.6249C45.2163 78.6302 44.5975 78.4526 43.5156 78.2233C42.5819 78.0254 42.0864 77.8299 41.1696 77.5807C40.4737 77.3915 40.0598 77.341 39.3867 77.0988C38.7368 76.8649 38.1428 76.8989 37.7914 76.3759C37.4625 75.8864 37.7914 75.4947 37.7914 74.9301C37.7914 74.1772 37.7914 73.7552 37.7914 73.0023C37.7914 72.7043 37.7914 72.2393 37.7914 72.2393M48.2076 32.5199C48.2076 31.2025 48.2076 30.4638 48.2076 29.1464C48.2076 27.829 47.8867 26.8455 47.681 25.3713M48.2076 32.5199C47.4747 32.5199 47.0638 32.5199 46.3308 32.5199C45.2314 32.5199 44.615 32.5199 43.5156 32.5199C42.9659 32.5199 42.6577 32.5199 42.108 32.5199M37.7914 72.2393C37.7914 72.2393 38.2897 70.7358 37.7914 69.9501C37.4947 69.4822 36.6653 68.9862 36.6653 68.9862C36.6653 68.9862 35.649 67.8624 35.1639 67.0585C34.4565 65.8863 34.3428 65.12 33.9439 63.8456C33.6426 62.8827 33.4542 62.3422 33.2871 61.3556C33.0974 60.2363 33.2841 59.5839 33.0994 58.464C32.9154 57.3489 32.5326 56.7679 32.3487 55.6527C32.1639 54.5329 32.1937 53.8918 32.161 52.7611C32.1347 51.8517 32.046 51.3361 32.161 50.4318C32.2457 49.7652 32.2883 49.3811 32.5363 48.745C32.7543 48.186 32.9237 47.8801 33.2871 47.3795C33.6586 46.8677 33.8983 46.5857 34.4131 46.1747C34.8742 45.8066 35.2206 45.6931 35.7269 45.3715C36.2096 45.0649 36.6379 45.0096 36.9468 44.5683C37.38 43.9494 36.8519 43.4377 36.9468 42.7209C37.0399 42.0177 37.2505 41.6471 37.416 40.9538C37.5801 40.2666 37.5721 39.8625 37.7914 39.1867C38.0554 38.3729 38.1285 37.8483 38.7298 37.1786C39.1731 36.685 39.4959 36.428 40.1374 36.1344C40.6791 35.8865 41.3906 36.2138 41.6388 35.7328V35.0099C41.6388 35.0099 41.6388 33.7371 41.6388 32.9215C41.6388 31.9178 41.6388 31.355 41.6388 30.3512C41.6388 29.3788 41.6388 28.8336 41.6388 27.8612C41.6388 27.0457 41.6388 25.7729 41.6388 25.7729C41.6388 25.7729 41.6388 25.5281 41.6388 25.3713M41.6388 25.3713C41.6388 24.6184 41.6777 24.1956 41.6388 23.4435C41.59 22.4987 41.4615 21.9754 41.3573 21.0339C41.2809 20.344 41.2015 19.9592 41.1696 19.2668C41.1451 18.7339 41.0562 18.4256 41.1696 17.9013C41.2688 17.4428 41.2349 17.0897 41.6388 16.7768C41.9825 16.5105 42.3088 16.5265 42.7649 16.4555C43.3418 16.3657 43.698 16.3319 44.2663 16.4555C45.0347 16.6225 45.4455 16.8998 45.9555 17.4194C46.5377 18.0125 46.5347 18.5261 46.8 19.2668C47.4063 20.9593 47.2087 22.0073 47.4569 23.7648C47.5455 24.3921 47.5946 24.7438 47.681 25.3713M41.6388 25.3713C42.0786 25.3713 42.3252 25.3636 42.7649 25.3713C43.462 25.3834 43.8506 25.4516 44.5479 25.4516C45.2451 25.4516 45.6338 25.3848 46.3308 25.3713C46.858 25.361 47.681 25.3713 47.681 25.3713M55.7148 27.54C56.3012 27.54 56.6299 27.54 57.2163 27.54C57.9126 27.54 58.3749 27.2316 58.9992 27.54C59.1984 27.6383 59.4684 27.8612 59.4684 27.8612" stroke="#725050" stroke-width="0.3"/>
<path d="M54.791 33.4375L57.1348 33.7443L58.4473 34.1278L60.2285 35.125" stroke="#725050" stroke-width="0.3"/>
<path d="M34.916 49.9603C34.916 49.9603 35.9236 50.1624 36.5098 50.4444C37.3009 50.825 37.6491 51.217 38.291 51.816C39.0767 52.5492 40.0723 53.9137 40.0723 53.9137L41.291 55.5273C41.291 55.5273 41.9038 56.3451 42.416 56.7376C43.0591 57.2303 43.4957 57.4708 44.291 57.6251C44.902 57.7436 45.4002 58.0157 45.8848 57.6251C46.1899 57.3791 46.2695 57.1204 46.3535 56.7376C46.4211 56.4298 46.3535 55.9307 46.3535 55.9307C46.3535 55.9307 46.3823 55.4377 46.3535 55.1239C46.2936 54.4705 46.1202 54.1228 45.8848 53.5103C45.6195 52.8203 45.3902 52.4675 45.041 51.816C44.378 50.579 43.9577 49.9089 43.166 48.7501C42.4774 47.7421 41.9805 47.2563 41.291 46.2489C40.9509 45.7519 40.9064 45.3478 40.4473 44.958C39.8833 44.4791 39.3978 44.4216 38.666 44.3126C38.1228 44.2317 37.2598 44.3126 37.2598 44.3126" stroke="#725050" stroke-width="0.3"/>
<path d="M45.4611 52.375C45.4611 52.375 46.2392 52.8192 46.7902 52.9375C47.4065 53.0698 47.8056 53.1351 48.4041 52.9375C48.8134 52.8024 49.089 52.7152 49.3535 52.375C49.7965 51.8051 49.3535 51.2486 49.3535 50.5268C49.3535 49.7423 49.5261 49.2832 49.3535 48.5179C49.1129 47.4512 48.4406 47.0738 47.9295 46.1071C47.4427 45.1866 46.7902 43.6964 46.7902 43.6964C46.7902 43.6964 46.071 42.0295 45.4611 41.0446C44.993 40.2888 44.6439 39.9233 44.132 39.1964C43.6053 38.4486 43.3505 38.0005 42.8029 37.2679C42.4441 36.7879 41.8535 36.0625 41.8535 36.0625M44.132 56.875L44.9473 56.5L45.6035 56.0312L45.791 55.75L45.3223 54.8125L44.7598 54.25H44.132L43.6348 54.8125L43.2598 55.375L43.3535 56.125L44.132 56.875ZM46.166 51.7188L46.916 51.3438L47.9295 50.875L48.4041 50.5268L48.6973 50.4062L47.9295 48.7188L47.291 48.3438L46.541 48.5179L45.8848 49.0938L45.791 49.8438V50.5268L45.8848 51.0625L46.166 51.7188Z" stroke="#725050" stroke-width="0.3"/>
<path d="M59.2911 48.5591C58.8045 48.1243 58.5541 47.8581 58.1619 47.3591C57.4219 46.4174 57.1556 45.7978 56.7504 44.7189C56.3294 43.5982 56.5441 42.8706 56.0916 41.7588C55.8013 41.0452 55.5502 40.673 55.1506 39.9987C54.5579 38.9984 53.5925 38.6326 53.4568 37.5185C53.4227 37.2389 53.4366 37.079 53.4568 36.7985C53.4807 36.4654 53.5338 36.2245 53.6032 35.9688M48.9398 32.8783L48.5634 35.1184C48.5634 35.1184 48.2736 36.3309 48.187 37.1185C48.0639 38.2384 48.187 39.9987 48.187 39.9987L48.5634 41.1987L49.3162 41.7588H48.9398V42.8788V44.7189L49.3162 46.079L49.8809 47.3591C49.8809 47.3591 50.1103 47.8954 50.2573 48.2391M50.2573 48.2391C50.588 48.6141 51.1042 49.1992 51.1042 49.1992L52.1393 49.9992C52.1393 49.9992 53.0037 50.2579 53.4568 50.5593C54.6734 51.3685 49.1735 47.3279 50.2573 48.2391ZM50.2573 48.2391C49.8898 48.4891 49.3162 48.8792 49.3162 48.8792M44.7993 57.5196C44.7993 57.5196 45.0704 58.7082 45.3639 59.4397C45.6085 60.0494 45.8821 60.3474 46.1168 60.9598C46.3736 61.63 46.2294 62.0841 46.5873 62.7199C46.9045 63.2836 47.2755 63.5001 47.7165 64M54.1349 31.9375C54.1349 31.9375 54.3021 32.5042 54.3224 32.8783C54.3506 33.394 54.2486 33.6837 54.1349 34.1875C54.0254 34.6733 53.8874 34.9249 53.7599 35.4062C53.703 35.6214 53.6495 35.7983 53.6032 35.9688M54.1349 32.7812C54.1349 32.7812 53.7273 32.5949 53.4568 32.5C53.213 32.4145 53.0451 32.1815 52.8224 32.3125C52.6218 32.4306 52.6349 32.8783 52.6349 32.8783C52.6349 32.8783 52.4748 33.4414 52.4474 33.8125C52.4313 34.0316 52.4474 34.375 52.4474 34.375C52.4474 34.375 52.3771 34.7294 52.4474 34.9375C52.5225 35.1596 52.6567 35.2405 52.8224 35.4062C52.9882 35.572 53.2912 35.7812 53.2912 35.7812L53.6032 35.9688" stroke="#725050" stroke-width="0.3"/>
<path d="M48.6035 67L51.2285 67.9375H53.291L55.4473 67.625L56.666 67" stroke="#725050" stroke-width="0.3"/>
<path d="M37.7285 69.7672L39.4354 70.1875L41.5216 69.7672L43.7027 69.1789L45.9785 67.75" stroke="#725050" stroke-width="0.3"/>
<path d="M40.3797 16.9375C40.3797 16.9375 38.1465 18.1062 37.0802 19.4501C36.3696 20.3458 35.9066 20.8844 35.5719 22.0824C35.1782 23.4916 35.3818 24.4355 35.5719 25.9111C35.7467 27.2674 35.8944 28.06 36.4203 29.2613C36.8532 30.25 37.6158 30.8625 38.3326 31.5346C39.1754 32.3248 40.8779 32.6114 40.8779 32.6114C40.8779 32.6114 42.6204 32.6114 44.0562 32.6114C45.3447 32.6114 46.0671 32.6114 47.3557 32.6114C48.3865 32.6114 49.6437 32.3899 50.6656 32.2188C51.8438 32.0215 52.9176 31.5346 52.9176 31.5346L55.4469 30.4375L57.6311 29.2613L58.7623 28.663L60.0406 30.1562L61.2594 31.5346L62.7217 22.6806L55.9342 20.6466L56.7827 24.9539C56.7827 24.9539 54.7266 26.0168 53.3889 26.629C52.0748 27.2305 51.3556 27.6614 49.9952 28.0648C48.7632 28.4301 48.0517 28.5432 46.79 28.663C45.4684 28.7886 45.3815 28.8438 44.0562 28.8438C43.4304 28.8438 42.407 28.8215 41.7937 28.663C40.8897 28.4294 40.341 28.093 39.7198 27.2273C39.0292 26.2649 38.4471 25.3488 38.7771 24.1164C38.9621 23.4253 39.3188 23.2037 39.7198 22.6806C40.0652 22.2301 40.6625 21.6038 40.6625 21.6038L40.3797 16.9375Z" fill="#725050" stroke="#725050" stroke-width="0.3"/>
</g>
</g>
<defs>
<filter id="filter0_dd_144_85" x="0" y="0" width="91" height="98" filterUnits="userSpaceOnUse" color-interpolation-filters="sRGB">
<feFlood flood-opacity="0" result="BackgroundImageFix"/>
<feColorMatrix in="SourceAlpha" type="matrix" values="0 0 0 0 0 0 0 0 0 0 0 0 0 0 0 0 0 0 127 0" result="hardAlpha"/>
<feOffset dy="4"/>
<feGaussianBlur stdDeviation="2"/>
<feComposite in2="hardAlpha" operator="out"/>
<feColorMatrix type="matrix" values="0 0 0 0 0 0 0 0 0 0 0 0 0 0 0 0 0 0 0.25 0"/>
<feBlend mode="normal" in2="BackgroundImageFix" result="effect1_dropShadow_144_85"/>
<feColorMatrix in="SourceAlpha" type="matrix" values="0 0 0 0 0 0 0 0 0 0 0 0 0 0 0 0 0 0 127 0" result="hardAlpha"/>
<feOffset dy="4"/>
<feGaussianBlur stdDeviation="2"/>
<feComposite in2="hardAlpha" operator="out"/>
<feColorMatrix type="matrix" values="0 0 0 0 0 0 0 0 0 0 0 0 0 0 0 0 0 0 0.25 0"/>
<feBlend mode="normal" in2="effect1_dropShadow_144_85" result="effect2_dropShadow_144_85"/>
<feBlend mode="normal" in="SourceGraphic" in2="effect2_dropShadow_144_85" result="shape"/>
</filter>
<filter id="filter1_dd_144_85" x="27.9536" y="16.225" width="38.9375" height="70.55" filterUnits="userSpaceOnUse" color-interpolation-filters="sRGB">
<feFlood flood-opacity="0" result="BackgroundImageFix"/>
<feColorMatrix in="SourceAlpha" type="matrix" values="0 0 0 0 0 0 0 0 0 0 0 0 0 0 0 0 0 0 127 0" result="hardAlpha"/>
<feOffset dy="4"/>
<feGaussianBlur stdDeviation="2"/>
<feComposite in2="hardAlpha" operator="out"/>
<feColorMatrix type="matrix" values="0 0 0 0 0 0 0 0 0 0 0 0 0 0 0 0 0 0 0.25 0"/>
<feBlend mode="normal" in2="BackgroundImageFix" result="effect1_dropShadow_144_85"/>
<feColorMatrix in="SourceAlpha" type="matrix" values="0 0 0 0 0 0 0 0 0 0 0 0 0 0 0 0 0 0 127 0" result="hardAlpha"/>
<feOffset dy="4"/>
<feGaussianBlur stdDeviation="2"/>
<feComposite in2="hardAlpha" operator="out"/>
<feColorMatrix type="matrix" values="0 0 0 0 0 0 0 0 0 0 0 0 0 0 0 0 0 0 0.25 0"/>
<feBlend mode="normal" in2="effect1_dropShadow_144_85" result="effect2_dropShadow_144_85"/>
<feBlend mode="normal" in="SourceGraphic" in2="effect2_dropShadow_144_85" result="shape"/>
</filter>
</defs>
</svg>
