<svg width="206" height="183" viewBox="0 0 206 183" fill="none" xmlns="http://www.w3.org/2000/svg">
<path d="M204.215 178C199.715 181.721 7.46437 183.471 2.21456 178C-3.03524 172.529 89.7145 2.00167 98.2146 2C106.715 1.99833 208.715 174.279 204.215 178Z" fill="white" stroke="black" stroke-width="3"/>
<path d="M108.964 86.5928C108.964 87.0303 108.808 87.499 108.496 87.999C108.058 88.6865 107.777 89.124 107.652 89.3115C106.214 92.874 105.152 97.4053 104.464 102.905C104.152 104.843 103.683 109.53 103.058 116.968C103.058 117.28 102.964 117.905 102.777 118.843C102.652 119.718 102.589 120.405 102.589 120.905C102.589 122.53 102.933 124.687 103.621 127.374C103.246 127.874 102.621 128.562 101.746 129.437C101.058 129.624 100.308 129.718 99.4956 129.718C98.2456 129.718 97.0894 129.405 96.0269 128.78C95.0894 127.03 94.6206 124.78 94.6206 122.03C94.6206 119.155 95.1831 114.905 96.3081 109.28C97.4956 103.593 98.0894 99.3115 98.0894 96.4365C98.0894 95.3115 97.8706 93.624 97.4331 91.374C97.0581 89.0615 96.8706 87.3428 96.8706 86.2178C96.8706 85.5928 96.9331 85.0615 97.0581 84.624C98.6206 83.3115 100.527 82.6553 102.777 82.6553C104.089 82.6553 105.402 82.9678 106.714 83.5928C108.214 84.4053 108.964 85.4053 108.964 86.5928ZM106.246 139.937C106.246 144.687 103.527 147.062 98.0894 147.062C97.0894 147.062 95.1831 146.468 92.3706 145.28C91.6206 143.905 91.2456 142.593 91.2456 141.343C91.2456 137.718 93.4644 135.905 97.9019 135.905C99.5269 135.905 101.183 136.218 102.871 136.843C105.121 137.655 106.246 138.687 106.246 139.937Z" fill="black"/>
<path d="M182 165.998C177 169.996 29.5005 170.5 25.0002 165.998C20.5 161.496 88.0004 31.9961 99.0002 31.998C110 32 187 162 182 165.998Z" stroke="black" stroke-width="3"/>
</svg>
