<svg width="91" height="98" viewBox="0 0 91 98" fill="none" xmlns="http://www.w3.org/2000/svg">
<g filter="url(#filter0_dd_144_84)">
<g filter="url(#filter1_d_144_84)">
<ellipse cx="45.5" cy="45" rx="41.5" ry="45" fill="#D9D9D9"/>
</g>
<g filter="url(#filter2_dd_144_84)">
<path d="M35.1721 74.0149H31.42L31.5721 71.0404V68.1651L30.8116 67.6694L30.0003 66.1822L29.0876 64.3975L27.9721 62.0179L27.4651 60.4315V58.6469V56.1682C27.4651 56.1682 27.5951 54.8892 27.4651 54.086C27.3417 53.324 26.8567 52.2022 26.8567 52.2022C26.8567 52.2022 26.5255 50.9987 26.3496 50.2192C26.1672 49.4109 26.0313 48.9605 25.944 48.1371C25.8378 47.1358 25.8562 46.5623 25.944 45.5593C26.0261 44.6206 25.8194 43.9664 26.3496 43.1797C26.6736 42.6991 26.964 42.4903 27.4651 42.1882C28.2014 41.7444 28.7699 41.8479 29.5947 41.5933C30.0724 41.4459 30.3389 41.359 30.8116 41.1967C31.0492 40.5385 31.0506 40.1085 31.42 39.5112C31.8548 38.8084 32.1674 38.344 32.9411 38.024C33.7435 37.6921 34.3009 38.024 35.1721 38.024H36.8961C36.8961 38.024 37.2443 37.2871 37.5045 36.8342C37.8273 36.2723 38.0375 35.9729 38.4172 35.4461C38.7913 34.927 38.9025 34.526 39.4313 34.1572C40.0959 33.6936 40.6446 33.6115 41.4594 33.6614C42.3625 33.7168 42.7498 34.2231 43.589 34.5538C44.5305 34.9248 45.1523 34.9356 46.0228 35.4461C46.6275 35.8007 47.4425 36.5368 47.4425 36.5368V35.4461V32.9674V31.3315V29.6955V27.1176V23.6474V20.673C47.4425 20.0147 47.2275 19.6112 47.4425 18.9875C47.6676 18.3342 47.9935 18.0125 48.558 17.5994C49.012 17.2672 49.3117 17.056 49.8763 17.0045C50.5872 16.9396 51.6002 17.5994 51.6002 17.5994C51.6002 17.5994 52.136 18.1112 52.4115 18.4917C53.2005 19.5815 53.1478 20.4564 53.4256 21.7636C53.7734 23.4008 53.653 24.364 53.8312 26.027C54.0723 28.2767 54.2329 29.5357 54.5411 31.7776C54.797 33.6391 55.1642 34.6605 55.2509 36.5368C55.2903 37.3877 54.9677 37.9124 55.2509 38.718C55.3661 39.0455 55.4577 39.2246 55.6566 39.5112C56.0071 39.5742 56.2187 39.5742 56.5692 39.5112C57.0399 39.4267 57.2524 39.2159 57.6847 39.0155C58.2448 38.7558 58.5172 38.5155 59.1044 38.3214L59.1252 38.3146C59.7976 38.0923 60.2181 37.9534 60.9298 38.024L60.968 38.0278C61.3952 38.07 61.6714 38.0973 62.0453 38.3214C62.5517 38.625 62.8025 38.9507 62.958 39.5112C63.1369 40.1563 62.8848 40.5677 62.6537 41.1967C62.3884 41.9192 61.6194 42.8823 61.6194 42.8823L61.4368 43.1797C61.4368 43.1797 60.4991 44.1249 60.1185 44.8652C59.713 45.6541 59.5703 46.1655 59.5101 47.0465C59.5793 47.8179 59.5793 48.258 59.5101 49.0295C59.4629 49.5559 59.3073 50.368 59.3073 50.368C59.3073 50.368 59.1948 51.1855 59.1044 51.7065C58.9422 52.6424 58.5974 54.086 58.5974 54.086L57.6847 56.8622L56.5692 59.5392L54.9467 61.7205L53.8312 64.3975L53.1214 66.1822V68.6609V71.437V74.0149H51.6002H47.7467H43.589H40.1411H35.1721Z" fill="#ECCCC0"/>
<path d="M53.8312 64.3975L53.1214 66.1822V68.6609V71.437V74.0149H51.6002H47.7467H43.589H40.1411H35.1721H31.42L31.5721 71.0404V68.1651M53.8312 64.3975L54.9467 61.7205L56.5692 59.5392L57.6847 56.8622L58.5974 54.086C58.5974 54.086 58.9422 52.6424 59.1044 51.7065C59.1948 51.1855 59.3073 50.368 59.3073 50.368M53.8312 64.3975L52.6143 65.1907L50.3833 66.1822H48.1524H45.5158H43.589L41.4594 65.6864M59.5101 47.0465C59.5792 47.8179 59.5792 48.258 59.5101 49.0295C59.4629 49.5559 59.3073 50.368 59.3073 50.368M59.5101 47.0465C59.5703 46.1655 59.713 45.6541 60.1185 44.8652C60.4992 44.1249 61.4368 43.1797 61.4368 43.1797L61.6194 42.8823M59.5101 47.0465C59.1782 46.6408 58.8242 46.4678 58.2932 46.4516C57.7264 46.4343 56.9749 47.0465 56.9749 47.0465M62.958 39.5112C63.1369 40.1563 62.8848 40.5677 62.6537 41.1967C62.3884 41.9192 61.6194 42.8823 61.6194 42.8823M62.958 39.5112C62.8025 38.9507 62.5517 38.625 62.0453 38.3214C61.6603 38.0907 61.379 38.0685 60.9298 38.024C60.2108 37.9527 59.7891 38.0952 59.1044 38.3214C58.5172 38.5155 58.2448 38.7558 57.6847 39.0155C57.2524 39.2159 57.0399 39.4267 56.5692 39.5112C56.2187 39.5742 56.0071 39.5742 55.6566 39.5112M62.958 39.5112L62.1467 39.0155C62.1467 39.0155 61.3438 38.8911 60.8284 38.8172C60.5513 38.7774 60.1185 38.718 60.1185 38.718C60.1185 38.718 59.8555 38.7394 59.7129 38.8172C59.4635 38.9532 59.3888 39.1445 59.3073 39.4121C59.2281 39.6718 59.2939 39.8354 59.3073 40.1061C59.3246 40.4563 59.3095 40.6615 59.4087 40.9984C59.4676 41.1988 59.5529 41.2937 59.6115 41.4942C59.6991 41.7944 59.5751 42.0057 59.7129 42.2874C59.7983 42.462 60.0171 42.684 60.0171 42.684L60.6256 42.8823H61.1326H61.6194M55.6566 39.5112C55.4577 39.2246 55.3661 39.0455 55.2509 38.718C54.9677 37.9124 55.2903 37.3877 55.2509 36.5368C55.1642 34.6605 54.797 33.6391 54.5411 31.7776C54.2329 29.5357 54.0723 28.2767 53.8312 26.027C53.653 24.364 53.7734 23.4008 53.4256 21.7636C53.1478 20.4564 53.2005 19.5815 52.4115 18.4917C52.136 18.1112 51.6002 17.5994 51.6002 17.5994C51.6002 17.5994 50.5872 16.9396 49.8763 17.0045C49.3117 17.056 49.012 17.2672 48.558 17.5994C47.9935 18.0125 47.6676 18.3342 47.4425 18.9875C47.2275 19.6112 47.4425 20.0147 47.4425 20.673C47.4425 21.8346 47.4425 22.4858 47.4425 23.6474M55.6566 39.5112C55.3794 40.1694 54.9467 41.1967 54.9467 41.1967C54.9467 41.1967 54.2168 42.3803 53.8312 43.1797C53.5207 43.8236 53.3473 44.1885 53.1214 44.8652C52.8441 45.6956 52.7149 46.1785 52.6143 47.0465C52.5118 47.9314 52.6143 48.4364 52.6143 49.3269C52.6143 50.0626 53.0111 50.5856 52.6143 51.2107C52.0614 52.0818 50.9751 51.3901 49.9777 51.7065C49.0674 51.9952 48.618 52.1559 47.7467 52.698C46.8755 53.24 46.387 53.544 45.5158 54.086C45.5158 54.086 44.5895 54.6842 44.096 55.1767C43.6415 55.6303 43.5183 55.9952 43.082 56.4656C42.8186 56.7495 42.6431 56.8826 42.3721 57.1596C42.0038 57.5361 41.5782 57.6091 41.4594 58.1511C41.3406 58.6932 41.274 58.9971 41.1552 59.5392C41.0364 60.0813 40.9205 60.0706 40.851 60.4315C40.7557 60.9262 40.851 61.7205 40.851 61.7205M47.4425 23.6474C47.4425 25.0026 47.4425 27.1176 47.4425 27.1176V29.6955V31.3315M47.4425 23.6474C48.0623 23.8209 48.4231 23.8871 49.065 23.9449C49.696 24.0017 50.6876 23.9449 50.6876 23.9449M47.4425 36.5368V35.4461V32.9674V31.3315M47.4425 36.5368C47.4425 36.5368 46.6275 35.8007 46.0228 35.4461C45.1523 34.9356 44.5305 34.9248 43.589 34.5538C42.7498 34.2231 42.3625 33.7168 41.4594 33.6614C40.6446 33.6115 40.0959 33.6936 39.4313 34.1572C38.9025 34.526 38.7913 34.927 38.4172 35.4461C38.0375 35.9729 37.8273 36.2723 37.5045 36.8342C37.2443 37.2871 36.8961 38.024 36.8961 38.024M47.4425 36.5368V38.3214V39.5112M36.8961 38.024C36.8961 38.024 35.8454 38.024 35.1721 38.024C34.3009 38.024 33.7435 37.6921 32.9411 38.024C32.1674 38.344 31.8548 38.8084 31.42 39.5112C31.0506 40.1085 31.0492 40.5385 30.8116 41.1967M36.8961 38.024C36.8961 38.024 36.8641 38.6295 36.8961 39.0155C36.969 39.8955 37.1928 40.3681 37.5045 41.1967C37.7593 41.8742 38.2803 42.8823 38.2803 42.8823M30.8116 41.1967C30.3389 41.359 30.0724 41.4459 29.5947 41.5933C28.7699 41.8479 28.2014 41.7444 27.4651 42.1882C26.964 42.4903 26.6736 42.6991 26.3496 43.1797C25.8194 43.9664 26.0261 44.6206 25.944 45.5593C25.8562 46.5623 25.8378 47.1358 25.944 48.1371C26.0313 48.9605 26.1672 49.4109 26.3496 50.2192C26.5255 50.9987 26.8567 52.2022 26.8567 52.2022C26.8567 52.2022 27.3417 53.324 27.4651 54.086C27.5951 54.8892 27.4651 56.1682 27.4651 56.1682V58.6469V60.4315L27.9721 62.0179L29.0876 64.3975L30.0003 66.1822L30.8116 67.6694L31.5721 68.1651M30.8116 41.1967C31.1086 41.9711 31.5721 43.1797 31.5721 43.1797L31.8573 43.6754M38.8228 70.6438H36.5918L34.5637 70.049L32.3327 68.6609L31.5721 68.1651M40.851 52.2022C40.851 52.2022 40.9337 52.9943 40.851 53.4912C40.734 54.1938 40.5922 54.6179 40.1411 55.1767C39.7387 55.6752 39.3656 55.8193 38.8228 56.1682C38.1123 56.6249 37.3492 56.4562 36.8961 57.1596C36.5732 57.6608 36.7558 58.0767 36.5918 58.6469C36.3848 59.3668 35.9954 59.692 35.882 60.4315C35.8057 60.9293 35.882 61.7205 35.882 61.7205M56.5692 49.6244C56.5692 49.6244 57.1897 49.0631 57.6847 49.0295C58.5118 48.9732 59.3073 50.368 59.3073 50.368M50.3833 31.7776C50.3833 31.7776 49.5762 31.838 49.065 31.7776C48.4116 31.7004 47.4425 31.3315 47.4425 31.3315M45.5158 38.024C45.5158 38.024 44.6594 38.2813 44.4003 38.718C44.1895 39.0733 44.2482 39.7591 44.2482 39.7591M40.851 47.4431C40.851 47.4431 41.289 48.5642 41.8651 49.0295C42.2747 49.3603 42.6067 49.392 43.082 49.6244C43.5572 49.8567 43.9989 49.6629 44.4003 49.3269C44.7913 48.9995 44.7805 48.625 44.9073 48.1371C45.1218 47.3115 45.0346 46.7986 44.9073 45.9559C44.7992 45.2403 44.5655 44.8763 44.4003 44.1712C44.2563 43.5568 44.1587 43.2121 44.096 42.5848C44.0268 41.8912 44.0325 41.4943 44.096 40.8001C44.1335 40.3911 44.2482 39.7591 44.2482 39.7591M40.851 47.4431C40.851 47.4431 39.8963 46.352 39.4313 45.5593C38.919 44.686 38.4172 43.1797 38.4172 43.1797L38.2803 42.8823M40.851 47.4431C40.851 47.4431 40.9383 48.4159 40.851 49.0295C40.7835 49.5038 40.8012 49.81 40.5468 50.2192C40.141 50.8718 39.5867 51.0516 38.8228 51.2107C38.3193 51.3157 38.0087 51.3123 37.5045 51.2107C36.8018 51.0692 35.882 50.368 35.882 50.368M35.882 50.368L34.5637 49.3269L33.651 47.0465L32.9411 45.5593L31.8573 43.6754M35.882 50.368C35.882 50.368 35.5641 51.2594 35.1721 51.7065C34.7075 52.2364 34.3494 52.5532 33.651 52.698C32.8335 52.8674 32.2847 52.629 31.5721 52.2022C31.0825 51.909 30.8678 51.6478 30.5074 51.2107C30.051 50.6574 29.8844 50.2763 29.5947 49.6244C29.3451 49.0629 29.3183 48.7063 29.0876 48.1371C28.7288 47.2517 27.9721 45.9559 27.9721 45.9559M30.0003 44.8652C30.0003 44.8652 30.9772 45.1914 31.42 44.8652C31.8233 44.5681 31.8573 43.6754 31.8573 43.6754M41.1552 40.8001C41.1552 40.8001 41.905 40.8855 42.3721 40.8001C43.2002 40.6489 44.2482 39.7591 44.2482 39.7591M35.882 44.1712C35.882 44.1712 36.5132 44.2701 36.8961 44.1712C37.6178 43.9847 38.2803 42.8823 38.2803 42.8823M32.6369 43.6754C32.6369 43.6754 33.2673 43.7712 33.651 43.6754C34.0461 43.5769 34.5637 43.1797 34.5637 43.1797M36.8961 49.6244C36.8961 49.6244 37.7493 49.2821 38.2803 49.0295C38.7374 48.8119 39.2347 48.893 39.4313 48.4346C39.6946 47.8202 38.9587 47.4507 38.4172 47.0465C37.8199 46.6007 37.2584 46.1126 36.5918 46.4516C36.163 46.6697 36.0319 46.9938 35.882 47.4431C35.7223 47.9216 35.704 48.2597 35.882 48.732C36.0381 49.1463 36.5918 49.6244 36.5918 49.6244H36.8961ZM42.3721 48.1371C42.6703 48.1816 42.8036 47.9531 43.082 47.8397C43.4757 47.6793 43.9364 47.8298 44.096 47.4431C44.2618 47.0417 43.9041 46.7557 43.589 46.4516C43.2226 46.098 42.8482 45.7642 42.3721 45.9559C42.1132 46.0601 41.9634 46.1952 41.8651 46.4516C41.7816 46.6691 41.8318 46.8165 41.8651 47.0465C41.9321 47.5097 41.899 48.0666 42.3721 48.1371ZM32.3327 51.7065C32.8648 51.7339 32.931 51.1399 33.3468 50.8141C33.5786 50.6326 33.8323 50.6323 33.9552 50.368C34.193 49.8569 33.4436 49.5987 32.9411 49.3269C32.5565 49.1189 32.2835 48.9238 31.8573 49.0295C31.4942 49.1195 31.2629 49.2875 31.1158 49.6244C30.9234 50.0648 31.1804 50.3964 31.42 50.8141C31.6666 51.244 31.8293 51.6806 32.3327 51.7065Z" stroke="#725050" stroke-width="0.3"/>
</g>
</g>
<defs>
<filter id="filter0_dd_144_84" x="0" y="0" width="91" height="98" filterUnits="userSpaceOnUse" color-interpolation-filters="sRGB">
<feFlood flood-opacity="0" result="BackgroundImageFix"/>
<feColorMatrix in="SourceAlpha" type="matrix" values="0 0 0 0 0 0 0 0 0 0 0 0 0 0 0 0 0 0 127 0" result="hardAlpha"/>
<feOffset dy="4"/>
<feGaussianBlur stdDeviation="2"/>
<feComposite in2="hardAlpha" operator="out"/>
<feColorMatrix type="matrix" values="0 0 0 0 0 0 0 0 0 0 0 0 0 0 0 0 0 0 0.25 0"/>
<feBlend mode="normal" in2="BackgroundImageFix" result="effect1_dropShadow_144_84"/>
<feColorMatrix in="SourceAlpha" type="matrix" values="0 0 0 0 0 0 0 0 0 0 0 0 0 0 0 0 0 0 127 0" result="hardAlpha"/>
<feOffset dy="4"/>
<feGaussianBlur stdDeviation="2"/>
<feComposite in2="hardAlpha" operator="out"/>
<feColorMatrix type="matrix" values="0 0 0 0 0 0 0 0 0 0 0 0 0 0 0 0 0 0 0.25 0"/>
<feBlend mode="normal" in2="effect1_dropShadow_144_84" result="effect2_dropShadow_144_84"/>
<feBlend mode="normal" in="SourceGraphic" in2="effect2_dropShadow_144_84" result="shape"/>
</filter>
<filter id="filter1_d_144_84" x="0" y="0" width="91" height="98" filterUnits="userSpaceOnUse" color-interpolation-filters="sRGB">
<feFlood flood-opacity="0" result="BackgroundImageFix"/>
<feColorMatrix in="SourceAlpha" type="matrix" values="0 0 0 0 0 0 0 0 0 0 0 0 0 0 0 0 0 0 127 0" result="hardAlpha"/>
<feOffset dy="4"/>
<feGaussianBlur stdDeviation="2"/>
<feComposite in2="hardAlpha" operator="out"/>
<feColorMatrix type="matrix" values="0 0 0 0 0 0 0 0 0 0 0 0 0 0 0 0 0 0 0.25 0"/>
<feBlend mode="normal" in2="BackgroundImageFix" result="effect1_dropShadow_144_84"/>
<feBlend mode="normal" in="SourceGraphic" in2="effect1_dropShadow_144_84" result="shape"/>
</filter>
<filter id="filter2_dd_144_84" x="21.7212" y="16.85" width="45.4468" height="65.3149" filterUnits="userSpaceOnUse" color-interpolation-filters="sRGB">
<feFlood flood-opacity="0" result="BackgroundImageFix"/>
<feColorMatrix in="SourceAlpha" type="matrix" values="0 0 0 0 0 0 0 0 0 0 0 0 0 0 0 0 0 0 127 0" result="hardAlpha"/>
<feOffset dy="4"/>
<feGaussianBlur stdDeviation="2"/>
<feComposite in2="hardAlpha" operator="out"/>
<feColorMatrix type="matrix" values="0 0 0 0 0 0 0 0 0 0 0 0 0 0 0 0 0 0 0.25 0"/>
<feBlend mode="normal" in2="BackgroundImageFix" result="effect1_dropShadow_144_84"/>
<feColorMatrix in="SourceAlpha" type="matrix" values="0 0 0 0 0 0 0 0 0 0 0 0 0 0 0 0 0 0 127 0" result="hardAlpha"/>
<feOffset dy="4"/>
<feGaussianBlur stdDeviation="2"/>
<feComposite in2="hardAlpha" operator="out"/>
<feColorMatrix type="matrix" values="0 0 0 0 0 0 0 0 0 0 0 0 0 0 0 0 0 0 0.25 0"/>
<feBlend mode="normal" in2="effect1_dropShadow_144_84" result="effect2_dropShadow_144_84"/>
<feBlend mode="normal" in="SourceGraphic" in2="effect2_dropShadow_144_84" result="shape"/>
</filter>
</defs>
</svg>
