<svg width="91" height="98" viewBox="0 0 91 98" fill="none" xmlns="http://www.w3.org/2000/svg">
<g filter="url(#filter0_dd_144_90)">
<g filter="url(#filter1_d_144_90)">
<ellipse cx="45.5" cy="45" rx="41.5" ry="45" fill="#D9D9D9"/>
</g>
<g filter="url(#filter2_dd_144_90)">
<path d="M36.5312 20.9887C36.5312 19.9636 36.637 19.3833 36.5312 18.3637C36.435 17.4352 35.874 16.9341 36.0625 16.0199C36.5358 13.7251 39.7194 16.0199 42.0625 16.0199H45.7188H48.9062H52.2812H56.5938C58.2779 16.0199 58.4602 15.2579 58.5625 16.0199C58.6235 16.4746 58.1629 16.6223 58 17.0512C57.7756 17.642 57.7188 18.6449 57.7188 18.6449L57.5312 20.7074L57.7188 23.6137L58.5625 26.2387L59.5938 28.5824L60.25 30.7387L61.375 33.2699L62.3125 35.7074C62.3125 35.7074 62.9037 37.0536 63.1562 37.9574L63.1814 38.0473C63.4467 38.9959 63.608 39.5727 63.625 40.5824C63.6443 41.7319 63.1562 43.4887 63.1562 43.4887C63.1562 43.4887 62.7014 45.0532 62.3125 46.0199C61.7931 47.3111 61.5179 48.068 60.7188 49.2074C60.0046 50.2257 59.4028 50.6342 58.5625 51.5512C57.7921 52.3919 57.475 52.9839 56.5938 53.7074C55.9816 54.21 55.6253 54.5004 54.9062 54.8324C54.5172 55.0121 54.2695 55.0402 53.875 55.2074C53.2266 55.4823 52.8707 55.6658 52.2812 56.0512C52.0177 56.2235 51.8292 56.2802 51.625 56.5199C51.2929 56.9098 51.1587 57.3634 51.2271 57.8149C51.3232 58.0236 51.4132 58.2454 51.4864 58.4887L51.1562 63.1762L50.5 66.8324L49.75 71.1449C49.75 71.1449 49.281 72.2539 48.9062 72.9262C48.4563 73.7333 48.4339 74.5101 47.5938 74.8949C46.928 75.1998 46.451 74.8949 45.7188 74.8949C45.316 74.8949 45.0345 75.0994 44.6875 74.8949C44.2386 74.6304 44.2656 73.6293 44.2656 73.6293C44.2656 73.6293 44.0718 74.6489 43.8438 75.2699C43.5898 75.9616 43.659 76.6279 43 76.9574C42.5088 77.203 42.1265 77.0906 41.5938 76.9574C41.1172 76.8383 40.8381 76.7187 40.4688 76.3949C39.8398 75.8435 39.9545 75.195 39.625 74.4262C39.6982 75.012 39.8229 75.3359 39.8125 75.9262C39.7994 76.6728 39.994 77.3033 39.4375 77.8012C39.1935 78.0195 39.0043 78.0932 38.6875 78.1762C37.9998 78.3563 37.5092 78.1777 36.9062 77.8012C36.511 77.5544 36.3486 77.3253 36.0625 76.9574C35.6102 76.3758 35.4808 75.9586 35.2188 75.2699C34.884 74.3902 34.8613 73.8449 34.6562 72.9262C34.3716 71.6508 34 69.6449 34 69.6449L33.3438 65.2387L33.1094 63.5043L32.875 61.7699L32.3125 59.3324L31.5625 56.0512L29.5 55.2074L28.375 53.7074L28 51.1762V48.8324L28.375 46.0199L29.0312 42.7387L30.1562 39.7387L31.5625 36.8324L32.875 33.9262L34 31.2074L35.2188 28.5824C35.2188 28.5824 35.8086 27.1778 36.0625 26.2387C36.3342 25.2334 36.4401 24.651 36.5312 23.6137C36.621 22.5925 36.5312 22.0138 36.5312 20.9887Z" fill="#ECCCC0"/>
<path d="M31.5625 56.0512L29.5 55.2074L28.375 53.7074L28 51.1762V48.8324L28.375 46.0199L29.0312 42.7387L30.1562 39.7387L31.5625 36.8324L32.875 33.9262L34 31.2074L35.2188 28.5824C35.2188 28.5824 35.8086 27.1778 36.0625 26.2387C36.3342 25.2334 36.4401 24.651 36.5312 23.6137C36.621 22.5925 36.5312 22.0138 36.5312 20.9887C36.5312 19.9636 36.637 19.3833 36.5312 18.3637C36.435 17.4352 35.874 16.9341 36.0625 16.0199C36.5358 13.7251 39.7194 16.0199 42.0625 16.0199C43.4904 16.0199 45.7188 16.0199 45.7188 16.0199H48.9062H52.2812C53.9654 16.0199 54.9096 16.0199 56.5938 16.0199C58.2779 16.0199 58.4602 15.2579 58.5625 16.0199C58.6235 16.4746 58.1629 16.6223 58 17.0512C57.7756 17.642 57.7188 18.6449 57.7188 18.6449L57.5312 20.7074L57.7188 23.6137L58.5625 26.2387L59.5938 28.5824L60.25 30.7387L61.375 33.2699L62.3125 35.7074C62.3125 35.7074 62.9037 37.0536 63.1562 37.9574C63.4365 38.9604 63.6075 39.5412 63.625 40.5824C63.6443 41.7319 63.1562 43.4887 63.1562 43.4887C63.1562 43.4887 62.7014 45.0532 62.3125 46.0199C61.7931 47.3111 61.5179 48.068 60.7188 49.2074C60.0046 50.2257 59.4028 50.6342 58.5625 51.5512C57.7921 52.3919 57.475 52.9839 56.5938 53.7074C55.9816 54.21 55.6253 54.5004 54.9062 54.8324C54.5172 55.0121 54.2695 55.0402 53.875 55.2074C53.2266 55.4823 52.8707 55.6658 52.2812 56.0512C52.0177 56.2235 51.8292 56.2802 51.625 56.5199C51.1252 57.1066 51.0737 57.8377 51.4864 58.4887M31.5625 56.0512L32.3125 59.3324L32.875 61.7699M31.5625 56.0512L31.9375 53.3324V52.3012M32.875 61.7699L33.1094 63.5043M32.875 61.7699C32.875 61.7699 33.3115 60.5069 34 60.3637C34.6895 60.2202 35.5938 61.2074 35.5938 61.2074M37.4688 53.3324C37.4688 54.3942 37.4688 56.0512 37.4688 56.0512L38.125 58.4887L38.6875 62.4262L39.4375 66.1762V69.6449V72.9262C39.4375 72.9262 39.5518 73.8404 39.625 74.4262M44.3125 62.4262V65.6137L43.8438 69.1762C43.8438 69.1762 43.5632 71.1509 43.8438 72.3637C43.9612 72.8713 44.2656 73.6293 44.2656 73.6293M44.3125 62.4262V59.3324M44.3125 62.4262C44.3125 62.4262 44.8283 61.918 45.25 61.7699C45.7682 61.588 46.6562 61.7699 46.6562 61.7699M44.3125 59.3324L43.8438 56.5199V54.1762V52.3012M44.3125 59.3324C44.3125 59.3324 45.1545 58.8894 45.7188 58.9574C46.1102 59.0046 46.6562 59.3324 46.6562 59.3324M39.625 74.4262C39.6982 75.012 39.8229 75.3359 39.8125 75.9262C39.7994 76.6728 39.994 77.3033 39.4375 77.8012C39.1935 78.0195 39.0043 78.0932 38.6875 78.1762C37.9998 78.3563 37.5092 78.1777 36.9062 77.8012C36.511 77.5543 36.3486 77.3253 36.0625 76.9574C35.6102 76.3758 35.4808 75.9586 35.2188 75.2699C34.884 74.3902 34.8613 73.8449 34.6562 72.9262C34.3716 71.6508 34 69.6449 34 69.6449L33.3438 65.2387L33.1094 63.5043M39.625 74.4262C39.9545 75.195 39.8398 75.8435 40.4688 76.3949C40.8381 76.7187 41.1172 76.8383 41.5938 76.9574C42.1265 77.0906 42.5088 77.203 43 76.9574C43.659 76.6279 43.5898 75.9616 43.8438 75.2699C44.0718 74.6489 44.2656 73.6293 44.2656 73.6293M44.2656 73.6293C44.2656 73.6293 44.2386 74.6304 44.6875 74.8949C45.0345 75.0994 45.316 74.8949 45.7188 74.8949C46.451 74.8949 46.928 75.1998 47.5938 74.8949C48.4339 74.5101 48.4563 73.7333 48.9062 72.9262C49.281 72.2539 49.75 71.1449 49.75 71.1449L50.5 66.8324L51.1562 63.1762C51.1562 63.1762 51.3574 60.3193 51.4864 58.4887M54.9062 38.4262C54.9062 38.4262 55.1764 39.232 55.375 39.7387C55.5785 40.2579 55.9375 41.0512 55.9375 41.0512M55.9375 41.0512C55.9375 41.0512 56.4118 41.9631 56.9688 42.0824C57.6936 42.2378 58.0202 41.5567 58.5625 41.0512C59.0393 40.6067 59.4879 40.3819 59.5938 39.7387C59.6294 39.5219 59.5938 39.1762 59.5938 39.1762M55.9375 41.0512C55.9375 41.0512 55.5722 42.8756 55.375 44.0512C55.1668 45.292 55.0893 45.9939 54.9062 47.2387M54.9062 47.2387C54.9062 47.2387 53.9491 49.3899 53.2188 50.7074C52.8687 51.339 52.6915 51.7069 52.2812 52.3012C51.8817 52.88 51.5162 53.1032 51.1562 53.7074C50.829 54.2567 50.6203 54.5795 50.5 55.2074C50.2482 56.5216 51.1012 57.2073 51.4864 58.4887M54.9062 47.2387C55.9314 46.7627 56.5812 46.6322 57.5312 46.0199C58.7506 45.2341 60.25 43.4887 60.25 43.4887M39.8125 61.2074C39.8125 61.2074 40.592 60.8419 41.125 60.8324C41.6933 60.8224 42.5312 61.2074 42.5312 61.2074M39.8125 63.1762C39.8125 63.1762 40.5418 62.3347 41.125 62.4262C41.5882 62.4988 42.0625 63.1762 42.0625 63.1762M35.5938 63.1762C35.5938 63.1762 34.6097 62.6086 34 62.8012C33.5774 62.9346 33.1094 63.5043 33.1094 63.5043M36.7188 76.6762H36.7695M36.7695 76.6762C37.0426 76.6762 37.1957 76.6762 37.4688 76.6762H38.3125C38.3125 76.6762 38.8073 76.8199 39.0625 76.6762C39.5452 76.4042 39.0714 75.788 38.875 75.2699C38.7879 75.0403 38.7575 74.8905 38.5938 74.7074C38.3969 74.4875 38.2179 74.4247 37.9375 74.3324C37.6916 74.2515 37.5331 74.1788 37.2812 74.2387C37.0736 74.288 36.9753 74.3818 36.8125 74.5199C36.6642 74.6458 36.5642 74.7174 36.4846 74.8949C36.3944 75.0961 36.4459 75.2371 36.4375 75.4574C36.4306 75.6404 36.4248 75.7436 36.4375 75.9262C36.4477 76.0734 36.4846 76.3012 36.4846 76.3012C36.4846 76.3012 36.4692 76.49 36.5312 76.5824C36.5601 76.6254 36.625 76.6762 36.625 76.6762H36.7695ZM36.25 52.3012C36.325 52.5262 37.4688 53.2387 37.4688 53.2387C37.8438 53.4574 38.5938 52.3012 38.5938 52.3012M30.9062 51.3637C30.9062 51.3637 31.4172 52.1992 31.9375 52.2074C32.4681 52.2158 33.0028 51.3637 33.0028 51.3637M42.5312 51.0824C42.5312 51.0824 43.1919 52.1071 43.8438 52.1137C44.4736 52.12 45.1562 51.1762 45.1562 51.1762M40.6562 75.4574C40.9531 75.7813 41.3419 75.4574 41.7812 75.4574C42.2572 75.4574 42.628 75.7543 43 75.4574C43.4874 75.0686 43.1202 74.4493 42.9062 73.8637C42.822 73.633 42.8145 73.4575 42.625 73.3012C42.3693 73.0902 42.1098 73.163 41.7812 73.2074C41.6317 73.2276 41.5503 73.256 41.4062 73.3012C41.2181 73.3601 41.088 73.3613 40.9375 73.4887C40.75 73.6473 40.6983 73.8092 40.6562 74.0512C40.6312 74.1955 40.6562 74.2797 40.6562 74.4262C40.6562 74.8289 40.3841 75.1606 40.6562 75.4574ZM44.7812 73.3012C44.6594 73.1184 44.7812 72.9583 44.7812 72.7387C44.7812 72.4092 44.7034 72.2151 44.7812 71.8949C44.8278 71.7034 44.8499 71.5835 44.9688 71.4262C45.1466 71.1906 45.3455 71.146 45.625 71.0512C45.939 70.9447 46.1375 70.972 46.4688 70.9574C46.6882 70.9477 46.816 70.9136 47.0312 70.9574C47.2245 70.9967 47.3807 70.988 47.5 71.1449C47.5913 71.2651 47.5938 71.5199 47.5938 71.5199C47.5938 71.5199 47.6735 71.9751 47.6875 72.2699C47.6962 72.4528 47.6875 72.5556 47.6875 72.7387C47.6875 72.9583 47.7796 73.1017 47.6875 73.3012C47.488 73.7333 46.9447 73.3012 46.4688 73.3012C46.1392 73.3012 45.9545 73.3012 45.625 73.3012C45.2955 73.3012 44.964 73.5753 44.7812 73.3012Z" stroke="#725050" stroke-width="0.3"/>
</g>
</g>
<defs>
<filter id="filter0_dd_144_90" x="0" y="0" width="91" height="98" filterUnits="userSpaceOnUse" color-interpolation-filters="sRGB">
<feFlood flood-opacity="0" result="BackgroundImageFix"/>
<feColorMatrix in="SourceAlpha" type="matrix" values="0 0 0 0 0 0 0 0 0 0 0 0 0 0 0 0 0 0 127 0" result="hardAlpha"/>
<feOffset dy="4"/>
<feGaussianBlur stdDeviation="2"/>
<feComposite in2="hardAlpha" operator="out"/>
<feColorMatrix type="matrix" values="0 0 0 0 0 0 0 0 0 0 0 0 0 0 0 0 0 0 0.25 0"/>
<feBlend mode="normal" in2="BackgroundImageFix" result="effect1_dropShadow_144_90"/>
<feColorMatrix in="SourceAlpha" type="matrix" values="0 0 0 0 0 0 0 0 0 0 0 0 0 0 0 0 0 0 127 0" result="hardAlpha"/>
<feOffset dy="4"/>
<feGaussianBlur stdDeviation="2"/>
<feComposite in2="hardAlpha" operator="out"/>
<feColorMatrix type="matrix" values="0 0 0 0 0 0 0 0 0 0 0 0 0 0 0 0 0 0 0.25 0"/>
<feBlend mode="normal" in2="effect1_dropShadow_144_90" result="effect2_dropShadow_144_90"/>
<feBlend mode="normal" in="SourceGraphic" in2="effect2_dropShadow_144_90" result="shape"/>
</filter>
<filter id="filter1_d_144_90" x="0" y="0" width="91" height="98" filterUnits="userSpaceOnUse" color-interpolation-filters="sRGB">
<feFlood flood-opacity="0" result="BackgroundImageFix"/>
<feColorMatrix in="SourceAlpha" type="matrix" values="0 0 0 0 0 0 0 0 0 0 0 0 0 0 0 0 0 0 127 0" result="hardAlpha"/>
<feOffset dy="4"/>
<feGaussianBlur stdDeviation="2"/>
<feComposite in2="hardAlpha" operator="out"/>
<feColorMatrix type="matrix" values="0 0 0 0 0 0 0 0 0 0 0 0 0 0 0 0 0 0 0.25 0"/>
<feBlend mode="normal" in2="BackgroundImageFix" result="effect1_dropShadow_144_90"/>
<feBlend mode="normal" in="SourceGraphic" in2="effect1_dropShadow_144_90" result="shape"/>
</filter>
<filter id="filter2_dd_144_90" x="23.8501" y="14.85" width="43.9255" height="71.5468" filterUnits="userSpaceOnUse" color-interpolation-filters="sRGB">
<feFlood flood-opacity="0" result="BackgroundImageFix"/>
<feColorMatrix in="SourceAlpha" type="matrix" values="0 0 0 0 0 0 0 0 0 0 0 0 0 0 0 0 0 0 127 0" result="hardAlpha"/>
<feOffset dy="4"/>
<feGaussianBlur stdDeviation="2"/>
<feComposite in2="hardAlpha" operator="out"/>
<feColorMatrix type="matrix" values="0 0 0 0 0 0 0 0 0 0 0 0 0 0 0 0 0 0 0.25 0"/>
<feBlend mode="normal" in2="BackgroundImageFix" result="effect1_dropShadow_144_90"/>
<feColorMatrix in="SourceAlpha" type="matrix" values="0 0 0 0 0 0 0 0 0 0 0 0 0 0 0 0 0 0 127 0" result="hardAlpha"/>
<feOffset dy="4"/>
<feGaussianBlur stdDeviation="2"/>
<feComposite in2="hardAlpha" operator="out"/>
<feColorMatrix type="matrix" values="0 0 0 0 0 0 0 0 0 0 0 0 0 0 0 0 0 0 0.25 0"/>
<feBlend mode="normal" in2="effect1_dropShadow_144_90" result="effect2_dropShadow_144_90"/>
<feBlend mode="normal" in="SourceGraphic" in2="effect2_dropShadow_144_90" result="shape"/>
</filter>
</defs>
</svg>
