<svg width="91" height="98" viewBox="0 0 91 98" fill="none" xmlns="http://www.w3.org/2000/svg">
<g filter="url(#filter0_d_140_70)">
<ellipse cx="45.5" cy="45" rx="41.5" ry="45" fill="#D9D9D9"/>
</g>
<g filter="url(#filter1_d_140_70)">
<path d="M34.9259 86L34.4088 75.8489C34.4088 75.8489 32.4698 69.389 31.1771 61.4791C30.2533 55.8257 30.7161 53.1355 30.5834 48.6914C30.5304 46.9175 30.3825 44.8642 30.0138 42.2316C28.7211 33.0032 24.843 19.4245 28.5918 16.9197C32.3406 14.4148 32.7284 28.3891 33.6332 31.6849C34.538 34.9806 34.5121 35.7827 35.5723 38.4083C35.5723 38.4083 36.3789 34.6243 37.5113 32.7493C38.6436 30.8744 42.5596 29.8779 44.8281 33.3743L45.5258 35.0357C45.5258 35.0357 45.138 3.99996 50.5672 4C55.9964 4.00004 52.894 34.717 52.894 34.717C55.8671 32.6077 59.0988 5.58196 64.1402 8.48229C67.1654 10.2227 61.2963 36.299 60.5207 43.0225C59.7452 49.746 59.7452 62.402 59.0988 65.5659C59.0556 65.7775 59.0013 65.998 58.9378 66.2251C58.0513 69.3946 55.3501 73.8714 55.3501 73.8714V84.5498L34.9259 86Z" fill="#ECCCC0"/>
<path d="M34.4088 75.8489L34.9259 86L55.3501 84.5498V73.8714C55.3501 73.8714 58.0513 69.3946 58.9378 66.2251M34.4088 75.8489C34.4088 75.8489 32.4698 69.389 31.1771 61.4791C30.2533 55.8257 30.7161 53.1355 30.5834 48.6914M34.4088 75.8489C34.4088 75.8489 39.3209 75.8489 43.8453 74.9261M51.8599 72.4213C51.8599 72.4213 43.5869 72.1576 42.9405 64.3795C42.2941 56.6013 46.4306 56.865 46.4306 54.0965C46.4306 51.328 37.8991 36.9582 42.9405 34.717C43.8451 34.3149 44.7081 34.4815 45.5258 35.0357M42.9405 46.7139C37.8991 49.8779 35.4091 47.9191 30.5834 48.6914M30.5834 48.6914C30.5304 46.9175 30.3825 44.8642 30.0138 42.2316C28.7211 33.0032 24.843 19.4245 28.5918 16.9197C32.3406 14.4148 32.7284 28.3891 33.6332 31.6849C34.538 34.9806 34.5121 35.7827 35.5723 38.4083C35.5723 38.4083 36.3789 34.6243 37.5113 32.7493C38.6436 30.8744 42.5596 29.8779 44.8281 33.3743L45.5258 35.0357M58.9378 66.2251C59.0013 65.998 59.0556 65.7775 59.0988 65.5659C59.7452 62.402 59.7452 49.746 60.5207 43.0225C61.2963 36.299 67.1654 10.2227 64.1402 8.48229C59.0988 5.58196 55.8671 32.6077 52.894 34.717C52.894 34.717 55.9964 4.00004 50.5672 4C45.138 3.99996 45.5258 35.0357 45.5258 35.0357M58.9378 66.2251C58.9378 66.2251 59.7625 55.6002 59.0988 54.0965C58.4351 52.5929 55.3501 51.328 53.5404 49.6142C52.0554 48.2079 49.2648 37.57 45.5258 35.0357M57.6769 25.357L61.2964 26.4116M48.3697 13.3602H52.894M47.5941 25.357H51.8599M59.6159 16.3923L63.6232 17.3152M28.5918 26.4116L31.1771 25.357M30.0138 34.717L33.6332 33.6624M41.3653 38.4083C40.1537 37.0913 39.8381 35.5081 37.5113 35.0357M48.2765 38.4083C47.2164 39.2836 45.9734 41.3566 44.6209 41.1769C43.03 40.9655 42.4986 38.9266 42.9405 37.3537C43.3108 36.0358 45.5258 35.0357 45.5258 35.0357" stroke="#725050" stroke-width="0.3"/>
</g>
<defs>
<filter id="filter0_d_140_70" x="0" y="0" width="91" height="98" filterUnits="userSpaceOnUse" color-interpolation-filters="sRGB">
<feFlood flood-opacity="0" result="BackgroundImageFix"/>
<feColorMatrix in="SourceAlpha" type="matrix" values="0 0 0 0 0 0 0 0 0 0 0 0 0 0 0 0 0 0 127 0" result="hardAlpha"/>
<feOffset dy="4"/>
<feGaussianBlur stdDeviation="2"/>
<feComposite in2="hardAlpha" operator="out"/>
<feColorMatrix type="matrix" values="0 0 0 0 0 0 0 0 0 0 0 0 0 0 0 0 0 0 0.25 0"/>
<feBlend mode="normal" in2="BackgroundImageFix" result="effect1_dropShadow_140_70"/>
<feBlend mode="normal" in="SourceGraphic" in2="effect1_dropShadow_140_70" result="shape"/>
</filter>
<filter id="filter1_d_140_70" x="21.6501" y="3.8501" width="48.6998" height="92.7103" filterUnits="userSpaceOnUse" color-interpolation-filters="sRGB">
<feFlood flood-opacity="0" result="BackgroundImageFix"/>
<feColorMatrix in="SourceAlpha" type="matrix" values="0 0 0 0 0 0 0 0 0 0 0 0 0 0 0 0 0 0 127 0" result="hardAlpha"/>
<feOffset dy="5.2"/>
<feGaussianBlur stdDeviation="2.6"/>
<feComposite in2="hardAlpha" operator="out"/>
<feColorMatrix type="matrix" values="0 0 0 0 0 0 0 0 0 0 0 0 0 0 0 0 0 0 0.25 0"/>
<feBlend mode="normal" in2="BackgroundImageFix" result="effect1_dropShadow_140_70"/>
<feBlend mode="normal" in="SourceGraphic" in2="effect1_dropShadow_140_70" result="shape"/>
</filter>
</defs>
</svg>
