<svg width="91" height="98" viewBox="0 0 91 98" fill="none" xmlns="http://www.w3.org/2000/svg">
<g filter="url(#filter0_dd_144_86)">
<g filter="url(#filter1_d_144_86)">
<ellipse cx="45.5" cy="45" rx="41.5" ry="45" fill="#D9D9D9"/>
</g>
<g filter="url(#filter2_dd_144_86)">
<path d="M37.5655 75V64.5741L36.1397 61.8143C36.1397 61.8143 35.0951 59.8387 34.809 58.4412C34.4738 56.8039 34.1763 55.9266 34.1436 54.2505C34.0663 50.2896 34.3992 47.9811 34.1436 44.029L34.0908 43.2113L33.6684 36.6695L31.6723 30.8433L31.4303 30.23L30.3415 27.4702L29.8663 24.9149C29.3195 23.0562 29.1273 21.9539 29.0108 20.0086C28.9487 18.9729 29.1746 17.5553 29.1746 17.5553L29.745 16.022C29.745 16.022 30.5244 15.0088 31.0069 15C31.4894 14.9913 32.6228 16.2266 32.6228 16.2266C32.6228 16.2266 33.3222 17.3112 33.6684 18.0665C34.5122 19.9075 34.809 23.1772 34.809 23.1772L35.0862 23.6883L36.1397 25.6304L36.9002 27.9813C36.9002 27.9813 37.9457 30.8433 37.9457 32.0699C37.9457 33.2965 37.9853 32.7933 38.421 32.9898C38.866 33.1905 39.6567 32.9898 39.6567 32.9898L39.9157 30.5365C39.9157 30.5365 40.2939 28.8595 40.7023 27.9813C41.5007 27.2826 42.0722 26.9876 43.0786 26.7547C43.9858 26.5448 44.6249 26.3084 45.4549 26.7547C46.2849 27.201 46.3239 28.0007 46.8807 28.799C47.0081 27.917 47.2515 27.3935 47.8312 26.7547C48.5157 26.0005 49.1338 25.5748 50.1125 25.6304C50.9913 25.6803 52.1086 26.7547 52.1086 26.7547L52.6076 27.0614L53.1066 27.368L54.1047 27.9813C54.1047 27.9813 53.9475 27.2029 54.1047 26.7547C54.3591 26.0295 54.9589 25.9249 55.6255 25.6304C56.8273 25.0994 57.7308 25.1547 58.9524 25.6304C59.9995 26.038 60.55 26.525 61.2337 27.4702C61.7433 28.1748 61.9829 28.6486 62.1842 29.5145C62.4093 30.4827 61.9422 31.1065 62.1842 32.0699C62.4316 33.0546 63.4199 34.3186 63.4199 34.3186V35.6474C63.3942 36.0456 63.3942 36.2713 63.4199 36.6695C63.5058 38.0046 64.0797 38.6392 64.3704 39.9404C64.6954 41.3952 64.863 42.2284 64.9407 43.7223C64.9822 44.5194 65.0503 44.977 64.9407 45.7666C64.7951 46.8156 64.4598 47.3408 64.0852 48.322C63.4548 49.9734 62.9087 50.8044 62.1842 52.4106C61.0244 54.9817 60.8331 56.696 59.3326 59.0545C58.3369 60.6197 56.386 62.7343 56.386 62.7343V73.6712L37.5655 75Z" fill="#ECCCC0"/>
<path d="M37.5655 64.5741V75L56.386 73.6712V62.7343M37.5655 64.5741L36.1397 61.8143C36.1397 61.8143 35.0951 59.8387 34.809 58.4412C34.4738 56.8039 34.1763 55.9266 34.1436 54.2504C34.0663 50.2896 34.3992 47.9811 34.1436 44.029C34.123 43.7096 34.0908 43.2113 34.0908 43.2113M37.5655 64.5741C37.5655 64.5741 41.3698 64.981 43.3376 63.7563C45.3155 62.5252 46.8807 58.7477 46.8807 58.7477M33.6684 36.6695C32.8888 34.3943 31.6723 30.8433 31.6723 30.8433C31.6723 30.8433 31.5248 30.4695 31.4303 30.23M33.6684 36.6695C33.8333 39.2242 34.0908 43.2113 34.0908 43.2113M33.6684 36.6695C34.4473 36.0516 34.9091 35.7356 35.7595 35.2385C36.4452 34.8378 36.7918 34.4285 37.5655 34.3186C37.8967 34.2715 38.0869 34.3186 38.421 34.3186C39.3119 34.3186 40.7023 34.3186 40.7023 34.3186M29.8663 24.9149C30.0519 25.9128 30.3415 27.4702 30.3415 27.4702C30.3415 27.4702 31.0051 29.1523 31.4303 30.23M29.8663 24.9149C29.3195 23.0562 29.1273 21.9539 29.0108 20.0086C28.9487 18.9729 29.1746 17.5553 29.1746 17.5553L29.745 16.022C29.745 16.022 30.5244 15.0088 31.0069 15C31.4894 14.9913 32.6228 16.2266 32.6228 16.2266C32.6228 16.2266 33.3222 17.3112 33.6684 18.0665C34.5122 19.9075 34.809 23.1772 34.809 23.1772L35.0862 23.6883M29.8663 24.9149C30.8228 24.1998 31.476 23.9091 32.6228 23.6883C33.5698 23.5059 35.0862 23.6883 35.0862 23.6883M36.9002 27.9813L36.1397 25.6304L35.0862 23.6883M36.9002 27.9813C36.9002 27.9813 37.9457 30.8433 37.9457 32.0699C37.9457 33.2965 37.9853 32.7933 38.421 32.9898C38.866 33.1905 39.6567 32.9898 39.6567 32.9898L39.9157 30.5365C39.9157 30.5365 40.2939 28.8595 40.7023 27.9813M36.9002 27.9813C36.9002 27.9813 35.0792 27.4691 34.0908 27.9813C33.3709 28.3544 33.2762 29.0197 32.6228 29.5145C32.1868 29.8447 31.9206 30.0044 31.4303 30.23M40.7023 27.9813C41.5007 27.2826 42.0722 26.9876 43.0786 26.7547C43.9858 26.5448 44.6249 26.3084 45.4549 26.7547C46.2849 27.201 46.3239 28.0007 46.8807 28.799M40.7023 27.9813C40.7023 30.4562 40.7023 34.3186 40.7023 34.3186M46.8807 28.799C47.0081 27.917 47.2515 27.3935 47.8312 26.7547C48.5157 26.0005 49.1338 25.5748 50.1125 25.6304C50.9913 25.6803 52.1086 26.7547 52.1086 26.7547L52.6076 27.0614M46.8807 28.799C47.0292 30.6751 47.2609 33.6031 47.2609 33.6031L47.8312 39.9404L48.1397 43.7223M54.1047 27.9813C54.1047 27.9813 53.9475 27.2029 54.1047 26.7547C54.3591 26.0295 54.9589 25.9249 55.6255 25.6304C56.8273 25.0994 57.7308 25.1547 58.9524 25.6304C59.9995 26.038 60.55 26.525 61.2337 27.4702C61.7433 28.1748 61.9829 28.6486 62.1842 29.5145C62.4093 30.4827 61.9422 31.1065 62.1842 32.0699C62.4316 33.0546 63.4199 34.3186 63.4199 34.3186V35.6474M54.1047 27.9813C54.1047 27.9813 53.4964 27.6075 53.1066 27.368M54.1047 27.9813L60.4732 31.5588L61.7089 32.9387M56.386 62.7343C56.386 62.7343 58.3369 60.6197 59.3326 59.0545C60.8331 56.696 61.0244 54.9817 62.1842 52.4106C62.9087 50.8044 63.4548 49.9734 64.0852 48.322C64.4598 47.3408 64.7951 46.8156 64.9407 45.7666C65.0503 44.977 64.9822 44.5194 64.9407 43.7223C64.863 42.2284 64.6954 41.3952 64.3704 39.9404C64.0797 38.6392 63.5058 38.0046 63.4199 36.6695C63.3942 36.2713 63.3942 36.0456 63.4199 35.6474M56.386 62.7343C56.386 62.7343 52.7394 61.3037 50.9418 59.5655C48.6071 57.3079 46.8807 52.1038 46.8807 52.1038M34.0908 43.2113L36.1397 42.2913C36.1397 42.2913 37.5175 41.8968 38.421 41.7803C39.6741 41.6186 41.6528 41.7803 41.6528 41.7803L42.3657 44.1823M43.0786 46.5844L44.8846 47.9131M43.0786 46.5844L42.3657 44.1823M43.0786 46.5844L40.7023 49.6508M44.8846 47.9131C44.8846 47.9131 46.4747 48.4434 47.2609 47.9131C48.0064 47.4103 47.8982 46.6049 48.3065 45.7666M44.8846 47.9131C44.8846 47.9131 44.2718 47.1726 44.1242 46.5844C43.9888 46.0448 44.0002 45.6961 44.1242 45.1533C44.2669 44.5283 44.4221 44.131 44.8846 43.7223C45.3928 43.2733 46.5005 43.2113 46.5005 43.2113L48.1397 43.7223M48.3065 45.7666C48.789 46.4452 48.8324 47.1206 49.5422 47.5043C50.2718 47.8987 50.8419 47.7207 51.6333 47.5043C52.2503 47.3355 53.1066 46.7538 53.1066 46.7538M48.3065 45.7666C48.2414 44.9683 48.1397 43.7223 48.1397 43.7223M48.3065 45.7666C49.0118 45.1479 49.2586 44.5214 50.1125 44.1823C50.8456 43.8912 51.403 43.6677 52.1086 44.029C52.6182 44.29 52.8936 44.5912 53.1066 45.1533C53.326 45.7322 53.1066 46.7538 53.1066 46.7538M49.5422 38.5094C49.5422 38.5094 50.7872 39.1502 51.6333 39.1227C52.6808 39.0887 54.1047 37.9983 54.1047 37.9983L53.4393 43.7223C53.4393 43.7223 54.32 45.9908 53.4393 46.5844C53.3175 46.6664 53.1066 46.7538 53.1066 46.7538M43.6489 39.1227C43.6489 39.1227 44.7815 39.3482 45.4549 39.1227C45.899 38.9739 46.5005 38.5094 46.5005 38.5094M40.7023 34.3186L41.1775 37.9983L41.6528 39.9404L42.033 41.7803L42.3657 44.1823M54.1047 28.3902C54.1047 28.3902 55.8045 28.8654 56.1008 29.8212C56.5023 31.1165 54.1047 32.581 54.1047 32.581C54.1047 32.581 51.0754 32.9967 50.4927 31.5588C50.1961 30.8269 50.2066 30.2512 50.4927 29.5145L52.1086 27.9813C52.1086 27.9813 52.7169 27.6075 53.1066 27.368M53.1066 27.368C52.9118 27.2483 52.6076 27.0614 52.6076 27.0614M52.6076 27.0614C52.6076 27.0614 50.5993 28.1948 50.1125 29.5145C49.7018 30.6276 49.8593 31.4148 50.1125 32.581C50.3994 33.9026 50.8001 34.628 51.6333 35.6474C52.4225 36.6129 54.1047 37.5895 54.1047 37.5895L56.1008 39.1227H57.0513M58.0019 39.1227H57.0513M57.0513 39.1227C57.497 38.9447 57.0513 39.9404 58.0019 39.9404C58.9524 39.9404 57.3097 40.1801 57.0513 40.5537C56.556 41.2699 57.0766 41.9956 57.4315 42.8024C57.9945 44.0822 59.998 45.1533 59.998 45.1533M57.0513 43.2113C56.2347 43.9697 54.9602 45.1533 54.9602 45.1533M63.4199 35.6474C63.2343 35.1285 62.9446 34.3186 62.9446 34.3186L62.5644 33.894M63.4199 35.6474C62.7517 36.2062 61.7089 37.0784 61.7089 37.0784M61.7089 32.9387C61.4554 33.3987 60.8534 34.3186 60.4732 34.3186C60.093 34.3186 59.998 35.2045 59.998 35.6474M61.7089 32.9387L62.5644 33.894M62.5644 33.894C62.5644 33.894 61.6679 34.6303 61.2337 35.2385C60.8692 35.7491 60.4732 36.6695 60.4732 36.6695" stroke="#725050" stroke-width="0.3"/>
</g>
</g>
<defs>
<filter id="filter0_dd_144_86" x="0" y="0" width="91" height="98" filterUnits="userSpaceOnUse" color-interpolation-filters="sRGB">
<feFlood flood-opacity="0" result="BackgroundImageFix"/>
<feColorMatrix in="SourceAlpha" type="matrix" values="0 0 0 0 0 0 0 0 0 0 0 0 0 0 0 0 0 0 127 0" result="hardAlpha"/>
<feOffset dy="4"/>
<feGaussianBlur stdDeviation="2"/>
<feComposite in2="hardAlpha" operator="out"/>
<feColorMatrix type="matrix" values="0 0 0 0 0 0 0 0 0 0 0 0 0 0 0 0 0 0 0.25 0"/>
<feBlend mode="normal" in2="BackgroundImageFix" result="effect1_dropShadow_144_86"/>
<feColorMatrix in="SourceAlpha" type="matrix" values="0 0 0 0 0 0 0 0 0 0 0 0 0 0 0 0 0 0 127 0" result="hardAlpha"/>
<feOffset dy="4"/>
<feGaussianBlur stdDeviation="2"/>
<feComposite in2="hardAlpha" operator="out"/>
<feColorMatrix type="matrix" values="0 0 0 0 0 0 0 0 0 0 0 0 0 0 0 0 0 0 0.25 0"/>
<feBlend mode="normal" in2="effect1_dropShadow_144_86" result="effect2_dropShadow_144_86"/>
<feBlend mode="normal" in="SourceGraphic" in2="effect2_dropShadow_144_86" result="shape"/>
</filter>
<filter id="filter1_d_144_86" x="0" y="0" width="91" height="98" filterUnits="userSpaceOnUse" color-interpolation-filters="sRGB">
<feFlood flood-opacity="0" result="BackgroundImageFix"/>
<feColorMatrix in="SourceAlpha" type="matrix" values="0 0 0 0 0 0 0 0 0 0 0 0 0 0 0 0 0 0 127 0" result="hardAlpha"/>
<feOffset dy="4"/>
<feGaussianBlur stdDeviation="2"/>
<feComposite in2="hardAlpha" operator="out"/>
<feColorMatrix type="matrix" values="0 0 0 0 0 0 0 0 0 0 0 0 0 0 0 0 0 0 0.25 0"/>
<feBlend mode="normal" in2="BackgroundImageFix" result="effect1_dropShadow_144_86"/>
<feBlend mode="normal" in="SourceGraphic" in2="effect1_dropShadow_144_86" result="shape"/>
</filter>
<filter id="filter2_dd_144_86" x="24.8501" y="14.85" width="44.2998" height="68.311" filterUnits="userSpaceOnUse" color-interpolation-filters="sRGB">
<feFlood flood-opacity="0" result="BackgroundImageFix"/>
<feColorMatrix in="SourceAlpha" type="matrix" values="0 0 0 0 0 0 0 0 0 0 0 0 0 0 0 0 0 0 127 0" result="hardAlpha"/>
<feOffset dy="4"/>
<feGaussianBlur stdDeviation="2"/>
<feComposite in2="hardAlpha" operator="out"/>
<feColorMatrix type="matrix" values="0 0 0 0 0 0 0 0 0 0 0 0 0 0 0 0 0 0 0.25 0"/>
<feBlend mode="normal" in2="BackgroundImageFix" result="effect1_dropShadow_144_86"/>
<feColorMatrix in="SourceAlpha" type="matrix" values="0 0 0 0 0 0 0 0 0 0 0 0 0 0 0 0 0 0 127 0" result="hardAlpha"/>
<feOffset dy="4"/>
<feGaussianBlur stdDeviation="2"/>
<feComposite in2="hardAlpha" operator="out"/>
<feColorMatrix type="matrix" values="0 0 0 0 0 0 0 0 0 0 0 0 0 0 0 0 0 0 0.25 0"/>
<feBlend mode="normal" in2="effect1_dropShadow_144_86" result="effect2_dropShadow_144_86"/>
<feBlend mode="normal" in="SourceGraphic" in2="effect2_dropShadow_144_86" result="shape"/>
</filter>
</defs>
</svg>
