<svg width="91" height="98" viewBox="0 0 91 98" fill="none" xmlns="http://www.w3.org/2000/svg">
<g filter="url(#filter0_d_149_241)">
<ellipse cx="45.5" cy="45" rx="41.5" ry="45" fill="#D9D9D9"/>
<g filter="url(#filter1_d_149_241)">
<path d="M64.7913 73.199L40.9413 79.499C40.9413 79.499 37.5663 68.699 31.7163 62.399C25.8664 56.099 26.5413 44.849 26.5413 44.849C26.5413 44.849 20.7019 38.999 22.2663 33.824C23.3973 30.0825 25.7936 31.0906 27.129 31.6523C27.6406 31.8676 27.9966 32.0173 28.0659 31.8092C28.246 31.269 28.0571 30.4572 27.8512 29.5721C27.4854 27.9996 27.0658 26.1959 28.5663 25.274C31.6193 23.3983 34.177 23.9875 35.3714 24.8983C36.5659 25.8091 37.1838 26.8694 37.1838 26.8694C38.3859 29.1783 39.2078 30.757 39.523 35.4144C40.1421 35.2829 40.8273 35.2451 41.5573 35.2822L38.0163 24.149C37.5663 22.8092 37.0659 21.8092 36.5084 19.8669C35.3714 16.5168 33.1775 13.2047 38.0659 11.3092C42.8688 9.44694 44.2064 15.4163 45.5464 19.9236C45.7632 20.742 45.8823 21.4667 45.9118 22.1099C46.7196 26.8369 48.6577 37.5656 49.5659 37.3092C50.7299 36.9807 50.5659 29.8091 50.0659 24.3091L49.7353 23.9728C49.1299 23.5677 48.6531 23.0882 48.4019 22.6165C47.5857 21.084 48.2009 19.7914 48.9209 18.2114C49.9413 15.0563 50.0659 12.8091 51.5163 11.099C54.2331 7.89575 60.9663 12.449 60.9663 15.149C60.9663 32.6194 64.7913 73.199 64.7913 73.199Z" fill="#ECCCC0"/>
<path d="M28.0659 31.8092C28.0659 31.8092 30.5074 34.4934 32.928 38.099M28.0659 31.8092C28.246 31.269 28.0571 30.4572 27.8512 29.5721C27.4854 27.9996 27.0658 26.1959 28.5663 25.274C31.6193 23.3983 34.177 23.9875 35.3714 24.8983C36.5659 25.8091 37.1838 26.8694 37.1838 26.8694C38.3859 29.1783 39.2078 30.757 39.523 35.4144M28.0659 31.8092C27.9966 32.0173 27.6406 31.8676 27.129 31.6523C25.7936 31.0906 23.3973 30.0825 22.2663 33.824C20.7019 38.999 26.5413 44.849 26.5413 44.849M26.5413 44.849C26.5413 44.849 25.8664 56.099 31.7163 62.399C37.5663 68.699 40.9413 79.499 40.9413 79.499L64.7913 73.199C64.7913 73.199 60.9663 32.6194 60.9663 15.149C60.9663 12.449 54.2331 7.89575 51.5163 11.099C50.0659 12.8091 49.9413 15.0563 48.9209 18.2114C48.2009 19.7914 47.5857 21.084 48.4019 22.6165M26.5413 44.849C26.5413 44.849 30.7802 49.5236 34.4163 48.3693C38.0403 47.2188 35.7751 42.3399 32.928 38.099M56.6913 54.524C56.6913 54.524 50.7414 51.844 45.2163 48.3693M56.6913 41.024C56.6913 41.024 47.5944 35.5892 41.5573 35.2822M43.6413 64.424C43.6413 64.424 42.2913 58.574 44.4288 56.3966C46.5663 54.2193 45.2163 48.3693 45.2163 48.3693M45.2163 48.3693C40.9023 45.6562 36.8474 42.4586 36.086 39.674M39.523 35.4144C38.9254 35.5414 38.0119 35.7556 37.5663 36.074C36.1077 37.1158 35.7235 38.3481 36.086 39.674M39.523 35.4144C40.1421 35.2829 40.8273 35.2451 41.5573 35.2822M39.523 35.4144L41.5573 35.2822M38.0163 24.149C38.0163 24.149 41.2667 27.3094 43.4163 26.3092C45.5659 25.3091 46.4993 23.5211 45.5464 19.9236M38.0163 24.149C37.5663 22.8092 37.0659 21.8092 36.5084 19.8669C35.3714 16.5168 33.1775 13.2047 38.0659 11.3092C42.8688 9.44694 44.2064 15.4163 45.5464 19.9236M38.0163 24.149L41.5573 35.2822M58.0413 18.974C58.0413 18.974 56.9163 23.5148 54.6663 24.6398C52.4163 25.7648 49.2181 24.149 48.4019 22.6165M32.928 38.099C33.9358 39.674 34.8527 39.0589 36.086 39.674M47.4663 45.524C47.4663 45.524 46.7285 43.471 47.4663 42.599C48.1134 41.8342 49.9413 41.924 49.9413 41.924M41.5659 35.3092L41.5573 35.2822M48.4019 22.6165L50.0659 24.3091C50.5659 29.8091 50.7299 36.9807 49.5659 37.3092C48.4019 37.6378 45.5464 19.9236 45.5464 19.9236M38.0163 40.574L40.0413 36.749C40.0413 36.749 41.8013 37.1991 42.2913 38.099C42.7536 38.9478 42.8973 39.821 42.2913 40.574C41.7686 41.2234 41.0995 41.2237 40.2663 41.249C39.3494 41.2768 38.0163 40.574 38.0163 40.574ZM49.9413 21.899L54.2163 23.024C54.2163 23.024 54.7369 21.4115 54.6663 20.549C54.5987 19.7228 54.0348 19.3875 53.3163 18.974C52.5548 18.5357 51.3561 18.4998 50.6163 18.974C49.8196 19.4847 49.9413 21.899 49.9413 21.899ZM40.0413 24.149L44.4288 22.574C44.4288 22.574 44.3389 20.43 43.4163 19.649C42.6517 19.0016 41.8917 18.6572 40.9413 18.974C39.9909 19.2908 39.641 20.0355 39.3663 20.999C39.0213 22.2088 40.0413 24.149 40.0413 24.149Z" stroke="#725050" stroke-width="0.3"/>
</g>
</g>
<defs>
<filter id="filter0_d_149_241" x="0" y="0" width="91" height="98" filterUnits="userSpaceOnUse" color-interpolation-filters="sRGB">
<feFlood flood-opacity="0" result="BackgroundImageFix"/>
<feColorMatrix in="SourceAlpha" type="matrix" values="0 0 0 0 0 0 0 0 0 0 0 0 0 0 0 0 0 0 127 0" result="hardAlpha"/>
<feOffset dy="4"/>
<feGaussianBlur stdDeviation="2"/>
<feComposite in2="hardAlpha" operator="out"/>
<feColorMatrix type="matrix" values="0 0 0 0 0 0 0 0 0 0 0 0 0 0 0 0 0 0 0.25 0"/>
<feBlend mode="normal" in2="BackgroundImageFix" result="effect1_dropShadow_149_241"/>
<feBlend mode="normal" in="SourceGraphic" in2="effect1_dropShadow_149_241" result="shape"/>
</filter>
<filter id="filter1_d_149_241" x="20.0499" y="9.8501" width="46.7028" height="73.4306" filterUnits="userSpaceOnUse" color-interpolation-filters="sRGB">
<feFlood flood-opacity="0" result="BackgroundImageFix"/>
<feColorMatrix in="SourceAlpha" type="matrix" values="0 0 0 0 0 0 0 0 0 0 0 0 0 0 0 0 0 0 127 0" result="hardAlpha"/>
<feOffset dy="1.8"/>
<feGaussianBlur stdDeviation="0.9"/>
<feComposite in2="hardAlpha" operator="out"/>
<feColorMatrix type="matrix" values="0 0 0 0 0 0 0 0 0 0 0 0 0 0 0 0 0 0 0.25 0"/>
<feBlend mode="normal" in2="BackgroundImageFix" result="effect1_dropShadow_149_241"/>
<feBlend mode="normal" in="SourceGraphic" in2="effect1_dropShadow_149_241" result="shape"/>
</filter>
</defs>
</svg>
