<svg width="91" height="98" viewBox="0 0 91 98" fill="none" xmlns="http://www.w3.org/2000/svg">
<g filter="url(#filter0_dd_140_48)">
<g filter="url(#filter1_d_140_48)">
<ellipse cx="45.5" cy="45" rx="41.5" ry="45" fill="#D9D9D9"/>
</g>
<g filter="url(#filter2_ddd_140_48)">
<path d="M37.4823 72.4386V70.5806V69.8451C37.4823 69.8451 37.9626 68.3959 37.4823 67.6386C37.1963 67.1877 36.3969 66.7096 36.3969 66.7096C36.3969 66.7096 35.4173 65.6264 34.9497 64.8516C34.2679 63.7217 34.1583 62.9831 33.7739 61.7548C33.4834 60.8267 33.3019 60.3057 33.1408 59.3548C32.9579 58.276 33.1379 57.6471 32.9599 56.5677C32.7825 55.4929 32.4136 54.9329 32.2363 53.8581C32.0582 52.7787 32.0869 52.1607 32.0554 51.071C32.03 50.1945 31.9446 49.6975 32.0554 48.8258C32.1371 48.1833 32.1781 47.8131 32.4172 47.2C32.6273 46.6612 32.7905 46.3664 33.1408 45.8839C33.4989 45.3906 33.7299 45.1187 34.2261 44.7226C34.6706 44.3679 35.0044 44.2584 35.4924 43.9484C35.9576 43.6529 36.3705 43.5996 36.6682 43.1742C37.0858 42.5777 36.5768 42.0846 36.6682 41.3936C36.758 40.7158 36.9609 40.3587 37.1205 39.6904C37.2786 39.028 37.271 38.6386 37.4823 37.9872C37.7367 37.2028 37.8072 36.6971 38.3868 36.0517C38.814 35.5759 39.1252 35.3282 39.7435 35.0452C40.2657 34.8063 40.9514 35.1217 41.1907 34.6581V33.9614V31.9485V29.4711V27.0711V25.0582V24.6711C41.1907 23.9455 41.2281 23.5379 41.1907 22.813C41.1436 21.9024 41.0198 21.3979 40.9193 20.4905C40.8457 19.8256 40.7692 19.4546 40.7384 18.7872C40.7147 18.2737 40.6291 17.9765 40.7384 17.4711C40.834 17.0292 40.8013 16.6888 41.1907 16.3873C41.5219 16.1306 41.8364 16.146 42.276 16.0776C42.8321 15.991 43.1754 15.9585 43.7232 16.0776C44.4638 16.2386 44.8598 16.5058 45.3513 17.0066C45.9124 17.5784 45.9096 18.0733 46.1653 18.7872C46.7497 20.4186 46.5592 21.4288 46.7984 23.1227C46.8838 23.7273 46.9311 24.0663 47.0144 24.6711C47.2127 26.0921 47.522 27.04 47.522 28.3098V31.5614C47.6814 31.8412 47.9743 31.9805 48.3361 31.9485C48.786 31.9087 48.7445 31.452 49.0597 31.1743C49.4979 30.7882 49.7339 30.5043 50.3259 30.3227C50.9577 30.1288 51.3835 30.2231 52.0444 30.3227C52.6716 30.4171 53.1575 31.1934 53.5821 30.7872C53.8883 30.4943 53.562 30.1734 53.5821 29.7807C53.6433 28.5839 54.2152 26.7614 54.2152 26.7614C54.2152 26.7614 54.0843 24.7747 54.2152 23.5098C54.329 22.4107 54.5009 21.804 54.7579 20.7227C54.8877 20.1764 54.7041 19.7584 55.1197 19.3292C55.4328 19.0058 55.7372 18.9138 56.2051 18.7872C56.845 18.6142 57.2883 18.6021 57.9236 18.7872C58.6817 19.0082 59.1034 19.3353 59.4612 19.9485C59.8873 20.6788 59.4612 21.2225 59.4612 22.0388V25.0582C59.4612 26.9025 59.513 27.937 59.4612 29.7807C59.371 32.9916 59.1238 34.7854 58.8281 37.9872C58.666 39.7418 58.4519 40.7186 58.3758 42.4775C58.3183 43.8068 58.3758 45.8839 58.3758 45.8839V50.2194V53.6258V56.8V59.3548L57.9236 61.7548C57.747 62.692 57.4754 62.8855 57.0191 63.5354C56.6297 64.09 55.9854 64.2161 55.8433 64.8516C55.7835 65.1188 55.8205 65.2769 55.8433 65.5483C55.8899 66.1044 56.1194 66.3892 56.2051 66.9419C56.3352 67.7811 56.2051 68.263 56.2051 69.1096C56.2051 70.4097 57.2055 71.4604 56.2051 72.4386C55.7661 72.8679 55.3223 72.9094 54.7579 73.2128C54.0857 73.5741 53.7374 73.8184 53.0394 74.1418C52.191 74.5349 51.6837 74.7085 50.7782 74.9934C49.8446 75.2872 49.3044 75.4181 48.3361 75.6128C47.3241 75.8162 46.7525 75.9949 45.7131 75.9999C44.6388 76.005 44.0424 75.8338 42.9996 75.6128C42.0996 75.422 41.6221 75.2337 40.7384 74.9934C40.0676 74.8111 39.6687 74.7624 39.0199 74.5289C38.3936 74.3035 37.821 74.3363 37.4823 73.8322C37.1653 73.3604 37.4823 72.9828 37.4823 72.4386Z" fill="#ECCCC0"/>
<path d="M37.4823 67.9483C37.4823 67.9483 37.4823 68.6561 37.4823 69.1096C37.4823 69.3968 37.4823 69.8451 37.4823 69.8451M47.522 31.5614C47.6814 31.8412 47.9743 31.9805 48.3361 31.9485C48.786 31.9087 48.7445 31.452 49.0597 31.1743C49.4979 30.7882 49.7339 30.5043 50.3259 30.3227C50.9577 30.1288 51.3835 30.2231 52.0444 30.3227C52.6716 30.4171 53.1575 31.1934 53.5821 30.7872C53.8883 30.4943 53.562 30.1734 53.5821 29.7807C53.6433 28.5839 54.2152 26.7614 54.2152 26.7614C54.2152 26.7614 54.0843 24.7747 54.2152 23.5098C54.329 22.4107 54.5009 21.804 54.7579 20.7227C54.8877 20.1764 54.7041 19.7584 55.1197 19.3292C55.4328 19.0058 55.7372 18.9138 56.2051 18.7872C56.845 18.6142 57.2883 18.6021 57.9236 18.7872C58.6817 19.0082 59.1034 19.3353 59.4612 19.9485C59.8873 20.6788 59.4612 21.2225 59.4612 22.0388C59.4612 23.218 59.4612 23.8791 59.4612 25.0582C59.4612 26.9025 59.513 27.937 59.4612 29.7807C59.371 32.9916 59.1238 34.7854 58.8281 37.9872C58.666 39.7418 58.4519 40.7186 58.3758 42.4775C58.3183 43.8068 58.3758 45.8839 58.3758 45.8839V50.2194V53.6258V56.8V59.3548C58.1992 60.2921 58.1002 60.8175 57.9236 61.7548C57.747 62.692 57.4754 62.8855 57.0191 63.5354C56.6297 64.09 55.9854 64.2161 55.8433 64.8516C55.7835 65.1188 55.8205 65.2769 55.8433 65.5483C55.8899 66.1044 56.1194 66.3892 56.2051 66.9419C56.3352 67.7811 56.2051 68.263 56.2051 69.1096C56.2051 70.4097 57.2055 71.4604 56.2051 72.4386C55.7661 72.8679 55.3223 72.9094 54.7579 73.2128C54.0857 73.5741 53.7374 73.8184 53.0394 74.1418C52.191 74.5349 51.6837 74.7085 50.7782 74.9934C49.8446 75.2872 49.3044 75.4181 48.3361 75.6128C47.3241 75.8162 46.7525 75.9949 45.7131 75.9999C44.6388 76.005 44.0424 75.8338 42.9996 75.6128C42.0996 75.422 41.6221 75.2337 40.7384 74.9934C40.0676 74.8111 39.6687 74.7624 39.0199 74.5289C38.3936 74.3035 37.821 74.3363 37.4823 73.8322C37.1653 73.3604 37.4823 72.9828 37.4823 72.4386C37.4823 71.713 37.4823 71.3062 37.4823 70.5806C37.4823 70.2933 37.4823 69.8451 37.4823 69.8451M47.522 31.5614C47.522 30.2916 47.522 29.5796 47.522 28.3098C47.522 27.04 47.2127 26.0921 47.0144 24.6711M47.522 31.5614C46.8156 31.5614 46.4195 31.5614 45.7131 31.5614C44.6534 31.5614 44.0593 31.5614 42.9996 31.5614C42.4698 31.5614 42.1727 31.5614 41.6429 31.5614M37.4823 69.8451C37.4823 69.8451 37.9626 68.3959 37.4823 67.6386C37.1963 67.1877 36.3969 66.7096 36.3969 66.7096C36.3969 66.7096 35.4173 65.6264 34.9497 64.8516C34.2679 63.7217 34.1583 62.9831 33.7739 61.7548C33.4834 60.8267 33.3019 60.3057 33.1408 59.3548C32.9579 58.276 33.1379 57.6471 32.9599 56.5677C32.7825 55.4929 32.4136 54.9329 32.2363 53.8581C32.0582 52.7787 32.0869 52.1607 32.0554 51.071C32.03 50.1945 31.9446 49.6975 32.0554 48.8258C32.1371 48.1833 32.1781 47.8131 32.4172 47.2C32.6273 46.6612 32.7905 46.3664 33.1408 45.8839C33.4989 45.3906 33.7299 45.1187 34.2261 44.7226C34.6706 44.3679 35.0044 44.2584 35.4924 43.9484C35.9576 43.6529 36.3705 43.5996 36.6682 43.1742C37.0858 42.5777 36.5768 42.0846 36.6682 41.3936C36.758 40.7158 36.9609 40.3587 37.1205 39.6904C37.2786 39.028 37.271 38.6386 37.4823 37.9872C37.7367 37.2028 37.8072 36.6971 38.3868 36.0517C38.814 35.5759 39.1252 35.3282 39.7435 35.0452C40.2657 34.8063 40.9514 35.1217 41.1907 34.6581V33.9614C41.1907 33.9614 41.1907 32.7346 41.1907 31.9485C41.1907 30.981 41.1907 30.4386 41.1907 29.4711C41.1907 28.5338 41.1907 28.0083 41.1907 27.0711C41.1907 26.285 41.1907 25.0582 41.1907 25.0582C41.1907 25.0582 41.1907 24.8223 41.1907 24.6711M41.1907 24.6711C41.1907 23.9455 41.2281 23.5379 41.1907 22.813C41.1436 21.9024 41.0198 21.3979 40.9193 20.4905C40.8457 19.8256 40.7692 19.4546 40.7384 18.7872C40.7147 18.2737 40.6291 17.9765 40.7384 17.4711C40.834 17.0292 40.8013 16.6888 41.1907 16.3873C41.5219 16.1306 41.8364 16.146 42.276 16.0776C42.8321 15.991 43.1754 15.9585 43.7232 16.0776C44.4638 16.2386 44.8598 16.5058 45.3513 17.0066C45.9124 17.5784 45.9096 18.0733 46.1653 18.7872C46.7497 20.4186 46.5592 21.4288 46.7984 23.1227C46.8838 23.7273 46.9311 24.0663 47.0144 24.6711M41.1907 24.6711C41.6145 24.6711 41.8523 24.6637 42.276 24.6711C42.9479 24.6828 43.3225 24.7485 43.9946 24.7485C44.6666 24.7485 45.0412 24.6841 45.7131 24.6711C46.2212 24.6612 47.0144 24.6711 47.0144 24.6711M54.7579 26.7614C55.3231 26.7614 55.6399 26.7614 56.2051 26.7614C56.8762 26.7614 57.3218 26.4642 57.9236 26.7614C58.1155 26.8562 58.3758 27.0711 58.3758 27.0711" stroke="#725050" stroke-width="0.3"/>
<path d="M34.7108 48.3713C34.7108 48.3713 35.6819 48.5661 36.2469 48.8379C37.0095 49.2047 37.3451 49.5826 37.9638 50.1599C38.7211 50.8667 39.6806 52.1818 39.6806 52.1818L40.8553 53.7371C40.8553 53.7371 41.446 54.5254 41.9397 54.9036C42.5595 55.3785 42.9804 55.6103 43.7469 55.759C44.3358 55.8733 44.816 56.1356 45.283 55.759C45.5772 55.5219 45.6539 55.2726 45.7349 54.9036C45.7999 54.607 45.7349 54.126 45.7349 54.126C45.7349 54.126 45.7626 53.6507 45.7349 53.3483C45.6771 52.7185 45.51 52.3834 45.283 51.793C45.0274 51.128 44.8063 50.7879 44.4698 50.1599C43.8308 48.9676 43.4257 48.3218 42.6626 47.2048C41.9988 46.2333 41.5199 45.7651 40.8553 44.7941C40.5275 44.315 40.4846 43.9256 40.0421 43.5498C39.4985 43.0883 39.0306 43.0328 38.3252 42.9277C37.8017 42.8497 36.9698 42.9277 36.9698 42.9277" stroke="#725050" stroke-width="0.3"/>
<path d="M44.8747 50.6988C44.8747 50.6988 45.6246 51.127 46.1557 51.241C46.7497 51.3685 47.1345 51.4315 47.7113 51.241C48.1058 51.1108 48.3715 51.0268 48.6264 50.6988C49.0533 50.1496 48.6264 49.6131 48.6264 48.9174C48.6264 48.1613 48.7928 47.7188 48.6264 46.9811C48.3945 45.953 47.7464 45.5892 47.2538 44.6575C46.7847 43.7703 46.1557 42.334 46.1557 42.334C46.1557 42.334 45.4625 40.7272 44.8747 39.778C44.4235 39.0495 44.087 38.6972 43.5936 37.9966C43.0859 37.2758 42.8404 36.8439 42.3125 36.1377C41.9667 35.6752 41.3975 34.976 41.3975 34.976M43.5936 55.0362L44.3794 54.6747L45.0119 54.2229L45.1926 53.9519L44.7408 53.0482L44.1987 52.5061H43.5936L43.1143 53.0482L42.7529 53.5904L42.8432 54.3133L43.5936 55.0362ZM45.5541 50.0663L46.277 49.7049L47.2538 49.2531L47.7113 48.9174L47.9938 48.8013L47.2538 47.1747L46.6384 46.8133L45.9155 46.9811L45.283 47.5362L45.1926 48.2591V48.9174L45.283 49.4338L45.5541 50.0663Z" stroke="#725050" stroke-width="0.3"/>
<path d="M58.2047 47.0209C57.7356 46.6018 57.4942 46.3452 57.1162 45.8642C56.403 44.9565 56.1463 44.3593 55.7557 43.3195C55.35 42.2392 55.5569 41.538 55.1208 40.4663C54.8409 39.7785 54.5989 39.4197 54.2138 38.7698C53.6425 37.8057 52.712 37.4531 52.5812 36.3793C52.5483 36.1097 52.5617 35.9556 52.5812 35.6853C52.6043 35.3643 52.6555 35.132 52.7223 34.8855M48.2275 31.9068L47.8647 34.0659C47.8647 34.0659 47.5853 35.2346 47.5019 35.9938C47.3832 37.0732 47.5019 38.7698 47.5019 38.7698L47.8647 39.9265L48.5903 40.4663H48.2275V41.5459V43.3195L48.5903 44.6304L49.1345 45.8642C49.1345 45.8642 49.3556 46.3812 49.4973 46.7124M49.4973 46.7124C49.8161 47.0738 50.3136 47.6378 50.3136 47.6378L51.3113 48.4089C51.3113 48.4089 52.1445 48.6582 52.5812 48.9487C53.7539 49.7287 48.4527 45.8341 49.4973 46.7124ZM49.4973 46.7124C49.1431 46.9533 48.5903 47.3293 48.5903 47.3293M44.2366 55.6575C44.2366 55.6575 44.4979 56.8031 44.7808 57.5082C45.0166 58.0958 45.2802 58.383 45.5065 58.9733C45.754 59.6193 45.615 60.0569 45.96 60.6698C46.2657 61.2131 46.6233 61.4218 47.0484 61.9036M53.2348 31C53.2348 31 53.3959 31.5462 53.4156 31.9068C53.4427 32.4039 53.3443 32.683 53.2348 33.1687C53.1292 33.6369 52.9962 33.8794 52.8734 34.3434C52.8185 34.5507 52.7669 34.7213 52.7223 34.8855M53.2348 31.8133C53.2348 31.8133 52.8419 31.6337 52.5812 31.5422C52.3462 31.4597 52.1843 31.2352 51.9698 31.3614C51.7764 31.4753 51.7891 31.9068 51.7891 31.9068C51.7891 31.9068 51.6346 32.4495 51.6083 32.8072C51.5928 33.0184 51.6083 33.3494 51.6083 33.3494C51.6083 33.3494 51.5405 33.691 51.6083 33.8916C51.6807 34.1056 51.81 34.1836 51.9698 34.3434C52.1295 34.5031 52.4216 34.7048 52.4216 34.7048L52.7223 34.8855" stroke="#725050" stroke-width="0.3"/>
<path d="M47.9035 64.7952L50.4336 65.6988H52.4216L54.4999 65.3976L55.6746 64.7952" stroke="#725050" stroke-width="0.3"/>
<path d="M37.4216 67.4624L39.0668 67.8675L41.0776 67.4624L43.1798 66.8953L45.3734 65.5181" stroke="#725050" stroke-width="0.3"/>
<path d="M52.2408 40.2943L54.4999 39.6747L54.9517 40.2943L53.4155 40.759" stroke="#725050" stroke-width="0.3"/>
<path d="M52.9637 42.2048L55.1324 41.4819" stroke="#725050" stroke-width="0.3"/>
<path d="M53.8674 32.4458L56.1264 32.7415L57.3915 33.1112L59.1083 34.0723" stroke="#725050" stroke-width="0.3"/>
</g>
</g>
<defs>
<filter id="filter0_dd_140_48" x="0" y="0" width="91" height="98" filterUnits="userSpaceOnUse" color-interpolation-filters="sRGB">
<feFlood flood-opacity="0" result="BackgroundImageFix"/>
<feColorMatrix in="SourceAlpha" type="matrix" values="0 0 0 0 0 0 0 0 0 0 0 0 0 0 0 0 0 0 127 0" result="hardAlpha"/>
<feOffset dy="4"/>
<feGaussianBlur stdDeviation="2"/>
<feComposite in2="hardAlpha" operator="out"/>
<feColorMatrix type="matrix" values="0 0 0 0 0 0 0 0 0 0 0 0 0 0 0 0 0 0 0.25 0"/>
<feBlend mode="normal" in2="BackgroundImageFix" result="effect1_dropShadow_140_48"/>
<feColorMatrix in="SourceAlpha" type="matrix" values="0 0 0 0 0 0 0 0 0 0 0 0 0 0 0 0 0 0 127 0" result="hardAlpha"/>
<feOffset dy="4"/>
<feGaussianBlur stdDeviation="2"/>
<feComposite in2="hardAlpha" operator="out"/>
<feColorMatrix type="matrix" values="0 0 0 0 0 0 0 0 0 0 0 0 0 0 0 0 0 0 0.25 0"/>
<feBlend mode="normal" in2="effect1_dropShadow_140_48" result="effect2_dropShadow_140_48"/>
<feBlend mode="normal" in="SourceGraphic" in2="effect2_dropShadow_140_48" result="shape"/>
</filter>
<filter id="filter1_d_140_48" x="0" y="0" width="91" height="98" filterUnits="userSpaceOnUse" color-interpolation-filters="sRGB">
<feFlood flood-opacity="0" result="BackgroundImageFix"/>
<feColorMatrix in="SourceAlpha" type="matrix" values="0 0 0 0 0 0 0 0 0 0 0 0 0 0 0 0 0 0 127 0" result="hardAlpha"/>
<feOffset dy="4"/>
<feGaussianBlur stdDeviation="2"/>
<feComposite in2="hardAlpha" operator="out"/>
<feColorMatrix type="matrix" values="0 0 0 0 0 0 0 0 0 0 0 0 0 0 0 0 0 0 0.25 0"/>
<feBlend mode="normal" in2="BackgroundImageFix" result="effect1_dropShadow_140_48"/>
<feBlend mode="normal" in="SourceGraphic" in2="effect1_dropShadow_140_48" result="shape"/>
</filter>
<filter id="filter2_ddd_140_48" x="27.8501" y="15.85" width="35.9505" height="68.3" filterUnits="userSpaceOnUse" color-interpolation-filters="sRGB">
<feFlood flood-opacity="0" result="BackgroundImageFix"/>
<feColorMatrix in="SourceAlpha" type="matrix" values="0 0 0 0 0 0 0 0 0 0 0 0 0 0 0 0 0 0 127 0" result="hardAlpha"/>
<feOffset dy="4"/>
<feGaussianBlur stdDeviation="2"/>
<feComposite in2="hardAlpha" operator="out"/>
<feColorMatrix type="matrix" values="0 0 0 0 0 0 0 0 0 0 0 0 0 0 0 0 0 0 0.25 0"/>
<feBlend mode="normal" in2="BackgroundImageFix" result="effect1_dropShadow_140_48"/>
<feColorMatrix in="SourceAlpha" type="matrix" values="0 0 0 0 0 0 0 0 0 0 0 0 0 0 0 0 0 0 127 0" result="hardAlpha"/>
<feOffset dy="4"/>
<feGaussianBlur stdDeviation="2"/>
<feComposite in2="hardAlpha" operator="out"/>
<feColorMatrix type="matrix" values="0 0 0 0 0 0 0 0 0 0 0 0 0 0 0 0 0 0 0.25 0"/>
<feBlend mode="normal" in2="effect1_dropShadow_140_48" result="effect2_dropShadow_140_48"/>
<feColorMatrix in="SourceAlpha" type="matrix" values="0 0 0 0 0 0 0 0 0 0 0 0 0 0 0 0 0 0 127 0" result="hardAlpha"/>
<feOffset dy="4"/>
<feGaussianBlur stdDeviation="2"/>
<feComposite in2="hardAlpha" operator="out"/>
<feColorMatrix type="matrix" values="0 0 0 0 0 0 0 0 0 0 0 0 0 0 0 0 0 0 0.25 0"/>
<feBlend mode="normal" in2="effect2_dropShadow_140_48" result="effect3_dropShadow_140_48"/>
<feBlend mode="normal" in="SourceGraphic" in2="effect3_dropShadow_140_48" result="shape"/>
</filter>
</defs>
</svg>
