<svg width="91" height="98" viewBox="0 0 91 98" fill="none" xmlns="http://www.w3.org/2000/svg">
<g filter="url(#filter0_d_140_72)">
<ellipse cx="45.5" cy="45" rx="41.5" ry="45" fill="#D9D9D9"/>
</g>
<g filter="url(#filter1_d_140_72)">
<path d="M32.2458 52.1392V39.2859L28.5683 28.7365C28.5683 28.7365 26.5615 17.5475 30.0901 18.6722C33.514 19.7635 34.0212 27.2814 34.0212 27.2814C34.0212 27.2814 35.9234 34.5569 37.5719 35.6482C38.7379 36.4201 40.0546 35.3628 40.4885 34.0719C41.6298 30.6766 39.4289 8.95593 43.7856 8.12275C47.5899 7.39521 46.8291 29.1003 46.7023 31.1617C46.6563 31.9091 46.8211 32.2736 47.5899 32.1317C54.6913 30.8213 47.5652 4 55.7058 4C60.1442 4 56.7837 28.7365 56.7837 28.7365C56.7837 28.7365 57.9884 28.1302 59.0029 28.1302C59.1693 28.1302 59.3391 28.127 59.5101 28.1354C60.3816 28.1785 61.2835 28.5261 61.9195 31.1617C62.6804 34.3144 63.1876 39.2859 62.934 42.8024C62.6804 46.3189 61.1587 48.8653 61.1587 48.8653V53.7156C61.1587 53.7156 61.438 59.2445 60.3978 62.5674C59.3812 65.815 57.1783 66.9814 56.0863 70.2066C54.2251 75.7029 56.0863 85 56.0863 85H36.9378C36.9378 85 38.2272 76.1866 36.3038 71.0554C35.8474 69.8379 35.3994 69.2293 34.9089 68.0239C32.526 62.1691 32.2458 52.1392 32.2458 52.1392Z" fill="#ECCCC0"/>
<path d="M52.4087 34.5569C51.1406 34.1931 49.8648 33.8983 49.6189 32.738C49.45 31.941 50.7119 30.8309 51.2674 30.3866M52.4087 34.5569C53.3992 34.5569 52.966 34.4628 53.9305 34.6781M52.4087 34.5569C51.1903 34.6595 50.4598 34.9329 49.4921 35.6482C47.5218 37.1047 47.8956 38.1176 47.8436 40.4985C47.7765 43.5685 51.1832 45.8922 50.3798 48.8653C49.7046 51.3635 46.8494 53.6905 45.6878 56.0195C44.0037 59.3961 45.6878 63.2949 45.6878 63.2949M53.9305 34.6781C54.172 34.7321 54.4135 35.0953 54.6463 35.6482M53.9305 34.6781H61.1587M56.4667 43.7725C56.4667 43.7725 56.0592 40.9413 55.4753 38.4371M56.7837 28.7365C56.7837 28.7365 57.9884 28.1302 59.0029 28.1302C59.1693 28.1302 59.3391 28.127 59.5101 28.1354M56.7837 28.7365C56.7837 28.7365 60.1442 4 55.7058 4C47.5652 4 54.6913 30.8213 47.5899 32.1317C46.8211 32.2736 46.6563 31.9091 46.7023 31.1617C46.8291 29.1003 47.5899 7.39521 43.7856 8.12275C39.4289 8.95593 41.6298 30.6766 40.4885 34.0719C40.0546 35.3628 38.7379 36.4201 37.5719 35.6482C35.9234 34.5569 34.0212 27.2814 34.0212 27.2814C34.0212 27.2814 33.514 19.7635 30.0901 18.6722C26.5615 17.5475 28.5683 28.7365 28.5683 28.7365L32.2458 39.2859V52.1392C32.2458 52.1392 32.526 62.1691 34.9089 68.024C35.3994 69.2293 35.8474 69.8379 36.3038 71.0554C38.2272 76.1866 36.9378 85 36.9378 85H56.0863C56.0863 85 54.2251 75.7028 56.0863 70.2066C57.1783 66.9814 59.3812 65.815 60.3978 62.5674C61.438 59.2445 61.1587 53.7156 61.1587 53.7156V48.8653C61.1587 48.8653 62.6804 46.3189 62.934 42.8024C63.1876 39.2859 62.6804 34.3144 61.9195 31.1617C61.2835 28.5261 60.3816 28.1785 59.5101 28.1354M56.7837 28.7365L53.6768 29.5956M54.6463 35.6482L51.5211 37.7096C51.5211 37.7096 51.3057 39.5932 52.1551 40.1347C52.8556 40.5813 53.5718 40.5202 54.3109 40.1347C55.0388 39.7551 55.4753 38.4371 55.4753 38.4371M54.6463 35.6482C54.9429 36.3527 55.2253 37.3649 55.4753 38.4371M51.2674 30.3866C51.4214 30.2636 51.5211 30.1916 51.5211 30.1916L53.6768 29.5956M51.2674 30.3866L53.2964 32.1317L55.1986 31.1617C55.1986 31.1617 55.179 30.5116 54.945 30.1916C54.6287 29.7592 53.6768 29.5956 53.6768 29.5956M31.6118 30.6766C31.6118 30.6766 31.6256 29.8754 32.2458 29.5956C32.9376 29.2835 33.3871 30.0704 33.3871 30.0704M42.3907 26.1901C42.3907 26.1901 42.476 24.7037 43.7856 25.0988C44.7361 25.3855 44.8001 26.0689 44.8001 26.0689M52.6624 19.7635C52.6624 19.7635 53.2522 18.2554 54.6463 18.6722C55.5355 18.938 55.8326 19.6422 55.8326 19.6422M53.9305 44.8638C53.9305 44.8638 54.2295 44.1649 54.6463 44.015C55.0897 43.8555 55.8326 44.2575 55.8326 44.2575M59.8906 30.1916C59.5862 30.1916 58.9184 29.7066 58.6225 29.4641C58.3266 29.2216 59.5101 28.1354 59.5101 28.1354" stroke="#725050" stroke-width="0.3"/>
</g>
<defs>
<filter id="filter0_d_140_72" x="0" y="0" width="91" height="98" filterUnits="userSpaceOnUse" color-interpolation-filters="sRGB">
<feFlood flood-opacity="0" result="BackgroundImageFix"/>
<feColorMatrix in="SourceAlpha" type="matrix" values="0 0 0 0 0 0 0 0 0 0 0 0 0 0 0 0 0 0 127 0" result="hardAlpha"/>
<feOffset dy="4"/>
<feGaussianBlur stdDeviation="2"/>
<feComposite in2="hardAlpha" operator="out"/>
<feColorMatrix type="matrix" values="0 0 0 0 0 0 0 0 0 0 0 0 0 0 0 0 0 0 0.25 0"/>
<feBlend mode="normal" in2="BackgroundImageFix" result="effect1_dropShadow_140_72"/>
<feBlend mode="normal" in="SourceGraphic" in2="effect1_dropShadow_140_72" result="shape"/>
</filter>
<filter id="filter1_d_140_72" x="23.0501" y="3.8501" width="44.8998" height="90.8998" filterUnits="userSpaceOnUse" color-interpolation-filters="sRGB">
<feFlood flood-opacity="0" result="BackgroundImageFix"/>
<feColorMatrix in="SourceAlpha" type="matrix" values="0 0 0 0 0 0 0 0 0 0 0 0 0 0 0 0 0 0 127 0" result="hardAlpha"/>
<feOffset dy="4.8"/>
<feGaussianBlur stdDeviation="2.4"/>
<feComposite in2="hardAlpha" operator="out"/>
<feColorMatrix type="matrix" values="0 0 0 0 0 0 0 0 0 0 0 0 0 0 0 0 0 0 0.25 0"/>
<feBlend mode="normal" in2="BackgroundImageFix" result="effect1_dropShadow_140_72"/>
<feBlend mode="normal" in="SourceGraphic" in2="effect1_dropShadow_140_72" result="shape"/>
</filter>
</defs>
</svg>
