<svg width="91" height="98" viewBox="0 0 91 98" fill="none" xmlns="http://www.w3.org/2000/svg">
<g filter="url(#filter0_d_140_69)">
<ellipse cx="45.5" cy="45.0002" rx="41.5" ry="45" fill="#D9D9D9"/>
</g>
<g filter="url(#filter1_d_140_69)">
<path d="M53.9563 69.8956V83H34.3437L33.0449 73.6044C33.0449 73.6044 30.6214 67.5197 29.6679 63.467L29.6431 63.3618C28.4315 58.2125 27.7134 55.1608 28.1093 49.868C28.4683 45.0672 28.9745 42.2448 31.0966 37.8762C31.5236 36.9971 32.1093 36.2898 32.7311 35.6509C32.9803 35.3949 33.2352 35.1498 33.4881 34.9091C34.1301 34.2982 34.7586 33.7152 35.2448 33.0515C35.3611 32.8929 35.4692 32.7296 35.5674 32.5602C35.9335 31.9289 36.1621 31.2128 36.1621 30.335C36.1621 26.6262 35.8642 24.646 36.1621 20.9393C36.4478 17.3855 36.1621 14.6344 37.5908 11.9146C39.0196 9.19477 40.5782 10.1805 40.5782 10.1805C40.5782 10.1805 42.9161 9.69252 42.9161 13.1508C42.9161 16.6091 42.3719 35.4211 42.9161 33.6729C43.9552 30.335 43.9552 22.052 43.9552 22.052L45.6643 6.34812C45.6643 6.34812 46.9651 3.91223 48.3713 4.00245C50.1663 4.11761 51.3586 4.99471 51.3586 7.34037V22.052C51.3586 22.052 50.1742 34.3976 51.3586 33.6729C53.177 32.5602 53.9563 22.052 53.9563 22.052L55.9252 10.1805C55.9252 10.1805 57.4633 7.30927 58.7621 7.34037C60.0216 7.37053 61.2299 9.0679 61.77 10.1805C62.3102 11.2932 61.8006 18.3976 61.2505 23.7795C60.7458 28.7179 58.7621 35.6509 58.7621 35.6509L56.9437 56.0494C56.9437 56.0494 57.354 61.4857 56.9437 63.467C56.5334 65.4482 53.9563 69.8956 53.9563 69.8956Z" fill="#ECCCC0"/>
<path d="M56.9437 56.0494C56.9437 56.0494 57.354 61.4857 56.9437 63.467C56.5334 65.4482 53.9563 69.8956 53.9563 69.8956V83H34.3437L33.0449 73.6044C33.0449 73.6044 30.6214 67.5197 29.6679 63.467C28.4413 58.2539 27.7107 55.1967 28.1093 49.868C28.4683 45.0672 28.9745 42.2448 31.0966 37.8762C31.5236 36.9971 32.1093 36.2898 32.7311 35.6509M56.9437 56.0494L58.7621 35.6509C58.7621 35.6509 60.7458 28.7179 61.2505 23.7795C61.8006 18.3976 62.3102 11.2932 61.77 10.1805C61.2299 9.0679 60.0216 7.37053 58.7621 7.34037C57.4633 7.30927 55.9252 10.1805 55.9252 10.1805L53.9563 22.052C53.9563 22.052 53.177 32.5602 51.3586 33.6729C50.1742 34.3976 51.3586 22.052 51.3586 22.052C51.3586 16.3067 51.3586 9.68604 51.3586 7.34037C51.3586 4.99471 50.1663 4.11761 48.3713 4.00245C46.9651 3.91223 45.6643 6.34812 45.6643 6.34812L43.9552 22.052C43.9552 22.052 43.9552 30.335 42.9161 33.6729C42.3719 35.4211 42.9161 16.6091 42.9161 13.1508C42.9161 9.69252 40.5782 10.1805 40.5782 10.1805C40.5782 10.1805 39.0196 9.19477 37.5908 11.9146C36.1621 14.6344 36.4478 17.3855 36.1621 20.9393C35.8642 24.646 36.1621 26.6262 36.1621 30.335C36.1621 31.2128 35.9335 31.9289 35.5674 32.5602M56.9437 56.0494C56.9437 56.0494 56.539 55.6373 54.3666 53.3263C49.9505 48.6285 42.0069 37.8762 40.5782 37.0108C40.2826 36.8318 39.9814 36.7268 39.6896 36.6729M35.5674 32.5602C35.5674 32.5602 37.4913 32.0441 38.5001 32.5602C40.0416 33.349 39.6896 36.6729 39.6896 36.6729M35.5674 32.5602C35.4692 32.7296 35.3611 32.8929 35.2448 33.0515M42.0069 47.6427C42.9161 45.4174 43.5862 46.156 43.5862 46.156M38.5001 64.5764C38.5001 64.5764 46.0673 57.1234 42.9161 53.3263C40.5911 50.5247 36.6938 46.0046 34.9348 43.3125M37.5908 20.9393C37.5908 20.9393 38.4042 20.1026 39.0402 20.1943C39.5425 20.2668 40.0793 20.9393 40.0793 20.9393M46.3138 13.5185C46.3138 13.5185 47.4934 12.131 48.3713 12.4058C48.9566 12.5891 49.431 13.5185 49.431 13.5185M55.9252 17.4745C55.9252 17.4745 57.7217 16.1136 58.7621 16.6092C59.2162 16.8255 59.6919 17.4745 59.6919 17.4745M39.6896 36.6729C38.5712 36.4665 37.5908 37.0108 37.5908 37.0108C37.5908 37.0108 34.9045 38.7351 34.3644 41.0873C34.1842 41.8717 34.0548 41.9656 34.9348 43.3125M32.4123 46.5818C34.9348 45.7851 33.7318 43.9825 34.9348 43.3125M35.2448 33.0515C34.7586 33.7152 34.1301 34.2982 33.4881 34.9091C33.2352 35.1498 32.9803 35.3949 32.7311 35.6509M35.2448 33.0515L36.7023 34.4114C36.7023 34.4114 35.6425 36.2058 34.4942 36.2658C33.762 36.3041 32.7311 35.6509 32.7311 35.6509M40.838 38.4943C41.3042 39.1642 41.9162 39.4262 42.0069 40.2251C42.1167 41.1911 41.5413 42.1139 40.838 42.818C40.1183 43.5385 39.5428 43.744 38.5001 43.6867C37.2463 43.6178 36.5518 41.7086 36.1621 41.585C35.7724 41.4614 40.5782 38.1235 40.5782 38.1235L40.838 38.4943Z" stroke="#725050" stroke-width="0.3"/>
</g>
<defs>
<filter id="filter0_d_140_69" x="0" y="0.000244141" width="91" height="98" filterUnits="userSpaceOnUse" color-interpolation-filters="sRGB">
<feFlood flood-opacity="0" result="BackgroundImageFix"/>
<feColorMatrix in="SourceAlpha" type="matrix" values="0 0 0 0 0 0 0 0 0 0 0 0 0 0 0 0 0 0 127 0" result="hardAlpha"/>
<feOffset dy="4"/>
<feGaussianBlur stdDeviation="2"/>
<feComposite in2="hardAlpha" operator="out"/>
<feColorMatrix type="matrix" values="0 0 0 0 0 0 0 0 0 0 0 0 0 0 0 0 0 0 0.25 0"/>
<feBlend mode="normal" in2="BackgroundImageFix" result="effect1_dropShadow_140_69"/>
<feBlend mode="normal" in="SourceGraphic" in2="effect1_dropShadow_140_69" result="shape"/>
</filter>
<filter id="filter1_d_140_69" x="22.9081" y="3.8501" width="44.1837" height="89.1837" filterUnits="userSpaceOnUse" color-interpolation-filters="sRGB">
<feFlood flood-opacity="0" result="BackgroundImageFix"/>
<feColorMatrix in="SourceAlpha" type="matrix" values="0 0 0 0 0 0 0 0 0 0 0 0 0 0 0 0 0 0 127 0" result="hardAlpha"/>
<feOffset dy="4.94196"/>
<feGaussianBlur stdDeviation="2.47098"/>
<feComposite in2="hardAlpha" operator="out"/>
<feColorMatrix type="matrix" values="0 0 0 0 0 0 0 0 0 0 0 0 0 0 0 0 0 0 0.25 0"/>
<feBlend mode="normal" in2="BackgroundImageFix" result="effect1_dropShadow_140_69"/>
<feBlend mode="normal" in="SourceGraphic" in2="effect1_dropShadow_140_69" result="shape"/>
</filter>
</defs>
</svg>
