<svg width="91" height="98" viewBox="0 0 91 98" fill="none" xmlns="http://www.w3.org/2000/svg">
<g filter="url(#filter0_dd_140_52)">
<g filter="url(#filter1_d_140_52)">
<ellipse cx="45.5" cy="45" rx="41.5" ry="45" fill="#D9D9D9"/>
</g>
<g filter="url(#filter2_dd_140_52)">
<path fill-rule="evenodd" clip-rule="evenodd" d="M27.9255 69.4048C27.672 69.2498 27.4055 69.1642 27.1535 69.0832C26.6966 68.9364 26.2875 68.805 26.0904 68.3037C25.9583 67.9679 25.9973 67.7093 26.0432 67.4044C26.0611 67.2855 26.0801 67.1595 26.0904 67.0192C26.1342 66.4238 26.2566 65.9999 26.3882 65.5442C26.4752 65.2434 26.566 64.9287 26.6409 64.5418C26.8547 63.4371 27.0997 61.6974 27.0997 61.6974L27.4667 57.6602L27.9255 53.8066C27.9255 53.8066 28.337 51.5322 28.6595 49.3106L29.4853 43.6218C29.8078 41.4002 30.1276 38.8506 30.1276 38.8506L30.8616 35.2722C30.8616 35.2722 31.2511 32.9886 31.3204 31.5103C31.3487 30.9067 31.3403 30.4744 31.3309 29.991C31.3258 29.729 31.3204 29.452 31.3204 29.1247C31.1014 28.0988 31.1989 27.392 31.6874 26.4638C32.0069 25.8567 32.4075 25.5649 32.8721 25.2264C33.0769 25.0771 33.2942 24.9188 33.5225 24.7204C33.6694 24.5928 33.797 24.4762 33.9169 24.3668C34.2518 24.061 34.526 23.8107 34.9906 23.5276C35.2982 23.3402 35.5634 23.2459 35.8304 23.1511C36.0865 23.0601 36.3441 22.9685 36.6421 22.7936C37.1757 22.4805 37.4817 22.2177 37.888 21.8685C37.9854 21.7849 38.0885 21.6962 38.202 21.6008C38.9583 20.9643 40.0371 19.8575 40.0371 19.8575L42.2392 17.5636C42.2392 17.5636 43.3824 16.0284 44.2577 15.178C44.3914 15.0482 44.5112 14.9269 44.6243 14.8125C45.0513 14.3803 45.3824 14.0453 46.0011 13.7099C46.1519 13.6282 46.293 13.542 46.4291 13.4588C46.9492 13.1411 47.3948 12.8688 48.0197 13.0677L50.0383 13.7099C50.0383 13.7099 50.9393 14.0294 51.5063 14.2605C52.1813 14.5354 52.5962 14.7339 53.1768 15.0118C53.2861 15.064 53.4011 15.1191 53.5249 15.178C53.7744 15.2967 53.9954 15.3956 54.2029 15.4883C54.7174 15.7184 55.1489 15.9114 55.727 16.2791C57.0755 17.1366 57.7098 17.8227 58.7549 19.0317C58.7824 19.0634 58.8095 19.0947 58.8362 19.1256C58.8583 19.1511 58.8802 19.1764 58.9018 19.2014C59.622 20.0325 60.0812 20.5625 60.59 21.6008C61.1488 22.7411 61.36 23.4591 61.5076 24.7204V25.8215C61.5076 25.8215 61.0248 26.511 60.59 26.4638C60.3444 26.4371 60.2292 26.2804 60.1003 26.1051C60.0305 26.0101 59.9567 25.9096 59.856 25.8215C59.856 25.8215 59.4086 25.43 59.1219 25.1792C58.9786 25.43 58.8466 25.7297 58.7549 25.8215C58.6632 25.9132 58.1685 25.8215 58.1685 25.8215C58.1685 25.8215 59.1219 26.9557 59.1219 27.5648V29.1247L58.0209 30.2257C58.0209 30.2257 57.1702 30.3378 56.6446 30.2257C55.8272 30.0514 54.8095 29.1247 54.8095 29.1247L52.9744 27.5648L51.5063 25.8215L50.3135 25.1792H48.0197H47.0104L46.6434 25.8215C46.6434 25.8215 46.4627 26.6737 46.2763 27.1978C46.0508 27.8321 45.8762 28.173 45.5423 28.7576C45.3747 29.0512 45.2739 29.2123 45.0835 29.4917C45.1797 29.5771 45.2472 29.6188 45.286 29.6427C45.3123 29.659 45.3254 29.6671 45.3254 29.6752C45.3254 29.6833 45.3123 29.6914 45.286 29.7076C45.2472 29.7316 45.1797 29.7732 45.0835 29.8587L44.2577 30.5927C44.0802 30.7505 44.2935 31.0057 44.5513 31.3141C44.7619 31.5661 45.0022 31.8535 45.0835 32.1525C45.2999 32.9478 45.2999 33.4676 45.0835 34.2629L47.0104 35.731L49.2125 37.566L50.3135 38.8506L52.3321 40.3646L52.6991 41.4197L53.5249 43.0713C53.5249 43.0713 54.0291 43.8835 54.259 44.4476C54.4678 44.9603 54.5259 45.3771 54.5863 45.8105C54.6341 46.1531 54.6833 46.5061 54.8095 46.925C55.0975 47.8807 55.727 49.3106 55.727 49.3106C55.727 49.3106 54.4015 50.9463 53.5249 51.9715C53.3581 52.1666 53.2078 52.344 53.0664 52.5109L53.0659 52.5115C52.5503 53.12 52.1533 53.5886 51.5063 54.2653C51.0706 54.7211 50.7082 55.0512 50.3442 55.3829C49.9912 55.7044 49.6367 56.0273 49.2125 56.4674C48.8558 56.8374 48.6006 57.1847 48.3569 57.5164C47.9868 58.0201 47.6431 58.4879 47.0104 58.9448C46.3268 59.4384 45.8749 59.6258 45.101 59.9469L45.0835 59.9541C44.8355 60.057 44.6034 60.0923 44.3827 60.1259C44.0447 60.1773 43.7333 60.2246 43.432 60.5046C43.1363 60.7793 43.0376 61.0453 42.9162 61.3724C42.8784 61.4741 42.8384 61.5818 42.7897 61.6974C42.5186 62.3404 42.4449 62.8151 42.3556 63.3898C42.3225 63.6027 42.2873 63.8292 42.2392 64.083L42.213 64.2206C42.0465 65.0977 41.9448 65.6329 41.8721 66.5604C41.8381 66.9949 41.9152 67.3777 41.9884 67.7408C42.1018 68.303 42.2056 68.818 41.8721 69.4048C41.6527 69.791 41.4437 69.9741 41.1291 70.2497C41.1023 70.2732 41.0748 70.2973 41.0463 70.3223C40.6914 70.6348 40.3996 70.7908 40.0571 70.974C39.9099 71.0528 39.7533 71.1365 39.5783 71.2399C39.3405 71.3803 39.1324 71.5111 38.9369 71.634C38.3833 71.9821 37.9309 72.2665 37.1927 72.5244C37.0667 72.5684 36.9484 72.6116 36.8353 72.6529C36.2033 72.8837 35.7321 73.0557 34.9906 72.9832C34.5697 72.942 34.2948 72.8299 33.9711 72.6978C33.835 72.6423 33.6903 72.5832 33.5225 72.5244C33.4059 72.4836 33.2972 72.4462 33.194 72.4107C32.6522 72.2242 32.2624 72.09 31.6874 71.7904C31.2821 71.5792 31.0112 71.3884 30.7133 71.1786C30.5383 71.0553 30.354 70.9255 30.1276 70.7811C29.2726 70.2358 28.7908 69.9337 27.9255 69.4048Z" fill="#ECCCC0"/>
<path d="M55.727 49.3106L57.6539 47.3838L60.223 45.0899L62.3333 42.7043L63.7097 40.6857C63.7097 40.6857 64.4717 39.344 64.6272 38.3918C64.7427 37.6846 64.5117 37.264 64.6272 36.5568C64.7827 35.6045 65.5447 34.2629 65.5447 34.2629L66.6458 31.0515C66.6458 31.0515 67.011 29.7826 66.6458 29.1247C66.3742 28.6353 66.062 28.4209 65.5447 28.2071C64.8824 27.9334 64.3881 27.9762 63.7097 28.2071C63.4252 28.3039 63.2902 28.4168 63.0215 28.5512C62.9319 28.596 62.882 28.6217 62.7921 28.6659C62.4035 28.8568 62.1603 28.9126 61.7828 29.1247C61.4449 29.3145 60.957 29.6752 60.957 29.6752L59.856 30.6845L58.9384 31.7855L58.8287 31.8314C58.2504 32.261 57.9666 32.6046 57.6539 33.2536C57.4283 33.7217 57.4012 34.1002 57.371 34.5234C57.3546 34.7527 57.3372 34.9952 57.2869 35.2722C57.0996 35.4264 56.9356 35.5574 56.7811 35.6801L56.7156 35.7322L56.7155 35.7323L56.7153 35.7324C56.3946 35.9871 56.1079 36.2148 55.727 36.5568C55.4305 36.823 55.2153 37.0434 54.9978 37.2661C54.7953 37.4734 54.5908 37.6828 54.3169 37.9331C54.1155 38.1171 53.9599 38.3134 53.8127 38.499C53.5125 38.8777 53.2472 39.2122 52.6991 39.3094C52.5809 39.3303 52.4724 39.3025 52.3696 39.2762C52.2271 39.2397 52.0957 39.206 51.9651 39.3094C51.623 39.5801 52.3321 40.3646 52.3321 40.3646L52.6991 41.4197L53.5249 43.0713C53.5249 43.0713 54.0291 43.8835 54.259 44.4476C54.4678 44.9603 54.5259 45.3771 54.5863 45.8105C54.6341 46.1531 54.6833 46.5061 54.8095 46.925C55.0975 47.8807 55.727 49.3106 55.727 49.3106Z" fill="#ECCCC0"/>
<path d="M42.2392 64.083C42.2303 64.1299 42.2216 64.1757 42.213 64.2206M42.2392 64.083C42.2873 63.8292 42.3225 63.6027 42.3556 63.3898C42.4449 62.8151 42.5186 62.3404 42.7897 61.6974C42.8384 61.5818 42.8784 61.4741 42.9162 61.3724C43.0376 61.0453 43.1363 60.7793 43.432 60.5046C43.7333 60.2246 44.0447 60.1773 44.3827 60.1259C44.6034 60.0923 44.8355 60.057 45.0835 59.9541M42.2392 64.083L42.213 64.2206M45.0835 59.9541L45.101 59.9469M45.0835 59.9541C45.0894 59.9517 45.0952 59.9493 45.101 59.9469M55.727 49.3106C55.727 49.3106 54.4015 50.9463 53.5249 51.9715C53.3581 52.1666 53.2078 52.344 53.0664 52.5109L53.0659 52.5115C52.5503 53.12 52.1533 53.5886 51.5063 54.2653C51.0706 54.7211 50.7082 55.0512 50.3442 55.3829C49.9912 55.7044 49.6367 56.0273 49.2125 56.4674C48.8558 56.8374 48.6006 57.1847 48.3569 57.5164C47.9868 58.0201 47.6431 58.4879 47.0104 58.9448C46.3268 59.4384 45.8749 59.6258 45.101 59.9469M55.727 49.3106L57.6539 47.3838L60.223 45.0899L62.3333 42.7043L63.7097 40.6857C63.7097 40.6857 64.4717 39.344 64.6272 38.3918C64.7427 37.6846 64.5117 37.264 64.6272 36.5568C64.7827 35.6045 65.5447 34.2629 65.5447 34.2629L66.6458 31.0515C66.6458 31.0515 67.011 29.7826 66.6458 29.1247C66.3742 28.6353 66.062 28.4209 65.5447 28.2071C64.8824 27.9334 64.3881 27.9762 63.7097 28.2071C63.4252 28.3039 63.2902 28.4168 63.0215 28.5512C62.9319 28.596 62.882 28.6217 62.7921 28.6659C62.4035 28.8568 62.1603 28.9126 61.7828 29.1247C61.4449 29.3145 60.957 29.6752 60.957 29.6752L59.856 30.6845L58.9384 31.7855L58.8287 31.8314C58.2504 32.261 57.9666 32.6046 57.6539 33.2536C57.4283 33.7217 57.4012 34.1002 57.371 34.5234C57.3546 34.7527 57.3372 34.9952 57.2869 35.2722M55.727 49.3106C55.727 49.3106 55.0975 47.8807 54.8095 46.925C54.6833 46.5061 54.6341 46.1531 54.5863 45.8105C54.5259 45.3771 54.4678 44.9603 54.259 44.4476C54.0291 43.8835 53.5249 43.0713 53.5249 43.0713L52.6991 41.4197M61.5076 24.7204C61.36 23.4591 61.1488 22.7411 60.59 21.6008C60.0812 20.5625 59.622 20.0325 58.9018 19.2014C58.8802 19.1764 58.8583 19.1511 58.8362 19.1256C58.8095 19.0947 58.7824 19.0634 58.7549 19.0317C57.7098 17.8227 57.0755 17.1366 55.727 16.2791C55.1489 15.9114 54.7174 15.7184 54.2029 15.4883C53.9954 15.3956 53.7744 15.2967 53.5249 15.178C53.4011 15.1191 53.2861 15.064 53.1768 15.0118C52.5962 14.7339 52.1813 14.5354 51.5063 14.2605C50.9393 14.0294 50.0383 13.7099 50.0383 13.7099M61.5076 24.7204C61.5076 25.1504 61.5076 25.8215 61.5076 25.8215M61.5076 24.7204V25.8215M50.0383 13.7099C49.25 13.4591 48.808 13.3185 48.0197 13.0677M50.0383 13.7099L48.0197 13.0677M48.0197 13.0677C47.3948 12.8688 46.9492 13.1411 46.4291 13.4588C46.293 13.542 46.1519 13.6282 46.0011 13.7099C45.3824 14.0453 45.0513 14.3803 44.6243 14.8125C44.5112 14.9269 44.3914 15.0482 44.2577 15.178C43.3824 16.0284 42.2392 17.5636 42.2392 17.5636L40.0371 19.8575C40.0371 19.8575 38.9583 20.9643 38.202 21.6008C38.0885 21.6962 37.9854 21.7849 37.888 21.8685C37.4817 22.2177 37.1757 22.4805 36.6421 22.7936C36.3441 22.9685 36.0865 23.0601 35.8304 23.1511C35.5634 23.2459 35.2982 23.3402 34.9906 23.5276C34.526 23.8107 34.2518 24.061 33.9169 24.3668C33.797 24.4762 33.6694 24.5928 33.5225 24.7204C33.2942 24.9188 33.0769 25.0771 32.8721 25.2264C32.4075 25.5649 32.0069 25.8567 31.6874 26.4638C31.1989 27.392 31.1014 28.0988 31.3204 29.1247M31.3204 29.1247C32.1804 28.2647 32.625 27.7433 33.5225 26.9225C34.5178 26.0122 35.177 25.6186 36.1834 24.7204C37.2232 23.7924 37.7138 23.1725 38.7525 22.2431C39.6243 21.4629 41.0463 20.3162 41.0463 20.3162L42.2392 18.5729C42.2392 18.5729 43.2687 17.6457 43.8907 17.0131C44.3707 16.5249 44.5068 16.0974 45.0835 15.7285C45.7428 15.3069 46.2282 15.2041 47.0104 15.178C47.8963 15.1485 48.3515 15.5175 49.2125 15.7285C50.1072 15.9478 50.6475 15.9458 51.5063 16.2791C52.1039 16.5109 52.4317 16.672 52.9744 17.0131C53.7707 17.5136 54.8095 18.5729 54.8095 18.5729L56.1858 19.8575C56.1858 19.8575 57.0002 20.6246 57.2869 21.2338C57.5735 21.8429 57.7342 22.1845 58.0209 22.7936C58.0209 22.7936 58.5254 23.5479 58.7549 24.0782C58.935 24.4941 58.9786 24.7492 59.1219 25.1792M31.3204 29.1247C31.3204 29.452 31.3258 29.729 31.3309 29.991C31.3403 30.4744 31.3487 30.9067 31.3204 31.5103C31.2511 32.9886 30.8616 35.2722 30.8616 35.2722L30.1276 38.8506M30.1276 38.8506C30.1276 38.8506 29.8078 41.4002 29.4853 43.6218M30.1276 38.8506C30.1276 38.8506 30.8988 37.8738 31.3204 37.199C32.2129 35.7704 32.4189 34.8098 33.0637 33.2536C33.5502 32.0795 33.5109 31.2549 34.2565 30.2257C34.9726 29.2374 35.7279 29.0155 36.6421 28.2071C37.6679 27.3002 39.2113 25.8215 39.2113 25.8215C39.2113 25.8215 40.9325 24.5273 41.8721 23.5276C42.5352 22.8222 42.6561 22.1798 43.432 21.6008C44.1522 21.0633 44.6639 20.873 45.5423 20.6833C46.488 20.479 47.0522 20.6833 48.0197 20.6833C48.9155 20.6833 49.4191 20.633 50.3135 20.6833C51.2499 20.7359 51.7971 20.7021 52.6991 20.9585C53.3328 21.1387 53.8218 21.108 54.259 21.6008C54.2822 21.627 54.3169 21.6693 54.3169 21.6693M29.4853 43.6218C29.1628 45.8434 28.982 47.089 28.6595 49.3106M29.4853 43.6218L28.6595 49.3106M28.6595 49.3106C28.337 51.5322 27.9255 53.8066 27.9255 53.8066L27.4667 57.6602L27.0997 61.6974C27.0997 61.6974 26.8547 63.4371 26.6409 64.5418C26.566 64.9287 26.4752 65.2434 26.3882 65.5442C26.2566 65.9999 26.1342 66.4238 26.0904 67.0192C26.0801 67.1595 26.0611 67.2855 26.0432 67.4044C25.9973 67.7093 25.9583 67.9679 26.0904 68.3037C26.2875 68.805 26.6966 68.9364 27.1535 69.0832C27.4055 69.1642 27.672 69.2498 27.9255 69.4048C28.7908 69.9337 29.2726 70.2358 30.1276 70.7811C30.354 70.9255 30.5383 71.0553 30.7133 71.1786C31.0112 71.3884 31.2821 71.5792 31.6874 71.7904C32.2624 72.09 32.6522 72.2242 33.194 72.4107C33.2972 72.4462 33.4059 72.4836 33.5225 72.5244C33.6903 72.5832 33.835 72.6423 33.9711 72.6978C34.2948 72.8299 34.5697 72.942 34.9906 72.9832C35.7321 73.0557 36.2033 72.8837 36.8353 72.6529C36.9484 72.6116 37.0667 72.5684 37.1927 72.5244C37.9309 72.2665 38.3833 71.9821 38.9369 71.634C39.1324 71.5111 39.3405 71.3803 39.5783 71.2399C39.7533 71.1365 39.9099 71.0528 40.0571 70.974C40.3996 70.7908 40.6914 70.6348 41.0463 70.3223C41.0748 70.2973 41.1023 70.2732 41.1291 70.2497C41.4437 69.9741 41.6527 69.791 41.8721 69.4048C42.2056 68.818 42.1018 68.303 41.9884 67.7408C41.9152 67.3777 41.8381 66.9949 41.8721 66.5604C41.9448 65.6329 42.0465 65.0977 42.213 64.2206M59.1219 25.1792C58.9786 25.43 58.8466 25.7297 58.7549 25.8215C58.6632 25.9132 58.1685 25.8215 58.1685 25.8215M59.1219 25.1792C59.4086 25.43 59.5693 25.5707 59.856 25.8215M59.1219 25.1792C59.4086 25.43 59.856 25.8215 59.856 25.8215M58.1685 25.8215H58.0209C58.0209 25.8215 57.6032 25.1291 57.2869 24.7204C56.6197 23.8587 56.0023 23.5991 55.2683 22.7936C54.8809 22.3685 54.3169 21.6693 54.3169 21.6693M58.1685 25.8215C58.1685 25.8215 59.1219 26.9557 59.1219 27.5648M59.1219 27.5648C59.1219 28.174 59.1219 28.5155 59.1219 29.1247M59.1219 27.5648V29.1247M59.1219 29.1247L58.0209 30.2257C58.0209 30.2257 57.1702 30.3378 56.6446 30.2257C55.8272 30.0514 54.8095 29.1247 54.8095 29.1247L52.9744 27.5648L51.5063 25.8215L50.3135 25.1792M50.3135 25.1792H48.0197H47.0104M50.3135 25.1792L51.5063 24.0782L51.9651 23.5276M47.0104 25.1792L46.6434 25.8215C46.6434 25.8215 46.4627 26.6737 46.2763 27.1978C46.0508 27.8321 45.8762 28.173 45.5423 28.7576C45.3747 29.0512 45.2739 29.2123 45.0835 29.4917M47.0104 25.1792C47.0104 25.1792 46.5674 24.8923 46.2763 24.7204C45.8208 24.4514 45.0835 24.0782 45.0835 24.0782M45.0835 29.4917C44.6281 29.5895 44.3462 29.5895 43.8907 29.4917C43.2952 29.3637 42.5144 28.7576 42.5144 28.7576M45.0835 29.4917C45.1797 29.5771 45.2472 29.6188 45.286 29.6427C45.3123 29.659 45.3254 29.6671 45.3254 29.6752C45.3254 29.6833 45.3123 29.6914 45.286 29.7076C45.2472 29.7316 45.1797 29.7732 45.0835 29.8587M45.0835 29.8587C44.761 30.1453 44.5802 30.3061 44.2577 30.5927M45.0835 29.8587L44.2577 30.5927M44.2577 30.5927C44.0802 30.7505 44.2935 31.0057 44.5513 31.3141C44.7619 31.5661 45.0022 31.8535 45.0835 32.1525C45.2999 32.9478 45.2999 33.4676 45.0835 34.2629M45.0835 34.2629C44.761 34.8362 44.5445 35.139 44.2577 35.731C44.1039 36.0486 43.8907 36.5568 43.8907 36.5568M45.0835 34.2629C45.836 34.8362 47.0104 35.731 47.0104 35.731M45.0835 34.2629L47.0104 35.731M43.8907 36.5568C43.8907 36.5568 43.4968 36.8977 43.432 37.199C43.3127 37.7529 44.0513 37.8642 44.2577 38.3918C44.5842 39.2261 44.2577 40.6857 44.2577 40.6857V42.7043C44.2577 42.7043 44.2153 44.3828 44.2577 45.4569C44.3174 46.9675 44.5741 47.7997 44.6248 49.3106C44.6524 50.1343 44.6572 50.5974 44.6248 51.4209C44.5708 52.789 44.6806 53.6054 44.2577 54.9076C43.8363 56.2053 42.5144 57.9355 42.5144 57.9355C42.5144 57.9355 41.2841 59.1658 40.4958 59.9541M43.8907 36.5568C43.8907 36.5568 43.0519 36.5568 42.5144 36.5568C41.7261 36.5568 40.4958 36.5568 40.4958 36.5568M40.4958 59.9541C39.4209 60.6349 38.8182 61.0166 37.7432 61.6974C36.6682 62.3782 35.6328 61.6974 35.6328 61.6974L33.5225 61.3304M40.4958 59.9541C40.1375 60.9574 40.2486 61.6951 39.5783 62.5232C39.1452 63.0582 38.8164 63.3141 38.202 63.6243C37.4803 63.9886 36.9894 64.0205 36.1834 64.083C34.9557 64.1783 33.0637 63.6243 33.0637 63.6243M54.3169 21.6693C54.3169 21.6693 53.8342 22.3545 53.5249 22.7936M59.856 25.8215C59.9567 25.9096 60.0305 26.0101 60.1003 26.1051C60.2292 26.2804 60.3444 26.4371 60.59 26.4638C61.0248 26.511 61.5076 25.8215 61.5076 25.8215M57.2869 35.2722C57.2008 35.7664 57.2869 36.5568 57.2869 36.5568C57.2869 36.5568 57.6783 37.7659 58.1685 38.3918C58.4872 38.7986 58.7478 38.953 59.1219 39.3094C59.691 39.8514 60.59 40.6857 60.59 40.6857M57.2869 35.2722C57.0996 35.4264 56.9356 35.5574 56.7811 35.6801M52.6991 41.4197L52.3321 40.3646M52.6991 41.4197L50.0383 42.1538L47.5609 42.7043M47.0104 35.731L49.2125 37.566L50.3135 38.8506L52.3321 40.3646M52.3321 40.3646C52.3321 40.3646 51.623 39.5801 51.9651 39.3094C52.0957 39.206 52.2271 39.2397 52.3696 39.2762C52.4724 39.3025 52.5809 39.3303 52.6991 39.3094C53.2472 39.2122 53.5125 38.8777 53.8127 38.499C53.9599 38.3134 54.1155 38.1171 54.3169 37.9331C54.5908 37.6828 54.7953 37.4734 54.9978 37.2661C55.2153 37.0434 55.4305 36.823 55.727 36.5568C56.1079 36.2148 56.3946 35.9871 56.7153 35.7324L56.7155 35.7323L56.7156 35.7322M45.5423 34.2629L46.8268 34.9969M56.7811 35.6801C56.7591 35.6976 56.7373 35.7149 56.7156 35.7322M56.7811 35.6801L56.7156 35.7322" stroke="#725050" stroke-width="0.3"/>
</g>
</g>
<defs>
<filter id="filter0_dd_140_52" x="0" y="0" width="91" height="98" filterUnits="userSpaceOnUse" color-interpolation-filters="sRGB">
<feFlood flood-opacity="0" result="BackgroundImageFix"/>
<feColorMatrix in="SourceAlpha" type="matrix" values="0 0 0 0 0 0 0 0 0 0 0 0 0 0 0 0 0 0 127 0" result="hardAlpha"/>
<feOffset dy="4"/>
<feGaussianBlur stdDeviation="2"/>
<feComposite in2="hardAlpha" operator="out"/>
<feColorMatrix type="matrix" values="0 0 0 0 0 0 0 0 0 0 0 0 0 0 0 0 0 0 0.25 0"/>
<feBlend mode="normal" in2="BackgroundImageFix" result="effect1_dropShadow_140_52"/>
<feColorMatrix in="SourceAlpha" type="matrix" values="0 0 0 0 0 0 0 0 0 0 0 0 0 0 0 0 0 0 127 0" result="hardAlpha"/>
<feOffset dy="4"/>
<feGaussianBlur stdDeviation="2"/>
<feComposite in2="hardAlpha" operator="out"/>
<feColorMatrix type="matrix" values="0 0 0 0 0 0 0 0 0 0 0 0 0 0 0 0 0 0 0.25 0"/>
<feBlend mode="normal" in2="effect1_dropShadow_140_52" result="effect2_dropShadow_140_52"/>
<feBlend mode="normal" in="SourceGraphic" in2="effect2_dropShadow_140_52" result="shape"/>
</filter>
<filter id="filter1_d_140_52" x="0" y="0" width="91" height="98" filterUnits="userSpaceOnUse" color-interpolation-filters="sRGB">
<feFlood flood-opacity="0" result="BackgroundImageFix"/>
<feColorMatrix in="SourceAlpha" type="matrix" values="0 0 0 0 0 0 0 0 0 0 0 0 0 0 0 0 0 0 127 0" result="hardAlpha"/>
<feOffset dy="4"/>
<feGaussianBlur stdDeviation="2"/>
<feComposite in2="hardAlpha" operator="out"/>
<feColorMatrix type="matrix" values="0 0 0 0 0 0 0 0 0 0 0 0 0 0 0 0 0 0 0.25 0"/>
<feBlend mode="normal" in2="BackgroundImageFix" result="effect1_dropShadow_140_52"/>
<feBlend mode="normal" in="SourceGraphic" in2="effect1_dropShadow_140_52" result="shape"/>
</filter>
<filter id="filter2_dd_140_52" x="21.85" y="12.8501" width="49.1082" height="68.2998" filterUnits="userSpaceOnUse" color-interpolation-filters="sRGB">
<feFlood flood-opacity="0" result="BackgroundImageFix"/>
<feColorMatrix in="SourceAlpha" type="matrix" values="0 0 0 0 0 0 0 0 0 0 0 0 0 0 0 0 0 0 127 0" result="hardAlpha"/>
<feOffset dy="4"/>
<feGaussianBlur stdDeviation="2"/>
<feComposite in2="hardAlpha" operator="out"/>
<feColorMatrix type="matrix" values="0 0 0 0 0 0 0 0 0 0 0 0 0 0 0 0 0 0 0.25 0"/>
<feBlend mode="normal" in2="BackgroundImageFix" result="effect1_dropShadow_140_52"/>
<feColorMatrix in="SourceAlpha" type="matrix" values="0 0 0 0 0 0 0 0 0 0 0 0 0 0 0 0 0 0 127 0" result="hardAlpha"/>
<feOffset dy="4"/>
<feGaussianBlur stdDeviation="2"/>
<feComposite in2="hardAlpha" operator="out"/>
<feColorMatrix type="matrix" values="0 0 0 0 0 0 0 0 0 0 0 0 0 0 0 0 0 0 0.25 0"/>
<feBlend mode="normal" in2="effect1_dropShadow_140_52" result="effect2_dropShadow_140_52"/>
<feBlend mode="normal" in="SourceGraphic" in2="effect2_dropShadow_140_52" result="shape"/>
</filter>
</defs>
</svg>
