<svg width="91" height="98" viewBox="0 0 91 98" fill="none" xmlns="http://www.w3.org/2000/svg">
<g filter="url(#filter0_d_140_65)">
<ellipse cx="45.5" cy="45" rx="41.5" ry="45" fill="#D9D9D9"/>
<g filter="url(#filter1_d_140_65)">
<path d="M58.9627 9.72251C59.3188 10.057 59.4106 10.3432 59.5834 10.791C59.5834 10.791 60.1611 15.048 59.9559 17.7957C59.5834 22.7821 59.5684 25.396 58.9627 30.2616C58.3563 35.1327 57.9489 37.8558 57.3487 42.7276C56.2248 51.85 60.4525 56.1433 54.7415 66.116C53.355 68.5373 53.9244 70.7227 54.1208 73.4769C54.2749 75.6387 54.5141 78.2274 54.7415 80.5196L44.6852 81H34.1323C33.7605 79.113 33.3231 77.0509 32.8908 75.3764C31.6998 70.7631 30.1648 69.3462 29.1662 64.6914C27.6437 57.5943 28.0489 45.2208 28.0489 45.2208V43.2025V40.9467C28.0489 40.2049 27.9555 39.7836 28.0489 39.0471C28.1084 38.5778 28.1465 38.3102 28.2972 37.8599C28.4427 37.425 28.5137 37.1613 28.7938 36.7914C29.0961 36.3922 29.3231 36.175 29.787 35.9603C30.1894 35.7742 30.4605 35.7736 30.9044 35.7229C31.4339 35.6623 31.7367 35.7229 32.27 35.7229C32.7064 35.7229 33.0087 35.9301 33.3874 35.7229C33.88 35.4534 33.6362 34.9052 33.884 34.4169C34.16 33.8731 34.3125 33.5445 34.7531 33.111C35.091 32.7785 35.3248 32.6278 35.7463 32.3986C36.2003 32.1519 36.4784 32.0336 36.9878 31.9238L37.0222 31.9163C37.7129 31.7672 38.1879 31.6647 38.8501 31.9238C39.2988 32.0993 39.5077 32.3014 39.8433 32.6361C40.2063 32.9981 40.3492 33.2582 40.5882 33.7046C40.8468 34.1877 40.8303 34.5255 41.0848 35.0106L41.209 35.8416L41.4573 36.554L42.3263 36.6727V36.1978V35.6042V35.0106V34.4169V33.111V31.6863L41.9539 9.1289C41.9539 9.1289 41.9062 7.93249 42.3263 7.34805C42.5206 7.07789 42.6823 6.96269 42.9471 6.75443C43.3004 6.47658 43.9403 6.16082 43.9403 6.16082C43.9403 6.16082 44.6852 5.91353 45.306 6.03225C45.9267 6.15096 46.1383 6.45025 46.6716 6.6357C46.6716 6.6357 47.1667 6.91697 47.4166 7.34805C47.7761 7.96838 47.7121 8.42349 47.789 9.1289L48.9064 33.111C48.982 33.5449 48.8561 34.0062 49.2788 34.1795C49.5017 34.2708 49.667 34.2449 49.8996 34.1795C50.2943 34.0685 50.4069 33.7883 50.6445 33.4672L54.4932 10.4349C54.6963 10.0138 54.8435 9.7545 55.2381 9.48507C55.5752 9.25487 55.8262 9.21143 56.2313 9.1289C56.8004 9.01298 57.156 8.99655 57.7212 9.1289C58.2477 9.2522 58.576 9.35928 58.9627 9.72251Z" fill="#ECCCC0"/>
<path d="M28.4213 41.8965C28.4213 41.8965 28.6557 42.4001 28.7938 42.7276C28.7938 42.7276 31.1323 47.6945 33.884 50.3258C34.5048 50.9195 35.2201 51.0403 35.9946 50.5633C36.7238 50.1142 37.2361 49.0199 37.2361 49.0199L37.1226 48.1888M34.5048 35.7229C34.1362 35.7022 33.8742 35.8095 33.6357 36.0791C33.4376 36.3029 33.4308 36.5011 33.3874 36.7914C33.3531 37.0209 33.3655 37.1542 33.3874 37.385C33.4429 37.9691 33.6445 38.2698 33.884 38.8097L41.4573 44.3897L42.3263 45.3166M34.5048 35.7229C34.9896 35.8156 35.2575 35.889 35.7463 35.9603C36.0361 36.0027 36.2003 36.0146 36.4912 36.0494M34.5048 35.7229C34.4563 35.862 34.4376 35.9429 34.3806 36.0791C34.3001 36.2716 34.2654 36.3903 34.1323 36.554V36.7914L34.2565 37.0289C34.4433 37.1341 34.5518 37.1893 34.7531 37.2663C34.8954 37.3208 34.9727 37.3738 35.1255 37.385C35.3248 37.3997 35.6221 37.2663 35.6221 37.2663C35.6221 37.2663 35.8652 37.2263 35.9946 37.1476C36.1103 37.0772 36.1693 37.0208 36.2429 36.9101C36.3252 36.7864 36.3186 36.6931 36.367 36.554C36.4155 36.4149 36.4773 36.3438 36.4912 36.1978C36.4967 36.1401 36.4912 36.1073 36.4912 36.0494M36.4912 36.0494C36.5884 36.0588 36.6428 36.0653 36.7395 36.0791C37.1349 36.1355 37.3437 36.2284 37.7327 36.3165C38.1677 36.415 38.407 36.4977 38.8501 36.554C39.523 36.6393 39.9208 36.6723 40.5882 36.554H41.4573M41.8297 37.8599C41.8297 37.8599 41.9417 37.4263 42.2022 37.1476C42.4091 36.9262 42.3322 36.9565 42.5746 36.9101M42.9471 38.2161C42.9471 38.2161 43.3612 37.7988 43.692 37.6225C43.9201 37.5009 44.0589 37.4435 44.3128 37.385M44.3128 37.385C44.4794 37.3466 44.6852 37.385 44.6852 37.385L45.1818 37.6225C45.1818 37.6225 51.4534 41.1186 53.7483 44.7459C56.2831 48.7524 56.2313 56.4995 56.2313 56.4995M44.3128 37.385L43.692 37.1476L43.0712 36.9101L42.3263 36.6727M41.4573 36.554L42.3263 36.6727M41.4573 36.554L41.209 35.8416L41.0848 35.0106C40.8303 34.5255 40.8468 34.1877 40.5882 33.7046C40.3492 33.2582 40.2063 32.9981 39.8433 32.6361C39.5077 32.3014 39.2988 32.0993 38.8501 31.9238C38.177 31.6604 37.6972 31.7707 36.9878 31.9238C36.4784 32.0336 36.2003 32.1519 35.7463 32.3986C35.3248 32.6278 35.091 32.7785 34.7531 33.111C34.3125 33.5445 34.16 33.8731 33.884 34.4169C33.6362 34.9052 33.88 35.4534 33.3874 35.7229C33.0087 35.9301 32.7064 35.7229 32.27 35.7229C31.7367 35.7229 31.4339 35.6623 30.9044 35.7229C30.4605 35.7736 30.1894 35.7742 29.787 35.9603C29.3231 36.175 29.0961 36.3922 28.7938 36.7914C28.5137 37.1613 28.4427 37.425 28.2972 37.8599C28.1465 38.3102 28.1084 38.5778 28.0489 39.0471C27.9555 39.7836 28.0489 40.2049 28.0489 40.9467C28.0489 41.8276 28.0489 43.2025 28.0489 43.2025V45.2208C28.0489 45.2208 27.6437 57.5943 29.1662 64.6914C30.1648 69.3462 31.6998 70.7631 32.8908 75.3764M42.3263 36.6727V36.1978V35.6042V35.0106V34.4169C42.3263 33.9069 42.3263 33.621 42.3263 33.111C42.3263 32.5546 42.3263 31.6863 42.3263 31.6863L41.9539 9.1289C41.9539 9.1289 41.9062 7.93249 42.3263 7.34805C42.5206 7.07789 42.6823 6.96269 42.9471 6.75443C43.3004 6.47658 43.9403 6.16082 43.9403 6.16082C43.9403 6.16082 44.6852 5.91353 45.306 6.03225C45.9267 6.15096 46.1383 6.45025 46.6716 6.6357C46.6716 6.6357 47.1667 6.91697 47.4166 7.34805C47.7761 7.96838 47.7121 8.42348 47.789 9.1289L48.9064 33.111C48.982 33.5449 48.8561 34.0062 49.2788 34.1795C49.5017 34.2708 49.667 34.2449 49.8996 34.1795C50.2943 34.0685 50.4069 33.7883 50.6445 33.4672L54.4932 10.4349C54.6963 10.0138 54.8435 9.7545 55.2381 9.48507C55.5752 9.25487 55.8262 9.21143 56.2313 9.1289C56.8004 9.01298 57.156 8.99655 57.7212 9.1289C58.2477 9.2522 58.576 9.35928 58.9627 9.72251C59.3188 10.057 59.4106 10.3432 59.5834 10.791C59.5834 10.791 60.1611 15.048 59.9559 17.7957C59.5834 22.7821 59.5684 25.396 58.9627 30.2616C58.3563 35.1327 57.9489 37.8558 57.3487 42.7276C56.2248 51.85 60.4525 56.1433 54.7415 66.116C53.355 68.5373 53.9244 70.7227 54.1208 73.4769M54.1208 73.4769C54.2749 75.6387 54.5141 78.2274 54.7415 80.5196L44.6852 81H34.1323C33.7605 79.113 33.3231 77.0509 32.8908 75.3764M54.1208 73.4769C54.1208 73.4769 47.2218 71.2328 44.3128 68.1343C41.662 65.311 39.8433 58.7552 39.8433 58.7552M32.8908 75.3764C32.8908 75.3764 37.4961 74.8911 38.8501 73.3581C40.1968 71.8334 39.7191 67.6594 39.7191 67.6594M41.209 53.8875C41.209 53.8875 45.8026 49.7322 43.8162 47.239C41.8297 44.7459 42.3263 45.3166 42.3263 45.3166M35.1255 40.7093C35.1255 40.8432 36.1535 44.6417 37.1226 48.1888M42.3263 45.3166C42.3263 45.3166 43.0712 47.5952 43.0712 48.9012C43.0712 50.0884 43.4088 49.8028 42.5746 50.5633C41.4034 51.6311 38.8501 51.8692 38.4776 51.2756C38.1052 50.682 37.5284 49.6743 37.1226 48.1888M54.6174 23.9693C54.6174 23.9693 55.1668 24.457 55.6106 24.5629C56.1829 24.6995 57.1004 24.3255 57.1004 24.3255M55.114 17.3208C55.114 17.3208 55.5422 17.9625 55.983 18.0331C56.454 18.1086 57.1004 17.5582 57.1004 17.5582M43.692 23.7318C43.692 23.7318 43.9938 24.1033 44.5611 24.088C45.1283 24.0727 45.306 23.7318 45.306 23.7318M43.5679 16.9646C43.5679 16.9646 43.9435 17.318 44.3128 17.3208C44.7464 17.324 45.1818 16.9646 45.1818 16.9646M34.1323 49.851L36.4912 48.7824C36.4912 48.7824 36.3811 47.6068 35.8704 47.1203C35.4554 46.7249 35.0825 46.4339 34.5048 46.5267C33.8615 46.63 33.5829 47.1188 33.3874 47.7139C33.1117 48.5532 34.1323 49.851 34.1323 49.851ZM38.9742 51.1569L42.5746 49.9697C42.5746 49.9697 42.5568 48.2689 41.8297 47.5952C41.2347 47.0439 40.6474 46.6918 39.8433 46.8829C39.1113 47.0568 38.7953 47.5346 38.4776 48.1888C37.9607 49.2535 38.9742 51.1569 38.9742 51.1569Z" stroke="#725050" stroke-width="0.3"/>
</g>
</g>
<defs>
<filter id="filter0_d_140_65" x="0" y="0" width="91" height="98" filterUnits="userSpaceOnUse" color-interpolation-filters="sRGB">
<feFlood flood-opacity="0" result="BackgroundImageFix"/>
<feColorMatrix in="SourceAlpha" type="matrix" values="0 0 0 0 0 0 0 0 0 0 0 0 0 0 0 0 0 0 127 0" result="hardAlpha"/>
<feOffset dy="4"/>
<feGaussianBlur stdDeviation="2"/>
<feComposite in2="hardAlpha" operator="out"/>
<feColorMatrix type="matrix" values="0 0 0 0 0 0 0 0 0 0 0 0 0 0 0 0 0 0 0.25 0"/>
<feBlend mode="normal" in2="BackgroundImageFix" result="effect1_dropShadow_140_65"/>
<feBlend mode="normal" in="SourceGraphic" in2="effect1_dropShadow_140_65" result="shape"/>
</filter>
<filter id="filter1_d_140_65" x="22.6501" y="5.8501" width="42.6998" height="85.7" filterUnits="userSpaceOnUse" color-interpolation-filters="sRGB">
<feFlood flood-opacity="0" result="BackgroundImageFix"/>
<feColorMatrix in="SourceAlpha" type="matrix" values="0 0 0 0 0 0 0 0 0 0 0 0 0 0 0 0 0 0 127 0" result="hardAlpha"/>
<feOffset dy="5.2"/>
<feGaussianBlur stdDeviation="2.6"/>
<feComposite in2="hardAlpha" operator="out"/>
<feColorMatrix type="matrix" values="0 0 0 0 0 0 0 0 0 0 0 0 0 0 0 0 0 0 0.25 0"/>
<feBlend mode="normal" in2="BackgroundImageFix" result="effect1_dropShadow_140_65"/>
<feBlend mode="normal" in="SourceGraphic" in2="effect1_dropShadow_140_65" result="shape"/>
</filter>
</defs>
</svg>
