<svg width="91" height="98" viewBox="0 0 91 98" fill="none" xmlns="http://www.w3.org/2000/svg">
<g filter="url(#filter0_dd_140_60)">
<g filter="url(#filter1_d_140_60)">
<ellipse cx="45.5" cy="45" rx="41.5" ry="45" fill="#D9D9D9"/>
</g>
<g filter="url(#filter2_ddd_140_60)">
<path d="M38.0568 77.2294C37.3143 76.8845 36.6969 76.9282 36.1818 76.2919C35.7447 75.752 35.7813 75.2799 35.6193 74.6044C35.4213 73.7787 35.4418 73.291 35.3381 72.4482C35.2615 71.8262 35.2407 71.4746 35.1506 70.8544C35.0328 70.0443 34.9505 69.5917 34.7756 68.7919L32.9943 67.1982L32.0568 65.3232L31.1193 63.0732L30.0881 60.4482L29.5256 57.5419L28.6818 54.5419L27.6506 51.1669L27.1527 49.1044L26.9943 48.4482L26.0568 44.9794L25.1193 43.5732L23.4318 41.6044L22.2131 39.8232L20.0568 37.3857C20.0568 37.3857 19.045 36.4935 18.5568 35.7919C18.1545 35.2139 18.0436 34.8201 17.7131 34.1982C17.421 33.6486 17.1822 33.3745 16.9631 32.7919C16.9623 32.79 16.9616 32.7881 16.9609 32.7862L16.4006 31.2919C16.4006 31.2919 16.0933 30.3919 16.0256 29.7919C15.9681 29.2826 16.0256 28.4794 16.0256 28.4794C16.0256 28.4794 16.1857 27.5574 16.5881 26.9794C16.9905 26.4015 18.1818 26.1357 18.1818 26.1357C18.1818 26.1357 19.3913 25.8304 20.0568 26.1357C20.7173 26.4387 21.2756 27.5419 21.2756 27.5419L23.0568 29.7919L24.5568 31.5647L25.1193 32.2294L26.9943 34.1982L28.6818 36.5419L30.8381 38.6982C30.8381 38.6982 31.0131 38.2998 31.1193 38.0419C31.3576 37.4635 31.3142 37.0482 31.6818 36.5419C32.2315 35.7849 32.8424 35.572 33.7443 35.3232C34.6619 35.07 35.249 35.1337 36.1818 35.3232C36.7491 35.4384 37.0389 35.6089 37.5881 35.7919C37.6199 35.144 37.7328 34.7602 38.0568 34.1982C38.4578 33.5025 38.8581 33.1876 39.5568 32.7919C40.2526 32.3979 40.7344 32.3456 41.5256 32.2294C42.3949 32.1018 42.9111 32.0723 43.7756 32.2294C44.459 32.3537 44.8417 33.1026 45.4631 32.7919C46.0844 32.4813 45.8059 31.7634 46.0256 31.1044C46.3497 30.5719 46.6654 30.3047 47.2443 30.0732C47.9242 29.8012 48.3871 30.0732 49.1193 30.0732C49.998 30.0732 50.5138 29.8729 51.3693 30.0732C52.0715 30.2376 52.4748 30.3973 53.0568 30.8232C53.8368 31.394 54.5568 32.7919 54.5568 32.7919L55.8693 34.4794L57.0881 36.1669L58.3068 38.6982L59.1506 41.6044L59.7131 43.5732C59.7131 43.5732 60.569 42.3252 61.2131 41.6044C61.8861 40.8514 62.4355 40.5941 63.0881 39.8232C63.4429 39.404 63.9318 38.6982 63.9318 38.6982C63.9318 38.6982 64.6405 37.9171 65.0568 37.3857C65.5266 36.7859 66.1818 35.7919 66.1818 35.7919C66.1818 35.7919 67.2141 34.9969 67.8693 34.4794C68.4212 34.0435 68.6667 33.7064 69.2756 33.3544C69.7584 33.0754 70.0729 33.0055 70.5881 32.7919C71.1344 32.5654 71.9943 32.2294 71.9943 32.2294H73.6818C74.3774 32.2294 74.7971 32.0286 75.4631 32.2294C76.1925 32.4494 76.7319 32.6654 77.0568 33.3544C77.3379 33.9505 77.4044 34.482 77.0568 35.0419C76.7621 35.5168 76.341 35.5482 75.8381 35.7919C75.4832 35.9639 75.2519 35.9879 74.9006 36.1669C74.2025 36.5228 73.3068 37.3857 73.3068 37.3857L72.2756 38.6982L71.2443 40.3857L70.5881 42.2607L69.7443 44.0419L68.3381 46.4794L66.9318 49.1044L66.1818 51.1669C66.1818 51.1669 66.0117 52.7647 65.6193 53.6982C65.2494 54.5783 64.8335 54.9644 64.3068 55.7607C63.8418 56.4637 63.5869 56.8625 63.0881 57.5419C62.5635 58.2563 62.2113 58.6124 61.6818 59.3232C61.069 60.1458 60.8293 60.6838 60.1818 61.4794C59.5117 62.303 59.0735 62.7137 58.3068 63.4482C57.501 64.2201 56.1506 65.3232 56.1506 65.3232C56.1506 65.3232 55.6273 65.7713 55.4943 66.1669C55.366 66.5487 55.4943 66.7955 55.4943 67.1982V69.8232C55.4943 70.8117 55.7755 71.4068 55.4943 72.3544C55.2799 73.0772 54.979 73.4174 54.5568 74.0419C54.0475 74.7953 53.0568 75.8232 53.0568 75.8232C53.0568 75.8232 52.0758 76.7428 51.3693 77.2294C50.5463 77.7963 50.0818 78.1795 49.1193 78.4482C47.9556 78.773 47.2337 78.4482 46.0256 78.4482H42.7443C42.2684 78.4482 41.999 78.4974 41.5256 78.4482C40.7302 78.3655 40.3072 78.162 39.5568 77.8857C38.9568 77.6647 38.6367 77.4988 38.0568 77.2294Z" fill="#ECCCC0"/>
<path d="M56.1506 65.3232C56.1506 65.3232 55.6273 65.7713 55.4943 66.1669C55.366 66.5487 55.4943 66.7955 55.4943 67.1982C55.4943 68.2233 55.4943 68.7981 55.4943 69.8232C55.4943 70.8117 55.7755 71.4068 55.4943 72.3544C55.2799 73.0772 54.979 73.4174 54.5568 74.0419C54.0475 74.7953 53.0568 75.8232 53.0568 75.8232C53.0568 75.8232 52.0758 76.7428 51.3693 77.2294C50.5463 77.7963 50.0818 78.1795 49.1193 78.4482C47.9556 78.773 47.2337 78.4482 46.0256 78.4482C44.7442 78.4482 44.0257 78.4482 42.7443 78.4482C42.2684 78.4482 41.999 78.4974 41.5256 78.4482C40.7302 78.3655 40.3072 78.162 39.5568 77.8857C38.9568 77.6647 38.6367 77.4988 38.0568 77.2294C37.3143 76.8845 36.6969 76.9282 36.1818 76.2919C35.7447 75.752 35.7813 75.2799 35.6193 74.6044C35.4213 73.7787 35.4418 73.291 35.3381 72.4482C35.2615 71.8262 35.2407 71.4746 35.1506 70.8544C35.0328 70.0443 34.9505 69.5917 34.7756 68.7919M56.1506 65.3232C56.1506 65.3232 57.501 64.2201 58.3068 63.4482C59.0735 62.7137 59.5117 62.303 60.1818 61.4794C60.8293 60.6838 61.069 60.1458 61.6818 59.3232C62.2113 58.6124 62.5635 58.2563 63.0881 57.5419C63.5869 56.8625 63.8418 56.4637 64.3068 55.7607C64.8335 54.9644 65.2494 54.5783 65.6193 53.6982C66.0117 52.7647 66.1818 51.1669 66.1818 51.1669L66.9318 49.1044L68.3381 46.4794L69.7443 44.0419L70.5881 42.2607L71.2443 40.3857L72.2756 38.6982L73.3068 37.3857C73.3068 37.3857 74.2025 36.5228 74.9006 36.1669C75.2519 35.9879 75.4832 35.9639 75.8381 35.7919C76.341 35.5482 76.7621 35.5168 77.0568 35.0419C77.4044 34.482 77.3379 33.9505 77.0568 33.3544C76.7319 32.6654 76.1925 32.4494 75.4631 32.2294C74.7971 32.0286 74.3774 32.2294 73.6818 32.2294C73.0228 32.2294 71.9943 32.2294 71.9943 32.2294C71.9943 32.2294 71.1344 32.5654 70.5881 32.7919C70.0729 33.0055 69.7584 33.0754 69.2756 33.3544C68.6667 33.7064 68.4212 34.0435 67.8693 34.4794C67.2141 34.9969 66.1818 35.7919 66.1818 35.7919C66.1818 35.7919 65.5266 36.7859 65.0568 37.3857C64.6405 37.9171 63.9318 38.6982 63.9318 38.6982M56.1506 65.3232C56.1506 65.3232 55.0141 66.1458 54.1818 66.4482C53.5473 66.6787 53.1533 66.6767 52.4943 66.8232C51.8353 66.9696 50.8068 67.1982 50.8068 67.1982C50.8068 67.1982 49.4234 67.3435 48.5568 67.1982C47.6775 67.0508 47.2124 66.8168 46.4006 66.4482C45.8338 66.1909 45.4585 66.1128 44.9943 65.6982C44.502 65.2585 44.3695 64.8732 44.0568 64.2919C43.6832 63.5974 43.553 63.1662 43.3068 62.4169C43.0241 61.5565 42.775 61.0721 42.7443 60.1669C42.7088 59.1191 42.9659 58.5334 43.3068 57.5419C43.637 56.5819 44.4318 55.1982 44.4318 55.1982M63.9318 38.6982C63.9318 38.6982 63.4429 39.404 63.0881 39.8232C62.4355 40.5941 61.8861 40.8514 61.2131 41.6044C60.569 42.3252 59.7131 43.5732 59.7131 43.5732M63.9318 38.6982L64.3068 39.8232L65.0568 41.0419L66.1818 41.9794M59.7131 43.5732L59.1506 41.6044L58.3068 38.6982L57.0881 36.1669L55.8693 34.4794L54.5568 32.7919M59.7131 43.5732L59.1506 44.9794L58.3068 46.0107L57.5568 46.8544M59.7131 43.5732L60.1818 46.0107C60.1818 46.0107 60.5331 47.2082 60.7443 47.9794C60.9343 48.6732 60.8613 49.1333 61.2131 49.7607C61.5929 50.4381 62.6193 51.1669 62.6193 51.1669M54.5568 32.7919C54.5568 32.7919 53.8368 31.394 53.0568 30.8232C52.4748 30.3973 52.0715 30.2376 51.3693 30.0732C50.5138 29.8729 49.998 30.0732 49.1193 30.0732C48.3871 30.0732 47.9242 29.8012 47.2443 30.0732C46.6654 30.3047 46.3497 30.5719 46.0256 31.1044M54.5568 32.7919C54.5568 32.7919 54.3679 33.6612 54.1818 34.1982C54.0259 34.6479 53.8064 34.8565 53.7131 35.3232C53.6197 35.7899 53.7131 36.5419 53.7131 36.5419C53.7131 36.5419 53.5416 37.8561 53.4318 38.6982M46.0256 31.1044C45.8059 31.7634 46.0844 32.4813 45.4631 32.7919C44.8417 33.1026 44.459 32.3537 43.7756 32.2294C42.9111 32.0723 42.3949 32.1018 41.5256 32.2294C40.7344 32.3456 40.2526 32.3979 39.5568 32.7919C38.8581 33.1876 38.4578 33.5025 38.0568 34.1982C37.7328 34.7602 37.6199 35.144 37.5881 35.7919M46.0256 31.1044C46.0256 31.4339 46.0256 31.9482 46.0256 31.9482V34.4794V36.1669V38.9794V41.6044V43.5732M37.5881 35.7919C37.0389 35.6089 36.7491 35.4384 36.1818 35.3232C35.249 35.1337 34.6619 35.07 33.7443 35.3232C32.8424 35.572 32.2315 35.7849 31.6818 36.5419C31.3142 37.0482 31.3576 37.4635 31.1193 38.0419C31.0131 38.2998 30.8381 38.6982 30.8381 38.6982M37.5881 35.7919C37.7711 36.4143 38.0568 37.3857 38.0568 37.3857L38.5256 39.4482L38.9006 42.2607L39.5568 44.4169L40.0256 46.4794L40.7756 48.4482M30.8381 38.6982L28.6818 36.5419L26.9943 34.1982M30.8381 38.6982L30.8849 38.9794M26.9943 34.1982L25.1193 32.2294L24.5568 31.5647M26.9943 34.1982L26.0568 35.7919C26.0568 35.7919 25.7153 36.2501 25.4943 36.5419C25.1318 37.0207 24.9431 37.301 24.5568 37.7607C24.1401 38.2566 23.4318 38.9794 23.4318 38.9794L22.2131 39.8232M16.5881 31.1044C16.5881 31.1044 16.7253 32.1601 16.9631 32.7919M16.9631 32.7919C17.1822 33.3745 17.421 33.6486 17.7131 34.1982C18.0436 34.8201 18.1545 35.2139 18.5568 35.7919C19.045 36.4935 20.0568 37.3857 20.0568 37.3857L22.2131 39.8232M16.9631 32.7919L16.4006 31.2919C16.4006 31.2919 16.0933 30.3919 16.0256 29.7919C15.9681 29.2826 16.0256 28.4794 16.0256 28.4794C16.0256 28.4794 16.1857 27.5574 16.5881 26.9794C16.9905 26.4015 18.1818 26.1357 18.1818 26.1357C18.1818 26.1357 19.3913 25.8304 20.0568 26.1357C20.7173 26.4387 21.2756 27.5419 21.2756 27.5419L23.0568 29.7919L24.5568 31.5647M22.2131 39.8232L23.4318 41.6044L25.1193 43.5732L26.0568 44.9794L26.9943 48.4482L27.1527 49.1044M34.7756 68.7919C34.0799 68.1695 32.9943 67.1982 32.9943 67.1982L32.0568 65.3232L31.1193 63.0732L30.0881 60.4482L29.5256 57.5419L28.6818 54.5419L27.6506 51.1669L27.1527 49.1044M34.7756 68.7919C35.5444 69.1947 35.9007 69.619 36.7443 69.8232C37.5627 70.0213 38.0714 69.9701 38.9006 69.8232C39.6645 69.6879 40.0627 69.473 40.7756 69.1669C41.5731 68.8246 42.1727 68.7888 42.7443 68.1357C43.0255 67.8144 43.3068 67.1982 43.3068 67.1982M33.7443 48.8232L32.9943 47.6044L32.3381 45.5419L31.6818 43.5732L31.4006 42.2607L31.1193 40.3857L30.8849 38.9794M33.7443 48.8232C33.7443 48.8232 34.6354 49.8248 35.1506 50.5107C35.5775 51.0791 35.7051 51.4834 36.1818 52.0107C36.9382 52.8473 37.5446 53.1417 38.5256 53.6982C39.1951 54.078 40.3068 54.5419 40.3068 54.5419C40.3068 54.5419 41.8568 54.8905 42.5568 54.3544C42.976 54.0334 43.0139 53.6688 43.3068 53.2294M33.7443 48.8232C33.7443 48.8232 32.8662 48.6583 32.3381 48.4482C31.9577 48.2969 31.7963 48.084 31.4006 47.9794C30.905 47.8485 30.5948 47.9023 30.0881 47.9794C29.5158 48.0665 29.2233 48.2436 28.6818 48.4482C28.0739 48.6778 27.1527 49.1044 27.1527 49.1044M43.3068 53.2294C43.3068 52.7535 43.3068 52.0107 43.3068 52.0107M43.3068 53.2294C43.3727 53.2624 43.4349 53.2968 43.4943 53.3321M43.3068 52.0107L42.0881 50.0419L40.7756 48.4482M43.3068 52.0107H43.0256C43.0256 52.0107 42.7861 51.6621 42.5568 51.5419C42.2001 51.3551 41.9101 51.4224 41.5256 51.5419C41.1957 51.6444 40.7756 52.0107 40.7756 52.0107C40.7756 52.0107 40.3726 52.3695 40.2131 52.6669C39.9511 53.1552 40.0988 53.524 40.0256 54.0732M40.7756 48.4482C40.7756 48.4482 40.5266 48.8789 40.3068 49.1044C39.9737 49.4464 39.2756 49.7607 39.2756 49.7607C39.2756 49.7607 38.5884 50.3382 38.0568 50.5107C37.3603 50.7367 36.1818 50.5107 36.1818 50.5107M46.4006 46.0107L47.2443 47.6044L47.7131 48.6826M46.4006 46.0107L46.0256 43.5732M46.4006 46.0107C46.4006 46.0107 45.8439 47.0027 45.2756 47.4169C44.8519 47.7257 44.5691 47.8683 44.0568 47.9794C43.5559 48.0882 42.7443 47.9794 42.7443 47.9794M46.0256 43.5732C46.0256 43.5732 46.7684 43.5732 47.2443 43.5732C47.9765 43.5732 48.4103 43.7562 49.1193 43.5732C49.6269 43.4422 49.9091 43.312 50.3381 43.0107M48.3693 52.0107C48.3693 52.0107 48.2882 52.3135 48.1818 52.4794C47.9842 52.7877 47.7319 52.8322 47.4318 53.0419C47.0406 53.3155 46.835 53.5005 46.4006 53.6982C45.8832 53.9336 45.5619 54.1031 44.9943 54.0732C44.3321 54.0383 44.0288 53.6497 43.4943 53.3321M48.3693 52.0107L48.5568 51.5419L48.3693 50.6513M48.3693 52.0107C48.3693 52.0107 48.0363 51.7125 47.8068 51.5419C47.5949 51.3844 47.4597 51.3195 47.2443 51.1669C46.9037 50.9257 46.7942 50.6496 46.4006 50.5107C45.9863 50.3645 45.6899 50.3645 45.2756 50.5107C44.8819 50.6496 44.727 50.8718 44.4318 51.1669C44.1366 51.4621 43.989 51.6519 43.7756 52.0107L43.588 52.3857L43.4943 52.8544V53.1357V53.3321M26.0568 44.4169L27.1527 43.0107C27.1527 43.0107 27.8015 42.3847 28.2131 41.9794C28.7296 41.4709 29.0825 41.2406 29.5256 40.6669C29.7676 40.3535 29.7769 40.1527 30.0881 39.8232C30.3993 39.4937 30.5737 39.3089 30.8849 38.9794M19.2131 35.7919L21.2756 35.3232L22.7756 34.1982L23.8068 32.7919L24.5568 31.5647M48.3693 50.6513C48.3693 50.6513 48.2854 50.1007 48.1818 49.7607C48.0479 49.3215 47.7131 48.6826 47.7131 48.6826M48.3693 50.6513C48.3693 50.6513 49.0849 51.0491 49.5881 51.1669C50.2654 51.3255 51.3693 51.1669 51.3693 51.1669M51.3693 51.1669C51.3693 51.1669 52.3437 50.9359 52.7756 50.5107C53.3779 49.9177 53.4318 48.4482 53.4318 48.4482V46.0107V43.5732V43.0107M51.3693 51.1669C51.3693 51.1669 51.8504 50.3394 51.8381 49.7607C51.8265 49.2165 51.7176 48.8665 51.3693 48.4482C51.1863 48.2284 51.0505 48.1291 50.8068 47.9794C50.3825 47.7188 50.0854 47.5794 49.5881 47.6044C49.1601 47.626 48.9283 47.7659 48.5568 47.9794C48.1849 48.1932 47.7131 48.6826 47.7131 48.6826M53.4318 38.6982C53.4318 39.467 53.4318 40.6669 53.4318 40.6669V43.0107M53.4318 38.6982C53.948 38.739 54.2602 38.6944 54.7443 38.5107C55.238 38.3233 55.4794 38.1168 55.8693 37.7607C56.1567 37.4982 56.5256 37.0107 56.5256 37.0107M57.0881 41.6044C56.692 41.8115 56.1506 42.2607 56.1506 42.2607C55.8631 42.523 55.8509 42.8548 55.4943 43.0107C55.1588 43.1573 54.9229 43.0107 54.5568 43.0107C54.1175 43.0107 53.4318 43.0107 53.4318 43.0107M53.7131 48.4482L56.1506 47.6044L57.5568 46.8544M57.5568 46.8544V47.9794C57.5568 47.9794 57.4958 48.8399 57.5568 49.3857C57.6367 50.1005 58.0256 51.1669 58.0256 51.1669M40.0256 53.7919V54.3544" stroke="#725050" stroke-width="0.3"/>
</g>
</g>
<defs>
<filter id="filter0_dd_140_60" x="0" y="0" width="91" height="98" filterUnits="userSpaceOnUse" color-interpolation-filters="sRGB">
<feFlood flood-opacity="0" result="BackgroundImageFix"/>
<feColorMatrix in="SourceAlpha" type="matrix" values="0 0 0 0 0 0 0 0 0 0 0 0 0 0 0 0 0 0 127 0" result="hardAlpha"/>
<feOffset dy="4"/>
<feGaussianBlur stdDeviation="2"/>
<feComposite in2="hardAlpha" operator="out"/>
<feColorMatrix type="matrix" values="0 0 0 0 0 0 0 0 0 0 0 0 0 0 0 0 0 0 0.25 0"/>
<feBlend mode="normal" in2="BackgroundImageFix" result="effect1_dropShadow_140_60"/>
<feColorMatrix in="SourceAlpha" type="matrix" values="0 0 0 0 0 0 0 0 0 0 0 0 0 0 0 0 0 0 127 0" result="hardAlpha"/>
<feOffset dy="4"/>
<feGaussianBlur stdDeviation="2"/>
<feComposite in2="hardAlpha" operator="out"/>
<feColorMatrix type="matrix" values="0 0 0 0 0 0 0 0 0 0 0 0 0 0 0 0 0 0 0.25 0"/>
<feBlend mode="normal" in2="effect1_dropShadow_140_60" result="effect2_dropShadow_140_60"/>
<feBlend mode="normal" in="SourceGraphic" in2="effect2_dropShadow_140_60" result="shape"/>
</filter>
<filter id="filter1_d_140_60" x="0" y="0" width="91" height="98" filterUnits="userSpaceOnUse" color-interpolation-filters="sRGB">
<feFlood flood-opacity="0" result="BackgroundImageFix"/>
<feColorMatrix in="SourceAlpha" type="matrix" values="0 0 0 0 0 0 0 0 0 0 0 0 0 0 0 0 0 0 127 0" result="hardAlpha"/>
<feOffset dy="4"/>
<feGaussianBlur stdDeviation="2"/>
<feComposite in2="hardAlpha" operator="out"/>
<feColorMatrix type="matrix" values="0 0 0 0 0 0 0 0 0 0 0 0 0 0 0 0 0 0 0.25 0"/>
<feBlend mode="normal" in2="BackgroundImageFix" result="effect1_dropShadow_140_60"/>
<feBlend mode="normal" in="SourceGraphic" in2="effect1_dropShadow_140_60" result="shape"/>
</filter>
<filter id="filter2_ddd_140_60" x="11.85" y="25.85" width="69.5932" height="60.8926" filterUnits="userSpaceOnUse" color-interpolation-filters="sRGB">
<feFlood flood-opacity="0" result="BackgroundImageFix"/>
<feColorMatrix in="SourceAlpha" type="matrix" values="0 0 0 0 0 0 0 0 0 0 0 0 0 0 0 0 0 0 127 0" result="hardAlpha"/>
<feOffset dy="4"/>
<feGaussianBlur stdDeviation="2"/>
<feComposite in2="hardAlpha" operator="out"/>
<feColorMatrix type="matrix" values="0 0 0 0 0 0 0 0 0 0 0 0 0 0 0 0 0 0 0.25 0"/>
<feBlend mode="normal" in2="BackgroundImageFix" result="effect1_dropShadow_140_60"/>
<feColorMatrix in="SourceAlpha" type="matrix" values="0 0 0 0 0 0 0 0 0 0 0 0 0 0 0 0 0 0 127 0" result="hardAlpha"/>
<feOffset dy="4"/>
<feGaussianBlur stdDeviation="2"/>
<feComposite in2="hardAlpha" operator="out"/>
<feColorMatrix type="matrix" values="0 0 0 0 0 0 0 0 0 0 0 0 0 0 0 0 0 0 0.25 0"/>
<feBlend mode="normal" in2="effect1_dropShadow_140_60" result="effect2_dropShadow_140_60"/>
<feColorMatrix in="SourceAlpha" type="matrix" values="0 0 0 0 0 0 0 0 0 0 0 0 0 0 0 0 0 0 127 0" result="hardAlpha"/>
<feOffset dy="4"/>
<feGaussianBlur stdDeviation="2"/>
<feComposite in2="hardAlpha" operator="out"/>
<feColorMatrix type="matrix" values="0 0 0 0 0 0 0 0 0 0 0 0 0 0 0 0 0 0 0.25 0"/>
<feBlend mode="normal" in2="effect2_dropShadow_140_60" result="effect3_dropShadow_140_60"/>
<feBlend mode="normal" in="SourceGraphic" in2="effect3_dropShadow_140_60" result="shape"/>
</filter>
</defs>
</svg>
