<svg width="91" height="98" viewBox="0 0 91 98" fill="none" xmlns="http://www.w3.org/2000/svg">
<g filter="url(#filter0_dd_144_91)">
<g filter="url(#filter1_d_144_91)">
<ellipse cx="45.5" cy="45" rx="41.5" ry="45" fill="#D9D9D9"/>
</g>
<g filter="url(#filter2_dd_144_91)">
<path d="M36.8828 80.6414H33.2366C32.6854 80.6414 32.0529 81.1479 31.8252 80.6414C31.6383 80.2258 32.1053 79.9874 32.2957 79.5734C32.6415 78.8213 33.0373 78.4789 33.2366 77.6746C33.4594 76.7754 33.305 76.2255 33.2366 75.3011C33.1535 74.1767 32.847 73.5777 32.7662 72.453C32.703 71.5748 32.7662 71.0788 32.7662 70.1982C32.3987 68.7615 32.1141 67.9742 31.8252 66.5193C31.5879 65.324 31.4559 64.6487 31.3547 63.4338C31.2317 61.956 31.3547 61.1193 31.3547 59.6363V57.3815C31.3547 56.0839 31.259 55.3527 31.3547 54.0587C31.448 52.7972 31.6239 52.1031 31.8252 50.8545C32.1477 48.8538 32.3665 47.7381 32.7662 45.7516C32.9436 44.8697 33.0657 44.38 33.2366 43.4968C33.4957 42.1583 33.4626 41.3692 33.8247 40.0553C34.1402 38.9108 34.8833 37.2071 34.8833 37.2071L35.1774 35.427L35.4714 33.6469L35.8243 30.5614L36.4124 26.7639L36.8828 23.9158C36.8828 23.9158 37.0599 22.0825 37.5886 21.0676C38.0291 20.2219 38.2131 19.4516 39.1176 19.1688C39.6002 19.018 40.4114 19.1688 40.4114 19.1688L41.7052 19.7622C42.2105 19.9939 42.4109 21.4236 42.4109 21.4236L42.5134 20.3556C42.5134 20.3556 42.5989 18.7555 42.7638 17.7448C42.9013 16.9016 42.8305 16.3598 43.2343 15.6087C43.5908 14.9455 43.8425 14.4857 44.5281 14.1846C45.2019 13.8886 45.6893 14.0394 46.41 14.1846C47.1967 14.343 47.7948 14.3801 48.2919 15.0153H48.6448C48.6448 15.0153 48.4902 13.6987 48.6448 12.8792C48.7724 12.2024 48.8687 11.8006 49.2329 11.2178C49.4933 10.801 49.6173 10.4842 50.0562 10.2684C50.5517 10.0247 50.9551 10.0638 51.4676 10.2684C52.1348 10.5347 52.3114 11.0509 52.6438 11.6924C53.0988 12.5704 52.9577 13.2065 53.1143 14.1846C53.2842 15.2458 53.3969 15.8414 53.4672 16.9141C53.5398 18.0239 53.4672 18.6499 53.4672 19.7622V22.8477V24.9838V28.188V30.5614V33.6469L53.7612 34.5963L54.2464 33.8843L54.4081 33.6469L56.0044 32.4602L56.6429 31.9855C56.6429 31.9855 58.0569 31.2643 58.9953 31.3922C59.8709 31.5115 60.3394 31.8624 60.9948 32.4602C61.6848 33.0895 61.9029 33.6237 62.2886 34.4776C62.7414 35.4801 62.9943 37.2071 62.9943 37.2071L63.7001 40.7673V44.3275V47.8877L62.9943 52.2786L61.7005 55.6014L60.2891 58.9243L58.6424 62.2471L57.231 65.926L56.6429 69.3675V70.6729V72.453C56.6429 73.5653 56.5435 74.1934 56.6429 75.3011C56.7526 76.5232 56.9229 77.1996 57.231 78.3866C57.4628 79.2799 58.5539 79.9596 57.9367 80.6414C57.4101 81.2232 55.9372 80.6414 55.9372 80.6414H52.6438H48.6448H44.5281H40.9995H36.8828Z" fill="#ECCCC0"/>
<path d="M53.1143 35.5457C52.4712 36.4726 52.1107 36.9923 51.4676 37.9192C50.8246 38.8461 50.8978 39.1867 50.7619 40.0553C50.633 40.8793 50.4273 41.4286 50.7619 42.1914C50.9478 42.6152 51.0932 42.8724 51.4676 43.1408C52.4506 43.8452 54.4081 42.1914 54.4081 42.1914L57.231 40.0553L57.9367 39.2246C57.9367 39.2246 57.8017 40.1804 57.9367 40.7673C58.0761 41.373 58.2315 41.728 58.6424 42.1914C59.1363 42.7483 60.2891 43.1408 60.2891 43.1408M53.1143 35.5457L51.4676 34.1216M53.1143 35.5457L53.7612 34.5963M51.4676 34.1216C51.4676 34.1216 50.7344 32.7183 50.0562 31.9855C49.454 31.3349 48.9809 31.1176 48.2919 30.5614M51.4676 34.1216C51.4676 34.1216 51.0774 34.6027 50.7619 34.8337C50.2441 35.2128 49.861 35.5498 49.2329 35.427C48.8074 35.3438 48.6925 35.0004 48.2919 34.8337L47.351 34.5963C47.351 34.5963 46.8386 34.2257 46.6452 33.8843C46.5011 33.6298 46.4117 33.4654 46.41 33.1722C46.4066 32.5788 47.0025 32.4637 47.351 31.9855C47.7433 31.447 47.9244 31.1176 48.2919 30.5614M48.2919 30.5614C47.9244 30.5614 47.351 30.5614 47.351 30.5614M48.6448 53.3467V52.2786C48.6448 52.2786 48.7338 50.5391 48.6448 49.4304C48.5698 48.4962 48.6241 47.9323 48.2919 47.057C48.0861 46.5147 47.9046 46.2353 47.5862 45.7516C47.1892 45.1485 46.8484 44.9006 46.41 44.3275C45.6005 43.2692 44.8324 42.7804 44.5281 41.4794C44.3276 40.6224 44.5281 40.1051 44.5281 39.2246C44.5281 38.1586 44.5281 37.561 44.5281 36.4951C44.5281 35.5682 44.2066 34.9558 44.5281 34.1216C44.8496 33.2874 45.0299 32.8197 45.3514 31.9855C45.673 31.1513 45.7544 30.7753 46.41 30.5614C46.7597 30.4474 47.351 30.5614 47.351 30.5614M55.3491 42.1914C55.3491 42.1914 56.2747 43.4232 56.6429 44.3275C57.105 45.4625 57.0398 46.2012 57.231 47.413C57.3985 48.4746 57.6705 49.0711 57.5838 50.1425C57.5304 50.8038 57.31 51.1452 57.231 51.8039C57.1261 52.6781 57.231 54.0587 57.231 54.0587M34.5304 54.0587C34.5304 54.0587 36.0406 54.4289 36.8828 54.0587C37.5683 53.7574 38.2943 52.7533 38.2943 52.7533M44.5281 68.6555C44.5281 68.6555 45.492 70.1137 46.41 70.6729C47.4976 71.3354 48.3224 71.2494 49.5857 71.3849C50.7733 71.5124 51.4496 71.3849 52.6438 71.3849C53.3328 71.3849 53.725 71.4759 54.4081 71.3849C55.3155 71.2641 55.8313 71.0998 56.6429 70.6729M56.6429 70.6729C56.6429 71.3681 56.6429 71.7578 56.6429 72.453C56.6429 73.5653 56.5435 74.1934 56.6429 75.3011C56.7526 76.5232 56.9229 77.1996 57.231 78.3866C57.4628 79.2799 58.5539 79.9596 57.9367 80.6414C57.4101 81.2232 55.9372 80.6414 55.9372 80.6414C54.651 80.6414 53.93 80.6414 52.6438 80.6414C51.3577 80.6414 50.2065 80.6414 48.6448 80.6414C47.0371 80.6414 46.1358 80.6414 44.5281 80.6414C43.1501 80.6414 42.3775 80.6414 40.9995 80.6414C39.3918 80.6414 38.4905 80.6414 36.8828 80.6414C35.4589 80.6414 34.6606 80.6414 33.2366 80.6414C32.6854 80.6414 32.0529 81.1479 31.8252 80.6414C31.6383 80.2258 32.1053 79.9874 32.2957 79.5734C32.6415 78.8213 33.0373 78.4789 33.2366 77.6746C33.4594 76.7754 33.305 76.2255 33.2366 75.3011C33.1535 74.1767 32.847 73.5777 32.7662 72.453C32.703 71.5748 32.7662 71.0788 32.7662 70.1982M56.6429 70.6729C56.6429 70.1631 56.6429 69.3675 56.6429 69.3675L57.231 65.926L58.6424 62.2471L60.2891 58.9243L61.7005 55.6014L62.9943 52.2786L63.7 47.8877V44.3275V40.7673L62.9943 37.2071C62.9943 37.2071 62.7414 35.4801 62.2886 34.4777C61.9029 33.6237 61.6848 33.0895 60.9948 32.4602C60.3394 31.8624 59.8709 31.5115 58.9953 31.3922C58.0569 31.2643 56.6429 31.9855 56.6429 31.9855L56.0044 32.4602M41.7052 71.3849C41.7052 71.3849 40.2088 72.4158 39.1176 72.453C38.2157 72.4837 37.7619 72.0654 36.8828 71.8596C35.9702 71.646 35.3916 71.7573 34.5304 71.3849C33.7693 71.0558 33.36 70.7805 32.7662 70.1982M32.7662 70.1982C32.3987 68.7615 32.1141 67.9742 31.8252 66.5193C31.5879 65.324 31.4559 64.6487 31.3547 63.4338C31.2317 61.956 31.3547 61.1193 31.3547 59.6363C31.3547 58.7558 31.3547 58.2621 31.3547 57.3815C31.3547 56.0839 31.259 55.3527 31.3547 54.0587C31.448 52.7972 31.6239 52.1031 31.8252 50.8545C32.1477 48.8538 32.3665 47.7381 32.7662 45.7516C32.9436 44.8697 33.0657 44.38 33.2366 43.4968C33.4957 42.1583 33.4626 41.3692 33.8247 40.0553C34.1402 38.9108 34.8833 37.2071 34.8833 37.2071L35.1774 35.427M36.4124 26.7639L35.8243 30.5614L35.4714 33.6469L35.1774 35.427M36.4124 26.7639L36.8828 23.9158C36.8828 23.9158 37.0599 22.0825 37.5886 21.0676C38.0291 20.2219 38.2131 19.4516 39.1176 19.1688C39.6002 19.018 40.4114 19.1688 40.4114 19.1688C40.9167 19.4006 41.2 19.5305 41.7052 19.7622C42.2105 19.9939 42.4109 21.4236 42.4109 21.4236M36.4124 26.7639C36.4124 26.7639 37.4583 27.9432 38.2943 27.832C38.9774 27.7411 39.7057 26.7639 39.7057 26.7639M42.4109 21.4236V23.9158V27.3573M42.4109 21.4236L42.5134 20.3556M41.3524 35.5457V34.8337V32.4602L41.7052 30.0868L42.4109 27.832V27.3573M48.2919 15.0153C47.7948 14.3801 47.1967 14.343 46.41 14.1846C45.6893 14.0394 45.2019 13.8886 44.5281 14.1846C43.8425 14.4857 43.5908 14.9455 43.2343 15.6087C42.8305 16.3598 42.9013 16.9016 42.7638 17.7448C42.5989 18.7555 42.5134 20.3556 42.5134 20.3556M48.2919 15.0153C48.9467 15.8518 48.2919 17.7448 48.2919 17.7448M48.2919 15.0153H48.6448C48.6448 15.0153 48.4902 13.6987 48.6448 12.8792C48.7724 12.2024 48.8687 11.8006 49.2329 11.2178C49.4933 10.801 49.6173 10.4842 50.0562 10.2684C50.5517 10.0247 50.9551 10.0638 51.4676 10.2684C52.1348 10.5347 52.3114 11.0509 52.6438 11.6924C53.0988 12.5704 52.9577 13.2065 53.1143 14.1846C53.2842 15.2458 53.3969 15.8414 53.4672 16.9141C53.5398 18.0239 53.4672 18.6499 53.4672 19.7622C53.4672 20.9672 53.4672 21.6427 53.4672 22.8477C53.4672 23.6819 53.4672 24.1496 53.4672 24.9838C53.4672 26.2351 53.4672 26.9367 53.4672 28.188C53.4672 29.1149 53.4672 29.6345 53.4672 30.5614C53.4672 31.7664 53.4672 33.6469 53.4672 33.6469L53.7612 34.5963M48.2919 17.7448L47.5862 21.0676V23.9158V26.1705M48.2919 17.7448C48.2919 17.7448 49.3319 18.3916 50.0562 18.3381C50.6517 18.2942 51.4676 17.7448 51.4676 17.7448M47.5862 26.1705V28.188V30.0868L47.351 30.5614M47.5862 26.1705C47.5862 26.1705 48.5502 26.7805 49.2329 26.7639C49.8725 26.7483 50.7619 26.1705 50.7619 26.1705M53.7612 34.5963L54.2464 33.8843M45.7043 20.3556C45.7043 20.3556 44.8326 21.0472 44.1752 21.0676C43.4705 21.0895 42.5134 20.3556 42.5134 20.3556M45.3514 27.3573C45.3514 27.3573 44.7274 28.09 44.1752 28.188C43.4264 28.3209 42.4109 27.3573 42.4109 27.3573M38.7647 35.5457C38.7647 35.5457 37.9326 36.4178 37.2357 36.4951C36.3372 36.5947 35.1774 35.427 35.1774 35.427M58.9953 34.8337C58.9953 34.8337 58.5296 33.6591 57.9367 33.1722C57.3136 32.6606 56.0044 32.4602 56.0044 32.4602M56.0044 32.4602L54.4081 33.6469L54.2464 33.8843M57.231 36.1391L56.0044 34.8337L54.2464 33.8843M39.7057 63.0778C39.7057 63.0778 39.5662 61.764 39.7057 60.9417C39.8454 60.1182 40.1704 59.7236 40.4114 58.9243C40.687 58.0102 40.6449 57.4367 40.9995 56.5508C41.4231 55.4924 42.0191 55.0855 42.5134 54.0587C42.8386 53.3832 42.8361 52.913 43.2343 52.2786C43.6343 51.6412 44.5281 51.8039 44.5281 50.8545M44.5281 50.8545C44.5281 50.8545 45.1955 49.9408 45.7043 49.4304C46.0506 49.0831 46.6452 48.5997 46.6452 48.5997M44.5281 50.8545C44.5281 50.8545 43.3019 50.4155 42.5134 50.1425C41.6944 49.8589 40.4114 49.4304 40.4114 49.4304M51.7029 39.8179C51.7839 40.3358 52.2611 40.4126 52.6438 40.7673C52.9557 41.0564 53.0446 41.4515 53.4672 41.4794C53.9255 41.5095 54.4081 40.7673 54.4081 40.7673C54.4081 40.7673 55.153 40.3035 55.3491 39.8179C55.5397 39.3458 55.451 39.0118 55.3491 38.5125C55.2371 37.9641 55.1234 37.6312 54.761 37.2071C54.4489 36.842 53.7612 36.4951 53.7612 36.4951L53.1143 37.2071C52.8192 37.6605 52.8912 38.0309 52.6438 38.5125C52.3563 39.0722 51.6054 39.1953 51.7029 39.8179Z" stroke="#725050" stroke-width="0.36"/>
</g>
</g>
<defs>
<filter id="filter0_dd_144_91" x="0" y="0" width="91" height="98" filterUnits="userSpaceOnUse" color-interpolation-filters="sRGB">
<feFlood flood-opacity="0" result="BackgroundImageFix"/>
<feColorMatrix in="SourceAlpha" type="matrix" values="0 0 0 0 0 0 0 0 0 0 0 0 0 0 0 0 0 0 127 0" result="hardAlpha"/>
<feOffset dy="4"/>
<feGaussianBlur stdDeviation="2"/>
<feComposite in2="hardAlpha" operator="out"/>
<feColorMatrix type="matrix" values="0 0 0 0 0 0 0 0 0 0 0 0 0 0 0 0 0 0 0.25 0"/>
<feBlend mode="normal" in2="BackgroundImageFix" result="effect1_dropShadow_144_91"/>
<feColorMatrix in="SourceAlpha" type="matrix" values="0 0 0 0 0 0 0 0 0 0 0 0 0 0 0 0 0 0 127 0" result="hardAlpha"/>
<feOffset dy="4"/>
<feGaussianBlur stdDeviation="2"/>
<feComposite in2="hardAlpha" operator="out"/>
<feColorMatrix type="matrix" values="0 0 0 0 0 0 0 0 0 0 0 0 0 0 0 0 0 0 0.25 0"/>
<feBlend mode="normal" in2="effect1_dropShadow_144_91" result="effect2_dropShadow_144_91"/>
<feBlend mode="normal" in="SourceGraphic" in2="effect2_dropShadow_144_91" result="shape"/>
</filter>
<filter id="filter1_d_144_91" x="0" y="0" width="91" height="98" filterUnits="userSpaceOnUse" color-interpolation-filters="sRGB">
<feFlood flood-opacity="0" result="BackgroundImageFix"/>
<feColorMatrix in="SourceAlpha" type="matrix" values="0 0 0 0 0 0 0 0 0 0 0 0 0 0 0 0 0 0 127 0" result="hardAlpha"/>
<feOffset dy="4"/>
<feGaussianBlur stdDeviation="2"/>
<feComposite in2="hardAlpha" operator="out"/>
<feColorMatrix type="matrix" values="0 0 0 0 0 0 0 0 0 0 0 0 0 0 0 0 0 0 0.25 0"/>
<feBlend mode="normal" in2="BackgroundImageFix" result="effect1_dropShadow_144_91"/>
<feBlend mode="normal" in="SourceGraphic" in2="effect1_dropShadow_144_91" result="shape"/>
</filter>
<filter id="filter2_dd_144_91" x="26.3201" y="9.91992" width="42.36" height="80.76" filterUnits="userSpaceOnUse" color-interpolation-filters="sRGB">
<feFlood flood-opacity="0" result="BackgroundImageFix"/>
<feColorMatrix in="SourceAlpha" type="matrix" values="0 0 0 0 0 0 0 0 0 0 0 0 0 0 0 0 0 0 127 0" result="hardAlpha"/>
<feOffset dy="4.8"/>
<feGaussianBlur stdDeviation="2.4"/>
<feComposite in2="hardAlpha" operator="out"/>
<feColorMatrix type="matrix" values="0 0 0 0 0 0 0 0 0 0 0 0 0 0 0 0 0 0 0.25 0"/>
<feBlend mode="normal" in2="BackgroundImageFix" result="effect1_dropShadow_144_91"/>
<feColorMatrix in="SourceAlpha" type="matrix" values="0 0 0 0 0 0 0 0 0 0 0 0 0 0 0 0 0 0 127 0" result="hardAlpha"/>
<feOffset dy="4"/>
<feGaussianBlur stdDeviation="2"/>
<feComposite in2="hardAlpha" operator="out"/>
<feColorMatrix type="matrix" values="0 0 0 0 0 0 0 0 0 0 0 0 0 0 0 0 0 0 0.25 0"/>
<feBlend mode="normal" in2="effect1_dropShadow_144_91" result="effect2_dropShadow_144_91"/>
<feBlend mode="normal" in="SourceGraphic" in2="effect2_dropShadow_144_91" result="shape"/>
</filter>
</defs>
</svg>
