<svg width="170" height="175" viewBox="0 0 170 175" fill="none" xmlns="http://www.w3.org/2000/svg">
<path d="M54.3455 147.648C45.2001 143.603 88.3455 105.148 88.3455 89.3984C88.3455 86.5554 89.1886 83.8984 86.3455 83.8984C75.0955 83.8984 51.0955 83.0193 56.5955 75.1483C59.3124 71.2601 122.596 48.6484 128.346 55.8984C131.699 60.1268 142.354 64.3285 148.095 70.3984C156.845 79.6484 139.095 114.148 139.095 114.148C139.095 114.148 143.323 163.648 133.595 163.648C127.095 163.648 128.346 126.148 122.596 126.148C116.846 126.148 116.345 174.648 107.846 172.898C99.3456 171.149 110.846 128.911 106.596 126.148C102.345 123.386 88.1849 173.253 76.8455 167.898C67.8455 163.648 97.5955 120.398 92.3455 117.648C87.0956 114.899 67.3455 153.398 54.3455 147.648Z" fill="white"/>
<path d="M80.5955 89.3984C80.5955 89.3984 70.6734 116.505 58.3455 121.898C54.3455 123.648 41.8455 121.898 36.5955 117.648C24.8964 108.178 23.8455 76.6484 23.8455 76.6484C23.8455 76.6484 -4.58383 40.4966 3.34554 37.1484C14.5952 32.3984 24.6794 69.3825 32.3455 61.1484C39.0955 53.8984 6.16774 19.6696 19.3455 14.3984C30.5955 9.89836 35.5783 54.0988 45.8455 51.8984C52.8452 50.3984 34.5952 1.64844 45.8455 1.64844C59.8452 1.64844 54.3455 51.896 62.5955 51.8984C67.5258 51.8999 64.5037 6.14844 76.8455 6.14844C86.3455 6.14844 81.846 53.6481 78.8455 59.6484C76.8455 63.6481 46.6131 62.7904 47.5955 76.6484C48.5725 90.4296 80.5955 89.3984 80.5955 89.3984Z" fill="white"/>
<path d="M155.345 67.3984C160.845 76.6484 162.345 81.6484 155.345 91.1484M164.345 70.3984C168.095 79.3984 170.595 83.8984 162.345 93.1484M23.8455 114.148C25.5955 124.148 29.3455 129.398 39.0955 131.898M16.5955 115.398C16.5955 126.148 23.8455 135.648 30.5955 135.648M88.3455 89.3984C88.3455 105.148 45.2001 143.603 54.3455 147.648C67.3455 153.398 87.0956 114.899 92.3455 117.648C97.5955 120.398 67.8455 163.648 76.8455 167.898C88.1849 173.253 102.345 123.386 106.596 126.148C110.846 128.911 99.3456 171.149 107.846 172.898C116.345 174.648 116.846 126.148 122.596 126.148C128.346 126.148 127.095 163.648 133.595 163.648C143.323 163.648 139.095 114.148 139.095 114.148C139.095 114.148 156.845 79.6484 148.095 70.3984C142.354 64.3285 131.699 60.1268 128.346 55.8984C122.596 48.6484 59.3124 71.2601 56.5955 75.1483C51.0955 83.0193 75.0955 83.8984 86.3455 83.8984C89.1886 83.8984 88.3455 86.5554 88.3455 89.3984ZM58.3455 121.898C70.6734 116.505 80.5955 89.3984 80.5955 89.3984C80.5955 89.3984 48.5725 90.4296 47.5955 76.6484C46.6131 62.7904 76.8455 63.6481 78.8455 59.6484C81.846 53.6481 86.3455 6.14844 76.8455 6.14844C64.5037 6.14844 67.5258 51.8999 62.5955 51.8984C54.3455 51.896 59.8452 1.64844 45.8455 1.64844C34.5952 1.64844 52.8452 50.3984 45.8455 51.8984C35.5783 54.0988 30.5955 9.89836 19.3455 14.3984C6.16774 19.6696 39.0955 53.8984 32.3455 61.1484C24.6794 69.3825 14.5952 32.3984 3.34554 37.1484C-4.58383 40.4966 23.8455 76.6484 23.8455 76.6484C23.8455 76.6484 24.8964 108.178 36.5955 117.648C41.8455 121.898 54.3455 123.648 58.3455 121.898Z" stroke="black" stroke-width="3"/>
</svg>
