<svg width="91" height="98" viewBox="0 0 91 98" fill="none" xmlns="http://www.w3.org/2000/svg">
<g filter="url(#filter0_dd_140_50)">
<g filter="url(#filter1_d_140_50)">
<ellipse cx="45.5" cy="45" rx="41.5" ry="45" fill="#D9D9D9"/>
</g>
<g filter="url(#filter2_dd_140_50)">
<path d="M35.6481 70.2235V60.4538L34.2113 57.8677C34.2113 57.8677 33.1587 56.0165 32.8704 54.707C32.5327 53.1727 32.2329 52.3506 32.1999 50.78C32.1221 47.0685 32.4575 44.9052 32.1999 41.2019L32.1467 40.4356L31.721 34.3057L29.7096 28.8461L29.4658 28.2715L28.3687 25.6854L27.8898 23.2909C27.3389 21.5492 27.1452 20.5163 27.0278 18.6934C26.9653 17.7229 27.0278 16.2031 27.0278 16.2031L27.8898 14.479C27.8898 14.479 28.553 14.0084 29.0392 14.0001C29.8174 13.9869 30.6675 15.1495 30.6675 15.1495C30.6675 15.1495 31.3722 16.1658 31.721 16.8735C32.5714 18.5987 32.8704 21.6626 32.8704 21.6626L33.1498 22.1415L34.2113 23.9613L34.9776 26.1643C34.9776 26.1643 36.0312 28.8461 36.0312 29.9955C36.0312 31.1449 36.071 30.6734 36.5101 30.8575C36.9585 31.0456 37.7552 30.8575 37.7552 30.8575V28.2715L38.8088 26.1643C39.6134 25.5096 40.1893 25.2331 41.2033 25.0149C42.1175 24.8182 42.7615 24.5967 43.5979 25.0149C44.4343 25.4331 44.4735 26.1824 45.0346 26.9305C45.163 26.104 45.4083 25.6135 45.9924 25.0149C46.6821 24.3081 47.305 23.9093 48.2911 23.9613C49.1766 24.0081 50.3025 25.0149 50.3025 25.0149L50.8054 25.3023L51.3082 25.5896L52.3139 26.1643C52.3139 26.1643 52.1555 25.4349 52.3139 25.0149C52.5703 24.3354 53.1747 24.2373 53.8464 23.9613C55.0574 23.4638 55.9678 23.5156 57.1988 23.9613C58.2539 24.3433 58.8086 24.7996 59.4975 25.6854C60.011 26.3456 60.2524 26.7896 60.4553 27.601C60.6821 28.5082 60.2114 29.0928 60.4553 29.9955C60.7046 30.9183 61.7005 32.1027 61.7005 32.1027V33.3478C61.6746 33.721 61.6746 33.9325 61.7005 34.3057C61.7871 35.5567 62.3653 36.1513 62.6583 37.3706C62.9858 38.7339 63.1546 39.5147 63.2329 40.9145C63.2747 41.6615 63.3434 42.0903 63.2329 42.8302C63.0862 43.8131 62.7484 44.3053 62.3709 45.2247C61.7356 46.7721 61.1854 47.5508 60.4553 49.0559C59.2866 51.4652 59.0938 53.0716 57.5819 55.2817C56.5785 56.7483 54.6127 58.7298 54.6127 58.7298V68.9783L35.6481 70.2235Z" fill="#ECCCC0"/>
<path d="M35.6481 60.4538V70.2235L54.6127 68.9783V58.7298M35.6481 60.4538L34.2113 57.8677C34.2113 57.8677 33.1587 56.0165 32.8704 54.707C32.5327 53.1727 32.2329 52.3506 32.1999 50.78C32.1221 47.0685 32.4575 44.9052 32.1999 41.2019C32.1791 40.9026 32.1467 40.4356 32.1467 40.4356M35.6481 60.4538C35.6481 60.4538 36.924 60.8374 37.7552 61.0285C38.5345 61.2077 39.7666 61.4116 39.7666 61.4116C39.7666 61.4116 41.5893 61.4497 42.6401 61.0285C43.5163 60.6772 43.7371 59.9224 44.6515 59.6876C45.3398 59.5108 46.4713 59.6876 46.4713 59.6876M31.721 34.3057C30.9355 32.1736 29.7096 28.8461 29.7096 28.8461C29.7096 28.8461 29.5611 28.4959 29.4658 28.2715M31.721 34.3057C31.8873 36.6996 32.1467 40.4356 32.1467 40.4356M31.721 34.3057C32.506 33.7266 32.9712 33.4305 33.8282 32.9647C34.5191 32.5892 34.8684 32.2057 35.6481 32.1027C35.9818 32.0586 36.1734 32.1027 36.5101 32.1027C37.4078 32.1027 38.8088 32.1027 38.8088 32.1027M27.8898 23.2909C28.0768 24.226 28.3687 25.6854 28.3687 25.6854C28.3687 25.6854 29.0374 27.2615 29.4658 28.2715M27.8898 23.2909C27.3389 21.5492 27.1452 20.5163 27.0278 18.6934C26.9653 17.7229 27.0278 16.2031 27.0278 16.2031L27.8898 14.479C27.8898 14.479 28.553 14.0084 29.0392 14.0001C29.8174 13.9869 30.6675 15.1495 30.6675 15.1495C30.6675 15.1495 31.3722 16.1658 31.721 16.8735C32.5714 18.5987 32.8704 21.6626 32.8704 21.6626L33.1498 22.1415M27.8898 23.2909C28.8537 22.6208 29.5119 22.3484 30.6675 22.1415C31.6217 21.9706 33.1498 22.1415 33.1498 22.1415M34.9776 26.1643L34.2113 23.9613L33.1498 22.1415M34.9776 26.1643C34.9776 26.1643 36.0312 28.8461 36.0312 29.9955C36.0312 31.1449 36.071 30.6734 36.5101 30.8575C36.9585 31.0456 37.7552 30.8575 37.7552 30.8575V28.2715C37.7552 28.2715 38.3974 26.9872 38.8088 26.1643M34.9776 26.1643C34.9776 26.1643 33.1427 25.6844 32.1467 26.1643C31.4213 26.5139 31.3259 27.1373 30.6675 27.601C30.2281 27.9104 29.9599 28.0601 29.4658 28.2715M38.8088 26.1643C39.6134 25.5096 40.1893 25.2331 41.2033 25.0149C42.1175 24.8182 42.7615 24.5967 43.5979 25.0149C44.4343 25.4331 44.4735 26.1824 45.0346 26.9305M38.8088 26.1643C38.8088 28.4834 38.8088 32.1027 38.8088 32.1027M45.0346 26.9305C45.163 26.104 45.4083 25.6135 45.9924 25.0149C46.6821 24.3081 47.305 23.9093 48.2911 23.9613C49.1766 24.0081 50.3025 25.0149 50.3025 25.0149L50.8054 25.3023M45.0346 26.9305C45.1842 28.6886 45.4177 31.4322 45.4177 31.4322L45.9924 37.3706L46.3033 40.9145M52.3139 26.1643C52.3139 26.1643 52.1555 25.4349 52.3139 25.0149C52.5703 24.3354 53.1747 24.2373 53.8464 23.9613C55.0574 23.4638 55.9678 23.5156 57.1988 23.9613C58.2539 24.3433 58.8086 24.7996 59.4975 25.6854C60.011 26.3456 60.2524 26.7896 60.4553 27.601C60.6821 28.5082 60.2114 29.0928 60.4553 29.9955C60.7046 30.9183 61.7005 32.1027 61.7005 32.1027V33.3478M52.3139 26.1643C52.3139 26.1643 51.701 25.814 51.3082 25.5896M52.3139 26.1643L58.7312 29.5166L59.9764 30.8097M54.6127 58.7298C54.6127 58.7298 56.5785 56.7483 57.5819 55.2817C59.0938 53.0716 59.2866 51.4652 60.4553 49.0559C61.1854 47.5508 61.7356 46.7721 62.3709 45.2247C62.7484 44.3053 63.0862 43.8131 63.2329 42.8302C63.3434 42.0903 63.2747 41.6615 63.2329 40.9145C63.1546 39.5147 62.9858 38.7339 62.6583 37.3706C62.3653 36.1513 61.7871 35.5567 61.7005 34.3057C61.6746 33.9325 61.6746 33.721 61.7005 33.3478M54.6127 58.7298L50.8772 59.1129L48.2911 57.8677L45.9924 56.0479L44.6515 53.5576L43.5979 49.5348L44.6515 46.9487L45.9924 45.2247M32.1467 40.4356L34.2113 39.5736C34.2113 39.5736 35.5996 39.2039 36.5101 39.0947C37.7728 38.9432 39.7666 39.0947 39.7666 39.0947L40.485 41.3455M41.2033 43.5964L43.0232 44.8415M41.2033 43.5964L40.485 41.3455M41.2033 43.5964L38.8088 46.4698M43.0232 44.8415C43.0232 44.8415 44.6255 45.3384 45.4177 44.8415C46.1689 44.3704 46.0598 43.6157 46.4713 42.8302M43.0232 44.8415L39.2877 51.4504M43.0232 44.8415C43.0232 44.8415 42.4057 44.1476 42.2569 43.5964C42.1205 43.0908 42.132 42.764 42.2569 42.2555C42.4008 41.6697 42.5572 41.2974 43.0232 40.9145C43.5353 40.4937 44.6515 40.4356 44.6515 40.4356L46.3033 40.9145M46.4713 42.8302C46.9576 43.466 47.0012 44.0989 47.7164 44.4584C48.4517 44.828 49.0261 44.6612 49.8236 44.4584C50.4454 44.3003 51.3082 43.7552 51.3082 43.7552M46.4713 42.8302C46.4057 42.0821 46.3033 40.9145 46.3033 40.9145M46.4713 42.8302C47.182 42.2504 47.4307 41.6633 48.2911 41.3455C49.0299 41.0728 49.5915 40.8633 50.3025 41.2019C50.8161 41.4464 51.0936 41.7287 51.3082 42.2555C51.5292 42.7978 51.3082 43.7552 51.3082 43.7552M47.7164 36.0297C47.7164 36.0297 48.9711 36.6301 49.8236 36.6044C50.8791 36.5725 52.3139 35.5508 52.3139 35.5508L51.6435 40.9145C51.6435 40.9145 52.5309 43.0402 51.6435 43.5964C51.5207 43.6733 51.3082 43.7552 51.3082 43.7552M41.778 36.6044C41.778 36.6044 42.9193 36.8157 43.5979 36.6044C44.0453 36.465 44.6515 36.0297 44.6515 36.0297M38.8088 32.1027L39.2877 35.5508L39.7666 37.3706L40.1498 39.0947L40.485 41.3455M52.3139 26.5474C52.3139 26.5474 54.0268 26.9927 54.3253 27.8883C54.7299 29.1021 52.3139 30.4744 52.3139 30.4744C52.3139 30.4744 49.2614 30.864 48.6743 29.5166C48.3754 28.8308 48.3859 28.2913 48.6743 27.601L50.3025 26.1643C50.3025 26.1643 50.9155 25.814 51.3082 25.5896M51.3082 25.5896C51.1119 25.4774 50.8054 25.3023 50.8054 25.3023M50.8054 25.3023C50.8054 25.3023 48.7817 26.3644 48.2911 27.601C47.8773 28.6441 48.036 29.3817 48.2911 30.4744C48.5803 31.7129 48.984 32.3926 49.8236 33.3478C50.6188 34.2526 52.3139 35.1677 52.3139 35.1677L54.3253 36.6044H55.2831M56.2409 36.6044H55.2831M55.2831 36.6044C55.7322 36.4376 55.2831 37.3706 56.2409 37.3706C57.1988 37.3706 55.5434 37.5953 55.2831 37.9453C54.784 38.6165 55.3086 39.2964 55.6663 40.0525C56.2336 41.2518 58.2523 42.2555 58.2523 42.2555M55.2831 40.4356C54.4602 41.1463 53.176 42.2555 53.176 42.2555M61.7005 33.3478C61.5134 32.8616 61.2215 32.1027 61.2215 32.1027L60.8384 31.7048M61.7005 33.3478C61.0272 33.8715 59.9764 34.6888 59.9764 34.6888M59.9764 30.8097C59.721 31.2407 59.1144 32.1027 58.7312 32.1027C58.3481 32.1027 58.2523 32.9328 58.2523 33.3478M59.9764 30.8097L60.8384 31.7048M60.8384 31.7048C60.8384 31.7048 59.9351 32.3948 59.4975 32.9647C59.1302 33.4431 58.7312 34.3057 58.7312 34.3057" stroke="#725050" stroke-width="0.3"/>
</g>
</g>
<defs>
<filter id="filter0_dd_140_50" x="0" y="0" width="91" height="98" filterUnits="userSpaceOnUse" color-interpolation-filters="sRGB">
<feFlood flood-opacity="0" result="BackgroundImageFix"/>
<feColorMatrix in="SourceAlpha" type="matrix" values="0 0 0 0 0 0 0 0 0 0 0 0 0 0 0 0 0 0 127 0" result="hardAlpha"/>
<feOffset dy="4"/>
<feGaussianBlur stdDeviation="2"/>
<feComposite in2="hardAlpha" operator="out"/>
<feColorMatrix type="matrix" values="0 0 0 0 0 0 0 0 0 0 0 0 0 0 0 0 0 0 0.25 0"/>
<feBlend mode="normal" in2="BackgroundImageFix" result="effect1_dropShadow_140_50"/>
<feColorMatrix in="SourceAlpha" type="matrix" values="0 0 0 0 0 0 0 0 0 0 0 0 0 0 0 0 0 0 127 0" result="hardAlpha"/>
<feOffset dy="4"/>
<feGaussianBlur stdDeviation="2"/>
<feComposite in2="hardAlpha" operator="out"/>
<feColorMatrix type="matrix" values="0 0 0 0 0 0 0 0 0 0 0 0 0 0 0 0 0 0 0.25 0"/>
<feBlend mode="normal" in2="effect1_dropShadow_140_50" result="effect2_dropShadow_140_50"/>
<feBlend mode="normal" in="SourceGraphic" in2="effect2_dropShadow_140_50" result="shape"/>
</filter>
<filter id="filter1_d_140_50" x="0" y="0" width="91" height="98" filterUnits="userSpaceOnUse" color-interpolation-filters="sRGB">
<feFlood flood-opacity="0" result="BackgroundImageFix"/>
<feColorMatrix in="SourceAlpha" type="matrix" values="0 0 0 0 0 0 0 0 0 0 0 0 0 0 0 0 0 0 127 0" result="hardAlpha"/>
<feOffset dy="4"/>
<feGaussianBlur stdDeviation="2"/>
<feComposite in2="hardAlpha" operator="out"/>
<feColorMatrix type="matrix" values="0 0 0 0 0 0 0 0 0 0 0 0 0 0 0 0 0 0 0.25 0"/>
<feBlend mode="normal" in2="BackgroundImageFix" result="effect1_dropShadow_140_50"/>
<feBlend mode="normal" in="SourceGraphic" in2="effect1_dropShadow_140_50" result="shape"/>
</filter>
<filter id="filter2_dd_140_50" x="22.85" y="13.85" width="44.5927" height="64.5337" filterUnits="userSpaceOnUse" color-interpolation-filters="sRGB">
<feFlood flood-opacity="0" result="BackgroundImageFix"/>
<feColorMatrix in="SourceAlpha" type="matrix" values="0 0 0 0 0 0 0 0 0 0 0 0 0 0 0 0 0 0 127 0" result="hardAlpha"/>
<feOffset dy="4"/>
<feGaussianBlur stdDeviation="2"/>
<feComposite in2="hardAlpha" operator="out"/>
<feColorMatrix type="matrix" values="0 0 0 0 0 0 0 0 0 0 0 0 0 0 0 0 0 0 0.25 0"/>
<feBlend mode="normal" in2="BackgroundImageFix" result="effect1_dropShadow_140_50"/>
<feColorMatrix in="SourceAlpha" type="matrix" values="0 0 0 0 0 0 0 0 0 0 0 0 0 0 0 0 0 0 127 0" result="hardAlpha"/>
<feOffset dy="4"/>
<feGaussianBlur stdDeviation="2"/>
<feComposite in2="hardAlpha" operator="out"/>
<feColorMatrix type="matrix" values="0 0 0 0 0 0 0 0 0 0 0 0 0 0 0 0 0 0 0.25 0"/>
<feBlend mode="normal" in2="effect1_dropShadow_140_50" result="effect2_dropShadow_140_50"/>
<feBlend mode="normal" in="SourceGraphic" in2="effect2_dropShadow_140_50" result="shape"/>
</filter>
</defs>
</svg>
