<svg width="91" height="98" viewBox="0 0 91 98" fill="none" xmlns="http://www.w3.org/2000/svg">
<g filter="url(#filter0_dd_144_97)">
<g filter="url(#filter1_d_144_97)">
<ellipse cx="45.5" cy="45" rx="41.5" ry="45" fill="#D9D9D9"/>
</g>
<g filter="url(#filter2_ddd_144_97)">
<path d="M50.3633 72.8518C49.8805 73.4623 49.5544 73.8061 48.8633 74.1643C48.1616 74.528 47.6779 74.7382 46.8946 74.6331C46.3892 74.5652 45.6758 74.1643 45.6758 74.1643C45.6758 74.1643 45.7621 74.9716 45.6758 75.4768C45.5979 75.9333 45.5623 76.2196 45.3008 76.6018C44.8751 77.224 44.3634 77.4635 43.6133 77.5393C43.0561 77.5956 42.7188 77.4856 42.2071 77.2581C41.6584 77.0141 40.9883 76.3206 40.9883 76.3206L40.6133 74.1643L40.4727 72.8049C40.4727 72.8049 40.3603 71.9785 40.3321 71.4456C40.2583 70.0519 40.6133 67.8831 40.6133 67.8831V65.7737V63.6643L40.9883 59.9143V57.5706L40.4727 58.6956L39.6758 59.4456H38.5508L37.2383 59.0706L36.6758 58.6956L35.6446 57.5706L35.2696 56.2581V54.5706C34.8668 54.7902 34.6823 55.0176 34.2383 55.1331C33.7777 55.2528 33.4878 55.2182 33.0196 55.1331C32.1483 54.9747 31.6698 54.6413 31.0508 54.0081C30.5679 53.5141 30.3225 53.1664 30.1133 52.5081C29.8584 51.7055 30.1133 51.1939 30.1133 50.3518V47.6331C30.1133 46.6079 29.9763 46.024 30.1133 45.0081C30.2451 44.0311 30.407 43.4873 30.7696 42.5706C31.1855 41.519 31.6682 41.0498 32.1758 40.0393L38.8321 16.4143H63.2071C63.2071 16.4143 68.5 36 66.4883 41.4456C64.4766 46.8911 53.1758 55.9768 53.1758 55.9768L50.3633 72.8518Z" fill="#ECCCC0"/>
<path d="M53.1758 55.9768V54.5706C53.3955 53.7651 53.7383 52.5081 53.7383 52.5081C53.7383 52.5081 53.8485 50.9965 54.1133 50.0706C54.3077 49.3907 54.3831 48.9752 54.7696 48.3831C55.187 47.7434 56.1758 47.0237 56.1758 47.0237M53.1758 55.9768L50.3633 72.8518C49.8805 73.4623 49.5544 73.8061 48.8633 74.1643C48.1616 74.528 47.6779 74.7382 46.8946 74.6331C46.3892 74.5652 45.6758 74.1643 45.6758 74.1643M53.1758 55.9768C53.1758 55.9768 64.4766 46.8911 66.4883 41.4456C68.5 36 63.2071 16.4143 63.2071 16.4143H38.8321L32.1758 40.0393C31.6682 41.0498 31.1855 41.519 30.7696 42.5706C30.407 43.4873 30.2451 44.0311 30.1133 45.0081C29.9763 46.024 30.1133 46.6079 30.1133 47.6331C30.1133 48.6948 30.1133 49.2901 30.1133 50.3518C30.1133 51.1939 29.8584 51.7055 30.1133 52.5081C30.3225 53.1664 30.5679 53.5141 31.0508 54.0081C31.6698 54.6413 32.1483 54.9747 33.0196 55.1331C33.4878 55.2182 33.7777 55.2528 34.2383 55.1331C34.6823 55.0176 34.8668 54.7902 35.2696 54.5706M45.6758 74.1643C45.6758 74.1643 45.3638 72.7453 45.3008 71.8206C45.2535 71.1265 45.3008 70.0393 45.3008 70.0393M45.6758 74.1643C45.6758 74.1643 45.7621 74.9716 45.6758 75.4768C45.5979 75.9333 45.5623 76.2196 45.3008 76.6018C44.8751 77.224 44.3634 77.4635 43.6133 77.5393C43.0561 77.5956 42.7188 77.4856 42.2071 77.2581C41.6584 77.0141 40.9883 76.3206 40.9883 76.3206L40.6133 74.1643L40.4727 72.8049M46.6133 48.9456L45.9571 51.1956L45.3008 54.0081V57.5706V61.6018V63.6643M39.6758 47.3518C39.6758 47.3518 40.591 48.3831 41.3633 48.3831C42.1356 48.3831 43.0508 47.3518 43.0508 47.3518M45.6758 47.3518C45.6758 47.3518 46.3178 48.1464 46.8946 48.3831C47.6059 48.6749 48.8633 48.3831 48.8633 48.3831M40.9883 48.9456V52.0393V54.5706V57.5706M40.6133 63.6643L40.9883 59.9143V57.5706M40.6133 63.6643V65.7737M40.6133 63.6643C40.6133 63.6643 41.2532 62.8206 41.8321 62.8206C42.4109 62.8206 43.0508 63.6643 43.0508 63.6643M45.9571 73.7893C45.9571 73.7893 46.5306 73.8293 46.8946 73.7893C47.3447 73.7398 47.724 73.8511 48.0196 73.5081C48.3541 73.1197 48.1058 72.7008 48.0196 72.1956C47.9416 71.7391 47.8784 71.4703 47.6446 71.0706C47.357 70.5789 47.1441 70.2457 46.6133 70.0393C46.1356 69.8535 45.3008 70.0393 45.3008 70.0393M45.3008 70.0393V67.8831V66.0081M41.3633 76.3206C41.3633 76.3206 42.2379 76.4581 42.7696 76.3206C43.1187 76.2303 43.3612 76.2034 43.6133 75.9456C44.026 75.5234 43.8008 74.4456 43.8008 74.4456C43.8008 74.4456 43.5947 73.273 43.0508 72.8518C42.7657 72.631 42.5574 72.5619 42.2071 72.4768C41.7446 72.3644 41.4304 72.3004 40.9883 72.4768C40.7666 72.5653 40.4727 72.8049 40.4727 72.8049M40.4727 72.8049C40.4727 72.8049 40.3603 71.9785 40.3321 71.4456C40.2583 70.0519 40.6133 67.8831 40.6133 67.8831V65.7737M43.0508 66.0081C43.0508 66.0081 42.6369 65.356 42.2071 65.2581C41.7099 65.1448 40.9883 65.7268 40.9883 65.7268L40.6133 65.7737M48.4883 65.7737C48.4883 65.7737 47.5478 65.223 46.8946 65.2581C46.2077 65.2949 45.3008 66.0081 45.3008 66.0081M45.3008 66.0081V64.7893V63.6643M48.0196 63.6643C48.0196 63.6643 47.437 62.9062 46.8946 62.8206C46.1989 62.7107 45.3008 63.6643 45.3008 63.6643M57.0196 39.2893C57.0196 39.2893 56.0852 40.9343 55.8946 42.1018C55.753 42.969 55.8946 43.4731 55.8946 44.3518C55.8946 44.9742 55.8946 45.9456 55.8946 45.9456V46.6956L56.1758 47.0237M59.8321 44.7268C59.8321 44.7268 59.0384 45.4765 58.5196 45.9456C58.1925 46.2412 58.0341 46.4386 57.6758 46.6956C57.2365 47.0106 56.9082 47.6497 56.4571 47.3518C56.3162 47.2588 56.1758 47.0237 56.1758 47.0237M60.7696 37.6018C60.7696 37.6018 60.4351 39.2168 59.8321 40.0393C59.3413 40.7087 58.2383 41.4456 58.2383 41.4456M35.2696 54.5706C35.416 53.7651 35.57 53.3233 35.6446 52.5081C35.7212 51.6695 35.6446 51.1939 35.6446 50.3518M35.2696 54.5706C35.2696 55.2296 35.2696 56.2581 35.2696 56.2581L35.6446 57.5706L36.6758 58.6956L37.2383 59.0706L38.5508 59.4456H39.6758L40.4727 58.6956L40.9883 57.5706M35.6446 50.3518C35.6446 49.8026 35.6446 50.901 35.6446 50.3518ZM35.6446 50.3518C35.6446 49.8392 35.6446 47.6331 35.6446 47.6331V46.3206M35.6446 46.3206C35.6446 46.3206 35.9789 45.6418 36.3008 45.2893C36.5284 45.04 36.9571 44.7268 36.9571 44.7268L35.6446 46.3206ZM33.0196 44.3518C33.0196 44.3518 33.7253 44.9772 34.2383 45.2893C34.756 45.6043 35.0954 45.6893 35.6446 45.9456" stroke="#725050" stroke-width="0.39"/>
</g>
</g>
<defs>
<filter id="filter0_dd_144_97" x="0" y="0" width="91" height="98" filterUnits="userSpaceOnUse" color-interpolation-filters="sRGB">
<feFlood flood-opacity="0" result="BackgroundImageFix"/>
<feColorMatrix in="SourceAlpha" type="matrix" values="0 0 0 0 0 0 0 0 0 0 0 0 0 0 0 0 0 0 127 0" result="hardAlpha"/>
<feOffset dy="4"/>
<feGaussianBlur stdDeviation="2"/>
<feComposite in2="hardAlpha" operator="out"/>
<feColorMatrix type="matrix" values="0 0 0 0 0 0 0 0 0 0 0 0 0 0 0 0 0 0 0.25 0"/>
<feBlend mode="normal" in2="BackgroundImageFix" result="effect1_dropShadow_144_97"/>
<feColorMatrix in="SourceAlpha" type="matrix" values="0 0 0 0 0 0 0 0 0 0 0 0 0 0 0 0 0 0 127 0" result="hardAlpha"/>
<feOffset dy="4"/>
<feGaussianBlur stdDeviation="2"/>
<feComposite in2="hardAlpha" operator="out"/>
<feColorMatrix type="matrix" values="0 0 0 0 0 0 0 0 0 0 0 0 0 0 0 0 0 0 0.25 0"/>
<feBlend mode="normal" in2="effect1_dropShadow_144_97" result="effect2_dropShadow_144_97"/>
<feBlend mode="normal" in="SourceGraphic" in2="effect2_dropShadow_144_97" result="shape"/>
</filter>
<filter id="filter1_d_144_97" x="0" y="0" width="91" height="98" filterUnits="userSpaceOnUse" color-interpolation-filters="sRGB">
<feFlood flood-opacity="0" result="BackgroundImageFix"/>
<feColorMatrix in="SourceAlpha" type="matrix" values="0 0 0 0 0 0 0 0 0 0 0 0 0 0 0 0 0 0 127 0" result="hardAlpha"/>
<feOffset dy="4"/>
<feGaussianBlur stdDeviation="2"/>
<feComposite in2="hardAlpha" operator="out"/>
<feColorMatrix type="matrix" values="0 0 0 0 0 0 0 0 0 0 0 0 0 0 0 0 0 0 0.25 0"/>
<feBlend mode="normal" in2="BackgroundImageFix" result="effect1_dropShadow_144_97"/>
<feBlend mode="normal" in="SourceGraphic" in2="effect1_dropShadow_144_97" result="shape"/>
</filter>
<filter id="filter2_ddd_144_97" x="25.8049" y="16.2192" width="45.3347" height="69.5295" filterUnits="userSpaceOnUse" color-interpolation-filters="sRGB">
<feFlood flood-opacity="0" result="BackgroundImageFix"/>
<feColorMatrix in="SourceAlpha" type="matrix" values="0 0 0 0 0 0 0 0 0 0 0 0 0 0 0 0 0 0 127 0" result="hardAlpha"/>
<feOffset dy="4"/>
<feGaussianBlur stdDeviation="2"/>
<feComposite in2="hardAlpha" operator="out"/>
<feColorMatrix type="matrix" values="0 0 0 0 0 0 0 0 0 0 0 0 0 0 0 0 0 0 0.25 0"/>
<feBlend mode="normal" in2="BackgroundImageFix" result="effect1_dropShadow_144_97"/>
<feColorMatrix in="SourceAlpha" type="matrix" values="0 0 0 0 0 0 0 0 0 0 0 0 0 0 0 0 0 0 127 0" result="hardAlpha"/>
<feOffset dy="4"/>
<feGaussianBlur stdDeviation="2"/>
<feComposite in2="hardAlpha" operator="out"/>
<feColorMatrix type="matrix" values="0 0 0 0 0 0 0 0 0 0 0 0 0 0 0 0 0 0 0.25 0"/>
<feBlend mode="normal" in2="effect1_dropShadow_144_97" result="effect2_dropShadow_144_97"/>
<feColorMatrix in="SourceAlpha" type="matrix" values="0 0 0 0 0 0 0 0 0 0 0 0 0 0 0 0 0 0 127 0" result="hardAlpha"/>
<feOffset dy="4"/>
<feGaussianBlur stdDeviation="2"/>
<feComposite in2="hardAlpha" operator="out"/>
<feColorMatrix type="matrix" values="0 0 0 0 0 0 0 0 0 0 0 0 0 0 0 0 0 0 0.25 0"/>
<feBlend mode="normal" in2="effect2_dropShadow_144_97" result="effect3_dropShadow_144_97"/>
<feBlend mode="normal" in="SourceGraphic" in2="effect3_dropShadow_144_97" result="shape"/>
</filter>
</defs>
</svg>
