<svg width="91" height="98" viewBox="0 0 91 98" fill="none" xmlns="http://www.w3.org/2000/svg">
<g filter="url(#filter0_dd_163_385)">
<g filter="url(#filter1_d_163_385)">
<g filter="url(#filter2_d_163_385)">
<ellipse cx="45.5" cy="45" rx="41.5" ry="45" fill="#D9D9D9"/>
</g>
</g>
<g filter="url(#filter3_dd_163_385)">
<path d="M55.7172 73.0661L32.9672 74.1911L32.2172 63.0661C24.9047 51.5954 23.7495 45.0176 26.0922 33.0661C26.0922 33.0661 26.659 27.943 29.0922 26.5661C30.8811 25.5538 34.4678 25.9875 34.4678 25.9875C34.4678 25.9875 35.8594 22.5031 37.9672 21.9411C39.5492 21.5193 42.0922 22.6911 42.0922 22.6911C42.0922 22.6911 44.485 19.445 46.7172 19.3161C48.8758 19.1915 51.5922 21.9411 51.5922 21.9411C51.5922 21.9411 53.142 19.559 54.7172 19.3161C56.2136 19.0854 58.3422 20.6911 58.3422 20.6911C58.3422 20.6911 60.5531 15.9957 63.3422 15.1911C66.2936 14.3397 66.3185 16.4428 66.2053 19.3161C66.147 20.7953 66.0521 22.4786 66.3011 24.0681C66.4387 24.9461 66.6812 25.7956 67.0928 26.5662C71.9678 35.6931 55.7172 60.3949 55.7172 60.3949V73.0661Z" fill="#ECCCC0"/>
<path d="M55.7172 60.3949V73.0661L32.9672 74.1911L32.2172 63.0661M55.7172 60.3949C55.7172 60.3949 71.9678 35.6931 67.0928 26.5662C66.6812 25.7956 66.4387 24.9461 66.3011 24.0681M55.7172 60.3949C55.7172 60.3949 50.4552 59.5114 47.7172 57.8161C45.1597 56.2326 42.5922 52.0661 42.5922 52.0661M58.3422 20.6911C58.3422 20.6911 60.5531 15.9957 63.3422 15.1911C66.2936 14.3397 66.3185 16.4428 66.2053 19.3161M58.3422 20.6911C58.3422 20.6911 56.2136 19.0854 54.7172 19.3161C53.142 19.559 51.5922 21.9411 51.5922 21.9411M58.3422 20.6911C58.3422 20.6911 60.7178 40.0681 52.3428 40.0681C48.1655 40.0681 51.5922 21.9411 51.5922 21.9411M58.3422 20.6911C58.3422 20.6911 58.5272 24.0941 58.5272 27.5681C58.5272 32.945 56.2178 43.0661 51.5922 46.5681M51.5922 21.9411C51.5922 21.9411 48.8758 19.1915 46.7172 19.3161C44.485 19.445 42.0922 22.6911 42.0922 22.6911M51.5922 21.9411C51.5922 21.9411 51.2184 41.693 46.2178 42.3181C43.0922 42.7087 42.0922 22.6911 42.0922 22.6911M42.0922 22.6911C42.0922 22.6911 39.5492 21.5193 37.9672 21.9411C35.8594 22.5031 34.4678 25.9875 34.4678 25.9875M42.0922 22.6911C42.0922 22.6911 44.7178 42.3181 40.4678 43.0661C36.8786 43.6979 34.4678 25.9875 34.4678 25.9875M34.4678 25.9875C34.4678 25.9875 30.8811 25.5538 29.0922 26.5661C26.659 27.943 26.0922 33.0661 26.0922 33.0661C23.7495 45.0176 24.9047 51.5954 32.2172 63.0661M34.4678 25.9875C34.4678 25.9875 37.5039 43.0661 33.9678 43.0661C29.7184 43.0661 27.9672 30.3161 27.9672 30.3161M32.2172 63.0661C32.2172 63.0661 36.1548 64.0341 38.3422 63.0661C40.2048 62.2418 42.0922 59.4411 42.0922 59.4411M66.2053 19.3161H63.3422C63.3422 19.3161 63.1061 20.6467 63.3422 21.4431C63.7812 22.9241 66.3011 24.0681 66.3011 24.0681M66.2053 19.3161C66.147 20.7953 66.0521 22.4786 66.3011 24.0681M30.7178 33.0661C30.7178 33.0661 31.4389 31.2862 32.2172 31.5681C32.6404 31.7213 32.9672 32.4431 32.9672 32.4431M36.8428 30.3161C36.8428 30.3161 36.8161 27.7075 37.9672 27.5681C39.0302 27.4393 39.8428 29.5681 39.8428 29.5681M44.7178 29.1931C44.7178 29.1931 45.2026 27.0329 46.2178 27.0681C47.0807 27.0979 47.7172 28.6931 47.7172 28.6931M53.2178 27.5681C53.2178 27.5681 53.8664 25.9878 54.7172 25.9875C55.5683 25.9871 56.2178 27.5681 56.2178 27.5681M63.9678 30.8181C63.9678 30.8181 64.8132 31.5476 65.4678 31.5681C66.1664 31.5899 67.0928 30.8181 67.0928 30.8181M32.2172 40.6931L34.7178 40.4431C34.7178 40.4431 34.9533 39.0626 34.4678 38.4431C34.0636 37.9274 33.5887 37.4858 32.9672 37.6931C32.5743 37.8241 32.4303 38.0879 32.2172 38.4431C31.7651 39.1965 32.2172 40.6931 32.2172 40.6931ZM38.8428 40.0681H41.5928C41.5928 40.0681 41.6109 38.8279 41.2178 38.1931C40.8525 37.6032 40.5279 36.9586 39.8428 37.0681C39.2623 37.1608 38.8428 38.1931 38.8428 38.1931C38.5543 38.8661 38.8428 40.0681 38.8428 40.0681ZM45.3428 39.4431H47.7172C47.7172 39.4431 47.9534 38.3343 47.7172 37.6931C47.5011 37.1065 47.3283 36.5745 46.7172 36.4431C46.1407 36.3191 45.7291 36.6226 45.3428 37.0681C44.7351 37.7688 45.3428 39.4431 45.3428 39.4431ZM51.5922 38.1931H54.7172C54.7172 38.1931 54.9715 37.0774 54.7172 36.4431C54.4215 35.7056 53.9988 34.9226 53.2178 35.0681C52.8049 35.1449 52.6328 35.3894 52.3428 35.6931C51.6386 36.4301 51.5922 38.1931 51.5922 38.1931Z" stroke="#725050" stroke-width="0.3"/>
</g>
</g>
<defs>
<filter id="filter0_dd_163_385" x="0" y="0" width="91" height="98" filterUnits="userSpaceOnUse" color-interpolation-filters="sRGB">
<feFlood flood-opacity="0" result="BackgroundImageFix"/>
<feColorMatrix in="SourceAlpha" type="matrix" values="0 0 0 0 0 0 0 0 0 0 0 0 0 0 0 0 0 0 127 0" result="hardAlpha"/>
<feOffset dy="4"/>
<feGaussianBlur stdDeviation="2"/>
<feComposite in2="hardAlpha" operator="out"/>
<feColorMatrix type="matrix" values="0 0 0 0 0 0 0 0 0 0 0 0 0 0 0 0 0 0 0.25 0"/>
<feBlend mode="normal" in2="BackgroundImageFix" result="effect1_dropShadow_163_385"/>
<feColorMatrix in="SourceAlpha" type="matrix" values="0 0 0 0 0 0 0 0 0 0 0 0 0 0 0 0 0 0 127 0" result="hardAlpha"/>
<feOffset dy="4"/>
<feGaussianBlur stdDeviation="2"/>
<feComposite in2="hardAlpha" operator="out"/>
<feColorMatrix type="matrix" values="0 0 0 0 0 0 0 0 0 0 0 0 0 0 0 0 0 0 0.25 0"/>
<feBlend mode="normal" in2="effect1_dropShadow_163_385" result="effect2_dropShadow_163_385"/>
<feBlend mode="normal" in="SourceGraphic" in2="effect2_dropShadow_163_385" result="shape"/>
</filter>
<filter id="filter1_d_163_385" x="0" y="0" width="91" height="98" filterUnits="userSpaceOnUse" color-interpolation-filters="sRGB">
<feFlood flood-opacity="0" result="BackgroundImageFix"/>
<feColorMatrix in="SourceAlpha" type="matrix" values="0 0 0 0 0 0 0 0 0 0 0 0 0 0 0 0 0 0 127 0" result="hardAlpha"/>
<feOffset dy="4"/>
<feGaussianBlur stdDeviation="2"/>
<feComposite in2="hardAlpha" operator="out"/>
<feColorMatrix type="matrix" values="0 0 0 0 0 0 0 0 0 0 0 0 0 0 0 0 0 0 0.25 0"/>
<feBlend mode="normal" in2="BackgroundImageFix" result="effect1_dropShadow_163_385"/>
<feBlend mode="normal" in="SourceGraphic" in2="effect1_dropShadow_163_385" result="shape"/>
</filter>
<filter id="filter2_d_163_385" x="0" y="0" width="91" height="98" filterUnits="userSpaceOnUse" color-interpolation-filters="sRGB">
<feFlood flood-opacity="0" result="BackgroundImageFix"/>
<feColorMatrix in="SourceAlpha" type="matrix" values="0 0 0 0 0 0 0 0 0 0 0 0 0 0 0 0 0 0 127 0" result="hardAlpha"/>
<feOffset dy="4"/>
<feGaussianBlur stdDeviation="2"/>
<feComposite in2="hardAlpha" operator="out"/>
<feColorMatrix type="matrix" values="0 0 0 0 0 0 0 0 0 0 0 0 0 0 0 0 0 0 0.25 0"/>
<feBlend mode="normal" in2="BackgroundImageFix" result="effect1_dropShadow_163_385"/>
<feBlend mode="normal" in="SourceGraphic" in2="effect1_dropShadow_163_385" result="shape"/>
</filter>
<filter id="filter3_dd_163_385" x="20.85" y="14.8501" width="51.3051" height="67.4982" filterUnits="userSpaceOnUse" color-interpolation-filters="sRGB">
<feFlood flood-opacity="0" result="BackgroundImageFix"/>
<feColorMatrix in="SourceAlpha" type="matrix" values="0 0 0 0 0 0 0 0 0 0 0 0 0 0 0 0 0 0 127 0" result="hardAlpha"/>
<feOffset dy="4"/>
<feGaussianBlur stdDeviation="2"/>
<feComposite in2="hardAlpha" operator="out"/>
<feColorMatrix type="matrix" values="0 0 0 0 0 0 0 0 0 0 0 0 0 0 0 0 0 0 0.25 0"/>
<feBlend mode="normal" in2="BackgroundImageFix" result="effect1_dropShadow_163_385"/>
<feColorMatrix in="SourceAlpha" type="matrix" values="0 0 0 0 0 0 0 0 0 0 0 0 0 0 0 0 0 0 127 0" result="hardAlpha"/>
<feOffset dy="4"/>
<feGaussianBlur stdDeviation="2"/>
<feComposite in2="hardAlpha" operator="out"/>
<feColorMatrix type="matrix" values="0 0 0 0 0 0 0 0 0 0 0 0 0 0 0 0 0 0 0.25 0"/>
<feBlend mode="normal" in2="effect1_dropShadow_163_385" result="effect2_dropShadow_163_385"/>
<feBlend mode="normal" in="SourceGraphic" in2="effect2_dropShadow_163_385" result="shape"/>
</filter>
</defs>
</svg>
