<svg width="83" height="90" viewBox="0 0 83 90" fill="none" xmlns="http://www.w3.org/2000/svg">
<ellipse cx="41.5" cy="45" rx="41.5" ry="45" fill="#D9D9D9"/>
<g filter="url(#filter0_d_146_219)">
<path d="M43.4347 49.2782V46.9559C43.4347 46.1851 43.6729 45.7152 43.4347 44.982C43.2132 44.3002 42.799 44.0612 42.3897 43.4726C41.7578 42.5637 41.2308 42.1542 40.7642 41.1504C40.4619 40.5002 40.1836 40.1256 40.1836 39.4087C40.1836 38.6917 40.7642 37.667 40.7642 37.667C40.7642 37.667 41.2458 37.0649 41.7963 37.0649C42.0253 37.0649 42.221 37.3123 42.4241 37.667C42.4241 37.667 42.008 36.5088 42.3897 35.964C42.7707 35.4203 43.9981 35.4136 43.9981 35.4136L45.6882 35.964L46.3375 36.5145C46.3375 36.5145 48.6386 38.2536 49.5026 39.8172C50.2596 41.187 50.681 41.1504 50.6423 43.6704C50.6036 46.1905 49.8882 49.5253 47.3395 50.8263L44.0368 52.4777L43.4347 49.2782Z" fill="#ECCCC0"/>
<path d="M47.3395 50.8263L46.6859 49.2782C46.8572 47.7917 46.8572 46.933 46.6859 45.4465C46.5962 44.6689 46.5911 44.2131 46.3375 43.4726C45.9949 42.472 45.5709 42.0023 44.9442 41.1504C44.4108 40.4253 43.996 40.1123 43.4347 39.4087C43.0086 38.8745 42.7091 38.1649 42.4241 37.667M47.3395 50.8263L44.0368 52.4777L43.4347 49.2782C43.4347 48.3713 43.4347 47.8628 43.4347 46.9559C43.4347 46.1851 43.6729 45.7152 43.4347 44.982C43.2132 44.3002 42.799 44.0612 42.3897 43.4726C41.7578 42.5637 41.2308 42.1542 40.7642 41.1504C40.4619 40.5002 40.1836 40.1256 40.1836 39.4087C40.1836 38.6917 40.7642 37.667 40.7642 37.667C40.7642 37.667 41.2458 37.0649 41.7963 37.0649C42.0253 37.0649 42.221 37.3123 42.4241 37.667M47.3395 50.8263C49.8882 49.5253 50.6036 46.1905 50.6423 43.6704C50.681 41.1504 50.2596 41.187 49.5026 39.8172C48.6386 38.2536 46.3375 36.5145 46.3375 36.5145L45.6882 35.964L43.9981 35.4136C43.9981 35.4136 42.7707 35.4203 42.3897 35.964C42.008 36.5088 42.4241 37.667 42.4241 37.667" stroke="#725050" stroke-width="0.3"/>
<g filter="url(#filter1_d_146_219)">
<path fill-rule="evenodd" clip-rule="evenodd" d="M38.8955 28.4051C39.2258 28.2556 39.4154 28.181 39.7579 28.0659C39.7579 28.0659 40.6568 27.915 42.0218 27.7347C45.7468 27.2425 52.9432 26.5306 54.8132 28.0659C57.3685 30.1637 59.5625 37.0231 59.9238 43.3294C60.3831 51.3471 58.8015 56.5792 54.2033 63.0024C50.5985 68.0379 42.0218 72.8389 42.0218 72.8389C41.7079 73.8962 41.467 74.4775 40.9437 75.4393C40.8474 75.6165 40.7657 75.7812 40.6886 75.9366C40.4417 76.4345 40.2421 76.8372 39.7579 77.2484C39.7579 77.2484 24.2177 69.4648 24.1267 68.5425C24.1099 68.3725 24.0914 68.215 24.0739 68.0654C23.9962 67.4033 23.9369 66.8979 24.1267 66.1682C24.3001 65.5014 24.8813 64.5853 24.8813 64.5853C24.8813 64.5853 24.1268 62.3859 24.1267 60.7346C24.1267 59.0832 28.0076 29.0834 28.0076 29.0834C28.084 28.835 28.1578 28.6171 28.2271 28.4125C28.4138 27.8614 28.5678 27.4065 28.6544 26.7091C28.7213 26.1696 28.7014 25.7791 28.6792 25.3425C28.6671 25.1059 28.6544 24.8557 28.6544 24.5609V18.6688V14.046C28.6544 14.046 28.0076 10.0926 31.9267 11.1936C35.8459 12.2947 38.1409 29.0834 38.1409 29.0834C38.1409 29.0834 37.8616 30.6126 37.6019 31.5708C37.5263 31.8497 37.4702 32.1022 37.4174 32.3398C37.2744 32.9837 37.297 33.6597 36.8809 34.3127L36.3304 36.5145C36.3304 36.5145 34.6915 49.2718 40.7341 51.9273C44.7769 53.7039 47.6274 50.1132 47.6274 50.1132C51.1116 43.8215 50.8116 40.7316 45.148 36.2064L43.6388 35.415C43.6388 35.415 42.6218 35.1519 42.0218 34.8497L39.7579 33.4929C39.6071 33.3997 39.4662 33.3317 39.3333 33.2675C39.0494 33.1304 38.8018 33.0109 38.5721 32.7015C38.2935 32.3262 38.2276 32.0376 38.1409 31.5708C38.0835 31.2616 38.1006 31.0347 38.1196 30.7808C38.13 30.6433 38.1409 30.4978 38.1409 30.3271V29.0834L38.8955 28.4051Z" fill="#ECCCC0"/>
<path d="M24.8813 64.5853C24.8813 64.5853 24.1268 62.3859 24.1267 60.7346C24.1267 59.0832 28.0076 29.0834 28.0076 29.0834C28.084 28.835 28.1578 28.6171 28.2271 28.4125C28.4138 27.8614 28.5678 27.4065 28.6544 26.7091M24.8813 64.5853C24.8813 64.5853 24.3001 65.5014 24.1267 66.1682C23.9369 66.8979 23.9962 67.4033 24.0739 68.0654C24.0914 68.215 24.1099 68.3725 24.1267 68.5425C24.2177 69.4648 39.7579 77.2484 39.7579 77.2484C40.2421 76.8372 40.4417 76.4345 40.6886 75.9366C40.7657 75.7812 40.8474 75.6165 40.9437 75.4393C41.467 74.4775 41.7079 73.8962 42.0218 72.8389M24.8813 64.5853L42.0218 72.8389M39.7579 28.0659C39.4154 28.181 39.2258 28.2556 38.8955 28.4051M39.7579 28.0659V31.5708C39.7579 31.5708 41.249 32.0213 42.0218 31.5708C42.5595 31.2574 42.8645 30.9394 43.0588 30.3271C43.3895 29.2854 42.0218 27.7347 42.0218 27.7347M39.7579 28.0659C39.7579 28.0659 40.6568 27.915 42.0218 27.7347M38.8955 28.4051C38.6008 28.67 38.4356 28.8185 38.1409 29.0834M38.8955 28.4051L38.1409 29.0834M38.1409 29.0834C38.1409 29.5691 38.1409 29.8414 38.1409 30.3271M38.1409 29.0834C38.1409 29.0834 37.8616 30.6126 37.6019 31.5708C37.5263 31.8497 37.4702 32.1022 37.4174 32.3398C37.2744 32.9837 37.297 33.6597 36.8809 34.3127L36.3304 36.5145C36.3304 36.5145 34.6915 49.2718 40.7341 51.9273C44.7769 53.7039 47.6274 50.1132 47.6274 50.1132C51.1116 43.8215 50.8116 40.7316 45.148 36.2064M38.1409 29.0834C38.1409 29.0834 35.8459 12.2947 31.9267 11.1936C28.0076 10.0926 28.6544 14.046 28.6544 14.046M38.1409 29.0834V30.3271M38.1409 30.3271C38.1409 30.4978 38.13 30.6433 38.1196 30.7808C38.1006 31.0347 38.0835 31.2616 38.1409 31.5708C38.2276 32.0376 38.2935 32.3262 38.5721 32.7015C38.8018 33.0109 39.0494 33.1304 39.3333 33.2675C39.4662 33.3317 39.6071 33.3997 39.7579 33.4929L42.0218 34.8497C42.6218 35.1519 43.6388 35.415 43.6388 35.415M43.6388 35.415C43.6388 35.415 44.5586 35.8973 45.148 36.2064M43.6388 35.415L45.148 36.2064M28.6544 14.046H30.7933V17.0608L28.6544 18.6688M28.6544 14.046V18.6688M28.6544 24.5609C28.6544 24.5609 29.2706 25.4041 29.8402 25.4654M28.6544 24.5609V18.6688M28.6544 24.5609C28.6544 24.8557 28.6671 25.1059 28.6792 25.3425C28.7014 25.7791 28.7213 26.1696 28.6544 26.7091M28.6544 26.7091C28.6544 26.7091 29.2202 27.211 29.6554 27.224M42.0218 72.8389C42.0218 72.8389 50.5985 68.0379 54.2033 63.0024C58.8015 56.5792 60.3831 51.3471 59.9238 43.3294C59.5625 37.0231 57.3685 30.1637 54.8132 28.0659C52.9432 26.5306 45.7468 27.2425 42.0218 27.7347" stroke="#725050" stroke-width="0.3"/>
</g>
</g>
<defs>
<filter id="filter0_d_146_219" x="19.8501" y="10.8501" width="44.2998" height="74.5769" filterUnits="userSpaceOnUse" color-interpolation-filters="sRGB">
<feFlood flood-opacity="0" result="BackgroundImageFix"/>
<feColorMatrix in="SourceAlpha" type="matrix" values="0 0 0 0 0 0 0 0 0 0 0 0 0 0 0 0 0 0 127 0" result="hardAlpha"/>
<feOffset dy="4"/>
<feGaussianBlur stdDeviation="2"/>
<feComposite in2="hardAlpha" operator="out"/>
<feColorMatrix type="matrix" values="0 0 0 0 0 0 0 0 0 0 0 0 0 0 0 0 0 0 0.25 0"/>
<feBlend mode="normal" in2="BackgroundImageFix" result="effect1_dropShadow_146_219"/>
<feBlend mode="normal" in="SourceGraphic" in2="effect1_dropShadow_146_219" result="shape"/>
</filter>
<filter id="filter1_d_146_219" x="22.9212" y="10.8501" width="38.1576" height="68.4347" filterUnits="userSpaceOnUse" color-interpolation-filters="sRGB">
<feFlood flood-opacity="0" result="BackgroundImageFix"/>
<feColorMatrix in="SourceAlpha" type="matrix" values="0 0 0 0 0 0 0 0 0 0 0 0 0 0 0 0 0 0 127 0" result="hardAlpha"/>
<feOffset dy="0.928894"/>
<feGaussianBlur stdDeviation="0.464447"/>
<feComposite in2="hardAlpha" operator="out"/>
<feColorMatrix type="matrix" values="0 0 0 0 0 0 0 0 0 0 0 0 0 0 0 0 0 0 0.25 0"/>
<feBlend mode="normal" in2="BackgroundImageFix" result="effect1_dropShadow_146_219"/>
<feBlend mode="normal" in="SourceGraphic" in2="effect1_dropShadow_146_219" result="shape"/>
</filter>
</defs>
</svg>
