<svg width="91" height="98" viewBox="0 0 91 98" fill="none" xmlns="http://www.w3.org/2000/svg">
<g filter="url(#filter0_d_140_66)">
<ellipse cx="45.5" cy="45" rx="41.5" ry="45" fill="#D9D9D9"/>
</g>
<g filter="url(#filter1_d_140_66)">
<path d="M61.7019 49.4445L61.0747 51.1502C61.0747 51.1502 58.8805 57.4266 56.8102 61.1407C54.5653 65.1683 49.9117 70.7658 49.9117 70.7658V70.8876L49.2846 81H28.7146L25.8297 70.7658C25.8297 70.7658 23.1857 63.9103 22.4432 59.3132C21.6231 54.2358 22.1924 46.1549 22.1924 46.1549C22.1924 45.1038 22.4432 43.4745 22.4432 43.4745C22.4432 43.4745 22.3055 42.0537 22.4432 41.1596C22.5328 40.5776 22.4774 40.1833 22.8195 39.6976C23.0745 39.3356 23.2936 39.1628 23.6975 38.9666C24.1014 38.7704 24.3786 38.7806 24.8263 38.7229C25.5061 38.6353 26.136 39.2287 26.5823 38.7229C26.8452 38.425 26.8332 37.7482 26.8332 37.7482V36.1644C26.8332 35.4507 26.6478 35.2767 27.084 34.7023C27.462 34.2046 27.7625 33.87 28.3383 33.6058C28.9922 33.3058 29.2648 33.0356 29.9688 32.8748L29.9733 32.8738C30.5907 32.7327 31.0136 32.6362 31.5994 32.8748C32.0796 33.0704 32.6028 33.7276 32.6028 33.7276L33.8571 35.5552C34.2979 35.7931 34.4823 36.1896 34.9859 36.1644C35.4474 36.1413 35.6704 35.88 35.9893 35.5552C36.3673 35.1702 36.4554 34.8453 36.6165 34.3368C36.9046 33.4273 36.8148 32.8503 36.8673 31.9001C36.9175 30.9924 36.8148 30.4928 36.8673 29.5852C36.9278 28.5401 36.8673 26.9048 36.8673 26.9048V24.2244V21.1785V18.4981V16.3051V13.7465C36.8673 13.7465 36.7999 12.2592 36.8673 11.3098C36.9217 10.5444 36.9439 10.1262 36.9927 9.36046C37.0413 8.60064 36.9361 8.15153 37.1182 7.41107C37.2963 6.6867 37.4204 6.1972 37.9962 5.70537C38.4406 5.32569 38.7973 5.21748 39.3759 5.09619C39.9504 4.97573 40.3101 4.96037 40.881 5.09619C41.4129 5.22272 41.7198 5.35881 42.1353 5.70537C42.8334 6.28775 42.9221 6.90773 43.1387 7.77658C43.3922 8.79395 43.2641 9.53206 43.2641 10.5788C43.2641 11.8635 43.1387 13.7465 43.1387 13.7465V16.6706V20.082V22.8842L43.0132 25.9301L42.8878 28.6105C42.8878 28.6105 42.7624 31.0076 42.7624 32.3875C42.7624 33.2439 43.2641 34.0932 43.2641 34.0932C43.2641 34.0932 43.8691 34.5201 44.2675 34.3368C44.5805 34.1928 44.7008 34.0065 44.8946 33.7276C45.2604 33.2016 45.2709 32.1438 45.2709 32.1438L45.6472 30.0726L46.1489 26.9048L46.6506 24.5899L47.1523 22.3969L47.654 20.082L48.0303 18.0108L48.2812 15.6959V13.7465V10.9443C48.2812 10.3258 48.2435 10.0915 48.4066 9.48229C48.561 8.9053 48.6575 8.5076 49.1592 8.1421C49.407 7.96154 49.4825 7.83559 49.7863 7.77658C50.2666 7.68327 50.5525 7.6144 51.0406 7.65475C51.5862 7.69986 51.9549 7.73988 52.4203 8.02025C52.8041 8.25145 52.8984 8.52472 53.1728 8.8731C53.4948 9.28183 53.7473 9.82304 53.8 10.3351C53.9254 11.5535 53.9254 11.826 53.9254 13.0155V15.6959V18.1326V21.1785C53.9254 22.1301 54.0099 22.6672 53.9254 23.6153C53.8483 24.4803 53.5491 25.8083 53.5491 25.8083L53.1728 28.0014L52.4203 30.9254L52.044 33.7276V35.5552V37.7482V39.6976V42.0125V43.1699V44.3274C52.044 44.8983 51.9733 45.2226 52.044 45.7894C52.1169 46.3737 51.8619 47.023 52.4203 47.2514C52.6911 47.3622 52.8847 47.3077 53.1728 47.2514C53.759 47.137 53.9581 46.7588 54.4271 46.3986C54.8898 46.0432 55.556 45.4239 55.556 45.4239C55.556 45.4239 56.4071 44.8337 56.8102 44.3274C57.3063 43.7044 57.8136 42.4998 57.8136 42.4998L58.4408 41.1596L59.4442 39.6976L60.573 38.3574L61.0747 37.8159L61.9527 37.139L63.207 36.1644L64.3358 35.5552L65.7155 35.0678L67.0952 34.7023C67.0952 34.7023 68.0896 34.6756 68.7258 34.7023C69.3151 34.7271 69.6767 34.628 70.2309 34.8242C70.7287 35.0003 71.0192 35.1609 71.3598 35.5552C71.6413 35.8812 71.7552 36.117 71.8615 36.5299C71.9803 36.9915 72.1023 37.3339 71.8615 37.7482C71.6543 38.1047 71.3422 38.1427 70.9835 38.3574C70.5172 38.6364 70.2095 38.711 69.7292 38.9666C69.2282 39.2332 68.9313 39.3639 68.4749 39.6976C67.8662 40.1428 67.5938 40.478 67.0952 41.0378C66.6146 41.5776 66.3712 41.9042 65.9664 42.4998C65.5914 43.0514 65.0884 43.9619 65.0884 43.9619C65.0884 43.9619 64.6706 44.8746 64.3358 45.4239C63.8717 46.1855 62.9561 47.2514 62.9561 47.2514L61.7019 49.4445Z" fill="#ECCCC0"/>
<path d="M49.9117 70.7658C49.9117 70.7658 54.5653 65.1683 56.8102 61.1407C58.8805 57.4266 61.0747 51.1502 61.0747 51.1502L61.7019 49.4445L62.9561 47.2514C62.9561 47.2514 63.8717 46.1855 64.3358 45.4239C64.6706 44.8746 65.0884 43.9619 65.0884 43.9619C65.0884 43.9619 65.5914 43.0514 65.9664 42.4998C66.3712 41.9042 66.6146 41.5776 67.0952 41.0378C67.5938 40.478 67.8662 40.1428 68.4749 39.6976C68.9313 39.3639 69.2282 39.2332 69.7292 38.9666C70.2095 38.711 70.5172 38.6364 70.9835 38.3574C71.3422 38.1427 71.6543 38.1047 71.8615 37.7482C72.1023 37.3339 71.9803 36.9915 71.8615 36.5299C71.7552 36.117 71.6414 35.8812 71.3598 35.5552C71.0192 35.1609 70.7287 35.0003 70.2309 34.8242C69.6767 34.628 69.3151 34.7271 68.7258 34.7023C68.0896 34.6756 67.0952 34.7023 67.0952 34.7023L65.7155 35.0678L64.3358 35.5552L63.207 36.1644L61.9527 37.139L61.0747 37.8159M49.9117 70.7658V70.8876L49.2846 81H28.7146L25.8297 70.7658C25.8297 70.7658 23.1857 63.9103 22.4432 59.3132C21.6231 54.2358 22.1924 46.1549 22.1924 46.1549C22.1924 45.1038 22.4432 43.4745 22.4432 43.4745M49.9117 70.7658C49.9117 70.7658 44.2036 69.2549 41.3827 66.9889C38.8763 64.9755 36.3656 60.5316 36.3656 60.5316M58.4408 41.1596L59.4442 39.6976L60.573 38.3574L61.0747 37.8159M58.4408 41.1596L57.8136 42.4998C57.8136 42.4998 57.3063 43.7044 56.8102 44.3274C56.4071 44.8337 55.556 45.4239 55.556 45.4239C55.556 45.4239 54.8898 46.0432 54.4271 46.3986C53.9581 46.7588 53.759 47.137 53.1728 47.2514C52.8847 47.3077 52.6911 47.3622 52.4203 47.2514C51.8619 47.023 52.1169 46.3737 52.044 45.7894C51.9733 45.2226 52.044 44.8983 52.044 44.3274C52.044 43.8754 52.044 43.1699 52.044 43.1699M58.4408 41.1596C58.4408 41.1596 59.0414 40.9456 59.4442 40.916C59.8865 40.8834 60.149 40.9113 60.573 41.0378C61.1191 41.2008 61.8273 41.7688 61.8273 41.7688M33.8571 35.5552C34.2979 35.7931 34.4823 36.1896 34.9859 36.1644C35.4474 36.1413 35.6704 35.88 35.9893 35.5552C36.3673 35.1702 36.4554 34.8453 36.6165 34.3368C36.9046 33.4273 36.8148 32.8503 36.8673 31.9001C36.9175 30.9924 36.8148 30.4928 36.8673 29.5852C36.9278 28.5401 36.8673 26.9048 36.8673 26.9048V24.2244V21.1785V18.4981V16.3051V13.7465C36.8673 13.7465 36.7999 12.2592 36.8673 11.3098C36.9217 10.5444 36.9439 10.1262 36.9927 9.36045C37.0413 8.60064 36.9361 8.15153 37.1182 7.41107C37.2963 6.6867 37.4204 6.1972 37.9962 5.70537C38.4406 5.32569 38.7973 5.21748 39.3759 5.09619C39.9504 4.97573 40.3101 4.96037 40.881 5.09619C41.4129 5.22272 41.7198 5.35881 42.1353 5.70537C42.8334 6.28775 42.9221 6.90773 43.1387 7.77658C43.3922 8.79395 43.2641 9.53206 43.2641 10.5788C43.2641 11.8635 43.1387 13.7465 43.1387 13.7465V16.6706V20.082V22.8842L43.0132 25.9301L42.8878 28.6105C42.8878 28.6105 42.7624 31.0076 42.7624 32.3875C42.7624 33.2439 43.2641 34.0932 43.2641 34.0932C43.2641 34.0932 43.8691 34.5201 44.2675 34.3368C44.5805 34.1928 44.7008 34.0065 44.8946 33.7276C45.2604 33.2016 45.2709 32.1438 45.2709 32.1438L45.6472 30.0726L46.1489 26.9048L46.6506 24.5899L47.1523 22.3969L47.654 20.082L48.0303 18.0108L48.2812 15.6959V13.7465C48.2812 13.7465 48.2812 12.0387 48.2812 10.9443C48.2812 10.3258 48.2435 10.0915 48.4066 9.48229C48.561 8.9053 48.6575 8.5076 49.1592 8.1421C49.407 7.96154 49.4825 7.83559 49.7863 7.77658C50.2666 7.68327 50.5525 7.6144 51.0406 7.65475C51.5862 7.69986 51.9549 7.73988 52.4203 8.02025C52.8041 8.25145 52.8984 8.52472 53.1728 8.8731C53.4948 9.28183 53.7473 9.82304 53.8 10.3351C53.9254 11.5535 53.9254 11.826 53.9254 13.0155C53.9254 14.0623 53.9254 15.6959 53.9254 15.6959V18.1326C53.9254 18.1326 53.9254 19.989 53.9254 21.1785C53.9254 22.1301 54.0099 22.6672 53.9254 23.6153C53.8483 24.4803 53.5491 25.8083 53.5491 25.8083L53.1728 28.0014L52.4203 30.9254L52.044 33.7276V35.5552V37.7482V39.6976V42.0125V43.1699M33.8571 35.5552C33.3672 34.8415 33.0926 34.4413 32.6028 33.7276C32.6028 33.7276 32.0796 33.0704 31.5994 32.8748C31.0122 32.6356 30.5887 32.7332 29.9688 32.8748C29.2648 33.0356 28.9922 33.3058 28.3383 33.6058C27.7625 33.87 27.462 34.2046 27.084 34.7023C26.6478 35.2767 26.8332 35.4507 26.8332 36.1644C26.8332 36.7829 26.8332 37.7482 26.8332 37.7482M33.8571 35.5552C33.7591 35.6979 33.6787 35.7642 33.6062 35.9207C33.3617 36.4485 33.7143 36.8207 33.8571 37.3827C34.0055 37.967 34.3588 38.8448 34.3588 38.8448C34.3588 38.8448 34.7553 39.7302 34.9859 40.3068C35.2497 40.9661 35.3169 41.3663 35.613 42.0125C35.9787 42.8105 36.3102 43.1956 36.7419 43.9619C37.1416 44.6714 37.4441 45.0353 37.7453 45.7894C38.0203 46.478 38.1499 46.8843 38.247 47.6169C38.3408 48.3248 38.5093 48.7778 38.247 49.4445C38.0231 50.0137 37.2436 50.6628 37.2436 50.6628C37.2436 50.6628 36.541 51.2501 35.9893 51.3939C35.4689 51.5295 35.1484 51.3939 34.6096 51.3939C34.1688 51.3939 33.9216 51.3939 33.4808 51.3939M26.8332 37.7482C26.8332 37.7482 26.8452 38.425 26.5823 38.7229C26.136 39.2287 25.5061 38.6353 24.8263 38.7229C24.3786 38.7806 24.1014 38.7704 23.6975 38.9666C23.2936 39.1628 23.0745 39.3356 22.8195 39.6976C22.4774 40.1833 22.5328 40.5776 22.4432 41.1596C22.3055 42.0537 22.4432 43.4745 22.4432 43.4745M26.8332 37.7482C26.8332 37.7482 27.2609 38.9483 27.5857 39.6976C27.8154 40.2275 27.9959 40.5029 28.2128 41.0378C28.44 41.5977 28.4896 41.939 28.7146 42.4998C29.0089 43.2337 29.5925 44.3274 29.5925 44.3274M22.4432 43.4745L23.6975 45.4239L24.8263 47.6169M24.8263 47.6169L25.9552 49.4445L27.084 51.3939L27.962 52.6122L29.0908 54.1961C29.0908 54.1961 29.8986 54.7221 30.4705 54.6834C30.9518 54.6509 31.5994 54.1961 31.5994 54.1961L32.6028 53.5869C32.6028 53.5869 33.3033 53.0877 33.4808 52.6122C33.6478 52.1649 33.4808 51.8697 33.4808 51.3939M24.8263 47.6169C24.8263 47.6169 24.8839 46.6751 25.328 46.3986C25.7404 46.1418 26.5823 46.3986 26.5823 46.3986M33.4808 51.3939C32.6971 50.2995 31.474 48.5916 31.474 48.5916L30.4705 46.3986L29.5925 44.3274M29.5925 44.3274C29.5925 44.3274 29.9818 43.4697 30.4705 43.1699C30.8574 42.9326 31.5994 42.8653 31.5994 42.8653M39.8776 46.3986C39.8776 46.3986 40.8819 45.8208 41.5081 45.4239C42.1567 45.0128 42.4677 44.7031 43.1387 44.3274C43.8411 43.934 44.2624 43.7548 45.0201 43.4745C45.8312 43.1744 46.3072 43.0572 47.1523 42.8653C47.9757 42.6784 48.4401 42.5411 49.2846 42.4998C49.627 42.4831 49.8217 42.4644 50.1626 42.4998C50.9407 42.5806 52.044 43.1699 52.044 43.1699M27.084 72.106C27.084 72.106 30.3263 71.6318 32.1011 70.6439C33.4887 69.8716 35.2368 68.0854 35.2368 68.0854M63.7087 38.3574C63.7087 38.3574 62.8354 37.8251 62.2036 37.7482C61.7653 37.6949 61.0747 37.8159 61.0747 37.8159M37.9962 24.2244C37.9962 24.2244 38.6537 23.578 39.3759 23.6153C39.7938 23.6368 40.6301 23.7371 40.6301 23.7371M38.247 14.112C38.247 14.112 39.0133 13.6112 39.6267 13.5029C40.2733 13.3887 40.881 13.7465 40.881 13.7465M48.2812 24.2244C48.2812 24.2244 49.2627 23.4767 50.1626 23.6153C51.0239 23.7479 51.5423 24.5899 51.5423 24.5899M49.2846 16.6706C49.2846 16.6706 50.0886 15.7312 51.0406 16.1833C51.6519 16.4736 52.4203 16.6706 52.4203 16.6706M34.3588 50.541C34.3588 50.541 34.7526 50.1805 35.2368 49.9318C35.935 49.5732 36.3088 49.3778 36.8673 48.8353C37.1182 48.5916 37.4382 48.5523 37.369 48.2261C37.2807 47.8093 36.8673 47.2514 36.8673 47.2514C36.8673 47.2514 36.3656 46.5204 36.1148 46.3986C35.8639 46.2767 35.4505 45.7993 34.9859 45.7894C34.3493 45.7758 33.9825 46.3174 33.6062 46.5204L32.9791 47.1296C32.9791 47.1296 32.6171 47.6363 32.6028 47.9825C32.5773 48.6005 33.2299 49.4445 33.2299 49.4445L34.3588 50.541ZM29.9688 53.8306L30.9722 53.2214L32.1011 52.3686L31.5994 51.3939C31.5994 51.3939 31.092 50.3709 30.4705 50.4192C30.0505 50.4518 29.5925 50.7847 29.5925 50.7847C29.5925 50.7847 29.2183 51.0739 29.0908 51.3939C28.8787 51.9263 29.1225 52.3261 29.3417 52.8559C29.5359 53.3252 29.9688 53.8306 29.9688 53.8306Z" stroke="#725050" stroke-width="0.3"/>
</g>
<defs>
<filter id="filter0_d_140_66" x="0" y="0" width="91" height="98" filterUnits="userSpaceOnUse" color-interpolation-filters="sRGB">
<feFlood flood-opacity="0" result="BackgroundImageFix"/>
<feColorMatrix in="SourceAlpha" type="matrix" values="0 0 0 0 0 0 0 0 0 0 0 0 0 0 0 0 0 0 127 0" result="hardAlpha"/>
<feOffset dy="4"/>
<feGaussianBlur stdDeviation="2"/>
<feComposite in2="hardAlpha" operator="out"/>
<feColorMatrix type="matrix" values="0 0 0 0 0 0 0 0 0 0 0 0 0 0 0 0 0 0 0.25 0"/>
<feBlend mode="normal" in2="BackgroundImageFix" result="effect1_dropShadow_140_66"/>
<feBlend mode="normal" in="SourceGraphic" in2="effect1_dropShadow_140_66" result="shape"/>
</filter>
<filter id="filter1_d_140_66" x="16.6501" y="4.8501" width="60.6998" height="86.6998" filterUnits="userSpaceOnUse" color-interpolation-filters="sRGB">
<feFlood flood-opacity="0" result="BackgroundImageFix"/>
<feColorMatrix in="SourceAlpha" type="matrix" values="0 0 0 0 0 0 0 0 0 0 0 0 0 0 0 0 0 0 127 0" result="hardAlpha"/>
<feOffset dy="5.2"/>
<feGaussianBlur stdDeviation="2.6"/>
<feComposite in2="hardAlpha" operator="out"/>
<feColorMatrix type="matrix" values="0 0 0 0 0 0 0 0 0 0 0 0 0 0 0 0 0 0 0.25 0"/>
<feBlend mode="normal" in2="BackgroundImageFix" result="effect1_dropShadow_140_66"/>
<feBlend mode="normal" in="SourceGraphic" in2="effect1_dropShadow_140_66" result="shape"/>
</filter>
</defs>
</svg>
