<svg width="91" height="98" viewBox="0 0 91 98" fill="none" xmlns="http://www.w3.org/2000/svg">
<g filter="url(#filter0_dd_144_94)">
<g filter="url(#filter1_d_144_94)">
<ellipse cx="45.5" cy="45" rx="41.5" ry="45" fill="#D9D9D9"/>
</g>
<g filter="url(#filter2_dd_144_94)">
<g filter="url(#filter3_d_144_94)">
<path d="M61.6584 58.875C61.4909 59.3129 61.1617 59.4654 60.7209 59.625C60.0587 59.8648 59.6026 59.5812 58.9396 59.3438C58.1651 59.0663 57.7449 58.7957 57.1584 58.2188C56.5937 57.6634 56.0334 56.5312 56.0334 56.5312L55.1896 54.8438L54.6271 52.875L54.3459 51.375V54.8438V58.875V63.375C54.3459 65.2788 54.5375 66.3559 54.3459 68.25C54.2677 69.0227 54.2153 69.4569 54.0646 70.2188C53.8957 71.0725 54.1373 71.7802 53.5021 72.375C53.0455 72.8026 52.6276 72.9267 52.0021 72.9375C51.2475 72.9506 50.817 72.6505 50.2209 72.1875C49.4911 71.6207 49.1851 71.1004 48.9084 70.2188C48.6123 69.2756 48.9084 68.676 48.9084 67.6875V63.8438V63.0692V60.5625C48.6185 60.8323 48.4252 60.9612 48.0646 61.125C47.6199 61.3271 47.332 61.3589 46.8459 61.4062C46.4815 61.4417 46.2708 61.4579 45.9084 61.4062C45.1463 61.2977 44.7506 61.0139 44.1271 60.5625C43.8955 60.3948 43.5646 60.0938 43.5646 60.0938L43.1896 59.4844C43.1896 59.4844 42.98 59.8685 42.8146 60.0938C42.5081 60.5111 42.3476 60.8151 41.8771 61.0312C41.3116 61.2911 40.9006 61.1113 40.2834 61.0312C39.6051 60.9432 39.1665 60.9396 38.5959 60.5625C38.0757 60.2187 37.8836 59.8794 37.5646 59.3438C37.1499 58.6474 37.1414 58.1512 36.9084 57.375C36.6147 56.3969 36.2521 54.8438 36.2521 54.8438L35.6896 52.875C35.7643 53.3321 35.6486 53.6791 35.3146 54C34.9366 54.3632 34.5243 54.2358 34.0021 54.2812C33.6374 54.313 33.4248 54.3467 33.0646 54.2812C32.5008 54.1787 32.2333 53.9362 31.7521 53.625C31.1419 53.2304 30.6601 52.875 30.3459 52.4062C29.4031 51 30.5604 46.2883 31.7521 41.8125L38.2521 18H53.5021L59.5021 33.6562C59.5021 33.6562 61.8538 41.2814 60.26 49.0001L60.7845 54.2812C60.9731 55.101 61.1223 55.6331 61.2834 56.5312C61.3652 56.9874 61.4063 57.2442 61.4709 57.7031C61.7632 58.0627 61.8239 58.4421 61.6584 58.875Z" fill="#ECCCC0"/>
<path d="M54.3459 51.375L54.6271 52.875L55.1896 54.8438L56.0334 56.5312C56.0334 56.5312 56.5937 57.6634 57.1584 58.2188C57.7449 58.7957 58.1651 59.0663 58.9396 59.3438C59.6026 59.5812 60.0587 59.8648 60.7209 59.625C61.1617 59.4654 61.4909 59.3129 61.6584 58.875C61.8239 58.4421 61.7632 58.0627 61.4709 57.7031M54.3459 51.375V54.8438V58.875C54.3459 58.875 54.3459 61.6176 54.3459 63.375C54.3459 65.2788 54.5375 66.3559 54.3459 68.25C54.2677 69.0227 54.2153 69.4569 54.0646 70.2188C53.8957 71.0725 54.1373 71.7802 53.5021 72.375C53.0455 72.8026 52.6276 72.9267 52.0021 72.9375C51.2475 72.9506 50.817 72.6505 50.2209 72.1875C49.4911 71.6207 49.1851 71.1004 48.9084 70.2188C48.6123 69.2756 48.9084 68.676 48.9084 67.6875C48.9084 66.1864 48.9084 63.8438 48.9084 63.8438C48.9084 63.8438 48.9084 63.529 48.9084 63.0692M54.3459 51.375C51.0957 48.3438 50.8771 46.1876 50.8771 43.125M48.9084 60.5625C48.6887 59.3177 48.3459 57.375 48.3459 57.375L47.5959 54.8438L46.8459 52.875C46.8459 52.875 46.6382 52.0815 46.5646 51.5625C46.4976 51.0899 46.4709 50.3438 46.4709 50.3438M48.9084 60.5625C48.6185 60.8323 48.4252 60.9612 48.0646 61.125C47.6199 61.3271 47.332 61.3589 46.8459 61.4062C46.4815 61.4417 46.2708 61.4579 45.9084 61.4062C45.1463 61.2977 44.7506 61.0139 44.1271 60.5625C43.8955 60.3948 43.5646 60.0938 43.5646 60.0938L43.1896 59.4844M48.9084 60.5625C48.9084 61.3355 48.9084 62.3701 48.9084 63.0692M40.6584 51C40.7334 51.3 41.0021 53.125 41.1271 54L41.5021 55.7812L42.1584 57.8438L42.8146 58.875L43.1896 59.4844M32.9709 46.9688C33.2709 46.9688 33.9709 47.4063 34.2834 47.625C34.5959 47.8437 34.9164 47.685 35.3146 47.625L36.2521 47.3438L36.9084 46.9688M38.5959 49.5C38.5959 49.5 39.0332 50.1158 39.4396 50.3438C39.8346 50.5653 40.1145 50.5755 40.5646 50.625H41.5021L42.1584 50.3438M45.1584 49.5C45.1584 49.5 46.1587 49.9607 46.8459 50.0625C47.4253 50.1483 48.3459 50.0625 48.3459 50.0625M34.7521 48.0938L35.3146 50.3438C35.3146 50.3438 35.5432 51.8865 35.6896 52.875M35.6896 52.875C35.9093 53.6438 36.2521 54.8438 36.2521 54.8438C36.2521 54.8438 36.6147 56.3969 36.9084 57.375C37.1414 58.1512 37.1499 58.6474 37.5646 59.3438C37.8836 59.8794 38.0757 60.2187 38.5959 60.5625C39.1665 60.9396 39.6051 60.9432 40.2834 61.0312C40.9006 61.1113 41.3116 61.2911 41.8771 61.0312C42.3476 60.8151 42.5081 60.5111 42.8146 60.0938C42.98 59.8685 43.1896 59.4844 43.1896 59.4844M35.6896 52.875C35.7643 53.332 35.6486 53.6791 35.3146 54C34.9366 54.3632 34.5243 54.2358 34.0021 54.2812C33.6374 54.313 33.4248 54.3467 33.0646 54.2812C32.5008 54.1787 32.2333 53.9362 31.7521 53.625C31.1419 53.2304 30.6601 52.875 30.3459 52.4062C29.4031 51 30.5604 46.2883 31.7521 41.8125L38.2521 18H53.5021L59.5021 33.6562C59.5021 33.6562 61.8538 41.2814 60.26 49.0001L60.7845 54.2812M61.4709 57.7031C61.4063 57.2442 61.3652 56.9874 61.2834 56.5312C61.1223 55.6331 60.9731 55.101 60.7845 54.2812M61.4709 57.7031C60.9191 57.6915 60.6032 57.7231 60.0646 57.8438C59.6127 57.945 59.3804 58.3607 58.9396 58.2188C58.297 58.0118 58.6374 57.2024 58.5646 56.5312C58.4936 55.8761 58.1734 55.3741 58.5646 54.8438C58.8181 54.5002 59.1079 54.4452 59.5021 54.2812C59.9531 54.0936 60.2333 54.029 60.7209 54C60.7426 54.0978 60.7638 54.1913 60.7845 54.2812M50.8771 63.375C50.8771 63.375 50.5267 63.7685 50.2209 63.8438C49.6429 63.9859 48.9084 63.0692 48.9084 63.0692M50.8771 71.25C50.8771 71.25 51.5628 71.25 52.0021 71.25C52.4048 71.25 52.7015 71.4782 53.0334 71.25C53.5161 70.9181 53.1038 70.3315 53.0334 69.75C52.9607 69.1506 53.1859 68.5438 52.6584 68.25C52.3065 68.054 52.0298 68.25 51.6271 68.25C51.1878 68.25 50.8318 67.9596 50.5021 68.25L50.2209 69C50.2209 69 50.2209 69.4571 50.2209 69.75C50.2209 70.1161 50.2209 70.6875 50.2209 70.6875C50.2209 70.6875 50.2758 71.1547 50.5021 71.25C50.6371 71.3068 50.8771 71.25 50.8771 71.25Z" stroke="#725050" stroke-width="0.3"/>
</g>
</g>
</g>
<defs>
<filter id="filter0_dd_144_94" x="0" y="0" width="91" height="98" filterUnits="userSpaceOnUse" color-interpolation-filters="sRGB">
<feFlood flood-opacity="0" result="BackgroundImageFix"/>
<feColorMatrix in="SourceAlpha" type="matrix" values="0 0 0 0 0 0 0 0 0 0 0 0 0 0 0 0 0 0 127 0" result="hardAlpha"/>
<feOffset dy="4"/>
<feGaussianBlur stdDeviation="2"/>
<feComposite in2="hardAlpha" operator="out"/>
<feColorMatrix type="matrix" values="0 0 0 0 0 0 0 0 0 0 0 0 0 0 0 0 0 0 0.25 0"/>
<feBlend mode="normal" in2="BackgroundImageFix" result="effect1_dropShadow_144_94"/>
<feColorMatrix in="SourceAlpha" type="matrix" values="0 0 0 0 0 0 0 0 0 0 0 0 0 0 0 0 0 0 127 0" result="hardAlpha"/>
<feOffset dy="4"/>
<feGaussianBlur stdDeviation="2"/>
<feComposite in2="hardAlpha" operator="out"/>
<feColorMatrix type="matrix" values="0 0 0 0 0 0 0 0 0 0 0 0 0 0 0 0 0 0 0.25 0"/>
<feBlend mode="normal" in2="effect1_dropShadow_144_94" result="effect2_dropShadow_144_94"/>
<feBlend mode="normal" in="SourceGraphic" in2="effect2_dropShadow_144_94" result="shape"/>
</filter>
<filter id="filter1_d_144_94" x="0" y="0" width="91" height="98" filterUnits="userSpaceOnUse" color-interpolation-filters="sRGB">
<feFlood flood-opacity="0" result="BackgroundImageFix"/>
<feColorMatrix in="SourceAlpha" type="matrix" values="0 0 0 0 0 0 0 0 0 0 0 0 0 0 0 0 0 0 127 0" result="hardAlpha"/>
<feOffset dy="4"/>
<feGaussianBlur stdDeviation="2"/>
<feComposite in2="hardAlpha" operator="out"/>
<feColorMatrix type="matrix" values="0 0 0 0 0 0 0 0 0 0 0 0 0 0 0 0 0 0 0.25 0"/>
<feBlend mode="normal" in2="BackgroundImageFix" result="effect1_dropShadow_144_94"/>
<feBlend mode="normal" in="SourceGraphic" in2="effect1_dropShadow_144_94" result="shape"/>
</filter>
<filter id="filter2_dd_144_94" x="25.8501" y="17.85" width="40.0488" height="63.2379" filterUnits="userSpaceOnUse" color-interpolation-filters="sRGB">
<feFlood flood-opacity="0" result="BackgroundImageFix"/>
<feColorMatrix in="SourceAlpha" type="matrix" values="0 0 0 0 0 0 0 0 0 0 0 0 0 0 0 0 0 0 127 0" result="hardAlpha"/>
<feOffset dy="4"/>
<feGaussianBlur stdDeviation="2"/>
<feComposite in2="hardAlpha" operator="out"/>
<feColorMatrix type="matrix" values="0 0 0 0 0 0 0 0 0 0 0 0 0 0 0 0 0 0 0.25 0"/>
<feBlend mode="normal" in2="BackgroundImageFix" result="effect1_dropShadow_144_94"/>
<feColorMatrix in="SourceAlpha" type="matrix" values="0 0 0 0 0 0 0 0 0 0 0 0 0 0 0 0 0 0 127 0" result="hardAlpha"/>
<feOffset dy="4"/>
<feGaussianBlur stdDeviation="2"/>
<feComposite in2="hardAlpha" operator="out"/>
<feColorMatrix type="matrix" values="0 0 0 0 0 0 0 0 0 0 0 0 0 0 0 0 0 0 0.25 0"/>
<feBlend mode="normal" in2="effect1_dropShadow_144_94" result="effect2_dropShadow_144_94"/>
<feBlend mode="normal" in="SourceGraphic" in2="effect2_dropShadow_144_94" result="shape"/>
</filter>
<filter id="filter3_d_144_94" x="25.8501" y="17.85" width="40.0488" height="63.2379" filterUnits="userSpaceOnUse" color-interpolation-filters="sRGB">
<feFlood flood-opacity="0" result="BackgroundImageFix"/>
<feColorMatrix in="SourceAlpha" type="matrix" values="0 0 0 0 0 0 0 0 0 0 0 0 0 0 0 0 0 0 127 0" result="hardAlpha"/>
<feOffset dy="4"/>
<feGaussianBlur stdDeviation="2"/>
<feComposite in2="hardAlpha" operator="out"/>
<feColorMatrix type="matrix" values="0 0 0 0 0 0 0 0 0 0 0 0 0 0 0 0 0 0 0.25 0"/>
<feBlend mode="normal" in2="BackgroundImageFix" result="effect1_dropShadow_144_94"/>
<feBlend mode="normal" in="SourceGraphic" in2="effect1_dropShadow_144_94" result="shape"/>
</filter>
</defs>
</svg>
