<svg width="91" height="98" viewBox="0 0 91 98" fill="none" xmlns="http://www.w3.org/2000/svg">
<g filter="url(#filter0_dd_144_93)">
<g filter="url(#filter1_d_144_93)">
<ellipse cx="45.5" cy="45" rx="41.5" ry="45" fill="#D9D9D9"/>
</g>
<g filter="url(#filter2_dd_144_93)">
<path d="M40.5938 76.7207C39.9768 76.5526 39.5542 76.6646 39 76.3457C37.4083 75.4298 38.821 73.4842 38.625 71.6582C38.499 70.4843 38.25 68.6582 38.25 68.6582C38.25 68.6582 38.3605 67.9024 38.25 67.4395C37.9914 66.3564 36.8342 66.3772 36.1875 65.4707C35.4057 64.3749 35.2731 63.5692 34.875 62.2832C34.5309 61.1717 34.4971 60.5067 34.2188 59.377C33.9468 58.2733 33.7029 57.6768 33.4688 56.5645C33.217 55.3687 33 53.4707 33 53.4707V50.4707L33.4688 47.2832C33.4688 47.2832 33.2941 45.4417 33.4688 44.2832C33.5641 43.651 33.6973 43.3119 33.8438 42.6895C33.9824 42.0653 34.0645 41.7162 34.2188 41.0957C34.4566 40.1391 34.3472 39.4909 34.875 38.6582C35.2631 38.046 35.6198 37.7965 36.1875 37.3457C36.601 37.0174 37.3125 36.5957 37.3125 36.5957L38.25 36.2207C38.25 36.2207 38.4383 34.4435 38.625 33.3145C38.7527 32.5423 38.528 31.9701 39 31.3457C39.3674 30.8596 39.7353 30.6973 40.3125 30.502C41.0754 30.2438 41.57 30.4753 42.375 30.502C42.9981 30.5226 43.4032 30.3334 43.9688 30.5957C44.5563 30.8683 44.8698 31.2067 45.0938 31.8145C45.2963 32.3641 45.2963 32.7648 45.0938 33.3145L46.125 34.0645L47.0625 33.3145V30.5957V27.7832V24.502L47.625 20.377C47.0575 19.6972 46.7975 19.2423 46.5 18.4082C46.2007 17.5692 46.1995 17.0459 46.125 16.1582C46.0485 15.2461 45.5943 14.5602 46.125 13.8145C46.5147 13.2669 46.9547 13.0195 47.625 12.9707C47.625 12.1287 47.4578 11.6398 47.625 10.8145C47.8169 9.86715 47.8937 9.1585 48.6562 8.56449C49.1498 8.18001 49.5311 8.02514 50.1562 8.00199C50.8504 7.97627 51.251 8.20226 51.8438 8.56449C52.4623 8.94247 52.7796 9.25766 53.1562 9.87699C53.5353 10.5003 53.5997 10.9385 53.7188 11.6582C53.8562 12.489 53.7188 12.9724 53.7188 13.8145V15.4082V17.2832V19.3457L55.0312 21.6895L55.9651 23.5572L56.1562 23.9395L57.5625 28.4395L58.875 32.377L59.3438 34.5332L59.9062 36.5957L60.75 39.2207L61.3125 41.4707V43.9082L60.75 48.0332L59.9062 51.3145L58.875 54.877L57.9375 58.627C57.9375 58.627 57.1434 60.3439 56.625 61.4395C56.2257 62.2832 55.817 62.6894 55.5938 63.5957C55.3311 64.6622 55.5938 66.4082 55.5938 66.4082V69.3145C55.5938 70.8156 56.2992 71.8333 55.5938 73.1582C55.1191 74.0497 53.7188 74.9395 53.7188 74.9395L51.8438 76.3457C51.8438 76.3457 50.8581 77.008 50.1562 77.2832C49.4205 77.5717 48.9723 77.659 48.1875 77.752C47.3876 77.8468 46.9305 77.752 46.125 77.752C45.2829 77.752 44.7998 77.8876 43.9688 77.752C43.3285 77.6475 42.9957 77.4721 42.375 77.2832C41.6771 77.0709 41.2976 76.9125 40.5938 76.7207Z" fill="#ECCCC0"/>
<path d="M61.3125 41.4707V43.9082L60.75 48.0332L59.9062 51.3145L58.875 54.877L57.9375 58.627C57.9375 58.627 57.1434 60.3439 56.625 61.4395C56.2257 62.2832 55.817 62.6894 55.5938 63.5957C55.3311 64.6622 55.5938 66.4082 55.5938 66.4082C55.5938 66.4082 55.5938 68.1795 55.5938 69.3145C55.5938 70.8156 56.2992 71.8333 55.5938 73.1582C55.1191 74.0497 53.7188 74.9395 53.7188 74.9395L51.8438 76.3457C51.8438 76.3457 50.8581 77.008 50.1562 77.2832C49.4205 77.5717 48.9723 77.659 48.1875 77.752C47.3876 77.8468 46.9305 77.752 46.125 77.752C45.2829 77.752 44.7998 77.8876 43.9688 77.752C43.3285 77.6475 42.9957 77.4721 42.375 77.2832C41.6771 77.0709 41.2976 76.9125 40.5938 76.7207C39.9768 76.5526 39.5542 76.6646 39 76.3457C37.4083 75.4298 38.821 73.4842 38.625 71.6582C38.499 70.4843 38.25 68.6582 38.25 68.6582C38.25 68.6582 38.3605 67.9024 38.25 67.4395C37.9914 66.3564 36.8342 66.3772 36.1875 65.4707C35.4057 64.3749 35.2731 63.5692 34.875 62.2832C34.5309 61.1717 34.4971 60.5067 34.2188 59.377C33.9468 58.2733 33.7029 57.6768 33.4688 56.5645C33.217 55.3687 33 53.4707 33 53.4707V50.4707L33.4688 47.2832C33.4688 47.2832 33.2941 45.4417 33.4688 44.2832C33.5641 43.651 33.6973 43.3119 33.8438 42.6895M61.3125 41.4707L60.75 39.2207M61.3125 41.4707C61.3125 41.4707 60.2731 43.3169 59.3438 44.2832C58.7134 44.9387 58.2581 45.1974 57.5625 45.7832M60.75 39.2207L59.9062 36.5957M60.75 39.2207C60.75 39.2207 60.0663 40.5339 59.3438 41.0957C58.4572 41.7852 57.7326 41.8472 56.625 42.0332C55.5129 42.22 53.7375 42.0332 53.7375 42.0332M59.9062 36.5957L59.3438 34.5332L58.875 32.377L57.5625 28.4395M59.9062 36.5957C59.9062 36.5957 58.4565 36.4657 57.5625 36.2207C56.769 36.0033 56.3852 35.6955 55.5938 35.4707C54.8754 35.2668 54.4484 35.2545 53.7188 35.0957C52.799 34.8956 51.375 34.5332 51.375 34.5332M57.5625 28.4395L56.1562 23.9395L55.9651 23.5572M57.5625 28.4395C57.5625 28.4395 56.0198 28.4395 55.0312 28.4395C54.5187 28.4395 54.2256 28.3632 53.7188 28.4395C52.9389 28.5569 52.5587 28.8567 51.8438 29.1895C51.3019 29.4417 50.4844 29.8926 50.4844 29.8926M53.7188 19.3457L55.0312 21.6895L55.9651 23.5572M53.7188 19.3457L52.3125 16.5332L50.8125 14.377C50.8125 14.377 50.0701 13.2367 49.3125 12.9707C48.6907 12.7524 48.284 12.9707 47.625 12.9707M53.7188 19.3457V17.2832C53.7188 17.2832 53.7188 16.1405 53.7188 15.4082C53.7188 14.7858 53.7188 14.4369 53.7188 13.8145C53.7188 12.9724 53.8562 12.489 53.7188 11.6582C53.5997 10.9385 53.5353 10.5003 53.1562 9.87699C52.7796 9.25766 52.4623 8.94247 51.8438 8.56449C51.251 8.20226 50.8504 7.97627 50.1562 8.00199C49.5311 8.02514 49.1498 8.18001 48.6562 8.56449C47.8937 9.1585 47.8169 9.86715 47.625 10.8145C47.4578 11.6398 47.625 12.1287 47.625 12.9707M47.625 12.9707C46.9547 13.0195 46.5147 13.2669 46.125 13.8145C45.5943 14.5602 46.0485 15.2461 46.125 16.1582C46.1995 17.0459 46.2007 17.5692 46.5 18.4082C46.7975 19.2423 47.0575 19.6972 47.625 20.377M47.625 20.377C47.8447 21.1092 48.1875 22.252 48.1875 22.252C48.1875 22.252 48.4732 23.2805 48.6562 23.9395M47.625 20.377C47.4053 21.9879 47.0625 24.502 47.0625 24.502V27.7832V30.5957V33.3145L46.125 34.0645M48.6562 23.9395V25.1582L49.3125 26.9395L50.1562 29.1895L50.4844 29.8926M48.6562 23.9395C49.061 23.5683 49.3116 23.3804 49.7812 23.0957C50.5255 22.6446 50.9824 22.3763 51.8438 22.252C52.3511 22.1788 52.6437 22.252 53.1562 22.252C53.8885 22.252 55.0312 22.252 55.0312 22.252L55.9651 23.5572M51.375 33.3145L50.8125 30.5957L50.4844 29.8926M51.375 33.3145V34.5332M51.375 33.3145C51.375 33.3145 50.118 33.3145 49.3125 33.3145C48.6535 33.3145 47.625 33.3145 47.625 33.3145M51.375 34.5332L50.8125 37.8674M51.375 34.5332C51.375 34.5332 50.4036 34.5332 49.7812 34.5332C49.1589 34.5332 48.1875 34.5332 48.1875 34.5332M38.25 36.2207L37.3125 36.5957C37.3125 36.5957 36.601 37.0174 36.1875 37.3457C35.6198 37.7965 35.2631 38.046 34.875 38.6582C34.3472 39.4909 34.4566 40.1391 34.2188 41.0957C34.0645 41.7162 33.9824 42.0653 33.8438 42.6895M38.25 36.2207C38.25 36.2207 38.4383 34.4435 38.625 33.3145C38.7527 32.5423 38.528 31.9701 39 31.3457C39.3674 30.8596 39.7353 30.6973 40.3125 30.502C41.0754 30.2438 41.57 30.4753 42.375 30.502C42.9981 30.5226 43.4032 30.3334 43.9688 30.5957C44.5563 30.8683 44.8698 31.2067 45.0938 31.8145C45.2963 32.3641 45.2963 32.7648 45.0938 33.3145M38.25 36.2207L39 37.3457L40.5938 39.7832L42.0938 40.9082M45.0938 33.3145C45.4965 33.6074 46.125 34.0645 46.125 34.0645M45.0938 33.3145C44.4509 32.7559 43.9638 32.524 43.125 32.377C42.5841 32.2822 42.2486 32.2325 41.7188 32.377C41.082 32.5506 40.7775 32.846 40.3125 33.3145C39.9047 33.7253 39.7679 34.0377 39.4688 34.5332V35.4707L39.75 36.5957L40.3125 36.9707C41.093 37.2178 41.5665 37.4744 42.375 37.3457C43.0543 37.2377 43.4807 37.0805 43.9688 36.5957C44.4334 36.1342 44.4998 35.713 44.7188 35.0957C44.9564 34.4258 45.0411 34.0234 45.0938 33.3145ZM46.125 34.0645L48.1875 35.4707L50.4844 37.3457M47.0625 46.627C46.6953 47.1754 46.49 47.4833 46.125 48.0332C45.277 49.3107 44.5834 49.9098 43.9688 51.3145C43.495 52.3972 43.288 53.0502 43.125 54.2207C42.9684 55.3448 43.125 57.127 43.125 57.127C43.125 57.127 42.7732 59.1204 43.125 60.3145C43.2595 60.771 43.4199 60.9964 43.5938 61.4395C43.9194 62.2694 43.9594 62.7913 44.3438 63.5957C44.5983 64.1284 45.0104 64.3238 45.0938 64.9082C45.179 65.506 45.0499 65.9033 44.7188 66.4082C44.3122 67.0282 43.125 67.4395 43.125 67.4395C43.125 67.4395 41.4108 67.8966 40.3125 68.1895M47.0625 46.627C47.2822 46.2975 47.625 45.7832 47.625 45.7832L47.2734 44.8457M47.0625 46.627C47.5018 47.1762 47.7759 47.463 48.1875 48.0332C48.4965 48.4614 48.5863 48.7639 48.9375 49.1582C49.2307 49.4874 49.4199 49.6556 49.7812 49.9082M50.4844 37.3457L50.8125 37.8674M50.4844 37.3457L50.1562 38.6582L49.3125 39.7832L48.1875 41.0957M50.8125 37.8674L52.3125 40.252L53.7375 42.0332M53.7375 42.0332L54.5625 43.0645L57.5625 46.252V48.7832V51.6895L57.2812 54.502L56.625 57.127C56.625 57.127 56.3999 58.5132 56.1562 59.377C55.8258 60.5483 55.6557 61.2386 55.0312 62.2832C54.6052 62.996 54.3793 63.4438 53.7375 63.9707C53.0997 64.4944 52.8323 64.9082 51.8438 64.9082C50.8552 64.9082 50.301 64.9082 49.3125 64.9082H47.625H45.4688M35.7188 40.252C35.7188 40.252 35.95 41.7497 36.1875 42.6895C36.3465 43.3185 36.4732 43.6608 36.6562 44.2832M36.6562 44.2832C36.8598 45.0677 37.0047 45.5023 37.3125 46.252C37.4805 46.6612 37.5846 46.887 37.7812 47.2832C38.08 47.8853 38.2541 48.2227 38.625 48.7832C38.928 49.2412 39.1392 49.4689 39.4688 49.9082M36.6562 44.2832C36.0705 44.027 35.712 43.9431 35.1562 43.627C34.6087 43.3156 34.3159 43.1064 33.8438 42.6895M39.4688 49.9082C39.9081 50.1279 40.5938 50.4707 40.5938 50.4707C40.5938 50.4707 41.2794 50.985 41.7188 51.3145M39.4688 49.9082C39.1392 50.311 38.9401 50.5254 38.625 50.9395C38.0654 51.6748 37.3125 52.9082 37.3125 52.9082M41.7188 51.3145C42.2679 50.985 42.7265 50.9721 43.125 50.4707C43.4003 50.1244 43.4712 49.8646 43.5938 49.4395C43.827 48.6304 43.827 48.0924 43.5938 47.2832M41.7188 51.3145C41.368 51.0881 41.1955 50.8664 41.0625 50.4707C41.0625 50.4707 41.0625 49.6708 41.0625 49.1582C41.0625 48.7189 41.0625 48.0332 41.0625 48.0332C41.5312 46.9082 41.7188 47.2832 41.7188 47.2832C42.3376 46.8919 42.9749 46.8919 43.5938 47.2832M43.5938 47.2832C43.5022 46.9171 43.3594 46.3457 43.3594 46.3457M42.0938 40.9082L43.5938 42.0332L45.0938 43.0645L47.0625 44.2832L47.2734 44.8457M42.0938 40.9082L42.375 42.0332L42.75 43.0645L43.125 45.4082L43.3594 46.3457M43.3594 46.3457C43.3594 46.3457 44.2517 45.1503 45.0938 44.8457C45.8942 44.5562 47.2734 44.8457 47.2734 44.8457M41.0625 56.5645C41.0625 56.5645 41.1424 54.2395 41.7188 52.9082C41.9335 52.4122 42.375 51.6895 42.375 51.6895L43.125 50.9395" stroke="#725050" stroke-width="0.3"/>
</g>
</g>
<defs>
<filter id="filter0_dd_144_93" x="0" y="0" width="91" height="98" filterUnits="userSpaceOnUse" color-interpolation-filters="sRGB">
<feFlood flood-opacity="0" result="BackgroundImageFix"/>
<feColorMatrix in="SourceAlpha" type="matrix" values="0 0 0 0 0 0 0 0 0 0 0 0 0 0 0 0 0 0 127 0" result="hardAlpha"/>
<feOffset dy="4"/>
<feGaussianBlur stdDeviation="2"/>
<feComposite in2="hardAlpha" operator="out"/>
<feColorMatrix type="matrix" values="0 0 0 0 0 0 0 0 0 0 0 0 0 0 0 0 0 0 0.25 0"/>
<feBlend mode="normal" in2="BackgroundImageFix" result="effect1_dropShadow_144_93"/>
<feColorMatrix in="SourceAlpha" type="matrix" values="0 0 0 0 0 0 0 0 0 0 0 0 0 0 0 0 0 0 127 0" result="hardAlpha"/>
<feOffset dy="4"/>
<feGaussianBlur stdDeviation="2"/>
<feComposite in2="hardAlpha" operator="out"/>
<feColorMatrix type="matrix" values="0 0 0 0 0 0 0 0 0 0 0 0 0 0 0 0 0 0 0.25 0"/>
<feBlend mode="normal" in2="effect1_dropShadow_144_93" result="effect2_dropShadow_144_93"/>
<feBlend mode="normal" in="SourceGraphic" in2="effect2_dropShadow_144_93" result="shape"/>
</filter>
<filter id="filter1_d_144_93" x="0" y="0" width="91" height="98" filterUnits="userSpaceOnUse" color-interpolation-filters="sRGB">
<feFlood flood-opacity="0" result="BackgroundImageFix"/>
<feColorMatrix in="SourceAlpha" type="matrix" values="0 0 0 0 0 0 0 0 0 0 0 0 0 0 0 0 0 0 127 0" result="hardAlpha"/>
<feOffset dy="4"/>
<feGaussianBlur stdDeviation="2"/>
<feComposite in2="hardAlpha" operator="out"/>
<feColorMatrix type="matrix" values="0 0 0 0 0 0 0 0 0 0 0 0 0 0 0 0 0 0 0.25 0"/>
<feBlend mode="normal" in2="BackgroundImageFix" result="effect1_dropShadow_144_93"/>
<feBlend mode="normal" in="SourceGraphic" in2="effect1_dropShadow_144_93" result="shape"/>
</filter>
<filter id="filter2_dd_144_93" x="28.8501" y="7.84998" width="36.6123" height="78.1123" filterUnits="userSpaceOnUse" color-interpolation-filters="sRGB">
<feFlood flood-opacity="0" result="BackgroundImageFix"/>
<feColorMatrix in="SourceAlpha" type="matrix" values="0 0 0 0 0 0 0 0 0 0 0 0 0 0 0 0 0 0 127 0" result="hardAlpha"/>
<feOffset dy="4"/>
<feGaussianBlur stdDeviation="2"/>
<feComposite in2="hardAlpha" operator="out"/>
<feColorMatrix type="matrix" values="0 0 0 0 0 0 0 0 0 0 0 0 0 0 0 0 0 0 0.25 0"/>
<feBlend mode="normal" in2="BackgroundImageFix" result="effect1_dropShadow_144_93"/>
<feColorMatrix in="SourceAlpha" type="matrix" values="0 0 0 0 0 0 0 0 0 0 0 0 0 0 0 0 0 0 127 0" result="hardAlpha"/>
<feOffset dy="4"/>
<feGaussianBlur stdDeviation="2"/>
<feComposite in2="hardAlpha" operator="out"/>
<feColorMatrix type="matrix" values="0 0 0 0 0 0 0 0 0 0 0 0 0 0 0 0 0 0 0.25 0"/>
<feBlend mode="normal" in2="effect1_dropShadow_144_93" result="effect2_dropShadow_144_93"/>
<feBlend mode="normal" in="SourceGraphic" in2="effect2_dropShadow_144_93" result="shape"/>
</filter>
</defs>
</svg>
