<svg width="91" height="98" viewBox="0 0 91 98" fill="none" xmlns="http://www.w3.org/2000/svg">
<g filter="url(#filter0_dd_140_41)">
<g filter="url(#filter1_d_140_41)">
<ellipse cx="45.5" cy="45" rx="41.5" ry="45" fill="#D9D9D9"/>
</g>
<g filter="url(#filter2_dd_140_41)">
<path d="M35.1849 78.9015C33.9261 77.8949 35.6592 76.4237 35.7686 74.8156C35.8693 73.3373 35.9002 72.4974 35.7686 71.0215C35.6489 69.6778 35.608 68.8977 35.1849 67.6166C34.8704 66.6642 34.5008 66.2076 34.1148 65.2818C33.6015 64.0505 33.351 63.343 32.9474 62.0715C32.4484 60.4993 32.2137 59.6004 31.8773 57.9856C31.5168 56.255 31.1963 53.5106 31.1963 53.5106V48.6464V45.4361V43.004C31.1963 42.0162 30.7546 41.3581 31.1963 40.4746C31.5087 39.8499 31.8678 39.5787 32.461 39.2099C32.8805 38.9492 33.1348 38.7075 33.6284 38.7235C33.9467 38.7339 34.1027 38.8718 34.4067 38.9667C34.3171 38.2696 34.3171 37.8641 34.4067 37.167C34.5338 36.1779 34.5963 35.5399 35.1849 34.7349C35.6964 34.0356 36.1599 33.7579 36.936 33.373C37.4742 33.1061 37.8047 32.9963 38.3953 32.8865C39.1797 32.7408 39.6404 32.8865 40.4382 32.8865H41.0219C40.5594 31.6913 40.7949 30.5807 41.7029 29.6762C42.1369 29.2439 42.4997 29.1343 43.0649 28.8979C43.8556 28.5672 44.3525 28.4989 45.2051 28.4115C45.9232 28.3379 46.4059 28.0927 47.0535 28.4115C47.8485 28.8028 47.8373 29.5584 48.2209 30.3572C48.5385 31.0186 48.602 31.4386 48.9019 32.1083C49.2699 32.9303 49.972 34.1512 49.972 34.1512V35.124C49.972 35.124 50.6861 34.0644 51.334 34.1512C51.4944 34.1727 51.5896 34.1776 51.6353 34.156C51.8708 34.0444 50.7883 33.2283 50.5557 30.3572C50.4606 29.1833 50.643 28.5159 50.5557 27.3414C50.4904 26.4626 50.3778 25.9777 50.2638 25.1039C50.1615 24.2286 50.0975 23.7386 49.972 22.8664C49.6365 20.5355 49.3198 19.2496 48.9019 16.9321C48.5948 15.4336 48.3809 14.5994 47.929 13.138C47.6203 12.1394 47.125 11.6515 47.0535 10.6087C46.9903 9.68647 47.1516 9.15126 47.4426 8.27389C47.6673 7.59639 47.6748 7.07972 48.2209 6.62007C48.7639 6.16304 49.2682 6.22499 49.972 6.13366C50.6125 6.05054 51.0319 5.8798 51.6258 6.13366C52.2438 6.39785 52.4026 6.85137 52.7932 7.39834C53.6383 8.58167 53.6014 9.51991 54.0579 10.9005C54.6542 12.7041 55.4198 15.5701 55.4198 15.5701L55.7905 16.3484C56.0407 16.8348 56.1728 17.1122 56.3927 17.6131C56.7841 18.5048 57.0013 19.0114 57.2682 19.9479C57.6792 21.3895 57.8519 23.7419 57.8519 23.7419L58.0412 24.5202C58.436 25.5831 58.59 26.2159 58.7275 27.3414C58.8703 28.5104 58.6867 29.1801 58.7275 30.3572C58.7975 32.3784 59.0239 33.4996 59.2139 35.5132L59.7976 37.4588L60.6731 42.1284L61.1596 45.4361V48.6464V51.3703V53.5106C61.1596 53.5106 60.7848 55.279 60.6731 56.4291C60.5153 58.0551 60.6731 58.9786 60.6731 60.6122V63.0443C60.6731 63.0443 60.5899 64.8227 60.1867 65.8655C59.9046 66.5952 59.2139 67.6166 59.2139 67.6166L57.8519 69.1732L56.3927 71.0215C56.3927 71.0215 55.7117 71.8971 55.4198 71.7025C55.128 71.508 55.4198 74.6078 55.4198 76.4694C55.4198 77.6091 56.0081 78.4117 55.4198 79.3879C54.8919 80.2641 53.1823 80.7499 53.1823 80.7499C53.1823 80.7499 52.0364 81.5357 51.2367 81.9173C50.1198 82.4502 49.4441 82.7026 48.2209 82.8901C47.0709 83.0664 46.3942 83.0025 45.2477 82.8941L45.2051 82.8901C43.5353 82.7324 42.5557 82.5959 41.0219 81.9173C40.1816 81.5455 39.7876 81.1863 38.979 80.7499C37.9324 80.1849 36.2551 79.3879 36.2551 79.3879C36.2551 79.3879 35.5435 79.1882 35.1849 78.9015Z" fill="#ECCCC0"/>
<path d="M31.1963 45.4361C31.1963 46.6898 31.1963 47.3927 31.1963 48.6464C31.1963 50.546 31.1963 53.5106 31.1963 53.5106C31.1963 53.5106 31.5168 56.255 31.8773 57.9856C32.2137 59.6004 32.4484 60.4993 32.9474 62.0715C33.351 63.343 33.6015 64.0505 34.1148 65.2818C34.5008 66.2076 34.8704 66.6642 35.1849 67.6166C35.608 68.8977 35.6489 69.6778 35.7686 71.0215C35.9002 72.4974 35.8693 73.3373 35.7686 74.8156C35.6592 76.4237 33.9261 77.8949 35.1849 78.9015C35.5435 79.1882 36.2551 79.3879 36.2551 79.3879C36.2551 79.3879 37.9324 80.1849 38.979 80.7499C39.7876 81.1863 40.1816 81.5455 41.0219 81.9173C42.5557 82.5959 43.5353 82.7324 45.2051 82.8901C46.3776 83.0008 47.0568 83.0686 48.2209 82.8901C49.4441 82.7026 50.1198 82.4502 51.2367 81.9173C52.0364 81.5357 53.1823 80.7499 53.1823 80.7499C53.1823 80.7499 54.8919 80.2641 55.4198 79.3879C56.0081 78.4117 55.4198 77.6091 55.4198 76.4694C55.4198 74.6078 55.128 71.508 55.4198 71.7025C55.7117 71.8971 56.3927 71.0215 56.3927 71.0215L57.8519 69.1732L59.2139 67.6166C59.2139 67.6166 59.9046 66.5952 60.1867 65.8655C60.5899 64.8227 60.6731 63.0443 60.6731 63.0443C60.6731 63.0443 60.6731 61.562 60.6731 60.6122M31.1963 45.4361C31.1963 44.4863 31.1963 43.9538 31.1963 43.004C31.1963 42.0162 30.7546 41.3581 31.1963 40.4746C31.5087 39.8499 31.8678 39.5787 32.461 39.2099C32.8805 38.9492 33.1348 38.7075 33.6284 38.7235C33.9467 38.7339 34.1027 38.8718 34.4067 38.9667M31.1963 45.4361C31.8802 46.8797 32.9474 49.1328 32.9474 49.1328L34.1148 51.0785L35.7686 52.9269L36.936 53.5106H38.3953L38.979 52.9269L39.9518 51.8568V49.8138M39.9518 49.8138C39.9518 49.8138 40.4844 50.8651 41.0219 51.3703C41.4827 51.8034 42.3839 52.2459 42.3839 52.2459C42.3839 52.2459 43.4294 52.4628 44.0377 52.2459C44.5745 52.0545 44.8798 51.8382 45.2051 51.3703C45.4599 51.0039 45.6064 50.3002 45.6064 50.3002M39.9518 49.8138C39.9518 49.8138 39.6554 49.4581 39.4654 49.2301M44.6214 46.3116C44.8494 47.2234 45.2051 48.6464 45.2051 48.6464C45.3974 49.1184 45.8565 49.3086 45.7888 49.8138C45.7619 50.0149 45.6064 50.3002 45.6064 50.3002M44.6214 46.3116C44.3935 45.3238 44.0377 43.7823 44.0377 43.7823L42.3839 41.4475L41.7029 38.7235L41.0219 35.5132C41.0219 35.5132 41.0219 33.9123 41.0219 32.8865M44.6214 46.3116C44.6214 46.3116 45.4527 45.3945 45.7888 45.0469C46.125 44.6993 46.1305 44.4993 46.6644 44.1714C47.1982 43.8434 48.2209 43.7823 48.2209 43.7823C48.6108 43.9709 48.663 44.2964 48.9019 44.6578C49.1407 45.0192 49.3658 45.2672 49.4856 45.7279C49.6054 46.1886 49.6054 46.5319 49.4856 46.9926M41.0219 32.8865C40.5594 31.6913 40.7949 30.5807 41.7029 29.6762C42.1369 29.2439 42.4997 29.1343 43.0649 28.8979C43.8556 28.5672 44.3525 28.4989 45.2051 28.4115C45.9232 28.3379 46.4059 28.0927 47.0535 28.4115C47.8485 28.8028 47.8373 29.5584 48.2209 30.3572C48.5385 31.0186 48.602 31.4386 48.9019 32.1083C49.2699 32.9303 49.972 34.1512 49.972 34.1512V35.124M41.0219 32.8865C41.0219 32.8865 40.6662 32.8865 40.4382 32.8865C39.6404 32.8865 39.1797 32.7408 38.3953 32.8865C37.8047 32.9963 37.4742 33.1061 36.936 33.373C36.1599 33.7579 35.6964 34.0356 35.1849 34.7349C34.5963 35.5399 34.5338 36.1779 34.4067 37.167C34.3171 37.8641 34.3171 38.2696 34.4067 38.9667M34.4067 38.9667C34.7106 39.0617 35.1849 39.2099 35.1849 39.2099L36.2551 41.4475L36.936 43.004L37.7143 45.4361C37.7143 45.4361 38.2282 46.7405 38.5574 47.5763M56.3927 52.2459L55.4198 51.3703L53.766 49.8138L52.3068 48.16C52.3068 48.16 51.9807 47.8042 51.7717 47.5763M56.3927 52.2459L57.8519 54.3861L59.2139 56.4291L60.1867 58.472C60.1867 58.472 60.4832 59.7764 60.6731 60.6122M56.3927 52.2459L57.2682 51.3703L58.0412 49.8138L58.1411 49.376L58.2411 48.9383M60.6731 60.6122C60.6731 58.9786 60.5153 58.0551 60.6731 56.4291C60.7848 55.279 61.1596 53.5106 61.1596 53.5106V51.3703V48.6464V45.4361L60.6731 42.1284L59.7976 37.4588C59.7976 37.4588 59.4418 36.273 59.2139 35.5132M59.2139 35.5132C59.0239 33.4996 58.7975 32.3784 58.7275 30.3572C58.6867 29.1801 58.8703 28.5104 58.7275 27.3414C58.59 26.2159 58.436 25.5831 58.0412 24.5202M59.2139 35.5132C58.2641 35.5132 56.7818 35.5132 56.7818 35.5132L54.7389 35.124L52.7932 34.7349L51.6258 34.1512M48.9019 16.9321C48.5948 15.4336 48.3809 14.5994 47.929 13.138C47.6203 12.1394 47.125 11.6515 47.0535 10.6087C46.9903 9.68647 47.1516 9.15126 47.4426 8.27389C47.6673 7.59639 47.6748 7.07972 48.2209 6.62007C48.7639 6.16304 49.2682 6.22499 49.972 6.13366C50.6125 6.05054 51.0319 5.8798 51.6258 6.13366C52.2438 6.39785 52.4026 6.85137 52.7932 7.39834C53.6383 8.58167 53.6014 9.51991 54.0579 10.9005C54.6542 12.7041 55.4198 15.5701 55.4198 15.5701L55.7905 16.3484M48.9019 16.9321C49.3198 19.2496 49.6365 20.5355 49.972 22.8664C50.0975 23.7386 50.1615 24.2286 50.2638 25.1039M48.9019 16.9321C49.8517 16.9321 50.3946 17.0727 51.334 16.9321C52.1546 16.8092 52.552 16.4383 53.3769 16.3484C53.9057 16.2908 54.207 16.3484 54.7389 16.3484C55.1495 16.3484 55.3798 16.3484 55.7905 16.3484M49.972 35.124V36.0969C49.972 36.0969 49.972 37.6978 49.972 38.7235C49.972 39.4074 49.9097 39.7936 49.972 40.4746C50.0644 41.4841 50.5557 42.7001 50.5557 43.004C50.5557 43.3079 50.5557 43.4783 50.5557 43.7823C50.5557 43.7823 50.4252 44.8035 50.5557 45.4361C50.6897 46.0859 50.8417 46.4595 51.2367 46.9926C51.4208 47.2411 51.5402 47.3713 51.7717 47.5763M49.972 35.124C49.972 35.124 50.6861 34.0644 51.334 34.1512C52.3224 34.2836 50.8334 33.7849 50.5557 30.3572C50.4606 29.1833 50.643 28.5159 50.5557 27.3414C50.4904 26.4626 50.3778 25.9777 50.2638 25.1039M50.2638 25.1039C51.4796 25.1039 52.186 25.3482 53.3769 25.1039C54.083 24.959 54.4211 24.6614 55.128 24.5202C56.2436 24.2972 56.9035 24.5202 58.0412 24.5202M58.0412 24.5202L57.8519 23.7419C57.8519 23.7419 57.6792 21.3895 57.2682 19.9479C57.0013 19.0114 56.7841 18.5048 56.3927 17.6131C56.1728 17.1122 56.0407 16.8348 55.7905 16.3484M49.4856 46.9926C50.0554 47.1826 50.3548 47.3662 50.9448 47.479C51.2642 47.5401 51.4469 47.5616 51.7717 47.5763M49.4856 46.9926C48.9917 47.4485 48.2209 48.16 48.2209 48.16C47.7742 48.5506 47.0535 49.1328 47.0535 49.1328L45.6064 50.3002M45.2051 52.2459C45.2051 53.0817 45.0229 53.5704 45.2051 54.3861C45.3389 54.9851 45.4785 55.3158 45.7888 55.8454C46.1701 56.496 47.0535 57.3046 47.0535 57.3046C47.0535 57.3046 47.7465 58.0354 48.2209 58.472C48.697 58.9101 49.4856 59.5421 49.4856 59.5421C49.4856 59.5421 50.1378 60.1943 50.5557 60.6122M50.5557 60.6122C52.1893 61.9419 54.7389 64.0172 54.7389 64.0172L53.3769 63.0443L51.7717 61.6824L51.1637 61.1473M50.5557 60.6122C51.2395 60.8022 51.8889 61.0987 52.3068 61.0987C52.7247 61.0987 52.959 61.0987 53.3769 61.0987M50.5557 60.6122C50.7931 60.8212 51.1637 61.1473 51.1637 61.1473M51.7717 64.0172L51.6258 62.6552L51.1637 61.1473M38.5574 47.5763C38.639 48.018 38.979 48.6464 38.979 48.6464C39.1386 48.8966 39.2481 49.028 39.4654 49.2301M38.5574 47.5763L36.936 48.16C36.5847 48.4627 36.3933 48.6902 36.2551 49.1328C36.1192 49.568 36.2551 49.8443 36.2551 50.3002V51.3703C36.4226 51.651 36.6305 51.7407 36.936 51.8568C36.936 51.8568 37.6645 51.9798 38.1034 51.8568C38.1034 51.8568 38.674 51.6153 38.979 51.3703C38.979 51.3703 39.6136 50.9933 39.66 50.5921C39.66 50.5921 39.3849 50.138 39.3681 49.8138C39.3681 49.8138 39.4274 49.4581 39.4654 49.2301" stroke="#725050" stroke-width="0.3"/>
<path d="M53.3768 49.2301L54.3497 48.3545L55.1279 47.2844L55.8089 45.8251V45.0469" stroke="#725050" stroke-width="0.3"/>
<path d="M50.1664 39.6961L51.2365 38.3341L51.9175 37.1667M45.3995 39.0151H47.2479M39.2706 43.6847L40.9245 42.8092M33.3364 45.4358L35.282 43.6847M40.1462 62.8495L40.9245 60.0283L41.9946 58.4718L43.162 56.6234L44.8158 55.2614L45.3995 53.9967L44.8158 52.6348V51.7592L44.0375 52.6348L43.162 53.9967L42.2864 55.2614L40.9245 56.6234L39.5625 58.4718L37.5195 60.4174M46.1777 56.137L44.8158 57.7908L44.0375 61.4875V64.406L44.8158 66.7408L46.5669 68.6865L48.4153 70.4376C48.4153 70.4376 49.779 70.7934 50.6528 71.0213C51.5266 71.2492 52.8903 71.605 52.8903 71.605H55.5169M58.2409 56.6234L57.268 57.7908L56.4898 58.4718L55.8088 59.5419M41.6054 51.7592C41.6054 50.7714 41.3696 50.1891 41.6054 49.2299C41.7116 48.798 41.7078 48.4996 41.9946 48.1597C42.3232 47.7702 42.6644 47.6866 43.162 47.576C43.607 47.4772 43.8735 47.576 44.3294 47.576C44.5193 47.576 44.6258 47.576 44.8158 47.576M31.5853 53.0239L35.282 52.6348M36.0603 69.6593L37.5195 71.605H40.1462H41.9946H45.3995M55.5169 72.7724C54.4912 72.7724 53.9161 72.7724 52.8903 72.7724C52.2444 72.7724 51.2365 72.7724 51.2365 72.7724C50.4075 72.5682 50.1691 71.9499 49.3881 71.605C48.5956 71.255 47.2479 71.0213 47.2479 71.0213M49.3881 49.2299C48.9834 49.6239 48.7835 49.8718 48.4153 50.3C47.9394 50.8533 47.6009 51.1205 47.2479 51.7592C47.2479 51.7592 46.8886 52.2618 46.8587 52.6348C46.8587 52.6348 47.5395 53.7572 48.2207 54.1913C48.2207 54.1913 48.8943 54.6873 49.3881 54.6777C49.3881 54.6777 50.1807 54.2997 50.6528 53.9967C51.1772 53.6602 51.9175 53.0239 51.9175 53.0239L52.8903 51.1755C52.7692 50.7596 52.2093 50.3 52.2093 50.3C51.8043 49.7477 51.8202 49.3271 51.2365 48.8407C51.2365 48.8407 51.2365 48.4516 50.6528 48.1597C50.0691 47.8679 49.8516 48.7785 49.3881 49.2299Z" stroke="#725050" stroke-width="0.3"/>
</g>
</g>
<defs>
<filter id="filter0_dd_140_41" x="0" y="0" width="91" height="98" filterUnits="userSpaceOnUse" color-interpolation-filters="sRGB">
<feFlood flood-opacity="0" result="BackgroundImageFix"/>
<feColorMatrix in="SourceAlpha" type="matrix" values="0 0 0 0 0 0 0 0 0 0 0 0 0 0 0 0 0 0 127 0" result="hardAlpha"/>
<feOffset dy="4"/>
<feGaussianBlur stdDeviation="2"/>
<feComposite in2="hardAlpha" operator="out"/>
<feColorMatrix type="matrix" values="0 0 0 0 0 0 0 0 0 0 0 0 0 0 0 0 0 0 0.25 0"/>
<feBlend mode="normal" in2="BackgroundImageFix" result="effect1_dropShadow_140_41"/>
<feColorMatrix in="SourceAlpha" type="matrix" values="0 0 0 0 0 0 0 0 0 0 0 0 0 0 0 0 0 0 127 0" result="hardAlpha"/>
<feOffset dy="4"/>
<feGaussianBlur stdDeviation="2"/>
<feComposite in2="hardAlpha" operator="out"/>
<feColorMatrix type="matrix" values="0 0 0 0 0 0 0 0 0 0 0 0 0 0 0 0 0 0 0.25 0"/>
<feBlend mode="normal" in2="effect1_dropShadow_140_41" result="effect2_dropShadow_140_41"/>
<feBlend mode="normal" in="SourceGraphic" in2="effect2_dropShadow_140_41" result="shape"/>
</filter>
<filter id="filter1_d_140_41" x="0" y="0" width="91" height="98" filterUnits="userSpaceOnUse" color-interpolation-filters="sRGB">
<feFlood flood-opacity="0" result="BackgroundImageFix"/>
<feColorMatrix in="SourceAlpha" type="matrix" values="0 0 0 0 0 0 0 0 0 0 0 0 0 0 0 0 0 0 127 0" result="hardAlpha"/>
<feOffset dy="4"/>
<feGaussianBlur stdDeviation="2"/>
<feComposite in2="hardAlpha" operator="out"/>
<feColorMatrix type="matrix" values="0 0 0 0 0 0 0 0 0 0 0 0 0 0 0 0 0 0 0.25 0"/>
<feBlend mode="normal" in2="BackgroundImageFix" result="effect1_dropShadow_140_41"/>
<feBlend mode="normal" in="SourceGraphic" in2="effect1_dropShadow_140_41" result="shape"/>
</filter>
<filter id="filter2_dd_140_41" x="26.85" y="5.85059" width="38.4595" height="85.2994" filterUnits="userSpaceOnUse" color-interpolation-filters="sRGB">
<feFlood flood-opacity="0" result="BackgroundImageFix"/>
<feColorMatrix in="SourceAlpha" type="matrix" values="0 0 0 0 0 0 0 0 0 0 0 0 0 0 0 0 0 0 127 0" result="hardAlpha"/>
<feOffset dy="4"/>
<feGaussianBlur stdDeviation="2"/>
<feComposite in2="hardAlpha" operator="out"/>
<feColorMatrix type="matrix" values="0 0 0 0 0 0 0 0 0 0 0 0 0 0 0 0 0 0 0.25 0"/>
<feBlend mode="normal" in2="BackgroundImageFix" result="effect1_dropShadow_140_41"/>
<feColorMatrix in="SourceAlpha" type="matrix" values="0 0 0 0 0 0 0 0 0 0 0 0 0 0 0 0 0 0 127 0" result="hardAlpha"/>
<feOffset dy="4"/>
<feGaussianBlur stdDeviation="2"/>
<feComposite in2="hardAlpha" operator="out"/>
<feColorMatrix type="matrix" values="0 0 0 0 0 0 0 0 0 0 0 0 0 0 0 0 0 0 0.25 0"/>
<feBlend mode="normal" in2="effect1_dropShadow_140_41" result="effect2_dropShadow_140_41"/>
<feBlend mode="normal" in="SourceGraphic" in2="effect2_dropShadow_140_41" result="shape"/>
</filter>
</defs>
</svg>
