<svg width="91" height="98" viewBox="0 0 91 98" fill="none" xmlns="http://www.w3.org/2000/svg">
<g filter="url(#filter0_dd_163_392)">
<ellipse cx="45.5" cy="45" rx="41.5" ry="45" fill="#D9D9D9"/>
</g>
<g filter="url(#filter1_dd_163_392)">
<g filter="url(#filter2_dd_163_392)">
<path d="M13 33.891V30.4969L21.5366 30.2398L30.0733 29.9827L30.8961 27L35.8329 32.2454L30.3818 36.3594V33.0682L13 33.891Z" fill="#725050"/>
<path d="M13 33.891V30.4969L21.5366 30.2398L30.0733 29.9827L30.8961 27L35.8329 32.2454L30.3818 36.3594V33.0682L13 33.891Z" stroke="#725050" stroke-width="0.329123"/>
</g>
<g filter="url(#filter3_dd_163_392)">
<path d="M47.8821 66.49L46.6479 67.0042L45.0023 67.4156C45.0023 67.4156 44.3199 67.6292 43.8709 67.6213C43.4614 67.6142 43.2232 67.5665 42.8424 67.4156C42.5211 67.255 42.2725 67.2593 42.0196 67.0042C41.6885 66.6704 41.697 66.3345 41.6082 65.8729C41.5019 65.3207 41.6082 64.433 41.6082 64.433C41.6082 64.433 37.3913 66.49 36.4656 65.2558C35.8653 64.4553 36.6703 64.0754 36.4656 63.0959C36.2446 62.038 35.3324 61.8157 35.318 60.735C35.3046 59.7272 35.9706 59.335 36.2437 58.3648C36.7404 56.5994 34.82 54.4564 34.82 54.4564C34.5457 54.0107 33.9972 52.8108 33.9972 52.8108C33.9972 52.564 33.7915 51.268 33.6886 50.6509C33.5858 50.0338 33.5642 49.263 33.6886 48.3882C33.7641 47.8577 33.7856 47.5435 33.9972 47.0511C33.9972 47.0511 34.3675 46.2963 34.82 46.1255C34.82 46.1255 33.8054 45.1998 32.8658 45.1998C31.9263 45.1998 26.6829 48.5142 26.988 50.1414C27.2965 51.787 33.3963 55.8963 29.1632 56.7191C24.9301 57.5419 20.714 50.4452 21.2283 48.7996C21.7426 47.154 29.2518 38.9398 40.8882 39.3373C52.5247 39.7348 77.0917 33.2691 77.0917 33.2691L81.0001 52.2965C80.6858 52.3634 80.4986 52.2965 80.1772 52.2965L70.804 55.9678L57.3444 64.8444C56.4363 65.2054 55.8453 65.1315 54.876 65.2558C54.0355 65.3636 53.5551 65.3434 52.7161 65.4615C52.1105 65.5467 51.1733 65.7298 51.1733 65.7298C51.1733 65.7298 50.6723 65.8194 50.3505 65.8729C49.8294 65.9595 49.0135 66.0786 49.0135 66.0786L47.8821 66.49Z" fill="#ECCCC0"/>
<path d="M49.0135 66.0786L47.8821 66.49C47.8821 66.49 47.1299 66.8034 46.6479 67.0042C46.0052 67.1649 45.0023 67.4156 45.0023 67.4156C45.0023 67.4156 44.3199 67.6292 43.8709 67.6213C43.4614 67.6142 43.2232 67.5665 42.8424 67.4156M49.0135 66.0786C49.0135 66.0786 49.8294 65.9595 50.3505 65.8729C50.6723 65.8194 51.1733 65.7298 51.1733 65.7298M49.0135 66.0786H48.7049C48.7049 66.0786 48.884 65.0501 48.7049 64.433C48.534 63.8442 47.8821 63.0959 47.8821 63.0959M45.208 42.8342C45.208 43.2457 45.4137 44.5827 45.5165 45.1998C45.6194 45.8169 46.9564 46.7426 46.9564 46.7426C47.3179 46.8631 47.5206 46.9306 47.8821 47.0511C48.2436 47.1716 47.8821 48.7996 47.8821 48.7996M47.8821 48.7996C47.8821 48.7996 47.479 50.4455 47.6764 51.0623M47.8821 48.7996L47.3678 49.0053H46.1336C46.1336 49.0053 45.1413 49.0574 44.5909 48.7996C44.0501 48.5464 43.9518 48.1089 43.4595 47.7711C43.1185 47.5371 42.9222 47.3988 42.5338 47.2568C42.0749 47.0891 41.7875 47.0778 41.2996 47.0511C40.5733 47.0115 40.1757 47.2489 39.4483 47.2568C38.641 47.2657 38.1734 47.2514 37.3913 47.0511C37.0221 46.9566 36.4656 46.7426 36.4656 46.7426C36.4656 46.7426 35.4621 45.883 34.82 46.1255M47.6764 51.0623C47.8406 51.5756 48.7049 51.6794 48.7049 51.6794M47.6764 51.0623C43.2983 51.0623 40.8437 51.0623 36.4656 51.0623M48.7049 51.6794C48.7049 51.6794 49.2302 52.1278 49.6306 52.2965C50.1907 52.5326 50.5709 52.5833 51.1733 52.5022M48.7049 51.6794L48.4839 54.1479C47.6764 55.0782 39.9472 56.2096 36.4656 56.7191M51.1733 52.5022C51.6151 52.4219 51.8944 52.479 52.3047 52.2965C52.9275 52.0196 53.1117 51.5935 53.5389 51.0623C53.9578 50.5414 54.4646 49.6224 54.4646 49.6224L54.876 48.7996M51.1733 52.5022C50.7717 53.1449 50.1448 54.1479 50.1448 54.1479C50.1448 54.1479 49.8204 54.5152 49.6306 54.765C49.3676 55.1108 49.0135 55.6906 49.0135 55.6906C49.0135 55.6906 48.8693 56.3443 49.0135 56.7191C49.1766 57.1433 49.562 57.3362 49.8363 57.5419M49.8363 57.5419L51.1733 57.2334M49.8363 57.5419L48.0878 58.3648C48.0878 58.3648 47.2304 59.0215 46.6479 59.3933C46.1019 59.7417 45.7275 59.8294 45.208 60.2161C44.8882 60.4541 44.7378 60.6235 44.4366 60.8846M41.6082 64.433C41.6082 64.433 41.5019 65.3207 41.6082 65.8729C41.697 66.3345 41.6885 66.6704 42.0196 67.0042C42.2725 67.2593 42.5211 67.255 42.8424 67.4156M41.6082 64.433L41.8139 63.7644C41.8139 63.7644 41.9084 63.3454 42.0196 63.0959C42.3781 62.2912 43.0066 62.1381 43.6652 61.5531C43.9632 61.2884 44.1322 61.142 44.4366 60.8846M41.6082 64.433C41.6082 64.433 37.3913 66.49 36.4656 65.2558C35.8653 64.4553 36.6703 64.0754 36.4656 63.0959C36.2446 62.038 35.3324 61.8157 35.318 60.735C35.3046 59.7272 35.9706 59.335 36.2437 58.3648C36.7404 56.5994 34.82 54.4564 34.82 54.4564M42.8424 67.4156C42.0653 66.5479 42.0653 65.3007 42.8424 64.433C43.238 63.9912 43.5872 63.6816 44.1795 63.713C44.5221 63.7312 44.488 64.0216 45.0023 64.0216C45.5165 64.0216 45.8855 64.0337 46.1336 64.433C46.3456 64.7741 46.1336 65.0598 46.1336 65.4615C46.1336 65.9836 46.1336 66.7985 46.1336 66.7985M49.8363 61.2446C49.8363 61.2446 50.9066 62.2449 51.1733 63.0959C51.4256 63.9008 51.1733 65.2558 51.1733 65.2558V65.7298M51.1733 65.7298C51.1733 65.7298 52.1105 65.5467 52.7161 65.4615C53.5551 65.3434 54.0355 65.3636 54.876 65.2558C55.8453 65.1315 56.4363 65.2054 57.3444 64.8444L70.804 55.9678M34.82 46.1255C34.3675 46.2963 33.9972 47.0511 33.9972 47.0511C33.7856 47.5435 33.7641 47.8577 33.6886 48.3882C33.5642 49.263 33.5858 50.0338 33.6886 50.6509C33.7915 51.268 33.9972 52.564 33.9972 52.8108C33.9972 52.8108 34.5457 54.0107 34.82 54.4564M34.82 46.1255C34.82 46.1255 33.8054 45.1998 32.8658 45.1998C31.9263 45.1998 26.6829 48.5142 26.988 50.1414C27.2965 51.787 33.3963 55.8963 29.1632 56.7191C24.9301 57.5419 20.714 50.4452 21.2283 48.7996C21.7426 47.154 29.2518 38.9398 40.8882 39.3373C52.5247 39.7348 77.0917 33.2691 77.0917 33.2691L81.0001 52.2965C80.6858 52.3634 80.4986 52.2965 80.1772 52.2965L70.804 55.9678M34.82 54.4564C34.82 54.4564 34.9402 54.5781 35.1321 54.765M44.4366 60.8846C43.8144 60.8555 43.4652 60.8442 42.8424 60.8332C40.8679 60.5922 39.7609 60.4571 37.7864 60.2161M70.2897 47.673C70.2897 47.673 71.8067 50.2665 71.8325 52.0956C71.8545 53.6601 70.804 55.9678 70.804 55.9678" stroke="#725050" stroke-width="0.329123"/>
</g>
</g>
<defs>
<filter id="filter0_dd_163_392" x="0" y="0" width="91" height="98" filterUnits="userSpaceOnUse" color-interpolation-filters="sRGB">
<feFlood flood-opacity="0" result="BackgroundImageFix"/>
<feColorMatrix in="SourceAlpha" type="matrix" values="0 0 0 0 0 0 0 0 0 0 0 0 0 0 0 0 0 0 127 0" result="hardAlpha"/>
<feOffset dy="4"/>
<feGaussianBlur stdDeviation="2"/>
<feComposite in2="hardAlpha" operator="out"/>
<feColorMatrix type="matrix" values="0 0 0 0 0 0 0 0 0 0 0 0 0 0 0 0 0 0 0.25 0"/>
<feBlend mode="normal" in2="BackgroundImageFix" result="effect1_dropShadow_163_392"/>
<feColorMatrix in="SourceAlpha" type="matrix" values="0 0 0 0 0 0 0 0 0 0 0 0 0 0 0 0 0 0 127 0" result="hardAlpha"/>
<feOffset dy="4"/>
<feGaussianBlur stdDeviation="2"/>
<feComposite in2="hardAlpha" operator="out"/>
<feColorMatrix type="matrix" values="0 0 0 0 0 0 0 0 0 0 0 0 0 0 0 0 0 0 0.25 0"/>
<feBlend mode="normal" in2="effect1_dropShadow_163_392" result="effect2_dropShadow_163_392"/>
<feBlend mode="normal" in="SourceGraphic" in2="effect2_dropShadow_163_392" result="shape"/>
</filter>
<filter id="filter1_dd_163_392" x="8.83545" y="26.6741" width="76.3586" height="49.1121" filterUnits="userSpaceOnUse" color-interpolation-filters="sRGB">
<feFlood flood-opacity="0" result="BackgroundImageFix"/>
<feColorMatrix in="SourceAlpha" type="matrix" values="0 0 0 0 0 0 0 0 0 0 0 0 0 0 0 0 0 0 127 0" result="hardAlpha"/>
<feOffset dy="4"/>
<feGaussianBlur stdDeviation="2"/>
<feComposite in2="hardAlpha" operator="out"/>
<feColorMatrix type="matrix" values="0 0 0 0 0 0 0 0 0 0 0 0 0 0 0 0 0 0 0.25 0"/>
<feBlend mode="normal" in2="BackgroundImageFix" result="effect1_dropShadow_163_392"/>
<feColorMatrix in="SourceAlpha" type="matrix" values="0 0 0 0 0 0 0 0 0 0 0 0 0 0 0 0 0 0 127 0" result="hardAlpha"/>
<feOffset dy="4"/>
<feGaussianBlur stdDeviation="2"/>
<feComposite in2="hardAlpha" operator="out"/>
<feColorMatrix type="matrix" values="0 0 0 0 0 0 0 0 0 0 0 0 0 0 0 0 0 0 0.25 0"/>
<feBlend mode="normal" in2="effect1_dropShadow_163_392" result="effect2_dropShadow_163_392"/>
<feBlend mode="normal" in="SourceGraphic" in2="effect2_dropShadow_163_392" result="shape"/>
</filter>
<filter id="filter2_dd_163_392" x="8.44714" y="26.6741" width="32.0198" height="18.7924" filterUnits="userSpaceOnUse" color-interpolation-filters="sRGB">
<feFlood flood-opacity="0" result="BackgroundImageFix"/>
<feColorMatrix in="SourceAlpha" type="matrix" values="0 0 0 0 0 0 0 0 0 0 0 0 0 0 0 0 0 0 127 0" result="hardAlpha"/>
<feOffset dy="4.38831"/>
<feGaussianBlur stdDeviation="2.19415"/>
<feComposite in2="hardAlpha" operator="out"/>
<feColorMatrix type="matrix" values="0 0 0 0 0 0 0 0 0 0 0 0 0 0 0 0 0 0 0.25 0"/>
<feBlend mode="normal" in2="BackgroundImageFix" result="effect1_dropShadow_163_392"/>
<feColorMatrix in="SourceAlpha" type="matrix" values="0 0 0 0 0 0 0 0 0 0 0 0 0 0 0 0 0 0 127 0" result="hardAlpha"/>
<feOffset dy="4.38831"/>
<feGaussianBlur stdDeviation="2.19415"/>
<feComposite in2="hardAlpha" operator="out"/>
<feColorMatrix type="matrix" values="0 0 0 0 0 0 0 0 0 0 0 0 0 0 0 0 0 0 0.25 0"/>
<feBlend mode="normal" in2="effect1_dropShadow_163_392" result="effect2_dropShadow_163_392"/>
<feBlend mode="normal" in="SourceGraphic" in2="effect2_dropShadow_163_392" result="shape"/>
</filter>
<filter id="filter3_dd_163_392" x="16.6327" y="33.0657" width="68.9497" height="43.497" filterUnits="userSpaceOnUse" color-interpolation-filters="sRGB">
<feFlood flood-opacity="0" result="BackgroundImageFix"/>
<feColorMatrix in="SourceAlpha" type="matrix" values="0 0 0 0 0 0 0 0 0 0 0 0 0 0 0 0 0 0 127 0" result="hardAlpha"/>
<feOffset dy="4.38831"/>
<feGaussianBlur stdDeviation="2.19415"/>
<feComposite in2="hardAlpha" operator="out"/>
<feColorMatrix type="matrix" values="0 0 0 0 0 0 0 0 0 0 0 0 0 0 0 0 0 0 0.25 0"/>
<feBlend mode="normal" in2="BackgroundImageFix" result="effect1_dropShadow_163_392"/>
<feColorMatrix in="SourceAlpha" type="matrix" values="0 0 0 0 0 0 0 0 0 0 0 0 0 0 0 0 0 0 127 0" result="hardAlpha"/>
<feOffset dy="4.38831"/>
<feGaussianBlur stdDeviation="2.19415"/>
<feComposite in2="hardAlpha" operator="out"/>
<feColorMatrix type="matrix" values="0 0 0 0 0 0 0 0 0 0 0 0 0 0 0 0 0 0 0.25 0"/>
<feBlend mode="normal" in2="effect1_dropShadow_163_392" result="effect2_dropShadow_163_392"/>
<feBlend mode="normal" in="SourceGraphic" in2="effect2_dropShadow_163_392" result="shape"/>
</filter>
</defs>
</svg>
