<svg width="91" height="98" viewBox="0 0 91 98" fill="none" xmlns="http://www.w3.org/2000/svg">
<g filter="url(#filter0_d_140_73)">
<ellipse cx="45.5" cy="45" rx="41.5" ry="45" fill="#D9D9D9"/>
</g>
<g filter="url(#filter1_d_140_73)">
<path d="M39.4326 62.4398C36.9236 60.0964 31.7478 57.4828 31.7478 57.4828C31.7478 57.4828 24.4509 52.0641 24.1397 49.6781C23.8233 47.2523 24.0486 46.3831 24.7724 44.0883C25.1775 42.804 25.7421 42.2096 26.1435 40.9242C26.6906 39.1726 25.9337 38.652 26.7764 37.0219C27.433 35.7518 28.3686 35.489 29.0967 34.4906C30.25 32.9093 28.8857 30.5883 30.1514 29.639C31.2789 28.7933 34.0378 29.8274 33.8546 28.3624C33.6318 26.5805 33.5382 24.2016 34.382 23.2999C35.3689 22.2452 38.4834 22.6781 39.2217 22.9945C39.96 23.3109 46.499 32.1703 46.499 32.1703C46.499 32.1703 47.3716 32.153 47.5537 31.7484C48.503 29.639 47.6592 25.2093 48.292 21.2015C48.883 17.4577 51.0626 13.6236 54.831 14.0297C55.6861 14.1218 55.2037 14.0457 55.8858 14.2406C56.3643 14.3773 56.3996 14.6011 56.5187 15.0844C56.9261 16.7365 55.3016 17.5856 54.4166 18.9867C54.2912 19.1853 54.1806 19.3949 54.0928 19.6195C53.5501 21.0071 53.4296 22.7991 53.4849 24.4711C53.5718 27.0978 54.0928 29.4281 54.0928 29.4281C54.0928 29.4281 56.2021 39.6586 59.2608 45.0375C60.4213 47.0783 59.4717 51.5765 59.4717 51.5765L62.3193 60.4359L66.2217 76.3617H46.9209L42.5967 66.2367C42.5967 66.2367 40.8432 63.7573 39.4326 62.4398Z" fill="#ECCCC0"/>
<path d="M42.5967 66.2367C42.5967 66.2367 40.8432 63.7573 39.4326 62.4398C36.9236 60.0964 31.7478 57.4828 31.7478 57.4828C31.7478 57.4828 24.4509 52.0641 24.1397 49.6781C23.8233 47.2523 24.0486 46.3831 24.7724 44.0883C25.1775 42.804 25.7421 42.2096 26.1435 40.9242C26.6906 39.1726 25.9337 38.652 26.7764 37.0219C27.433 35.7518 28.3686 35.489 29.0967 34.4906C30.25 32.9093 28.8857 30.5883 30.1514 29.639C31.2789 28.7933 34.0378 29.8274 33.8546 28.3624C33.6318 26.5805 33.5382 24.2016 34.382 23.2999C35.3689 22.2452 38.4834 22.6781 39.2217 22.9945C39.96 23.3109 46.499 32.1703 46.499 32.1703M42.5967 66.2367L46.9209 76.3617H66.2217L62.3193 60.4359L59.4717 51.5765M42.5967 66.2367C42.5967 66.2367 47.104 65.0042 49.2412 63.1781C52.2606 60.5983 50.6123 54.7406 50.6123 54.7406M59.4717 51.5765C59.4717 51.5765 60.4213 47.0783 59.2608 45.0375C56.2021 39.6586 54.0928 29.4281 54.0928 29.4281C54.0928 29.4281 53.5718 27.0978 53.4849 24.4711M59.4717 51.5765C59.4717 51.5765 55.552 53.1926 53.7764 53.3695C50.6785 53.6782 47.5537 50.6273 47.5537 50.6273M46.499 32.1703C46.499 32.1703 47.3716 32.153 47.5537 31.7484C48.503 29.639 47.6592 25.2093 48.292 21.2015C48.883 17.4577 51.0626 13.6236 54.831 14.0297C55.6861 14.1218 55.2037 14.0457 55.8858 14.2406C56.3643 14.3773 56.3996 14.6011 56.5187 15.0844C56.9261 16.7365 55.3016 17.5856 54.4166 18.9867M46.499 32.1703C46.499 32.1703 47.801 33.1033 48.292 33.9633C48.7577 34.7789 49.0605 35.3542 48.9248 36.2836C48.7828 37.2558 48.4218 37.9329 47.5537 38.393C46.7166 38.8365 45.1279 38.393 45.1279 38.393M25.7217 46.8305C25.7217 46.8305 31.0884 47.349 33.6318 49.3617C34.9596 50.4124 34.8032 52.8704 36.4795 52.6312C37.7494 52.4501 38.3688 51.4463 38.6943 50.2055C38.872 49.5282 38.6943 48.4125 38.6943 48.4125M38.6943 48.4125L34.4756 44.0883L27.4092 40.5023M38.6943 48.4125C38.6943 48.4125 40.198 48.6296 41.1201 48.4125C41.963 48.214 42.5698 48.1286 43.124 47.4633C43.9675 46.4505 43.124 44.0883 43.124 44.0883M35.6357 29.4281L38.6943 32.1703L42.5967 35.4398L45.1279 38.393M45.1279 38.393C45.1279 38.393 46.499 39.8 46.499 40.9242C46.499 42.0484 46.0382 42.7958 45.1279 43.4555C44.4634 43.937 43.124 44.0883 43.124 44.0883M43.124 44.0883L39.8545 41.6625L30.1514 34.7015M32.6826 46.725C32.6826 46.725 33.1732 46.6742 33.4209 46.1976C33.6488 45.7591 33.5264 45.2484 33.5264 45.2484M36.2686 43.35C36.2686 43.35 36.9443 43.6281 37.3232 43.0336C37.6618 42.5022 37.3232 41.8734 37.3232 41.8734M38.3779 37.4437C38.3779 37.4437 39.09 37.5324 39.5381 37.0219C40.1112 36.3689 39.749 35.6508 39.749 35.6508M41.6475 32.4867C41.6475 32.4867 42.5408 32.541 42.9131 31.8539C43.2517 31.2287 43.124 30.6937 43.124 30.6937M56.0967 16.7719L55.1475 16.139C55.1475 16.139 53.9884 16.7893 53.8819 17.5101C53.7922 18.1168 54.4166 18.9867 54.4166 18.9867M54.4166 18.9867C54.2912 19.1853 54.1806 19.3949 54.0928 19.6195C53.5501 21.0071 53.4296 22.7991 53.4849 24.4711M51.9835 24.1547C51.9835 24.1547 52.434 24.0041 52.7217 24.0492C53.0582 24.1019 53.4849 24.4711 53.4849 24.4711M45.8662 37.9711L48.1865 35.6508C48.1865 35.6508 47.4324 34.3438 46.6045 34.1742C45.9872 34.0477 45.4426 34.0211 45.0224 34.4906C44.7093 34.8406 44.725 35.1815 44.706 35.6508C44.6651 36.663 45.8662 37.9711 45.8662 37.9711ZM43.6513 43.4555L45.8662 40.5023C45.8662 40.5023 44.9326 38.9399 43.9678 38.9203C43.2861 38.9065 42.8157 39.1295 42.3857 39.6586C41.9825 40.1548 41.9199 40.6027 41.9638 41.2406C42.0385 42.3254 43.6513 43.4555 43.6513 43.4555ZM40.8037 48.0961L42.8076 45.5648C42.8076 45.5648 41.9215 44.0688 41.0146 44.0883C40.3506 44.1025 39.9369 44.401 39.5381 44.932C39.1779 45.4115 39.0405 45.8137 39.1162 46.4086C39.2339 47.3331 40.8037 48.0961 40.8037 48.0961ZM36.4795 51.4711L38.167 49.6781C38.167 49.6781 37.7537 48.2666 37.0068 48.0961C36.5579 47.9936 36.2151 48.0307 35.8467 48.307C35.4783 48.5833 35.3919 48.907 35.3193 49.3617C35.1712 50.2901 36.4795 51.4711 36.4795 51.4711Z" stroke="#725050" stroke-width="0.3"/>
</g>
<g filter="url(#filter2_d_140_73)">
<path d="M18.0798 53.9718C18.3404 54.0632 18.6257 53.9261 18.7172 53.6655L20.2069 49.4193C20.2983 49.1587 20.1612 48.8734 19.9006 48.7819C19.6401 48.6905 19.3547 48.8276 19.2633 49.0882L17.9391 52.8627L14.1646 51.5385C13.9041 51.447 13.6187 51.5842 13.5273 51.8447C13.4359 52.1053 13.573 52.3907 13.8336 52.4821L18.0798 53.9718ZM22.5247 31.5521C22.5534 31.2775 22.3541 31.0315 22.0795 31.0027L17.604 30.5338C17.3294 30.505 17.0834 30.7043 17.0546 30.9789C17.0258 31.2536 17.2251 31.4995 17.4998 31.5283L21.478 31.9452L21.0611 35.9234C21.0324 36.198 21.2317 36.444 21.5063 36.4728C21.7809 36.5016 22.0269 36.3022 22.0557 36.0276L22.5247 31.5521ZM18.696 53.2834C16.1503 47.986 15.1276 44.2554 15.6674 41.0703C16.2038 37.9048 18.3063 35.1587 22.3422 31.8885L21.7126 31.1115C17.6207 34.4272 15.2801 37.3705 14.6814 40.9032C14.0861 44.4164 15.2363 48.3928 17.7947 53.7166L18.696 53.2834Z" fill="#725050"/>
</g>
<g filter="url(#filter3_d_140_73)">
<path d="M66.5 68.9955C66.4975 69.2716 66.7193 69.4975 66.9955 69.5L71.4953 69.5407C71.7714 69.5432 71.9973 69.3214 71.9998 69.0453C72.0023 68.7692 71.7805 68.5433 71.5043 68.5408L67.5045 68.5045L67.5407 64.5047C67.5432 64.2286 67.3214 64.0027 67.0453 64.0002C66.7692 63.9977 66.5433 64.2195 66.5408 64.4957L66.5 68.9955ZM72.0348 46.5387C71.7801 46.4322 71.4872 46.5523 71.3806 46.8071L69.6444 50.9586C69.5379 51.2134 69.658 51.5063 69.9128 51.6128C70.1675 51.7194 70.4604 51.5992 70.567 51.3445L72.1103 47.6542L75.8006 49.1975C76.0553 49.3041 76.3482 49.1839 76.4548 48.9292C76.5613 48.6744 76.4412 48.3815 76.1864 48.275L72.0348 46.5387ZM73.7787 58.8462L74.2662 58.957L73.7787 58.8462ZM67 69C67.3503 69.3567 67.3504 69.3567 67.3505 69.3566C67.3506 69.3565 67.3507 69.3564 67.3508 69.3563C67.3511 69.356 67.3514 69.3557 67.3518 69.3553C67.3527 69.3545 67.3539 69.3533 67.3554 69.3518C67.3584 69.3487 67.3629 69.3444 67.3686 69.3387C67.3802 69.3272 67.397 69.3105 67.4188 69.2886C67.4625 69.2449 67.5261 69.1806 67.6071 69.0976C67.7692 68.9315 68.001 68.6899 68.2821 68.3863C68.8438 67.7794 69.6039 66.9224 70.3971 65.9222C71.9678 63.9415 73.7272 61.327 74.2662 58.957L73.2911 58.7353C72.8061 60.8679 71.1761 63.3304 69.6135 65.3009C68.84 66.2763 68.0974 67.1136 67.5482 67.707C67.2738 68.0035 67.048 68.2387 66.8914 68.3992C66.8131 68.4795 66.7521 68.541 66.7109 68.5823C66.6904 68.6029 66.6748 68.6184 66.6644 68.6286C66.6593 68.6338 66.6554 68.6376 66.653 68.64C66.6517 68.6412 66.6508 68.6421 66.6503 68.6427C66.65 68.6429 66.6498 68.6431 66.6497 68.6432C66.6497 68.6433 66.6496 68.6433 66.6496 68.6433C66.6496 68.6433 66.6497 68.6433 67 69ZM74.2662 58.957C74.8159 56.5405 74.3026 53.4784 73.6855 51.0797C73.3739 49.8685 73.0295 48.8036 72.7631 48.0414C72.6299 47.6601 72.5158 47.3539 72.4349 47.1423C72.3944 47.0365 72.3621 46.9543 72.3398 46.8982C72.3287 46.8701 72.32 46.8485 72.3141 46.8338C72.3111 46.8264 72.3088 46.8207 72.3072 46.8168C72.3064 46.8148 72.3058 46.8133 72.3053 46.8122C72.3051 46.8116 72.3049 46.8112 72.3048 46.8109C72.3047 46.8107 72.3046 46.8106 72.3046 46.8105C72.3046 46.8103 72.3045 46.8102 71.8419 47C71.3793 47.1898 71.3793 47.1897 71.3793 47.1897C71.3793 47.1897 71.3793 47.1897 71.3793 47.1898C71.3794 47.1899 71.3795 47.1901 71.3796 47.1905C71.3799 47.1911 71.3803 47.1922 71.381 47.1938C71.3822 47.1969 71.3842 47.2017 71.3868 47.2082C71.3921 47.2212 71.4 47.241 71.4104 47.2672C71.4313 47.3197 71.462 47.398 71.5009 47.4997C71.5788 47.7032 71.6894 48.0002 71.8192 48.3714C72.0788 49.1142 72.4141 50.1514 72.717 51.3288C73.3289 53.7073 73.784 56.5683 73.2911 58.7353L74.2662 58.957Z" fill="#725050"/>
</g>
<defs>
<filter id="filter0_d_140_73" x="0" y="0" width="91" height="98" filterUnits="userSpaceOnUse" color-interpolation-filters="sRGB">
<feFlood flood-opacity="0" result="BackgroundImageFix"/>
<feColorMatrix in="SourceAlpha" type="matrix" values="0 0 0 0 0 0 0 0 0 0 0 0 0 0 0 0 0 0 127 0" result="hardAlpha"/>
<feOffset dy="4"/>
<feGaussianBlur stdDeviation="2"/>
<feComposite in2="hardAlpha" operator="out"/>
<feColorMatrix type="matrix" values="0 0 0 0 0 0 0 0 0 0 0 0 0 0 0 0 0 0 0.25 0"/>
<feBlend mode="normal" in2="BackgroundImageFix" result="effect1_dropShadow_140_73"/>
<feBlend mode="normal" in="SourceGraphic" in2="effect1_dropShadow_140_73" result="shape"/>
</filter>
<filter id="filter1_d_140_73" x="19.8501" y="13.8499" width="50.5627" height="70.6619" filterUnits="userSpaceOnUse" color-interpolation-filters="sRGB">
<feFlood flood-opacity="0" result="BackgroundImageFix"/>
<feColorMatrix in="SourceAlpha" type="matrix" values="0 0 0 0 0 0 0 0 0 0 0 0 0 0 0 0 0 0 127 0" result="hardAlpha"/>
<feOffset dy="4"/>
<feGaussianBlur stdDeviation="2"/>
<feComposite in2="hardAlpha" operator="out"/>
<feColorMatrix type="matrix" values="0 0 0 0 0 0 0 0 0 0 0 0 0 0 0 0 0 0 0.25 0"/>
<feBlend mode="normal" in2="BackgroundImageFix" result="effect1_dropShadow_140_73"/>
<feBlend mode="normal" in="SourceGraphic" in2="effect1_dropShadow_140_73" result="shape"/>
</filter>
<filter id="filter2_d_140_73" x="9.49902" y="30.531" width="17.0283" height="31.4692" filterUnits="userSpaceOnUse" color-interpolation-filters="sRGB">
<feFlood flood-opacity="0" result="BackgroundImageFix"/>
<feColorMatrix in="SourceAlpha" type="matrix" values="0 0 0 0 0 0 0 0 0 0 0 0 0 0 0 0 0 0 127 0" result="hardAlpha"/>
<feOffset dy="4"/>
<feGaussianBlur stdDeviation="2"/>
<feComposite in2="hardAlpha" operator="out"/>
<feColorMatrix type="matrix" values="0 0 0 0 0 0 0 0 0 0 0 0 0 0 0 0 0 0 0.25 0"/>
<feBlend mode="normal" in2="BackgroundImageFix" result="effect1_dropShadow_140_73"/>
<feBlend mode="normal" in="SourceGraphic" in2="effect1_dropShadow_140_73" result="shape"/>
</filter>
<filter id="filter3_d_140_73" x="62.5" y="46.4998" width="17.9937" height="31.041" filterUnits="userSpaceOnUse" color-interpolation-filters="sRGB">
<feFlood flood-opacity="0" result="BackgroundImageFix"/>
<feColorMatrix in="SourceAlpha" type="matrix" values="0 0 0 0 0 0 0 0 0 0 0 0 0 0 0 0 0 0 127 0" result="hardAlpha"/>
<feOffset dy="4"/>
<feGaussianBlur stdDeviation="2"/>
<feComposite in2="hardAlpha" operator="out"/>
<feColorMatrix type="matrix" values="0 0 0 0 0 0 0 0 0 0 0 0 0 0 0 0 0 0 0.25 0"/>
<feBlend mode="normal" in2="BackgroundImageFix" result="effect1_dropShadow_140_73"/>
<feBlend mode="normal" in="SourceGraphic" in2="effect1_dropShadow_140_73" result="shape"/>
</filter>
</defs>
</svg>
