<svg width="91" height="98" viewBox="0 0 91 98" fill="none" xmlns="http://www.w3.org/2000/svg">
<g filter="url(#filter0_dd_161_353)">
<g filter="url(#filter1_d_161_353)">
<ellipse cx="45.5" cy="45" rx="41.5" ry="45" fill="#D9D9D9"/>
</g>
<g filter="url(#filter2_d_161_353)">
<ellipse cx="45.5" cy="45" rx="41.5" ry="45" fill="#D9D9D9"/>
</g>
<g filter="url(#filter3_d_161_353)">
<g filter="url(#filter4_dd_161_353)">
<path d="M30.271 51.9219C31.8205 48.449 32.6837 46.4994 34.2085 43.0156C34.8331 41.5887 35.1356 40.7671 35.8023 39.3594C36.1304 38.6665 36.6182 37.7069 36.8654 37.2245C36.6188 36.7994 36.7197 35.9466 36.7398 35.3281C36.7888 33.8152 37.396 32 37.396 32L45.1773 23.2968L47.1414 22.2031C47.1414 22.2031 48.9732 21.9995 49.3491 21.7929C49.3491 21.7929 49.9111 20.6444 50.521 20.1406C51.1401 19.6292 51.6265 19.5261 52.396 19.2968C53.5237 18.9609 54.2202 19.0626 55.396 19.0156C56.274 18.9805 57.646 19.0156 57.646 19.0156L59.521 19.2968L61.8647 20.1406L63.9272 20.8906C63.9272 20.8906 64.2213 21.0904 64.396 21.236C64.9086 21.6137 65.1628 21.8751 65.7085 22.2031C66.3967 22.6168 66.9316 22.578 67.5835 23.0469C67.5835 23.0469 67.8202 23.3766 68.146 23.7674C68.4242 24.1011 68.7674 24.4793 69.0835 24.7344C69.3286 24.9321 69.4732 25.0354 69.7397 25.2031L70.396 25.6719C70.396 25.6719 70.7636 26.2127 70.8647 26.6094C70.9823 27.0706 71.0551 27.3919 70.8647 27.8281C70.6678 28.2796 70.3177 28.3716 69.9272 28.6719C69.4237 29.0591 68.5749 29.508 68.409 29.5945C68.4379 29.5869 68.4429 29.627 68.146 29.9844C67.7243 30.4921 66.5522 30.5469 66.5522 30.5469C66.0811 30.6142 65.8095 30.5469 65.3335 30.5469H64.396L63.7866 30.2656L63.1772 29.9844C62.7995 29.757 62.6351 29.5559 62.3335 29.2344C62.1379 29.0258 61.8647 28.6719 61.8647 28.6719V28.0625L60.4585 29.2344L58.9585 29.6094C58.3049 29.6934 57.271 29.6094 57.271 29.6094H56.4272L55.9585 30.5469C55.9585 30.5469 55.6302 31.1836 55.396 31.5781C55.0591 32.1457 54.6714 32.3596 54.4585 32.9844C54.3501 33.3024 54.2898 33.8281 54.2898 33.8281C54.2898 33.8281 54.2116 34.7734 53.9898 35.3281C53.7822 35.847 53.4634 36.0347 53.2398 36.5469C53.0264 37.0354 53.0879 37.3752 52.8648 37.8594C52.5583 38.5244 51.8306 38.6328 51.7398 39.3594C51.717 39.541 51.7398 39.8281 51.7398 39.8281C51.7398 39.8281 51.6715 40.6326 51.7398 41.1406C51.8431 41.9095 52.396 43.0156 52.396 43.0156C52.396 43.0156 53.321 43.857 53.8023 44.9844C53.9372 45.3004 53.9898 45.8441 53.9898 45.8441L55.1147 47.4219L55.441 47.8908C55.8383 47.879 57.271 48.5469 57.271 48.5469H58.9585C59.6091 48.3782 60.4585 47.7031 60.4585 47.7031C60.4585 47.7031 61.2522 46.8754 61.8647 46.4844C62.3454 46.1775 62.6395 46.034 63.1772 45.8441L63.7866 45.5469L64.396 44.9844L65.2866 44.5625L66.1772 44.1406C66.1772 44.1406 66.9688 43.3574 67.5835 43.0156C68.1303 42.7116 69.0835 42.4531 69.0835 42.4531L71.4272 42.0781L73.021 42.4531C73.021 42.4531 74.6999 43.1752 74.896 44.1406C74.9616 44.4635 74.9244 44.6561 74.896 44.9844C74.896 44.9844 74.7865 45.942 74.521 46.4844C74.1452 47.252 73.6629 47.5137 73.021 48.0781C72.2506 48.7554 71.5938 48.8565 70.8647 49.5781C70.4583 49.9804 69.9272 50.7031 69.9272 50.7031C69.5767 51.1638 69.4821 51.5021 69.0835 51.9219C68.3049 52.7419 67.5104 52.7275 66.5522 53.3281C65.6831 53.8729 65.2702 54.2915 64.396 54.8281C63.6141 55.3081 63.2007 55.6534 62.3335 55.9531C61.6277 56.197 60.4585 56.3281 60.4585 56.3281C60.4585 56.3281 59.589 57.031 58.9585 57.3594C58.6387 57.5259 58.4527 57.6085 58.1148 57.7343L44.146 66.3125L37.021 76.5L23 67.9531C23 67.9531 27.47 58.1998 30.271 51.9219Z" fill="#ECCCC0"/>
<path d="M37.021 36.9219C37.021 36.9219 36.2578 38.3975 35.8023 39.3594C35.1356 40.7671 34.8331 41.5887 34.2085 43.0156C32.6837 46.4994 31.8205 48.449 30.271 51.9219C27.47 58.1998 23 67.9531 23 67.9531L37.021 76.5L44.146 66.3125L58.1148 57.7343M49.3491 21.7929C48.9732 21.9995 47.1414 22.2031 47.1414 22.2031L45.1773 23.2968L37.396 32C37.396 32 36.7888 33.8152 36.7398 35.3281C36.7112 36.2078 36.5192 37.5617 37.396 37.4844L42.9082 29.9844L46.771 26.6094C47.0807 26.3944 47.272 26.2976 47.6148 26.1406C48.1727 25.885 48.5367 25.8779 49.1148 25.6719C49.6719 25.4733 49.938 25.2091 50.521 25.1094C50.9901 25.0291 51.2646 25.1367 51.7398 25.1094C52.6291 25.0582 53.101 24.7948 53.9898 24.7344C54.6107 24.6921 55.5835 24.7344 55.5835 24.7344L56.896 25.1094C56.896 25.1094 57.2109 25.0422 57.646 24.9956C57.7212 24.9876 57.8 24.9801 57.8814 24.9737M49.3491 21.7929L55.1147 21.236C55.1147 21.236 61.1196 22.4076 64.3963 23.8906M49.3491 21.7929C49.3491 21.7929 49.9111 20.6444 50.521 20.1406C51.1401 19.6292 51.6265 19.5261 52.396 19.2968C53.5237 18.9609 54.2202 19.0626 55.396 19.0156C56.274 18.9805 57.646 19.0156 57.646 19.0156L59.521 19.2968L61.8647 20.1406L63.9272 20.8906C63.9272 20.8906 64.2213 21.0904 64.396 21.236C64.9086 21.6137 65.1628 21.8751 65.7085 22.2031C66.3967 22.6168 66.9316 22.578 67.5835 23.0469C67.5835 23.0469 67.8202 23.3766 68.146 23.7674M61.8647 28.6719C61.8647 28.6719 62.1379 29.0258 62.3335 29.2344C62.6351 29.5559 62.7995 29.757 63.1772 29.9844L63.7866 30.2656M61.8647 28.6719L63.7866 30.2656M61.8647 28.6719V28.0625M70.396 25.6719C70.396 25.6719 70.7636 26.2127 70.8647 26.6094C70.9823 27.0706 71.0551 27.3919 70.8647 27.8281C70.6678 28.2796 70.3177 28.3716 69.9272 28.6719C69.3673 29.1025 68.3804 29.6094 68.3804 29.6094M70.396 25.6719C70.396 25.6719 69.996 25.3862 69.7397 25.2031C69.4732 25.0354 69.3286 24.9321 69.0835 24.7344C68.7674 24.4793 68.4242 24.1011 68.146 23.7674M70.396 25.6719C70.396 25.6719 69.2942 26.5033 68.6147 26.237C67.7008 25.8787 68.146 23.7674 68.146 23.7674M68.3804 29.6094L68.6147 29.2344L67.5835 26.6094M68.3804 29.6094C68.3804 29.6094 68.5677 29.4766 68.146 29.9844C67.7243 30.4921 66.5522 30.5469 66.5522 30.5469C66.0811 30.6142 65.8095 30.5469 65.3335 30.5469C64.9674 30.5469 64.396 30.5469 64.396 30.5469L63.7866 30.2656M61.8647 28.0625V27.4531C61.8647 27.4531 61.6143 26.9166 61.396 26.6094C61.3004 26.4748 61.2076 26.3511 61.1148 26.237M61.8647 28.0625L60.4585 29.2344C59.8727 29.3808 59.5443 29.4629 58.9585 29.6094C58.3049 29.6934 57.271 29.6094 57.271 29.6094H56.4272M45.5523 45.5469V47.7031C45.5523 48.4353 45.5833 48.8465 45.5523 49.5781C45.3535 54.2687 41.8023 61 41.8023 61M58.1148 57.7343C58.188 57.3133 57.646 56.3281 57.646 56.3281C57.7297 55.296 57.271 53.7031 57.271 53.7031L56.896 51.9219C56.896 51.9219 57.1289 49.8096 56.3335 48.9219C56.1692 48.7384 55.8647 48.5 55.8647 48.5M58.1148 57.7343C58.4527 57.6085 58.6387 57.5259 58.9585 57.3594C59.589 57.031 60.4585 56.3281 60.4585 56.3281C60.4585 56.3281 61.6277 56.197 62.3335 55.9531C63.2007 55.6534 63.6141 55.3081 64.396 54.8281C65.2702 54.2915 65.6831 53.8729 66.5522 53.3281C67.5104 52.7275 68.3049 52.7419 69.0835 51.9219C69.4821 51.5021 69.5767 51.1638 69.9272 50.7031C69.9272 50.7031 70.4583 49.9804 70.8647 49.5781C71.5938 48.8565 72.2507 48.7554 73.021 48.0781C73.6629 47.5137 74.1452 47.252 74.521 46.4844C74.7865 45.942 74.896 44.9844 74.896 44.9844C74.9244 44.6561 74.9616 44.4635 74.896 44.1406C74.6999 43.1752 73.021 42.4531 73.021 42.4531L71.4272 42.0781L69.0835 42.4531C69.0835 42.4531 68.1303 42.7116 67.5835 43.0156C66.9688 43.3574 66.1772 44.1406 66.1772 44.1406L65.2866 44.5625M56.4272 29.6094H55.5835C47.7835 30.9254 45.6227 33.6125 46.771 43.0156C47.5005 42.6569 48.8479 42.6045 49.8648 41.7969C50.4433 41.3373 51.1304 40.3906 51.1304 40.3906L51.7398 39.8281M56.4272 29.6094L55.9585 30.5469C55.9585 30.5469 55.6302 31.1836 55.396 31.5781C55.0591 32.1457 54.6714 32.3596 54.4585 32.9844C54.3501 33.3024 54.2898 33.8281 54.2898 33.8281C54.2898 33.8281 54.2116 34.7734 53.9898 35.3281C53.7822 35.847 53.4634 36.0347 53.2398 36.5469C53.0264 37.0354 53.0879 37.3752 52.8648 37.8594C52.5583 38.5244 51.8306 38.6328 51.7398 39.3594C51.717 39.541 51.7398 39.8281 51.7398 39.8281M55.8647 48.5C55.8647 48.5 55.5404 48.2776 55.396 48.0781C54.9536 47.4666 57.271 48.5469 57.271 48.5469H58.9585C59.6091 48.3782 60.4585 47.7031 60.4585 47.7031C60.4585 47.7031 61.2522 46.8754 61.8647 46.4844C62.3454 46.1775 62.6395 46.034 63.1772 45.8441C63.4152 45.728 63.7866 45.5469 63.7866 45.5469L64.396 44.9844L65.2866 44.5625M55.8647 48.5L55.1147 47.4219L53.9898 45.8441C53.9898 45.8441 53.9372 45.3004 53.8023 44.9844C53.321 43.857 52.396 43.0156 52.396 43.0156C52.396 43.0156 51.8431 41.9095 51.7398 41.1406C51.6715 40.6326 51.7398 39.8281 51.7398 39.8281M61.1148 26.237C60.6805 25.7028 60.246 25.3764 59.521 25.1094C59.0501 24.9358 58.411 24.9322 57.8814 24.9737M61.1148 26.237C61.1148 26.237 60.5518 27.2706 59.9082 27.4531C58.705 27.7943 57.8814 24.9737 57.8814 24.9737M46.9082 52C47.8845 51.4142 47.4741 50.0469 49.4082 50.5M67.9585 47.7031C66.7882 47.7154 65.0528 45.7885 65.2866 44.5625M67.5835 26.6094L66.1772 25.0156C65.8288 24.6304 65.1932 24.2513 64.3963 23.8906M67.5835 26.6094C67.5835 26.6094 66.7492 27.7003 65.9699 27.8281C64.3358 28.0961 64.3963 23.8906 64.3963 23.8906" stroke="#725050" stroke-width="0.3"/>
</g>
</g>
</g>
<defs>
<filter id="filter0_dd_161_353" x="0" y="0" width="91" height="98" filterUnits="userSpaceOnUse" color-interpolation-filters="sRGB">
<feFlood flood-opacity="0" result="BackgroundImageFix"/>
<feColorMatrix in="SourceAlpha" type="matrix" values="0 0 0 0 0 0 0 0 0 0 0 0 0 0 0 0 0 0 127 0" result="hardAlpha"/>
<feOffset dy="4"/>
<feGaussianBlur stdDeviation="2"/>
<feComposite in2="hardAlpha" operator="out"/>
<feColorMatrix type="matrix" values="0 0 0 0 0 0 0 0 0 0 0 0 0 0 0 0 0 0 0.25 0"/>
<feBlend mode="normal" in2="BackgroundImageFix" result="effect1_dropShadow_161_353"/>
<feColorMatrix in="SourceAlpha" type="matrix" values="0 0 0 0 0 0 0 0 0 0 0 0 0 0 0 0 0 0 127 0" result="hardAlpha"/>
<feOffset dy="4"/>
<feGaussianBlur stdDeviation="2"/>
<feComposite in2="hardAlpha" operator="out"/>
<feColorMatrix type="matrix" values="0 0 0 0 0 0 0 0 0 0 0 0 0 0 0 0 0 0 0.25 0"/>
<feBlend mode="normal" in2="effect1_dropShadow_161_353" result="effect2_dropShadow_161_353"/>
<feBlend mode="normal" in="SourceGraphic" in2="effect2_dropShadow_161_353" result="shape"/>
</filter>
<filter id="filter1_d_161_353" x="0" y="0" width="91" height="98" filterUnits="userSpaceOnUse" color-interpolation-filters="sRGB">
<feFlood flood-opacity="0" result="BackgroundImageFix"/>
<feColorMatrix in="SourceAlpha" type="matrix" values="0 0 0 0 0 0 0 0 0 0 0 0 0 0 0 0 0 0 127 0" result="hardAlpha"/>
<feOffset dy="4"/>
<feGaussianBlur stdDeviation="2"/>
<feComposite in2="hardAlpha" operator="out"/>
<feColorMatrix type="matrix" values="0 0 0 0 0 0 0 0 0 0 0 0 0 0 0 0 0 0 0.25 0"/>
<feBlend mode="normal" in2="BackgroundImageFix" result="effect1_dropShadow_161_353"/>
<feBlend mode="normal" in="SourceGraphic" in2="effect1_dropShadow_161_353" result="shape"/>
</filter>
<filter id="filter2_d_161_353" x="0" y="0" width="91" height="98" filterUnits="userSpaceOnUse" color-interpolation-filters="sRGB">
<feFlood flood-opacity="0" result="BackgroundImageFix"/>
<feColorMatrix in="SourceAlpha" type="matrix" values="0 0 0 0 0 0 0 0 0 0 0 0 0 0 0 0 0 0 127 0" result="hardAlpha"/>
<feOffset dy="4"/>
<feGaussianBlur stdDeviation="2"/>
<feComposite in2="hardAlpha" operator="out"/>
<feColorMatrix type="matrix" values="0 0 0 0 0 0 0 0 0 0 0 0 0 0 0 0 0 0 0.25 0"/>
<feBlend mode="normal" in2="BackgroundImageFix" result="effect1_dropShadow_161_353"/>
<feBlend mode="normal" in="SourceGraphic" in2="effect1_dropShadow_161_353" result="shape"/>
</filter>
<filter id="filter3_d_161_353" x="18.8081" y="18.8501" width="60.2744" height="65.8513" filterUnits="userSpaceOnUse" color-interpolation-filters="sRGB">
<feFlood flood-opacity="0" result="BackgroundImageFix"/>
<feColorMatrix in="SourceAlpha" type="matrix" values="0 0 0 0 0 0 0 0 0 0 0 0 0 0 0 0 0 0 127 0" result="hardAlpha"/>
<feOffset dy="4"/>
<feGaussianBlur stdDeviation="2"/>
<feComposite in2="hardAlpha" operator="out"/>
<feColorMatrix type="matrix" values="0 0 0 0 0 0 0 0 0 0 0 0 0 0 0 0 0 0 0.25 0"/>
<feBlend mode="normal" in2="BackgroundImageFix" result="effect1_dropShadow_161_353"/>
<feBlend mode="normal" in="SourceGraphic" in2="effect1_dropShadow_161_353" result="shape"/>
</filter>
<filter id="filter4_dd_161_353" x="18.8081" y="18.8501" width="60.2744" height="65.8513" filterUnits="userSpaceOnUse" color-interpolation-filters="sRGB">
<feFlood flood-opacity="0" result="BackgroundImageFix"/>
<feColorMatrix in="SourceAlpha" type="matrix" values="0 0 0 0 0 0 0 0 0 0 0 0 0 0 0 0 0 0 127 0" result="hardAlpha"/>
<feOffset dy="4"/>
<feGaussianBlur stdDeviation="2"/>
<feComposite in2="hardAlpha" operator="out"/>
<feColorMatrix type="matrix" values="0 0 0 0 0 0 0 0 0 0 0 0 0 0 0 0 0 0 0.25 0"/>
<feBlend mode="normal" in2="BackgroundImageFix" result="effect1_dropShadow_161_353"/>
<feColorMatrix in="SourceAlpha" type="matrix" values="0 0 0 0 0 0 0 0 0 0 0 0 0 0 0 0 0 0 127 0" result="hardAlpha"/>
<feOffset dy="4"/>
<feGaussianBlur stdDeviation="2"/>
<feComposite in2="hardAlpha" operator="out"/>
<feColorMatrix type="matrix" values="0 0 0 0 0 0 0 0 0 0 0 0 0 0 0 0 0 0 0.25 0"/>
<feBlend mode="normal" in2="effect1_dropShadow_161_353" result="effect2_dropShadow_161_353"/>
<feBlend mode="normal" in="SourceGraphic" in2="effect2_dropShadow_161_353" result="shape"/>
</filter>
</defs>
</svg>
