<svg width="91" height="98" viewBox="0 0 91 98" fill="none" xmlns="http://www.w3.org/2000/svg">
<g filter="url(#filter0_d_140_67)">
<ellipse cx="45.5" cy="45" rx="41.5" ry="45" fill="#D9D9D9"/>
</g>
<g filter="url(#filter1_d_140_67)">
<path d="M58.236 85H36.6902L36.1448 76.4974L35.3151 74.1785L32.872 67.3506L29.5992 56.1426L28.5565 51.8914L27.0082 45.5788L24.2809 37.8491L22.5083 31.9231C22.5083 31.9231 21.0083 27.2853 21.0083 24.3223C21.0083 23.6919 20.9065 23.1819 21.4174 22.7763C21.8565 22.4278 22.2103 22.0586 22.7809 22.0033C23.5522 21.9286 23.7354 22.0033 24.69 22.5186C25.6446 23.034 26.0537 25.7393 26.0537 25.7393L28.0992 32.3095L30.5537 38.1068C30.5537 38.1068 31.3719 40.2969 31.6447 40.5545C31.9174 40.8122 32.5447 41.3275 32.872 41.3275C33.1992 41.3275 33.9174 41.1557 34.2356 41.0698C34.5538 40.9839 34.9176 39.5239 34.9176 39.5239L32.872 23.034L32.5992 12.7278C32.5992 12.7278 32.5731 11.2965 33.1447 10.6665C33.5489 10.221 33.9124 10.0586 34.5084 9.89355C35.1727 9.70951 35.6345 9.65997 36.2811 9.89355C37.0909 10.186 37.7811 11.4395 37.7811 11.4395C38.0539 12.7278 38.137 13.8966 38.1902 15.3043C38.3167 18.647 38.8721 23.5493 38.8721 23.5493C38.8721 23.5493 39.9774 28.4137 40.3721 31.5366C40.5349 32.8249 40.3721 33.9843 40.7812 34.8861C40.9604 35.2812 41.0083 35.2869 41.463 35.2726C42.1127 35.2521 42.8267 34.9849 42.8267 34.3708V23.9357C42.8267 23.9357 42.963 17.4483 42.963 13.3719C42.963 10.1512 41.8721 7.96118 44.1903 5.77106C45.3577 4.66823 46.4432 4.86123 47.8722 5.64222C49.8414 6.71847 49.7813 25.7393 49.7813 25.7393V28.0583V30.506V32.3095V33.9843C49.7813 33.9843 49.7531 34.6553 50.0541 34.8861C50.3849 35.1397 51.145 34.8861 51.145 34.8861L51.5541 34.7573C54.4987 33.39 53.088 30.012 53.736 26.8989C54.5121 23.1699 54.7499 20.8817 54.9632 17.2367C55.1338 14.3232 54.8269 12.2124 55.6451 9.7647C56.0012 8.69948 56.3791 8.34334 57.5542 8.21879C58.6258 8.1052 59.331 8.45263 60.1452 9.12058C61.5409 10.2657 61.0997 13.5007 61.0997 13.5007V24.7087L60.1452 33.5978L59.5997 38.1068V43.2599L60.2815 52.7931C60.2815 52.7931 60.5302 53.7929 61.0997 54.7255C63.5815 58.7899 60.1452 66.7065 60.1452 66.7065L58.236 72.1172L57.6906 74.6938L58.236 85Z" fill="#ECCCC0"/>
<path d="M57.6906 74.6938L58.236 85H36.6902L36.1448 76.4974L35.315 74.1785M57.6906 74.6938L58.236 72.1172L60.1452 66.7065C60.1452 66.7065 63.5815 58.7899 61.0997 54.7255C60.5302 53.7929 60.2815 52.7931 60.2815 52.7931M57.6906 74.6938H53.736C53.736 74.6938 49.5184 74.3135 47.5996 72.7614C45.5004 71.0634 45.2528 69.2433 44.5996 66.7065C43.8191 63.6757 44.5996 58.7192 44.5996 58.7192M60.2815 52.7931L59.5997 43.2599V38.1068L60.1452 33.5978L61.0997 24.7087V13.5007C61.0997 13.5007 61.5409 10.2657 60.1452 9.12058C59.331 8.45263 58.6258 8.1052 57.5542 8.21879C56.3791 8.34334 56.0012 8.69948 55.6451 9.7647C54.8269 12.2124 55.1338 14.3232 54.9632 17.2367C54.7499 20.8817 54.5121 23.1699 53.736 26.8989C53.088 30.012 54.4987 33.39 51.5541 34.7573L51.145 34.8861C51.145 34.8861 50.3849 35.1397 50.0541 34.8861C49.7531 34.6553 49.7813 33.9843 49.7813 33.9843V32.3095V30.506V28.0583V25.7393C49.7813 25.7393 49.8414 6.71847 47.8722 5.64222C46.4432 4.86123 45.3577 4.66823 44.1903 5.77106C41.8721 7.96118 42.963 10.1512 42.963 13.3719C42.963 17.4483 42.8267 23.9357 42.8267 23.9357C42.8267 23.9357 42.8267 31.0213 42.8267 34.3708C42.8267 34.9849 42.1127 35.2521 41.463 35.2726C41.0083 35.2869 40.9604 35.2812 40.7812 34.8861C40.3721 33.9843 40.5349 32.8249 40.3721 31.5366C39.9774 28.4137 38.8721 23.5493 38.8721 23.5493C38.8721 23.5493 38.3167 18.647 38.1902 15.3043C38.137 13.8966 38.0539 12.7278 37.7811 11.4395C37.7811 11.4395 37.0909 10.186 36.2811 9.89355C35.6345 9.65997 35.1727 9.70951 34.5084 9.89355C33.9124 10.0586 33.5489 10.221 33.1447 10.6665C32.5731 11.2965 32.5992 12.7278 32.5992 12.7278L32.872 23.034L34.9176 39.5239C34.9176 39.5239 34.5538 40.9839 34.2356 41.0698C33.9174 41.1557 33.1992 41.3275 32.872 41.3275C32.5447 41.3275 31.9174 40.8122 31.6447 40.5545C31.3719 40.2969 30.5537 38.1068 30.5537 38.1068L28.0992 32.3095L26.0537 25.7393C26.0537 25.7393 25.6446 23.034 24.69 22.5186C23.7354 22.0033 23.5522 21.9286 22.7809 22.0033C22.2103 22.0586 21.8565 22.4278 21.4174 22.7763C20.9065 23.1819 21.0083 23.6919 21.0083 24.3223C21.0083 27.2853 22.5083 31.9231 22.5083 31.9231L24.2809 37.8491L27.0082 45.5788L28.5565 51.8914M60.2815 52.7931C60.2815 52.7931 56.4011 44.8061 51.4177 43.2599C49.2327 42.582 48.6063 41.8431 46.3722 41.3275C44.3739 40.8663 43.5032 39.276 41.463 39.5239C39.7328 39.7341 38.1263 40.13 37.6448 41.714C37.1379 43.3813 39.963 45.5788 39.963 45.5788C39.963 45.5788 43.2264 47.4913 45.4176 48.5418C46.8837 49.2447 47.9859 49.2078 49.2359 50.2166C51.0467 51.678 50.6942 53.4657 51.9632 55.3697C53.4566 57.6104 56.4633 60.6516 56.4633 60.6516M51.145 47.5112C51.145 47.5112 50.7854 46.8281 51.5541 46.3518C52.133 45.9931 52.5088 45.7077 52.5088 45.7077M49.7813 46.9959C49.7813 46.9959 49.4034 46.2514 50.0541 45.5788C50.4881 45.13 51.145 44.9347 51.145 44.9347M23.5992 29.733C23.5992 29.733 23.967 29.0012 24.69 28.9601C25.2625 28.9275 25.6447 28.9601 25.6447 28.9601M26.0537 36.4321C26.0537 36.4321 26.2685 35.6722 27.0082 35.6591C27.5407 35.6497 28.0993 35.7879 28.0993 35.7879M34.2356 20.3286C34.2356 20.3286 34.6974 19.3712 35.5994 19.298C36.3882 19.234 36.9631 19.9421 36.9631 19.9421M35.5994 29.733C35.5994 29.733 35.9304 29.066 36.6902 28.9601C37.4068 28.8602 38.1902 29.2177 38.1902 29.2177M44.5996 17.8809C44.5996 17.8809 45.0846 17.1707 46.0996 17.2367C46.8547 17.2858 47.8722 17.8809 47.8722 17.8809M44.5996 29.2177C44.5996 29.2177 45.0829 28.3957 46.0996 28.5736C46.9142 28.7161 47.5996 29.2177 47.5996 29.2177M55.5088 27.8006C55.5088 27.8006 56.3028 26.2266 57.418 26.8989C58.1705 27.3525 58.7816 28.0583 58.7816 28.0583M56.4633 19.298C56.4633 19.298 57.3298 18.8113 58.2362 18.7827C59.3677 18.747 59.5997 19.5557 59.5997 19.5557M44.5996 70.7002C44.5996 70.7002 43.4203 73.3911 41.8722 74.1785C40.7776 74.7354 40.5243 74.6703 39.2813 74.6938C37.8762 74.7204 35.315 74.1785 35.315 74.1785M35.315 74.1785L32.872 67.3506L29.5992 56.1426L28.5565 51.8914M34.9176 52.7931C34.9176 52.7931 33.754 51.4332 31.6447 51.3761C31.2376 51.365 28.5565 51.8914 28.5565 51.8914M39.8268 43.9041L41.463 40.8122C41.463 40.8122 43.2859 40.8669 43.7814 41.714C44.2192 42.4626 44.2465 43.1703 43.7814 43.9041C43.3637 44.5629 42.812 44.8175 42.0086 44.9347C40.9236 45.0929 39.8268 43.9041 39.8268 43.9041Z" stroke="#725050" stroke-width="0.3"/>
</g>
<defs>
<filter id="filter0_d_140_67" x="0" y="0" width="91" height="98" filterUnits="userSpaceOnUse" color-interpolation-filters="sRGB">
<feFlood flood-opacity="0" result="BackgroundImageFix"/>
<feColorMatrix in="SourceAlpha" type="matrix" values="0 0 0 0 0 0 0 0 0 0 0 0 0 0 0 0 0 0 127 0" result="hardAlpha"/>
<feOffset dy="4"/>
<feGaussianBlur stdDeviation="2"/>
<feComposite in2="hardAlpha" operator="out"/>
<feColorMatrix type="matrix" values="0 0 0 0 0 0 0 0 0 0 0 0 0 0 0 0 0 0 0.25 0"/>
<feBlend mode="normal" in2="BackgroundImageFix" result="effect1_dropShadow_140_67"/>
<feBlend mode="normal" in="SourceGraphic" in2="effect1_dropShadow_140_67" result="shape"/>
</filter>
<filter id="filter1_d_140_67" x="15.6501" y="4.8501" width="51.6998" height="90.6998" filterUnits="userSpaceOnUse" color-interpolation-filters="sRGB">
<feFlood flood-opacity="0" result="BackgroundImageFix"/>
<feColorMatrix in="SourceAlpha" type="matrix" values="0 0 0 0 0 0 0 0 0 0 0 0 0 0 0 0 0 0 127 0" result="hardAlpha"/>
<feOffset dy="5.2"/>
<feGaussianBlur stdDeviation="2.6"/>
<feComposite in2="hardAlpha" operator="out"/>
<feColorMatrix type="matrix" values="0 0 0 0 0 0 0 0 0 0 0 0 0 0 0 0 0 0 0.25 0"/>
<feBlend mode="normal" in2="BackgroundImageFix" result="effect1_dropShadow_140_67"/>
<feBlend mode="normal" in="SourceGraphic" in2="effect1_dropShadow_140_67" result="shape"/>
</filter>
</defs>
</svg>
