<svg width="91" height="98" viewBox="0 0 91 98" fill="none" xmlns="http://www.w3.org/2000/svg">
<g filter="url(#filter0_dd_140_61)">
<ellipse cx="45.5" cy="45" rx="41.5" ry="45" fill="#D9D9D9"/>
<g filter="url(#filter1_ddd_140_61)">
<path d="M31.669 70.6594V68.2969V66.1594C31.669 66.1594 30.9325 65.7108 30.6565 65.2594C30.3731 64.7958 30.5827 64.5684 30.319 63.9094L29.644 62.2219C29.3804 61.5629 29.0855 60.8119 28.969 59.8594C28.8784 59.1181 28.969 58.6938 28.969 57.9469C28.969 57.1561 29.0211 56.711 28.969 55.9219C28.8958 54.812 28.6711 54.2113 28.519 53.1094C28.3619 51.9704 28.2403 51.3328 28.1815 50.1844C28.1344 49.263 28.0693 48.7377 28.1815 47.8219C28.3203 46.6898 28.6655 46.1089 28.969 45.0094C29.2357 44.0437 29.644 42.5344 29.644 42.5344L29.9815 41.6344C30.0934 41.2761 30.1677 41.0779 30.319 40.7344C30.7171 39.8309 30.8633 39.1674 31.669 38.5969C31.9898 38.3699 32.3741 38.4881 32.569 38.1469C32.7434 37.8418 32.6133 37.5956 32.569 37.2469C32.5113 36.7919 32.2612 36.5797 32.2315 36.1219C32.1937 35.537 32.3286 35.194 32.569 34.6594C32.8394 34.0584 33.1372 33.7961 33.5815 33.3094C33.791 33.08 33.9855 33.0141 34.144 32.7469C34.3073 32.4719 34.2812 32.267 34.369 31.9594V29.4844V26.2219V24.9844C34.369 24.9844 34.093 23.8192 33.919 23.0719C33.7862 22.501 33.6668 22.1894 33.5815 21.6094C33.4283 20.5662 33.5022 19.9609 33.5815 18.9094C33.6517 17.9801 33.5491 17.4024 33.919 16.5469C34.1948 15.9093 34.3973 15.5285 34.9315 15.0844C35.3848 14.7077 35.6941 14.4584 36.2815 14.4094C36.9889 14.3505 37.4022 14.6573 37.969 15.0844C38.5445 15.5181 38.7003 15.9434 39.094 16.5469C39.5558 17.2547 39.8073 17.6691 40.1065 18.4594C40.5491 19.6281 40.4976 20.3716 40.669 21.6094C40.8628 23.0081 40.7941 23.8135 41.0065 25.2094C41.2023 26.4957 41.4859 27.1857 41.6815 28.4719C41.8146 29.3464 41.8398 29.8433 41.9412 30.7219L42.019 31.3969C42.019 31.3969 41.783 33.3742 42.5815 34.0969C42.9457 34.4265 43.2295 34.5426 43.7065 34.6594C44.2186 34.7848 44.5293 34.6594 45.0566 34.6594V34.0969C45.0566 34.0969 45.0323 32.9995 45.0566 32.2969C45.1023 30.9731 45.2009 30.2324 45.3941 28.9219C45.472 28.3932 45.5312 28.0991 45.6191 27.5719C45.7069 27.0447 45.7848 26.7531 45.844 26.2219C45.9659 25.1304 45.844 24.5078 45.844 23.4094V19.9219V17.2219C45.844 16.0357 45.6547 15.3554 45.844 14.1844C45.975 13.3742 46.1183 12.9279 46.4065 12.1594C46.6619 11.4785 46.6738 10.9801 47.194 10.4719C47.9107 9.77187 48.6725 9.69448 49.6691 9.79693C50.6463 9.8974 51.2412 10.2109 51.9191 10.9219C52.5822 11.6174 52.7195 12.2286 52.9299 13.1644L52.9316 13.1719C53.1628 14.2007 52.9316 14.8175 52.9316 15.8719V19.9219V20.5969C52.9316 20.5969 52.9915 22.1072 52.9316 23.0719C52.8545 24.3122 52.4816 26.2219 52.4816 26.2219V27.5719V29.4844V32.2969V34.6594H53.3815C53.6386 34.2597 53.7865 34.0379 54.0566 33.6469C54.521 32.9745 54.8437 32.6413 55.2941 31.9594C55.7716 31.2364 56.082 30.8452 56.4191 30.0469C56.5731 29.6821 56.6247 29.4641 56.7565 29.0907C56.8884 28.7172 56.9628 28.5081 57.094 28.1344C57.4947 26.994 58.1065 25.2094 58.1065 25.2094C58.1065 25.2094 58.5755 24.3413 58.7815 23.7469C59.1459 22.696 58.9706 22.0157 59.2315 20.9344C59.4695 19.9484 59.7368 19.4337 60.019 18.4594C60.3097 17.4564 60.2531 16.8186 60.694 15.8719C60.9772 15.264 61.0268 14.7671 61.594 14.4094C62.1196 14.078 63.169 14.1844 63.169 14.1844C63.169 14.1844 64.2728 14.0912 64.8565 14.4094C65.7034 14.8711 65.8054 15.6266 66.094 16.5469C66.4885 17.8045 66.094 19.9219 66.094 19.9219L65.7565 23.4094C65.7565 23.4094 65.4713 25.1219 65.3065 26.2219C65.1161 27.4939 65.0665 28.2155 64.8565 29.4844C64.7326 30.2334 64.6446 30.6501 64.5088 31.3969L64.4065 31.9594C64.4065 31.9594 63.7604 34.0769 63.394 35.4469C63.1133 36.4969 62.719 38.1469 62.719 38.1469L62.3374 40.2844L62.1565 41.2969C62.1565 41.2969 61.8816 42.959 61.594 43.9969C61.3084 45.028 61.0046 45.5606 60.694 46.5844C60.3909 47.5838 60.2864 48.1624 60.019 49.1719C59.7163 50.3155 59.6212 50.98 59.2315 52.0969C58.7717 53.4153 58.3053 54.0703 57.769 55.3594C57.3523 56.3613 57.1091 56.9207 56.7565 57.9469C56.2821 59.3282 56.2128 60.1638 55.7441 61.5469C55.3198 62.7987 55.0678 63.5004 54.5065 64.6969C54.1059 65.5509 53.6916 65.9435 53.3815 66.8344C53.0302 67.844 53.0132 68.4686 52.9316 69.5344C52.861 70.4543 52.9316 70.9743 52.9316 71.8969C52.9316 73.1271 53.837 74.2142 52.9316 75.0469C52.5112 75.4335 52.1161 75.4084 51.5816 75.6094C50.7622 75.9175 50.2858 76.044 49.444 76.2844C48.1838 76.6444 47.4718 76.8417 46.1816 77.0719C45.1784 77.2509 44.6109 77.3423 43.5941 77.4094C42.5419 77.4789 41.9485 77.4094 40.894 77.4094C39.9275 77.4094 39.3827 77.4843 38.419 77.4094C37.5332 77.3406 37.0466 77.2112 36.169 77.0719C35.3772 76.9462 34.934 76.8715 34.144 76.7344C33.1761 76.5665 32.0683 77.182 31.669 76.2844C31.4726 75.8429 31.669 75.5302 31.669 75.0469V73.1344V70.6594Z" fill="#ECCCC0"/>
<path d="M65.7565 23.4094C65.7565 23.4094 65.4713 25.1219 65.3065 26.2219C65.1161 27.4939 65.0665 28.2155 64.8565 29.4844C64.7326 30.2334 64.6446 30.6501 64.5088 31.3969M65.7565 23.4094C65.8883 22.0475 65.9622 21.2839 66.094 19.9219C66.094 19.9219 66.4885 17.8045 66.094 16.5469C65.8054 15.6266 65.7034 14.8711 64.8565 14.4094C64.2728 14.0912 63.169 14.1844 63.169 14.1844C63.169 14.1844 62.1196 14.078 61.594 14.4094C61.0268 14.7671 60.9772 15.264 60.694 15.8719C60.2531 16.8186 60.3097 17.4564 60.019 18.4594C59.7368 19.4337 59.4695 19.9484 59.2315 20.9344C58.9706 22.0157 59.1459 22.696 58.7815 23.7469C58.5755 24.3413 58.1065 25.2094 58.1065 25.2094C58.1065 25.2094 57.4947 26.994 57.094 28.1344C56.9628 28.5081 56.8884 28.7172 56.7566 29.0907M65.7565 23.4094C65.0975 23.4094 64.7281 23.4094 64.069 23.4094C63.41 23.4094 63.2481 23.3043 62.719 23.2954C62.0586 23.2843 61.6917 23.3865 61.0315 23.4094C60.329 23.4339 59.2315 23.4094 59.2315 23.4094M53.3816 34.6594C53.6386 34.2597 53.7865 34.0379 54.0566 33.6469C54.521 32.9745 54.8437 32.6413 55.2941 31.9594C55.7716 31.2364 56.082 30.8452 56.4191 30.0469C56.5731 29.6821 56.6247 29.4641 56.7566 29.0907M53.3816 34.6594C53.3816 34.6594 52.833 34.6594 52.4816 34.6594M53.3816 34.6594C54.3042 34.8352 54.8212 34.9352 55.7441 35.1094C56.4468 35.2421 56.8574 35.247 57.544 35.4469C58.2255 35.6453 58.6146 35.7711 59.2315 36.1219C59.8579 36.4781 60.2077 36.7153 60.694 37.2469C61.1217 37.7144 61.2864 38.043 61.594 38.5969C61.9437 39.2265 62.0471 39.6254 62.3374 40.2844M52.4816 34.6594V32.2969C52.4816 32.2969 52.4816 30.5828 52.4816 29.4844C52.4816 28.7376 52.4816 28.3188 52.4816 27.5719M52.4816 34.6594C52.0861 34.6594 51.4691 34.6594 51.4691 34.6594H49.2191C49.2191 34.6594 47.9849 34.6594 47.1941 34.6594C46.3593 34.6594 45.8913 34.6594 45.0566 34.6594M45.8441 19.9219C45.8441 18.8675 45.8441 18.2763 45.8441 17.2219C45.8441 16.0357 45.6547 15.3554 45.8441 14.1844C45.975 13.3742 46.1183 12.9279 46.4066 12.1594C46.6619 11.4785 46.6738 10.9801 47.1941 10.4719C47.9107 9.77187 48.6725 9.69448 49.6691 9.79693C50.6463 9.8974 51.2412 10.2109 51.9191 10.9219C52.5839 11.6193 52.7202 12.2318 52.9316 13.1719C53.1628 14.2007 52.9316 14.8175 52.9316 15.8719C52.9316 17.4536 52.9316 19.9219 52.9316 19.9219V20.5969M45.8441 19.9219C45.8441 21.2839 45.8441 22.0475 45.8441 23.4094C45.8441 24.5078 45.9659 25.1304 45.8441 26.2219C45.7848 26.7531 45.7069 27.0447 45.6191 27.5719M45.8441 19.9219C46.3518 19.7283 46.6549 19.6525 47.1941 19.5844C47.7607 19.5129 48.6566 19.5844 48.6566 19.5844C49.2716 19.5844 50.2316 19.5844 50.2316 19.5844L51.4691 19.9219L52.9316 20.5969M45.0566 34.6594C45.0566 34.4398 45.0566 34.0969 45.0566 34.0969C45.0566 34.0969 45.0323 32.9995 45.0566 32.2969C45.1023 30.9731 45.2009 30.2324 45.3941 28.9219C45.472 28.3932 45.5312 28.0991 45.6191 27.5719M45.0566 34.6594C44.5293 34.6594 44.2186 34.7848 43.7066 34.6594C43.2295 34.5426 42.9457 34.4265 42.5816 34.0969C41.783 33.3742 42.019 31.3969 42.019 31.3969L41.9412 30.7219M34.369 31.9594C34.369 30.9929 34.369 30.451 34.369 29.4844C34.369 28.2103 34.369 27.496 34.369 26.2219C34.369 25.7387 34.369 24.9844 34.369 24.9844C34.369 24.9844 34.093 23.8192 33.919 23.0719C33.7862 22.501 33.6668 22.1894 33.5815 21.6094C33.4283 20.5662 33.5022 19.9609 33.5815 18.9094C33.6517 17.9801 33.5491 17.4024 33.919 16.5469C34.1948 15.9093 34.3973 15.5285 34.9315 15.0844C35.3848 14.7077 35.6941 14.4584 36.2815 14.4094C36.9889 14.3505 37.4022 14.6573 37.969 15.0844C38.5445 15.5181 38.7003 15.9434 39.094 16.5469C39.5558 17.2547 39.8073 17.6691 40.1065 18.4594C40.5491 19.6281 40.4976 20.3716 40.669 21.6094C40.8628 23.0081 40.7941 23.8135 41.0065 25.2094C41.2023 26.4957 41.4859 27.1857 41.6815 28.4719C41.8146 29.3464 41.8398 29.8433 41.9412 30.7219M34.369 31.9594C34.2812 32.267 34.3073 32.4719 34.144 32.7469C33.9855 33.0141 33.791 33.08 33.5815 33.3094C33.1372 33.7961 32.8394 34.0584 32.569 34.6594C32.3286 35.194 32.1937 35.537 32.2315 36.1219C32.2612 36.5797 32.5113 36.7919 32.569 37.2469C32.6133 37.5956 32.7434 37.8418 32.569 38.1469C32.3741 38.4881 31.9898 38.3699 31.669 38.5969C30.8633 39.1674 30.7171 39.8309 30.319 40.7344C30.1677 41.0779 30.0934 41.2761 29.9815 41.6344M34.369 31.9594C35.072 31.7398 35.4725 31.636 36.169 31.3969C36.8791 31.1533 37.2485 30.9328 37.969 30.7219C38.5316 30.5573 38.8491 30.4499 39.4315 30.3844C39.9991 30.3206 40.3319 30.2832 40.894 30.3844C41.3169 30.4606 41.5322 30.5901 41.9412 30.7219M31.669 66.1594C31.669 66.1594 30.9325 65.7108 30.6565 65.2594C30.3731 64.7958 30.5827 64.5684 30.319 63.9094C30.0554 63.2504 29.9077 62.8809 29.644 62.2219C29.3804 61.5629 29.0855 60.8119 28.969 59.8594C28.8784 59.1181 28.969 58.6938 28.969 57.9469C28.969 57.1561 29.0211 56.711 28.969 55.9219C28.8958 54.812 28.6711 54.2113 28.519 53.1094C28.3619 51.9704 28.2403 51.3328 28.1815 50.1844C28.1344 49.263 28.0693 48.7377 28.1815 47.8219C28.3203 46.6898 28.6655 46.1089 28.969 45.0094C29.2357 44.0437 29.644 42.5344 29.644 42.5344C29.644 42.5344 29.8497 41.9859 29.9815 41.6344M31.669 66.1594V68.2969C31.669 68.2969 31.669 69.7368 31.669 70.6594C31.669 71.626 31.669 72.1679 31.669 73.1344C31.669 73.8813 31.669 74.3001 31.669 75.0469C31.669 75.5302 31.4726 75.8429 31.669 76.2844C32.0683 77.182 33.1761 76.5665 34.144 76.7344C34.934 76.8715 35.3772 76.9462 36.169 77.0719C37.0466 77.2112 37.5332 77.3406 38.419 77.4094C39.3827 77.4843 39.9275 77.4094 40.894 77.4094C41.9485 77.4094 42.5419 77.4789 43.5941 77.4094C44.6109 77.3423 45.1784 77.2509 46.1816 77.0719C47.4719 76.8417 48.1838 76.6444 49.4441 76.2844C50.2858 76.044 50.7622 75.9176 51.5816 75.6094C52.1161 75.4084 52.5112 75.4335 52.9316 75.0469C53.837 74.2142 52.9316 73.1271 52.9316 71.8969C52.9316 70.9743 52.861 70.4543 52.9316 69.5344C53.0132 68.4686 53.0302 67.844 53.3816 66.8344C53.6916 65.9435 54.1059 65.5509 54.5066 64.6969C55.0678 63.5004 55.3198 62.7987 55.7441 61.5469C56.2128 60.1638 56.2821 59.3282 56.7566 57.9469C57.1091 56.9207 57.3523 56.3613 57.769 55.3594C58.3053 54.0703 58.7717 53.4153 59.2315 52.0969C59.6212 50.98 59.7163 50.3155 60.019 49.1719C60.2864 48.1624 60.3909 47.5838 60.694 46.5844C61.0046 45.5606 61.3084 45.028 61.594 43.9969C61.8816 42.959 62.1565 41.2969 62.1565 41.2969L62.3374 40.2844M31.669 66.1594C31.669 66.1594 32.5188 66.692 33.1315 66.8344C33.8162 66.9936 34.2299 66.8773 34.9315 66.8344C35.8618 66.7776 36.4655 66.9237 37.294 66.4969C37.7942 66.2393 38.0338 66.007 38.419 65.5969C38.7199 65.2767 39.094 64.6969 39.094 64.6969M56.7566 29.0907C57.4156 29.0248 57.7821 28.9448 58.444 28.9219C59.4561 28.887 60.0324 28.9258 61.0315 29.0907C61.6992 29.2009 62.1384 29.1369 62.719 29.4844C63.0135 29.6607 63.394 30.0469 63.394 30.0469C63.394 30.0469 64.0735 30.8697 64.5088 31.3969M64.5088 31.3969C64.4689 31.6166 64.4065 31.9594 64.4065 31.9594C64.4065 31.9594 63.7604 34.0769 63.394 35.4469C63.1133 36.4969 62.719 38.1469 62.719 38.1469C62.719 38.1469 62.4864 39.4497 62.3374 40.2844M45.6191 27.5719C46.1623 27.1812 46.5364 27.0208 47.1941 26.8969C47.7553 26.7912 48.6566 26.8969 48.6566 26.8969C48.6566 26.8969 49.2736 26.8969 49.6691 26.8969C50.372 26.8969 50.8093 26.6543 51.4691 26.8969C51.9151 27.061 52.0861 27.3083 52.4816 27.5719M52.4816 27.5719C52.4816 27.0447 52.4816 26.2219 52.4816 26.2219C52.4816 26.2219 52.8545 24.3122 52.9316 23.0719C52.9915 22.1072 52.9316 20.5969 52.9316 20.5969M34.369 24.5344C35.072 24.3587 35.5069 24.3787 36.169 24.0844C36.6372 23.8763 36.8964 23.7325 37.294 23.4094C37.5834 23.1744 37.969 22.7344 37.969 22.7344M41.0065 51.1969C41.0065 51.1969 39.9236 52.2763 39.4315 53.1094C38.8379 54.1146 38.5811 54.7659 38.419 55.9219C38.3093 56.7051 38.419 57.1561 38.419 57.9469C38.419 59.4846 37.8697 60.4482 38.419 61.8844C38.7586 62.7721 39.1245 63.211 39.769 63.9094C39.769 63.9094 41.0173 65.1465 42.019 65.5969L44.4941 66.1594C44.4941 66.1594 46.0078 66.8344 47.1941 66.8344C48.3803 66.8344 49.0453 66.8344 50.2316 66.8344C51.4178 66.8344 51.7309 66.6868 52.4816 66.1594C53.5116 65.4357 53.5143 64.483 54.0566 63.3469C54.4467 62.5296 54.6659 62.0672 54.9566 61.2094C55.4322 59.8058 55.6095 58.9729 55.7441 57.4969C55.8478 56.3594 55.709 55.7137 55.7441 54.5719C55.7967 52.8543 56.2678 51.8928 56.0816 50.1844C55.9441 48.9239 55.766 48.2113 55.2941 47.0344M55.2941 47.0344C54.5472 46.024 54.2778 45.3276 53.3816 44.4469C52.9703 44.0428 52.2566 43.4907 52.2566 43.4907M55.2941 47.0344C54.9865 47.342 54.5066 47.8219 54.5066 47.8219L54.0566 48.3844C53.6519 48.8559 52.9316 49.5094 52.9316 49.5094M39.094 32.7469C39.797 33.2741 40.894 34.0969 40.894 34.0969L42.5816 34.6594L44.4941 35.7844L45.4503 36.1219M39.094 32.7469C37.9518 32.5712 37.3022 32.0698 36.169 32.2969C35.3021 32.4707 34.6939 32.617 34.144 33.3094C33.7889 33.7567 33.6936 34.0994 33.5815 34.6594C33.4695 35.2195 33.5815 35.5508 33.5815 36.1219M39.094 32.7469V34.0969C39.094 34.0969 38.7244 34.9428 38.419 35.4469C38.2549 35.7179 38.4523 35.8583 37.969 36.1219C37.4858 36.3855 36.7315 36.7969 36.7315 36.7969C36.7315 36.7969 35.9719 36.8689 35.494 36.7969C35.0405 36.7286 34.7988 36.6198 34.369 36.4594C34.0556 36.3425 33.8824 36.2683 33.5815 36.1219M37.294 41.2969L35.494 39.6094L33.919 38.1469L33.5815 36.4594C33.5815 36.4594 33.5815 36.2537 33.5815 36.1219M37.294 41.2969L38.419 41.8594L40.669 42.5344L42.019 43.5469C42.019 43.5469 42.3619 44.0955 42.5816 44.4469M37.294 41.2969L36.7315 41.8594L35.8315 42.3094L34.9315 42.9844M42.5816 44.4469C43.0209 44.6666 43.2672 44.7898 43.7066 45.0094M42.5816 44.4469C42.5816 45.1059 42.5816 45.4754 42.5816 46.1344M42.5816 46.1344C42.977 46.7934 42.9516 47.4002 43.5941 47.8219C43.6372 47.8502 43.7066 47.8912 43.7066 47.8912M42.5816 46.1344C42.5816 46.6177 42.5816 47.3719 42.5816 47.3719C42.4789 47.9338 42.3314 48.2438 42.019 48.7219C41.7975 49.0611 41.6858 49.292 41.344 49.5094C40.7139 49.9104 39.4315 49.5094 39.4315 49.5094C39.4315 49.5094 38.1163 48.8468 37.294 48.3844C36.1249 47.7271 35.3271 47.5231 34.369 46.5844C33.8103 46.037 33.6444 45.6001 33.1315 45.0094C32.5917 44.3877 32.2324 44.0912 31.669 43.4907C30.9988 42.7761 30.6406 42.3593 29.9815 41.6344M45.0566 48.7219C45.0566 48.7219 44.2338 48.2156 43.7066 47.8912M43.7066 47.8912C43.7066 47.8912 43.8874 48.7152 44.1566 49.1719C44.4251 49.6277 44.6712 49.822 45.0566 50.1844C45.5366 50.636 45.8861 50.7927 46.4066 51.1969C46.8509 51.542 47.006 51.8961 47.5316 52.0969C48.1471 52.3322 48.6035 52.3322 49.2191 52.0969M48.8253 39.4407L49.6691 40.7344L51.1316 42.5344L52.2566 43.4907M48.8253 39.4407L47.9816 38.1469L46.4066 36.4594L45.4503 36.1219M48.8253 39.4407C48.8253 39.4407 49.7172 39.2933 50.2316 39.0469C50.7705 38.7888 51.0047 38.523 51.4691 38.1469C51.8802 37.814 52.4816 37.2469 52.4816 37.2469M52.2566 43.4907L53.3816 43.2376M57.2598 41.2969C57.2598 41.2969 56.4366 41.9627 55.8566 42.3094C55.3506 42.6119 54.5066 42.9844 54.5066 42.9844L53.3816 43.2376M54.9566 45.7969C55.7359 46.1438 56.1536 46.431 56.7566 47.0344C57.2223 47.5006 57.769 48.3844 57.769 48.3844M53.3816 43.2376C53.3816 43.2376 54.4975 43.8904 55.2941 43.9969C55.7295 44.0552 55.9818 44.0398 56.4191 43.9969C56.865 43.9532 57.544 43.7719 57.544 43.7719M41.6815 40.2844L42.5816 39.4407L43.7066 38.5969L44.4941 37.5844L45.0566 36.7969L45.4503 36.1219M34.369 57.4969C34.369 57.4969 35.4494 56.5174 36.169 55.9219C36.6025 55.5632 36.9335 55.4539 37.294 55.0219C37.6468 54.5993 37.6989 54.2641 37.969 53.7844C38.2686 53.2526 38.457 52.9662 38.7565 52.4344C39.0267 51.9548 39.1746 51.6838 39.4315 51.1969M39.769 45.4594C39.2262 45.4342 38.888 45.5223 38.419 45.7969C38.2295 45.9079 38.1018 45.9594 37.969 46.1344C37.677 46.5195 37.6902 46.9772 37.969 47.3719C38.1734 47.6612 38.4243 47.6991 38.7565 47.8219C39.4571 48.0808 39.9858 48.1236 40.669 47.8219L41.344 47.3719C41.344 47.3719 41.6361 46.5195 41.344 46.1344C41.2113 45.9594 41.0836 45.908 40.894 45.7969C40.4983 45.565 40.2272 45.4807 39.769 45.4594Z" stroke="#725050" stroke-width="0.3"/>
</g>
</g>
<defs>
<filter id="filter0_dd_140_61" x="0" y="0" width="91" height="98" filterUnits="userSpaceOnUse" color-interpolation-filters="sRGB">
<feFlood flood-opacity="0" result="BackgroundImageFix"/>
<feColorMatrix in="SourceAlpha" type="matrix" values="0 0 0 0 0 0 0 0 0 0 0 0 0 0 0 0 0 0 127 0" result="hardAlpha"/>
<feOffset dy="4"/>
<feGaussianBlur stdDeviation="2"/>
<feComposite in2="hardAlpha" operator="out"/>
<feColorMatrix type="matrix" values="0 0 0 0 0 0 0 0 0 0 0 0 0 0 0 0 0 0 0.25 0"/>
<feBlend mode="normal" in2="BackgroundImageFix" result="effect1_dropShadow_140_61"/>
<feColorMatrix in="SourceAlpha" type="matrix" values="0 0 0 0 0 0 0 0 0 0 0 0 0 0 0 0 0 0 127 0" result="hardAlpha"/>
<feOffset dy="4"/>
<feGaussianBlur stdDeviation="2"/>
<feComposite in2="hardAlpha" operator="out"/>
<feColorMatrix type="matrix" values="0 0 0 0 0 0 0 0 0 0 0 0 0 0 0 0 0 0 0.25 0"/>
<feBlend mode="normal" in2="effect1_dropShadow_140_61" result="effect2_dropShadow_140_61"/>
<feBlend mode="normal" in="SourceGraphic" in2="effect2_dropShadow_140_61" result="shape"/>
</filter>
<filter id="filter1_ddd_140_61" x="23.1695" y="9.61011" width="48.0499" height="77.5825" filterUnits="userSpaceOnUse" color-interpolation-filters="sRGB">
<feFlood flood-opacity="0" result="BackgroundImageFix"/>
<feColorMatrix in="SourceAlpha" type="matrix" values="0 0 0 0 0 0 0 0 0 0 0 0 0 0 0 0 0 0 127 0" result="hardAlpha"/>
<feOffset dy="4.8"/>
<feGaussianBlur stdDeviation="2.4"/>
<feComposite in2="hardAlpha" operator="out"/>
<feColorMatrix type="matrix" values="0 0 0 0 0 0 0 0 0 0 0 0 0 0 0 0 0 0 0.25 0"/>
<feBlend mode="normal" in2="BackgroundImageFix" result="effect1_dropShadow_140_61"/>
<feColorMatrix in="SourceAlpha" type="matrix" values="0 0 0 0 0 0 0 0 0 0 0 0 0 0 0 0 0 0 127 0" result="hardAlpha"/>
<feOffset dy="4"/>
<feGaussianBlur stdDeviation="2"/>
<feComposite in2="hardAlpha" operator="out"/>
<feColorMatrix type="matrix" values="0 0 0 0 0 0 0 0 0 0 0 0 0 0 0 0 0 0 0.25 0"/>
<feBlend mode="normal" in2="effect1_dropShadow_140_61" result="effect2_dropShadow_140_61"/>
<feColorMatrix in="SourceAlpha" type="matrix" values="0 0 0 0 0 0 0 0 0 0 0 0 0 0 0 0 0 0 127 0" result="hardAlpha"/>
<feOffset dy="4"/>
<feGaussianBlur stdDeviation="2"/>
<feComposite in2="hardAlpha" operator="out"/>
<feColorMatrix type="matrix" values="0 0 0 0 0 0 0 0 0 0 0 0 0 0 0 0 0 0 0.25 0"/>
<feBlend mode="normal" in2="effect2_dropShadow_140_61" result="effect3_dropShadow_140_61"/>
<feBlend mode="normal" in="SourceGraphic" in2="effect3_dropShadow_140_61" result="shape"/>
</filter>
</defs>
</svg>
