<svg width="563" height="561" viewBox="0 0 563 561" fill="none" xmlns="http://www.w3.org/2000/svg">
<path d="M511.5 559.5H52C24.3858 559.5 2 537.114 2 509.5V52C2 24.3858 24.3857 2 52 2H511.5C539.114 2 561.5 24.3858 561.5 52V509.5C561.5 537.114 539.114 559.5 511.5 559.5Z" fill="#EDDCC1" stroke="#EDDCC1" stroke-width="3"/>
<path d="M511.5 559.5H52C24.3858 559.5 2 537.114 2 509.5V52C2 24.3858 24.3857 2 52 2H511.5C539.114 2 561.5 24.3858 561.5 52V509.5C561.5 537.114 539.114 559.5 511.5 559.5Z" fill="#EDDCC1" stroke="#EDDCC1" stroke-width="3"/>
<path d="M141.764 271.424L141.48 271.585L141.528 271.909L152.508 345.907L152.547 346.169L152.789 346.275L556.676 522.438L557.344 522.729V522V36V35.1795L556.63 35.585L141.764 271.424Z" fill="#725050" fill-opacity="0.5" stroke="#725050" stroke-width="0.954813"/>
<path d="M319.62 296.34C319.62 311.7 315.26 323.38 306.54 331.38C311.58 338.26 314.9 343.94 316.5 348.42C315.78 351.78 314.02 353.46 311.22 353.46C309.22 353.46 306.66 350.58 303.54 344.82C300.42 339.06 298.54 336.18 297.9 336.18C297.58 336.18 296.54 336.5 294.78 337.14C293.02 337.78 292.02 338.1 291.78 338.1C290.34 338.5 288.3 338.7 285.66 338.7C274.78 338.7 266.58 335.14 261.06 328.02C256.02 321.54 253.5 312.74 253.5 301.62C253.5 289.7 256.22 279.34 261.66 270.54C268.06 260.22 276.86 255.06 288.06 255.06C297.9 255.06 305.82 259.62 311.82 268.74C317.02 276.74 319.62 285.94 319.62 296.34ZM308.58 296.22C308.58 288.62 307.22 282.06 304.5 276.54C300.98 269.42 295.78 265.86 288.9 265.86C282.98 265.86 277.58 268.9 272.7 274.98C268.38 280.42 265.74 286.26 264.78 292.5C264.38 295.54 264.18 298.98 264.18 302.82C264.18 310.74 265.74 317.1 268.86 321.9C272.62 327.5 278.26 330.3 285.78 330.3C287.22 330.3 288.86 330.06 290.7 329.58C288.22 328.06 285.78 326.54 283.38 325.02C280.02 322.86 278.34 320.9 278.34 319.14C278.34 317.54 279.1 316.22 280.62 315.18C281.9 314.3 283.38 313.86 285.06 313.86C287.54 313.86 292.58 317.14 300.18 323.7C305.78 317.54 308.58 308.38 308.58 296.22ZM379.875 293.46C379.875 300.1 379.075 307.14 377.475 314.58C375.555 323.78 372.915 330.14 369.555 333.66C365.395 338.06 360.275 340.26 354.195 340.26C348.755 340.26 343.995 338.62 339.915 335.34C335.435 331.66 332.355 326.66 330.675 320.34C329.475 315.86 328.875 309.86 328.875 302.34C328.875 298.66 329.115 293.14 329.595 285.78C330.075 278.34 330.315 272.78 330.315 269.1C330.315 268.46 330.075 267.54 329.595 266.34C329.115 265.06 328.875 264.1 328.875 263.46C328.875 261.46 330.475 259.82 333.675 258.54C336.155 257.5 338.595 256.98 340.995 256.98C343.715 256.98 345.075 257.82 345.075 259.5C345.075 260.38 344.675 261.66 343.875 263.34C343.075 265.02 342.675 266.34 342.675 267.3C342.675 270.5 342.275 275.34 341.475 281.82C340.675 288.3 340.275 293.18 340.275 296.46V311.34C340.275 315.9 341.155 319.94 342.915 323.46C345.075 327.94 348.235 330.18 352.395 330.18C360.395 330.18 365.715 322.82 368.355 308.1C369.555 301.22 370.155 290.54 370.155 276.06C370.155 270.78 369.355 266.5 367.755 263.22C367.275 262.26 367.035 261.5 367.035 260.94C367.035 259.5 367.555 258.1 368.595 256.74C369.715 255.38 370.995 254.7 372.435 254.7C373.955 254.7 375.555 255.26 377.235 256.38C378.995 257.5 379.875 258.78 379.875 260.22V293.46ZM406.436 262.74C406.436 263.14 406.076 264.02 405.356 265.38C405.036 266.02 404.716 267.82 404.396 270.78C402.716 288.7 401.876 304.42 401.876 317.94C401.876 321.46 402.196 324.3 402.836 326.46C403.396 328.3 404.556 330.82 406.316 334.02C406.396 334.18 406.436 334.42 406.436 334.74C406.436 336.42 404.476 337.26 400.556 337.26H399.476C395.396 337.18 392.916 333.9 392.036 327.42C390.916 319.5 390.356 308.58 390.356 294.66C390.356 291.38 390.396 286.46 390.476 279.9C390.636 273.26 390.716 268.26 390.716 264.9C390.716 263.06 391.676 261.3 393.596 259.62C395.516 257.94 397.396 257.1 399.236 257.1C400.676 257.1 402.236 257.7 403.916 258.9C405.596 260.1 406.436 261.38 406.436 262.74ZM482.051 264.9C482.051 269.54 477.131 276.22 467.291 284.94C458.171 292.54 449.051 300.14 439.931 307.74C430.091 316.3 425.171 322.58 425.171 326.58C425.171 328.18 427.011 328.98 430.691 328.98C434.371 328.98 439.811 328.54 447.011 327.66C454.291 326.78 459.771 326.34 463.451 326.34C466.091 326.34 468.731 326.98 471.371 328.26C474.491 329.78 476.291 331.7 476.771 334.02C475.491 336.34 473.771 337.5 471.611 337.5C471.051 337.5 470.171 337.3 468.971 336.9C467.851 336.5 466.971 336.3 466.331 336.3H465.611C463.611 336.46 458.091 336.94 449.051 337.74C442.251 338.38 436.691 338.7 432.371 338.7C426.291 338.7 421.971 338.14 419.411 337.02C415.491 335.26 413.531 331.7 413.531 326.34C413.531 320.42 418.491 312.9 428.411 303.78C437.691 296.26 446.971 288.74 456.251 281.22C466.171 272.98 471.131 266.86 471.131 262.86C471.131 261.18 469.651 260.34 466.691 260.34C461.491 260.34 455.651 261.22 449.171 262.98C442.771 264.66 437.291 266.78 432.731 269.34C430.651 270.62 428.571 271.9 426.491 273.18C423.291 275.1 421.251 276.06 420.371 276.06C416.771 276.06 414.971 273.42 414.971 268.14C414.971 266.7 415.491 265.58 416.531 264.78C416.851 264.54 418.011 263.94 420.011 262.98C438.011 254.58 453.211 250.38 465.611 250.38C469.851 250.38 473.331 251.46 476.051 253.62C477.571 254.82 478.931 256.54 480.131 258.78C481.411 261.02 482.051 263.06 482.051 264.9ZM514.496 261.42C514.496 261.98 514.296 262.58 513.896 263.22C513.336 264.1 512.976 264.66 512.816 264.9C510.976 269.46 509.616 275.26 508.736 282.3C508.336 284.78 507.736 290.78 506.936 300.3C506.936 300.7 506.816 301.5 506.576 302.7C506.416 303.82 506.336 304.7 506.336 305.34C506.336 307.42 506.776 310.18 507.656 313.62C507.176 314.26 506.376 315.14 505.256 316.26C504.376 316.5 503.416 316.62 502.376 316.62C500.776 316.62 499.296 316.22 497.936 315.42C496.736 313.18 496.136 310.3 496.136 306.78C496.136 303.1 496.856 297.66 498.296 290.46C499.816 283.18 500.576 277.7 500.576 274.02C500.576 272.58 500.296 270.42 499.736 267.54C499.256 264.58 499.016 262.38 499.016 260.94C499.016 260.14 499.096 259.46 499.256 258.9C501.256 257.22 503.696 256.38 506.576 256.38C508.256 256.38 509.936 256.78 511.616 257.58C513.536 258.62 514.496 259.9 514.496 261.42ZM511.016 329.7C511.016 335.78 507.536 338.82 500.576 338.82C499.296 338.82 496.856 338.06 493.256 336.54C492.296 334.78 491.816 333.1 491.816 331.5C491.816 326.86 494.656 324.54 500.336 324.54C502.416 324.54 504.536 324.94 506.696 325.74C509.576 326.78 511.016 328.1 511.016 329.7Z" fill="black"/>
<ellipse cx="63.8494" cy="374.213" rx="44.2633" ry="4.44113" fill="#725050"/>
<path d="M100.054 283.892L123 260.057C106.124 257.985 92.0577 262.77 79.4769 272.345L76.5162 275.75V283.892C76.5162 283.892 72.9633 277.822 72.9633 280.339C72.9633 280.968 72.2884 282.022 71.4122 283.39C68.7824 287.498 64.3393 294.438 70.8908 301.212C76.5162 303.285 79.625 302.841 85.6945 299.139L97.2415 287.148L92.6523 285.52L100.054 283.892Z" fill="#EEC1B1"/>
<path d="M98.8699 316.756C97.2415 314.827 89.8396 318.931 89.8396 318.931C89.8396 318.931 56.5956 324.301 54.0145 327.563C53.0079 328.834 53.9121 332.674 54.7313 337.033C55.7086 342.232 56.565 348.172 53.9129 351.376C53.0872 352.374 51.9215 353.107 50.3135 353.469C53.187 352.916 56.3695 352.196 59.7044 351.376C68.3621 349.248 78.0466 346.444 86.0172 344.137L86.0185 344.137C95.5848 341.368 99.0824 341.792 102.571 339.998C106.059 338.203 103.778 332.688 103.424 329.483C102.704 322.98 99.9605 318.048 98.8699 316.756Z" fill="white"/>
<path d="M75.0358 257.985C70.5947 251.323 21.5942 269.236 21.5942 269.236C21.5942 269.236 25.6922 283.38 30.5705 301.212C34.6338 316.064 39.2385 333.475 42.4675 347.4C44.9656 353.227 46.6126 353.469 50.3135 353.469C51.9215 353.107 53.0872 352.374 53.9129 351.376C56.565 348.172 55.7086 342.232 54.7313 337.033C53.9121 332.674 53.0079 328.834 54.0145 327.563C56.5956 324.301 89.8396 318.931 89.8396 318.931L85.6945 299.139C79.625 302.841 76.5162 303.285 70.8908 301.212C64.3393 294.438 68.7824 287.498 71.4122 283.39C72.2884 282.022 72.9633 280.968 72.9633 280.339C72.9633 277.822 76.5162 283.892 76.5162 283.892V275.75L79.4769 272.345C79.4769 272.345 79.4769 264.647 75.0358 257.985Z" fill="white"/>
<path d="M11.6757 281.819C11.6757 281.819 14.1924 303.581 17.8933 304.913C19.2602 305.405 21.3469 305.029 23.4352 304.358C27.0006 303.214 30.5705 301.212 30.5705 301.212C25.6922 283.38 21.5942 269.236 21.5942 269.236C20.2184 269.205 18.9867 269.227 17.8933 269.322C11.5783 269.87 9.87649 272.832 11.6757 281.819Z" fill="white"/>
<path d="M21.5942 269.236C21.5942 269.236 70.5947 251.323 75.0358 257.985C79.4769 264.647 79.4769 272.345 79.4769 272.345M21.5942 269.236C21.5942 269.236 25.6922 283.38 30.5705 301.212M21.5942 269.236C20.2184 269.205 18.9867 269.227 17.8933 269.322C11.5783 269.87 9.87649 272.832 11.6757 281.819C11.6757 281.819 14.1924 303.581 17.8933 304.913C19.2602 305.405 21.3469 305.029 23.4352 304.358C27.0006 303.214 30.5705 301.212 30.5705 301.212M50.3135 353.469C46.6126 353.469 44.9656 353.227 42.4675 347.4C39.2385 333.475 34.6338 316.064 30.5705 301.212M50.3135 353.469C53.187 352.916 56.3695 352.196 59.7044 351.376C68.3621 349.248 78.0466 346.444 86.0172 344.137L86.0185 344.137C95.5848 341.368 99.0824 341.792 102.571 339.998C106.059 338.203 103.778 332.688 103.424 329.483C102.704 322.98 99.9605 318.048 98.8699 316.756C97.2415 314.827 89.8396 318.931 89.8396 318.931M50.3135 353.469C51.9215 353.107 53.0872 352.374 53.9129 351.376C56.565 348.172 55.7086 342.232 54.7313 337.033C53.9121 332.674 53.0079 328.834 54.0145 327.563C56.5956 324.301 89.8396 318.931 89.8396 318.931M79.4769 272.345C92.0577 262.77 106.124 257.985 123 260.057L100.054 283.892L92.6523 285.52L97.2415 287.148L85.6945 299.139M79.4769 272.345L76.5162 275.75V283.892C76.5162 283.892 72.9633 277.822 72.9633 280.339C72.9633 280.968 72.2884 282.022 71.4122 283.39C68.7824 287.498 64.3393 294.438 70.8908 301.212M85.6945 299.139L89.8396 318.931M85.6945 299.139C79.625 302.841 76.5162 303.285 70.8908 301.212M70.8908 301.212L62.1566 316.756" stroke="#662E2E" stroke-width="1.77645"/>
<path d="M46.3906 320.427C46.9117 319.841 47.2689 319.134 47.6408 318.457C47.9939 317.815 48.448 316.932 48.4919 316.187C48.5123 315.839 48.8354 316.42 48.8835 316.495C49.1572 316.925 49.3752 317.388 49.6441 317.821C49.9462 318.308 50.2753 318.766 50.5893 319.237C50.6018 319.256 50.7834 318.954 50.8002 318.932C51.0867 318.55 51.2802 318.1 51.542 317.7C51.927 317.113 52.198 316.464 52.5588 315.87C52.6228 315.765 53.0657 314.673 53.2064 314.673C53.3929 314.673 53.7696 315.557 53.8466 315.682C54.1086 316.107 54.4172 316.49 54.6976 316.898C55.2688 317.729 56.0584 319.044 57.2658 318.495C57.8008 318.252 58.0305 317.69 58.5235 317.429C59.0651 317.143 59.4029 317.038 60.0486 317.038C60.2294 317.038 60.4101 317.038 60.5909 317.038C60.723 317.038 60.8433 316.917 60.9637 316.902C61.1556 316.878 61.3365 316.648 61.5059 316.563" stroke="black" stroke-width="0.888226" stroke-linecap="round"/>
<path d="M55.541 300.499C56.3119 300.44 57.1243 300.113 57.872 299.919C58.7477 299.692 59.6156 299.444 60.5004 299.245C61.1686 299.095 61.8632 299.089 62.5225 298.906C63.1021 298.745 63.671 298.457 64.2773 298.402C64.867 298.348 65.5731 298.136 66.1149 297.908C66.5874 297.709 67.2517 297.798 67.6739 297.517" stroke="black" stroke-width="0.888226" stroke-linecap="round"/>
<path d="M46.187 296.635C47.0368 296.635 47.874 296.227 48.7213 296.165C49.4338 296.112 50.164 295.879 50.8639 295.72C51.8209 295.503 52.7741 295.491 53.7447 295.419C54.8595 295.336 55.9887 295.037 57.0697 294.734C58.2136 294.413 59.3794 294.274 60.5266 293.992C61.0758 293.856 61.5981 293.728 62.1308 293.532C62.5347 293.384 62.8637 293.212 63.2906 293.111C63.7399 293.004 64.187 292.947 64.6387 292.855C64.7959 292.822 65.0929 292.802 65.2186 292.689C65.5988 292.347 66.4401 292.51 66.8604 292.229" stroke="black" stroke-width="0.888226" stroke-linecap="round"/>
<path d="M53.374 289.231C54.2514 289.143 55.2196 288.821 56.0624 288.598C56.8142 288.399 57.6035 288.309 58.3553 288.142C58.8541 288.031 59.2083 287.899 59.6691 287.643C60.2118 287.342 60.9341 287.586 61.4755 287.345C61.9792 287.121 62.6144 287.24 63.1177 287.017C63.8234 286.703 64.8532 286.819 65.5871 286.609C66.0358 286.481 66.7147 286.442 67.1137 286.22C67.2451 286.147 67.6921 286.064 67.8253 286.056C68.1106 286.039 68.2928 285.946 68.5917 285.946" stroke="black" stroke-width="0.888226" stroke-linecap="round"/>
<path d="M47.5718 284.413C48.5388 284.413 49.5059 284.413 50.473 284.413C50.929 284.413 51.4152 284.085 51.8962 284.085C52.9519 284.085 53.968 283.952 54.9616 283.647C55.8112 283.385 56.7093 283.167 57.5344 282.795C58.0343 282.57 58.6211 282.692 59.1523 282.528C59.4772 282.427 60.2319 282.387 60.466 282.199C60.7765 281.951 61.2587 281.974 61.6399 281.889C62.1367 281.779 62.6485 281.542 63.1604 281.463C64.0356 281.329 64.7455 281.032 65.5872 280.752C65.9534 280.63 66.7194 280.7 67.0348 280.448C67.2812 280.25 67.9495 280.071 68.2634 280.034C68.8285 279.967 69.4282 279.506 69.9056 279.268" stroke="black" stroke-width="0.888226" stroke-linecap="round"/>
<path d="M51.9507 272.152C52.4526 271.706 53.6174 271.672 54.2741 271.495C55.3983 271.192 56.5069 271.124 57.6193 270.753C58.231 270.549 59.0166 270.618 59.5899 270.291C60.2129 269.935 61.2041 269.792 61.9133 269.609C63.5631 269.185 65.1669 268.648 66.8399 268.648" stroke="black" stroke-width="0.888226" stroke-linecap="round"/>
</svg>
