<svg width="91" height="98" viewBox="0 0 91 98" fill="none" xmlns="http://www.w3.org/2000/svg">
<g filter="url(#filter0_d_149_247)">
<ellipse cx="45.5" cy="45" rx="41.5" ry="45" fill="#D9D9D9"/>
<g filter="url(#filter1_d_149_247)">
<path d="M9.57598 64.0764L8.87988 38.785C8.87988 38.785 19.6226 35.3247 26.7463 34.3763C33.6649 33.4552 31.1549 34.6086 44.6127 33.9124C58.0705 33.2162 78.2572 27.4153 79.1854 33.9124C80.2214 41.1651 55.5182 39.4072 55.5182 42.7294C55.5182 45.0497 84.6038 36.6704 83.1299 45.5139C81.9697 52.4747 55.2861 46.9061 54.8221 51.5468C54.5005 54.7625 79.9578 50.3864 78.3411 56.6513C76.8441 62.4521 52.8177 58.5075 52.8177 58.5075C49.189 58.7396 71.5312 62.7698 72.4564 63.3481C74.3127 64.5083 73.3846 67.2927 71.7604 67.2927C70.1361 67.2927 27.6744 63.1483 22.1057 61.9882C16.5369 60.828 14.6807 64.0764 9.57598 64.0764Z" fill="#ECCCC0"/>
<path d="M65.9596 55.0271C65.9596 55.0271 67.2536 55.8834 67.1197 56.6513C66.9981 57.3485 65.7275 57.8115 65.7275 57.8115M68.5119 43.8896C68.5119 43.8896 69.5731 44.7956 69.44 45.5139C69.3233 46.1439 68.2799 46.674 68.2799 46.674M64.3354 33.9124C64.3354 33.9124 65.9595 34.6395 65.9596 35.5365C65.9596 36.4335 64.3354 37.1607 64.3354 37.1607M65.0314 63.3481C65.0314 63.3481 65.8647 64.1482 65.7275 64.7403C65.58 65.3769 64.3354 65.6685 64.3354 65.6685M8.87988 38.785L9.57598 64.0764C14.6807 64.0764 16.5369 60.828 22.1057 61.9882C27.6744 63.1483 70.1361 67.2927 71.7604 67.2927C73.3846 67.2927 74.3127 64.5083 72.4564 63.3481C71.5312 62.7698 49.189 58.7396 52.8177 58.5075C52.8177 58.5075 76.8441 62.4521 78.3411 56.6513C79.9578 50.3864 54.5005 54.7625 54.8221 51.5468C55.2861 46.9061 81.9697 52.4747 83.1299 45.5139C84.6038 36.6704 55.5182 45.0497 55.5182 42.7294C55.5182 39.4072 80.2214 41.1651 79.1854 33.9124C78.2572 27.4153 58.0705 33.2162 44.6127 33.9124C31.1549 34.6086 33.6649 33.4552 26.7463 34.3763C19.6226 35.3247 8.87988 38.785 8.87988 38.785ZM75.4729 32.056L75.9369 36.2326C75.9369 36.2326 74.4808 37.0238 73.6166 36.6966C72.8353 36.4008 72.3513 35.8981 72.2244 35.0724C72.1068 34.3072 72.4334 33.8179 72.9205 33.2162C73.6094 32.3652 75.4729 32.056 75.4729 32.056ZM79.8814 43.4255V46.906C79.8814 46.906 78.6983 47.1752 78.0252 46.906C77.3113 46.6205 76.7202 46.2778 76.633 45.5139C76.5501 44.7881 76.992 44.3477 77.5611 43.8896C78.281 43.3102 79.8814 43.4255 79.8814 43.4255ZM75.9369 55.0271V57.5794C75.9369 57.5794 74.8743 57.8743 74.3127 57.5794C73.7342 57.2757 73.328 56.8382 73.3846 56.1872C73.4348 55.6092 73.7952 55.2896 74.3127 55.0271C74.8784 54.7401 75.9369 55.0271 75.9369 55.0271ZM72.2244 64.2763L71.9924 66.1325C71.9924 66.1325 71.2222 66.1483 70.8322 65.9005C70.4498 65.6575 70.0721 65.4209 70.1361 64.9724C70.1905 64.5918 70.4884 64.4482 70.8322 64.2763C71.3185 64.0331 72.2244 64.2763 72.2244 64.2763Z" stroke="#725050" stroke-width="0.3"/>
</g>
</g>
<defs>
<filter id="filter0_d_149_247" x="0" y="0" width="91" height="98" filterUnits="userSpaceOnUse" color-interpolation-filters="sRGB">
<feFlood flood-opacity="0" result="BackgroundImageFix"/>
<feColorMatrix in="SourceAlpha" type="matrix" values="0 0 0 0 0 0 0 0 0 0 0 0 0 0 0 0 0 0 127 0" result="hardAlpha"/>
<feOffset dy="4"/>
<feGaussianBlur stdDeviation="2"/>
<feComposite in2="hardAlpha" operator="out"/>
<feColorMatrix type="matrix" values="0 0 0 0 0 0 0 0 0 0 0 0 0 0 0 0 0 0 0.25 0"/>
<feBlend mode="normal" in2="BackgroundImageFix" result="effect1_dropShadow_149_247"/>
<feBlend mode="normal" in="SourceGraphic" in2="effect1_dropShadow_149_247" result="shape"/>
</filter>
<filter id="filter1_d_149_247" x="4.32681" y="30.7139" width="83.4072" height="45.5288" filterUnits="userSpaceOnUse" color-interpolation-filters="sRGB">
<feFlood flood-opacity="0" result="BackgroundImageFix"/>
<feColorMatrix in="SourceAlpha" type="matrix" values="0 0 0 0 0 0 0 0 0 0 0 0 0 0 0 0 0 0 127 0" result="hardAlpha"/>
<feOffset dy="4.4"/>
<feGaussianBlur stdDeviation="2.2"/>
<feComposite in2="hardAlpha" operator="out"/>
<feColorMatrix type="matrix" values="0 0 0 0 0 0 0 0 0 0 0 0 0 0 0 0 0 0 0.25 0"/>
<feBlend mode="normal" in2="BackgroundImageFix" result="effect1_dropShadow_149_247"/>
<feBlend mode="normal" in="SourceGraphic" in2="effect1_dropShadow_149_247" result="shape"/>
</filter>
</defs>
</svg>
