<svg width="91" height="98" viewBox="0 0 91 98" fill="none" xmlns="http://www.w3.org/2000/svg">
<g filter="url(#filter0_dd_163_377)">
<g filter="url(#filter1_d_163_377)">
<ellipse cx="45.5" cy="45" rx="41.5" ry="45" fill="#D9D9D9"/>
</g>
<g filter="url(#filter2_ddd_163_377)">
<path d="M37.5405 77.8759C37.5405 77.8759 35.5894 77.4075 35.403 76.4134C35.275 75.7307 35.7316 75.38 35.9655 74.7259C36.3639 73.6121 36.7819 73.0554 37.0905 71.9134C37.426 70.6718 37.7558 69.9189 37.5405 68.6509C37.3725 67.6613 37.0163 67.1654 36.528 66.2884C35.857 65.0831 35.1324 64.639 34.3905 63.4759C33.7457 62.4649 33.3357 61.9036 32.928 60.7759C32.591 59.8438 32.5943 59.2653 32.3655 58.3009C32.0728 57.0671 31.9168 56.3728 31.578 55.1509C31.37 54.4007 31.237 53.9847 31.0155 53.2384C30.7545 52.359 30.5398 51.8839 30.3405 50.9884C30.1475 50.1211 30.0149 49.6268 30.003 48.7384C29.99 47.763 30.0053 47.1795 30.3405 46.2634C30.7934 45.0256 31.4624 44.5234 32.3655 43.5634C33.0905 42.7927 33.4772 42.2976 34.3905 41.7634C34.9681 41.4256 35.5083 41.577 35.9655 41.0884C36.4401 40.5812 36.2696 40.0457 36.528 39.4009C36.7255 38.9082 37.0905 38.1634 37.0905 38.1634L37.3155 37.2634L37.5405 36.3634C37.5405 36.3634 37.654 34.3494 38.328 33.3259C38.8758 32.494 39.3546 32.0937 40.2405 31.6384C40.9705 31.2632 41.8822 31.8017 42.2655 31.0759V29.7259V27.4759V26.8009V25.3947V23.9884L42.7155 20.0509L42.9405 17.9697L43.1655 15.8884C43.1655 15.8884 43.0512 13.8949 43.1655 12.6259C43.2614 11.5613 43.3478 10.9608 43.6155 9.92591C43.8243 9.11889 43.7367 8.52394 44.2905 7.90091C44.9192 7.19359 45.5942 7.01373 46.5405 7.00091C47.319 6.99036 47.8548 7.06514 48.453 7.56341C49.0569 8.06642 49.1624 8.60096 49.353 9.36341C49.5661 10.2159 49.353 10.7347 49.353 11.6134V15.2134V17.5759V18.2509V22.1884V24.6634V27.4759V29.7259C49.353 30.4728 49.0429 30.9589 49.353 31.6384C49.5727 32.1197 50.253 32.6509 50.253 32.6509L51.2655 33.3259C51.2655 33.3259 51.984 33.4925 52.3905 33.3259C52.9111 33.1125 53.2905 32.2009 53.2905 32.2009V31.0759L53.853 28.3759L54.753 25.9009L56.103 22.9759L56.778 20.0509V17.2384V15.2134C56.778 14.5105 56.5052 14.0613 56.778 13.4134C57.0432 12.7835 57.3954 12.4633 58.0155 12.1759C58.7729 11.8249 59.3503 11.947 60.153 12.1759C61.0085 12.4198 61.5352 12.6992 62.0655 13.4134C62.7804 14.3762 62.4108 15.2563 62.5155 16.4509C62.669 18.2016 62.5155 20.9509 62.5155 20.9509V22.4697V23.9884V28.3759L61.278 31.0759L60.7155 33.6634L59.8155 36.9259L60.153 40.1884L59.8155 43.2259L60.153 46.9384L61.278 49.1884V51.8884L60.7155 55.1509L60.153 58.3009L59.253 60.7759L58.0155 62.8009L56.778 64.0384V64.9384L55.653 69.5509L54.753 73.7134L53.853 77.8759L51.2655 79.1134L46.9905 80.1259H43.1655L40.2405 79.1134L37.5405 77.8759Z" fill="#ECCCC0"/>
<path d="M56.778 64.0384V64.9384L55.653 69.5509L54.753 73.7134L53.853 77.8759L51.2655 79.1134L46.9905 80.1259H43.1655L40.2405 79.1134L37.5405 77.8759C37.5405 77.8759 35.5894 77.4075 35.403 76.4134C35.275 75.7307 35.7316 75.38 35.9655 74.7259C36.3639 73.6121 36.7819 73.0554 37.0905 71.9134C37.426 70.6718 37.7558 69.9189 37.5405 68.6509C37.3725 67.6613 37.0163 67.1654 36.528 66.2884C35.857 65.0831 35.1324 64.639 34.3905 63.4759M56.778 64.0384L58.0155 62.8009L59.253 60.7759L60.153 58.3009L60.7155 55.1509L61.278 51.8884V49.1884L60.153 46.9384M56.778 64.0384C56.778 64.0384 56.3657 64.0168 56.103 64.0384C55.1598 64.1159 54.7812 64.7536 53.853 64.9384C52.862 65.1358 52.2464 65.181 51.2655 64.9384C50.4642 64.7402 50.0569 64.4695 49.353 64.0384C48.8434 63.7263 48.527 63.5717 48.1155 63.1384C47.4118 62.3975 47.3018 61.7492 46.9905 60.7759C46.6913 59.8402 46.5778 59.2826 46.5405 58.3009C46.4934 57.0592 46.7472 56.3695 46.9905 55.1509C47.1407 54.3985 47.1281 53.9392 47.4405 53.2384C47.9101 52.1851 48.3891 51.6215 49.353 50.9884M60.153 46.9384C60.153 46.9384 59.0398 44.7402 58.0155 43.5634C57.3421 42.7898 56.9224 42.3803 56.103 41.7634C55.0973 41.0063 54.3889 40.8035 53.2905 40.1884M60.153 46.9384L59.8155 43.2259L60.153 40.1884M53.2905 40.1884C52.4997 39.8809 51.2655 39.4009 51.2655 39.4009M53.2905 40.1884C54.2131 40.1884 55.653 40.1884 55.653 40.1884H57.453H60.153M51.2655 39.4009C51.2655 39.4009 50.169 38.5176 49.353 38.1634C48.483 37.7858 46.9905 37.6009 46.9905 37.6009M51.2655 39.4009C51.0019 39.9281 50.8541 40.2237 50.5905 40.7509C50.5905 40.7509 50.4521 41.3972 50.253 41.7634C49.8205 42.5592 48.453 43.2259 48.453 43.2259C48.453 43.2259 47.5527 43.3266 46.9905 43.2259C46.3882 43.1181 45.8753 43.1672 45.528 42.6634C45.1789 42.157 45.528 41.7035 45.528 41.0884C45.528 40.2097 45.1289 39.6212 45.528 38.8384C45.8678 38.1719 46.9905 37.6009 46.9905 37.6009M46.9905 37.6009C46.9905 37.6009 46.0733 37.431 45.528 37.6009C44.8137 37.8235 44.4657 38.2062 44.0655 38.8384C43.5862 39.5956 43.6312 40.1925 43.6155 41.0884C43.5983 42.0707 43.5591 42.7216 44.0655 43.5634C44.4662 44.2295 45.528 44.9134 45.528 44.9134L46.9905 46.2634M46.9905 37.6009L46.5405 36.9259L45.753 34.9009L45.303 33.7759M46.9905 46.2634L48.453 47.5009M46.9905 46.2634V47.9509C46.9905 47.9509 46.9905 48.7051 46.9905 49.1884C46.9905 49.5399 46.9905 49.7369 46.9905 50.0884M48.453 47.5009L50.253 48.4009L52.1655 49.1884L53.853 50.0884M48.453 47.5009L50.253 48.7384C50.253 48.7384 49.898 49.7652 49.353 50.0884C48.7106 50.4694 48.1874 50.0884 47.4405 50.0884C47.2648 50.0884 47.1662 50.0884 46.9905 50.0884M60.153 40.1884L59.8155 36.9259M59.8155 36.9259L60.7155 33.6634L61.278 31.0759L62.5155 28.3759V23.9884V22.4697M59.8155 36.9259C59.8155 36.9259 59.3177 35.9299 58.803 35.4634C58.2496 34.9618 57.1155 34.5634 57.1155 34.5634C57.1155 34.5634 55.6903 33.7801 54.753 33.3259C54.1869 33.0516 53.8968 32.4832 53.2905 32.6509C52.7806 32.7919 52.742 33.268 52.3905 33.6634M56.778 20.0509C56.778 20.0509 56.778 18.3368 56.778 17.2384C56.778 16.4476 56.778 16.0042 56.778 15.2134C56.778 14.5105 56.5052 14.0613 56.778 13.4134C57.0432 12.7835 57.3954 12.4633 58.0155 12.1759C58.7729 11.8249 59.3503 11.947 60.153 12.1759C61.0085 12.4198 61.5352 12.6992 62.0655 13.4134C62.7804 14.3762 62.4108 15.2563 62.5155 16.4509C62.669 18.2016 62.5155 20.9509 62.5155 20.9509V22.4697M56.778 20.0509L56.103 22.9759L54.753 25.9009L53.853 28.3759M56.778 20.0509C56.778 20.0509 58.3377 19.7405 59.253 20.0509C59.8881 20.2663 60.1676 20.5642 60.7155 20.9509C61.467 21.4812 62.5155 22.4697 62.5155 22.4697M53.853 28.3759L53.2905 31.0759V32.2009C53.2905 32.2009 52.9111 33.1125 52.3905 33.3259C51.984 33.4925 51.2655 33.3259 51.2655 33.3259M53.853 28.3759C53.853 28.3759 54.8858 27.6464 55.653 27.4759C56.3392 27.3234 56.7649 27.3325 57.453 27.4759C58.4933 27.6928 59.8155 28.8259 59.8155 28.8259M51.2655 33.3259L50.253 32.6509C50.253 32.6509 49.5727 32.1197 49.353 31.6384C49.0429 30.9589 49.353 30.4728 49.353 29.7259C49.353 28.8472 49.353 27.4759 49.353 27.4759V24.6634M51.2655 33.3259C51.2655 33.3259 49.8985 33.0912 49.0155 33.1009C48.2199 33.1097 47.7717 33.1745 46.9905 33.3259C46.3209 33.4557 45.303 33.7759 45.303 33.7759M49.353 24.6634V22.1884V18.2509V17.5759M49.353 24.6634C49.353 24.6634 47.947 25.2608 46.9905 25.3947C46.1638 25.5104 45.6878 25.3947 44.853 25.3947C43.8425 25.3947 42.2655 25.3947 42.2655 25.3947M34.3905 63.4759C33.7457 62.4649 33.3357 61.9036 32.928 60.7759C32.591 59.8438 32.5943 59.2653 32.3655 58.3009C32.0728 57.0671 31.9168 56.3728 31.578 55.1509C31.37 54.4007 31.237 53.9847 31.0155 53.2384C30.7545 52.359 30.5398 51.8839 30.3405 50.9884C30.1475 50.1211 30.0149 49.6268 30.003 48.7384C29.99 47.763 30.0053 47.1795 30.3405 46.2634C30.7934 45.0256 31.4624 44.5234 32.3655 43.5634C33.0905 42.7927 33.4772 42.2976 34.3905 41.7634C34.9681 41.4256 35.5083 41.577 35.9655 41.0884C36.4401 40.5812 36.2696 40.0457 36.528 39.4009C36.7255 38.9082 37.0905 38.1634 37.0905 38.1634C37.0905 38.1634 37.2276 37.6149 37.3155 37.2634M34.3905 63.4759C34.3905 63.4759 35.5617 64.6396 36.528 64.9384C37.4934 65.2369 38.1114 65.0519 39.1155 64.9384C39.9631 64.8426 40.4842 64.858 41.253 64.4884C42.2333 64.0171 42.5826 63.4124 43.278 62.5759C44.0104 61.6949 44.853 60.1009 44.853 60.1009M57.453 43.5634C57.453 43.5634 56.6993 44.4659 56.103 44.9134C55.6149 45.2798 55.3326 45.5095 54.753 45.7009C53.877 45.9903 52.3905 45.7009 52.3905 45.7009M42.2655 25.3947V23.9884L42.7155 20.0509L42.9405 17.9697M42.2655 25.3947V26.8009V27.4759V29.7259V31.0759C41.8822 31.8017 40.9705 31.2632 40.2405 31.6384C39.3546 32.0937 38.8758 32.494 38.328 33.3259C37.654 34.3494 37.5405 36.3634 37.5405 36.3634C37.5405 36.3634 37.4034 36.9119 37.3155 37.2634M42.9405 17.9697L43.1655 15.8884C43.1655 15.8884 43.0512 13.8949 43.1655 12.6259C43.2614 11.5613 43.3478 10.9608 43.6155 9.92591C43.8243 9.11889 43.7367 8.52394 44.2905 7.90091C44.9192 7.19359 45.5942 7.01373 46.5405 7.00091C47.319 6.99036 47.8548 7.06514 48.453 7.56341C49.0569 8.06642 49.1624 8.60096 49.353 9.36341C49.5661 10.2159 49.353 10.7347 49.353 11.6134C49.353 13.0193 49.353 13.8075 49.353 15.2134C49.353 16.136 49.353 17.5759 49.353 17.5759M42.9405 17.9697C42.9405 17.9697 44.6454 17.6334 45.753 17.5759C46.4111 17.5418 46.7815 17.5759 47.4405 17.5759C48.1874 17.5759 49.353 17.5759 49.353 17.5759M51.2655 51.8884C51.2655 51.8884 52.8157 52.5266 53.853 52.7884C54.9736 53.0712 55.6235 53.1865 56.778 53.2384C57.2608 53.2601 58.0155 53.2384 58.0155 53.2384M42.9405 31.0759C42.9405 31.0759 44.3526 31.8228 44.853 32.6509C45.0977 33.0559 45.303 33.7759 45.303 33.7759M37.3155 37.2634C38.2381 38.0982 39.678 39.4009 39.678 39.4009C39.678 39.4009 40.9117 40.7896 41.5905 41.7634C42.0645 42.4435 42.4557 42.7762 42.7155 43.5634C42.8831 44.071 42.757 44.4114 42.9405 44.9134C43.0958 45.3382 43.503 45.9259 43.503 45.9259M45.753 49.1884C45.4015 48.7051 45.2129 48.4279 44.853 47.9509C44.5513 47.551 44.0655 46.9384 44.0655 46.9384L43.503 45.9259M45.753 49.1884C46.0605 49.5399 46.5405 50.0884 46.5405 50.0884C46.5405 50.0884 46.8148 50.0884 46.9905 50.0884M45.753 49.1884C46.0961 49.9223 46.203 50.4033 46.203 51.2134C46.203 52.0235 46.2139 52.5722 45.753 53.2384C45.3024 53.8897 44.8406 54.2002 44.0655 54.3634C43.6356 54.4539 43.3642 54.4798 42.9405 54.3634C42.2788 54.1816 42.0283 53.7669 41.5905 53.2384C41.2012 52.7684 41.1553 52.3868 40.803 51.8884C40.2469 51.1016 39.423 50.7474 39.1155 50.0884C38.808 49.4294 38.6355 49.0599 38.328 48.4009C38.0205 47.7419 37.2853 47.7113 36.528 47.5009C35.4697 47.2069 34.8139 47.5009 33.7155 47.5009M43.503 45.9259C43.503 45.9259 42.6755 46.4674 42.2655 46.9384C41.9535 47.2969 41.6985 47.4881 41.5905 47.9509C41.5206 48.2504 41.5905 48.7384 41.5905 48.7384M42.2655 51.2134C42.3721 51.8741 42.3955 52.4001 42.9405 52.7884C43.5488 53.2218 44.2129 53.1732 44.853 52.7884C45.4602 52.4235 45.6289 51.9109 45.753 51.2134C45.895 50.4158 46.023 49.5597 45.303 49.1884C44.8735 48.9669 44.5414 49.104 44.0655 49.1884C43.2917 49.3257 42.5574 49.3587 42.2655 50.0884C42.1023 50.4963 42.1956 50.7797 42.2655 51.2134Z" stroke="#725050" stroke-width="0.36"/>
</g>
</g>
<defs>
<filter id="filter0_dd_163_377" x="0" y="0" width="91" height="98" filterUnits="userSpaceOnUse" color-interpolation-filters="sRGB">
<feFlood flood-opacity="0" result="BackgroundImageFix"/>
<feColorMatrix in="SourceAlpha" type="matrix" values="0 0 0 0 0 0 0 0 0 0 0 0 0 0 0 0 0 0 127 0" result="hardAlpha"/>
<feOffset dy="4"/>
<feGaussianBlur stdDeviation="2"/>
<feComposite in2="hardAlpha" operator="out"/>
<feColorMatrix type="matrix" values="0 0 0 0 0 0 0 0 0 0 0 0 0 0 0 0 0 0 0.25 0"/>
<feBlend mode="normal" in2="BackgroundImageFix" result="effect1_dropShadow_163_377"/>
<feColorMatrix in="SourceAlpha" type="matrix" values="0 0 0 0 0 0 0 0 0 0 0 0 0 0 0 0 0 0 127 0" result="hardAlpha"/>
<feOffset dy="4"/>
<feGaussianBlur stdDeviation="2"/>
<feComposite in2="hardAlpha" operator="out"/>
<feColorMatrix type="matrix" values="0 0 0 0 0 0 0 0 0 0 0 0 0 0 0 0 0 0 0.25 0"/>
<feBlend mode="normal" in2="effect1_dropShadow_163_377" result="effect2_dropShadow_163_377"/>
<feBlend mode="normal" in="SourceGraphic" in2="effect2_dropShadow_163_377" result="shape"/>
</filter>
<filter id="filter1_d_163_377" x="0" y="0" width="91" height="98" filterUnits="userSpaceOnUse" color-interpolation-filters="sRGB">
<feFlood flood-opacity="0" result="BackgroundImageFix"/>
<feColorMatrix in="SourceAlpha" type="matrix" values="0 0 0 0 0 0 0 0 0 0 0 0 0 0 0 0 0 0 127 0" result="hardAlpha"/>
<feOffset dy="4"/>
<feGaussianBlur stdDeviation="2"/>
<feComposite in2="hardAlpha" operator="out"/>
<feColorMatrix type="matrix" values="0 0 0 0 0 0 0 0 0 0 0 0 0 0 0 0 0 0 0.25 0"/>
<feBlend mode="normal" in2="BackgroundImageFix" result="effect1_dropShadow_163_377"/>
<feBlend mode="normal" in="SourceGraphic" in2="effect1_dropShadow_163_377" result="shape"/>
</filter>
<filter id="filter2_ddd_163_377" x="25.02" y="6.81995" width="42.5437" height="83.086" filterUnits="userSpaceOnUse" color-interpolation-filters="sRGB">
<feFlood flood-opacity="0" result="BackgroundImageFix"/>
<feColorMatrix in="SourceAlpha" type="matrix" values="0 0 0 0 0 0 0 0 0 0 0 0 0 0 0 0 0 0 127 0" result="hardAlpha"/>
<feOffset dy="4.8"/>
<feGaussianBlur stdDeviation="2.4"/>
<feComposite in2="hardAlpha" operator="out"/>
<feColorMatrix type="matrix" values="0 0 0 0 0 0 0 0 0 0 0 0 0 0 0 0 0 0 0.25 0"/>
<feBlend mode="normal" in2="BackgroundImageFix" result="effect1_dropShadow_163_377"/>
<feColorMatrix in="SourceAlpha" type="matrix" values="0 0 0 0 0 0 0 0 0 0 0 0 0 0 0 0 0 0 127 0" result="hardAlpha"/>
<feOffset dy="4.8"/>
<feGaussianBlur stdDeviation="2.4"/>
<feComposite in2="hardAlpha" operator="out"/>
<feColorMatrix type="matrix" values="0 0 0 0 0 0 0 0 0 0 0 0 0 0 0 0 0 0 0.25 0"/>
<feBlend mode="normal" in2="effect1_dropShadow_163_377" result="effect2_dropShadow_163_377"/>
<feColorMatrix in="SourceAlpha" type="matrix" values="0 0 0 0 0 0 0 0 0 0 0 0 0 0 0 0 0 0 127 0" result="hardAlpha"/>
<feOffset dy="4.8"/>
<feGaussianBlur stdDeviation="2.4"/>
<feComposite in2="hardAlpha" operator="out"/>
<feColorMatrix type="matrix" values="0 0 0 0 0 0 0 0 0 0 0 0 0 0 0 0 0 0 0.25 0"/>
<feBlend mode="normal" in2="effect2_dropShadow_163_377" result="effect3_dropShadow_163_377"/>
<feBlend mode="normal" in="SourceGraphic" in2="effect3_dropShadow_163_377" result="shape"/>
</filter>
</defs>
</svg>
