<svg width="91" height="98" viewBox="0 0 91 98" fill="none" xmlns="http://www.w3.org/2000/svg">
<g filter="url(#filter0_dd_163_390)">
<ellipse cx="45.5" cy="45" rx="41.5" ry="45" fill="#D9D9D9"/>
</g>
<g filter="url(#filter1_dd_163_390)">
<g filter="url(#filter2_dd_163_390)">
<path d="M39.0568 78.7502C38.3143 78.4053 37.6969 78.449 37.1818 77.8127C36.7447 77.2728 36.7813 76.8007 36.6193 76.1252C36.4213 75.2994 36.4418 74.8118 36.3381 73.9689C36.2615 73.3469 36.2407 72.9954 36.1506 72.3752C36.0328 71.565 35.9505 71.1124 35.7756 70.3127L33.9943 68.7189L33.0568 66.8439L32.1193 64.5939L31.0881 61.9689L30.5256 59.0627L29.6818 56.0627L28.6506 52.6877L28.1527 50.6252L27.9943 49.9689L27.0568 46.5002L26.1193 45.0939L24.4318 43.1252L23.2131 41.3439L21.0568 38.9064C21.0568 38.9064 20.045 38.0142 19.5568 37.3127C19.1545 36.7346 19.0436 36.3408 18.7131 35.7189C18.421 35.1693 18.1822 34.8952 17.9631 34.3127C17.9623 34.3108 17.9616 34.3089 17.9609 34.307L17.4006 32.8127C17.4006 32.8127 17.0933 31.9127 17.0256 31.3127C16.9681 30.8034 17.0256 30.0002 17.0256 30.0002C17.0256 30.0002 17.1857 29.0781 17.5881 28.5002C17.9905 27.9222 19.1818 27.6564 19.1818 27.6564C19.1818 27.6564 20.3913 27.3511 21.0568 27.6564C21.7173 27.9594 22.2756 29.0627 22.2756 29.0627L24.0568 31.3127L25.5568 33.0854L26.1193 33.7502L27.9943 35.7189L29.6818 38.0627L31.8381 40.2189C31.8381 40.2189 32.0131 39.8205 32.1193 39.5627C32.3576 38.9842 32.3142 38.5689 32.6818 38.0627C33.2315 37.3056 33.8424 37.0928 34.7443 36.8439C35.6619 36.5908 36.249 36.6545 37.1818 36.8439C37.7491 36.9592 38.0389 37.1296 38.5881 37.3127C38.6199 36.6647 38.7328 36.281 39.0568 35.7189C39.4578 35.0233 39.8581 34.7083 40.5568 34.3127C41.2526 33.9187 41.7344 33.8663 42.5256 33.7502C43.3949 33.6226 43.9111 33.593 44.7756 33.7502C45.459 33.8745 45.8417 34.6234 46.4631 34.3127C47.0844 34.002 46.8059 33.2842 47.0256 32.6252C47.3497 32.0926 47.6654 31.8255 48.2443 31.5939C48.9242 31.322 49.3871 31.5939 50.1193 31.5939C50.998 31.5939 51.5138 31.3936 52.3693 31.5939C53.0715 31.7584 53.4748 31.9181 54.0568 32.3439C54.8368 32.9148 55.5568 34.3127 55.5568 34.3127L56.8693 36.0002L58.0881 37.6877L59.3068 40.2189L60.1506 43.1252L60.7131 45.0939C60.7131 45.0939 61.569 43.8459 62.2131 43.1252C62.8861 42.3721 63.4355 42.1148 64.0881 41.3439C64.4429 40.9248 64.9318 40.2189 64.9318 40.2189C64.9318 40.2189 65.6405 39.4379 66.0568 38.9064C66.5266 38.3067 67.1818 37.3127 67.1818 37.3127C67.1818 37.3127 68.2141 36.5176 68.8693 36.0002C69.4212 35.5643 69.6667 35.2272 70.2756 34.8752C70.7584 34.5961 71.0729 34.5263 71.5881 34.3127C72.1344 34.0861 72.9943 33.7502 72.9943 33.7502H74.6818C75.3774 33.7502 75.7971 33.5493 76.4631 33.7502C77.1925 33.9702 77.7319 34.1861 78.0568 34.8752C78.3379 35.4713 78.4044 36.0028 78.0568 36.5627C77.7621 37.0375 77.341 37.069 76.8381 37.3127C76.4832 37.4847 76.2519 37.5086 75.9006 37.6877C75.2025 38.0435 74.3068 38.9064 74.3068 38.9064L73.2756 40.2189L72.2443 41.9064L71.5881 43.7814L70.7443 45.5627L69.3381 48.0002L67.9318 50.6252L67.1818 52.6877C67.1818 52.6877 67.0117 54.2854 66.6193 55.2189C66.2494 56.0991 65.8335 56.4852 65.3068 57.2814C64.8418 57.9844 64.5869 58.3833 64.0881 59.0627C63.5635 59.7771 63.2113 60.1332 62.6818 60.8439C62.069 61.6666 61.8293 62.2046 61.1818 63.0002C60.5117 63.8237 60.0735 64.2345 59.3068 64.9689C58.501 65.7409 57.1506 66.8439 57.1506 66.8439C57.1506 66.8439 56.6273 67.292 56.4943 67.6877C56.366 68.0694 56.4943 68.3162 56.4943 68.7189V71.3439C56.4943 72.3325 56.7755 72.9275 56.4943 73.8752C56.2799 74.5979 55.979 74.9381 55.5568 75.5627C55.0475 76.3161 54.0568 77.3439 54.0568 77.3439C54.0568 77.3439 53.0758 78.2636 52.3693 78.7502C51.5463 79.317 51.0818 79.7003 50.1193 79.9689C48.9556 80.2937 48.2337 79.9689 47.0256 79.9689H43.7443C43.2684 79.9689 42.999 80.0182 42.5256 79.9689C41.7302 79.8862 41.3072 79.6828 40.5568 79.4064C39.9568 79.1855 39.6367 79.0196 39.0568 78.7502Z" fill="#ECCCC0"/>
<path d="M57.1506 66.8439C57.1506 66.8439 56.6273 67.292 56.4943 67.6877C56.366 68.0694 56.4943 68.3162 56.4943 68.7189C56.4943 69.7441 56.4943 70.3188 56.4943 71.3439C56.4943 72.3325 56.7755 72.9275 56.4943 73.8752C56.2799 74.5979 55.979 74.9381 55.5568 75.5627C55.0475 76.3161 54.0568 77.3439 54.0568 77.3439C54.0568 77.3439 53.0758 78.2636 52.3693 78.7502C51.5463 79.317 51.0818 79.7003 50.1193 79.9689C48.9556 80.2937 48.2337 79.9689 47.0256 79.9689C45.7441 79.9689 45.0257 79.9689 43.7443 79.9689C43.2684 79.9689 42.999 80.0182 42.5256 79.9689C41.7302 79.8862 41.3072 79.6827 40.5568 79.4064C39.9568 79.1855 39.6367 79.0196 39.0568 78.7502C38.3143 78.4053 37.6969 78.449 37.1818 77.8127C36.7447 77.2728 36.7813 76.8007 36.6193 76.1252C36.4213 75.2994 36.4418 74.8118 36.3381 73.9689C36.2615 73.3469 36.2407 72.9954 36.1506 72.3752C36.0328 71.565 35.9505 71.1124 35.7756 70.3127M57.1506 66.8439C57.1506 66.8439 58.501 65.7409 59.3068 64.9689C60.0735 64.2345 60.5117 63.8237 61.1818 63.0002C61.8293 62.2046 62.069 61.6666 62.6818 60.8439C63.2113 60.1332 63.5635 59.7771 64.0881 59.0627C64.5869 58.3833 64.8418 57.9844 65.3068 57.2814C65.8335 56.4852 66.2494 56.0991 66.6193 55.2189C67.0117 54.2854 67.1818 52.6877 67.1818 52.6877L67.9318 50.6252L69.3381 48.0002L70.7443 45.5627L71.5881 43.7814L72.2443 41.9064L73.2756 40.2189L74.3068 38.9064C74.3068 38.9064 75.2025 38.0435 75.9006 37.6877C76.2519 37.5086 76.4832 37.4847 76.8381 37.3127C77.341 37.069 77.7621 37.0375 78.0568 36.5627C78.4044 36.0028 78.3379 35.4713 78.0568 34.8752C77.7319 34.1861 77.1925 33.9702 76.4631 33.7502C75.7971 33.5493 75.3774 33.7502 74.6818 33.7502C74.0228 33.7502 72.9943 33.7502 72.9943 33.7502C72.9943 33.7502 72.1344 34.0861 71.5881 34.3127C71.0729 34.5263 70.7584 34.5961 70.2756 34.8752C69.6667 35.2272 69.4212 35.5643 68.8693 36.0002C68.2141 36.5176 67.1818 37.3127 67.1818 37.3127C67.1818 37.3127 66.5266 38.3067 66.0568 38.9064C65.6405 39.4379 64.9318 40.2189 64.9318 40.2189M57.1506 66.8439C57.1506 66.8439 56.0141 67.6665 55.1818 67.9689C54.5473 68.1995 54.1533 68.1975 53.4943 68.3439C52.8353 68.4904 51.8068 68.7189 51.8068 68.7189C51.8068 68.7189 50.4234 68.8643 49.5568 68.7189C48.6775 68.5715 48.2124 68.3375 47.4006 67.9689C46.8338 67.7116 46.4585 67.6335 45.9943 67.2189C45.502 66.7793 45.3695 66.394 45.0568 65.8127C44.6832 65.1182 44.553 64.6869 44.3068 63.9377C44.0241 63.0772 43.775 62.5929 43.7443 61.6877C43.7088 60.6399 43.9659 60.0541 44.3068 59.0627C44.637 58.1026 45.4318 56.7189 45.4318 56.7189M64.9318 40.2189C64.9318 40.2189 64.4429 40.9248 64.0881 41.3439C63.4355 42.1148 62.8861 42.3721 62.2131 43.1252C61.569 43.8459 60.7131 45.0939 60.7131 45.0939M64.9318 40.2189L65.3068 41.3439L66.0568 42.5627L67.1818 43.5002M60.7131 45.0939L60.1506 43.1252L59.3068 40.2189L58.0881 37.6877L56.8693 36.0002L55.5568 34.3127M60.7131 45.0939L60.1506 46.5002L59.3068 47.5314L58.5568 48.3752M60.7131 45.0939L61.1818 47.5314C61.1818 47.5314 61.5331 48.729 61.7443 49.5002C61.9343 50.194 61.8613 50.654 62.2131 51.2814C62.5929 51.9589 63.6193 52.6877 63.6193 52.6877M55.5568 34.3127C55.5568 34.3127 54.8368 32.9148 54.0568 32.3439C53.4748 31.9181 53.0715 31.7584 52.3693 31.5939C51.5138 31.3936 50.998 31.5939 50.1193 31.5939C49.3871 31.5939 48.9242 31.322 48.2443 31.5939C47.6654 31.8255 47.3497 32.0926 47.0256 32.6252M55.5568 34.3127C55.5568 34.3127 55.3679 35.1819 55.1818 35.7189C55.0259 36.1686 54.8064 36.3772 54.7131 36.8439C54.6197 37.3106 54.7131 38.0627 54.7131 38.0627C54.7131 38.0627 54.5416 39.3769 54.4318 40.2189M47.0256 32.6252C46.8059 33.2842 47.0844 34.002 46.4631 34.3127C45.8417 34.6234 45.459 33.8745 44.7756 33.7502C43.9111 33.593 43.3949 33.6226 42.5256 33.7502C41.7344 33.8663 41.2526 33.9187 40.5568 34.3127C39.8581 34.7083 39.4578 35.0233 39.0568 35.7189C38.7328 36.281 38.6199 36.6647 38.5881 37.3127M47.0256 32.6252C47.0256 32.9547 47.0256 33.4689 47.0256 33.4689V36.0002V37.6877V40.5002V43.1252V45.0939M38.5881 37.3127C38.0389 37.1296 37.7491 36.9592 37.1818 36.8439C36.249 36.6545 35.6619 36.5908 34.7443 36.8439C33.8424 37.0928 33.2315 37.3056 32.6818 38.0627C32.3142 38.5689 32.3576 38.9842 32.1193 39.5627C32.0131 39.8205 31.8381 40.2189 31.8381 40.2189M38.5881 37.3127C38.7711 37.9351 39.0568 38.9064 39.0568 38.9064L39.5256 40.9689L39.9006 43.7814L40.5568 45.9377L41.0256 48.0002L41.7756 49.9689M31.8381 40.2189L29.6818 38.0627L27.9943 35.7189M31.8381 40.2189L31.8849 40.5002M27.9943 35.7189L26.1193 33.7502L25.5568 33.0854M27.9943 35.7189L27.0568 37.3127C27.0568 37.3127 26.7153 37.7708 26.4943 38.0627C26.1318 38.5414 25.9431 38.8217 25.5568 39.2814C25.1401 39.7773 24.4318 40.5002 24.4318 40.5002L23.2131 41.3439M17.5881 32.6252C17.5881 32.6252 17.7253 33.6808 17.9631 34.3127M17.9631 34.3127C18.1822 34.8952 18.421 35.1693 18.7131 35.7189C19.0436 36.3408 19.1545 36.7346 19.5568 37.3127C20.045 38.0142 21.0568 38.9064 21.0568 38.9064L23.2131 41.3439M17.9631 34.3127L17.4006 32.8127C17.4006 32.8127 17.0933 31.9127 17.0256 31.3127C16.9681 30.8034 17.0256 30.0002 17.0256 30.0002C17.0256 30.0002 17.1857 29.0781 17.5881 28.5002C17.9905 27.9222 19.1818 27.6564 19.1818 27.6564C19.1818 27.6564 20.3913 27.3511 21.0568 27.6564C21.7173 27.9594 22.2756 29.0627 22.2756 29.0627L24.0568 31.3127L25.5568 33.0854M23.2131 41.3439L24.4318 43.1252L26.1193 45.0939L27.0568 46.5002L27.9943 49.9689L28.1527 50.6252M35.7756 70.3127C35.0799 69.6903 33.9943 68.7189 33.9943 68.7189L33.0568 66.8439L32.1193 64.5939L31.0881 61.9689L30.5256 59.0627L29.6818 56.0627L28.6506 52.6877L28.1527 50.6252M35.7756 70.3127C36.5444 70.7154 36.9007 71.1397 37.7443 71.3439C38.5627 71.5421 39.0714 71.4908 39.9006 71.3439C40.6645 71.2086 41.0627 70.9937 41.7756 70.6877C42.5731 70.3453 43.1727 70.3096 43.7443 69.6564C44.0255 69.3352 44.3068 68.7189 44.3068 68.7189M34.7443 50.3439L33.9943 49.1252L33.3381 47.0627L32.6818 45.0939L32.4006 43.7814L32.1193 41.9064L31.8849 40.5002M34.7443 50.3439C34.7443 50.3439 35.6354 51.3455 36.1506 52.0314C36.5775 52.5998 36.7051 53.0041 37.1818 53.5314C37.9382 54.368 38.5446 54.6624 39.5256 55.2189C40.1951 55.5987 41.3068 56.0627 41.3068 56.0627C41.3068 56.0627 42.8568 56.4113 43.5568 55.8752C43.976 55.5542 44.0139 55.1895 44.3068 54.7502M34.7443 50.3439C34.7443 50.3439 33.8662 50.1791 33.3381 49.9689C32.9577 49.8176 32.7963 49.6047 32.4006 49.5002C31.905 49.3693 31.5948 49.4231 31.0881 49.5002C30.5158 49.5873 30.2233 49.7644 29.6818 49.9689C29.0739 50.1986 28.1527 50.6252 28.1527 50.6252M44.3068 54.7502C44.3068 54.2742 44.3068 53.5314 44.3068 53.5314M44.3068 54.7502C44.3727 54.7831 44.4349 54.8175 44.4943 54.8528M44.3068 53.5314L43.0881 51.5627L41.7756 49.9689M44.3068 53.5314H44.0256C44.0256 53.5314 43.7861 53.1828 43.5568 53.0627C43.2001 52.8758 42.9101 52.9432 42.5256 53.0627C42.1957 53.1652 41.7756 53.5314 41.7756 53.5314C41.7756 53.5314 41.3726 53.8902 41.2131 54.1877C40.9511 54.6759 41.0988 55.0448 41.0256 55.5939M41.7756 49.9689C41.7756 49.9689 41.5266 50.3996 41.3068 50.6252C40.9737 50.9671 40.2756 51.2814 40.2756 51.2814C40.2756 51.2814 39.5884 51.8589 39.0568 52.0314C38.3603 52.2575 37.1818 52.0314 37.1818 52.0314M47.4006 47.5314L48.2443 49.1252L48.7131 50.2033M47.4006 47.5314L47.0256 45.0939M47.4006 47.5314C47.4006 47.5314 46.8439 48.5235 46.2756 48.9377C45.8519 49.2464 45.5691 49.389 45.0568 49.5002C44.5559 49.6089 43.7443 49.5002 43.7443 49.5002M47.0256 45.0939C47.0256 45.0939 47.7684 45.0939 48.2443 45.0939C48.9765 45.0939 49.4103 45.2769 50.1193 45.0939C50.6269 44.963 50.9091 44.8327 51.3381 44.5314M49.3693 53.5314C49.3693 53.5314 49.2882 53.8342 49.1818 54.0002C48.9842 54.3084 48.7319 54.3529 48.4318 54.5627C48.0406 54.8362 47.835 55.0212 47.4006 55.2189C46.8832 55.4544 46.5619 55.6239 45.9943 55.5939C45.3321 55.559 45.0288 55.1704 44.4943 54.8528M49.3693 53.5314L49.5568 53.0627L49.3693 52.1721M49.3693 53.5314C49.3693 53.5314 49.0363 53.2333 48.8068 53.0627C48.5949 52.9052 48.4597 52.8403 48.2443 52.6877C47.9037 52.4464 47.7942 52.1704 47.4006 52.0314C46.9863 51.8852 46.6899 51.8852 46.2756 52.0314C45.8819 52.1704 45.727 52.3925 45.4318 52.6877C45.1366 52.9829 44.989 53.1727 44.7756 53.5314L44.588 53.9064L44.4943 54.3752V54.6564V54.8528M27.0568 45.9377L28.1527 44.5314C28.1527 44.5314 28.8015 43.9055 29.2131 43.5002C29.7296 42.9916 30.0825 42.7614 30.5256 42.1877C30.7676 41.8743 30.7769 41.6734 31.0881 41.3439C31.3993 41.0144 31.5737 40.8297 31.8849 40.5002M20.2131 37.3127L22.2756 36.8439L23.7756 35.7189L24.8068 34.3127L25.5568 33.0854M49.3693 52.1721C49.3693 52.1721 49.2854 51.6214 49.1818 51.2814C49.0479 50.8423 48.7131 50.2033 48.7131 50.2033M49.3693 52.1721C49.3693 52.1721 50.0849 52.5699 50.5881 52.6877C51.2654 52.8463 52.3693 52.6877 52.3693 52.6877M52.3693 52.6877C52.3693 52.6877 53.3437 52.4566 53.7756 52.0314C54.3779 51.4385 54.4318 49.9689 54.4318 49.9689V47.5314V45.0939V44.5314M52.3693 52.6877C52.3693 52.6877 52.8504 51.8602 52.8381 51.2814C52.8265 50.7373 52.7176 50.3872 52.3693 49.9689C52.1863 49.7492 52.0505 49.6499 51.8068 49.5002C51.3825 49.2395 51.0854 49.1002 50.5881 49.1252C50.1601 49.1467 49.9283 49.2866 49.5568 49.5002C49.1849 49.7139 48.7131 50.2033 48.7131 50.2033M54.4318 40.2189C54.4318 40.9878 54.4318 42.1877 54.4318 42.1877V44.5314M54.4318 40.2189C54.948 40.2598 55.2602 40.2152 55.7443 40.0314C56.238 39.8441 56.4794 39.6375 56.8693 39.2814C57.1567 39.019 57.5256 38.5314 57.5256 38.5314M58.0881 43.1252C57.692 43.3322 57.1506 43.7814 57.1506 43.7814C56.8631 44.0438 56.8509 44.3755 56.4943 44.5314C56.1588 44.6781 55.9229 44.5314 55.5568 44.5314C55.1175 44.5314 54.4318 44.5314 54.4318 44.5314M54.7131 49.9689L57.1506 49.1252L58.5568 48.3752M58.5568 48.3752V49.5002C58.5568 49.5002 58.4958 50.3607 58.5568 50.9064C58.6367 51.6213 59.0256 52.6877 59.0256 52.6877M41.0256 55.3127V55.8752" stroke="#725050" stroke-width="0.3"/>
</g>
<g filter="url(#filter3_dd_163_390)">
<path d="M44.375 28.2188L43.5312 14.25H40.625L45.5 9L49.7188 13.5938L46.25 14.25L47.2812 28.2188H44.375Z" fill="#725050"/>
<path d="M44.375 28.2188L43.5312 14.25H40.625L45.5 9L49.7188 13.5938L46.25 14.25L47.2812 28.2188H44.375Z" stroke="#725050" stroke-width="0.3"/>
</g>
</g>
<defs>
<filter id="filter0_dd_163_390" x="0" y="0" width="91" height="98" filterUnits="userSpaceOnUse" color-interpolation-filters="sRGB">
<feFlood flood-opacity="0" result="BackgroundImageFix"/>
<feColorMatrix in="SourceAlpha" type="matrix" values="0 0 0 0 0 0 0 0 0 0 0 0 0 0 0 0 0 0 127 0" result="hardAlpha"/>
<feOffset dy="4"/>
<feGaussianBlur stdDeviation="2"/>
<feComposite in2="hardAlpha" operator="out"/>
<feColorMatrix type="matrix" values="0 0 0 0 0 0 0 0 0 0 0 0 0 0 0 0 0 0 0.25 0"/>
<feBlend mode="normal" in2="BackgroundImageFix" result="effect1_dropShadow_163_390"/>
<feColorMatrix in="SourceAlpha" type="matrix" values="0 0 0 0 0 0 0 0 0 0 0 0 0 0 0 0 0 0 127 0" result="hardAlpha"/>
<feOffset dy="4"/>
<feGaussianBlur stdDeviation="2"/>
<feComposite in2="hardAlpha" operator="out"/>
<feColorMatrix type="matrix" values="0 0 0 0 0 0 0 0 0 0 0 0 0 0 0 0 0 0 0.25 0"/>
<feBlend mode="normal" in2="effect1_dropShadow_163_390" result="effect2_dropShadow_163_390"/>
<feBlend mode="normal" in="SourceGraphic" in2="effect2_dropShadow_163_390" result="shape"/>
</filter>
<filter id="filter1_dd_163_390" x="12.8501" y="8.77893" width="69.593" height="79.4844" filterUnits="userSpaceOnUse" color-interpolation-filters="sRGB">
<feFlood flood-opacity="0" result="BackgroundImageFix"/>
<feColorMatrix in="SourceAlpha" type="matrix" values="0 0 0 0 0 0 0 0 0 0 0 0 0 0 0 0 0 0 127 0" result="hardAlpha"/>
<feOffset dy="4"/>
<feGaussianBlur stdDeviation="2"/>
<feComposite in2="hardAlpha" operator="out"/>
<feColorMatrix type="matrix" values="0 0 0 0 0 0 0 0 0 0 0 0 0 0 0 0 0 0 0.25 0"/>
<feBlend mode="normal" in2="BackgroundImageFix" result="effect1_dropShadow_163_390"/>
<feColorMatrix in="SourceAlpha" type="matrix" values="0 0 0 0 0 0 0 0 0 0 0 0 0 0 0 0 0 0 127 0" result="hardAlpha"/>
<feOffset dy="4"/>
<feGaussianBlur stdDeviation="2"/>
<feComposite in2="hardAlpha" operator="out"/>
<feColorMatrix type="matrix" values="0 0 0 0 0 0 0 0 0 0 0 0 0 0 0 0 0 0 0.25 0"/>
<feBlend mode="normal" in2="effect1_dropShadow_163_390" result="effect2_dropShadow_163_390"/>
<feBlend mode="normal" in="SourceGraphic" in2="effect2_dropShadow_163_390" result="shape"/>
</filter>
<filter id="filter2_dd_163_390" x="12.8501" y="27.3707" width="69.593" height="60.8926" filterUnits="userSpaceOnUse" color-interpolation-filters="sRGB">
<feFlood flood-opacity="0" result="BackgroundImageFix"/>
<feColorMatrix in="SourceAlpha" type="matrix" values="0 0 0 0 0 0 0 0 0 0 0 0 0 0 0 0 0 0 127 0" result="hardAlpha"/>
<feOffset dy="4"/>
<feGaussianBlur stdDeviation="2"/>
<feComposite in2="hardAlpha" operator="out"/>
<feColorMatrix type="matrix" values="0 0 0 0 0 0 0 0 0 0 0 0 0 0 0 0 0 0 0.25 0"/>
<feBlend mode="normal" in2="BackgroundImageFix" result="effect1_dropShadow_163_390"/>
<feColorMatrix in="SourceAlpha" type="matrix" values="0 0 0 0 0 0 0 0 0 0 0 0 0 0 0 0 0 0 127 0" result="hardAlpha"/>
<feOffset dy="4"/>
<feGaussianBlur stdDeviation="2"/>
<feComposite in2="hardAlpha" operator="out"/>
<feColorMatrix type="matrix" values="0 0 0 0 0 0 0 0 0 0 0 0 0 0 0 0 0 0 0.25 0"/>
<feBlend mode="normal" in2="effect1_dropShadow_163_390" result="effect2_dropShadow_163_390"/>
<feBlend mode="normal" in="SourceGraphic" in2="effect2_dropShadow_163_390" result="shape"/>
</filter>
<filter id="filter3_dd_163_390" x="36.281" y="8.77893" width="17.7307" height="27.5898" filterUnits="userSpaceOnUse" color-interpolation-filters="sRGB">
<feFlood flood-opacity="0" result="BackgroundImageFix"/>
<feColorMatrix in="SourceAlpha" type="matrix" values="0 0 0 0 0 0 0 0 0 0 0 0 0 0 0 0 0 0 127 0" result="hardAlpha"/>
<feOffset dy="4"/>
<feGaussianBlur stdDeviation="2"/>
<feComposite in2="hardAlpha" operator="out"/>
<feColorMatrix type="matrix" values="0 0 0 0 0 0 0 0 0 0 0 0 0 0 0 0 0 0 0.25 0"/>
<feBlend mode="normal" in2="BackgroundImageFix" result="effect1_dropShadow_163_390"/>
<feColorMatrix in="SourceAlpha" type="matrix" values="0 0 0 0 0 0 0 0 0 0 0 0 0 0 0 0 0 0 127 0" result="hardAlpha"/>
<feOffset dy="4"/>
<feGaussianBlur stdDeviation="2"/>
<feComposite in2="hardAlpha" operator="out"/>
<feColorMatrix type="matrix" values="0 0 0 0 0 0 0 0 0 0 0 0 0 0 0 0 0 0 0.25 0"/>
<feBlend mode="normal" in2="effect1_dropShadow_163_390" result="effect2_dropShadow_163_390"/>
<feBlend mode="normal" in="SourceGraphic" in2="effect2_dropShadow_163_390" result="shape"/>
</filter>
</defs>
</svg>
