<svg width="91" height="98" viewBox="0 0 91 98" fill="none" xmlns="http://www.w3.org/2000/svg">
<g filter="url(#filter0_dd_144_82)">
<g filter="url(#filter1_d_144_82)">
<ellipse cx="45.5" cy="45" rx="41.5" ry="45" fill="#D9D9D9"/>
</g>
<g filter="url(#filter2_dd_144_82)">
<path d="M36.3123 79.2128C35.3408 79.2128 34.3719 80.0155 33.8247 79.2128C33.4515 78.6656 33.8247 78.1791 33.8247 77.5167C33.8247 76.7218 33.9396 76.2679 33.8247 75.4814C33.6974 74.6107 33.4491 74.159 33.1462 73.3329C32.8328 72.4782 32.5875 72.0266 32.2416 71.1845L32.1877 71.0532C31.8591 70.2535 31.6591 69.7665 31.337 68.923C30.8686 67.6964 30.5955 67.0108 30.2062 65.7569C29.8537 64.6214 29.5472 64.0975 29.4147 62.8169L29.0755 59.5378C28.943 58.2572 29.0125 57.2622 29.0755 55.8063C29.1407 54.3005 29.1635 53.4479 29.4147 51.9617C29.6343 50.6628 29.8446 49.9493 30.2062 48.6825C30.5896 47.3398 30.7993 46.579 31.337 45.2903C31.9302 43.8686 33.1462 41.785 33.1462 41.785C33.1462 41.785 33.8733 39.8682 34.277 38.6189C34.4616 38.0473 34.671 37.7467 34.7293 37.1489C34.803 36.3922 34.4217 35.2266 34.4217 35.2266C34.4217 35.2266 34.3201 34.6772 34.277 34.322C34.1383 33.1823 34.277 31.3821 34.277 31.3821V28.1029V27.6506V24.3714C34.277 23.4441 34.0917 22.9055 34.277 21.9968C34.3885 21.4495 34.3545 21.0541 34.7293 20.6399C35.1661 20.1573 35.6494 20.1224 36.2959 20.0757L36.3123 20.0745C37.1351 20.0151 37.5528 20.4191 38.3477 20.6399C38.3477 20.1542 38.2346 19.8107 38.3477 19.3961C38.4607 18.9815 38.6869 18.1297 38.6869 18.0392C38.6869 17.9487 39.1392 16.9461 39.3653 16.4561C39.5915 15.9661 40.2536 15.7074 40.9484 15.5515C41.4654 15.4356 41.8033 15.3819 42.3053 15.5515C42.841 15.7326 43.0594 16.0343 43.436 16.4561C43.7215 16.7759 44.058 17.3607 44.058 17.3607C44.058 17.3607 44.2556 15.9737 44.4537 15.0992C44.6052 14.4307 44.716 14.0618 44.906 13.4031C45.0725 12.826 45.0477 12.4472 45.3583 11.9331C45.5688 11.5847 45.6778 11.3337 46.0368 11.1416C46.504 10.8916 46.8766 11.0255 47.3937 11.1416C48.0298 11.2845 48.3976 11.4772 48.8636 11.9331C49.4854 12.5414 49.7682 13.9685 49.7682 13.9685C49.7682 13.9685 50.3747 15.594 50.5598 16.6823C50.7746 17.9455 50.6728 19.9615 50.6728 19.9615C50.6728 19.9615 50.8136 21.822 50.899 23.0145C50.9907 24.2949 51.1251 26.2937 51.1251 26.2937V28.1029C51.5667 27.7055 51.6901 27.2664 52.2559 27.0852C52.6764 26.9505 52.9451 27.0852 53.3867 27.0852C53.8724 27.0852 54.1453 27.0607 54.6305 27.0852C55.3416 27.1211 55.7632 27.0891 56.4397 27.3114C57.0591 27.5148 57.3684 27.7393 57.9097 28.1029C58.4822 28.4875 58.8622 28.6748 59.2666 29.2336C59.7824 29.9464 60.0696 30.5111 59.945 31.3821C59.8886 31.7761 59.8092 32.0011 59.6058 32.3432L60.3973 32.852L61.6411 34.322C62.103 35.219 62.3278 35.7435 62.6588 36.6966C63.0769 37.9005 63.2998 38.5971 63.4503 39.8627C63.5912 41.0466 63.4503 42.9157 63.4503 42.9157V45.2903L63.2661 46.5341C63.1924 47.2446 63.1335 47.642 62.998 48.3433C62.805 49.3427 62.6346 49.9048 62.3469 50.854L62.3196 50.9441C61.9389 52.2006 61.8133 52.9552 61.1888 54.1102C60.8102 54.8104 60.497 55.1421 60.0581 55.8063C59.3895 56.8179 59.0185 57.3876 58.362 58.407C57.7385 59.3751 57.3296 59.8834 56.7789 60.8947C56.2213 61.9185 55.983 62.5321 55.5351 63.6085L54.2913 67.0007C54.2913 67.0007 53.8245 68.8452 53.7259 70.0537C53.6469 71.022 53.655 71.5725 53.7259 72.5414C53.8207 73.8374 54.0537 74.543 54.2913 75.8206C54.5382 77.1488 56.2329 78.7337 54.9697 79.2128C54.5155 79.3851 54.2116 79.2128 53.7259 79.2128H51.5774H48.5244H45.2452H42.1922H39.5915H36.3123Z" fill="#ECCCC0"/>
<path d="M63.4503 45.2903C63.4503 44.363 63.4503 42.9157 63.4503 42.9157C63.4503 42.9157 63.5912 41.0466 63.4503 39.8627C63.2998 38.5971 63.0769 37.9005 62.6588 36.6966C62.3278 35.7435 62.103 35.219 61.6411 34.322M63.4503 45.2903C63.4062 44.5838 63.3373 43.4811 63.3373 43.4811C63.3373 43.4811 61.882 44.4376 60.8496 44.3857C59.8824 44.337 58.5881 43.368 58.5881 43.368M63.4503 45.2903C63.3784 45.776 63.338 46.0484 63.2661 46.5341M61.6411 34.322C61.1554 33.7479 60.3973 32.852 60.3973 32.852M61.6411 34.322C61.8619 35.0285 62.2065 36.1312 62.2065 36.1312C62.2065 36.1312 61.429 36.7211 60.8496 36.9227C60.3833 37.085 59.6058 37.1489 59.6058 37.1489C59.6058 37.1489 58.5135 37.421 57.9097 37.1489C57.4817 36.956 57.2373 36.7653 57.0051 36.3574C56.7822 35.966 56.7789 35.2266 56.7789 35.2266C56.7789 35.2266 55.9809 34.0787 56.4397 33.6436C56.7039 33.393 57.3443 33.4174 57.3443 33.4174L59.0404 33.0782L60.3973 32.852M60.3973 32.852C60.3973 32.852 59.9149 32.5419 59.6058 32.3432M54.2913 36.3574C54.2913 36.3574 54.4179 35.3024 54.6305 34.6612C54.879 33.9114 54.9926 33.4262 55.5351 32.852C56.0918 32.2628 56.5517 32.0045 57.3443 31.8344C57.9056 31.7139 58.275 31.6375 58.8143 31.8344C59.1594 31.9604 59.2967 32.1445 59.6058 32.3432M54.2913 36.3574C54.2913 36.3574 53.8381 37.7155 53.7259 38.6189C53.6115 39.5391 53.7259 40.0661 53.7259 40.9934C53.7259 41.7441 53.5752 42.1803 53.7259 42.9157C53.8493 43.5183 54.471 43.7975 54.2913 44.3857C54.1157 44.9601 53.4393 44.8352 53.0474 45.2903C52.5442 45.8747 52.6004 46.4095 52.2559 47.0995C52.0088 47.5945 51.7264 47.8104 51.5774 48.3433C51.3991 48.9813 51.5774 49.3771 51.5774 50.0395C51.5774 50.3927 51.5774 50.5908 51.5774 50.9441C51.5774 51.3415 52.1515 51.7409 51.5774 51.9617C51.0034 52.1825 50.6815 52.3063 50.1075 52.5271C50.1075 52.5271 49.1223 52.9719 48.5244 53.3186C47.7827 53.7488 47.3949 54.0398 46.7152 54.5625C46.1191 55.0209 45.8827 55.4074 45.2452 55.8063C44.5915 56.2154 44.0761 56.1676 43.436 56.5978C42.6322 57.138 42.2957 57.6139 41.7399 58.407C41.2524 59.1026 41.0514 59.5463 40.7222 60.3293C40.3812 61.1404 40.2666 61.6265 40.0438 62.4777C39.8266 63.3072 39.5915 64.6261 39.5915 64.6261M54.2913 36.3574C54.2913 36.3574 53.4245 37.0872 52.8213 37.4881C52.3104 37.8277 52.0216 38.023 51.4644 38.2796C50.8302 38.5717 50.4476 38.6836 49.7682 38.845C49.2456 38.9692 48.9466 39.0254 48.4113 39.0712C47.8394 39.1201 47.5058 39.176 46.9414 39.0712C46.4332 38.9768 46.1204 38.9161 45.6975 38.6189C45.3135 38.3489 45.1149 38.1346 44.906 37.7143C44.667 37.2332 44.6799 36.8946 44.6799 36.3574C44.6799 35.8202 44.6857 35.4904 44.906 35.0005C45.2133 34.317 46.2629 33.6436 46.2629 33.6436L46.9652 32.6603M38.3477 20.6399C37.5528 20.4191 37.1351 20.0151 36.3123 20.0745C35.6575 20.1218 35.1697 20.1532 34.7293 20.6399C34.3545 21.0541 34.3885 21.4495 34.277 21.9968C34.0917 22.9055 34.277 23.4441 34.277 24.3714C34.277 25.652 34.277 27.6506 34.277 27.6506M38.3477 20.6399C38.7135 21.2834 38.8474 21.7118 38.913 22.4491C38.9405 22.757 38.913 23.2406 38.913 23.2406M38.3477 20.6399C38.3477 20.1542 38.2346 19.8107 38.3477 19.3961C38.4607 18.9815 38.6869 18.1297 38.6869 18.0392C38.6869 17.9487 39.1392 16.9461 39.3653 16.4561C39.5915 15.9661 40.2536 15.7074 40.9484 15.5515C41.4654 15.4356 41.8033 15.3819 42.3053 15.5515C42.841 15.7326 43.0594 16.0343 43.436 16.4561C43.7215 16.7759 44.058 17.3607 44.058 17.3607M44.6799 26.0675V24.1452V20.6399V18.7176M44.6799 26.0675V28.5552L44.906 31.8344V34.6612M44.6799 26.0675C44.6799 26.0675 45.1948 26.8339 45.6975 27.0852C46.1474 27.31 46.4628 27.3332 46.9652 27.3114C47.5564 27.2857 48.4113 26.8591 48.4113 26.8591M44.058 17.3607C44.058 17.3607 44.6063 17.843 44.6799 18.2653C44.7102 18.4394 44.6799 18.7176 44.6799 18.7176M44.058 17.3607C44.058 17.3607 44.2556 15.9737 44.4537 15.0992C44.6052 14.4307 44.716 14.0618 44.906 13.4031C45.0725 12.826 45.0477 12.4472 45.3583 11.9331C45.5688 11.5847 45.6778 11.3337 46.0368 11.1416C46.504 10.8916 46.8766 11.0255 47.3937 11.1416C48.0298 11.2845 48.3976 11.4772 48.8636 11.9331C49.4854 12.5414 49.7682 13.9685 49.7682 13.9685C49.7682 13.9685 50.3747 15.594 50.5598 16.6823C50.7746 17.9455 50.6728 19.9615 50.6728 19.9615C50.6728 19.9615 50.8136 21.822 50.899 23.0145C50.9907 24.2949 51.1251 26.2937 51.1251 26.2937C51.1251 26.2937 51.1251 27.3963 51.1251 28.1029M51.1251 28.1029C50.7851 28.5548 50.5868 28.8027 50.2205 29.2336C49.7146 29.8289 49.4161 30.1512 48.8636 30.7036C48.3112 31.256 47.8821 31.4508 47.3937 32.0605C47.2137 32.2852 46.9652 32.6603 46.9652 32.6603M51.1251 28.1029C51.5667 27.7055 51.6901 27.2664 52.2559 27.0852C52.6764 26.9505 52.9451 27.0852 53.3867 27.0852C53.8724 27.0852 54.1453 27.0607 54.6305 27.0852C55.3416 27.1211 55.7632 27.0891 56.4397 27.3114C57.0591 27.5148 57.3684 27.7393 57.9097 28.1029C58.4822 28.4875 58.8622 28.6748 59.2666 29.2336C59.7824 29.9464 60.0696 30.5111 59.945 31.3821C59.8886 31.7761 59.8092 32.0011 59.6058 32.3432M45.6975 34.6612C45.9625 35.0587 46.0869 35.2987 46.376 35.6789C46.5847 35.9535 46.7102 36.1014 46.9414 36.3574C47.2344 36.6817 47.3073 37.0491 47.7329 37.1489C48.1959 37.2574 48.455 36.9399 48.8636 36.6966C49.3741 36.3927 49.8757 36.261 49.9944 35.6789C50.0757 35.28 49.7682 34.6612 49.7682 34.6612L49.0898 33.6436C49.0898 33.6436 48.8524 33.262 48.6375 33.0782C48.1259 32.6407 46.9652 32.6603 46.9652 32.6603M58.5881 46.0818C58.5881 46.0818 59.8333 46.8727 60.7365 46.9864C61.7322 47.1117 62.2782 46.7108 63.2661 46.5341M63.2661 46.5341C63.1924 47.2446 63.1335 47.642 62.998 48.3433C62.7989 49.3739 62.624 49.9395 62.3196 50.9441C61.9389 52.2006 61.8133 52.9552 61.1888 54.1102C60.8102 54.8104 60.497 55.1421 60.0581 55.8063C59.3895 56.8179 59.0185 57.3876 58.362 58.407C57.7385 59.3751 57.3296 59.8834 56.7789 60.8947C56.2213 61.9185 55.983 62.5321 55.5351 63.6085L54.2913 67.0007C54.2913 67.0007 53.8245 68.8452 53.7259 70.0537C53.6469 71.022 53.655 71.5725 53.7259 72.5414C53.8207 73.8374 54.0537 74.543 54.2913 75.8206C54.5382 77.1488 56.2329 78.7337 54.9697 79.2128C54.5155 79.3851 54.2116 79.2128 53.7259 79.2128C52.8869 79.2128 52.4165 79.2128 51.5774 79.2128C50.3852 79.2128 49.7167 79.2128 48.5244 79.2128C47.2438 79.2128 46.5258 79.2128 45.2452 79.2128C44.053 79.2128 43.3845 79.2128 42.1922 79.2128C41.1766 79.2128 40.6071 79.2128 39.5915 79.2128C38.3109 79.2128 37.5929 79.2128 36.3123 79.2128C35.3408 79.2128 34.3719 80.0155 33.8247 79.2128C33.4515 78.6656 33.8247 78.1791 33.8247 77.5167C33.8247 76.7218 33.9396 76.2679 33.8247 75.4814C33.6974 74.6107 33.4491 74.159 33.1462 73.3329C32.8328 72.4782 32.5875 72.0266 32.2416 71.1845C31.8802 70.3046 31.6763 69.8116 31.337 68.923C30.8686 67.6964 30.5955 67.0108 30.2062 65.7569C29.8537 64.6214 29.5472 64.0975 29.4147 62.8169C29.2822 61.5363 29.208 60.8184 29.0755 59.5378C28.943 58.2572 29.0125 57.2622 29.0755 55.8063C29.1407 54.3005 29.1635 53.4479 29.4147 51.9617C29.6343 50.6628 29.8446 49.9493 30.2062 48.6826C30.5896 47.3398 30.7993 46.579 31.337 45.2903C31.9302 43.8686 33.1462 41.785 33.1462 41.785C33.1462 41.785 33.8733 39.8682 34.277 38.6189C34.4616 38.0473 34.671 37.7467 34.7293 37.1489C34.803 36.3922 34.4217 35.2266 34.4217 35.2266M37.33 45.6295C37.33 45.6295 37.7094 45.1769 38.0084 44.9511C38.4024 44.6536 38.6489 44.4435 39.1392 44.3857C39.5864 44.333 39.8378 44.4851 40.2699 44.6118C40.632 44.718 40.8149 44.837 41.1745 44.9511C41.7361 45.1293 42.0717 45.1524 42.6445 45.2903C43.1756 45.4181 43.4588 45.5667 44.0014 45.6295C44.4839 45.6854 45.2452 45.6295 45.2452 45.6295M37.33 56.5978C37.33 56.5978 37.5696 55.1472 38.0084 54.3363C38.2943 53.8081 38.5236 53.5497 38.913 53.0925C39.318 52.6171 39.5905 52.3913 40.0438 51.9617C40.475 51.5531 40.7544 51.3641 41.1745 50.9441C41.5946 50.524 41.8883 50.3238 42.1922 49.8133C42.4355 49.4046 42.5429 49.1472 42.6445 48.6826C42.7766 48.0786 42.6445 47.0995 42.6445 47.0995M37.5561 38.845C37.5561 38.845 38.4947 37.6365 39.3653 37.4881C40.2877 37.3309 41.6268 38.2796 41.6268 38.2796C41.6268 38.2796 39.9785 37.9717 39.5915 37.1489C39.3095 36.5495 39.5915 36.1151 39.5915 35.4528C39.5915 34.4371 39.7108 33.8607 39.5915 32.852C39.5229 32.272 39.3159 31.3821 39.3159 31.3821M42.6445 31.3821C42.6445 31.3821 41.1835 32.072 40.2699 31.8344C39.8709 31.7306 39.3159 31.3821 39.3159 31.3821M39.3159 31.3821C39.3159 31.3821 39.0168 30.0809 38.913 29.2336C38.7145 27.6119 38.913 25.0499 38.913 25.0499V23.2406M42.1922 23.4668C42.1922 23.4668 41.3114 23.8103 40.7222 23.806C39.982 23.8007 38.913 23.2406 38.913 23.2406M36.8777 28.1029C36.8777 28.1029 35.9959 28.6769 35.4077 28.5552C34.8539 28.4406 34.277 27.6506 34.277 27.6506M34.277 27.6506V28.1029V31.3821C34.277 31.3821 34.1383 33.1823 34.277 34.322C34.3201 34.6772 34.4217 35.2266 34.4217 35.2266M37.7823 36.6966C37.7823 36.6966 37.2418 36.9156 36.8777 36.9227C36.2627 36.9349 35.9096 36.713 35.4077 36.3574C34.9297 36.0186 34.4217 35.2266 34.4217 35.2266M47.3937 19.0569C47.3937 19.0569 46.9591 19.4922 46.6021 19.6222C46.1457 19.7885 45.7875 19.8498 45.3583 19.6222C44.9682 19.4154 44.6799 18.7176 44.6799 18.7176" stroke="#725050" stroke-width="0.3"/>
</g>
</g>
<defs>
<filter id="filter0_dd_144_82" x="0" y="0" width="91" height="98" filterUnits="userSpaceOnUse" color-interpolation-filters="sRGB">
<feFlood flood-opacity="0" result="BackgroundImageFix"/>
<feColorMatrix in="SourceAlpha" type="matrix" values="0 0 0 0 0 0 0 0 0 0 0 0 0 0 0 0 0 0 127 0" result="hardAlpha"/>
<feOffset dy="4"/>
<feGaussianBlur stdDeviation="2"/>
<feComposite in2="hardAlpha" operator="out"/>
<feColorMatrix type="matrix" values="0 0 0 0 0 0 0 0 0 0 0 0 0 0 0 0 0 0 0.25 0"/>
<feBlend mode="normal" in2="BackgroundImageFix" result="effect1_dropShadow_144_82"/>
<feColorMatrix in="SourceAlpha" type="matrix" values="0 0 0 0 0 0 0 0 0 0 0 0 0 0 0 0 0 0 127 0" result="hardAlpha"/>
<feOffset dy="4"/>
<feGaussianBlur stdDeviation="2"/>
<feComposite in2="hardAlpha" operator="out"/>
<feColorMatrix type="matrix" values="0 0 0 0 0 0 0 0 0 0 0 0 0 0 0 0 0 0 0.25 0"/>
<feBlend mode="normal" in2="effect1_dropShadow_144_82" result="effect2_dropShadow_144_82"/>
<feBlend mode="normal" in="SourceGraphic" in2="effect2_dropShadow_144_82" result="shape"/>
</filter>
<filter id="filter1_d_144_82" x="0" y="0" width="91" height="98" filterUnits="userSpaceOnUse" color-interpolation-filters="sRGB">
<feFlood flood-opacity="0" result="BackgroundImageFix"/>
<feColorMatrix in="SourceAlpha" type="matrix" values="0 0 0 0 0 0 0 0 0 0 0 0 0 0 0 0 0 0 127 0" result="hardAlpha"/>
<feOffset dy="4"/>
<feGaussianBlur stdDeviation="2"/>
<feComposite in2="hardAlpha" operator="out"/>
<feColorMatrix type="matrix" values="0 0 0 0 0 0 0 0 0 0 0 0 0 0 0 0 0 0 0.25 0"/>
<feBlend mode="normal" in2="BackgroundImageFix" result="effect1_dropShadow_144_82"/>
<feBlend mode="normal" in="SourceGraphic" in2="effect1_dropShadow_144_82" result="shape"/>
</filter>
<filter id="filter2_dd_144_82" x="24.8501" y="10.8502" width="42.8127" height="76.8694" filterUnits="userSpaceOnUse" color-interpolation-filters="sRGB">
<feFlood flood-opacity="0" result="BackgroundImageFix"/>
<feColorMatrix in="SourceAlpha" type="matrix" values="0 0 0 0 0 0 0 0 0 0 0 0 0 0 0 0 0 0 127 0" result="hardAlpha"/>
<feOffset dy="4"/>
<feGaussianBlur stdDeviation="2"/>
<feComposite in2="hardAlpha" operator="out"/>
<feColorMatrix type="matrix" values="0 0 0 0 0 0 0 0 0 0 0 0 0 0 0 0 0 0 0.25 0"/>
<feBlend mode="normal" in2="BackgroundImageFix" result="effect1_dropShadow_144_82"/>
<feColorMatrix in="SourceAlpha" type="matrix" values="0 0 0 0 0 0 0 0 0 0 0 0 0 0 0 0 0 0 127 0" result="hardAlpha"/>
<feOffset dy="4"/>
<feGaussianBlur stdDeviation="2"/>
<feComposite in2="hardAlpha" operator="out"/>
<feColorMatrix type="matrix" values="0 0 0 0 0 0 0 0 0 0 0 0 0 0 0 0 0 0 0.25 0"/>
<feBlend mode="normal" in2="effect1_dropShadow_144_82" result="effect2_dropShadow_144_82"/>
<feBlend mode="normal" in="SourceGraphic" in2="effect2_dropShadow_144_82" result="shape"/>
</filter>
</defs>
</svg>
