<svg width="91" height="98" viewBox="0 0 91 98" fill="none" xmlns="http://www.w3.org/2000/svg">
<g filter="url(#filter0_dd_144_78)">
<g filter="url(#filter1_d_144_78)">
<ellipse cx="45.5" cy="45" rx="41.5" ry="45" fill="#D9D9D9"/>
</g>
<g filter="url(#filter2_dd_144_78)">
<g filter="url(#filter3_dd_144_78)">
<mask id="path-2-inside-1_144_78" fill="white">
<path d="M21.8638 52.4219C23.4133 48.949 24.2764 46.9994 25.8013 43.5156C26.4258 42.0887 26.7283 41.2671 27.395 39.8594C27.7232 39.1665 28.211 38.2069 28.4582 37.7245C28.2116 37.2994 28.3125 36.4466 28.3325 35.8281C28.3816 34.3152 28.9888 32.5 28.9888 32.5L36.77 23.7968L38.7341 22.7031C38.7341 22.7031 40.566 22.4995 40.9419 22.2929C40.9419 22.2929 41.5039 21.1444 42.1138 20.6406C42.7328 20.1292 43.2192 20.0261 43.9888 19.7968C45.1165 19.4609 45.813 19.5626 46.9888 19.5156C47.8668 19.4805 49.2388 19.5156 49.2388 19.5156L51.1138 19.7968L53.4575 20.6406L55.52 21.3906C55.52 21.3906 55.8141 21.5904 55.9888 21.736C56.5013 22.1137 56.7556 22.3751 57.3013 22.7031C57.9895 23.1168 58.5244 23.078 59.1763 23.5469C59.1763 23.5469 59.413 23.8766 59.7388 24.2674C60.017 24.6011 60.3602 24.9793 60.6763 25.2344C60.9214 25.4321 61.0659 25.5354 61.3325 25.7031L61.9888 26.1719C61.9888 26.1719 62.3564 26.7127 62.4575 27.1094C62.5751 27.5706 62.6478 27.8919 62.4575 28.3281C62.2606 28.7796 61.9104 28.8716 61.52 29.1719C61.0165 29.5591 60.1676 30.008 60.0018 30.0945C60.0307 30.0869 60.0356 30.127 59.7388 30.4844C59.317 30.9921 58.145 31.0469 58.145 31.0469C57.6739 31.1142 57.4022 31.0469 56.9263 31.0469H55.9888L55.3794 30.7656L54.77 30.4844C54.3923 30.257 54.2279 30.0559 53.9263 29.7344C53.7306 29.5258 53.4575 29.1719 53.4575 29.1719V28.5625L52.0513 29.7344L50.5513 30.1094C49.8976 30.1934 48.8638 30.1094 48.8638 30.1094H48.02L47.5513 31.0469C47.5513 31.0469 47.2229 31.6836 46.9888 32.0781C46.6519 32.6457 46.2642 32.8596 46.0513 33.4844C45.9429 33.8024 45.8825 34.3281 45.8825 34.3281C45.8825 34.3281 45.8044 35.2734 45.5825 35.8281C45.375 36.347 45.0562 36.5347 44.8325 37.0469C44.6192 37.5354 44.6806 37.8752 44.4575 38.3594C44.1511 39.0244 43.4233 39.1328 43.3325 39.8594C43.3098 40.041 43.3325 40.3281 43.3325 40.3281C43.3325 40.3281 43.2642 41.1326 43.3325 41.6406C43.4359 42.4095 43.9888 43.5156 43.9888 43.5156C43.9888 43.5156 44.9138 44.357 45.395 45.4844C45.5299 45.8004 45.5825 46.3441 45.5825 46.3441L46.7075 47.9219L47.0337 48.3908C47.4311 48.379 48.8638 49.0469 48.8638 49.0469H50.5513C51.2019 48.8782 52.0513 48.2031 52.0513 48.2031C52.0513 48.2031 52.845 47.3754 53.4575 46.9844C53.9382 46.6775 54.2323 46.534 54.77 46.3441L55.3794 46.0469L55.9888 45.4844L56.8794 45.0625L57.77 44.6406C57.77 44.6406 58.5616 43.8574 59.1763 43.5156C59.7231 43.2116 60.6763 42.9531 60.6763 42.9531L63.02 42.5781L64.6138 42.9531C64.6138 42.9531 66.2926 43.6752 66.4888 44.6406C66.5544 44.9635 66.5172 45.1561 66.4888 45.4844C66.4888 45.4844 66.3792 46.442 66.1138 46.9844C65.738 47.752 65.2556 48.0137 64.6138 48.5781C63.8434 49.2554 63.1866 49.3565 62.4575 50.0781C62.0511 50.4804 61.52 51.2031 61.52 51.2031C61.1695 51.6638 61.0749 52.0021 60.6763 52.4219C59.8976 53.2419 59.1032 53.2275 58.145 53.8281C57.2759 54.3729 56.863 54.7915 55.9888 55.3281C55.2069 55.8081 54.7934 56.1534 53.9263 56.4531C53.2205 56.697 52.0513 56.8281 52.0513 56.8281C52.0513 56.8281 51.1818 57.531 50.5513 57.8594C50.2315 58.0259 50.0455 58.1085 49.7075 58.2343L35.7388 66.8125L28.6138 77L14.5928 68.4531C14.5928 68.4531 19.0628 58.6998 21.8638 52.4219Z"/>
</mask>
<path d="M21.8638 52.4219C23.4133 48.949 24.2764 46.9994 25.8013 43.5156C26.4258 42.0887 26.7283 41.2671 27.395 39.8594C27.7232 39.1665 28.211 38.2069 28.4582 37.7245C28.2116 37.2994 28.3125 36.4466 28.3325 35.8281C28.3816 34.3152 28.9888 32.5 28.9888 32.5L36.77 23.7968L38.7341 22.7031C38.7341 22.7031 40.566 22.4995 40.9419 22.2929C40.9419 22.2929 41.5039 21.1444 42.1138 20.6406C42.7328 20.1292 43.2192 20.0261 43.9888 19.7968C45.1165 19.4609 45.813 19.5626 46.9888 19.5156C47.8668 19.4805 49.2388 19.5156 49.2388 19.5156L51.1138 19.7968L53.4575 20.6406L55.52 21.3906C55.52 21.3906 55.8141 21.5904 55.9888 21.736C56.5013 22.1137 56.7556 22.3751 57.3013 22.7031C57.9895 23.1168 58.5244 23.078 59.1763 23.5469C59.1763 23.5469 59.413 23.8766 59.7388 24.2674C60.017 24.6011 60.3602 24.9793 60.6763 25.2344C60.9214 25.4321 61.0659 25.5354 61.3325 25.7031L61.9888 26.1719C61.9888 26.1719 62.3564 26.7127 62.4575 27.1094C62.5751 27.5706 62.6478 27.8919 62.4575 28.3281C62.2606 28.7796 61.9104 28.8716 61.52 29.1719C61.0165 29.5591 60.1676 30.008 60.0018 30.0945C60.0307 30.0869 60.0356 30.127 59.7388 30.4844C59.317 30.9921 58.145 31.0469 58.145 31.0469C57.6739 31.1142 57.4022 31.0469 56.9263 31.0469H55.9888L55.3794 30.7656L54.77 30.4844C54.3923 30.257 54.2279 30.0559 53.9263 29.7344C53.7306 29.5258 53.4575 29.1719 53.4575 29.1719V28.5625L52.0513 29.7344L50.5513 30.1094C49.8976 30.1934 48.8638 30.1094 48.8638 30.1094H48.02L47.5513 31.0469C47.5513 31.0469 47.2229 31.6836 46.9888 32.0781C46.6519 32.6457 46.2642 32.8596 46.0513 33.4844C45.9429 33.8024 45.8825 34.3281 45.8825 34.3281C45.8825 34.3281 45.8044 35.2734 45.5825 35.8281C45.375 36.347 45.0562 36.5347 44.8325 37.0469C44.6192 37.5354 44.6806 37.8752 44.4575 38.3594C44.1511 39.0244 43.4233 39.1328 43.3325 39.8594C43.3098 40.041 43.3325 40.3281 43.3325 40.3281C43.3325 40.3281 43.2642 41.1326 43.3325 41.6406C43.4359 42.4095 43.9888 43.5156 43.9888 43.5156C43.9888 43.5156 44.9138 44.357 45.395 45.4844C45.5299 45.8004 45.5825 46.3441 45.5825 46.3441L46.7075 47.9219L47.0337 48.3908C47.4311 48.379 48.8638 49.0469 48.8638 49.0469H50.5513C51.2019 48.8782 52.0513 48.2031 52.0513 48.2031C52.0513 48.2031 52.845 47.3754 53.4575 46.9844C53.9382 46.6775 54.2323 46.534 54.77 46.3441L55.3794 46.0469L55.9888 45.4844L56.8794 45.0625L57.77 44.6406C57.77 44.6406 58.5616 43.8574 59.1763 43.5156C59.7231 43.2116 60.6763 42.9531 60.6763 42.9531L63.02 42.5781L64.6138 42.9531C64.6138 42.9531 66.2926 43.6752 66.4888 44.6406C66.5544 44.9635 66.5172 45.1561 66.4888 45.4844C66.4888 45.4844 66.3792 46.442 66.1138 46.9844C65.738 47.752 65.2556 48.0137 64.6138 48.5781C63.8434 49.2554 63.1866 49.3565 62.4575 50.0781C62.0511 50.4804 61.52 51.2031 61.52 51.2031C61.1695 51.6638 61.0749 52.0021 60.6763 52.4219C59.8976 53.2419 59.1032 53.2275 58.145 53.8281C57.2759 54.3729 56.863 54.7915 55.9888 55.3281C55.2069 55.8081 54.7934 56.1534 53.9263 56.4531C53.2205 56.697 52.0513 56.8281 52.0513 56.8281C52.0513 56.8281 51.1818 57.531 50.5513 57.8594C50.2315 58.0259 50.0455 58.1085 49.7075 58.2343L35.7388 66.8125L28.6138 77L14.5928 68.4531C14.5928 68.4531 19.0628 58.6998 21.8638 52.4219Z" fill="#ECCCC0"/>
<path d="M28.4582 37.7245L28.3747 37.6818L28.3514 37.7273L28.3771 37.7715L28.4582 37.7245ZM53.4575 27.9531H53.5513V27.9323L53.5425 27.9134L53.4575 27.9531ZM52.9888 27.1094L53.0652 27.0551L53.0652 27.055L52.9888 27.1094ZM48.4888 25.6094L48.463 25.6995L48.4855 25.7059L48.5083 25.701L48.4888 25.6094ZM47.1763 25.2344L47.202 25.1442L47.1914 25.1412L47.1803 25.1407L47.1763 25.2344ZM45.5825 25.2344L45.5889 25.3279L45.5889 25.3279L45.5825 25.2344ZM43.3325 25.6094L43.3271 25.5158L43.3271 25.5158L43.3325 25.6094ZM42.1138 25.6094L42.1296 25.7018L42.1296 25.7018L42.1138 25.6094ZM40.7075 26.1719L40.739 26.2602L40.739 26.2602L40.7075 26.1719ZM39.2075 26.6406L39.2466 26.7258L39.2466 26.7258L39.2075 26.6406ZM38.3638 27.1094L38.31 27.0319L38.3021 27.0388L38.3638 27.1094ZM28.9888 37.9844L28.997 38.0777L29.0392 38.074L29.0643 38.0399L28.9888 37.9844ZM60.2075 29.7344L60.287 29.784L60.312 29.744L60.2948 29.7001L60.2075 29.7344ZM59.9731 30.1094L59.8936 30.0597L59.7133 30.3482L60.016 30.1927L59.9731 30.1094ZM60.0018 30.0945L60.0451 30.1776L59.9779 30.0038L60.0018 30.0945ZM37.145 50.0781L37.2387 50.0821L37.2387 50.0821L37.145 50.0781ZM49.2388 56.8281L49.1453 56.8205L49.1431 56.8486L49.1566 56.8733L49.2388 56.8281ZM48.8638 54.2031L48.7718 54.2225L48.7737 54.229L48.8638 54.2031ZM48.4888 52.4219L48.3956 52.4116L48.3939 52.4265L48.397 52.4412L48.4888 52.4219ZM47.9263 49.4219L47.8565 49.4844L47.8565 49.4844L47.9263 49.4219ZM46.9888 48.5781L46.9128 48.6331L46.9128 48.6331L46.9888 48.5781ZM47.0337 48.3908L47.1107 48.3373L47.0817 48.2956L47.031 48.2971L47.0337 48.3908ZM47.1763 30.1094V30.0156H47.1684L47.1607 30.0169L47.1763 30.1094ZM38.3638 43.5156L38.2707 43.527L38.2867 43.658L38.4051 43.5997L38.3638 43.5156ZM41.4575 42.2969L41.5158 42.3703L41.5158 42.3703L41.4575 42.2969ZM42.7232 40.8906L42.6596 40.8217L42.6527 40.828L42.6473 40.8355L42.7232 40.8906ZM46.7075 21.736L46.7255 21.644L46.7121 21.6414L46.6985 21.6427L46.7075 21.736ZM49.2388 25.4956L49.2488 25.5888L49.2488 25.5888L49.2388 25.4956ZM52.7075 26.737L52.7803 26.6778L52.7803 26.6778L52.7075 26.737ZM51.1138 25.6094L51.0814 25.6973L51.0814 25.6973L51.1138 25.6094ZM57.77 25.5156L57.8403 25.4536L57.8395 25.4527L57.77 25.5156ZM59.1763 27.1094L59.2635 27.0751L59.2575 27.0597L59.2466 27.0473L59.1763 27.1094ZM57.5627 28.3281L57.5778 28.4206L57.5778 28.4206L57.5627 28.3281ZM55.989 24.3906L56.0277 24.3052L56.0277 24.3052L55.989 24.3906ZM60.2075 26.737L60.1733 26.8243L60.1733 26.8243L60.2075 26.737ZM34.501 30.4844L34.4393 30.4138L34.4315 30.4205L34.4254 30.4288L34.501 30.4844ZM51.501 27.9531L51.4754 27.8629L51.4754 27.8629L51.501 27.9531ZM49.4742 25.4737L49.4669 25.3803L49.4669 25.3803L49.4742 25.4737ZM28.5416 37.7673C28.5895 37.6737 28.6284 37.5981 28.6553 37.5459C28.6687 37.5198 28.6792 37.4995 28.6863 37.4858C28.6898 37.4789 28.6925 37.4737 28.6943 37.4702C28.6952 37.4685 28.6959 37.4671 28.6964 37.4662C28.6966 37.4658 28.6968 37.4655 28.6969 37.4652C28.6969 37.4651 28.697 37.4651 28.697 37.465C28.697 37.465 28.697 37.465 28.697 37.4649C28.697 37.4649 28.697 37.4649 28.697 37.4649C28.697 37.4649 28.697 37.4649 28.697 37.4649C28.697 37.4649 28.697 37.4649 28.6138 37.4219C28.5305 37.3788 28.5305 37.3788 28.5305 37.3788C28.5305 37.3788 28.5305 37.3788 28.5305 37.3788C28.5305 37.3788 28.5305 37.3788 28.5305 37.3788C28.5305 37.3788 28.5305 37.3788 28.5305 37.3789C28.5304 37.3789 28.5304 37.379 28.5303 37.3791C28.5302 37.3794 28.53 37.3797 28.5298 37.3801C28.5293 37.381 28.5286 37.3824 28.5277 37.3841C28.5259 37.3877 28.5232 37.3929 28.5196 37.3998C28.5125 37.4136 28.5021 37.4339 28.4886 37.46C28.4617 37.5123 28.4227 37.5881 28.3747 37.6818L28.5416 37.7673ZM53.4575 27.9531C53.5425 27.9134 53.5425 27.9134 53.5425 27.9134C53.5425 27.9134 53.5425 27.9134 53.5425 27.9134C53.5424 27.9134 53.5424 27.9133 53.5424 27.9133C53.5424 27.9132 53.5423 27.9131 53.5423 27.913C53.5421 27.9127 53.5419 27.9123 53.5417 27.9117C53.5412 27.9107 53.5404 27.9091 53.5395 27.907C53.5375 27.9029 53.5347 27.8969 53.531 27.8891C53.5236 27.8736 53.5128 27.8512 53.4992 27.8234C53.4721 27.7677 53.4336 27.6903 53.3882 27.6031C53.2979 27.4299 53.1783 27.2142 53.0652 27.0551L52.9124 27.1637C53.0176 27.3118 53.1323 27.5179 53.2219 27.6898C53.2664 27.7752 53.3041 27.8511 53.3307 27.9056C53.344 27.9328 53.3545 27.9547 53.3617 27.9698C53.3653 27.9773 53.368 27.9831 53.3699 27.987C53.3708 27.9889 53.3715 27.9904 53.3719 27.9914C53.3721 27.9918 53.3723 27.9922 53.3724 27.9924C53.3725 27.9926 53.3725 27.9926 53.3725 27.9927C53.3726 27.9927 53.3726 27.9927 53.3726 27.9927C53.3726 27.9928 53.3726 27.9928 53.3726 27.9928C53.3726 27.9928 53.3726 27.9928 53.4575 27.9531ZM48.5145 25.5192L47.202 25.1442L47.1505 25.3245L48.463 25.6995L48.5145 25.5192ZM47.1763 25.2344C47.1803 25.1407 47.1803 25.1407 47.1803 25.1407C47.1803 25.1407 47.1803 25.1407 47.1803 25.1407C47.1802 25.1407 47.1802 25.1407 47.1801 25.1407C47.18 25.1407 47.1798 25.1407 47.1796 25.1407C47.1791 25.1406 47.1784 25.1406 47.1774 25.1406C47.1755 25.1405 47.1727 25.1404 47.169 25.1402C47.1617 25.1399 47.1509 25.1395 47.1369 25.1389C47.1089 25.1379 47.0683 25.1364 47.0176 25.1347C46.9164 25.1314 46.7748 25.1274 46.6138 25.1248C46.2925 25.1195 45.8908 25.1194 45.5762 25.1408L45.5889 25.3279C45.8952 25.3071 46.2904 25.307 46.6107 25.3123C46.7705 25.3149 46.911 25.3188 47.0115 25.3221C47.0618 25.3238 47.102 25.3252 47.1296 25.3263C47.1435 25.3268 47.1541 25.3273 47.1613 25.3276C47.1649 25.3277 47.1677 25.3278 47.1695 25.3279C47.1704 25.3279 47.1711 25.328 47.1716 25.328C47.1718 25.328 47.1719 25.328 47.1721 25.328C47.1721 25.328 47.1722 25.328 47.1722 25.328C47.1722 25.328 47.1722 25.328 47.1722 25.328C47.1722 25.328 47.1722 25.328 47.1763 25.2344ZM45.5762 25.1408C45.1233 25.1716 44.7764 25.2543 44.4363 25.3341C44.0965 25.4138 43.763 25.4907 43.3271 25.5158L43.3379 25.7029C43.7914 25.6769 44.1385 25.5965 44.4792 25.5166C44.8195 25.4368 45.153 25.3575 45.5889 25.3279L45.5762 25.1408ZM43.3271 25.5158C43.0972 25.529 42.9173 25.5097 42.7276 25.496C42.538 25.4823 42.3435 25.475 42.098 25.5169L42.1296 25.7018C42.3532 25.6635 42.5304 25.6698 42.7142 25.683C42.8978 25.6962 43.0927 25.7171 43.3379 25.7029L43.3271 25.5158ZM42.098 25.5169C41.7939 25.569 41.5724 25.6642 41.3594 25.7695C41.1458 25.8751 40.9478 25.9867 40.676 26.0835L40.739 26.2602C41.0244 26.1584 41.238 26.0387 41.4425 25.9376C41.6476 25.8362 41.8507 25.7495 42.1296 25.7018L42.098 25.5169ZM40.676 26.0835C40.3922 26.1847 40.1621 26.2368 39.9268 26.2968C39.6916 26.3569 39.4549 26.4242 39.1685 26.5554L39.2466 26.7258C39.5181 26.6015 39.7424 26.5374 39.9732 26.4785C40.2038 26.4196 40.4448 26.365 40.739 26.2602L40.676 26.0835ZM39.1685 26.5554C38.823 26.7136 38.6262 26.8131 38.3103 27.0323L38.4172 27.1864C38.7207 26.9758 38.9066 26.8815 39.2466 26.7258L39.1685 26.5554ZM28.9805 37.891C28.8647 37.9012 28.7766 37.8829 28.7082 37.8472C28.6398 37.8116 28.5842 37.755 28.5393 37.6775L28.3771 37.7715C28.4362 37.8735 28.5158 37.9584 28.6216 38.0135C28.7274 38.0686 28.8525 38.0905 28.997 38.0777L28.9805 37.891ZM60.128 29.6847L59.8936 30.0597L60.0526 30.159L60.287 29.784L60.128 29.6847ZM59.9731 30.1094C60.0273 30.1859 60.0273 30.1859 60.0273 30.1859C60.0273 30.1859 60.0273 30.1859 60.0273 30.1859C60.0273 30.1859 60.0273 30.1859 60.0273 30.1859C60.0273 30.1859 60.0272 30.1859 60.0272 30.1859C60.0272 30.186 60.0271 30.186 60.0271 30.186C60.0271 30.1861 60.027 30.1861 60.027 30.1861C60.0269 30.1862 60.0269 30.1862 60.0269 30.1862C60.027 30.1861 60.0272 30.186 60.0275 30.1858C60.0282 30.1853 60.0293 30.1846 60.0304 30.184C60.0348 30.1814 60.0327 30.1833 60.0256 30.1852L59.9779 30.0038C59.9587 30.0089 59.9422 30.0183 59.9354 30.0223C59.9309 30.025 59.927 30.0274 59.9243 30.0292C59.9229 30.0301 59.9217 30.0309 59.9208 30.0315C59.9204 30.0318 59.92 30.0321 59.9197 30.0323C59.9195 30.0324 59.9194 30.0325 59.9193 30.0326C59.9192 30.0327 59.9192 30.0327 59.9191 30.0327C59.9191 30.0328 59.9191 30.0328 59.919 30.0328C59.919 30.0328 59.919 30.0328 59.919 30.0328C59.919 30.0328 59.919 30.0328 59.919 30.0328C59.919 30.0328 59.919 30.0328 59.9731 30.1094ZM59.9584 30.0114C59.9492 30.0162 59.9421 30.0198 59.9374 30.0223C59.935 30.0235 59.9332 30.0245 59.932 30.0251C59.9315 30.0254 59.931 30.0256 59.9307 30.0257C59.9306 30.0258 59.9305 30.0259 59.9304 30.0259C59.9304 30.0259 59.9303 30.0259 59.9303 30.026C59.9303 30.026 59.9303 30.026 59.9303 30.026C59.9303 30.026 59.9303 30.026 59.9303 30.026C59.9303 30.026 59.9303 30.026 59.9303 30.026C59.9303 30.026 59.9303 30.026 59.9303 30.026C59.9303 30.026 59.9303 30.026 59.9731 30.1094C60.016 30.1927 60.016 30.1927 60.016 30.1927C60.016 30.1927 60.016 30.1927 60.016 30.1927C60.016 30.1927 60.016 30.1927 60.016 30.1927C60.016 30.1927 60.016 30.1927 60.016 30.1927C60.016 30.1927 60.016 30.1927 60.016 30.1927C60.0161 30.1927 60.0161 30.1927 60.0161 30.1927C60.0162 30.1926 60.0163 30.1926 60.0165 30.1925C60.0168 30.1923 60.0173 30.1921 60.018 30.1917C60.0192 30.1911 60.0211 30.1901 60.0236 30.1888C60.0285 30.1863 60.0357 30.1825 60.0451 30.1776L59.9584 30.0114ZM55.4392 30.6934L53.5174 29.0997L53.3977 29.244L55.3196 30.8378L55.4392 30.6934ZM53.5513 28.5625V27.9531H53.3638V28.5625H53.5513ZM37.0513 48.2031C37.0513 48.9419 37.0823 49.3447 37.0514 50.0741L37.2387 50.0821C37.2698 49.3484 37.2388 48.9288 37.2388 48.2031H37.0513ZM49.3322 56.8357C49.3752 56.306 49.2791 55.639 49.1746 55.1104C49.1221 54.8448 49.067 54.6118 49.025 54.4452C49.004 54.3619 48.9863 54.2951 48.9738 54.249C48.9675 54.226 48.9626 54.2081 48.9592 54.196C48.9575 54.1899 48.9562 54.1852 48.9553 54.1821C48.9548 54.1805 48.9545 54.1793 48.9542 54.1785C48.9541 54.1781 48.954 54.1777 48.954 54.1775C48.9539 54.1774 48.9539 54.1773 48.9539 54.1773C48.9539 54.1772 48.9539 54.1772 48.9539 54.1772C48.9539 54.1772 48.9539 54.1772 48.8638 54.2031C48.7737 54.229 48.7737 54.229 48.7737 54.229C48.7737 54.2291 48.7737 54.2291 48.7737 54.2291C48.7737 54.2291 48.7737 54.2292 48.7737 54.2293C48.7738 54.2294 48.7739 54.2297 48.774 54.23C48.7742 54.2308 48.7745 54.2319 48.7749 54.2333C48.7757 54.2363 48.777 54.2407 48.7786 54.2465C48.7819 54.2582 48.7867 54.2756 48.7928 54.2981C48.8051 54.3432 48.8225 54.4089 48.8432 54.491C48.8846 54.6553 48.939 54.885 48.9907 55.1467C49.0946 55.6725 49.1861 56.3181 49.1453 56.8205L49.3322 56.8357ZM48.9555 54.1838L48.5805 52.4025L48.397 52.4412L48.772 54.2224L48.9555 54.1838ZM48.4888 52.4219C48.582 52.4321 48.582 52.4321 48.582 52.4321C48.582 52.432 48.582 52.432 48.582 52.432C48.582 52.4319 48.582 52.4317 48.582 52.4316C48.5821 52.4313 48.5821 52.4308 48.5822 52.4303C48.5823 52.4292 48.5824 52.4275 48.5827 52.4254C48.5831 52.4212 48.5837 52.415 48.5845 52.4069C48.5861 52.3908 48.5882 52.3672 48.5907 52.3369C48.5956 52.2764 48.6016 52.1893 48.6064 52.0821C48.6159 51.8678 48.6202 51.5725 48.5994 51.2487C48.5785 50.9253 48.5324 50.5711 48.44 50.2399C48.3479 49.9096 48.2082 49.596 47.9961 49.3593L47.8565 49.4844C48.0421 49.6916 48.1715 49.975 48.2594 50.2903C48.3471 50.6049 48.3919 50.9452 48.4123 51.2608C48.4326 51.576 48.4284 51.8643 48.4191 52.0738C48.4144 52.1785 48.4085 52.2633 48.4038 52.3218C48.4014 52.351 48.3993 52.3737 48.3979 52.3889C48.3971 52.3965 48.3966 52.4023 48.3962 52.4061C48.396 52.408 48.3958 52.4094 48.3957 52.4103C48.3957 52.4108 48.3956 52.4111 48.3956 52.4113C48.3956 52.4114 48.3956 52.4115 48.3956 52.4116C48.3956 52.4116 48.3956 52.4116 48.3956 52.4116C48.3956 52.4116 48.3956 52.4116 48.4888 52.4219ZM47.0647 48.5231C47.0438 48.4942 47.0332 48.4741 47.0287 48.4617C47.0238 48.4486 47.0286 48.4525 47.0246 48.465C47.0225 48.4717 47.0187 48.4779 47.0142 48.4825C47.0099 48.4869 47.0065 48.4884 47.0063 48.4885C47.0062 48.4886 47.0084 48.4876 47.0138 48.4866C47.0192 48.4856 47.0267 48.4848 47.0365 48.4845L47.031 48.2971C46.998 48.2981 46.9619 48.3029 46.9294 48.3175C46.8945 48.3332 46.8606 48.3621 46.8459 48.4082C46.8324 48.4509 46.8403 48.4929 46.8528 48.5266C46.8655 48.5611 46.8865 48.5967 46.9128 48.6331L47.0647 48.5231ZM49.7999 58.2504C49.8218 58.1242 49.7971 57.9673 49.7558 57.8128C49.7137 57.6554 49.651 57.4884 49.587 57.3368C49.5228 57.185 49.4564 57.0467 49.4061 56.9466C49.3809 56.8964 49.3597 56.8557 49.3448 56.8274C49.3373 56.8133 49.3314 56.8023 49.3273 56.7947C49.3253 56.791 49.3237 56.7881 49.3226 56.7861C49.3221 56.7851 49.3217 56.7843 49.3214 56.7838C49.3212 56.7835 49.3211 56.7833 49.3211 56.7832C49.321 56.7831 49.321 56.783 49.321 56.783C49.3209 56.783 49.3209 56.783 49.3209 56.7829C49.3209 56.7829 49.3209 56.7829 49.2388 56.8281C49.1566 56.8733 49.1566 56.8733 49.1566 56.8733C49.1566 56.8733 49.1566 56.8733 49.1566 56.8733C49.1566 56.8733 49.1567 56.8733 49.1567 56.8734C49.1567 56.8735 49.1568 56.8736 49.1569 56.8739C49.1572 56.8743 49.1575 56.8749 49.158 56.8758C49.159 56.8776 49.1604 56.8803 49.1623 56.8838C49.1662 56.8909 49.1718 56.9015 49.179 56.9151C49.1934 56.9423 49.214 56.9819 49.2385 57.0307C49.2876 57.1284 49.3521 57.2628 49.4143 57.4098C49.4766 57.5572 49.5357 57.7154 49.5746 57.8612C49.6143 58.0098 49.6298 58.1339 49.6152 58.2183L49.7999 58.2504ZM48.02 30.0156H47.1763V30.2031H48.02V30.0156ZM47.9961 49.3593C47.9095 49.2627 47.7884 49.1539 47.6912 49.0708C47.6421 49.0289 47.5983 48.9929 47.5667 48.9673C47.5509 48.9545 47.5381 48.9443 47.5293 48.9372C47.5249 48.9337 47.5214 48.931 47.5191 48.9291C47.5179 48.9282 47.517 48.9275 47.5163 48.927C47.516 48.9267 47.5158 48.9265 47.5156 48.9264C47.5155 48.9263 47.5155 48.9263 47.5154 48.9262C47.5154 48.9262 47.5154 48.9262 47.5154 48.9262C47.5154 48.9262 47.5154 48.9262 47.5153 48.9262C47.5153 48.9262 47.5153 48.9262 47.4575 49C47.3997 49.0738 47.3997 49.0738 47.3997 49.0738C47.3997 49.0738 47.3997 49.0738 47.3997 49.0738C47.3997 49.0738 47.3997 49.0738 47.3997 49.0738C47.3998 49.0738 47.3998 49.0739 47.3999 49.0739C47.4 49.074 47.4002 49.0742 47.4005 49.0744C47.401 49.0748 47.4018 49.0754 47.4029 49.0763C47.4051 49.078 47.4083 49.0806 47.4126 49.0839C47.421 49.0907 47.4333 49.1005 47.4486 49.1129C47.4792 49.1378 47.5218 49.1728 47.5694 49.2134C47.6654 49.2955 47.7787 49.3976 47.8565 49.4844L47.9961 49.3593ZM47.4575 49C47.5105 48.9226 47.5105 48.9227 47.5105 48.9227C47.5105 48.9227 47.5105 48.9227 47.5105 48.9227C47.5105 48.9227 47.5105 48.9227 47.5105 48.9227C47.5105 48.9226 47.5105 48.9226 47.5104 48.9226C47.5103 48.9225 47.5101 48.9224 47.5099 48.9222C47.5093 48.9218 47.5085 48.9212 47.5074 48.9205C47.5052 48.9189 47.5018 48.9166 47.4974 48.9135C47.4887 48.9073 47.4759 48.8982 47.46 48.8865C47.4283 48.8632 47.3845 48.8302 47.3364 48.7911C47.2383 48.7114 47.1293 48.6124 47.0647 48.5231L46.9128 48.6331C46.9926 48.7434 47.118 48.8552 47.2182 48.9366C47.2692 48.9781 47.3155 49.0131 47.3491 49.0377C47.366 49.05 47.3796 49.0598 47.3892 49.0666C47.394 49.07 47.3977 49.0726 47.4003 49.0744C47.4016 49.0753 47.4026 49.076 47.4033 49.0765C47.4037 49.0767 47.404 49.0769 47.4042 49.0771C47.4043 49.0771 47.4043 49.0772 47.4044 49.0772C47.4044 49.0772 47.4045 49.0773 47.4045 49.0773C47.4045 49.0773 47.4045 49.0773 47.4045 49.0773C47.4045 49.0773 47.4045 49.0773 47.4575 49ZM46.9568 48.4443L47.3806 49.0535L47.5345 48.9464L47.1107 48.3373L46.9568 48.4443ZM38.4051 43.5997C38.5792 43.5141 38.7932 43.4455 39.037 43.3778C39.275 43.3117 39.5536 43.2435 39.8287 43.1647C40.3874 43.0048 40.9928 42.7857 41.5158 42.3703L41.3992 42.2234C40.9054 42.6156 40.3287 42.8266 39.7771 42.9845C39.497 43.0646 39.2385 43.1272 38.9869 43.1971C38.7411 43.2653 38.5131 43.3377 38.3224 43.4315L38.4051 43.5997ZM41.5158 42.3703C41.8131 42.1341 42.1346 41.7763 42.3794 41.4813C42.5024 41.3331 42.6072 41.1994 42.6812 41.1027C42.7182 41.0543 42.7476 41.0152 42.7677 40.9881C42.7778 40.9746 42.7856 40.964 42.7909 40.9568C42.7935 40.9532 42.7955 40.9505 42.7969 40.9486C42.7976 40.9477 42.7981 40.9469 42.7985 40.9465C42.7986 40.9462 42.7988 40.946 42.7989 40.9459C42.7989 40.9458 42.7989 40.9458 42.799 40.9457C42.799 40.9457 42.799 40.9457 42.799 40.9457C42.799 40.9457 42.799 40.9457 42.7232 40.8906C42.6473 40.8355 42.6473 40.8355 42.6473 40.8355C42.6473 40.8355 42.6473 40.8355 42.6473 40.8356C42.6473 40.8356 42.6472 40.8356 42.6472 40.8357C42.6471 40.8358 42.647 40.8359 42.6469 40.8361C42.6465 40.8365 42.6461 40.8372 42.6454 40.8381C42.6442 40.8398 42.6423 40.8424 42.6397 40.8459C42.6347 40.8528 42.6271 40.863 42.6173 40.8762C42.5976 40.9027 42.5688 40.9411 42.5323 40.9887C42.4594 41.0839 42.3562 41.2156 42.2352 41.3615C41.9918 41.6548 41.6805 42 41.3992 42.2234L41.5158 42.3703ZM42.7867 40.9595L43.3961 40.397L43.2689 40.2592L42.6596 40.8217L42.7867 40.9595ZM40.9509 22.3863L46.7165 21.8293L46.6985 21.6427L40.9329 22.1996L40.9509 22.3863ZM49.2288 25.4024C49.009 25.426 48.8195 25.4547 48.6849 25.4775C48.6176 25.489 48.5639 25.4989 48.527 25.5061C48.5085 25.5097 48.4942 25.5125 48.4845 25.5145C48.4796 25.5155 48.4758 25.5163 48.4733 25.5168C48.472 25.5171 48.471 25.5173 48.4704 25.5174C48.47 25.5175 48.4698 25.5175 48.4696 25.5176C48.4695 25.5176 48.4694 25.5176 48.4693 25.5176C48.4693 25.5176 48.4693 25.5176 48.4693 25.5177C48.4693 25.5177 48.4693 25.5177 48.4693 25.5177C48.4692 25.5177 48.4692 25.5177 48.4888 25.6094C48.5083 25.701 48.5083 25.701 48.5083 25.701C48.5083 25.701 48.5083 25.701 48.5083 25.701C48.5083 25.701 48.5083 25.701 48.5083 25.701C48.5083 25.701 48.5084 25.701 48.5084 25.701C48.5086 25.701 48.5088 25.7009 48.509 25.7009C48.5096 25.7008 48.5104 25.7006 48.5115 25.7004C48.5138 25.6999 48.5173 25.6992 48.5219 25.6982C48.531 25.6964 48.5447 25.6936 48.5626 25.6902C48.5983 25.6833 48.6505 25.6736 48.7163 25.6624C48.848 25.64 49.0335 25.6119 49.2488 25.5888L49.2288 25.4024ZM53.0652 27.055C52.9687 26.9193 52.8747 26.7939 52.7803 26.6778L52.6348 26.7961C52.726 26.9083 52.8176 27.0303 52.9124 27.1637L53.0652 27.055ZM52.7803 26.6778C52.3355 26.1307 51.8871 25.7944 51.1462 25.5214L51.0814 25.6973C51.7904 25.9585 52.211 26.2748 52.6348 26.7961L52.7803 26.6778ZM33.395 61.5C33.4779 61.5437 33.478 61.5437 33.478 61.5436C33.478 61.5436 33.4781 61.5435 33.4781 61.5434C33.4782 61.5432 33.4784 61.5429 33.4786 61.5424C33.4791 61.5416 33.4797 61.5403 33.4806 61.5387C33.4823 61.5354 33.4849 61.5304 33.4883 61.5239C33.4951 61.5109 33.5052 61.4916 33.5182 61.4663C33.5444 61.4156 33.5828 61.3407 33.6317 61.2438C33.7295 61.0501 33.8693 60.7682 34.0376 60.4153C34.3743 59.7096 34.8252 58.7198 35.2825 57.583C36.1958 55.3123 37.1386 52.4443 37.2387 50.0821L37.0514 50.0741C36.9527 52.4025 36.0205 55.2454 35.1085 57.513C34.6531 58.6454 34.2038 59.6315 33.8684 60.3346C33.7007 60.6861 33.5615 60.9667 33.4643 61.1594C33.4157 61.2557 33.3776 61.33 33.3517 61.3802C33.3387 61.4053 33.3288 61.4244 33.3221 61.4372C33.3188 61.4435 33.3163 61.4483 33.3146 61.4515C33.3138 61.4531 33.3131 61.4543 33.3127 61.4551C33.3125 61.4555 33.3123 61.4558 33.3122 61.456C33.3122 61.4561 33.3122 61.4562 33.3121 61.4562C33.3121 61.4562 33.3121 61.4563 33.395 61.5ZM37.2388 48.2031V46.0469H37.0513V48.2031H37.2388ZM38.5492 52.5804C38.8107 52.4235 38.9775 52.2149 39.1107 52.005C39.1767 51.9009 39.2357 51.7942 39.2925 51.695C39.3499 51.5946 39.4056 51.5007 39.4676 51.4156C39.59 51.2476 39.7349 51.1168 39.9583 51.0507C40.1852 50.9836 40.5041 50.9799 40.9796 51.0913L41.0224 50.9087C40.5308 50.7936 40.1757 50.7908 39.9051 50.8709C39.6309 50.9521 39.4548 51.1148 39.316 51.3052C39.2475 51.3993 39.1875 51.5009 39.1297 51.6019C39.0712 51.7042 39.0154 51.8052 38.9523 51.9046C38.8274 52.1016 38.6794 52.2836 38.4527 52.4196L38.5492 52.5804ZM59.5503 48.1094C59.282 48.1122 58.9717 48.0032 58.6561 47.81C58.3418 47.6177 58.0296 47.3462 57.7595 47.0356C57.4893 46.725 57.2636 46.3779 57.1201 46.0359C56.9761 45.6928 56.9177 45.362 56.9715 45.08L56.7873 45.0449C56.7242 45.3759 56.795 45.7458 56.9472 46.1084C57.0998 46.4721 57.3373 46.8359 57.618 47.1587C57.8988 47.4815 58.2253 47.7662 58.5582 47.9699C58.8898 48.1729 59.2353 48.3002 59.5523 48.2968L59.5503 48.1094ZM57.6997 25.5776L59.106 27.1714L59.2466 27.0473L57.8403 25.4536L57.6997 25.5776ZM59.089 27.1436L60.1203 29.7686L60.2948 29.7001L59.2635 27.0751L59.089 27.1436ZM59.1763 27.1094C59.1018 27.0524 59.1018 27.0524 59.1018 27.0524C59.1018 27.0524 59.1018 27.0524 59.1018 27.0524C59.1018 27.0524 59.1018 27.0524 59.1017 27.0525C59.1017 27.0526 59.1015 27.0527 59.1014 27.053C59.101 27.0534 59.1005 27.0541 59.0997 27.0551C59.0983 27.057 59.096 27.0599 59.093 27.0637C59.0869 27.0714 59.0779 27.0828 59.066 27.0975C59.0423 27.1269 59.0073 27.1692 58.9629 27.2204C58.874 27.323 58.7475 27.461 58.5974 27.6026C58.2927 27.8901 57.9071 28.1766 57.5475 28.2356L57.5778 28.4206C57.9976 28.3518 58.4188 28.0289 58.726 27.739C58.8819 27.5919 59.0127 27.4492 59.1046 27.3432C59.1505 27.2902 59.1869 27.2463 59.2118 27.2154C59.2243 27.2 59.2339 27.1879 59.2404 27.1795C59.2437 27.1754 59.2462 27.1721 59.248 27.1699C59.2488 27.1688 59.2495 27.1679 59.25 27.1673C59.2502 27.167 59.2504 27.1668 59.2505 27.1666C59.2506 27.1665 59.2506 27.1665 59.2507 27.1664C59.2507 27.1664 59.2507 27.1664 59.2507 27.1663C59.2507 27.1663 59.2507 27.1663 59.1763 27.1094ZM46.7075 21.736C46.6896 21.828 46.6896 21.828 46.6896 21.828C46.6897 21.828 46.6897 21.828 46.6898 21.8281C46.69 21.8281 46.6903 21.8281 46.6906 21.8282C46.6913 21.8284 46.6924 21.8286 46.6938 21.8288C46.6967 21.8294 46.701 21.8303 46.7067 21.8314C46.7181 21.8336 46.7351 21.837 46.7574 21.8414C46.802 21.8504 46.868 21.8636 46.9531 21.8811C47.1234 21.9159 47.3704 21.9674 47.6771 22.0339C48.2906 22.1667 49.1426 22.3593 50.0968 22.5981C52.007 23.0762 54.3203 23.7382 55.9504 24.476L56.0277 24.3052C54.3811 23.56 52.0537 22.8947 50.1423 22.4162C49.1857 22.1768 48.3317 21.9838 47.7168 21.8506C47.4094 21.784 47.1617 21.7324 46.9908 21.6974C46.9053 21.6799 46.839 21.6666 46.7941 21.6576C46.7717 21.6531 46.7545 21.6497 46.743 21.6474C46.7372 21.6463 46.7329 21.6454 46.7299 21.6449C46.7285 21.6446 46.7274 21.6443 46.7266 21.6442C46.7262 21.6441 46.726 21.6441 46.7258 21.644C46.7257 21.644 46.7256 21.644 46.7256 21.644C46.7255 21.644 46.7255 21.644 46.7075 21.736ZM55.9504 24.476C56.7456 24.836 57.3658 25.2086 57.7005 25.5785L57.8395 25.4527C57.4772 25.0523 56.8263 24.6667 56.0277 24.3052L55.9504 24.476ZM57.5475 28.2356C57.3643 28.2656 57.2085 28.233 57.0728 28.1547C56.9353 28.0753 56.8136 27.946 56.7068 27.776C56.4922 27.4347 56.3491 26.9481 56.2552 26.4427C56.1617 25.9394 56.1185 25.4265 56.0987 25.0387C56.0889 24.8451 56.0849 24.683 56.0834 24.5695C56.0826 24.5128 56.0825 24.4682 56.0825 24.4379C56.0825 24.4227 56.0826 24.4112 56.0826 24.4034C56.0827 24.3995 56.0827 24.3966 56.0827 24.3947C56.0827 24.3937 56.0828 24.393 56.0828 24.3926C56.0828 24.3923 56.0828 24.3922 56.0828 24.3921C56.0828 24.392 56.0828 24.392 56.0828 24.392C56.0828 24.3919 56.0828 24.3919 55.989 24.3906C55.8953 24.3893 55.8953 24.3893 55.8953 24.3893C55.8953 24.3894 55.8953 24.3894 55.8953 24.3895C55.8953 24.3897 55.8953 24.3899 55.8953 24.3902C55.8953 24.3907 55.8953 24.3915 55.8952 24.3926C55.8952 24.3947 55.8952 24.3978 55.8952 24.4019C55.8951 24.41 55.895 24.422 55.895 24.4376C55.895 24.4688 55.8951 24.5143 55.8959 24.572C55.8974 24.6875 55.9015 24.8519 55.9115 25.0483C55.9315 25.4406 55.9753 25.9625 56.0709 26.477C56.1661 26.9894 56.3143 27.504 56.548 27.8758C56.6653 28.0624 56.807 28.2177 56.979 28.317C57.1528 28.4174 57.3525 28.4576 57.5778 28.4206L57.5475 28.2356ZM61.9888 26.1719C61.9323 26.097 61.9323 26.097 61.9323 26.097C61.9323 26.097 61.9323 26.097 61.9323 26.097C61.9323 26.097 61.9323 26.097 61.9322 26.0971C61.9321 26.0971 61.932 26.0973 61.9318 26.0974C61.9313 26.0977 61.9306 26.0983 61.9297 26.099C61.9277 26.1004 61.9248 26.1026 61.9209 26.1055C61.913 26.1112 61.9013 26.1197 61.886 26.1305C61.8555 26.1521 61.8108 26.1828 61.755 26.2189C61.6433 26.2913 61.4878 26.3848 61.3121 26.4699C61.1359 26.5553 60.9422 26.6308 60.7538 26.6692C60.5646 26.7077 60.3885 26.7072 60.2417 26.6497L60.1733 26.8243C60.3663 26.8999 60.5827 26.8954 60.7912 26.8529C61.0004 26.8103 61.2096 26.7279 61.3938 26.6387C61.5785 26.5492 61.7409 26.4515 61.857 26.3763C61.9151 26.3386 61.9618 26.3065 61.9942 26.2836C62.0104 26.2722 62.023 26.2631 62.0316 26.2568C62.0359 26.2536 62.0392 26.2512 62.0415 26.2495C62.0427 26.2486 62.0436 26.248 62.0442 26.2475C62.0445 26.2473 62.0447 26.2471 62.0449 26.2469C62.045 26.2469 62.0451 26.2468 62.0451 26.2468C62.0452 26.2468 62.0452 26.2467 62.0452 26.2467C62.0452 26.2467 62.0452 26.2467 61.9888 26.1719ZM60.2417 26.6497C60.0481 26.5738 59.919 26.403 59.8372 26.169C59.7553 25.9347 59.7256 25.649 59.7242 25.3673C59.7227 25.0868 59.7493 24.8163 59.7764 24.6154C59.7899 24.5151 59.8035 24.4325 59.8137 24.3752C59.8188 24.3465 59.8231 24.3242 59.826 24.3091C59.8275 24.3016 59.8286 24.2959 59.8294 24.2921C59.8298 24.2902 59.8301 24.2888 59.8303 24.2879C59.8303 24.2875 59.8304 24.2871 59.8305 24.2869C59.8305 24.2868 59.8305 24.2868 59.8305 24.2867C59.8305 24.2867 59.8305 24.2867 59.8305 24.2867C59.8305 24.2867 59.8305 24.2867 59.7388 24.2674C59.647 24.248 59.647 24.2481 59.647 24.2481C59.647 24.2481 59.647 24.2482 59.647 24.2482C59.647 24.2483 59.647 24.2484 59.6469 24.2486C59.6469 24.2489 59.6468 24.2493 59.6467 24.2499C59.6464 24.251 59.6461 24.2526 59.6457 24.2548C59.6448 24.259 59.6436 24.2652 59.642 24.2732C59.6389 24.2892 59.6344 24.3126 59.6291 24.3424C59.6185 24.4019 59.6045 24.4871 59.5906 24.5903C59.5628 24.7965 59.5352 25.0762 59.5367 25.3683C59.5382 25.6593 59.5685 25.9686 59.6602 26.2309C59.752 26.4936 59.9099 26.721 60.1733 26.8243L60.2417 26.6497ZM38.4568 43.5042C37.8828 38.8039 38.1414 35.8132 39.4919 33.8326C40.8401 31.8553 43.2949 30.8593 47.1919 30.2018L47.1607 30.0169C43.2577 30.6754 40.732 31.681 39.337 33.727C37.9441 35.7697 37.6964 38.8242 38.2707 43.527L38.4568 43.5042ZM29.0643 38.0399L34.5765 30.5399L34.4254 30.4288L28.9132 37.9288L29.0643 38.0399ZM34.5627 30.5549L38.4255 27.1799L38.3021 27.0388L34.4393 30.4138L34.5627 30.5549ZM52.7075 26.737C52.6252 26.6921 52.6252 26.6921 52.6252 26.6921C52.6252 26.6921 52.6252 26.6921 52.6252 26.6921C52.6252 26.6921 52.6252 26.6921 52.6252 26.6922C52.6251 26.6923 52.6251 26.6924 52.6249 26.6926C52.6247 26.693 52.6244 26.6937 52.6239 26.6946C52.6229 26.6963 52.6214 26.6991 52.6193 26.7027C52.6153 26.7099 52.6091 26.7207 52.6011 26.7346C52.5849 26.7624 52.561 26.8025 52.5302 26.8514C52.4686 26.9492 52.38 27.0812 52.2719 27.2186C52.0518 27.4986 51.7661 27.7805 51.4754 27.8629L51.5266 28.0433C51.8795 27.9432 52.1971 27.617 52.4193 27.3346C52.5324 27.1907 52.6248 27.053 52.6889 26.9513C52.7209 26.9004 52.746 26.8583 52.7631 26.8289C52.7717 26.8142 52.7783 26.8026 52.7828 26.7946C52.785 26.7906 52.7868 26.7875 52.7879 26.7853C52.7885 26.7842 52.789 26.7834 52.7893 26.7828C52.7895 26.7825 52.7896 26.7823 52.7897 26.7821C52.7897 26.782 52.7898 26.782 52.7898 26.7819C52.7898 26.7819 52.7898 26.7819 52.7898 26.7819C52.7899 26.7818 52.7899 26.7818 52.7075 26.737ZM51.1462 25.5214C50.655 25.3404 49.9985 25.3386 49.4669 25.3803L49.4815 25.5672C50.0091 25.5259 50.6307 25.5313 51.0814 25.6973L51.1462 25.5214ZM49.4669 25.3803C49.3845 25.3867 49.3048 25.3943 49.2288 25.4024L49.2488 25.5888C49.3232 25.5809 49.4011 25.5735 49.4815 25.5672L49.4669 25.3803ZM51.4754 27.8629C51.2165 27.9363 50.9715 27.8438 50.7386 27.6392C50.5045 27.4336 50.2951 27.1244 50.119 26.797C49.9436 26.4708 49.8047 26.1333 49.7096 25.8765C49.6621 25.7484 49.6256 25.6407 49.6011 25.5653C49.5888 25.5276 49.5795 25.4979 49.5733 25.4778C49.5702 25.4677 49.5679 25.46 49.5664 25.4549C49.5656 25.4524 49.5651 25.4505 49.5647 25.4492C49.5645 25.4486 49.5644 25.4481 49.5643 25.4478C49.5642 25.4477 49.5642 25.4476 49.5642 25.4475C49.5642 25.4475 49.5642 25.4475 49.5642 25.4475C49.5642 25.4475 49.5642 25.4475 49.4742 25.4737C49.3842 25.5 49.3842 25.5001 49.3842 25.5001C49.3842 25.5001 49.3842 25.5002 49.3842 25.5002C49.3843 25.5003 49.3843 25.5005 49.3844 25.5007C49.3845 25.5011 49.3847 25.5016 49.3849 25.5024C49.3853 25.5038 49.3859 25.506 49.3868 25.5087C49.3884 25.5143 49.3909 25.5224 49.3941 25.5329C49.4006 25.5539 49.4102 25.5845 49.4228 25.6233C49.448 25.7007 49.4853 25.8108 49.5338 25.9417C49.6307 26.2032 49.7729 26.5494 49.9538 26.8858C50.134 27.2208 50.3561 27.5528 50.6148 27.7801C50.8747 28.0083 51.1838 28.1405 51.5266 28.0433L51.4754 27.8629ZM21.8638 52.4219L22.035 52.4982L22.035 52.4982L21.8638 52.4219ZM25.8013 43.5156L25.973 43.5908L25.973 43.5908L25.8013 43.5156ZM27.395 39.8594L27.2256 39.7791L27.2256 39.7791L27.395 39.8594ZM28.4582 37.7245L28.625 37.81L28.6717 37.7189L28.6203 37.6304L28.4582 37.7245ZM59.7388 30.4844L59.5945 30.3645L59.5945 30.3645L59.7388 30.4844ZM58.145 31.0469L58.1363 30.8596L58.1273 30.86L58.1185 30.8612L58.145 31.0469ZM55.9888 31.0469L55.9102 31.2171L55.9476 31.2344H55.9888V31.0469ZM54.77 30.4844L54.6733 30.645L54.6821 30.6503L54.6914 30.6546L54.77 30.4844ZM53.9263 29.7344L53.7895 29.8626L53.7895 29.8626L53.9263 29.7344ZM53.4575 29.1719H53.27V29.2358L53.3091 29.2864L53.4575 29.1719ZM28.3325 35.8281L28.5199 35.8342L28.5199 35.8342L28.3325 35.8281ZM28.9888 32.5L28.849 32.375L28.8232 32.4039L28.811 32.4405L28.9888 32.5ZM36.77 23.7968L36.6788 23.633L36.6513 23.6484L36.6302 23.6719L36.77 23.7968ZM38.7341 22.7031L38.7134 22.5167L38.6759 22.5209L38.6429 22.5393L38.7341 22.7031ZM40.9419 22.2929L41.0322 22.4573L41.0842 22.4287L41.1103 22.3753L40.9419 22.2929ZM42.1138 20.6406L41.9944 20.496L41.9944 20.496L42.1138 20.6406ZM43.9888 19.7968L43.9352 19.6172L43.9352 19.6172L43.9888 19.7968ZM46.9888 19.5156L46.9813 19.3282L46.9813 19.3282L46.9888 19.5156ZM49.2388 19.5156L49.2666 19.3302L49.2551 19.3285L49.2436 19.3282L49.2388 19.5156ZM51.1138 19.7968L51.1773 19.6204L51.1599 19.6142L51.1416 19.6114L51.1138 19.7968ZM53.4575 20.6406L53.5216 20.4644L53.521 20.4642L53.4575 20.6406ZM55.52 21.3906L55.6254 21.2355L55.6061 21.2224L55.5841 21.2144L55.52 21.3906ZM57.3013 22.7031L57.3979 22.5424L57.3979 22.5424L57.3013 22.7031ZM59.1763 23.5469L59.3286 23.4375L59.3107 23.4126L59.2858 23.3946L59.1763 23.5469ZM61.9888 26.1719L62.1438 26.0664L62.125 26.0387L62.0978 26.0193L61.9888 26.1719ZM62.4575 27.1094L62.2758 27.1557L62.2758 27.1557L62.4575 27.1094ZM62.4575 28.3281L62.6294 28.4031L62.6294 28.4031L62.4575 28.3281ZM61.52 29.1719L61.6343 29.3205L61.6343 29.3205L61.52 29.1719ZM60.0018 30.0945L59.9151 29.9283L60.0494 30.2759L60.0018 30.0945ZM53.4575 28.5625H53.645V28.1622L53.3375 28.4184L53.4575 28.5625ZM52.0513 29.7344L52.0967 29.9163L52.1384 29.9058L52.1713 29.8784L52.0513 29.7344ZM50.5513 30.1094L50.5752 30.2953L50.5861 30.2939L50.5967 30.2913L50.5513 30.1094ZM48.8638 30.1094L48.879 29.9225L48.8714 29.9219H48.8638V30.1094ZM47.0337 48.3908L46.8798 48.4979L46.9378 48.5812L47.0393 48.5782L47.0337 48.3908ZM48.8638 49.0469L48.7846 49.2168L48.8222 49.2344H48.8638V49.0469ZM50.5513 49.0469V49.2344H50.5752L50.5983 49.2284L50.5513 49.0469ZM52.0513 48.2031L52.1679 48.3499L52.1778 48.342L52.1866 48.3329L52.0513 48.2031ZM53.4575 46.9844L53.3566 46.8263L53.3566 46.8263L53.4575 46.9844ZM55.3794 46.0469L55.4616 46.2154L55.4863 46.2033L55.5066 46.1846L55.3794 46.0469ZM55.9888 45.4844L55.9085 45.3149L55.8826 45.3272L55.8616 45.3466L55.9888 45.4844ZM57.77 44.6406L57.8503 44.8101L57.8792 44.7964L57.9019 44.7739L57.77 44.6406ZM59.1763 43.5156L59.2674 43.6795L59.2674 43.6795L59.1763 43.5156ZM60.6763 42.9531L60.6467 42.768L60.6368 42.7695L60.6272 42.7721L60.6763 42.9531ZM63.02 42.5781L63.063 42.3956L63.0269 42.3871L62.9904 42.393L63.02 42.5781ZM64.6138 42.9531L64.6879 42.7809L64.6727 42.7744L64.6567 42.7706L64.6138 42.9531ZM66.4888 44.6406L66.6725 44.6033L66.6725 44.6033L66.4888 44.6406ZM66.4888 45.4844L66.6751 45.5057L66.6756 45.5005L66.4888 45.4844ZM66.1138 46.9844L65.9454 46.9019L65.9454 46.9019L66.1138 46.9844ZM64.6138 48.5781L64.7376 48.7189L64.7376 48.7189L64.6138 48.5781ZM62.4575 50.0781L62.5894 50.2114L62.5894 50.2114L62.4575 50.0781ZM61.52 51.2031L61.6693 51.3167L61.6711 51.3141L61.52 51.2031ZM60.6763 52.4219L60.5403 52.2927L60.5403 52.2927L60.6763 52.4219ZM58.145 53.8281L58.2446 53.987L58.2446 53.987L58.145 53.8281ZM55.9888 55.3281L56.0869 55.4879L56.0869 55.4879L55.9888 55.3281ZM53.9263 56.4531L53.865 56.2759L53.865 56.2759L53.9263 56.4531ZM52.0513 56.8281L52.0304 56.6418L51.976 56.6479L51.9334 56.6823L52.0513 56.8281ZM50.5513 57.8594L50.4647 57.693L50.4647 57.693L50.5513 57.8594ZM49.7075 58.2343L49.6421 58.0586L49.625 58.065L49.6094 58.0746L49.7075 58.2343ZM14.5928 68.4531L14.4223 68.375L14.3529 68.5265L14.4952 68.6132L14.5928 68.4531ZM54.77 46.3441L54.8325 46.5209L54.8426 46.5173L54.8522 46.5126L54.77 46.3441ZM48.02 30.1094V29.9219H47.9041L47.8523 30.0255L48.02 30.1094ZM47.5513 31.0469L47.7179 31.1328L47.719 31.1307L47.5513 31.0469ZM46.9888 32.0781L46.8275 31.9824L46.8275 31.9824L46.9888 32.0781ZM46.0513 33.4844L45.8738 33.4239L45.8738 33.4239L46.0513 33.4844ZM45.5825 35.8281L45.7566 35.8977L45.7566 35.8977L45.5825 35.8281ZM44.8325 37.0469L44.6607 36.9718L44.6607 36.9718L44.8325 37.0469ZM44.4575 38.3594L44.2872 38.2809L44.2872 38.2809L44.4575 38.3594ZM43.3325 39.8594L43.1465 39.8361L43.1465 39.8361L43.3325 39.8594ZM43.3325 41.6406L43.5184 41.6156L43.5184 41.6156L43.3325 41.6406ZM43.9888 43.5156L43.8211 43.5994L43.8367 43.6307L43.8626 43.6543L43.9888 43.5156ZM45.395 45.4844L45.2226 45.558L45.2226 45.558L45.395 45.4844ZM45.5825 46.3441L45.3959 46.3622L45.4007 46.4121L45.4299 46.453L45.5825 46.3441ZM46.7075 47.9219L46.8615 47.8148L46.8602 47.813L46.7075 47.9219ZM45.8825 34.3281L45.6962 34.3067L45.6957 34.3127L45.8825 34.3281ZM55.9888 21.736L55.8685 21.8803L55.8775 21.8869L55.9888 21.736ZM43.3325 40.3281L43.5194 40.344L43.5207 40.3286L43.5194 40.3133L43.3325 40.3281ZM60.6763 25.2344L60.5585 25.3803L60.5585 25.3803L60.6763 25.2344ZM61.3325 25.7031L61.4417 25.5503L61.4324 25.5444L61.3325 25.7031ZM35.7388 66.8125L35.6407 66.6527L35.6075 66.6731L35.5851 66.705L35.7388 66.8125ZM28.6138 77L28.5162 77.1601L28.6665 77.2517L28.7674 77.1075L28.6138 77ZM59.7388 24.2674L59.5948 24.3874L59.5948 24.3874L59.7388 24.2674ZM22.035 52.4982C23.5847 49.025 24.448 47.075 25.973 43.5908L25.6295 43.4404C24.1049 46.9237 23.2419 48.8729 21.6925 52.3455L22.035 52.4982ZM25.973 43.5908C26.602 42.1539 26.8989 41.3451 27.5645 39.9396L27.2256 39.7791C26.5578 41.1891 26.2497 42.0235 25.6295 43.4404L25.973 43.5908ZM27.5645 39.9396C27.8912 39.2497 28.3778 38.2925 28.625 37.81L28.2913 37.639C28.0442 38.1214 27.5551 39.0833 27.2256 39.7791L27.5645 39.9396ZM59.5945 30.3645C59.5141 30.4614 59.3897 30.5454 59.2345 30.6156C59.0809 30.6851 58.9081 30.7361 58.7429 30.773C58.5783 30.8097 58.4256 30.8315 58.3138 30.844C58.2581 30.8503 58.2129 30.8542 58.182 30.8565C58.1666 30.8577 58.1548 30.8585 58.147 30.859C58.1431 30.8592 58.1402 30.8593 58.1384 30.8594C58.1375 30.8595 58.1369 30.8595 58.1365 30.8595C58.1363 30.8596 58.1362 30.8596 58.1362 30.8596C58.1362 30.8596 58.1362 30.8596 58.1362 30.8596C58.1362 30.8596 58.1362 30.8596 58.1362 30.8596C58.1362 30.8596 58.1363 30.8596 58.145 31.0469C58.1538 31.2341 58.1538 31.2341 58.1539 31.2341C58.1539 31.2341 58.1539 31.2341 58.154 31.2341C58.1541 31.2341 58.1542 31.2341 58.1543 31.2341C58.1545 31.2341 58.1549 31.2341 58.1552 31.2341C58.156 31.234 58.1571 31.234 58.1584 31.2339C58.1611 31.2338 58.1648 31.2336 58.1696 31.2333C58.1792 31.2327 58.1929 31.2318 58.2104 31.2305C58.2452 31.2278 58.2949 31.2235 58.3556 31.2167C58.4768 31.2031 58.6434 31.1794 58.8246 31.139C59.0051 31.0987 59.2044 31.0408 59.3891 30.9573C59.5723 30.8744 59.7526 30.7611 59.883 30.6042L59.5945 30.3645ZM58.1185 30.8612C57.8983 30.8927 57.725 30.8929 57.5459 30.8848C57.3693 30.8768 57.1696 30.8594 56.9263 30.8594V31.2344C57.1589 31.2344 57.333 31.2505 57.529 31.2594C57.7224 31.2681 57.9206 31.2683 58.1715 31.2325L58.1185 30.8612ZM56.9263 30.8594H55.9888V31.2344H56.9263V30.8594ZM54.8667 30.3237C54.5158 30.1124 54.3698 29.933 54.063 29.6061L53.7895 29.8626C54.0861 30.1787 54.2689 30.4015 54.6733 30.645L54.8667 30.3237ZM54.063 29.6061C53.9701 29.507 53.8565 29.3708 53.7643 29.2569C53.7186 29.2005 53.6789 29.1504 53.6506 29.1145C53.6365 29.0966 53.6253 29.0822 53.6176 29.0723C53.6138 29.0674 53.6108 29.0636 53.6089 29.061C53.6079 29.0598 53.6071 29.0588 53.6066 29.0582C53.6064 29.0579 53.6062 29.0576 53.6061 29.0575C53.6061 29.0574 53.606 29.0574 53.606 29.0573C53.606 29.0573 53.606 29.0573 53.606 29.0573C53.606 29.0573 53.606 29.0573 53.606 29.0573C53.606 29.0573 53.606 29.0573 53.4575 29.1719C53.3091 29.2864 53.3091 29.2864 53.3091 29.2864C53.3091 29.2864 53.3091 29.2864 53.3091 29.2864C53.3091 29.2864 53.3091 29.2865 53.3092 29.2865C53.3092 29.2865 53.3093 29.2866 53.3093 29.2867C53.3095 29.2869 53.3097 29.2872 53.31 29.2876C53.3105 29.2883 53.3114 29.2893 53.3124 29.2907C53.3145 29.2935 53.3177 29.2975 53.3217 29.3026C53.3297 29.3129 53.3413 29.3278 53.3559 29.3463C53.3849 29.3833 53.4258 29.4348 53.4728 29.4929C53.5661 29.6081 53.6868 29.7531 53.7895 29.8626L54.063 29.6061ZM28.6203 37.6304C28.524 37.4644 28.4859 37.1898 28.4829 36.8471C28.4798 36.5071 28.5094 36.1582 28.5199 35.8342L28.1451 35.822C28.1356 36.1165 28.1047 36.5033 28.1079 36.8505C28.111 37.1952 28.1457 37.5596 28.296 37.8186L28.6203 37.6304ZM28.5199 35.8342C28.5438 35.0969 28.7044 34.2796 28.8611 33.6414C28.9392 33.3235 29.0158 33.0523 29.0728 32.8608C29.1013 32.765 29.1249 32.6893 29.1413 32.6377C29.1495 32.6119 29.1559 32.5921 29.1602 32.5789C29.1623 32.5723 29.164 32.5674 29.1651 32.5641C29.1656 32.5625 29.166 32.5613 29.1663 32.5605C29.1664 32.5601 29.1665 32.5598 29.1665 32.5597C29.1666 32.5596 29.1666 32.5595 29.1666 32.5595C29.1666 32.5595 29.1666 32.5595 29.1666 32.5595C29.1666 32.5595 29.1666 32.5595 28.9888 32.5C28.811 32.4405 28.811 32.4405 28.8109 32.4406C28.8109 32.4406 28.8109 32.4406 28.8109 32.4407C28.8109 32.4408 28.8108 32.4409 28.8108 32.441C28.8107 32.4413 28.8106 32.4417 28.8104 32.4422C28.8101 32.4431 28.8096 32.4446 28.809 32.4464C28.8078 32.4501 28.806 32.4555 28.8037 32.4626C28.7991 32.4767 28.7924 32.4974 28.7839 32.5242C28.7669 32.5778 28.7426 32.6557 28.7134 32.7538C28.6551 32.9499 28.5768 33.227 28.497 33.552C28.3379 34.1996 28.1703 35.0463 28.1451 35.822L28.5199 35.8342ZM36.8612 23.9607L38.8254 22.8669L38.6429 22.5393L36.6788 23.633L36.8612 23.9607ZM38.7341 22.7031C38.7549 22.8895 38.7549 22.8895 38.7549 22.8894C38.7549 22.8894 38.7549 22.8894 38.755 22.8894C38.755 22.8894 38.7551 22.8894 38.7553 22.8894C38.7555 22.8894 38.7559 22.8893 38.7563 22.8893C38.7572 22.8892 38.7586 22.889 38.7604 22.8888C38.764 22.8884 38.7692 22.8878 38.7761 22.8871C38.7898 22.8855 38.8098 22.8832 38.8355 22.8802C38.8867 22.8741 38.9603 22.8653 39.0496 22.8541C39.2282 22.8317 39.4707 22.7995 39.7252 22.7609C39.9793 22.7222 40.2477 22.6768 40.4776 22.6275C40.6985 22.5802 40.9104 22.5242 41.0322 22.4573L40.8516 22.1286C40.7855 22.165 40.6274 22.2119 40.3991 22.2608C40.1798 22.3078 39.9197 22.352 39.6689 22.3901C39.4185 22.4282 39.1795 22.4598 39.0029 22.482C38.9146 22.4931 38.8421 22.5018 38.7917 22.5077C38.7665 22.5107 38.7469 22.513 38.7336 22.5145C38.7269 22.5152 38.7218 22.5158 38.7184 22.5162C38.7167 22.5164 38.7155 22.5165 38.7146 22.5166C38.7142 22.5167 38.7139 22.5167 38.7137 22.5167C38.7136 22.5167 38.7135 22.5167 38.7135 22.5167C38.7135 22.5167 38.7135 22.5167 38.7134 22.5167C38.7134 22.5167 38.7134 22.5167 38.7341 22.7031ZM42.2332 20.7852C42.8173 20.3027 43.2633 20.2086 44.0423 19.9765L43.9352 19.6172C43.1752 19.8436 42.6484 19.9558 41.9944 20.496L42.2332 20.7852ZM44.0423 19.9765C45.1401 19.6495 45.7934 19.751 46.9963 19.703L46.9813 19.3282C45.8326 19.3742 45.093 19.2723 43.9352 19.6172L44.0423 19.9765ZM46.9963 19.703C47.4304 19.6856 47.989 19.6855 48.4412 19.6899C48.6668 19.6921 48.8652 19.6954 49.0071 19.6981C49.078 19.6995 49.1348 19.7007 49.1738 19.7016C49.1934 19.7021 49.2084 19.7024 49.2186 19.7027C49.2237 19.7028 49.2276 19.7029 49.2301 19.7029C49.2314 19.703 49.2324 19.703 49.233 19.703C49.2334 19.703 49.2336 19.703 49.2338 19.703C49.2338 19.703 49.2339 19.703 49.2339 19.703C49.2339 19.703 49.234 19.703 49.234 19.703C49.234 19.703 49.234 19.703 49.2388 19.5156C49.2436 19.3282 49.2436 19.3282 49.2435 19.3282C49.2435 19.3282 49.2435 19.3282 49.2435 19.3282C49.2434 19.3282 49.2434 19.3282 49.2433 19.3282C49.2431 19.3281 49.2429 19.3281 49.2425 19.3281C49.2418 19.3281 49.2408 19.3281 49.2395 19.3281C49.2368 19.328 49.2329 19.3279 49.2277 19.3278C49.2173 19.3275 49.2021 19.3272 49.1824 19.3267C49.1429 19.3258 49.0857 19.3246 49.0143 19.3232C48.8715 19.3204 48.6719 19.3171 48.4448 19.3149C47.9915 19.3106 47.4252 19.3105 46.9813 19.3282L46.9963 19.703ZM49.211 19.701L51.086 19.9823L51.1416 19.6114L49.2666 19.3302L49.211 19.701ZM51.0503 19.9733L53.394 20.817L53.521 20.4642L51.1773 19.6204L51.0503 19.9733ZM53.3934 20.8168L55.4559 21.5668L55.5841 21.2144L53.5216 20.4644L53.3934 20.8168ZM57.2047 22.8638C57.5696 23.0831 57.8958 23.1829 58.193 23.2821C58.4902 23.3814 58.7647 23.4818 59.0668 23.6991L59.2858 23.3946C58.936 23.1431 58.6171 23.0284 58.3118 22.9265C58.0065 22.8245 57.7212 22.7367 57.3979 22.5424L57.2047 22.8638ZM61.9888 26.1719C61.8337 26.2773 61.8337 26.2772 61.8337 26.2772C61.8337 26.2772 61.8337 26.2772 61.8337 26.2772C61.8337 26.2772 61.8337 26.2772 61.8337 26.2772C61.8337 26.2772 61.8337 26.2773 61.8338 26.2774C61.8339 26.2776 61.8341 26.2779 61.8344 26.2783C61.835 26.2791 61.8359 26.2805 61.8371 26.2823C61.8396 26.286 61.8433 26.2916 61.8482 26.299C61.8579 26.3137 61.872 26.3355 61.8894 26.3629C61.9242 26.4178 61.9716 26.4951 62.022 26.5842C62.1252 26.7665 62.2318 26.9828 62.2758 27.1557L62.6392 27.063C62.5822 26.8392 62.4544 26.5868 62.3484 26.3995C62.2943 26.3038 62.2435 26.2211 62.2062 26.1622C62.1875 26.1327 62.1722 26.1091 62.1614 26.0927C62.156 26.0845 62.1517 26.0781 62.1487 26.0737C62.1472 26.0715 62.1461 26.0698 62.1453 26.0685C62.1448 26.0679 62.1445 26.0674 62.1443 26.0671C62.1442 26.0669 62.1441 26.0668 62.144 26.0667C62.144 26.0666 62.1439 26.0666 62.1439 26.0665C62.1439 26.0665 62.1439 26.0665 62.1439 26.0665C62.1439 26.0665 62.1438 26.0664 61.9888 26.1719ZM62.2758 27.1557C62.393 27.6153 62.4483 27.8803 62.2857 28.2531L62.6294 28.4031C62.8473 27.9035 62.7572 27.5258 62.6392 27.063L62.2758 27.1557ZM62.2857 28.2531C62.2042 28.4399 62.0935 28.5515 61.9511 28.655C61.8765 28.7092 61.7964 28.7589 61.7027 28.8187C61.611 28.8772 61.5102 28.9429 61.4057 29.0232L61.6343 29.3205C61.7251 29.2507 61.8144 29.1922 61.9043 29.1349C61.9922 29.0789 62.0852 29.0211 62.1716 28.9583C62.3511 28.8279 62.5139 28.6677 62.6294 28.4031L62.2857 28.2531ZM60.0494 30.2759C60.0437 30.2774 59.9924 30.2922 59.9328 30.2649C59.897 30.2484 59.8661 30.2201 59.847 30.1829C59.8295 30.149 59.8269 30.1179 59.8271 30.0996C59.8274 30.081 59.8306 30.0672 59.8324 30.0604C59.8344 30.0531 59.8364 30.0483 59.837 30.0468C59.8381 30.0443 59.8373 30.0467 59.8317 30.0561C59.8076 30.0963 59.743 30.1859 59.5945 30.3645L59.883 30.6042C60.0314 30.4255 60.1128 30.3163 60.1532 30.2491C60.1637 30.2315 60.1739 30.2128 60.1821 30.1937C60.1885 30.1785 60.2016 30.1455 60.2021 30.1043C60.2024 30.0819 60.1991 30.0475 60.1803 30.0111C60.1599 29.9715 60.1272 29.9415 60.089 29.924C60.0248 29.8946 59.967 29.9098 59.9541 29.9132L60.0494 30.2759ZM61.4057 29.0232C60.9173 29.3989 60.0832 29.8406 59.9151 29.9283L60.0884 30.2608C60.2521 30.1754 61.1157 29.7194 61.6343 29.3205L61.4057 29.0232ZM56.0673 30.8766L55.458 30.5954L55.3008 30.9358L55.9102 31.2171L56.0673 30.8766ZM55.458 30.5954L54.8486 30.3141L54.6914 30.6546L55.3008 30.9358L55.458 30.5954ZM53.645 29.1719V28.5625H53.27V29.1719H53.645ZM53.3375 28.4184L51.9312 29.5903L52.1713 29.8784L53.5776 28.7065L53.3375 28.4184ZM52.0058 29.5524L50.5058 29.9274L50.5967 30.2913L52.0967 29.9163L52.0058 29.5524ZM50.5274 29.9234C50.2161 29.9634 49.8066 29.9639 49.4682 29.9535C49.3004 29.9483 49.1527 29.9405 49.047 29.934C48.9942 29.9308 48.9519 29.9279 48.923 29.9258C48.9085 29.9247 48.8974 29.9239 48.8899 29.9233C48.8862 29.923 48.8834 29.9228 48.8816 29.9227C48.8806 29.9226 48.88 29.9225 48.8795 29.9225C48.8793 29.9225 48.8791 29.9225 48.8791 29.9225C48.879 29.9225 48.879 29.9225 48.879 29.9225C48.879 29.9225 48.879 29.9225 48.879 29.9225C48.879 29.9225 48.879 29.9225 48.8638 30.1094C48.8486 30.2962 48.8486 30.2962 48.8486 30.2962C48.8486 30.2962 48.8487 30.2962 48.8487 30.2962C48.8487 30.2962 48.8488 30.2963 48.8489 30.2963C48.849 30.2963 48.8492 30.2963 48.8495 30.2963C48.8501 30.2964 48.8509 30.2964 48.852 30.2965C48.8541 30.2967 48.8572 30.2969 48.8612 30.2972C48.8692 30.2978 48.8809 30.2987 48.896 30.2998C48.9261 30.302 48.9697 30.305 49.0241 30.3083C49.1326 30.315 49.2842 30.323 49.4566 30.3283C49.7986 30.3388 50.2328 30.3393 50.5752 30.2953L50.5274 29.9234ZM47.0393 48.5782C47.1021 48.5763 47.237 48.605 47.4301 48.6669C47.6139 48.7258 47.8253 48.8062 48.0273 48.8881C48.2287 48.9699 48.4183 49.0521 48.5576 49.114C48.6272 49.145 48.6841 49.1707 48.7236 49.1887C48.7433 49.1977 48.7586 49.2048 48.769 49.2096C48.7742 49.212 48.7781 49.2138 48.7807 49.215C48.7821 49.2156 48.783 49.2161 48.7837 49.2164C48.784 49.2165 48.7842 49.2166 48.7844 49.2167C48.7844 49.2167 48.7845 49.2168 48.7845 49.2168C48.7845 49.2168 48.7845 49.2168 48.7846 49.2168C48.7846 49.2168 48.7846 49.2168 48.8638 49.0469C48.943 48.8769 48.943 48.8769 48.943 48.8769C48.9429 48.8769 48.9429 48.8769 48.9429 48.8769C48.9428 48.8768 48.9428 48.8768 48.9427 48.8768C48.9425 48.8767 48.9422 48.8765 48.9418 48.8764C48.9411 48.876 48.94 48.8755 48.9386 48.8748C48.9357 48.8735 48.9316 48.8716 48.9262 48.8691C48.9154 48.8641 48.8995 48.8568 48.8793 48.8476C48.8389 48.8291 48.7807 48.8028 48.7098 48.7713C48.5681 48.7084 48.3746 48.6244 48.1683 48.5407C47.9624 48.4571 47.7412 48.3728 47.5445 48.3098C47.3572 48.2497 47.1641 48.1993 47.0282 48.2034L47.0393 48.5782ZM48.8638 49.2344H50.5513V48.8594H48.8638V49.2344ZM50.5983 49.2284C50.9545 49.136 51.3507 48.9108 51.647 48.7192C51.7977 48.6218 51.9273 48.5299 52.0194 48.4624C52.0654 48.4285 52.1022 48.4007 52.1276 48.3812C52.1403 48.3715 52.1502 48.3638 52.157 48.3585C52.1604 48.3558 52.1631 48.3537 52.1649 48.3523C52.1658 48.3516 52.1665 48.351 52.167 48.3506C52.1673 48.3504 52.1675 48.3502 52.1676 48.3501C52.1677 48.3501 52.1678 48.35 52.1678 48.35C52.1679 48.35 52.1679 48.3499 52.1679 48.3499C52.1679 48.3499 52.1679 48.3499 52.0513 48.2031C51.9346 48.0563 51.9346 48.0563 51.9346 48.0563C51.9346 48.0563 51.9346 48.0563 51.9346 48.0563C51.9346 48.0563 51.9346 48.0563 51.9346 48.0563C51.9345 48.0564 51.9344 48.0565 51.9343 48.0566C51.934 48.0568 51.9335 48.0572 51.9327 48.0578C51.9313 48.0589 51.9291 48.0607 51.9261 48.063C51.9202 48.0676 51.9112 48.0746 51.8994 48.0837C51.8758 48.1017 51.8412 48.128 51.7974 48.1601C51.7099 48.2244 51.5865 48.3118 51.4435 48.4043C51.1525 48.5924 50.7987 48.789 50.5042 48.8654L50.5983 49.2284ZM52.0513 48.2031C52.1866 48.3329 52.1866 48.3329 52.1866 48.3329C52.1866 48.3329 52.1866 48.3329 52.1866 48.3329C52.1866 48.3329 52.1866 48.3328 52.1867 48.3328C52.1867 48.3327 52.1869 48.3326 52.187 48.3324C52.1874 48.3321 52.1879 48.3315 52.1886 48.3308C52.19 48.3293 52.1922 48.3271 52.195 48.3241C52.2008 48.3182 52.2094 48.3094 52.2206 48.2979C52.243 48.275 52.2758 48.2417 52.3172 48.2005C52.4001 48.1179 52.5168 48.0038 52.6524 47.8777C52.9259 47.6232 53.2672 47.3283 53.5584 47.1424L53.3566 46.8263C53.0353 47.0315 52.6735 47.3459 52.397 47.6031C52.2576 47.7328 52.1376 47.85 52.0525 47.9349C52.0099 47.9773 51.976 48.0117 51.9526 48.0356C51.9409 48.0476 51.9318 48.0569 51.9256 48.0633C51.9225 48.0665 51.9202 48.0689 51.9185 48.0706C51.9177 48.0715 51.9171 48.0721 51.9167 48.0726C51.9165 48.0728 51.9163 48.073 51.9162 48.0731C51.9161 48.0732 51.9161 48.0732 51.916 48.0732C51.916 48.0733 51.916 48.0733 51.916 48.0733C51.916 48.0733 51.9159 48.0733 52.0513 48.2031ZM55.5066 46.1846L56.116 45.6221L55.8616 45.3466L55.2522 45.9091L55.5066 46.1846ZM57.77 44.6406C57.9019 44.7739 57.9019 44.7739 57.9019 44.7739C57.9019 44.7739 57.9019 44.7739 57.9019 44.7739C57.9019 44.7739 57.9019 44.7739 57.902 44.7738C57.902 44.7738 57.9021 44.7737 57.9023 44.7735C57.9026 44.7732 57.9031 44.7727 57.9038 44.772C57.9052 44.7706 57.9074 44.7685 57.9102 44.7657C57.9159 44.7602 57.9244 44.7519 57.9356 44.7411C57.9578 44.7196 57.9905 44.6882 58.0317 44.6495C58.1142 44.572 58.2305 44.4651 58.3656 44.3478C58.6386 44.1108 58.978 43.8404 59.2674 43.6795L59.0852 43.3517C58.7599 43.5326 58.3962 43.8247 58.1197 44.0647C57.9801 44.1859 57.8601 44.2962 57.7749 44.3762C57.7323 44.4163 57.6983 44.4488 57.6749 44.4715C57.6632 44.4828 57.6541 44.4916 57.6479 44.4977C57.6448 44.5007 57.6424 44.5031 57.6408 44.5047C57.64 44.5055 57.6393 44.5061 57.6389 44.5066C57.6387 44.5068 57.6385 44.507 57.6384 44.5071C57.6383 44.5072 57.6383 44.5072 57.6382 44.5072C57.6382 44.5073 57.6382 44.5073 57.6382 44.5073C57.6382 44.5073 57.6381 44.5073 57.77 44.6406ZM59.2674 43.6795C59.5249 43.5363 59.8861 43.4001 60.1908 43.2982C60.3416 43.2477 60.4757 43.2065 60.572 43.178C60.6201 43.1638 60.6587 43.1527 60.6852 43.1452C60.6984 43.1415 60.7086 43.1387 60.7154 43.1368C60.7188 43.1359 60.7214 43.1352 60.723 43.1347C60.7239 43.1345 60.7245 43.1343 60.7249 43.1342C60.7251 43.1341 60.7252 43.1341 60.7253 43.1341C60.7253 43.1341 60.7253 43.1341 60.7254 43.1341C60.7254 43.1341 60.7254 43.1341 60.7254 43.1341C60.7254 43.1341 60.7253 43.1341 60.6763 42.9531C60.6272 42.7721 60.6272 42.7721 60.6272 42.7721C60.6272 42.7721 60.6271 42.7722 60.6271 42.7722C60.6271 42.7722 60.627 42.7722 60.6269 42.7722C60.6268 42.7723 60.6266 42.7723 60.6263 42.7724C60.6258 42.7725 60.625 42.7727 60.624 42.773C60.622 42.7735 60.6192 42.7743 60.6155 42.7754C60.608 42.7774 60.5972 42.7804 60.5833 42.7844C60.5555 42.7922 60.5153 42.8037 60.4656 42.8185C60.3661 42.8479 60.2277 42.8904 60.0718 42.9425C59.7632 43.0458 59.3745 43.1909 59.0852 43.3517L59.2674 43.6795ZM60.7059 43.1382L63.0496 42.7632L62.9904 42.393L60.6467 42.768L60.7059 43.1382ZM62.9771 42.7606L64.5708 43.1356L64.6567 42.7706L63.063 42.3956L62.9771 42.7606ZM64.6138 42.9531C64.5397 43.1253 64.5397 43.1253 64.5396 43.1253C64.5396 43.1253 64.5396 43.1253 64.5396 43.1253C64.5396 43.1253 64.5396 43.1253 64.5397 43.1253C64.5398 43.1254 64.54 43.1255 64.5403 43.1256C64.5409 43.1259 64.5419 43.1263 64.5433 43.1269C64.5461 43.1281 64.5504 43.13 64.5561 43.1326C64.5675 43.1377 64.5847 43.1455 64.6069 43.1559C64.6513 43.1766 64.7154 43.2075 64.7932 43.2476C64.9491 43.3281 65.1583 43.4448 65.3725 43.59C65.5875 43.7358 65.8028 43.9071 65.9743 44.0958C66.1469 44.2856 66.2652 44.4821 66.305 44.6779L66.6725 44.6033C66.6142 44.3164 66.4492 44.0606 66.2518 43.8435C66.0534 43.6253 65.8122 43.4351 65.5829 43.2796C65.353 43.1237 65.1301 42.9995 64.9651 42.9144C64.8825 42.8717 64.8139 42.8387 64.7657 42.8161C64.7416 42.8049 64.7225 42.7962 64.7093 42.7903C64.7027 42.7873 64.6975 42.7851 64.6939 42.7835C64.6921 42.7827 64.6907 42.7821 64.6897 42.7816C64.6892 42.7814 64.6888 42.7812 64.6885 42.7811C64.6883 42.7811 64.6882 42.781 64.6881 42.781C64.688 42.7809 64.688 42.7809 64.688 42.7809C64.6879 42.7809 64.6879 42.7809 64.6138 42.9531ZM66.305 44.6779C66.3639 44.9677 66.3315 45.1269 66.302 45.4682L66.6756 45.5005C66.7029 45.1852 66.7449 44.9593 66.6725 44.6033L66.305 44.6779ZM66.4888 45.4844C66.3025 45.463 66.3025 45.463 66.3025 45.463C66.3025 45.463 66.3025 45.463 66.3025 45.463C66.3025 45.463 66.3025 45.463 66.3025 45.4631C66.3025 45.4631 66.3025 45.4633 66.3024 45.4634C66.3024 45.4638 66.3023 45.4644 66.3022 45.4652C66.302 45.4668 66.3017 45.4693 66.3013 45.4727C66.3005 45.4794 66.2993 45.4894 66.2976 45.5026C66.2942 45.5289 66.289 45.5673 66.282 45.6152C66.2679 45.7112 66.2464 45.8448 66.2169 45.9947C66.1568 46.2992 66.0667 46.6539 65.9454 46.9019L66.2822 47.0668C66.4263 46.7724 66.5237 46.3772 66.5848 46.0672C66.6158 45.91 66.6383 45.7702 66.653 45.6697C66.6604 45.6194 66.6659 45.5788 66.6695 45.5505C66.6713 45.5364 66.6727 45.5254 66.6736 45.5178C66.6741 45.514 66.6744 45.5111 66.6747 45.509C66.6748 45.508 66.6749 45.5072 66.6749 45.5067C66.675 45.5064 66.675 45.5062 66.675 45.506C66.675 45.5059 66.675 45.5058 66.675 45.5058C66.675 45.5058 66.6751 45.5057 66.6751 45.5057C66.6751 45.5057 66.6751 45.5057 66.4888 45.4844ZM65.9454 46.9019C65.5913 47.6253 65.1581 47.8498 64.49 48.4373L64.7376 48.7189C65.3532 48.1776 65.8847 47.8787 66.2822 47.0668L65.9454 46.9019ZM64.49 48.4373C64.1215 48.7613 63.7816 48.947 63.4274 49.1486C63.073 49.3503 62.7085 49.5659 62.3256 49.9448L62.5894 50.2114C62.9356 49.8687 63.2641 49.673 63.6129 49.4745C63.962 49.2758 64.3357 49.0723 64.7376 48.7189L64.49 48.4373ZM62.3256 49.9448C62.1141 50.1542 61.874 50.4428 61.6896 50.6748C61.5967 50.7916 61.5167 50.8957 61.4599 50.9706C61.4315 51.0081 61.4089 51.0383 61.3933 51.0592C61.3855 51.0697 61.3795 51.0778 61.3754 51.0834C61.3733 51.0862 61.3717 51.0883 61.3706 51.0898C61.3701 51.0905 61.3697 51.091 61.3694 51.0914C61.3693 51.0916 61.3691 51.0918 61.3691 51.0919C61.369 51.0919 61.369 51.092 61.369 51.092C61.369 51.092 61.369 51.092 61.3689 51.0921C61.3689 51.0921 61.3689 51.0921 61.52 51.2031C61.6711 51.3141 61.6711 51.3141 61.6711 51.3141C61.6711 51.3141 61.6711 51.3141 61.6711 51.3141C61.6711 51.3141 61.6711 51.3141 61.6712 51.3141C61.6712 51.314 61.6713 51.3139 61.6714 51.3137C61.6716 51.3134 61.672 51.3129 61.6725 51.3123C61.6734 51.311 61.6749 51.309 61.6768 51.3064C61.6807 51.3012 61.6865 51.2934 61.694 51.2833C61.709 51.2631 61.731 51.2337 61.7588 51.1972C61.8142 51.124 61.8924 51.0222 61.9831 50.9081C62.1659 50.6782 62.3945 50.4043 62.5894 50.2114L62.3256 49.9448ZM61.3708 51.0896C61.1877 51.3302 61.0697 51.5416 60.9556 51.731C60.8412 51.9208 60.7261 52.0971 60.5403 52.2927L60.8122 52.551C61.0251 52.3268 61.1565 52.1241 61.2768 51.9246C61.3972 51.7248 61.5018 51.5367 61.6692 51.3166L61.3708 51.0896ZM60.5403 52.2927C60.1765 52.6759 59.8101 52.865 59.4056 53.0343C59.0032 53.2027 58.5417 53.3582 58.0454 53.6692L58.2446 53.987C58.7065 53.6974 59.1213 53.5598 59.5504 53.3802C59.9772 53.2016 60.3974 52.9879 60.8122 52.551L60.5403 52.2927ZM58.0454 53.6692C57.6036 53.9462 57.2775 54.1913 56.9566 54.4309C56.636 54.6703 56.32 54.9048 55.8907 55.1683L56.0869 55.4879C56.5317 55.2148 56.8593 54.9716 57.181 54.7314C57.5024 54.4914 57.8173 54.2548 58.2446 53.987L58.0454 53.6692ZM55.8907 55.1683C55.0915 55.6589 54.7066 55.985 53.865 56.2759L53.9875 56.6303C54.8803 56.3218 55.3222 55.9573 56.0869 55.4879L55.8907 55.1683ZM53.865 56.2759C53.5278 56.3924 53.072 56.4842 52.6934 56.5471C52.5055 56.5783 52.3393 56.6021 52.2202 56.618C52.1607 56.6259 52.1129 56.6319 52.0802 56.6359C52.0639 56.6379 52.0513 56.6393 52.0428 56.6403C52.0386 56.6408 52.0354 56.6412 52.0333 56.6414C52.0323 56.6416 52.0315 56.6416 52.031 56.6417C52.0308 56.6417 52.0306 56.6417 52.0305 56.6418C52.0304 56.6418 52.0304 56.6418 52.0304 56.6418C52.0304 56.6418 52.0304 56.6418 52.0304 56.6418C52.0304 56.6418 52.0304 56.6418 52.0513 56.8281C52.0722 57.0144 52.0722 57.0144 52.0722 57.0144C52.0722 57.0144 52.0722 57.0144 52.0723 57.0144C52.0723 57.0144 52.0724 57.0144 52.0725 57.0144C52.0727 57.0144 52.0729 57.0144 52.0732 57.0143C52.0739 57.0142 52.0748 57.0141 52.076 57.014C52.0783 57.0137 52.0818 57.0133 52.0863 57.0128C52.0953 57.0118 52.1086 57.0102 52.1256 57.0081C52.1595 57.004 52.2087 56.9978 52.2698 56.9897C52.3919 56.9734 52.5622 56.9491 52.7549 56.917C53.1372 56.8535 53.619 56.7577 53.9875 56.6303L53.865 56.2759ZM52.0513 56.8281C51.9334 56.6823 51.9334 56.6823 51.9334 56.6823C51.9334 56.6823 51.9334 56.6823 51.9334 56.6823C51.9334 56.6823 51.9333 56.6823 51.9333 56.6824C51.9332 56.6824 51.9331 56.6825 51.9329 56.6827C51.9325 56.683 51.932 56.6835 51.9312 56.6841C51.9296 56.6853 51.9272 56.6873 51.9241 56.6898C51.9178 56.6948 51.9083 56.7024 51.8961 56.7121C51.8715 56.7316 51.8356 56.76 51.7905 56.795C51.7002 56.8652 51.5733 56.9622 51.427 57.0693C51.1322 57.2851 50.7667 57.5358 50.4647 57.693L50.6379 58.0257C50.9664 57.8546 51.3509 57.5897 51.6485 57.3719C51.7983 57.2622 51.9282 57.163 52.0206 57.0911C52.0669 57.0551 52.1038 57.026 52.1293 57.0058C52.142 56.9957 52.1519 56.9878 52.1586 56.9824C52.162 56.9797 52.1646 56.9776 52.1663 56.9762C52.1672 56.9755 52.1679 56.9749 52.1684 56.9745C52.1686 56.9744 52.1688 56.9742 52.1689 56.9741C52.169 56.974 52.169 56.974 52.1691 56.974C52.1691 56.974 52.1691 56.9739 52.1691 56.9739C52.1691 56.9739 52.1692 56.9739 52.0513 56.8281ZM50.4647 57.693C50.1517 57.856 49.9728 57.9355 49.6421 58.0586L49.7729 58.4101C50.1181 58.2816 50.3112 58.1958 50.6379 58.0257L50.4647 57.693ZM14.5928 68.4531C14.7632 68.5312 14.7632 68.5312 14.7633 68.5311C14.7633 68.531 14.7634 68.5309 14.7634 68.5308C14.7636 68.5305 14.7638 68.53 14.764 68.5294C14.7646 68.5282 14.7654 68.5265 14.7665 68.5241C14.7686 68.5194 14.7719 68.5124 14.7761 68.503C14.7847 68.4844 14.7974 68.4566 14.8141 68.4201C14.8476 68.3471 14.8969 68.2393 14.9608 68.0998C15.0885 67.8208 15.2741 67.4153 15.5055 66.909C15.9684 65.8965 16.6147 64.481 17.3485 62.8694C18.8162 59.6462 20.6342 55.6379 22.035 52.4982L21.6925 52.3455C20.2923 55.4837 18.4748 59.491 17.0073 62.714C16.2735 64.3254 15.6272 65.7407 15.1644 66.7531C14.933 67.2593 14.7475 67.6648 14.6198 67.9437C14.556 68.0832 14.5066 68.191 14.4732 68.2639C14.4565 68.3004 14.4438 68.3282 14.4352 68.3468C14.431 68.3561 14.4277 68.3632 14.4256 68.3679C14.4245 68.3702 14.4237 68.372 14.4231 68.3732C14.4229 68.3738 14.4227 68.3742 14.4225 68.3745C14.4225 68.3747 14.4224 68.3748 14.4224 68.3749C14.4223 68.3749 14.4223 68.375 14.5928 68.4531ZM53.5584 47.1424C54.027 46.8432 54.3082 46.7061 54.8325 46.5209L54.7076 46.1673C54.1563 46.362 53.8494 46.5117 53.3566 46.8263L53.5584 47.1424ZM54.8522 46.5126L55.4616 46.2154L55.2972 45.8783L54.6878 46.1756L54.8522 46.5126ZM48.8638 29.9219H48.02V30.2969H48.8638V29.9219ZM47.8523 30.0255L47.3836 30.963L47.719 31.1307L48.1877 30.1932L47.8523 30.0255ZM47.5513 31.0469C47.3846 30.9609 47.3846 30.9609 47.3846 30.9609C47.3846 30.9609 47.3846 30.9609 47.3846 30.9609C47.3846 30.961 47.3846 30.961 47.3846 30.961C47.3845 30.9611 47.3845 30.9612 47.3844 30.9613C47.3843 30.9616 47.384 30.9621 47.3837 30.9627C47.3831 30.9638 47.3822 30.9656 47.381 30.968C47.3786 30.9726 47.375 30.9796 47.3703 30.9886C47.3609 31.0066 47.3473 31.0329 47.3302 31.0656C47.2959 31.1311 47.2478 31.2225 47.1924 31.3262C47.0813 31.5343 46.9424 31.789 46.8275 31.9824L47.15 32.1738C47.2694 31.9727 47.4116 31.7118 47.5232 31.5029C47.5792 31.398 47.6278 31.3056 47.6625 31.2394C47.6798 31.2063 47.6936 31.1797 47.7031 31.1613C47.7079 31.1522 47.7116 31.1451 47.7141 31.1402C47.7153 31.1378 47.7163 31.136 47.7169 31.1347C47.7172 31.1341 47.7175 31.1336 47.7177 31.1333C47.7177 31.1331 47.7178 31.133 47.7179 31.1329C47.7179 31.1329 47.7179 31.1328 47.7179 31.1328C47.7179 31.1328 47.7179 31.1328 47.7179 31.1328C47.7179 31.1328 47.7179 31.1328 47.5513 31.0469ZM46.8275 31.9824C46.6685 32.2503 46.5016 32.4294 46.3284 32.6411C46.1562 32.8515 45.9905 33.0813 45.8738 33.4239L46.2288 33.5448C46.3249 33.2627 46.4595 33.0731 46.6187 32.8785C46.7768 32.6852 46.9722 32.4734 47.15 32.1738L46.8275 31.9824ZM45.4084 35.7585C45.3148 35.9926 45.1968 36.1522 45.0643 36.3266C44.9316 36.5012 44.7826 36.6925 44.6607 36.9718L45.0044 37.1219C45.1061 36.889 45.2284 36.7304 45.3629 36.5534C45.4975 36.3762 45.6427 36.1824 45.7566 35.8977L45.4084 35.7585ZM44.6607 36.9718C44.5446 37.2377 44.5035 37.4641 44.4645 37.6698C44.4255 37.8751 44.3884 38.0614 44.2872 38.2809L44.6278 38.4378C44.7498 38.1732 44.7935 37.9475 44.8329 37.7397C44.8723 37.5323 44.9071 37.3445 45.0044 37.1219L44.6607 36.9718ZM44.2872 38.2809C44.1549 38.5681 43.9358 38.7324 43.6912 38.9447C43.4527 39.1518 43.201 39.4001 43.1465 39.8361L43.5186 39.8826C43.5549 39.592 43.7124 39.4229 43.9371 39.2279C44.1557 39.0381 44.4537 38.8156 44.6278 38.4378L44.2872 38.2809ZM43.1467 41.6656C43.2017 42.0747 43.3735 42.5618 43.5257 42.9369C43.6026 43.1266 43.6762 43.2917 43.7306 43.4094C43.7578 43.4683 43.7802 43.5155 43.796 43.5481C43.8038 43.5644 43.81 43.577 43.8143 43.5857C43.8164 43.59 43.8181 43.5934 43.8192 43.5957C43.8198 43.5968 43.8202 43.5977 43.8205 43.5984C43.8207 43.5987 43.8208 43.5989 43.8209 43.5991C43.8209 43.5992 43.821 43.5993 43.821 43.5993C43.821 43.5993 43.821 43.5994 43.821 43.5994C43.8211 43.5994 43.8211 43.5994 43.9888 43.5156C44.1565 43.4318 44.1565 43.4318 44.1565 43.4318C44.1565 43.4318 44.1565 43.4318 44.1565 43.4318C44.1565 43.4318 44.1565 43.4317 44.1565 43.4317C44.1564 43.4316 44.1563 43.4315 44.1562 43.4312C44.156 43.4308 44.1557 43.4301 44.1552 43.4291C44.1542 43.4272 44.1528 43.4242 44.1508 43.4203C44.1469 43.4124 44.1411 43.4005 44.1337 43.3851C44.1188 43.3542 44.0972 43.3089 44.071 43.2521C44.0185 43.1384 43.9474 42.9789 43.8732 42.796C43.723 42.4258 43.5667 41.9753 43.5184 41.6156L43.1467 41.6656ZM43.9888 43.5156C43.8626 43.6543 43.8626 43.6543 43.8626 43.6543C43.8626 43.6543 43.8625 43.6542 43.8625 43.6542C43.8625 43.6542 43.8625 43.6542 43.8626 43.6543C43.8626 43.6543 43.8627 43.6544 43.8628 43.6545C43.8631 43.6548 43.8636 43.6553 43.8644 43.6559C43.8658 43.6573 43.8682 43.6594 43.8713 43.6623C43.8776 43.6682 43.8871 43.6772 43.8995 43.6892C43.9245 43.7131 43.9611 43.749 44.0067 43.7957C44.098 43.8892 44.2252 44.0258 44.3671 44.1969C44.652 44.5404 44.9916 45.0169 45.2226 45.558L45.5675 45.4107C45.3172 44.8244 44.9536 44.3166 44.6557 43.9575C44.5063 43.7774 44.3721 43.6332 44.275 43.5337C44.2264 43.4839 44.1869 43.4452 44.1594 43.4188C44.1456 43.4055 44.1348 43.3953 44.1273 43.3883C44.1235 43.3848 44.1206 43.3821 44.1185 43.3802C44.1175 43.3792 44.1167 43.3785 44.1161 43.3779C44.1158 43.3776 44.1155 43.3774 44.1153 43.3773C44.1152 43.3772 44.1152 43.3771 44.1151 43.377C44.1151 43.377 44.115 43.377 44.115 43.377C44.115 43.3769 44.1149 43.3769 43.9888 43.5156ZM45.2226 45.558C45.281 45.6947 45.325 45.8914 45.3546 46.0644C45.369 46.1488 45.3794 46.2238 45.3862 46.2776C45.3896 46.3045 45.392 46.326 45.3936 46.3406C45.3944 46.3479 45.395 46.3535 45.3954 46.3571C45.3956 46.359 45.3957 46.3603 45.3958 46.3612C45.3958 46.3616 45.3959 46.3619 45.3959 46.362C45.3959 46.3621 45.3959 46.3622 45.3959 46.3622C45.3959 46.3622 45.3959 46.3622 45.3959 46.3622C45.3959 46.3622 45.3959 46.3622 45.3959 46.3622C45.3959 46.3622 45.3959 46.3622 45.5825 46.3441C45.7692 46.3261 45.7692 46.326 45.7692 46.326C45.7692 46.326 45.7691 46.326 45.7691 46.326C45.7691 46.3259 45.7691 46.3259 45.7691 46.3258C45.7691 46.3257 45.7691 46.3256 45.7691 46.3254C45.7691 46.325 45.769 46.3245 45.7689 46.3239C45.7688 46.3227 45.7686 46.3209 45.7684 46.3187C45.768 46.3143 45.7673 46.3078 45.7664 46.2997C45.7646 46.2833 45.7619 46.2598 45.7582 46.2308C45.7509 46.1728 45.7398 46.0922 45.7242 46.0011C45.6938 45.8232 45.644 45.5901 45.5675 45.4107L45.2226 45.558ZM45.4299 46.453L46.5549 48.0307L46.8602 47.813L45.7352 46.2353L45.4299 46.453ZM46.5536 48.0289L46.8798 48.4979L47.1877 48.2837L46.8614 47.8148L46.5536 48.0289ZM45.8738 33.4239C45.8144 33.5981 45.7703 33.8216 45.7413 33.9946C45.7266 34.0825 45.7154 34.1601 45.7079 34.2158C45.7041 34.2437 45.7012 34.2662 45.6993 34.2818C45.6983 34.2896 45.6976 34.2957 45.6971 34.2999C45.6968 34.302 45.6966 34.3037 45.6965 34.3048C45.6964 34.3054 45.6964 34.3058 45.6963 34.3061C45.6963 34.3063 45.6963 34.3064 45.6963 34.3065C45.6963 34.3066 45.6963 34.3066 45.6963 34.3066C45.6963 34.3067 45.6963 34.3067 45.6963 34.3067C45.6963 34.3067 45.6963 34.3067 45.8825 34.3281C46.0688 34.3495 46.0688 34.3495 46.0688 34.3495C46.0688 34.3495 46.0688 34.3495 46.0688 34.3495C46.0688 34.3495 46.0688 34.3495 46.0688 34.3495C46.0688 34.3495 46.0688 34.3494 46.0688 34.3493C46.0688 34.3491 46.0689 34.3488 46.0689 34.3484C46.069 34.3475 46.0692 34.3461 46.0694 34.3443C46.0698 34.3407 46.0705 34.3352 46.0714 34.328C46.0732 34.3136 46.0759 34.2925 46.0795 34.2662C46.0866 34.2134 46.0973 34.1397 46.1112 34.0564C46.1395 33.8871 46.1797 33.6887 46.2288 33.5448L45.8738 33.4239ZM45.8825 34.3281C45.6957 34.3127 45.6957 34.3126 45.6957 34.3126C45.6957 34.3126 45.6957 34.3126 45.6957 34.3126C45.6957 34.3126 45.6957 34.3127 45.6957 34.3127C45.6957 34.3128 45.6956 34.3129 45.6956 34.3131C45.6956 34.3134 45.6956 34.314 45.6955 34.3148C45.6953 34.3164 45.6951 34.3189 45.6948 34.3223C45.6942 34.3289 45.6933 34.339 45.6921 34.352C45.6896 34.3781 45.6858 34.4162 45.6805 34.4638C45.6699 34.5591 45.6536 34.6919 45.6304 34.8414C45.5835 35.1447 45.511 35.502 45.4084 35.7585L45.7566 35.8977C45.8759 35.5995 45.9534 35.2069 46.001 34.8988C46.0252 34.7427 46.0422 34.6044 46.0532 34.5051C46.0587 34.4555 46.0627 34.4154 46.0654 34.3876C46.0667 34.3737 46.0677 34.3629 46.0684 34.3554C46.0687 34.3517 46.0689 34.3488 46.0691 34.3468C46.0692 34.3458 46.0693 34.3451 46.0693 34.3445C46.0693 34.3442 46.0694 34.344 46.0694 34.3439C46.0694 34.3438 46.0694 34.3437 46.0694 34.3437C46.0694 34.3436 46.0694 34.3436 46.0694 34.3436C46.0694 34.3436 46.0694 34.3435 45.8825 34.3281ZM55.52 21.3906C55.4146 21.5457 55.4146 21.5457 55.4146 21.5457C55.4146 21.5457 55.4146 21.5457 55.4146 21.5457C55.4146 21.5457 55.4146 21.5457 55.4146 21.5457C55.4147 21.5457 55.4147 21.5457 55.4148 21.5458C55.4149 21.5459 55.4151 21.546 55.4153 21.5462C55.4158 21.5465 55.4166 21.547 55.4177 21.5477C55.4197 21.5492 55.4229 21.5513 55.4269 21.5541C55.4351 21.5597 55.447 21.5679 55.4619 21.5782C55.4916 21.5988 55.5331 21.6278 55.5799 21.6613C55.6745 21.7289 55.787 21.8119 55.8687 21.88L56.1088 21.5919C56.0159 21.5145 55.894 21.4248 55.7979 21.3562C55.7494 21.3215 55.7064 21.2914 55.6755 21.27C55.6601 21.2593 55.6477 21.2508 55.639 21.2448C55.6347 21.2419 55.6314 21.2396 55.6291 21.238C55.6279 21.2372 55.627 21.2366 55.6264 21.2362C55.6261 21.236 55.6259 21.2358 55.6257 21.2357C55.6256 21.2357 55.6256 21.2356 55.6255 21.2356C55.6255 21.2356 55.6255 21.2356 55.6254 21.2355C55.6254 21.2355 55.6254 21.2355 55.6254 21.2355C55.6254 21.2355 55.6254 21.2355 55.52 21.3906ZM55.8775 21.8869C56.3667 22.2474 56.651 22.531 57.2047 22.8638L57.3979 22.5424C56.8602 22.2192 56.636 21.98 56.1 21.585L55.8775 21.8869ZM43.1465 39.8361C43.1332 39.942 43.1337 40.0712 43.1366 40.1675C43.1381 40.217 43.1403 40.2604 43.1422 40.2916C43.1431 40.3072 43.1439 40.3198 43.1446 40.3286C43.1449 40.333 43.1451 40.3364 43.1453 40.3388C43.1454 40.34 43.1455 40.341 43.1455 40.3417C43.1455 40.342 43.1456 40.3423 43.1456 40.3425C43.1456 40.3426 43.1456 40.3427 43.1456 40.3427C43.1456 40.3428 43.1456 40.3428 43.1456 40.3428C43.1456 40.3428 43.1456 40.3428 43.1456 40.3429C43.1456 40.3429 43.1456 40.3429 43.3325 40.3281C43.5194 40.3133 43.5194 40.3133 43.5194 40.3133C43.5194 40.3133 43.5194 40.3133 43.5194 40.3134C43.5194 40.3134 43.5194 40.3134 43.5194 40.3134C43.5194 40.3134 43.5194 40.3133 43.5194 40.3133C43.5194 40.3132 43.5194 40.3131 43.5194 40.3129C43.5194 40.3125 43.5193 40.3118 43.5193 40.3108C43.5191 40.309 43.5189 40.3061 43.5186 40.3023C43.5181 40.2947 43.5173 40.2834 43.5165 40.2692C43.5148 40.2409 43.5128 40.2012 43.5114 40.1562C43.5086 40.0635 43.5091 39.9583 43.5186 39.8826L43.1465 39.8361ZM43.3325 40.3281C43.1457 40.3122 43.1457 40.3123 43.1457 40.3123C43.1457 40.3123 43.1457 40.3123 43.1457 40.3123C43.1457 40.3124 43.1457 40.3124 43.1457 40.3125C43.1457 40.3126 43.1457 40.3128 43.1456 40.313C43.1456 40.3135 43.1455 40.3141 43.1455 40.315C43.1453 40.3167 43.1451 40.3191 43.1449 40.3222C43.1444 40.3285 43.1436 40.3377 43.1428 40.3496C43.141 40.3732 43.1385 40.4073 43.1358 40.4498C43.1304 40.5346 43.1239 40.6531 43.1195 40.7878C43.1109 41.0543 43.1104 41.3954 43.1467 41.6656L43.5184 41.6156C43.4864 41.3778 43.4858 41.0627 43.4943 40.7999C43.4985 40.67 43.5048 40.5556 43.51 40.4737C43.5127 40.4328 43.515 40.4001 43.5167 40.3778C43.5175 40.3666 43.5182 40.358 43.5187 40.3523C43.5189 40.3494 43.5191 40.3473 43.5192 40.3459C43.5193 40.3452 43.5193 40.3447 43.5193 40.3443C43.5193 40.3442 43.5193 40.3441 43.5194 40.344C43.5194 40.344 43.5194 40.344 43.5194 40.3439C43.5194 40.3439 43.5194 40.3439 43.5194 40.3439C43.5194 40.3439 43.5194 40.344 43.3325 40.3281ZM40.9419 22.2929C41.1103 22.3753 41.1103 22.3754 41.1103 22.3754C41.1103 22.3754 41.1103 22.3754 41.1103 22.3754C41.1103 22.3754 41.1103 22.3753 41.1103 22.3753C41.1104 22.3752 41.1105 22.3751 41.1106 22.3749C41.1108 22.3744 41.1111 22.3737 41.1116 22.3727C41.1126 22.3708 41.1141 22.3678 41.1161 22.3637C41.1201 22.3557 41.1262 22.3436 41.1342 22.328C41.1502 22.2966 41.1739 22.251 41.2043 22.1945C41.2652 22.0814 41.3526 21.9255 41.4585 21.7544C41.6736 21.407 41.9533 21.0164 42.2332 20.7852L41.9944 20.496C41.6644 20.7686 41.3581 21.2041 41.1397 21.557C41.0289 21.736 40.9377 21.8987 40.8741 22.0167C40.8423 22.0758 40.8174 22.1238 40.8003 22.1573C40.7917 22.174 40.7851 22.1871 40.7806 22.1961C40.7784 22.2006 40.7766 22.2041 40.7754 22.2065C40.7749 22.2078 40.7744 22.2087 40.7741 22.2094C40.7739 22.2097 40.7738 22.21 40.7737 22.2102C40.7736 22.2103 40.7736 22.2103 40.7735 22.2104C40.7735 22.2104 40.7735 22.2105 40.7735 22.2105C40.7735 22.2105 40.7735 22.2105 40.9419 22.2929ZM60.5585 25.3803C60.8093 25.5827 60.9599 25.6902 61.2327 25.8618L61.4324 25.5444C61.172 25.3806 61.0334 25.2816 60.794 25.0884L60.5585 25.3803ZM61.2235 25.8557L61.8798 26.3244L62.0978 26.0193L61.4415 25.5505L61.2235 25.8557ZM35.8369 66.9723L49.8057 58.3941L49.6094 58.0746L35.6407 66.6527L35.8369 66.9723ZM14.4952 68.6132L28.5162 77.1601L28.7114 76.8399L14.6904 68.293L14.4952 68.6132ZM28.7674 77.1075L35.8924 66.9199L35.5851 66.705L28.4601 76.8925L28.7674 77.1075ZM29.1286 32.625L36.9098 23.9218L36.6302 23.6719L28.849 32.375L29.1286 32.625ZM56.069 45.6538L56.9597 45.2319L56.7991 44.893L55.9085 45.3149L56.069 45.6538ZM56.9597 45.2319L57.8503 44.8101L57.6898 44.4712L56.7991 44.893L56.9597 45.2319ZM59.1763 23.5469C59.024 23.6562 59.024 23.6562 59.024 23.6562C59.024 23.6562 59.024 23.6562 59.024 23.6562C59.024 23.6563 59.024 23.6563 59.024 23.6563C59.0241 23.6564 59.0241 23.6564 59.0242 23.6565C59.0243 23.6567 59.0245 23.657 59.0248 23.6574C59.0253 23.6581 59.026 23.6591 59.027 23.6604C59.0289 23.6631 59.0317 23.667 59.0354 23.672C59.0428 23.6821 59.0535 23.6969 59.0674 23.7157C59.0952 23.7534 59.1356 23.8076 59.1862 23.8741C59.2873 24.007 59.4297 24.1894 59.5948 24.3874L59.8828 24.1473C59.7221 23.9546 59.5833 23.7767 59.4846 23.647C59.4353 23.5822 59.3961 23.5296 59.3693 23.4933C59.3559 23.4751 59.3456 23.461 59.3387 23.4515C59.3353 23.4468 59.3327 23.4432 59.331 23.4409C59.3302 23.4397 59.3295 23.4388 59.3291 23.4383C59.3289 23.438 59.3288 23.4378 59.3287 23.4376C59.3286 23.4376 59.3286 23.4375 59.3286 23.4375C59.3286 23.4375 59.3286 23.4375 59.3286 23.4375C59.3286 23.4375 59.3286 23.4375 59.3286 23.4375C59.3286 23.4375 59.3286 23.4375 59.1763 23.5469ZM59.5948 24.3874C59.8748 24.7233 60.2275 25.1132 60.5585 25.3803L60.794 25.0884C60.4928 24.8454 60.1592 24.4789 59.8828 24.1473L59.5948 24.3874Z" fill="#725050" mask="url(#path-2-inside-1_144_78)"/>
</g>
</g>
<g filter="url(#filter4_d_144_78)">
<path d="M50 70.7978C50 70.7978 56.5 71.7978 56 66.2978C55.5 60.7978 63.5 65.2978 62.5 60.7978C61.5 56.2978 67 56.2978 69 55.7978C71 55.2978 69.7051 51.5927 71.5 49.7978C73.2949 48.0028 76.5 49.7976 76.5 49.7976" stroke="#725050" stroke-width="2"/>
</g>
<g filter="url(#filter5_d_144_78)">
<path d="M15 35.7978C15 35.7978 21.5 36.7978 21 31.2978C20.5 25.7978 28.5 30.2978 27.5 25.7978C26.5 21.2978 32 21.2978 34 20.7978C36 20.2978 34.7051 16.5927 36.5 14.7978C38.2949 13.0028 41.5 14.7976 41.5 14.7976" stroke="#725050" stroke-width="2"/>
</g>
</g>
<defs>
<filter id="filter0_dd_144_78" x="0" y="0" width="91" height="98" filterUnits="userSpaceOnUse" color-interpolation-filters="sRGB">
<feFlood flood-opacity="0" result="BackgroundImageFix"/>
<feColorMatrix in="SourceAlpha" type="matrix" values="0 0 0 0 0 0 0 0 0 0 0 0 0 0 0 0 0 0 127 0" result="hardAlpha"/>
<feOffset dy="4"/>
<feGaussianBlur stdDeviation="2"/>
<feComposite in2="hardAlpha" operator="out"/>
<feColorMatrix type="matrix" values="0 0 0 0 0 0 0 0 0 0 0 0 0 0 0 0 0 0 0.25 0"/>
<feBlend mode="normal" in2="BackgroundImageFix" result="effect1_dropShadow_144_78"/>
<feColorMatrix in="SourceAlpha" type="matrix" values="0 0 0 0 0 0 0 0 0 0 0 0 0 0 0 0 0 0 127 0" result="hardAlpha"/>
<feOffset dy="4"/>
<feGaussianBlur stdDeviation="2"/>
<feComposite in2="hardAlpha" operator="out"/>
<feColorMatrix type="matrix" values="0 0 0 0 0 0 0 0 0 0 0 0 0 0 0 0 0 0 0.25 0"/>
<feBlend mode="normal" in2="effect1_dropShadow_144_78" result="effect2_dropShadow_144_78"/>
<feBlend mode="normal" in="SourceGraphic" in2="effect2_dropShadow_144_78" result="shape"/>
</filter>
<filter id="filter1_d_144_78" x="0" y="0" width="91" height="98" filterUnits="userSpaceOnUse" color-interpolation-filters="sRGB">
<feFlood flood-opacity="0" result="BackgroundImageFix"/>
<feColorMatrix in="SourceAlpha" type="matrix" values="0 0 0 0 0 0 0 0 0 0 0 0 0 0 0 0 0 0 127 0" result="hardAlpha"/>
<feOffset dy="4"/>
<feGaussianBlur stdDeviation="2"/>
<feComposite in2="hardAlpha" operator="out"/>
<feColorMatrix type="matrix" values="0 0 0 0 0 0 0 0 0 0 0 0 0 0 0 0 0 0 0.25 0"/>
<feBlend mode="normal" in2="BackgroundImageFix" result="effect1_dropShadow_144_78"/>
<feBlend mode="normal" in="SourceGraphic" in2="effect1_dropShadow_144_78" result="shape"/>
</filter>
<filter id="filter2_dd_144_78" x="10.5928" y="19.5" width="59.9326" height="65.5" filterUnits="userSpaceOnUse" color-interpolation-filters="sRGB">
<feFlood flood-opacity="0" result="BackgroundImageFix"/>
<feColorMatrix in="SourceAlpha" type="matrix" values="0 0 0 0 0 0 0 0 0 0 0 0 0 0 0 0 0 0 127 0" result="hardAlpha"/>
<feOffset dy="4"/>
<feGaussianBlur stdDeviation="2"/>
<feComposite in2="hardAlpha" operator="out"/>
<feColorMatrix type="matrix" values="0 0 0 0 0 0 0 0 0 0 0 0 0 0 0 0 0 0 0.25 0"/>
<feBlend mode="normal" in2="BackgroundImageFix" result="effect1_dropShadow_144_78"/>
<feColorMatrix in="SourceAlpha" type="matrix" values="0 0 0 0 0 0 0 0 0 0 0 0 0 0 0 0 0 0 127 0" result="hardAlpha"/>
<feOffset dy="4"/>
<feGaussianBlur stdDeviation="2"/>
<feComposite in2="hardAlpha" operator="out"/>
<feColorMatrix type="matrix" values="0 0 0 0 0 0 0 0 0 0 0 0 0 0 0 0 0 0 0.25 0"/>
<feBlend mode="normal" in2="effect1_dropShadow_144_78" result="effect2_dropShadow_144_78"/>
<feBlend mode="normal" in="SourceGraphic" in2="effect2_dropShadow_144_78" result="shape"/>
</filter>
<filter id="filter3_dd_144_78" x="10.5928" y="19.5" width="59.9326" height="65.5" filterUnits="userSpaceOnUse" color-interpolation-filters="sRGB">
<feFlood flood-opacity="0" result="BackgroundImageFix"/>
<feColorMatrix in="SourceAlpha" type="matrix" values="0 0 0 0 0 0 0 0 0 0 0 0 0 0 0 0 0 0 127 0" result="hardAlpha"/>
<feOffset dy="4"/>
<feGaussianBlur stdDeviation="2"/>
<feComposite in2="hardAlpha" operator="out"/>
<feColorMatrix type="matrix" values="0 0 0 0 0 0 0 0 0 0 0 0 0 0 0 0 0 0 0.25 0"/>
<feBlend mode="normal" in2="BackgroundImageFix" result="effect1_dropShadow_144_78"/>
<feColorMatrix in="SourceAlpha" type="matrix" values="0 0 0 0 0 0 0 0 0 0 0 0 0 0 0 0 0 0 127 0" result="hardAlpha"/>
<feOffset dy="4"/>
<feGaussianBlur stdDeviation="2"/>
<feComposite in2="hardAlpha" operator="out"/>
<feColorMatrix type="matrix" values="0 0 0 0 0 0 0 0 0 0 0 0 0 0 0 0 0 0 0.25 0"/>
<feBlend mode="normal" in2="effect1_dropShadow_144_78" result="effect2_dropShadow_144_78"/>
<feBlend mode="normal" in="SourceGraphic" in2="effect2_dropShadow_144_78" result="shape"/>
</filter>
<filter id="filter4_d_144_78" x="45.8489" y="48.0007" width="35.1392" height="31.8682" filterUnits="userSpaceOnUse" color-interpolation-filters="sRGB">
<feFlood flood-opacity="0" result="BackgroundImageFix"/>
<feColorMatrix in="SourceAlpha" type="matrix" values="0 0 0 0 0 0 0 0 0 0 0 0 0 0 0 0 0 0 127 0" result="hardAlpha"/>
<feOffset dy="4"/>
<feGaussianBlur stdDeviation="2"/>
<feComposite in2="hardAlpha" operator="out"/>
<feColorMatrix type="matrix" values="0 0 0 0 0 0 0 0 0 0 0 0 0 0 0 0 0 0 0.25 0"/>
<feBlend mode="normal" in2="BackgroundImageFix" result="effect1_dropShadow_144_78"/>
<feBlend mode="normal" in="SourceGraphic" in2="effect1_dropShadow_144_78" result="shape"/>
</filter>
<filter id="filter5_d_144_78" x="10.8489" y="13.0007" width="35.1392" height="31.8682" filterUnits="userSpaceOnUse" color-interpolation-filters="sRGB">
<feFlood flood-opacity="0" result="BackgroundImageFix"/>
<feColorMatrix in="SourceAlpha" type="matrix" values="0 0 0 0 0 0 0 0 0 0 0 0 0 0 0 0 0 0 127 0" result="hardAlpha"/>
<feOffset dy="4"/>
<feGaussianBlur stdDeviation="2"/>
<feComposite in2="hardAlpha" operator="out"/>
<feColorMatrix type="matrix" values="0 0 0 0 0 0 0 0 0 0 0 0 0 0 0 0 0 0 0.25 0"/>
<feBlend mode="normal" in2="BackgroundImageFix" result="effect1_dropShadow_144_78"/>
<feBlend mode="normal" in="SourceGraphic" in2="effect1_dropShadow_144_78" result="shape"/>
</filter>
</defs>
</svg>
