<svg width="91" height="98" viewBox="0 0 91 98" fill="none" xmlns="http://www.w3.org/2000/svg">
<g filter="url(#filter0_dd_163_388)">
<ellipse cx="45.5" cy="45" rx="41.5" ry="45" fill="#D9D9D9"/>
</g>
<g filter="url(#filter1_dd_163_388)">
<path d="M32.3704 70.259V67.8965V65.759C32.3704 65.759 31.6338 65.3104 31.3579 64.859C31.0745 64.3954 31.284 64.1681 31.0204 63.509L30.3454 61.8215C30.0818 61.1625 29.7869 60.4115 29.6704 59.459C29.5797 58.7177 29.6704 58.2934 29.6704 57.5465C29.6704 56.7557 29.7225 56.3106 29.6704 55.5215C29.5972 54.4116 29.3725 53.8109 29.2204 52.709C29.0632 51.57 28.9417 50.9324 28.8829 49.784C28.8357 48.8626 28.7706 48.3373 28.8829 47.4215C29.0217 46.2894 29.3668 45.7085 29.6704 44.609C29.9371 43.6433 30.3454 42.134 30.3454 42.134L30.6829 41.234C30.7947 40.8757 30.8691 40.6776 31.0204 40.334C31.4185 39.4306 31.5646 38.767 32.3704 38.1965C32.6911 37.9695 33.0754 38.0877 33.2704 37.7465C33.4448 37.4414 33.3147 37.1952 33.2704 36.8465C33.2126 36.3915 32.9625 36.1793 32.9329 35.7215C32.895 35.1366 33.0299 34.7936 33.2704 34.259C33.5408 33.6581 33.8386 33.3957 34.2829 32.909C34.4924 32.6796 34.6869 32.6137 34.8454 32.3465C35.0086 32.0715 34.9825 31.8666 35.0704 31.559V29.084V25.8215V24.584C35.0704 24.584 34.7943 23.4188 34.6204 22.6715C34.4875 22.1006 34.3681 21.789 34.2829 21.209C34.1296 20.1658 34.2036 19.5605 34.2829 18.509C34.353 17.5797 34.2505 17.002 34.6204 16.1465C34.8961 15.5089 35.0987 15.1281 35.6329 14.684C36.0862 14.3073 36.3955 14.058 36.9829 14.009C37.6902 13.9501 38.1035 14.2569 38.6704 14.684C39.2459 15.1177 39.4017 15.543 39.7954 16.1465C40.2571 16.8543 40.5086 17.2687 40.8079 18.059C41.2504 19.2277 41.199 19.9712 41.3704 21.209C41.5641 22.6077 41.4955 23.4131 41.7079 24.809C41.9036 26.0953 42.1873 26.7853 42.3829 28.0715C42.5159 28.946 42.5411 29.4429 42.6425 30.3215L42.7204 30.9965C42.7204 30.9965 42.4843 32.9738 43.2829 33.6965C43.6471 34.0262 43.9308 34.1422 44.4079 34.259C44.92 34.3845 45.2307 34.259 45.7579 34.259V33.6965C45.7579 33.6965 45.7336 32.5991 45.7579 31.8965C45.8037 30.5727 45.9023 29.832 46.0954 28.5215C46.1733 27.9928 46.2325 27.6988 46.3204 27.1715C46.4083 26.6443 46.4861 26.3527 46.5454 25.8215C46.6672 24.73 46.5454 24.1074 46.5454 23.009V19.5215V16.8215C46.5454 15.6353 46.3561 14.9551 46.5454 13.784C46.6764 12.9738 46.8197 12.5275 47.1079 11.759C47.3633 11.0781 47.3752 10.5797 47.8954 10.0715C48.6121 9.37148 49.3738 9.29409 50.3704 9.39654C51.3477 9.49701 51.9425 9.81052 52.6204 10.5215C53.2835 11.2171 53.4209 11.8282 53.6312 12.764L53.6329 12.7715C53.8641 13.8003 53.6329 14.4171 53.6329 15.4715V19.5215V20.1965C53.6329 20.1965 53.6929 21.7069 53.6329 22.6715C53.5558 23.9118 53.1829 25.8215 53.1829 25.8215V27.1715V29.084V31.8965V34.259H54.0829C54.34 33.8594 54.4878 33.6376 54.7579 33.2465C55.2223 32.5741 55.545 32.2409 55.9954 31.559C56.473 30.836 56.7833 30.4448 57.1204 29.6465C57.2745 29.2817 57.3261 29.0637 57.4579 28.6903C57.5897 28.3169 57.6642 28.1077 57.7954 27.734C58.196 26.5936 58.8079 24.809 58.8079 24.809C58.8079 24.809 59.2768 23.9409 59.4829 23.3465C59.8473 22.2956 59.672 21.6153 59.9329 20.534C60.1709 19.5481 60.4381 19.0333 60.7204 18.059C61.011 17.056 60.9544 16.4182 61.3954 15.4715C61.6786 14.8636 61.7281 14.3668 62.2954 14.009C62.821 13.6776 63.8704 13.784 63.8704 13.784C63.8704 13.784 64.9742 13.6908 65.5579 14.009C66.4048 14.4707 66.5067 15.2262 66.7954 16.1465C67.1899 17.4041 66.7954 19.5215 66.7954 19.5215L66.4579 23.009C66.4579 23.009 66.1726 24.7215 66.0079 25.8215C65.8174 27.0935 65.7679 27.8151 65.5579 29.084C65.434 29.833 65.346 30.2497 65.2102 30.9965L65.1079 31.559C65.1079 31.559 64.4617 33.6765 64.0954 35.0465C63.8146 36.0965 63.4204 37.7465 63.4204 37.7465L63.0387 39.884L62.8579 40.8965C62.8579 40.8965 62.583 42.5586 62.2954 43.5965C62.0097 44.6276 61.7059 45.1602 61.3954 46.184C61.0923 47.1834 60.9877 47.762 60.7204 48.7715C60.4176 49.9151 60.3225 50.5796 59.9329 51.6965C59.473 53.0149 59.0066 53.6699 58.4704 54.959C58.0537 55.9609 57.8104 56.5203 57.4579 57.5465C56.9835 58.9278 56.9142 59.7634 56.4454 61.1465C56.0212 62.3983 55.7692 63.1 55.2079 64.2965C54.8073 65.1506 54.3929 65.5431 54.0829 66.434C53.7316 67.4436 53.7146 68.0682 53.6329 69.134C53.5624 70.054 53.6329 70.5739 53.6329 71.4965C53.6329 72.7267 54.5384 73.8138 53.6329 74.6465C53.2125 75.0332 52.8175 75.008 52.2829 75.209C51.4635 75.5172 50.9871 75.6436 50.1454 75.884C48.8851 76.244 48.1732 76.4413 46.8829 76.6715C45.8797 76.8505 45.3122 76.9419 44.2954 77.009C43.2433 77.0785 42.6498 77.009 41.5954 77.009C40.6289 77.009 40.084 77.084 39.1204 77.009C38.2346 76.9402 37.7479 76.8109 36.8704 76.6715C36.0786 76.5458 35.6353 76.4711 34.8454 76.334C33.8775 76.1661 32.7697 76.7816 32.3704 75.884C32.174 75.4425 32.3704 75.1298 32.3704 74.6465V72.734V70.259Z" fill="#ECCCC0"/>
<path d="M66.4579 23.009C66.4579 23.009 66.1726 24.7215 66.0079 25.8215C65.8174 27.0935 65.7679 27.8151 65.5579 29.084C65.434 29.833 65.346 30.2497 65.2102 30.9965M66.4579 23.009C66.5897 21.6471 66.6636 20.8835 66.7954 19.5215C66.7954 19.5215 67.1899 17.4041 66.7954 16.1465C66.5067 15.2262 66.4048 14.4707 65.5579 14.009C64.9742 13.6908 63.8704 13.784 63.8704 13.784C63.8704 13.784 62.821 13.6776 62.2954 14.009C61.7281 14.3668 61.6786 14.8636 61.3954 15.4715C60.9544 16.4182 61.011 17.056 60.7204 18.059C60.4381 19.0333 60.1709 19.5481 59.9329 20.534C59.672 21.6153 59.8473 22.2956 59.4829 23.3465C59.2768 23.9409 58.8079 24.809 58.8079 24.809C58.8079 24.809 58.196 26.5936 57.7954 27.734C57.6642 28.1077 57.5897 28.3169 57.4579 28.6903M66.4579 23.009C65.7989 23.009 65.4294 23.009 64.7704 23.009C64.1114 23.009 63.9494 22.9039 63.4204 22.895C62.76 22.8839 62.393 22.9861 61.7329 23.009C61.0304 23.0335 59.9329 23.009 59.9329 23.009M54.0829 34.259C54.34 33.8594 54.4878 33.6376 54.7579 33.2465C55.2223 32.5741 55.545 32.2409 55.9954 31.559C56.473 30.836 56.7833 30.4448 57.1204 29.6465C57.2745 29.2817 57.3261 29.0637 57.4579 28.6903M54.0829 34.259C54.0829 34.259 53.5344 34.259 53.1829 34.259M54.0829 34.259C55.0055 34.4348 55.5225 34.5348 56.4454 34.709C57.1482 34.8417 57.5587 34.8466 58.2454 35.0465C58.9269 35.2449 59.3159 35.3707 59.9329 35.7215C60.5593 36.0777 60.909 36.3149 61.3954 36.8465C61.8231 37.314 61.9877 37.6426 62.2954 38.1965C62.6451 38.8261 62.7484 39.225 63.0387 39.884M53.1829 34.259V31.8965C53.1829 31.8965 53.1829 30.1824 53.1829 29.084C53.1829 28.3372 53.1829 27.9184 53.1829 27.1715M53.1829 34.259C52.7875 34.259 52.1704 34.259 52.1704 34.259H49.9204C49.9204 34.259 48.6862 34.259 47.8954 34.259C47.0607 34.259 46.5927 34.259 45.7579 34.259M46.5454 19.5215C46.5454 18.4671 46.5454 17.876 46.5454 16.8215C46.5454 15.6353 46.3561 14.9551 46.5454 13.784C46.6764 12.9738 46.8197 12.5275 47.1079 11.759C47.3633 11.0781 47.3752 10.5797 47.8954 10.0715C48.6121 9.37148 49.3738 9.29409 50.3704 9.39654C51.3476 9.49701 51.9425 9.81052 52.6204 10.5215C53.2853 11.2189 53.4216 11.8314 53.6329 12.7715C53.8641 13.8003 53.6329 14.4171 53.6329 15.4715C53.6329 17.0532 53.6329 19.5215 53.6329 19.5215V20.1965M46.5454 19.5215C46.5454 20.8835 46.5454 21.6471 46.5454 23.009C46.5454 24.1074 46.6672 24.73 46.5454 25.8215C46.4861 26.3527 46.4083 26.6443 46.3204 27.1715M46.5454 19.5215C47.0532 19.3279 47.3562 19.2521 47.8954 19.184C48.4621 19.1125 49.3579 19.184 49.3579 19.184C49.973 19.184 50.9329 19.184 50.9329 19.184L52.1704 19.5215L53.6329 20.1965M45.7579 34.259C45.7579 34.0394 45.7579 33.6965 45.7579 33.6965C45.7579 33.6965 45.7336 32.5991 45.7579 31.8965C45.8037 30.5727 45.9023 29.832 46.0954 28.5215C46.1733 27.9928 46.2325 27.6988 46.3204 27.1715M45.7579 34.259C45.2307 34.259 44.92 34.3845 44.4079 34.259C43.9308 34.1422 43.6471 34.0262 43.2829 33.6965C42.4843 32.9738 42.7204 30.9965 42.7204 30.9965L42.6425 30.3215M35.0704 31.559C35.0704 30.5925 35.0704 30.0506 35.0704 29.084C35.0704 27.81 35.0704 27.0956 35.0704 25.8215C35.0704 25.3383 35.0704 24.584 35.0704 24.584C35.0704 24.584 34.7943 23.4188 34.6204 22.6715C34.4875 22.1006 34.3681 21.789 34.2829 21.209C34.1296 20.1658 34.2036 19.5605 34.2829 18.509C34.353 17.5797 34.2505 17.002 34.6204 16.1465C34.8961 15.5089 35.0987 15.1281 35.6329 14.684C36.0862 14.3073 36.3955 14.058 36.9829 14.009C37.6902 13.9501 38.1035 14.2569 38.6704 14.684C39.2459 15.1177 39.4017 15.543 39.7954 16.1465C40.2571 16.8543 40.5086 17.2687 40.8079 18.059C41.2504 19.2277 41.199 19.9712 41.3704 21.209C41.5641 22.6077 41.4955 23.4131 41.7079 24.809C41.9036 26.0953 42.1873 26.7853 42.3829 28.0715C42.5159 28.946 42.5411 29.4429 42.6425 30.3215M35.0704 31.559C34.9825 31.8666 35.0086 32.0715 34.8454 32.3465C34.6869 32.6137 34.4924 32.6796 34.2829 32.909C33.8386 33.3957 33.5408 33.6581 33.2704 34.259C33.0299 34.7936 32.895 35.1366 32.9329 35.7215C32.9625 36.1793 33.2126 36.3915 33.2704 36.8465C33.3147 37.1952 33.4448 37.4414 33.2704 37.7465C33.0754 38.0877 32.6911 37.9695 32.3704 38.1965C31.5646 38.767 31.4185 39.4306 31.0204 40.334C30.8691 40.6776 30.7947 40.8757 30.6829 41.234M35.0704 31.559C35.7733 31.3394 36.1738 31.2356 36.8704 30.9965C37.5805 30.7529 37.9499 30.5324 38.6704 30.3215C39.233 30.1569 39.5504 30.0495 40.1329 29.984C40.7005 29.9203 41.0333 29.8828 41.5954 29.984C42.0182 30.0602 42.2336 30.1897 42.6425 30.3215M32.3704 65.759C32.3704 65.759 31.6338 65.3104 31.3579 64.859C31.0745 64.3954 31.284 64.1681 31.0204 63.509C30.7568 62.85 30.609 62.4806 30.3454 61.8215C30.0818 61.1625 29.7869 60.4115 29.6704 59.459C29.5797 58.7177 29.6704 58.2934 29.6704 57.5465C29.6704 56.7557 29.7225 56.3106 29.6704 55.5215C29.5972 54.4116 29.3725 53.8109 29.2204 52.709C29.0632 51.57 28.9417 50.9324 28.8829 49.784C28.8357 48.8626 28.7706 48.3373 28.8829 47.4215C29.0217 46.2894 29.3668 45.7085 29.6704 44.609C29.9371 43.6433 30.3454 42.134 30.3454 42.134C30.3454 42.134 30.5511 41.5855 30.6829 41.234M32.3704 65.759V67.8965C32.3704 67.8965 32.3704 69.3364 32.3704 70.259C32.3704 71.2256 32.3704 71.7675 32.3704 72.734C32.3704 73.4809 32.3704 73.8997 32.3704 74.6465C32.3704 75.1298 32.174 75.4425 32.3704 75.884C32.7697 76.7816 33.8775 76.1661 34.8454 76.334C35.6353 76.4711 36.0786 76.5458 36.8704 76.6715C37.7479 76.8109 38.2346 76.9402 39.1204 77.009C40.084 77.084 40.6289 77.009 41.5954 77.009C42.6498 77.009 43.2433 77.0785 44.2954 77.009C45.3122 76.9419 45.8797 76.8505 46.8829 76.6715C48.1732 76.4413 48.8851 76.244 50.1454 75.884C50.9871 75.6436 51.4635 75.5172 52.2829 75.209C52.8175 75.008 53.2125 75.0332 53.6329 74.6465C54.5384 73.8138 53.6329 72.7267 53.6329 71.4965C53.6329 70.5739 53.5624 70.054 53.6329 69.134C53.7146 68.0682 53.7316 67.4436 54.0829 66.434C54.3929 65.5431 54.8073 65.1506 55.2079 64.2965C55.7692 63.1 56.0212 62.3983 56.4454 61.1465C56.9142 59.7634 56.9835 58.9278 57.4579 57.5465C57.8104 56.5203 58.0537 55.9609 58.4704 54.959C59.0066 53.6699 59.473 53.0149 59.9329 51.6965C60.3225 50.5796 60.4176 49.9151 60.7204 48.7715C60.9877 47.762 61.0923 47.1834 61.3954 46.184C61.7059 45.1602 62.0097 44.6276 62.2954 43.5965C62.583 42.5586 62.8579 40.8965 62.8579 40.8965L63.0387 39.884M32.3704 65.759C32.3704 65.759 33.2202 66.2916 33.8329 66.434C34.5176 66.5932 34.9313 66.4769 35.6329 66.434C36.5632 66.3772 37.1669 66.5233 37.9954 66.0965C38.4956 65.8389 38.7352 65.6066 39.1204 65.1965C39.4212 64.8763 39.7954 64.2965 39.7954 64.2965M57.4579 28.6903C58.1169 28.6244 58.4835 28.5444 59.1454 28.5215C60.1574 28.4866 60.7338 28.5254 61.7329 28.6903C62.4006 28.8005 62.8398 28.7365 63.4204 29.084C63.7148 29.2603 64.0954 29.6465 64.0954 29.6465C64.0954 29.6465 64.7748 30.4693 65.2102 30.9965M65.2102 30.9965C65.1702 31.2162 65.1079 31.559 65.1079 31.559C65.1079 31.559 64.4617 33.6765 64.0954 35.0465C63.8146 36.0965 63.4204 37.7465 63.4204 37.7465C63.4204 37.7465 63.1878 39.0493 63.0387 39.884M46.3204 27.1715C46.8637 26.7808 47.2378 26.6204 47.8954 26.4965C48.4567 26.3908 49.3579 26.4965 49.3579 26.4965C49.3579 26.4965 49.975 26.4965 50.3704 26.4965C51.0734 26.4965 51.5107 26.2539 52.1704 26.4965C52.6164 26.6606 52.7875 26.9079 53.1829 27.1715M53.1829 27.1715C53.1829 26.6443 53.1829 25.8215 53.1829 25.8215C53.1829 25.8215 53.5558 23.9118 53.6329 22.6715C53.6929 21.7069 53.6329 20.1965 53.6329 20.1965M35.0704 24.134C35.7733 23.9583 36.2083 23.9783 36.8704 23.684C37.3386 23.476 37.5978 23.3321 37.9954 23.009C38.2847 22.774 38.6704 22.334 38.6704 22.334M41.7079 50.7965C41.7079 50.7965 40.6249 51.8759 40.1329 52.709C39.5393 53.7142 39.2824 54.3655 39.1204 55.5215C39.0107 56.3047 39.1204 56.7557 39.1204 57.5465C39.1204 59.0842 38.571 60.0478 39.1204 61.484C39.46 62.3718 39.8258 62.8106 40.4704 63.509C40.4704 63.509 41.7187 64.7461 42.7204 65.1965L45.1954 65.759C45.1954 65.759 46.7092 66.434 47.8954 66.434C49.0816 66.434 49.7467 66.434 50.9329 66.434C52.1191 66.434 52.4323 66.2864 53.1829 65.759C54.2129 65.0353 54.2156 64.0826 54.7579 62.9465C55.1481 62.1292 55.3672 61.6669 55.6579 60.809C56.1335 59.4054 56.3108 58.5725 56.4454 57.0965C56.5491 55.959 56.4104 55.3133 56.4454 54.1715C56.4981 52.4539 56.9691 51.4924 56.7829 49.784C56.6455 48.5235 56.4674 47.811 55.9954 46.634M55.9954 46.634C55.2485 45.6236 54.9792 44.9272 54.0829 44.0465C53.6716 43.6424 52.9579 43.0903 52.9579 43.0903M55.9954 46.634C55.6879 46.9416 55.2079 47.4215 55.2079 47.4215L54.7579 47.984C54.3533 48.4555 53.6329 49.109 53.6329 49.109M39.7954 32.3465C40.4983 32.8738 41.5954 33.6965 41.5954 33.6965L43.2829 34.259L45.1954 35.384L46.1517 35.7215M39.7954 32.3465C38.6531 32.1708 38.0036 31.6694 36.8704 31.8965C36.0035 32.0703 35.3952 32.2166 34.8454 32.909C34.4902 33.3563 34.3949 33.699 34.2829 34.259C34.1709 34.8191 34.2829 35.1504 34.2829 35.7215M39.7954 32.3465V33.6965C39.7954 33.6965 39.4258 34.5424 39.1204 35.0465C38.9563 35.3175 39.1537 35.4579 38.6704 35.7215C38.1871 35.9851 37.4329 36.3965 37.4329 36.3965C37.4329 36.3965 36.6733 36.4686 36.1954 36.3965C35.7418 36.3282 35.5002 36.2194 35.0704 36.059C34.7569 35.9421 34.5838 35.8679 34.2829 35.7215M37.9954 40.8965L36.1954 39.209L34.6204 37.7465L34.2829 36.059C34.2829 36.059 34.2829 35.8533 34.2829 35.7215M37.9954 40.8965L39.1204 41.459L41.3704 42.134L42.7204 43.1465C42.7204 43.1465 43.0632 43.6951 43.2829 44.0465M37.9954 40.8965L37.4329 41.459L36.5329 41.909L35.6329 42.584M43.2829 44.0465C43.7222 44.2662 43.9686 44.3894 44.4079 44.609M43.2829 44.0465C43.2829 44.7056 43.2829 45.075 43.2829 45.734M43.2829 45.734C43.6783 46.3931 43.6529 46.9998 44.2954 47.4215C44.3385 47.4499 44.4079 47.4908 44.4079 47.4908M43.2829 45.734C43.2829 46.2173 43.2829 46.9715 43.2829 46.9715C43.1802 47.5334 43.0327 47.8434 42.7204 48.3215C42.4989 48.6607 42.3871 48.8916 42.0454 49.109C41.4153 49.51 40.1329 49.109 40.1329 49.109C40.1329 49.109 38.8176 48.4464 37.9954 47.984C36.8263 47.3267 36.0284 47.1227 35.0704 46.184C34.5117 45.6366 34.3457 45.1997 33.8329 44.609C33.2931 43.9873 32.9337 43.6908 32.3704 43.0903C31.7002 42.3758 31.3419 41.959 30.6829 41.234M45.7579 48.3215C45.7579 48.3215 44.9351 47.8152 44.4079 47.4908M44.4079 47.4908C44.4079 47.4908 44.5888 48.3148 44.8579 48.7715C45.1265 49.2273 45.3726 49.4216 45.7579 49.784C46.2379 50.2356 46.5874 50.3923 47.1079 50.7965C47.5523 51.1417 47.7073 51.4957 48.2329 51.6965C48.8485 51.9318 49.3048 51.9318 49.9204 51.6965M49.5267 39.0403L50.3704 40.334L51.8329 42.134L52.9579 43.0903M49.5267 39.0403L48.6829 37.7465L47.1079 36.059L46.1517 35.7215M49.5267 39.0403C49.5267 39.0403 50.4186 38.8929 50.9329 38.6465C51.4718 38.3884 51.706 38.1226 52.1704 37.7465C52.5815 37.4136 53.1829 36.8465 53.1829 36.8465M52.9579 43.0903L54.0829 42.8372M57.9611 40.8965C57.9611 40.8965 57.1379 41.5623 56.5579 41.909C56.052 42.2115 55.2079 42.584 55.2079 42.584L54.0829 42.8372M55.6579 45.3965C56.4372 45.7434 56.855 46.0306 57.4579 46.634C57.9237 47.1002 58.4704 47.984 58.4704 47.984M54.0829 42.8372C54.0829 42.8372 55.1989 43.49 55.9954 43.5965C56.4309 43.6548 56.6832 43.6394 57.1204 43.5965C57.5663 43.5528 58.2454 43.3715 58.2454 43.3715M42.3829 39.884L43.2829 39.0403L44.4079 38.1965L45.1954 37.184L45.7579 36.3965L46.1517 35.7215M35.0704 57.0965C35.0704 57.0965 36.1508 56.117 36.8704 55.5215C37.3039 55.1628 37.6349 55.0535 37.9954 54.6215C38.3481 54.1989 38.4002 53.8637 38.6704 53.384C38.9699 52.8522 39.1584 52.5658 39.4579 52.034C39.7281 51.5544 39.8759 51.2834 40.1329 50.7965M40.4704 45.059C39.9276 45.0338 39.5894 45.122 39.1204 45.3965C38.9308 45.5075 38.8032 45.559 38.6704 45.734C38.3783 46.1191 38.3916 46.5768 38.6704 46.9715C38.8748 47.2608 39.1257 47.2988 39.4579 47.4215C40.1585 47.6804 40.6872 47.7232 41.3704 47.4215L42.0454 46.9715C42.0454 46.9715 42.3375 46.1191 42.0454 45.734C41.9126 45.559 41.7849 45.5076 41.5954 45.3965C41.1997 45.1646 40.9286 45.0804 40.4704 45.059Z" stroke="#725050" stroke-width="0.3"/>
</g>
<defs>
<filter id="filter0_dd_163_388" x="0" y="0" width="91" height="98" filterUnits="userSpaceOnUse" color-interpolation-filters="sRGB">
<feFlood flood-opacity="0" result="BackgroundImageFix"/>
<feColorMatrix in="SourceAlpha" type="matrix" values="0 0 0 0 0 0 0 0 0 0 0 0 0 0 0 0 0 0 127 0" result="hardAlpha"/>
<feOffset dy="4"/>
<feGaussianBlur stdDeviation="2"/>
<feComposite in2="hardAlpha" operator="out"/>
<feColorMatrix type="matrix" values="0 0 0 0 0 0 0 0 0 0 0 0 0 0 0 0 0 0 0.25 0"/>
<feBlend mode="normal" in2="BackgroundImageFix" result="effect1_dropShadow_163_388"/>
<feColorMatrix in="SourceAlpha" type="matrix" values="0 0 0 0 0 0 0 0 0 0 0 0 0 0 0 0 0 0 127 0" result="hardAlpha"/>
<feOffset dy="4"/>
<feGaussianBlur stdDeviation="2"/>
<feComposite in2="hardAlpha" operator="out"/>
<feColorMatrix type="matrix" values="0 0 0 0 0 0 0 0 0 0 0 0 0 0 0 0 0 0 0.25 0"/>
<feBlend mode="normal" in2="effect1_dropShadow_163_388" result="effect2_dropShadow_163_388"/>
<feBlend mode="normal" in="SourceGraphic" in2="effect2_dropShadow_163_388" result="shape"/>
</filter>
<filter id="filter1_dd_163_388" x="24.6709" y="9.20972" width="46.45" height="75.9825" filterUnits="userSpaceOnUse" color-interpolation-filters="sRGB">
<feFlood flood-opacity="0" result="BackgroundImageFix"/>
<feColorMatrix in="SourceAlpha" type="matrix" values="0 0 0 0 0 0 0 0 0 0 0 0 0 0 0 0 0 0 127 0" result="hardAlpha"/>
<feOffset dy="4"/>
<feGaussianBlur stdDeviation="2"/>
<feComposite in2="hardAlpha" operator="out"/>
<feColorMatrix type="matrix" values="0 0 0 0 0 0 0 0 0 0 0 0 0 0 0 0 0 0 0.25 0"/>
<feBlend mode="normal" in2="BackgroundImageFix" result="effect1_dropShadow_163_388"/>
<feColorMatrix in="SourceAlpha" type="matrix" values="0 0 0 0 0 0 0 0 0 0 0 0 0 0 0 0 0 0 127 0" result="hardAlpha"/>
<feOffset dy="4"/>
<feGaussianBlur stdDeviation="2"/>
<feComposite in2="hardAlpha" operator="out"/>
<feColorMatrix type="matrix" values="0 0 0 0 0 0 0 0 0 0 0 0 0 0 0 0 0 0 0.25 0"/>
<feBlend mode="normal" in2="effect1_dropShadow_163_388" result="effect2_dropShadow_163_388"/>
<feBlend mode="normal" in="SourceGraphic" in2="effect2_dropShadow_163_388" result="shape"/>
</filter>
</defs>
</svg>
