<svg width="91" height="98" viewBox="0 0 91 98" fill="none" xmlns="http://www.w3.org/2000/svg">
<g filter="url(#filter0_dd_163_380)">
<g filter="url(#filter1_d_163_380)">
<g filter="url(#filter2_d_163_380)">
<ellipse cx="45.5" cy="45" rx="41.5" ry="45" fill="#D9D9D9"/>
</g>
</g>
<g filter="url(#filter3_dd_163_380)">
<path d="M57.5283 46.8859C58.1011 47.5328 58.539 47.8575 58.8408 48.6672C60.477 55.3722 59.4258 60.2211 57.8155 65.6216C56.795 69.0442 55.5499 72.6884 54.622 77.1672H38.5908C37.6993 73.967 36.9403 70.9806 36.3117 68.1216C34.7707 61.1124 34.014 54.8693 34.014 48.1217C34.014 46.2179 34.372 45.696 34.372 43.7922V42.1515C34.372 42.1515 34.0139 41.2624 34.0139 40.6217C34.0139 40.6217 33.8916 38.5257 34.372 37.4172C34.5618 36.9792 34.6728 36.7046 35.0283 36.3859C35.5714 35.899 36.1035 35.64 36.8095 35.8234C37.4364 35.9863 37.8158 36.3365 38.0283 36.9484C38.0283 35.667 37.4658 34.7126 38.0283 33.6672C38.5908 32.6217 41.014 32.1217 43.372 33.6672C43.372 33.6672 41.014 14.6359 41.014 13.6984C41.014 12.7609 41.99 12.2548 42.5139 12.1216C43.538 11.8613 43.7698 11.9943 44.497 12.7609C44.7909 13.0707 44.833 13.3365 45.0595 13.6984C45.4096 14.2579 45.6152 15.0833 45.997 15.6216C46.8025 15.6216 47.281 14.898 48.0595 15.1047C49.4234 15.4667 49.9869 16.3299 50.754 17.5049L50.7783 17.5422L56.5908 41.8234C57.0019 43.534 57.2074 44.4999 57.5283 46.2297V46.8859Z" fill="#ECCCC0"/>
<path d="M57.5283 46.8859C58.1011 47.5328 58.539 47.8575 58.8408 48.6672C60.477 55.3722 59.4258 60.2211 57.8155 65.6216M57.5283 46.8859C56.1739 45.3563 54.9356 45.0291 53.3095 43.7922C52.3128 43.034 51.7911 42.56 50.7783 41.8234C49.9126 41.1938 49.2404 40.8399 48.5139 40.371M57.5283 46.8859V46.2297C57.2074 44.4999 57.0019 43.534 56.5908 41.8234L50.7783 17.5422C49.9987 16.3482 49.4378 15.4705 48.0595 15.1047C47.281 14.898 46.8025 15.6216 45.997 15.6216M45.0595 37.4172C45.0215 37.2523 44.9941 37.097 44.9724 36.9484C44.8686 36.2391 44.91 35.8255 44.5139 35.1216C44.1828 34.5333 43.7589 34.2204 43.372 33.6672M45.0595 37.4172C44.9056 37.0983 44.712 36.8212 44.4865 36.5896M45.0595 37.4172C45.3403 37.6754 45.578 37.905 45.8006 38.1216M38.0283 36.9484C37.8158 36.3365 37.4364 35.9863 36.8095 35.8234C36.1035 35.64 35.5714 35.899 35.0283 36.3859C34.6728 36.7046 34.5618 36.9792 34.372 37.4172C33.8916 38.5257 34.0139 40.6217 34.0139 40.6217C34.0139 41.2624 34.372 42.1515 34.372 42.1515M38.0283 36.9484C38.6141 37.9735 39.5283 39.5734 39.5283 39.5734C39.5283 39.5734 39.7942 40.2429 40.0139 41.1216C40.1903 42.1508 40.5231 44.3452 40.617 44.8929M38.0283 36.9484C38.0283 35.667 37.4658 34.7126 38.0283 33.6672C38.5908 32.6217 41.014 32.1217 43.372 33.6672M34.372 42.1515C34.372 42.1515 34.372 43.1515 34.372 43.7922C34.372 45.696 34.014 46.2179 34.014 48.1217C34.014 54.8693 34.7707 61.1124 36.3117 68.1216M34.372 42.1515C34.372 42.1515 38.5908 50.1217 40.0908 49.6217C41.5908 49.1217 41.5139 48.1216 41.5139 48.1216L41.0139 46.6216L40.6533 45.1047C40.6533 45.1047 40.64 45.0272 40.617 44.8929M43.372 33.6672C43.372 33.6672 41.014 14.6359 41.014 13.6984C41.014 12.7609 41.99 12.2548 42.5139 12.1216C43.538 11.8613 43.7698 11.9943 44.497 12.7609C44.7909 13.0707 44.833 13.3365 45.0595 13.6984C45.4096 14.2579 45.6152 15.0833 45.997 15.6216M45.997 15.6216L49.1585 36.9484M49.8408 53.1217C49.8408 53.1217 48.5447 51.3486 48.5139 50.1216C48.441 47.2132 45.5883 45.6672 45.5883 45.6672M40.617 44.8929C40.617 44.8929 42.4458 49.1096 43.9727 48.1217C44.9069 47.5173 45.5883 45.6672 45.5883 45.6672M45.5883 45.6672C45.5883 45.6672 45.0103 44.8997 44.2984 43.7922M44.2984 43.7922C42.7054 41.3137 40.4424 37.1321 42.488 36.0368C43.2212 35.6441 43.3774 35.8021 43.9727 36.1742C44.1577 36.2898 44.3298 36.4287 44.4865 36.5896M44.2984 43.7922C44.5778 44.5066 45.0139 45.6216 45.0139 45.6216L42.3683 46.8859C42.3683 46.8859 41.6368 45.4333 42.0139 44.6216C42.2466 44.1207 42.4871 43.7875 43.0139 43.6216C43.4966 43.4696 43.8721 43.5195 44.2984 43.7922ZM44.4865 36.5896L43.3159 37.4172C43.3159 37.4172 43.776 38.2545 44.2984 38.4288C44.8664 38.6183 45.8006 38.1216 45.8006 38.1216M45.8006 38.1216C46.3038 38.6111 46.7303 39.0344 47.4033 39.5734C47.8042 39.8945 48.1653 40.146 48.5139 40.371M48.0595 61.6216C48.0595 61.6216 49.8368 65.2652 52.0139 66.1216C54.1301 66.954 57.8155 65.6216 57.8155 65.6216M57.8155 65.6216C56.795 69.0442 55.5499 72.6884 54.622 77.1672H38.5908C37.6993 73.967 36.9403 70.9806 36.3117 68.1216M46.5139 64.6216C46.5139 64.6216 44.6329 66.8343 43.0139 67.6216C40.6535 68.7694 36.3117 68.1216 36.3117 68.1216M43.372 21.1216C43.372 21.1216 43.7697 20.0592 44.2984 20.1216C44.6239 20.16 44.9724 20.6216 44.9724 20.6216M50.0139 29.6216C50.0139 29.6216 50.3006 28.7374 50.7783 28.6216C51.3816 28.4754 52.0139 29.6216 52.0139 29.6216M44.4865 29.6216C44.4865 29.6216 44.6539 28.8166 45.0595 28.6216C45.6807 28.3229 46.5139 29.6216 46.5139 29.6216M48.5139 21.6216C48.5139 21.6216 48.7241 20.7864 49.1585 20.6216C49.7735 20.3883 50.5139 21.6216 50.5139 21.6216M36.3117 41.4037C36.3117 41.4037 37.0565 42.0184 37.5139 41.8234C37.9835 41.6232 38.0283 40.6217 38.0283 40.6217M47.0139 41.1216C47.0139 41.1216 48.2518 41.6454 48.5139 41.1216C48.6451 40.8594 48.5139 40.371 48.5139 40.371M39.3947 48.3854L41.0139 47.6216C41.0139 47.6216 40.8381 46.914 40.5139 46.6216C40.17 46.3114 39.7992 46.0041 39.3947 46.2297C39.0639 46.4141 39.0139 46.6216 39.0139 47.1216C39.0139 47.7074 39.3947 48.3854 39.3947 48.3854Z" stroke="#725050" stroke-width="0.3"/>
</g>
</g>
<defs>
<filter id="filter0_dd_163_380" x="0" y="0" width="91" height="98" filterUnits="userSpaceOnUse" color-interpolation-filters="sRGB">
<feFlood flood-opacity="0" result="BackgroundImageFix"/>
<feColorMatrix in="SourceAlpha" type="matrix" values="0 0 0 0 0 0 0 0 0 0 0 0 0 0 0 0 0 0 127 0" result="hardAlpha"/>
<feOffset dy="4"/>
<feGaussianBlur stdDeviation="2"/>
<feComposite in2="hardAlpha" operator="out"/>
<feColorMatrix type="matrix" values="0 0 0 0 0 0 0 0 0 0 0 0 0 0 0 0 0 0 0.25 0"/>
<feBlend mode="normal" in2="BackgroundImageFix" result="effect1_dropShadow_163_380"/>
<feColorMatrix in="SourceAlpha" type="matrix" values="0 0 0 0 0 0 0 0 0 0 0 0 0 0 0 0 0 0 127 0" result="hardAlpha"/>
<feOffset dy="4"/>
<feGaussianBlur stdDeviation="2"/>
<feComposite in2="hardAlpha" operator="out"/>
<feColorMatrix type="matrix" values="0 0 0 0 0 0 0 0 0 0 0 0 0 0 0 0 0 0 0.25 0"/>
<feBlend mode="normal" in2="effect1_dropShadow_163_380" result="effect2_dropShadow_163_380"/>
<feBlend mode="normal" in="SourceGraphic" in2="effect2_dropShadow_163_380" result="shape"/>
</filter>
<filter id="filter1_d_163_380" x="0" y="0" width="91" height="98" filterUnits="userSpaceOnUse" color-interpolation-filters="sRGB">
<feFlood flood-opacity="0" result="BackgroundImageFix"/>
<feColorMatrix in="SourceAlpha" type="matrix" values="0 0 0 0 0 0 0 0 0 0 0 0 0 0 0 0 0 0 127 0" result="hardAlpha"/>
<feOffset dy="4"/>
<feGaussianBlur stdDeviation="2"/>
<feComposite in2="hardAlpha" operator="out"/>
<feColorMatrix type="matrix" values="0 0 0 0 0 0 0 0 0 0 0 0 0 0 0 0 0 0 0.25 0"/>
<feBlend mode="normal" in2="BackgroundImageFix" result="effect1_dropShadow_163_380"/>
<feBlend mode="normal" in="SourceGraphic" in2="effect1_dropShadow_163_380" result="shape"/>
</filter>
<filter id="filter2_d_163_380" x="0" y="0" width="91" height="98" filterUnits="userSpaceOnUse" color-interpolation-filters="sRGB">
<feFlood flood-opacity="0" result="BackgroundImageFix"/>
<feColorMatrix in="SourceAlpha" type="matrix" values="0 0 0 0 0 0 0 0 0 0 0 0 0 0 0 0 0 0 127 0" result="hardAlpha"/>
<feOffset dy="4"/>
<feGaussianBlur stdDeviation="2"/>
<feComposite in2="hardAlpha" operator="out"/>
<feColorMatrix type="matrix" values="0 0 0 0 0 0 0 0 0 0 0 0 0 0 0 0 0 0 0.25 0"/>
<feBlend mode="normal" in2="BackgroundImageFix" result="effect1_dropShadow_163_380"/>
<feBlend mode="normal" in="SourceGraphic" in2="effect1_dropShadow_163_380" result="shape"/>
</filter>
<filter id="filter3_dd_163_380" x="29.85" y="11.8501" width="33.9625" height="73.467" filterUnits="userSpaceOnUse" color-interpolation-filters="sRGB">
<feFlood flood-opacity="0" result="BackgroundImageFix"/>
<feColorMatrix in="SourceAlpha" type="matrix" values="0 0 0 0 0 0 0 0 0 0 0 0 0 0 0 0 0 0 127 0" result="hardAlpha"/>
<feOffset dy="4"/>
<feGaussianBlur stdDeviation="2"/>
<feComposite in2="hardAlpha" operator="out"/>
<feColorMatrix type="matrix" values="0 0 0 0 0 0 0 0 0 0 0 0 0 0 0 0 0 0 0.25 0"/>
<feBlend mode="normal" in2="BackgroundImageFix" result="effect1_dropShadow_163_380"/>
<feColorMatrix in="SourceAlpha" type="matrix" values="0 0 0 0 0 0 0 0 0 0 0 0 0 0 0 0 0 0 127 0" result="hardAlpha"/>
<feOffset dy="4"/>
<feGaussianBlur stdDeviation="2"/>
<feComposite in2="hardAlpha" operator="out"/>
<feColorMatrix type="matrix" values="0 0 0 0 0 0 0 0 0 0 0 0 0 0 0 0 0 0 0.25 0"/>
<feBlend mode="normal" in2="effect1_dropShadow_163_380" result="effect2_dropShadow_163_380"/>
<feBlend mode="normal" in="SourceGraphic" in2="effect2_dropShadow_163_380" result="shape"/>
</filter>
</defs>
</svg>
