<svg width="91" height="98" viewBox="0 0 91 98" fill="none" xmlns="http://www.w3.org/2000/svg">
<g filter="url(#filter0_dd_163_384)">
<g filter="url(#filter1_d_163_384)">
<g filter="url(#filter2_d_163_384)">
<ellipse cx="45.5" cy="45" rx="41.5" ry="45" fill="#D9D9D9"/>
</g>
</g>
<g filter="url(#filter3_dd_163_384)">
<path d="M56.7172 74.0661L33.9672 75.1911L33.2172 64.0661C25.9047 52.5954 24.7495 46.0176 27.0922 34.0661C27.0922 34.0661 27.659 28.943 30.0922 27.5661C31.8811 26.5538 35.4678 26.9875 35.4678 26.9875C35.4678 26.9875 36.8594 23.5031 38.9672 22.9411C40.5492 22.5193 43.0922 23.6911 43.0922 23.6911C43.0922 23.6911 45.485 20.445 47.7172 20.3161C49.8758 20.1915 52.5922 22.9411 52.5922 22.9411C52.5922 22.9411 54.142 20.559 55.7172 20.3161C57.2136 20.0854 59.3422 21.6911 59.3422 21.6911C59.3422 21.6911 61.5531 16.9957 64.3422 16.1911C67.2936 15.3397 67.3185 17.4428 67.2053 20.3161C67.147 21.7953 67.0521 23.4786 67.3011 25.0681C67.4387 25.9461 67.6812 26.7956 68.0928 27.5662C72.9678 36.6931 56.7172 61.3949 56.7172 61.3949V74.0661Z" fill="#ECCCC0"/>
<path d="M56.7172 61.3949V74.0661L33.9672 75.1911L33.2172 64.0661M56.7172 61.3949C56.7172 61.3949 72.9678 36.6931 68.0928 27.5662C67.6812 26.7956 67.4387 25.9461 67.3011 25.0681M56.7172 61.3949C56.7172 61.3949 51.4552 60.5114 48.7172 58.8161C46.1597 57.2326 43.5922 53.0661 43.5922 53.0661M59.3422 21.6911C59.3422 21.6911 61.5531 16.9957 64.3422 16.1911C67.2936 15.3397 67.3185 17.4428 67.2053 20.3161M59.3422 21.6911C59.3422 21.6911 57.2136 20.0854 55.7172 20.3161C54.142 20.559 52.5922 22.9411 52.5922 22.9411M59.3422 21.6911C59.3422 21.6911 61.7178 41.0681 53.3428 41.0681C49.1655 41.0681 52.5922 22.9411 52.5922 22.9411M59.3422 21.6911C59.3422 21.6911 59.5272 25.0941 59.5272 28.5681C59.5272 33.945 57.2178 44.0661 52.5922 47.5681M52.5922 22.9411C52.5922 22.9411 49.8758 20.1915 47.7172 20.3161C45.485 20.445 43.0922 23.6911 43.0922 23.6911M52.5922 22.9411C52.5922 22.9411 52.2184 42.693 47.2178 43.3181C44.0922 43.7087 43.0922 23.6911 43.0922 23.6911M43.0922 23.6911C43.0922 23.6911 40.5492 22.5193 38.9672 22.9411C36.8594 23.5031 35.4678 26.9875 35.4678 26.9875M43.0922 23.6911C43.0922 23.6911 45.7178 43.3181 41.4678 44.0661C37.8786 44.6979 35.4678 26.9875 35.4678 26.9875M35.4678 26.9875C35.4678 26.9875 31.8811 26.5538 30.0922 27.5661C27.659 28.943 27.0922 34.0661 27.0922 34.0661C24.7495 46.0176 25.9047 52.5954 33.2172 64.0661M35.4678 26.9875C35.4678 26.9875 38.5039 44.0661 34.9678 44.0661C30.7184 44.0661 28.9672 31.3161 28.9672 31.3161M33.2172 64.0661C33.2172 64.0661 37.1548 65.0341 39.3422 64.0661C41.2048 63.2418 43.0922 60.4411 43.0922 60.4411M67.2053 20.3161H64.3422C64.3422 20.3161 64.1061 21.6467 64.3422 22.4431C64.7812 23.9241 67.3011 25.0681 67.3011 25.0681M67.2053 20.3161C67.147 21.7953 67.0521 23.4786 67.3011 25.0681M31.7178 34.0661C31.7178 34.0661 32.4389 32.2862 33.2172 32.5681C33.6404 32.7213 33.9672 33.4431 33.9672 33.4431M37.8428 31.3161C37.8428 31.3161 37.8161 28.7075 38.9672 28.5681C40.0302 28.4393 40.8428 30.5681 40.8428 30.5681M45.7178 30.1931C45.7178 30.1931 46.2026 28.0329 47.2178 28.0681C48.0807 28.0979 48.7172 29.6931 48.7172 29.6931M54.2178 28.5681C54.2178 28.5681 54.8664 26.9878 55.7172 26.9875C56.5683 26.9871 57.2178 28.5681 57.2178 28.5681M64.9678 31.8181C64.9678 31.8181 65.8132 32.5476 66.4678 32.5681C67.1664 32.5899 68.0928 31.8181 68.0928 31.8181M33.2172 41.6931L35.7178 41.4431C35.7178 41.4431 35.9533 40.0626 35.4678 39.4431C35.0636 38.9274 34.5887 38.4858 33.9672 38.6931C33.5743 38.8241 33.4303 39.0879 33.2172 39.4431C32.7651 40.1965 33.2172 41.6931 33.2172 41.6931ZM39.8428 41.0681H42.5928C42.5928 41.0681 42.6109 39.8279 42.2178 39.1931C41.8525 38.6032 41.5279 37.9586 40.8428 38.0681C40.2623 38.1608 39.8428 39.1931 39.8428 39.1931C39.5543 39.8661 39.8428 41.0681 39.8428 41.0681ZM46.3428 40.4431H48.7172C48.7172 40.4431 48.9534 39.3343 48.7172 38.6931C48.5011 38.1065 48.3283 37.5745 47.7172 37.4431C47.1407 37.3191 46.7291 37.6226 46.3428 38.0681C45.7351 38.7688 46.3428 40.4431 46.3428 40.4431ZM52.5922 39.1931H55.7172C55.7172 39.1931 55.9715 38.0774 55.7172 37.4431C55.4215 36.7056 54.9988 35.9226 54.2178 36.0681C53.8049 36.1449 53.6328 36.3894 53.3428 36.6931C52.6386 37.4301 52.5922 39.1931 52.5922 39.1931Z" stroke="#725050" stroke-width="0.3"/>
</g>
</g>
<defs>
<filter id="filter0_dd_163_384" x="0" y="0" width="91" height="98" filterUnits="userSpaceOnUse" color-interpolation-filters="sRGB">
<feFlood flood-opacity="0" result="BackgroundImageFix"/>
<feColorMatrix in="SourceAlpha" type="matrix" values="0 0 0 0 0 0 0 0 0 0 0 0 0 0 0 0 0 0 127 0" result="hardAlpha"/>
<feOffset dy="4"/>
<feGaussianBlur stdDeviation="2"/>
<feComposite in2="hardAlpha" operator="out"/>
<feColorMatrix type="matrix" values="0 0 0 0 0 0 0 0 0 0 0 0 0 0 0 0 0 0 0.25 0"/>
<feBlend mode="normal" in2="BackgroundImageFix" result="effect1_dropShadow_163_384"/>
<feColorMatrix in="SourceAlpha" type="matrix" values="0 0 0 0 0 0 0 0 0 0 0 0 0 0 0 0 0 0 127 0" result="hardAlpha"/>
<feOffset dy="4"/>
<feGaussianBlur stdDeviation="2"/>
<feComposite in2="hardAlpha" operator="out"/>
<feColorMatrix type="matrix" values="0 0 0 0 0 0 0 0 0 0 0 0 0 0 0 0 0 0 0.25 0"/>
<feBlend mode="normal" in2="effect1_dropShadow_163_384" result="effect2_dropShadow_163_384"/>
<feBlend mode="normal" in="SourceGraphic" in2="effect2_dropShadow_163_384" result="shape"/>
</filter>
<filter id="filter1_d_163_384" x="0" y="0" width="91" height="98" filterUnits="userSpaceOnUse" color-interpolation-filters="sRGB">
<feFlood flood-opacity="0" result="BackgroundImageFix"/>
<feColorMatrix in="SourceAlpha" type="matrix" values="0 0 0 0 0 0 0 0 0 0 0 0 0 0 0 0 0 0 127 0" result="hardAlpha"/>
<feOffset dy="4"/>
<feGaussianBlur stdDeviation="2"/>
<feComposite in2="hardAlpha" operator="out"/>
<feColorMatrix type="matrix" values="0 0 0 0 0 0 0 0 0 0 0 0 0 0 0 0 0 0 0.25 0"/>
<feBlend mode="normal" in2="BackgroundImageFix" result="effect1_dropShadow_163_384"/>
<feBlend mode="normal" in="SourceGraphic" in2="effect1_dropShadow_163_384" result="shape"/>
</filter>
<filter id="filter2_d_163_384" x="0" y="0" width="91" height="98" filterUnits="userSpaceOnUse" color-interpolation-filters="sRGB">
<feFlood flood-opacity="0" result="BackgroundImageFix"/>
<feColorMatrix in="SourceAlpha" type="matrix" values="0 0 0 0 0 0 0 0 0 0 0 0 0 0 0 0 0 0 127 0" result="hardAlpha"/>
<feOffset dy="4"/>
<feGaussianBlur stdDeviation="2"/>
<feComposite in2="hardAlpha" operator="out"/>
<feColorMatrix type="matrix" values="0 0 0 0 0 0 0 0 0 0 0 0 0 0 0 0 0 0 0.25 0"/>
<feBlend mode="normal" in2="BackgroundImageFix" result="effect1_dropShadow_163_384"/>
<feBlend mode="normal" in="SourceGraphic" in2="effect1_dropShadow_163_384" result="shape"/>
</filter>
<filter id="filter3_dd_163_384" x="21.8501" y="15.8501" width="51.3049" height="67.498" filterUnits="userSpaceOnUse" color-interpolation-filters="sRGB">
<feFlood flood-opacity="0" result="BackgroundImageFix"/>
<feColorMatrix in="SourceAlpha" type="matrix" values="0 0 0 0 0 0 0 0 0 0 0 0 0 0 0 0 0 0 127 0" result="hardAlpha"/>
<feOffset dy="4"/>
<feGaussianBlur stdDeviation="2"/>
<feComposite in2="hardAlpha" operator="out"/>
<feColorMatrix type="matrix" values="0 0 0 0 0 0 0 0 0 0 0 0 0 0 0 0 0 0 0.25 0"/>
<feBlend mode="normal" in2="BackgroundImageFix" result="effect1_dropShadow_163_384"/>
<feColorMatrix in="SourceAlpha" type="matrix" values="0 0 0 0 0 0 0 0 0 0 0 0 0 0 0 0 0 0 127 0" result="hardAlpha"/>
<feOffset dy="4"/>
<feGaussianBlur stdDeviation="2"/>
<feComposite in2="hardAlpha" operator="out"/>
<feColorMatrix type="matrix" values="0 0 0 0 0 0 0 0 0 0 0 0 0 0 0 0 0 0 0.25 0"/>
<feBlend mode="normal" in2="effect1_dropShadow_163_384" result="effect2_dropShadow_163_384"/>
<feBlend mode="normal" in="SourceGraphic" in2="effect2_dropShadow_163_384" result="shape"/>
</filter>
</defs>
</svg>
