<svg width="91" height="98" viewBox="0 0 91 98" fill="none" xmlns="http://www.w3.org/2000/svg">
<g filter="url(#filter0_dd_140_43)">
<g filter="url(#filter1_d_140_43)">
<ellipse cx="45.5" cy="45" rx="41.5" ry="45" fill="#D9D9D9"/>
</g>
<g filter="url(#filter2_dd_140_43)">
<path d="M58.16 68.3885C57.5143 68.7837 56.7976 68.4571 56.2412 68.9441L53.4696 76.2592L32.789 77L33.7484 66.6291L32.789 64.6846C26.964 53.8183 29.3779 49.5823 30.1896 42.8317L34.2814 23.3864C34.6998 22.6595 34.7154 21.9753 35.5607 21.627C36.2377 21.3481 36.7836 21.3855 37.4795 21.627L38.9139 23.3864C39.1458 19.9618 39.7469 14.1994 40.4818 13.2735C41.2166 12.3475 41.4575 11.4427 42.3831 11.2562L42.4198 11.2488C43.1705 11.0974 43.6919 10.9923 44.4085 11.2562C45.0325 11.4859 45.2295 11.8411 45.6877 12.2747C46.0482 12.6159 46.5405 13.2007 46.5405 13.2007C46.5405 13.2007 46.6572 11.6502 46.9669 10.7006C47.2367 9.87359 47.1946 9.24206 47.9263 8.66346C48.6371 8.10148 49.3114 8.05288 50.2716 8.01528C51.3914 7.97142 52.2475 7.97762 53.0432 8.66346C53.6253 9.16518 53.7024 9.63805 53.896 10.3302C54.1516 11.2438 53.896 12.7377 53.896 12.7377V16.0712V19.3121V21.9974V24.9605V27.368V28.2477V29.1274V31.4423C53.896 31.4423 58.9062 28.5952 60.9316 30.3311C62.9571 32.067 62.1042 40.0538 62.1042 40.0538L62.9571 40.4705L63.8099 40.8872L63.9199 41.1102L64.4495 42.1836L65.1957 44.1281L65.4089 44.6837C65.4089 44.6837 67.6969 46.0923 67.9673 47.4616C68.1606 48.4402 67.4343 49.9617 67.4343 49.9617L66.6881 52.2766C66.6881 52.2766 66.3569 53.9811 66.0485 55.0545C65.8283 55.8208 65.2355 56.0626 65.1034 56.844C64.9583 57.7027 65.4003 58.2229 65.1034 59.0664C63.2389 64.3632 61.9448 66.4874 58.16 68.3885Z" fill="#ECCCC0"/>
<path d="M67.4343 49.9617L66.6881 52.2766C66.6881 52.2766 66.3569 53.9811 66.0485 55.0545C65.8283 55.8208 65.2355 56.0626 65.1034 56.844C64.9583 57.7027 65.4003 58.2229 65.1034 59.0664C63.2389 64.3632 61.9448 66.4874 58.16 68.3885C57.5143 68.7837 56.7976 68.4571 56.2412 68.9441L53.4696 76.2592L32.789 77L33.7484 66.6291C33.3738 65.8698 32.789 64.6846 32.789 64.6846M67.4343 49.9617C67.4343 49.9617 68.1606 48.4402 67.9673 47.4616C67.6969 46.0923 65.4089 44.6837 65.4089 44.6837L65.1957 44.1281L64.4495 42.1836L63.8099 40.8872L62.9571 40.4705L62.1042 40.0538M67.4343 49.9617C67.4343 49.9617 66.6372 50.5394 66.0485 50.7951C65.4597 51.0508 65.1002 51.172 64.4495 51.2581C63.8733 51.3342 62.9571 51.2581 62.9571 51.2581M62.1042 40.0538L61.358 40.2969L60.6441 40.5294M62.1042 40.0538C62.1042 40.0538 62.9571 32.067 60.9316 30.3311C58.9062 28.5952 53.896 31.4423 53.896 31.4423V29.1274V28.2477V27.368V24.9605V21.9974V19.3121V16.0712V12.7377C53.896 12.7377 54.1516 11.2438 53.896 10.3302C53.7024 9.63805 53.6253 9.16518 53.0432 8.66346C52.2475 7.97762 51.3914 7.97142 50.2716 8.01528C49.3114 8.05288 48.6371 8.10148 47.9263 8.66346C47.1946 9.24206 47.2367 9.87359 46.9669 10.7006C46.6572 11.6502 46.5405 13.2007 46.5405 13.2007M57.379 42.3205L59.5458 40.8872L60.6441 40.5294M57.379 42.3205C57.379 42.3205 56.7843 39.8456 57.379 38.6896C57.7473 37.9735 58.151 37.5653 58.8273 37.4793C59.4205 37.4039 59.8503 37.5608 60.2756 38.0845C60.8287 38.7654 60.6441 40.5294 60.6441 40.5294M57.379 42.3205C57.3072 42.6056 57.2311 42.8634 57.1528 43.1011M55.9306 47.7668C55.9306 47.7668 43.8611 52.2766 45.2613 58.5732C46.6615 64.8698 53.0339 64.711 53.0339 64.711M55.9306 47.7668L57.7336 51.2581M55.9306 47.7668C55.9306 45.4695 56.596 44.793 57.1528 43.1011M57.7336 51.2581L58.7996 52.2766L59.5458 52.7396M57.7336 51.2581C57.7336 51.2581 55.1967 52.1445 54.8554 53.8183C54.418 55.9635 56.8962 58.6595 56.8962 58.6595M32.789 64.6846C32.789 64.6846 36.1367 67.337 38.5506 66.6291C40.9645 65.9212 42.4128 63.5007 42.4128 63.5007M32.789 64.6846C26.964 53.8183 29.3779 49.5823 30.1896 42.8317M46.5405 13.2007C46.5405 13.2007 46.0482 12.6159 45.6877 12.2747C45.2295 11.8411 45.0325 11.4859 44.4085 11.2562C43.6803 10.988 43.1536 11.1009 42.3831 11.2562C41.4575 11.4427 41.2166 12.3475 40.4818 13.2735C39.7469 14.1994 39.1458 19.9618 38.9139 23.3864M46.5405 13.2007V15.1452V18.2935V20.0529V20.7937V22.2752V23.7568V26.3495V28.0162V29.683V32.1831V34.5906C46.5405 34.5906 46.5405 35.6064 46.5405 36.2573M57.2539 34.5906C57.2539 34.5906 58.1336 34.0081 58.7996 33.9424C59.6761 33.856 60.9316 34.5906 60.9316 34.5906M40.2511 53.2952C40.2511 53.2952 41.2606 52.4192 41.8501 51.8136C42.5221 51.1233 42.7625 50.6411 43.4491 49.9617C44.2456 49.1736 44.6966 48.7085 45.6877 48.1098C46.4979 47.6203 47.0366 47.4621 47.9263 47.0912C48.6657 46.783 49.0718 46.5873 49.8452 46.3504C50.8546 46.0412 51.5243 46.1568 52.5102 45.7948C53.0764 45.587 53.3165 45.3246 53.896 45.1467C54.8608 44.8503 56.5077 44.9615 56.5077 44.9615M33.7484 47.4616C33.7484 47.4616 34.8531 47.2366 35.5607 47.0912C36.4352 46.9115 36.9071 46.7221 37.7993 46.6282C38.7498 46.5282 39.3009 46.7305 40.2511 46.6282C41.5451 46.489 42.2207 46.1745 43.4491 45.7948C44.6801 45.4144 45.2934 45.0222 46.5405 44.6837C47.6008 44.3959 48.2548 44.4238 49.3122 44.1281C50.3866 43.8275 50.8624 43.3102 51.9772 43.1558C52.7172 43.0533 53.1483 43.1123 53.896 43.1558C55.1304 43.2277 57.0141 43.642 57.0141 43.642M30.1896 42.8317C30.1896 42.8317 30.913 42.4121 31.4032 42.1836C32.2751 41.777 32.8596 41.7279 33.7484 41.3502C34.4767 41.0407 34.8381 40.7899 35.5607 40.4705C36.4158 40.0925 36.9523 39.9825 37.7993 39.5908C38.3098 39.3547 39.0785 38.9427 39.0785 38.9427M30.1896 42.8317L34.2814 23.3864C34.6998 22.6595 34.7154 21.9753 35.5607 21.627C36.2377 21.3481 36.7836 21.3855 37.4795 21.627L38.9139 23.3864M39.0785 38.9427C39.0785 38.9427 40.3173 38.5 41.1039 38.2019C42.026 37.8524 42.5249 37.6212 43.4491 37.2759C44.1522 37.0132 44.5423 36.8556 45.2613 36.6277C45.756 36.471 46.0365 36.3898 46.5405 36.2573M39.0785 38.9427C38.6679 32.6681 38.5967 28.0731 38.9139 23.3864M46.5405 36.2573C47.2899 36.2573 47.71 36.2573 48.4593 36.2573C49.1671 36.2573 49.5638 36.2573 50.2716 36.2573C50.9376 36.2573 51.3332 36.1094 51.9772 36.2573C52.6261 36.4064 52.9086 36.6779 53.4696 36.9981C53.9671 37.2821 54.6955 37.7852 54.6955 37.7852M52.5102 18.8491C51.6572 18.6825 51.1353 18.1761 50.2716 18.2935C49.5427 18.3926 49.1527 19.0932 48.4593 19.3121M47.9263 27.368C48.644 27.1077 49.0751 26.4438 49.8452 26.3495C50.6696 26.2485 51.1852 26.682 51.9772 26.9051M41.1039 30.3311C42.0125 30.059 42.5021 29.8256 43.4491 29.683M36.4135 29.683C36.4135 29.683 35.5921 30.0133 35.0276 30.0881C34.5338 30.1536 34.2446 30.1385 33.7484 30.0881M34.2814 36.2573C34.2814 36.2573 35.0307 35.8104 35.5607 35.6092C36.0795 35.4122 36.9465 35.2388 36.9465 35.2388M41.1039 20.7937C41.1039 20.7937 42.1784 19.8418 42.8956 20.0529C43.326 20.1796 43.8612 20.7937 43.8612 20.7937M63.9199 41.1102L60.7584 42.3205C60.7584 42.3205 60.9758 44.4859 61.724 45.3463C62.9389 46.7433 65.9427 45.1467 65.9427 45.1467M53.896 31.5166C53.8301 36.0377 54.6024 38.5051 57.1528 43.1011" stroke="#725050" stroke-width="0.3"/>
</g>
</g>
<defs>
<filter id="filter0_dd_140_43" x="0" y="0" width="91" height="98" filterUnits="userSpaceOnUse" color-interpolation-filters="sRGB">
<feFlood flood-opacity="0" result="BackgroundImageFix"/>
<feColorMatrix in="SourceAlpha" type="matrix" values="0 0 0 0 0 0 0 0 0 0 0 0 0 0 0 0 0 0 127 0" result="hardAlpha"/>
<feOffset dy="4"/>
<feGaussianBlur stdDeviation="2"/>
<feComposite in2="hardAlpha" operator="out"/>
<feColorMatrix type="matrix" values="0 0 0 0 0 0 0 0 0 0 0 0 0 0 0 0 0 0 0.25 0"/>
<feBlend mode="normal" in2="BackgroundImageFix" result="effect1_dropShadow_140_43"/>
<feColorMatrix in="SourceAlpha" type="matrix" values="0 0 0 0 0 0 0 0 0 0 0 0 0 0 0 0 0 0 127 0" result="hardAlpha"/>
<feOffset dy="4"/>
<feGaussianBlur stdDeviation="2"/>
<feComposite in2="hardAlpha" operator="out"/>
<feColorMatrix type="matrix" values="0 0 0 0 0 0 0 0 0 0 0 0 0 0 0 0 0 0 0.25 0"/>
<feBlend mode="normal" in2="effect1_dropShadow_140_43" result="effect2_dropShadow_140_43"/>
<feBlend mode="normal" in="SourceGraphic" in2="effect2_dropShadow_140_43" result="shape"/>
</filter>
<filter id="filter1_d_140_43" x="0" y="0" width="91" height="98" filterUnits="userSpaceOnUse" color-interpolation-filters="sRGB">
<feFlood flood-opacity="0" result="BackgroundImageFix"/>
<feColorMatrix in="SourceAlpha" type="matrix" values="0 0 0 0 0 0 0 0 0 0 0 0 0 0 0 0 0 0 127 0" result="hardAlpha"/>
<feOffset dy="4"/>
<feGaussianBlur stdDeviation="2"/>
<feComposite in2="hardAlpha" operator="out"/>
<feColorMatrix type="matrix" values="0 0 0 0 0 0 0 0 0 0 0 0 0 0 0 0 0 0 0.25 0"/>
<feBlend mode="normal" in2="BackgroundImageFix" result="effect1_dropShadow_140_43"/>
<feBlend mode="normal" in="SourceGraphic" in2="effect1_dropShadow_140_43" result="shape"/>
</filter>
<filter id="filter2_dd_140_43" x="24.05" y="7.84985" width="48.8999" height="78.9062" filterUnits="userSpaceOnUse" color-interpolation-filters="sRGB">
<feFlood flood-opacity="0" result="BackgroundImageFix"/>
<feColorMatrix in="SourceAlpha" type="matrix" values="0 0 0 0 0 0 0 0 0 0 0 0 0 0 0 0 0 0 127 0" result="hardAlpha"/>
<feOffset dy="4.8"/>
<feGaussianBlur stdDeviation="2.4"/>
<feComposite in2="hardAlpha" operator="out"/>
<feColorMatrix type="matrix" values="0 0 0 0 0 0 0 0 0 0 0 0 0 0 0 0 0 0 0.25 0"/>
<feBlend mode="normal" in2="BackgroundImageFix" result="effect1_dropShadow_140_43"/>
<feColorMatrix in="SourceAlpha" type="matrix" values="0 0 0 0 0 0 0 0 0 0 0 0 0 0 0 0 0 0 127 0" result="hardAlpha"/>
<feOffset dy="4.8"/>
<feGaussianBlur stdDeviation="2.4"/>
<feComposite in2="hardAlpha" operator="out"/>
<feColorMatrix type="matrix" values="0 0 0 0 0 0 0 0 0 0 0 0 0 0 0 0 0 0 0.25 0"/>
<feBlend mode="normal" in2="effect1_dropShadow_140_43" result="effect2_dropShadow_140_43"/>
<feBlend mode="normal" in="SourceGraphic" in2="effect2_dropShadow_140_43" result="shape"/>
</filter>
</defs>
</svg>
