<svg width="402" height="874" viewBox="0 0 402 874" fill="none" xmlns="http://www.w3.org/2000/svg">
<rect width="402" height="874" fill="#98A6B1"/>
<path d="M203 254.566L205.669 262.488L205.784 262.828H206.143H214.73L207.799 267.684L207.493 267.899L207.612 268.253L210.269 276.139L203.287 271.247L203 271.046L202.713 271.247L195.731 276.139L198.388 268.253L198.507 267.899L198.201 267.684L191.27 262.828H199.857H200.216L200.331 262.488L203 254.566Z" fill="white" stroke="black"/>
<path d="M356 331.566L358.669 339.488L358.784 339.828H359.143H367.73L360.799 344.684L360.493 344.899L360.612 345.253L363.269 353.139L356.287 348.247L356 348.046L355.713 348.247L348.731 353.139L351.388 345.253L351.507 344.899L351.201 344.684L344.27 339.828H352.857H353.216L353.331 339.488L356 331.566Z" fill="white" stroke="black"/>
<path d="M58 331.566L60.6694 339.488L60.7841 339.828H61.1432H69.7297L62.7989 344.684L62.4925 344.899L62.612 345.253L65.269 353.139L58.2869 348.247L58 348.046L57.7131 348.247L50.7309 353.139L53.388 345.253L53.5075 344.899L53.2011 344.684L46.2703 339.828H54.8568H55.2159L55.3306 339.488L58 331.566Z" fill="white" stroke="black"/>
<line y1="-1.5" x2="18.0278" y2="-1.5" transform="matrix(-0.5547 0.83205 0.83205 0.5547 269 228)" stroke="#FFCC29" stroke-width="3"/>
<line y1="-1.5" x2="18.0278" y2="-1.5" transform="matrix(-0.5547 0.83205 0.83205 0.5547 361 296)" stroke="#FFCC29" stroke-width="3"/>
<line x1="146.248" y1="227.168" x2="156.248" y2="242.168" stroke="#FFCC29" stroke-width="3"/>
<line x1="54.2481" y1="295.168" x2="64.2481" y2="310.168" stroke="#FFCC29" stroke-width="3"/>
<line x1="130.248" y1="309.168" x2="140.248" y2="324.168" stroke="#FFCC29" stroke-width="3"/>
<path d="M203 668.566L205.669 676.488L205.784 676.828H206.143H214.73L207.799 681.684L207.493 681.899L207.612 682.253L210.269 690.139L203.287 685.247L203 685.046L202.713 685.247L195.731 690.139L198.388 682.253L198.507 681.899L198.201 681.684L191.27 676.828H199.857H200.216L200.331 676.488L203 668.566Z" fill="white" stroke="black"/>
<path d="M203 756.566L205.669 764.488L205.784 764.828H206.143H214.73L207.799 769.684L207.493 769.899L207.612 770.253L210.269 778.139L203.287 773.247L203 773.046L202.713 773.247L195.731 778.139L198.388 770.253L198.507 769.899L198.201 769.684L191.27 764.828H199.857H200.216L200.331 764.488L203 756.566Z" fill="white" stroke="black"/>
<path d="M361 726.566L363.669 734.488L363.784 734.828H364.143H372.73L365.799 739.684L365.493 739.899L365.612 740.253L368.269 748.139L361.287 743.247L361 743.046L360.713 743.247L353.731 748.139L356.388 740.253L356.507 739.899L356.201 739.684L349.27 734.828H357.857H358.216L358.331 734.488L361 726.566Z" fill="white" stroke="black"/>
<path d="M58 585.566L60.6694 593.488L60.7841 593.828H61.1432H69.7297L62.7989 598.684L62.4925 598.899L62.612 599.253L65.269 607.139L58.2869 602.247L58 602.046L57.7131 602.247L50.7309 607.139L53.388 599.253L53.5075 598.899L53.2011 598.684L46.2703 593.828H54.8568H55.2159L55.3306 593.488L58 585.566Z" fill="white" stroke="black"/>
<path d="M361 598.566L363.669 606.488L363.784 606.828H364.143H372.73L365.799 611.684L365.493 611.899L365.612 612.253L368.269 620.139L361.287 615.247L361 615.046L360.713 615.247L353.731 620.139L356.388 612.253L356.507 611.899L356.201 611.684L349.27 606.828H357.857H358.216L358.331 606.488L361 598.566Z" fill="white" stroke="black"/>
<line x1="47.1679" y1="650.752" x2="62.1679" y2="640.752" stroke="#FFCC29" stroke-width="3"/>
<line x1="115.168" y1="742.752" x2="130.168" y2="732.752" stroke="#FFCC29" stroke-width="3"/>
<line x1="129.168" y1="666.752" x2="144.168" y2="656.752" stroke="#FFCC29" stroke-width="3"/>
<line x1="283.752" y1="744.832" x2="273.752" y2="729.832" stroke="#FFCC29" stroke-width="3"/>
<line x1="375.752" y1="676.832" x2="365.752" y2="661.832" stroke="#FFCC29" stroke-width="3"/>
<line x1="299.752" y1="662.832" x2="289.752" y2="647.832" stroke="#FFCC29" stroke-width="3"/>
<path d="M58 724.566L60.6694 732.488L60.7841 732.828H61.1432H69.7297L62.7989 737.684L62.4925 737.899L62.612 738.253L65.269 746.139L58.2869 741.247L58 741.046L57.7131 741.247L50.7309 746.139L53.388 738.253L53.5075 737.899L53.2011 737.684L46.2703 732.828H54.8568H55.2159L55.3306 732.488L58 724.566Z" fill="white" stroke="black"/>
<line y1="-1.5" x2="18.0278" y2="-1.5" transform="matrix(-0.5547 0.83205 0.83205 0.5547 285 310)" stroke="#FFCC29" stroke-width="3"/>
<path d="M203 166.566L205.669 174.488L205.784 174.828H206.143H214.73L207.799 179.684L207.493 179.899L207.612 180.253L210.269 188.139L203.287 183.247L203 183.046L202.713 183.247L195.731 188.139L198.388 180.253L198.507 179.899L198.201 179.684L191.27 174.828H199.857H200.216L200.331 174.488L203 166.566Z" fill="white" stroke="black"/>
<path d="M361 227.566L363.669 235.488L363.784 235.828H364.143H372.73L365.799 240.684L365.493 240.899L365.612 241.253L368.269 249.139L361.287 244.247L361 244.046L360.713 244.247L353.731 249.139L356.388 241.253L356.507 240.899L356.201 240.684L349.27 235.828H357.857H358.216L358.331 235.488L361 227.566Z" fill="white" stroke="black"/>
<path d="M53 227.566L55.6694 235.488L55.7841 235.828H56.1432H64.7297L57.7989 240.684L57.4925 240.899L57.612 241.253L60.269 249.139L53.2869 244.247L53 244.046L52.7131 244.247L45.7309 249.139L48.388 241.253L48.5075 240.899L48.2011 240.684L41.2703 235.828H49.8568H50.2159L50.3306 235.488L53 227.566Z" fill="white" stroke="black"/>
<line y1="-1.5" x2="18.0278" y2="-1.5" transform="matrix(-0.5547 0.83205 0.83205 0.5547 264 127)" stroke="#FFCC29" stroke-width="3"/>
<line y1="-1.5" x2="18.0278" y2="-1.5" transform="matrix(-0.5547 0.83205 0.83205 0.5547 380 185)" stroke="#FFCC29" stroke-width="3"/>
<line x1="146.248" y1="126.168" x2="156.248" y2="141.168" stroke="#FFCC29" stroke-width="3"/>
<line x1="11.2481" y1="184.168" x2="21.2481" y2="199.168" stroke="#FFCC29" stroke-width="3"/>
<line x1="89.2481" y1="177.168" x2="99.2481" y2="192.168" stroke="#FFCC29" stroke-width="3"/>
<line y1="-1.5" x2="18.0278" y2="-1.5" transform="matrix(-0.5547 0.83205 0.83205 0.5547 302 178)" stroke="#FFCC29" stroke-width="3"/>
<path d="M39 80.5659L41.6694 88.4879L41.7841 88.8283H42.1432H50.7297L43.7989 93.684L43.4925 93.8986L43.612 94.2531L46.269 102.139L39.2869 97.247L39 97.046L38.7131 97.247L31.7309 102.139L34.388 94.2531L34.5075 93.8986L34.2011 93.684L27.2703 88.8283H35.8568H36.2159L36.3306 88.4879L39 80.5659Z" fill="white" stroke="black"/>
<path d="M375 80.5659L377.669 88.4879L377.784 88.8283H378.143H386.73L379.799 93.684L379.493 93.8986L379.612 94.2531L382.269 102.139L375.287 97.247L375 97.046L374.713 97.247L367.731 102.139L370.388 94.2531L370.507 93.8986L370.201 93.684L363.27 88.8283H371.857H372.216L372.331 88.4879L375 80.5659Z" fill="white" stroke="black"/>
<path d="M203 78.5659L205.669 86.4879L205.784 86.8283H206.143H214.73L207.799 91.684L207.493 91.8986L207.612 92.2531L210.269 100.139L203.287 95.247L203 95.046L202.713 95.247L195.731 100.139L198.388 92.2531L198.507 91.8986L198.201 91.684L191.27 86.8283H199.857H200.216L200.331 86.4879L203 78.5659Z" fill="white" stroke="black"/>
</svg>
