<svg width="158" height="122" viewBox="0 0 158 122" fill="none" xmlns="http://www.w3.org/2000/svg">
<g filter="url(#filter0_d_194_40)">
<path d="M25.2825 50.9011L28.2354 52.7113L35.8868 56.7659C35.8868 56.7659 35.5769 56.0388 35.0447 54.8604C35.5785 55.8883 35.9839 56.5829 35.9839 56.5829L43 59.5981C43 59.5981 36.5231 45.7761 33.4339 46.3475C31.931 46.6255 32.494 49.0556 33.4684 51.478C30.5874 45.484 25.8003 36.536 22.8976 36.536C20.7751 36.536 21.9793 40.3613 23.7766 44.2914C20.7235 39.1369 16.6652 33.5233 13.4709 33.5233C7.56503 33.5233 21.3512 49.6854 21.3512 49.6854L22.8976 50.177L25.2825 50.9011Z" fill="#ECCCC0"/>
<path d="M28.2354 52.7113L25.2825 50.9011L22.8976 50.177L21.3512 49.6854C21.3512 49.6854 7.56503 33.5233 13.4709 33.5233C19.3767 33.5233 28.2354 52.7113 28.2354 52.7113ZM28.2354 52.7113C28.2354 52.7113 18.533 36.536 22.8976 36.536C27.2621 36.536 35.8868 56.7659 35.8868 56.7659L28.2354 52.7113ZM35.9839 56.5829C35.9839 56.5829 30.3447 46.9189 33.4339 46.3475C36.5231 45.7761 43 59.5981 43 59.5981L35.9839 56.5829Z" stroke="#725050" stroke-width="0.3"/>
</g>
<path d="M37.5612 68.2511L36.8812 67.7396L19.6015 54.0913C17.4974 50.8599 23.0097 49.7566 26.5254 52.2921C45.4831 62.9386 62.4441 64.7694 73 82.7778V84.21L71.2902 121H42.0687C42.0687 121 53.4518 86.6653 51.7056 84.0054C49.9595 81.3456 25.8478 68.5849 21.4956 67.1532C17.1435 65.7214 -3.27988 32.1809 1.80843 31.0824C6.89674 29.9839 11.137 40.2365 11.137 40.2365L22.1617 50.4891L19.3755 51.2214C19.3755 51.2214 18.3249 51.8666 18.9092 53.7844C19.4935 55.7023 36.3177 67.7396 36.3177 67.7396L37.5612 68.2511Z" fill="#ECCCC0" stroke="#725050" stroke-width="0.3"/>
<g filter="url(#filter1_d_194_40)">
<path d="M132.717 50.9011L129.765 52.7113L122.113 56.7659C122.113 56.7659 122.423 56.0388 122.955 54.8604C122.421 55.8883 122.016 56.5829 122.016 56.5829L115 59.5981C115 59.5981 121.477 45.7761 124.566 46.3475C126.069 46.6255 125.506 49.0556 124.532 51.478C127.413 45.484 132.2 36.536 135.102 36.536C137.225 36.536 136.021 40.3613 134.223 44.2914C137.277 39.1369 141.335 33.5233 144.529 33.5233C150.435 33.5233 136.649 49.6854 136.649 49.6854L135.102 50.177L132.717 50.9011Z" fill="#ECCCC0"/>
<path d="M129.765 52.7113L132.717 50.9011L135.102 50.177L136.649 49.6854C136.649 49.6854 150.435 33.5233 144.529 33.5233C138.623 33.5233 129.765 52.7113 129.765 52.7113ZM129.765 52.7113C129.765 52.7113 139.467 36.536 135.102 36.536C130.738 36.536 122.113 56.7659 122.113 56.7659L129.765 52.7113ZM122.016 56.5829C122.016 56.5829 127.655 46.9189 124.566 46.3475C121.477 45.7761 115 59.5981 115 59.5981L122.016 56.5829Z" stroke="#725050" stroke-width="0.3"/>
</g>
<path d="M120.439 68.2511L121.119 67.7396L138.399 54.0913C140.503 50.8599 134.99 49.7566 131.475 52.2921C112.517 62.9386 95.5559 64.7694 85 82.7778V84.21L86.7098 121H115.931C115.931 121 104.548 86.6653 106.294 84.0054C108.041 81.3456 132.152 68.5849 136.504 67.1532C140.857 65.7214 161.28 32.1809 156.192 31.0824C151.103 29.9839 146.863 40.2365 146.863 40.2365L135.838 50.4891L138.625 51.2214C138.625 51.2214 139.675 51.8666 139.091 53.7844C138.507 55.7023 121.682 67.7396 121.682 67.7396L120.439 68.2511Z" fill="#ECCCC0" stroke="#725050" stroke-width="0.3"/>
<path d="M42.2032 41.6538L42.5869 41.3051L43.0947 41.4098C44.9826 41.799 46.9609 42.0061 49 42.0061C62.4419 42.0061 72.9804 33.0993 72.9804 22.5128C72.9804 11.9263 62.4419 3.01956 49 3.01956C35.5581 3.01956 25.0196 11.9263 25.0196 22.5128C25.0196 28.0413 26.1169 31.3649 27.1469 33.2698C27.6626 34.2237 28.1668 34.8321 28.5215 35.1904C28.6993 35.37 28.8407 35.488 28.9289 35.556C28.9731 35.5901 29.004 35.6116 29.0197 35.6222C29.023 35.6244 29.0256 35.6261 29.0275 35.6274C29.0278 35.6276 29.028 35.6277 29.0283 35.6279L29.387 35.8398L29.4897 36.2552L32.9127 50.0959L42.2032 41.6538Z" fill="#3E4095" stroke="#F41414" stroke-width="2.03912"/>
<path d="M35 31L35.6735 33.0729H37.8532L36.0898 34.3541L36.7634 36.4271L35 35.1459L33.2366 36.4271L33.9102 34.3541L32.1468 33.0729H34.3265L35 31Z" fill="white"/>
<path d="M43 25L43.6735 27.0729H45.8532L44.0898 28.3541L44.7634 30.4271L43 29.1459L41.2366 30.4271L41.9102 28.3541L40.1468 27.0729H42.3265L43 25Z" fill="white"/>
<path d="M53 32L53.6735 34.0729H55.8532L54.0898 35.3541L54.7634 37.4271L53 36.1459L51.2366 37.4271L51.9102 35.3541L50.1468 34.0729H52.3265L53 32Z" fill="white"/>
<path d="M64 21L64.6735 23.0729H66.8532L65.0898 24.3541L65.7634 26.4271L64 25.1459L62.2366 26.4271L62.9102 24.3541L61.1468 23.0729H63.3265L64 21Z" fill="white"/>
<path d="M53 21L53.6735 23.0729H55.8532L54.0898 24.3541L54.7634 26.4271L53 25.1459L51.2366 26.4271L51.9102 24.3541L50.1468 23.0729H52.3265L53 21Z" fill="white"/>
<path d="M54 8L54.6735 10.0729H56.8532L55.0898 11.3541L55.7634 13.4271L54 12.1459L52.2366 13.4271L52.9102 11.3541L51.1468 10.0729H53.3265L54 8Z" fill="white"/>
<path d="M33 18L33.6735 20.0729H35.8532L34.0898 21.3541L34.7634 23.4271L33 22.1459L31.2366 23.4271L31.9102 21.3541L30.1468 20.0729H32.3265L33 18Z" fill="white"/>
<path d="M41 9L41.6735 11.0729H43.8532L42.0898 12.3541L42.7634 14.4271L41 13.1459L39.2366 14.4271L39.9102 12.3541L38.1468 11.0729H40.3265L41 9Z" fill="white"/>
<path d="M117.797 39.6538L117.413 39.3051L116.905 39.4098C115.017 39.799 113.039 40.0061 111 40.0061C97.5581 40.0061 87.0196 31.0993 87.0196 20.5128C87.0196 9.92634 97.5581 1.01956 111 1.01956C124.442 1.01956 134.98 9.92634 134.98 20.5128C134.98 26.0212 133.766 29.7339 132.591 32.0422C132.003 33.199 131.42 34.0105 130.996 34.5235C130.783 34.7802 130.611 34.9624 130.496 35.0759C130.439 35.1327 130.397 35.1723 130.371 35.1954C130.358 35.207 130.35 35.2144 130.346 35.2178C130.345 35.2186 130.345 35.2184 130.345 35.2188C130.345 35.219 130.344 35.2198 130.344 35.2199C130.343 35.22 130.343 35.2201 130.343 35.22L130.087 35.4333L130.008 35.7638L127.075 48.0845L117.797 39.6538Z" fill="#009739" stroke="#FFCC29" stroke-width="2.03912"/>
<ellipse cx="111.5" cy="21" rx="12.5" ry="11" fill="#3E4095"/>
<path d="M99.5 23.5L123.921 19.5063" stroke="white" stroke-width="2"/>
<path d="M115.5 12L115.837 13.0365H116.927L116.045 13.6771L116.382 14.7135L115.5 14.0729L114.618 14.7135L114.955 13.6771L114.073 13.0365H115.163L115.5 12Z" fill="white"/>
<path d="M110.5 15L110.837 16.0365H111.927L111.045 16.6771L111.382 17.7135L110.5 17.0729L109.618 17.7135L109.955 16.6771L109.073 16.0365H110.163L110.5 15Z" fill="white"/>
<path d="M107.5 28L107.837 29.0365H108.927L108.045 29.6771L108.382 30.7135L107.5 30.0729L106.618 30.7135L106.955 29.6771L106.073 29.0365H107.163L107.5 28Z" fill="white"/>
<path d="M113.5 27L113.837 28.0365H114.927L114.045 28.6771L114.382 29.7135L113.5 29.0729L112.618 29.7135L112.955 28.6771L112.073 28.0365H113.163L113.5 27Z" fill="white"/>
<path d="M120.5 23L120.837 24.0365H121.927L121.045 24.6771L121.382 25.7135L120.5 25.0729L119.618 25.7135L119.955 24.6771L119.073 24.0365H120.163L120.5 23Z" fill="white"/>
<path d="M115.5 23L115.837 24.0365H116.927L116.045 24.6771L116.382 25.7135L115.5 25.0729L114.618 25.7135L114.955 24.6771L114.073 24.0365H115.163L115.5 23Z" fill="white"/>
<defs>
<filter id="filter0_d_194_40" x="5.58543" y="33.3733" width="43.9815" height="39.0467" filterUnits="userSpaceOnUse" color-interpolation-filters="sRGB">
<feFlood flood-opacity="0" result="BackgroundImageFix"/>
<feColorMatrix in="SourceAlpha" type="matrix" values="0 0 0 0 0 0 0 0 0 0 0 0 0 0 0 0 0 0 127 0" result="hardAlpha"/>
<feOffset dy="6.26418"/>
<feGaussianBlur stdDeviation="3.13209"/>
<feComposite in2="hardAlpha" operator="out"/>
<feColorMatrix type="matrix" values="0 0 0 0 0 0 0 0 0 0 0 0 0 0 0 0 0 0 0.25 0"/>
<feBlend mode="normal" in2="BackgroundImageFix" result="effect1_dropShadow_194_40"/>
<feBlend mode="normal" in="SourceGraphic" in2="effect1_dropShadow_194_40" result="shape"/>
</filter>
<filter id="filter1_d_194_40" x="108.433" y="33.3733" width="43.9815" height="39.0467" filterUnits="userSpaceOnUse" color-interpolation-filters="sRGB">
<feFlood flood-opacity="0" result="BackgroundImageFix"/>
<feColorMatrix in="SourceAlpha" type="matrix" values="0 0 0 0 0 0 0 0 0 0 0 0 0 0 0 0 0 0 127 0" result="hardAlpha"/>
<feOffset dy="6.26418"/>
<feGaussianBlur stdDeviation="3.13209"/>
<feComposite in2="hardAlpha" operator="out"/>
<feColorMatrix type="matrix" values="0 0 0 0 0 0 0 0 0 0 0 0 0 0 0 0 0 0 0.25 0"/>
<feBlend mode="normal" in2="BackgroundImageFix" result="effect1_dropShadow_194_40"/>
<feBlend mode="normal" in="SourceGraphic" in2="effect1_dropShadow_194_40" result="shape"/>
</filter>
</defs>
</svg>
