<svg width="91" height="98" viewBox="0 0 91 98" fill="none" xmlns="http://www.w3.org/2000/svg">
<g filter="url(#filter0_dd_140_49)">
<ellipse cx="45.5" cy="45" rx="41.5" ry="45" fill="#D9D9D9"/>
<g filter="url(#filter1_dd_140_49)">
<path d="M60.8068 69.4082C59.8933 69.6773 59.3869 70.455 58.4842 70.1515C57.6517 69.8715 57.0906 68.3863 57.0906 68.3863L56.3474 66.8069C56.3474 66.8069 55.7013 65.8744 55.2326 65.3205C54.5697 64.5371 53.3745 63.4624 53.3745 63.4624L51.1448 61.6972C51.1448 61.6972 50.1215 61.3482 49.5654 60.954C48.8526 60.4486 48.6685 59.9266 48.079 59.2817C47.5421 58.6944 47.2539 58.352 46.6854 57.7952C45.8954 57.0215 45.2764 56.7697 44.5486 55.9371C43.8068 55.0886 43.6487 54.4209 42.9692 53.5216C42.3951 52.7618 41.9875 52.4051 41.3899 51.6636C40.593 50.6749 40.1594 50.1079 39.4389 49.0623C38.8278 48.1755 38.568 47.6233 37.9524 46.7397C37.3012 45.8049 36.9296 45.2813 36.1872 44.4171C35.6019 43.7356 35.2513 43.3716 34.6079 42.7448C33.7792 41.9374 33.2852 41.6283 32.3782 40.7938L30.0556 38.657C30.0556 38.657 28.7442 37.7107 28.0117 36.9847C27.4638 36.4418 27.2541 36.046 26.711 35.4983C26.0045 34.7857 25.4845 34.5204 24.7601 33.826C24.1116 33.2044 23.6703 32.9069 23.1807 32.1537L23.1659 32.1309C22.8031 31.573 22.581 31.2314 22.4375 30.5744C22.298 29.9364 22.245 29.5262 22.4375 28.9021C22.6006 28.3729 22.7699 28.0657 23.1807 27.6943C23.6755 27.247 24.0942 27.0827 24.7601 27.044C25.7163 26.9884 26.1912 27.5369 26.9897 28.066C28.0163 28.7461 28.3487 29.4249 29.2194 30.2956C30.1265 31.2027 30.4944 31.8781 31.542 32.6182C32.377 33.2081 33.0101 33.2648 33.8646 33.826C34.5988 34.3081 34.9361 34.6809 35.6298 35.2196C36.5296 35.9183 37.3761 37.9674 37.9524 36.9847C38.2461 36.484 37.9524 36.0788 37.9524 35.4983V33.826C37.9524 33.3543 37.8683 33.0823 37.9524 32.6182C38.0739 31.9475 38.2718 31.5727 38.6957 31.0389C39.1966 30.408 39.6309 30.1563 40.3679 29.8311C40.8512 29.6179 41.1452 29.5313 41.6686 29.4595C42.1718 29.3904 42.6387 29.8452 42.9692 29.4595C43.2526 29.129 42.8921 28.7732 42.9692 28.3447C43.0671 27.8008 43.1984 27.4886 43.5267 27.044C43.74 26.7551 43.923 26.6477 44.177 26.3937C44.5761 25.9946 44.6788 25.5908 45.1989 25.3717C45.7339 25.1465 46.1794 25.0872 46.6854 25.3717C47.1155 25.6136 47.1384 25.9946 47.4286 26.3937L48.7293 25.8363C48.7293 25.0744 48.4686 24.6012 48.7293 23.8853C48.8741 23.4877 49.0257 23.2892 49.2867 22.9562C49.6994 22.4297 50.0373 22.2222 50.5874 21.8414C50.9352 21.6005 51.1262 21.4476 51.5164 21.284C51.9303 21.1104 52.1838 20.9708 52.6313 21.0053C53.264 21.0539 53.4777 21.5197 54.0248 21.8414C54.7813 22.2861 55.2467 22.4679 55.9758 22.9562C56.6209 23.3883 56.968 23.6559 57.5552 24.164C58.2535 24.7684 58.5744 25.1832 59.2274 25.8363C59.8745 25.932 60.243 26.0621 60.8068 26.3937C61.4485 26.7711 61.6581 27.1844 62.2004 27.6943C62.9295 28.38 63.3504 28.7521 64.0584 29.4595C65.0754 30.4756 65.6474 31.0487 66.5669 32.1537C67.2955 33.0295 67.9135 33.4167 68.332 34.4763C68.6563 35.2974 68.586 35.8311 68.7036 36.706C68.8638 37.8975 68.9824 38.3569 68.9824 39.7719V43.3951C68.9824 43.3951 69.2057 44.9195 69.2611 45.9035C69.3181 46.9178 69.3074 47.49 69.2611 48.5048C69.2095 49.6336 68.7194 50.2859 68.9824 51.3849C69.2054 52.3171 69.7564 52.6669 70.1901 53.5216C70.8153 54.7537 71.0524 55.498 71.5837 56.7733C71.9904 57.7497 72.5572 58.225 72.6056 59.2817C72.6359 59.9431 72.4996 60.3148 72.3269 60.954C72.1231 61.7084 71.8456 62.0757 71.5837 62.812C71.3414 63.4931 71.3886 63.9517 71.0262 64.5772C70.6531 65.2214 70.3014 65.4989 69.7256 65.9708C68.9842 66.5783 68.4502 66.758 67.5888 67.1785C66.7411 67.5924 66.2473 67.7898 65.3591 68.1076C64.3971 68.4517 63.8337 68.5724 62.8507 68.8508C62.0547 69.0763 61.6004 69.1745 60.8068 69.4082Z" fill="#ECCCC0"/>
<path d="M59.2274 25.8363C59.8745 25.932 60.243 26.0621 60.8068 26.3937C61.4485 26.7711 61.6581 27.1844 62.2004 27.6943C62.9295 28.38 63.3504 28.7521 64.0584 29.4595C65.0754 30.4756 65.6474 31.0487 66.5669 32.1537C67.2955 33.0295 67.9135 33.4167 68.332 34.4763C68.6563 35.2974 68.586 35.8311 68.7036 36.706C68.8638 37.8975 68.9824 38.3569 68.9824 39.7719C68.9824 41.1868 68.9824 41.9801 68.9824 43.3951C68.9824 43.3951 69.2057 44.9195 69.2611 45.9035C69.3181 46.9178 69.3074 47.49 69.2611 48.5048C69.2095 49.6336 68.7194 50.2859 68.9824 51.3849C69.2054 52.3171 69.7564 52.6669 70.1901 53.5216C70.8153 54.7537 71.0524 55.498 71.5837 56.7733C71.9904 57.7497 72.5572 58.225 72.6056 59.2817C72.6359 59.9431 72.4996 60.3148 72.3269 60.954C72.1231 61.7084 71.8456 62.0757 71.5837 62.812C71.3414 63.4931 71.3886 63.9517 71.0262 64.5772C70.6531 65.2214 70.3014 65.4989 69.7256 65.9708C68.9842 66.5783 68.4502 66.758 67.5888 67.1785C66.7411 67.5924 66.2473 67.7898 65.3591 68.1076C64.3971 68.4517 63.8337 68.5724 62.8507 68.8508C62.0547 69.0763 61.6004 69.1745 60.8068 69.4082C59.8933 69.6773 59.3869 70.455 58.4842 70.1515C57.6517 69.8715 57.0906 68.3863 57.0906 68.3863L56.3474 66.8069C56.3474 66.8069 55.7013 65.8744 55.2326 65.3205C54.5697 64.5371 53.3745 63.4624 53.3745 63.4624L51.1448 61.6972M59.2274 25.8363C58.1027 25.8363 57.4721 25.8363 56.3474 25.8363C55.005 25.8363 54.2524 25.8363 52.91 25.8363C52.0029 25.8363 51.4944 25.8363 50.5874 25.8363C49.8617 25.8363 49.4549 25.8363 48.7293 25.8363M59.2274 25.8363C58.5744 25.1832 58.2535 24.7684 57.5552 24.164C56.968 23.6559 56.6209 23.3883 55.9758 22.9562C55.2467 22.4679 54.7813 22.2861 54.0248 21.8414C53.4777 21.5197 53.264 21.0539 52.6313 21.0053C52.1838 20.9708 51.9303 21.1104 51.5164 21.284C51.1262 21.4476 50.9352 21.6005 50.5874 21.8414C50.0373 22.2222 49.6994 22.4297 49.2867 22.9562C49.0257 23.2892 48.8741 23.4877 48.7293 23.8853C48.4686 24.6012 48.7293 25.0744 48.7293 25.8363M48.7293 25.8363C48.2213 26.0539 47.9366 26.176 47.4286 26.3937M47.4286 26.3937C47.2109 26.9016 47.0183 27.1617 46.8712 27.6943C46.7059 28.293 46.6465 28.6539 46.6854 29.2737C46.7108 29.6785 46.7031 29.9265 46.8712 30.2956C47.1372 30.8798 47.567 31.0234 48.079 31.4105C48.9591 32.076 49.5375 32.3715 50.5874 32.7112C51.2576 32.928 51.6516 33.0126 52.3525 33.0828C53.0024 33.1478 53.3717 33.0828 54.0248 33.0828C54.4965 33.0828 54.7669 33.1579 55.2326 33.0828C55.765 32.9969 56.0253 32.7997 56.5332 32.6182C57.0412 32.4368 57.5857 31.6749 57.8339 32.1537C58.0082 32.49 57.6029 32.707 57.5552 33.0828C57.4718 33.7396 57.4383 34.2242 57.8339 34.755C58.2024 35.2496 58.6578 35.2618 59.2274 35.4983C59.6513 35.6742 59.8852 35.8283 60.3423 35.8699H60.8068C60.8068 35.8699 60.2108 36.3116 59.9707 36.706C59.827 36.942 59.7047 37.0803 59.692 37.3564C59.6777 37.666 59.7873 37.8496 59.9707 38.0996C60.2028 38.416 60.4408 38.5153 60.8068 38.657C61.4158 38.8928 61.8701 38.8928 62.4791 38.657M47.4286 26.3937C47.1384 25.9946 47.1155 25.6136 46.6854 25.3717C46.1794 25.0872 45.7339 25.1465 45.1989 25.3717C44.6788 25.5908 44.5761 25.9946 44.177 26.3937C43.923 26.6477 43.74 26.7551 43.5267 27.044C43.1984 27.4886 43.0671 27.8008 42.9692 28.3447C42.8921 28.7732 43.2526 29.129 42.9692 29.4595C42.6387 29.8452 42.1718 29.3904 41.6686 29.4595C41.1452 29.5313 40.8513 29.6179 40.3679 29.8311C39.6309 30.1563 39.1966 30.408 38.6957 31.0389C38.2718 31.5727 38.0739 31.9475 37.9524 32.6182C37.8683 33.0823 37.9524 33.3543 37.9524 33.826C37.9524 34.4791 37.9524 34.8452 37.9524 35.4983C37.9524 36.0788 38.2461 36.484 37.9524 36.9847C37.3761 37.9674 36.5296 35.9183 35.6298 35.2196C34.9361 34.6809 34.5988 34.3081 33.8646 33.826C33.0101 33.2648 32.377 33.2081 31.542 32.6182C30.4944 31.8781 30.1265 31.2027 29.2194 30.2956C28.3487 29.4249 28.0163 28.7461 26.9897 28.066C26.1912 27.5369 25.7163 26.9884 24.7601 27.044C24.0942 27.0827 23.6755 27.247 23.1807 27.6943C22.7699 28.0657 22.6006 28.3729 22.4375 28.9021C22.245 29.5262 22.298 29.9364 22.4375 30.5744C22.583 31.2403 22.8092 31.5822 23.1807 32.1537C23.6703 32.9069 24.1116 33.2044 24.7601 33.826C25.4845 34.5204 26.0045 34.7857 26.711 35.4983C27.2541 36.046 27.4638 36.4418 28.0117 36.9847C28.7442 37.7107 30.0556 38.657 30.0556 38.657C30.9626 39.4915 31.4711 39.9593 32.3782 40.7938C33.2852 41.6283 33.7792 41.9374 34.6079 42.7448C35.2513 43.3716 35.6019 43.7356 36.1872 44.4171C36.9296 45.2813 37.3012 45.8049 37.9524 46.7397C38.568 47.6233 38.8278 48.1755 39.4389 49.0623C40.1594 50.1079 40.593 50.6749 41.3899 51.6636C41.9875 52.4051 42.3951 52.7618 42.9692 53.5216C43.6487 54.4209 43.8068 55.0886 44.5486 55.9371C45.2764 56.7697 45.8954 57.0215 46.6854 57.7952C47.2539 58.352 47.5421 58.6944 48.079 59.2817C48.6685 59.9266 48.8526 60.4486 49.5654 60.954C50.1215 61.3482 51.1448 61.6972 51.1448 61.6972M51.1448 61.6972C51.1448 61.6972 52.2092 61.9966 52.91 62.0688C53.5957 62.1394 54.6751 62.0688 54.6751 62.0688C54.6751 62.0688 55.4965 61.9193 55.9758 61.6972C56.4506 61.4772 57.0906 60.954 57.0906 60.954L58.4842 60.1178C58.4842 60.1178 59.2566 59.3455 59.692 58.9101C60.1273 58.4747 60.8068 57.7952 60.8068 57.7952" stroke="#725050" stroke-width="0.3"/>
<path d="M23.0878 39.6788C23.0878 38.9532 23.6271 38.3062 23.0878 37.8208L20.2078 36.9846L19.4645 41.1653L19 45.6247V50.0841V55.1009L20.2078 58.8171C20.2078 58.8171 21.532 60.514 22.6233 61.3255C23.6131 62.0615 24.2103 62.5266 25.4104 62.8119C26.5046 63.0721 27.1789 62.9839 28.2904 62.8119C29.108 62.6854 29.596 62.6279 30.3343 62.2545C30.8913 61.9728 31.0218 61.4426 31.6349 61.3255C32.6628 61.129 33.8646 62.8119 33.8646 62.8119L35.1653 53.8931L28.2904 58.1667C28.2904 58.1667 29.9314 58.9616 29.684 59.7461C29.5679 60.1139 29.364 60.2903 29.0336 60.4893C28.4743 60.8264 28.0059 60.5944 27.3614 60.4893C26.5567 60.3581 26.0979 60.1843 25.4104 59.7461C24.6748 59.2773 24.2998 58.9023 23.831 58.1667C23.3928 57.4792 23.3178 56.998 23.0878 56.2157C22.8269 55.3283 22.7135 54.8137 22.6233 53.8931C22.5348 52.9904 22.6233 52.4776 22.6233 51.5705V48.7834C22.6233 47.5499 22.5557 46.8564 22.6233 45.6247C22.7053 44.1284 23.0228 43.3128 23.0878 41.8156C23.124 40.9819 23.0878 40.5133 23.0878 39.6788Z" fill="#725050" stroke="#725050" stroke-width="0.3"/>
<path d="M47.0571 28.2517C47.311 28.6145 47.3498 28.9194 47.7074 29.1807C48.1843 29.5291 48.6036 29.4379 49.1939 29.4594C49.9271 29.4862 50.4172 29.5487 51.0519 29.1807C51.4958 28.9234 51.7929 28.729 51.981 28.2517C52.1539 27.8128 51.981 27.5156 51.981 27.0439C51.981 26.6811 51.981 26.4777 51.981 26.1149" stroke="#725050" stroke-width="0.3"/>
<path d="M46.0351 39.5862L47.057 38.1927L47.6145 37.5424" stroke="#725050" stroke-width="0.3"/>
<path d="M49.3796 45.3461C49.3796 44.8019 49.3796 43.9525 49.3796 43.9525C49.3796 43.9525 49.1086 43.0309 49.3796 42.559C49.5857 42.2003 49.8216 42.0341 50.2158 41.9086C50.5615 41.7986 50.782 41.9086 51.1448 41.9086C51.7253 41.9086 52.0508 41.9086 52.6313 41.9086" stroke="#725050" stroke-width="0.3"/>
<path d="M53.2816 42.1876C53.2816 41.6071 53.134 41.2625 53.2816 40.7011C53.4178 40.183 53.5268 39.8438 53.9319 39.4933C54.2886 39.1847 54.5753 39.0418 55.0468 39.0288C55.5519 39.0149 55.8179 39.239 56.2545 39.4933C56.656 39.7272 56.8673 39.8962 57.1836 40.2366" stroke="#725050" stroke-width="0.3"/>
<path d="M53.0958 42.1873L54.5823 42.6518H55.8829L56.812 41.3512L57.0907 39.7718L56.5332 38.0996L54.9539 36.1486L54.5823 35.3124M54.5823 35.3124L53.5603 33.3615M54.5823 35.3124L53.5603 35.5911L52.7242 36.1486L52.0739 37.0776" stroke="#725050" stroke-width="0.3"/>
<path d="M59.6918 37.7279C59.3481 37.7468 59.1419 37.8155 58.8557 38.0066C58.3427 38.3491 58.3856 38.8472 58.1124 39.4002C57.8824 39.8659 57.819 40.1606 57.555 40.6079C57.3042 41.0329 57.0739 41.2118 56.8118 41.6299C56.6564 41.8777 56.6043 42.0381 56.4402 42.2802C56.1374 42.7266 55.8225 42.8618 55.5111 43.3021C55.2019 43.7395 55.0458 44.0072 54.8608 44.5099C54.5701 45.2996 54.6326 45.8067 54.5821 46.6467C54.5385 47.371 54.4142 47.7988 54.5821 48.5048C54.7623 49.2626 55.0827 49.6194 55.5111 50.2699C56.0631 51.108 56.413 51.5779 57.1834 52.2209C57.9573 52.8669 58.4705 53.1643 59.4131 53.5216C60.1455 53.7992 60.5988 53.8197 61.3641 53.9861C62.3027 54.1902 63.0902 54.632 63.7796 54.4506C64.4689 54.2692 64.8554 54.1675 65.5448 53.9861C66.2341 53.8047 66.5188 53.8492 67.0312 53.5216C67.5949 53.1612 67.7107 52.7289 68.1461 52.2209" stroke="#725050" stroke-width="0.3"/>
<path d="M54.4893 51.7565L53.746 50.363V48.3191V46.7397L54.4893 45.9036" stroke="#725050" stroke-width="0.3"/>
<path d="M51.1448 53.2432V50.549V48.3193V47.0187" stroke="#725050" stroke-width="0.3"/>
<path d="M49.1938 48.8765C49.3389 48.0058 49.5201 47.5284 49.5654 46.6468C49.5859 46.2483 49.5859 46.0234 49.5654 45.6249" stroke="#725050" stroke-width="0.3"/>
<path d="M41.5757 46.1823L44.4558 44.51L45.9422 43.3022" stroke="#725050" stroke-width="0.3"/>
<path d="M36.559 44.3244C36.559 43.8164 36.4699 43.5237 36.559 43.0237C36.662 42.4467 36.8268 42.1397 37.1165 41.6301C37.3854 41.157 37.5936 40.9243 37.9526 40.5153C38.2572 40.1682 38.3964 39.9226 38.7887 39.6792C39.3572 39.3264 39.7945 39.2498 40.461 39.3075C41.1255 39.3651 41.4599 39.6294 42.0404 39.9579C42.3819 40.1511 42.8765 40.5153 42.8765 40.5153C42.8765 40.5153 43.4485 40.9036 43.8056 41.1656C44.3263 41.5479 45.1062 42.1876 45.1062 42.1876L46.0353 43.0237L47.1501 44.0456L48.2649 44.8818L49.0082 45.2534C49.0082 45.2534 49.6121 45.5504 50.0301 45.625C50.4587 45.7015 50.713 45.6796 51.145 45.625C51.6691 45.5588 51.9577 45.4558 52.4456 45.2534C52.7454 45.1291 52.9517 45.1033 53.1889 44.8818C53.5336 44.5599 53.6684 44.2383 53.6534 43.7669C53.6394 43.3288 53.3723 43.1431 53.1889 42.745C52.9036 42.1259 52.802 41.7467 52.4456 41.1656C51.9478 40.3538 51.4601 40.0521 50.8663 39.3075C50.3007 38.5984 50.0573 38.1429 49.4727 37.4495C48.8937 36.7627 48.5188 36.422 47.8933 35.7772C47.1788 35.0406 46.7209 34.6826 46.0353 33.9191C45.3803 33.1898 44.9507 32.8143 44.4559 31.9681C44.1527 31.4497 44.1294 31.0804 43.8056 30.5746C43.5 30.0973 42.8765 29.4597 42.8765 29.4597" stroke="#725050" stroke-width="0.3"/>
<path d="M31.8208 40.0507C32.0385 39.3613 32.051 38.9301 32.3782 38.2855C32.6151 37.8189 32.7893 37.575 33.1215 37.1706C33.4471 36.7742 33.6185 36.5184 34.0505 36.2416C34.5046 35.9506 34.8169 35.8511 35.3512 35.7771C35.7105 35.7273 35.9208 35.7273 36.2802 35.7771" stroke="#725050" stroke-width="0.3"/>
<path d="M28.1046 36.5203C28.3222 35.9035 28.662 34.9409 28.662 34.9409L29.4052 33.9189C29.4052 33.9189 29.6922 33.4176 29.9626 33.1757C30.3254 32.8511 31.0775 32.6183 31.0775 32.6183" stroke="#725050" stroke-width="0.3"/>
</g>
</g>
<defs>
<filter id="filter0_dd_140_49" x="0" y="0" width="91" height="98" filterUnits="userSpaceOnUse" color-interpolation-filters="sRGB">
<feFlood flood-opacity="0" result="BackgroundImageFix"/>
<feColorMatrix in="SourceAlpha" type="matrix" values="0 0 0 0 0 0 0 0 0 0 0 0 0 0 0 0 0 0 127 0" result="hardAlpha"/>
<feOffset dy="4"/>
<feGaussianBlur stdDeviation="2"/>
<feComposite in2="hardAlpha" operator="out"/>
<feColorMatrix type="matrix" values="0 0 0 0 0 0 0 0 0 0 0 0 0 0 0 0 0 0 0.25 0"/>
<feBlend mode="normal" in2="BackgroundImageFix" result="effect1_dropShadow_140_49"/>
<feColorMatrix in="SourceAlpha" type="matrix" values="0 0 0 0 0 0 0 0 0 0 0 0 0 0 0 0 0 0 127 0" result="hardAlpha"/>
<feOffset dy="4"/>
<feGaussianBlur stdDeviation="2"/>
<feComposite in2="hardAlpha" operator="out"/>
<feColorMatrix type="matrix" values="0 0 0 0 0 0 0 0 0 0 0 0 0 0 0 0 0 0 0.25 0"/>
<feBlend mode="normal" in2="effect1_dropShadow_140_49" result="effect2_dropShadow_140_49"/>
<feBlend mode="normal" in="SourceGraphic" in2="effect2_dropShadow_140_49" result="shape"/>
</filter>
<filter id="filter1_dd_140_49" x="14.85" y="20.8501" width="61.9098" height="57.5206" filterUnits="userSpaceOnUse" color-interpolation-filters="sRGB">
<feFlood flood-opacity="0" result="BackgroundImageFix"/>
<feColorMatrix in="SourceAlpha" type="matrix" values="0 0 0 0 0 0 0 0 0 0 0 0 0 0 0 0 0 0 127 0" result="hardAlpha"/>
<feOffset dy="4"/>
<feGaussianBlur stdDeviation="2"/>
<feComposite in2="hardAlpha" operator="out"/>
<feColorMatrix type="matrix" values="0 0 0 0 0 0 0 0 0 0 0 0 0 0 0 0 0 0 0.25 0"/>
<feBlend mode="normal" in2="BackgroundImageFix" result="effect1_dropShadow_140_49"/>
<feColorMatrix in="SourceAlpha" type="matrix" values="0 0 0 0 0 0 0 0 0 0 0 0 0 0 0 0 0 0 127 0" result="hardAlpha"/>
<feOffset dy="4"/>
<feGaussianBlur stdDeviation="2"/>
<feComposite in2="hardAlpha" operator="out"/>
<feColorMatrix type="matrix" values="0 0 0 0 0 0 0 0 0 0 0 0 0 0 0 0 0 0 0.25 0"/>
<feBlend mode="normal" in2="effect1_dropShadow_140_49" result="effect2_dropShadow_140_49"/>
<feBlend mode="normal" in="SourceGraphic" in2="effect2_dropShadow_140_49" result="shape"/>
</filter>
</defs>
</svg>
