<svg width="91" height="98" viewBox="0 0 91 98" fill="none" xmlns="http://www.w3.org/2000/svg">
<g filter="url(#filter0_dd_140_62)">
<g filter="url(#filter1_d_140_62)">
<ellipse cx="45.5" cy="45" rx="41.5" ry="45" fill="#D9D9D9"/>
</g>
<g filter="url(#filter2_ddd_140_62)">
<path d="M47.8882 71.8477C46.8668 71.9354 46.2803 71.9758 45.2632 71.8477C44.0557 71.6956 43.3396 71.5719 42.2632 71.0039C41.499 70.6007 40.895 70.4504 40.4819 69.6914C40.0954 68.981 40.3361 68.4366 40.2944 67.6289C40.2398 66.5686 40.3623 65.9697 40.2944 64.9102C40.2356 63.9902 40.4958 63.3519 40.0132 62.5664C39.6598 61.9912 39.196 61.9001 38.7007 61.4414C38.2069 60.9841 37.4819 60.2227 37.4819 60.2227C37.4819 60.2227 36.8058 59.2445 36.3569 58.6289C35.5114 57.4691 34.9296 56.8989 34.1069 55.7227C33.7287 55.1818 33.1694 54.3164 33.1694 54.3164C33.1694 54.3164 32.7007 53.2453 32.4663 52.5352C32.3229 52.1006 32.4546 51.7408 32.1382 51.4102C31.818 51.0756 31.4306 51.2358 31.0132 51.0352C30.4455 50.7623 30.143 50.5462 29.7007 50.0977L28.9507 49.3008L28.2007 48.9727L27.2163 48.082L26.2319 47.1914L25.2944 46.2539L24.5444 45.1289C24.5444 45.1289 24.0602 44.1696 23.7944 43.5352C23.4053 42.606 23.191 42.0759 22.9507 41.0977C22.7209 40.1624 22.2235 39.5565 22.5757 38.6602C22.8315 38.0092 23.2756 37.8167 23.7944 37.3477C24.3376 36.8566 24.8904 36.8333 25.2944 36.2227C25.4934 35.9219 25.463 35.6746 25.6694 35.3789C25.9218 35.0174 26.1246 34.8372 26.5132 34.6289C27.0258 34.2994 27.2985 34.0908 27.8257 33.7852C28.5339 33.3746 28.9536 33.1825 29.7007 32.8477C30.4204 32.5252 30.807 32.274 31.5757 32.0977C31.9189 32.0189 32.1156 31.9879 32.4663 31.957C32.8141 31.9021 33.0205 31.9204 33.3569 31.8164C33.6855 31.7148 34.1538 31.4414 34.1538 31.4414L34.9507 31.0664L37.2007 30.2227L39.4507 29.4727L42.2632 28.7227L45.5444 27.6914C45.5444 27.6914 45.5997 27.0023 45.5444 26.5664C45.4409 25.7502 45.233 25.2938 44.7944 24.5977L44.7917 24.5934C44.5434 24.1993 44.3969 23.9668 44.0444 23.6602C43.6057 23.2785 43.2445 23.2316 42.7319 22.957C42.4024 23.2316 42.2477 23.4263 41.8882 23.6602C41.4488 23.946 41.1826 24.1156 40.6694 24.2227C40.2035 24.3198 39.9267 24.2227 39.4507 24.2227C38.7551 24.2227 38.3284 24.4455 37.6694 24.2227C37.0727 24.0209 36.6152 23.8597 36.3569 23.2852C36.1468 22.8177 36.282 22.4797 36.3569 21.9727C36.418 21.5597 36.6382 20.9414 36.6382 20.9414C36.6382 20.9414 36.7611 20.2964 36.9194 19.9102C37.0874 19.5005 37.2623 19.3102 37.4819 18.9258L38.0444 17.9414C38.0444 17.9414 38.8185 16.8856 39.4507 16.3477C39.8916 15.9725 40.1189 15.6828 40.6694 15.5039C41.2614 15.3116 41.6408 15.5039 42.2632 15.5039H44.7944H47.232H49.2945C49.2945 15.5039 50.8257 16.0664 51.4507 16.3477C52.0757 16.6289 52.1972 16.9186 52.5757 17.3789C53.1125 18.0317 53.2921 18.5096 53.5832 19.2844L53.607 19.3477C53.9759 20.329 54.1695 21.9727 54.1695 21.9727L55.2007 24.5977L56.1382 27.6914L57.7319 30.5977C57.7319 30.5977 58.5587 32.1626 58.9507 33.2227C59.3205 34.2226 59.3971 34.8257 59.7007 35.8477C59.9843 36.8024 60.1889 37.3243 60.4507 38.2852C60.7472 39.3734 60.9716 39.978 61.107 41.0977C61.2563 42.3335 61.107 44.2852 61.107 44.2852C61.107 44.2852 60.9595 46.0699 60.732 47.1914C60.4509 48.5764 60.0382 49.2878 59.7007 50.6602C59.3268 52.1802 59.0766 53.0374 58.9507 54.5977C58.8565 55.7654 58.9507 57.5977 58.9507 57.5977V59.1914C59.4788 59.6986 59.7367 60.0424 60.0757 60.6914C60.6145 61.7227 60.732 63.5977 60.732 63.5977C60.732 63.5977 61.0579 64.9775 60.732 65.7539C60.3707 66.6146 59.6759 66.76 58.9507 67.3477C57.909 68.1917 57.2773 68.6093 56.1382 69.3164C55.3859 69.7835 54.9808 70.0868 54.1695 70.4414C52.9571 70.9713 52.1803 71.0006 50.8882 71.2852C49.7241 71.5416 49.0758 71.7457 47.8882 71.8477Z" fill="#ECCCC0"/>
<path d="M58.9507 59.1914C59.4788 59.6986 59.7367 60.0424 60.0757 60.6914C60.6145 61.7227 60.732 63.5977 60.732 63.5977C60.732 63.5977 61.0579 64.9775 60.732 65.7539C60.3707 66.6146 59.6759 66.76 58.9507 67.3477C57.909 68.1917 57.2773 68.6093 56.1382 69.3164C55.3859 69.7835 54.9808 70.0868 54.1695 70.4414C52.9571 70.9713 52.1803 71.0006 50.8882 71.2852C49.7241 71.5416 49.0758 71.7457 47.8882 71.8477C46.8668 71.9354 46.2803 71.9758 45.2632 71.8477C44.0557 71.6956 43.3396 71.5719 42.2632 71.0039C41.499 70.6007 40.895 70.4504 40.4819 69.6914C40.0954 68.981 40.3361 68.4366 40.2944 67.6289C40.2398 66.5686 40.3623 65.9697 40.2944 64.9102C40.2356 63.9902 40.4958 63.3519 40.0132 62.5664C39.6598 61.9912 39.196 61.9001 38.7007 61.4414C38.2069 60.9841 37.4819 60.2227 37.4819 60.2227C37.4819 60.2227 36.8058 59.2445 36.3569 58.6289C35.5114 57.4691 34.9296 56.8989 34.1069 55.7227C33.7287 55.1818 33.1694 54.3164 33.1694 54.3164C33.1694 54.3164 32.7007 53.2453 32.4663 52.5352C32.3229 52.1006 32.4546 51.7408 32.1382 51.4102C31.818 51.0756 31.4306 51.2358 31.0132 51.0352C30.4455 50.7623 30.143 50.5462 29.7007 50.0977L28.9507 49.3008M58.9507 59.1914C58.9507 58.569 58.9507 57.5977 58.9507 57.5977C58.9507 57.5977 58.8565 55.7654 58.9507 54.5977C59.0766 53.0374 59.3268 52.1802 59.7007 50.6602C60.0382 49.2878 60.4509 48.5764 60.732 47.1914C60.9595 46.0699 61.107 44.2852 61.107 44.2852C61.107 44.2852 61.2563 42.3335 61.107 41.0977C60.9716 39.978 60.7472 39.3733 60.4507 38.2852C60.1889 37.3243 59.9843 36.8024 59.7007 35.8477C59.3971 34.8257 59.3205 34.2226 58.9507 33.2227C58.5587 32.1626 57.732 30.5977 57.732 30.5977L56.1382 27.6914L55.2007 24.5977L54.1695 21.9727C54.1695 21.9727 53.9759 20.329 53.607 19.3477C53.3015 18.5353 53.1269 18.0493 52.5757 17.3789C52.1972 16.9186 52.0757 16.6289 51.4507 16.3477C50.8257 16.0664 49.2945 15.5039 49.2945 15.5039C49.0695 15.5039 47.8257 15.5039 47.2319 15.5039C46.6382 15.5039 45.7464 15.5039 44.7944 15.5039C43.8059 15.5039 43.2517 15.5039 42.2632 15.5039C41.6408 15.5039 41.2614 15.3116 40.6694 15.5039C40.1189 15.6828 39.8916 15.9725 39.4507 16.3477C38.8185 16.8856 38.0444 17.9414 38.0444 17.9414C38.0444 17.9414 37.7016 18.5414 37.4819 18.9258M58.9507 59.1914C58.4747 59.7772 58.2613 60.1534 57.732 60.6914C57.2585 61.1726 56.4195 61.8164 56.4195 61.8164M46.7632 18.8789L46.3882 19.3477C45.7658 19.9335 45.4168 20.2619 44.7944 20.8477C44.1721 21.4335 43.5757 22.2539 43.5757 22.2539C43.5757 22.2539 43.0615 22.6825 42.7319 22.957M42.7319 22.957C42.4024 23.2316 42.2477 23.4263 41.8882 23.6602C41.4488 23.946 41.1826 24.1156 40.6694 24.2227C40.2035 24.3198 39.9267 24.2227 39.4507 24.2227C38.7551 24.2227 38.3284 24.4455 37.6694 24.2227C37.0727 24.0209 36.6152 23.8597 36.3569 23.2852C36.1468 22.8177 36.282 22.4797 36.3569 21.9727C36.418 21.5597 36.6382 20.9414 36.6382 20.9414M42.7319 22.957C43.2445 23.2316 43.6057 23.2785 44.0444 23.6602C44.3982 23.9679 44.5445 24.201 44.7944 24.5977C45.233 25.2938 45.4409 25.7502 45.5444 26.5664C45.5997 27.0023 45.5444 27.6914 45.5444 27.6914M45.5444 27.6914L42.2632 28.7227L39.4507 29.4727L37.2007 30.2227L34.9507 31.0664L34.1538 31.4414M45.5444 27.6914V28.3477M26.5132 34.6289C27.0258 34.2994 27.2985 34.0908 27.8257 33.7852C28.5339 33.3746 28.9536 33.1825 29.7007 32.8477C30.4204 32.5252 30.807 32.2741 31.5757 32.0977C31.9189 32.0189 32.1156 31.9879 32.4663 31.957M26.5132 34.6289C26.1246 34.8372 25.9218 35.0174 25.6694 35.3789C25.463 35.6746 25.4934 35.9219 25.2944 36.2227C24.8904 36.8333 24.3376 36.8566 23.7944 37.3477C23.2756 37.8167 22.8315 38.0092 22.5757 38.6602C22.2235 39.5565 22.7209 40.1624 22.9507 41.0977C23.191 42.0759 23.4053 42.606 23.7944 43.5352C24.0602 44.1696 24.5444 45.1289 24.5444 45.1289L25.2944 46.2539L26.2319 47.1914L27.2163 48.082M26.5132 34.6289C26.4034 35.2513 26.2319 36.2227 26.2319 36.2227C26.3418 36.8085 26.4034 37.1369 26.5132 37.7227C26.623 38.3085 26.4598 38.6963 26.5132 39.3164C26.6068 40.4046 26.8861 40.9803 27.1694 42.0352C27.4069 42.9191 27.8257 44.2852 27.8257 44.2852L28.6694 46.2539L29.314 47.1914M30.7319 48.9727C30.7319 48.9727 30.5552 49.511 30.2632 49.6289C30.0595 49.7112 29.7007 49.6289 29.7007 49.6289L28.9507 49.3008M30.7319 48.9727C30.7319 48.9727 31.2243 49.4036 31.5757 49.6289C31.9066 49.841 32.1481 49.867 32.4663 50.0977C32.8752 50.394 32.9695 50.7113 33.3569 51.0352C33.911 51.4983 34.4332 51.469 34.9507 51.9727C35.2498 52.2638 35.3535 52.4848 35.6069 52.8164C36.1316 53.5029 36.0952 54.3385 36.9194 54.5977C37.3386 54.7295 37.8614 54.9971 38.0444 54.5977C38.1283 54.4146 38.0444 54.2834 38.0444 54.082M30.7319 48.9727L29.9783 48.082M32.4663 31.957C32.8141 31.9021 33.0205 31.9204 33.3569 31.8164C33.6855 31.7148 34.1538 31.4414 34.1538 31.4414M32.4663 31.957C32.3382 32.671 32.2059 33.063 32.1382 33.7852C32.063 34.5871 32.1382 35.0422 32.1382 35.8477C32.1382 37.422 32.1382 38.3046 32.1382 39.8789C32.1382 40.8674 32.1382 42.4102 32.1382 42.4102L32.4663 44.7539L32.8882 47.7539M32.8882 47.7539C32.8882 47.7539 32.5628 48.4789 32.1382 48.5977C31.9267 48.6569 31.7947 48.6148 31.5757 48.5977C30.9222 48.5467 29.9783 48.082 29.9783 48.082M32.8882 47.7539C32.8882 47.7539 33.2596 48.1253 33.4976 48.3633M27.2163 48.082L28.2007 48.9727L28.9507 49.3008M27.2163 48.082C27.7838 48.082 28.1564 48.3246 28.6694 48.082C28.8715 47.9865 29.1382 47.7539 29.1382 47.7539L29.314 47.1914M29.314 47.1914L29.7007 47.7539L29.9783 48.082M33.4976 48.3633C33.7355 48.6013 34.1069 48.9727 34.1069 48.9727L34.9507 50.0977L36.3569 51.4102L37.0132 52.1133M33.4976 48.3633C34.3213 48.3633 34.8105 48.5738 35.6069 48.3633C36.1533 48.2189 36.4349 48.0447 36.9194 47.7539C37.3903 47.4713 38.0444 46.9102 38.0444 46.9102M37.0132 52.1133C37.0132 52.1133 37.4582 52.5059 37.6694 52.8164C37.8536 53.0872 37.9872 53.244 38.0444 53.5664C38.0796 53.7647 38.0444 53.8807 38.0444 54.082M37.0132 52.1133C37.0132 52.1133 37.5058 51.2573 38.0444 51.0352C38.5521 50.8258 38.932 50.8549 39.4507 51.0352C40.0509 51.2438 40.3145 51.5862 40.6694 52.1133C40.9259 52.4941 41.0655 52.7381 41.1382 53.1914C41.1846 53.4806 41.329 53.7192 41.1382 53.9414C41.0799 54.0093 41.0375 54.0423 40.9574 54.082M38.0444 54.082C38.4277 54.3765 38.6962 54.4995 39.1694 54.5977C39.5996 54.6869 39.8865 54.7607 40.2944 54.5977C40.599 54.4759 40.6985 54.2834 40.9574 54.082M40.9574 54.082C41.3209 54.082 41.5375 54.1775 41.8882 54.082C42.2608 53.9806 42.4593 53.8399 42.7319 53.5664C43.0558 53.2415 43.128 52.9626 43.2944 52.5352C43.4588 52.1132 43.5357 51.8613 43.5757 51.4102C43.5983 51.1549 43.5757 51.0102 43.5757 50.7539M40.4819 35.8477C40.4819 35.8477 40.4677 36.191 40.4819 36.4102C40.4988 36.6685 40.5391 36.8101 40.5757 37.0664M40.5757 37.0664C40.6123 37.3227 40.6435 37.4651 40.6694 37.7227C40.7317 38.3419 40.6227 38.6958 40.6694 39.3164C40.7224 40.0191 40.9422 40.3932 40.9574 41.0977C40.9749 41.9107 40.8749 42.3733 40.6694 43.1602C40.5525 43.6083 40.5552 43.9024 40.2944 44.2852C39.9853 44.7391 38.7179 44.8163 39.1694 45.1289C39.4404 45.3165 39.6907 45.0614 40.0132 45.1289C40.511 45.2331 40.7314 45.4799 41.1382 45.7852C41.6351 46.1581 41.9098 46.3991 42.2632 46.9102C42.6173 47.4223 42.6797 47.7886 42.9194 48.3633C43.1983 49.0316 43.5079 49.3767 43.5757 50.0977C43.5997 50.3528 43.5997 50.4988 43.5757 50.7539M40.5757 37.0664C41.0138 37.4358 41.3298 37.5938 41.8882 37.7227C42.4233 37.8462 42.8338 38.0217 43.2944 37.7227C43.5678 37.5452 43.6087 37.3227 43.8101 37.0664M44.7944 22.957C44.7944 22.957 45.7658 22.957 46.3882 22.957C47.1204 22.957 47.568 23.1869 48.2632 22.957C48.8997 22.7466 49.1649 22.4141 49.6695 21.9727C49.9812 21.6999 50.4195 21.2227 50.4195 21.2227L51.732 19.9102M45.5444 28.3477V30.2227L45.2632 32.3789L44.7944 34.6289C44.7944 34.6289 44.6952 35.793 44.3257 36.4102C44.1583 36.6898 44.0114 36.8101 43.8101 37.0664M45.5444 28.3477C45.5444 28.3477 46.0178 29.7676 46.7632 30.2227C47.2786 30.5373 47.6604 30.6327 48.2632 30.5977M48.2632 30.5977C48.9588 30.5977 49.3501 30.6396 50.0445 30.5977C51.0419 30.5374 51.6273 30.5377 52.5757 30.2227C53.2285 30.0059 54.1695 29.4727 54.1695 29.4727M48.2632 30.5977C48.8124 29.719 49.2298 29.2859 49.6695 28.3477C50.0478 27.5404 50.1067 27.0263 50.4195 26.1914C50.7939 25.1919 51.1862 24.6943 51.4507 23.6602C51.6163 23.0129 51.732 21.9727 51.732 21.9727M36.6382 20.9414C36.6382 20.9414 36.7611 20.2964 36.9194 19.9102C37.0874 19.5005 37.2623 19.3102 37.4819 18.9258M36.6382 20.9414C36.6382 20.9414 37.453 21.5039 38.0444 21.5039C38.6359 21.5039 38.9582 21.2689 39.4507 20.9414C39.925 20.626 40.3592 20.4663 40.4819 19.9102C40.5702 19.5105 40.5042 19.2304 40.2944 18.8789C39.838 18.1139 38.842 18.1071 38.0444 18.5039C37.7986 18.6262 37.6682 18.724 37.4819 18.9258M43.8101 37.0664C43.7838 37.5825 43.937 37.9446 44.3257 38.2852C44.6223 38.545 45.2632 38.6602 45.2632 38.6602C45.5927 38.6602 45.7774 38.6602 46.1069 38.6602C46.4365 38.6602 46.4387 38.03 46.7632 37.7227C47.1325 37.3729 47.5567 37.4522 47.8882 37.0664C48.0806 36.8426 48.2632 36.4102 48.2632 36.4102M40.6694 54.5977C40.6694 54.5977 40.1935 55.802 40.6694 56.7539C41.1454 57.7058 41.4122 58.2395 41.8882 59.1914C41.8882 59.1914 43.0132 61.0352 43.5757 61.4414C44.1382 61.8477 45.3194 62.6977 45.5444 62.8477C45.5444 62.8477 47.4507 63.7227 48.2632 64.0664C49.0757 64.4102 49.8631 64.0664 50.8882 64.0664C51.8401 64.0664 52.4097 64.3253 53.3257 64.0664C53.9559 63.8883 54.8257 63.3164 54.8257 63.3164M34.1538 31.4414C34.1538 31.4414 35.4894 31.867 36.3569 32.0977C36.7946 32.214 37.0893 32.1533 37.4819 32.3789C37.7299 32.5214 37.8596 32.6295 38.0444 32.8477M43.5757 50.7539C44.0517 51.2299 44.2544 51.5709 44.7944 51.9727C45.3595 52.393 45.7619 52.4944 46.3882 52.8164C46.9707 53.1159 47.2555 53.3972 47.8882 53.5664C48.7017 53.784 50.0445 53.5664 50.0445 53.5664M52.9507 52.8164C52.9507 52.8164 54.262 52.1313 54.8257 51.4102C55.2997 50.8037 55.6695 49.6289 55.6695 49.6289M57.732 48.9727L55.2007 46.5352L53.3257 44.7539L51.732 43.1602M51.732 43.1602L48.2632 41.0977L47.2319 40.4854M51.732 43.1602L53.607 44.2852H55.6695H56.8882M41.1382 38.2852C41.1382 38.2852 41.3682 38.2645 41.5132 38.2852C41.8374 38.3315 41.9505 38.5628 42.2632 38.6602C42.84 38.8397 43.2191 38.5349 43.8101 38.6602C44.4192 38.7893 45.2632 39.3164 45.2632 39.3164L47.2319 40.4854M47.2319 40.4854C47.2319 40.4854 48.2524 39.7611 48.9195 39.3164C49.8914 38.6685 51.4507 37.7227 51.4507 37.7227C52.2892 37.2043 52.6933 36.7804 53.607 36.4102C54.5455 36.0299 55.1268 35.8972 56.1382 35.8477C56.4307 35.8334 56.8882 35.8477 56.8882 35.8477" stroke="#725050" stroke-width="0.3"/>
</g>
</g>
<defs>
<filter id="filter0_dd_140_62" x="0" y="0" width="91" height="98" filterUnits="userSpaceOnUse" color-interpolation-filters="sRGB">
<feFlood flood-opacity="0" result="BackgroundImageFix"/>
<feColorMatrix in="SourceAlpha" type="matrix" values="0 0 0 0 0 0 0 0 0 0 0 0 0 0 0 0 0 0 127 0" result="hardAlpha"/>
<feOffset dy="4"/>
<feGaussianBlur stdDeviation="2"/>
<feComposite in2="hardAlpha" operator="out"/>
<feColorMatrix type="matrix" values="0 0 0 0 0 0 0 0 0 0 0 0 0 0 0 0 0 0 0.25 0"/>
<feBlend mode="normal" in2="BackgroundImageFix" result="effect1_dropShadow_140_62"/>
<feColorMatrix in="SourceAlpha" type="matrix" values="0 0 0 0 0 0 0 0 0 0 0 0 0 0 0 0 0 0 127 0" result="hardAlpha"/>
<feOffset dy="4"/>
<feGaussianBlur stdDeviation="2"/>
<feComposite in2="hardAlpha" operator="out"/>
<feColorMatrix type="matrix" values="0 0 0 0 0 0 0 0 0 0 0 0 0 0 0 0 0 0 0.25 0"/>
<feBlend mode="normal" in2="effect1_dropShadow_140_62" result="effect2_dropShadow_140_62"/>
<feBlend mode="normal" in="SourceGraphic" in2="effect2_dropShadow_140_62" result="shape"/>
</filter>
<filter id="filter1_d_140_62" x="0" y="0" width="91" height="98" filterUnits="userSpaceOnUse" color-interpolation-filters="sRGB">
<feFlood flood-opacity="0" result="BackgroundImageFix"/>
<feColorMatrix in="SourceAlpha" type="matrix" values="0 0 0 0 0 0 0 0 0 0 0 0 0 0 0 0 0 0 127 0" result="hardAlpha"/>
<feOffset dy="4"/>
<feGaussianBlur stdDeviation="2"/>
<feComposite in2="hardAlpha" operator="out"/>
<feColorMatrix type="matrix" values="0 0 0 0 0 0 0 0 0 0 0 0 0 0 0 0 0 0 0.25 0"/>
<feBlend mode="normal" in2="BackgroundImageFix" result="effect1_dropShadow_140_62"/>
<feBlend mode="normal" in="SourceGraphic" in2="effect1_dropShadow_140_62" result="shape"/>
</filter>
<filter id="filter2_ddd_140_62" x="18.3033" y="15.2684" width="47.02" height="64.8109" filterUnits="userSpaceOnUse" color-interpolation-filters="sRGB">
<feFlood flood-opacity="0" result="BackgroundImageFix"/>
<feColorMatrix in="SourceAlpha" type="matrix" values="0 0 0 0 0 0 0 0 0 0 0 0 0 0 0 0 0 0 127 0" result="hardAlpha"/>
<feOffset dy="4"/>
<feGaussianBlur stdDeviation="2"/>
<feComposite in2="hardAlpha" operator="out"/>
<feColorMatrix type="matrix" values="0 0 0 0 0 0 0 0 0 0 0 0 0 0 0 0 0 0 0.25 0"/>
<feBlend mode="normal" in2="BackgroundImageFix" result="effect1_dropShadow_140_62"/>
<feColorMatrix in="SourceAlpha" type="matrix" values="0 0 0 0 0 0 0 0 0 0 0 0 0 0 0 0 0 0 127 0" result="hardAlpha"/>
<feOffset dy="4"/>
<feGaussianBlur stdDeviation="2"/>
<feComposite in2="hardAlpha" operator="out"/>
<feColorMatrix type="matrix" values="0 0 0 0 0 0 0 0 0 0 0 0 0 0 0 0 0 0 0.25 0"/>
<feBlend mode="normal" in2="effect1_dropShadow_140_62" result="effect2_dropShadow_140_62"/>
<feColorMatrix in="SourceAlpha" type="matrix" values="0 0 0 0 0 0 0 0 0 0 0 0 0 0 0 0 0 0 127 0" result="hardAlpha"/>
<feOffset dy="4"/>
<feGaussianBlur stdDeviation="2"/>
<feComposite in2="hardAlpha" operator="out"/>
<feColorMatrix type="matrix" values="0 0 0 0 0 0 0 0 0 0 0 0 0 0 0 0 0 0 0.25 0"/>
<feBlend mode="normal" in2="effect2_dropShadow_140_62" result="effect3_dropShadow_140_62"/>
<feBlend mode="normal" in="SourceGraphic" in2="effect3_dropShadow_140_62" result="shape"/>
</filter>
</defs>
</svg>
