<svg width="91" height="98" viewBox="0 0 91 98" fill="none" xmlns="http://www.w3.org/2000/svg">
<g filter="url(#filter0_dd_161_366)">
<g filter="url(#filter1_d_161_366)">
<ellipse cx="45.5" cy="45" rx="41.5" ry="45" fill="#D9D9D9"/>
</g>
<g filter="url(#filter2_dd_161_366)">
<path d="M54.5003 73.0938C54.3986 72.5431 54.2191 71.6876 54.2191 71.6876L53.7503 71.0313L53.0003 70.2813L52.0628 69.4376L51.1253 68.5938L50.0941 67.2813L48.7816 65.8751L48.3128 64.6563L47.7503 63.4376L47.3753 62.7813L47.0003 62.1251L45.9691 61.3751C45.9691 61.3751 45.4747 60.6738 45.1253 60.2501C44.8448 59.91 44.6469 59.7537 44.3753 59.4064C44.0501 58.9904 43.7295 58.799 43.6253 58.2814C43.5711 58.0122 43.6253 57.5782 43.6253 57.5782V56.8751V55.4689C43.6253 55.4689 43.5323 54.4905 43.6253 53.8751C43.705 53.348 43.7639 53.0404 44.0003 52.5626C44.2212 52.1163 44.3888 51.8738 44.7503 51.5313C45.1561 51.1471 45.4518 50.9929 45.9691 50.7813C46.3555 50.6234 47.0003 50.5001 47.0003 50.5001L47.7503 49.6563C47.7503 49.6563 48.3475 48.7748 48.7816 48.2501C49.1285 47.8307 49.215 47.4242 49.7191 47.2188C50.1598 47.0393 50.4682 47.2961 50.9378 47.2188C51.3948 47.1437 52.0628 46.8438 52.0628 46.8438C52.0628 46.8438 53.1566 45.9688 53.3753 45.6251C53.5941 45.2813 54.2191 44.4063 54.2191 44.4063C54.2191 44.4063 54.7191 44.0313 54.8753 43.9376C55.0316 43.8438 55.4467 43.8233 55.8128 43.7501C55.9127 43.5412 55.9549 43.4147 56.0003 43.1876C56.0721 42.8286 56.0314 42.6149 56.0003 42.2501C55.9656 41.8422 55.9301 41.611 55.8128 41.2188C55.6627 40.7166 55.2503 40.0001 55.2503 40.0001C55.2503 40.0001 54.8441 39.2188 54.6878 38.8751C54.5316 38.5313 54.0316 37.6563 54.0316 37.6563C53.8816 37.5063 53.5316 36.6564 53.3753 36.2501C53.2191 35.8438 52.9534 35.6876 52.9534 35.6876L52.5316 35.1251L51.7816 34.0938L50.7503 32.5938C50.7503 32.5938 49.9827 31.8775 49.7191 31.2813C49.4634 30.7034 49.4148 30.3192 49.4378 29.6876C49.4569 29.1637 49.3928 28.7854 49.7191 28.3751C50.0046 28.016 50.3166 27.9619 50.7503 27.8126C51.2399 27.6441 51.5478 27.5718 52.0628 27.6251C52.5235 27.6728 53.1878 28.0001 53.1878 28.0001L54.2191 28.7501L55.2503 29.8751L56.5628 31.2813L57.8753 32.9688C57.8753 32.9688 58.461 33.9701 58.9066 34.5626C59.3744 35.1847 59.7477 35.4432 60.2191 36.0626C60.7973 36.8223 61.5316 38.1251 61.5316 38.1251L62.3753 40.0001C62.7048 40.7323 62.8873 41.1439 63.2191 41.8751C63.6185 42.7553 64.2503 44.1251 64.2503 44.1251L64.3709 44.4063L65.0941 46.0938L65.5628 47.5938L65.6992 47.9688L66.3128 49.6563L66.9691 51.5313L67.4378 53.4064L67.8128 55.6564L68.2816 58.2814V60.4376V62.5938V65.2188L67.8128 67.2813C67.8128 67.2813 67.9592 68.0777 68.0003 68.5938C68.0526 69.2508 68.0003 69.6223 68.0003 70.2813C68.0003 71.0502 68.169 71.5 68.0003 72.2501C67.8885 72.7476 67.8466 73.0679 67.5316 73.4688C67.323 73.7343 66.8753 74.0313 66.8753 74.0313C66.8753 74.0313 66.2461 74.6019 65.8441 74.9688C65.4039 75.3706 65.2172 75.6729 64.7191 76.0001C64.0027 76.4706 63.5014 76.606 62.6566 76.7501C61.8626 76.8855 61.3995 76.7501 60.5941 76.7501H58.1566C57.3877 76.7501 56.8851 77.0741 56.1878 76.7501C55.6942 76.5208 55.4464 76.2733 55.1566 75.8126C54.9284 75.4499 54.8988 75.1935 54.7816 74.7813C54.5988 74.1387 54.6217 73.7508 54.5003 73.0938Z" fill="#ECCCC0"/>
<path d="M67.8128 67.2814C67.8128 67.2814 67.9592 68.0777 68.0003 68.5939C68.0526 69.2508 68.0003 69.6223 68.0003 70.2814C68.0003 71.0502 68.169 71.5 68.0003 72.2501C67.8885 72.7476 67.8466 73.0679 67.5316 73.4689C67.323 73.7343 66.8753 74.0314 66.8753 74.0314C66.8753 74.0314 66.2461 74.6019 65.8441 74.9689C65.4039 75.3706 65.2172 75.6729 64.7191 76.0001C64.0027 76.4706 63.5014 76.606 62.6566 76.7501C61.8626 76.8855 61.3995 76.7501 60.5941 76.7501C59.6422 76.7501 59.1085 76.7501 58.1566 76.7501C57.3877 76.7501 56.8851 77.0741 56.1878 76.7501C55.6942 76.5208 55.4464 76.2733 55.1566 75.8126C54.9284 75.4499 54.8988 75.1935 54.7816 74.7814C54.5988 74.1387 54.6217 73.7508 54.5003 73.0939C54.3986 72.5431 54.2191 71.6876 54.2191 71.6876L53.7503 71.0314M67.8128 67.2814L68.2816 65.2189V62.5939V60.4376V58.2814L67.8128 55.6564L67.4378 53.4064L66.9691 51.5313L66.3128 49.6563L65.6992 47.9688M67.8128 67.2814L66.6878 68.4064L65.8441 68.9689L64.9066 69.4376L63.4066 70.0001H62.1878L61.1566 69.7189L60.2191 69.2501M57.8753 32.9688C57.8753 32.9688 58.461 33.9701 58.9066 34.5626C59.3744 35.1847 59.7477 35.4432 60.2191 36.0626C60.7973 36.8223 61.5316 38.1251 61.5316 38.1251C61.5316 38.1251 62.0458 39.2679 62.3753 40.0001C62.7048 40.7323 62.8873 41.1439 63.2191 41.8751C63.6185 42.7553 64.2503 44.1251 64.2503 44.1251C64.2503 44.1251 64.3238 44.2965 64.3709 44.4063M57.8753 32.9688L56.5628 31.2813L55.2503 29.8751L54.2191 28.7501L53.1878 28.0001C53.1878 28.0001 52.5235 27.6728 52.0628 27.6251C51.5478 27.5718 51.2399 27.6441 50.7503 27.8126C50.3166 27.9619 50.0046 28.016 49.7191 28.3751C49.3928 28.7854 49.4569 29.1637 49.4378 29.6876C49.4148 30.3192 49.4634 30.7034 49.7191 31.2813C49.9827 31.8775 50.7503 32.5938 50.7503 32.5938L51.7816 34.0938L52.5316 35.1251L52.9534 35.6876M57.8753 32.9688C57.8753 32.9688 57.4393 33.726 57.0316 34.0938C56.3248 34.7315 55.6701 34.6899 54.7816 35.0313C54.0735 35.3034 52.9534 35.6876 52.9534 35.6876M55.2503 40.0001C55.2503 40.0001 54.8441 39.2188 54.6878 38.8751C54.5316 38.5313 54.0316 37.6563 54.0316 37.6563C53.8816 37.5063 53.5316 36.6563 53.3753 36.2501C53.2191 35.8438 52.9534 35.6876 52.9534 35.6876M55.2503 40.0001C55.2503 40.0001 55.6627 40.7166 55.8128 41.2188C55.9301 41.611 55.9656 41.8422 56.0003 42.2501C56.0314 42.6149 56.0721 42.8286 56.0003 43.1876C55.9549 43.4147 55.9127 43.5412 55.8128 43.7501M55.2503 40.0001C55.2503 40.0001 56.174 40.1049 56.7503 40.0001C57.206 39.9173 57.4536 39.8164 57.8753 39.6251C58.3842 39.3942 58.6237 39.1768 59.0941 38.8751C59.5385 38.59 59.8565 38.509 60.2191 38.1251C60.491 37.8372 60.7816 37.2813 60.7816 37.2813M55.8128 43.7501C55.4467 43.8233 55.0316 43.8438 54.8753 43.9376C54.7191 44.0313 54.2191 44.4063 54.2191 44.4063C54.2191 44.4063 53.5941 45.2813 53.3753 45.6251C53.1566 45.9688 52.0628 46.8438 52.0628 46.8438M55.8128 43.7501C56.2752 43.7247 56.5832 43.8273 56.9378 44.1251C57.2891 44.4201 57.3967 44.7095 57.5003 45.1563C57.6337 45.7314 57.3551 46.0675 57.3128 46.6563C57.2551 47.4597 57.3128 48.7188 57.3128 48.7188V50.7813V51.672M52.0628 46.8438C52.0628 46.8438 51.3948 47.1437 50.9378 47.2188C50.4682 47.2961 50.1598 47.0393 49.7191 47.2188C49.215 47.4242 49.1285 47.8307 48.7816 48.2501C48.3475 48.7748 47.7503 49.6563 47.7503 49.6563L47.0003 50.5001M52.0628 46.8438L51.3128 47.9688L50.6566 49.3751L50.5628 49.7267M47.0003 50.5001C47.0003 50.5001 46.3555 50.6234 45.9691 50.7813C45.4518 50.9929 45.1561 51.1471 44.7503 51.5313C44.3888 51.8738 44.2212 52.1163 44.0003 52.5626C43.7639 53.0404 43.705 53.348 43.6253 53.8751C43.5323 54.4905 43.6253 55.4689 43.6253 55.4689V56.8751V57.5782M47.0003 50.5001C47.0003 50.5001 47.008 50.6718 47.0003 50.7813C46.9701 51.2088 46.6253 51.8126 46.6253 51.8126C46.6253 51.8126 46.4947 52.2661 46.4378 52.5626C46.3891 52.8169 46.3441 53.2189 46.3441 53.2189M53.7503 71.0314L53.0003 70.2814L52.0628 69.4376L51.1253 68.5939L50.0941 67.2814L48.7816 65.8751L48.3128 64.6564L47.7503 63.4376C47.7503 63.4376 47.5218 63.0376 47.3753 62.7814M53.7503 71.0314C53.7503 71.0314 54.6779 71.5913 55.3441 71.6876C56.19 71.8099 56.722 71.6658 57.5003 71.3126C57.935 71.1153 58.1905 70.9903 58.5316 70.6564C58.9309 70.2654 59.2443 69.9952 59.2816 69.4376C59.3041 69.1008 59.2534 68.8914 59.0941 68.5939C58.8065 68.0566 58.0316 67.9064 57.7816 67.7501C57.5316 67.5939 56.9378 67.0001 56.9378 67.0001C56.8628 66.7751 56.4691 65.5939 56.4691 65.5939C56.4691 65.5939 56.2494 65.0336 56.1878 64.6564C56.1112 64.1866 56.1353 63.9106 56.1878 63.4376C56.229 63.0665 56.3753 62.5001 56.3753 62.5001L56.4691 61.9376M47.3753 62.7814C47.2289 62.5251 47.0003 62.1251 47.0003 62.1251L45.9691 61.3751C45.9691 61.3751 45.4747 60.6738 45.1253 60.2501C44.8448 59.91 44.6469 59.7537 44.3753 59.4064C44.0501 58.9904 43.7295 58.799 43.6253 58.2814C43.5711 58.0122 43.6253 57.5782 43.6253 57.5782M47.3753 62.7814C47.8142 62.8572 48.5003 62.9689 48.5003 62.9689L49.7191 63.1564H50.9378H52.3441C52.3441 63.1564 52.861 62.9013 53.0003 62.5939C53.1363 62.2937 53.0843 62.0687 53.0003 61.7501C52.8864 61.318 52.7004 61.0823 52.3441 60.8126C52.0024 60.554 51.7038 60.6129 51.3128 60.4376C50.8942 60.2499 50.6637 60.1288 50.2816 59.8751C49.891 59.6158 49.7087 59.4199 49.3441 59.1251C48.9394 58.7979 48.7075 58.6205 48.3128 58.2814C47.9393 57.9603 47.7126 57.7965 47.3753 57.4376C47.0542 57.0959 46.8622 56.9047 46.6253 56.5001C46.4431 56.1889 46.3487 56.0033 46.2503 55.6564C46.0605 54.9871 46.1785 54.567 46.2503 53.8751C46.2771 53.6176 46.3441 53.2189 46.3441 53.2189M62.1878 63.7189C62.1878 63.7189 61.835 63.2126 61.5316 62.9689C61.2377 62.7328 61.0905 62.7198 60.6878 62.5001C60.2851 62.2804 60.0593 62.1573 59.6566 61.9376C59.6566 61.9376 58.9749 61.7929 58.5316 61.7501C57.9121 61.6903 57.5573 61.8103 56.9378 61.7501C56.2303 61.6814 55.1566 61.3751 55.1566 61.3751L53.7503 61.0001L52.3441 60.4376C52.3441 60.4376 51.5631 60.1633 51.1253 59.8751C50.6707 59.5758 50.4301 59.3657 50.0941 58.9376C49.6897 58.4224 49.4907 58.0759 49.3441 57.4376C49.2047 56.831 49.2298 56.4557 49.3441 55.8439C49.4291 55.3886 49.4685 55.1083 49.7191 54.7189C49.9856 54.3046 50.2167 54.0967 50.6566 53.8751M50.6566 53.8751C51.1691 53.7287 51.4413 53.5751 51.9691 53.5001C52.5128 53.4228 52.8271 53.4672 53.3753 53.5001C53.9646 53.5355 54.2969 53.5695 54.8753 53.6876C55.511 53.8174 55.8596 53.9339 56.4691 54.1564C56.9929 54.3476 57.7816 54.7189 57.7816 54.7189M50.6566 53.8751C50.62 53.3625 50.5628 52.5626 50.5628 52.5626L50.2816 50.7813L50.5628 49.7267M57.7816 54.7189L58.9066 55.0939C58.9066 55.0939 59.4648 55.3609 59.8441 55.4689C60.342 55.6107 60.6388 55.6531 61.1566 55.6564M57.7816 54.7189L57.5003 53.8751L57.3128 52.5626V51.672M61.1566 55.6564C61.5593 55.7296 61.7842 55.7757 62.1878 55.8439C62.6626 55.9241 62.939 55.916 63.4066 56.0314C63.935 56.1618 64.7191 56.5001 64.7191 56.5001M61.1566 55.6564C61.1566 55.5831 61.1566 55.4689 61.1566 55.4689L61.5316 55.0939L62.6566 54.1564C62.6566 54.1564 63.3185 53.7404 63.6878 53.4064C64.1502 52.9882 64.7191 52.1876 64.7191 52.1876M64.7191 56.5001C64.7191 56.5001 65.4973 56.7147 65.8441 57.0626C66.0879 57.3072 66.1414 57.5128 66.3128 57.8126C66.5566 58.239 66.7526 58.462 66.8753 58.9376C67.0217 59.5048 66.8753 59.8518 66.8753 60.4376C66.8753 60.9502 66.9265 61.2401 66.8753 61.7501C66.8344 62.1574 66.8986 62.4305 66.6878 62.7814C66.4728 63.1392 66.1797 63.1894 65.8441 63.4376C65.4847 63.7033 64.9066 64.0939 64.9066 64.0939M64.7191 56.5001C64.7191 56.5001 65.3227 55.9931 65.6992 55.6564C65.9415 55.4396 66.3128 55.0939 66.3128 55.0939M54.0316 47.5938C54.0316 47.5938 53.072 47.9084 52.5316 48.2501C52.1353 48.5007 51.9687 48.7182 51.5941 49.0001C51.2004 49.2963 50.5628 49.7267 50.5628 49.7267M57.7816 45.6251C58.2941 45.6251 58.5815 45.6251 59.0941 45.6251C59.7165 45.6251 60.0706 45.7052 60.6878 45.6251C61.3661 45.5371 61.7127 45.3258 62.3753 45.1563C62.9948 44.9979 63.4496 45.1542 63.9691 44.7813C64.1434 44.6562 64.2139 44.5528 64.3709 44.4063M64.3709 44.4063C64.6533 45.0654 65.0941 46.0938 65.0941 46.0938L65.5628 47.5938L65.6992 47.9688M59.0941 53.5001L59.8441 52.5626C59.8441 52.5626 60.3478 51.6002 60.7816 51.0626C61.2573 50.4731 61.5954 50.1986 62.1878 49.7267C62.7398 49.2869 63.0558 49.0329 63.6878 48.7188C64.1445 48.4919 64.9066 48.2501 64.9066 48.2501L65.6992 47.9688M58.9066 49.3751C58.9066 49.3751 58.7501 50.0918 58.5316 50.5001C58.407 50.7329 58.3323 50.8656 58.1566 51.0626C57.886 51.3659 57.3128 51.672 57.3128 51.672M59.0941 56.5001C59.0941 56.5001 59.245 57.2961 59.2816 57.8126C59.3177 58.3239 59.4588 58.6441 59.2816 59.1251C59.0668 59.7081 58.1566 60.2501 58.1566 60.2501M44.7503 56.5001C44.7503 56.5001 44.2497 56.7946 44.0003 57.0626C43.8307 57.2449 43.6253 57.5782 43.6253 57.5782M48.3128 51.5313C48.3128 51.5313 47.7207 51.904 47.3753 52.1876C46.9352 52.549 46.3441 53.2189 46.3441 53.2189M50.9378 55.2814C50.7598 55.5949 50.6887 55.7872 50.5628 56.1251C50.4293 56.4833 50.3297 56.6834 50.2816 57.0626C50.2447 57.3532 50.1807 57.5376 50.2816 57.8126C50.3801 58.081 50.7503 58.3751 50.7503 58.3751L51.5941 58.7501C51.9521 58.8267 52.1961 58.8968 52.5316 58.7501C52.8882 58.5942 52.9661 58.32 53.1878 58.0001C53.4676 57.5964 53.5199 57.3089 53.7503 56.8751C53.9271 56.5422 54.1774 56.406 54.2191 56.0314C54.2613 55.6515 54.1937 55.3778 53.9378 55.0939C53.6739 54.8009 53.3786 54.8303 53.0003 54.7189C52.6422 54.6134 52.4358 54.5136 52.0628 54.5314C51.7612 54.5457 51.555 54.5386 51.3128 54.7189C51.101 54.8765 51.0681 55.0518 50.9378 55.2814Z" stroke="#725050" stroke-width="0.3"/>
<path d="M39.125 33.3438V31.75L26 31.4688L41.6562 22L27.125 21.625L27.5 19L46.7188 21.0625L34.25 30.25H39.5938V29.3125L44 32.0312L39.125 33.3438Z" fill="#725050" stroke="#725050" stroke-width="0.3"/>
</g>
</g>
<defs>
<filter id="filter0_dd_161_366" x="0" y="0" width="91" height="98" filterUnits="userSpaceOnUse" color-interpolation-filters="sRGB">
<feFlood flood-opacity="0" result="BackgroundImageFix"/>
<feColorMatrix in="SourceAlpha" type="matrix" values="0 0 0 0 0 0 0 0 0 0 0 0 0 0 0 0 0 0 127 0" result="hardAlpha"/>
<feOffset dy="4"/>
<feGaussianBlur stdDeviation="2"/>
<feComposite in2="hardAlpha" operator="out"/>
<feColorMatrix type="matrix" values="0 0 0 0 0 0 0 0 0 0 0 0 0 0 0 0 0 0 0.25 0"/>
<feBlend mode="normal" in2="BackgroundImageFix" result="effect1_dropShadow_161_366"/>
<feColorMatrix in="SourceAlpha" type="matrix" values="0 0 0 0 0 0 0 0 0 0 0 0 0 0 0 0 0 0 127 0" result="hardAlpha"/>
<feOffset dy="4"/>
<feGaussianBlur stdDeviation="2"/>
<feComposite in2="hardAlpha" operator="out"/>
<feColorMatrix type="matrix" values="0 0 0 0 0 0 0 0 0 0 0 0 0 0 0 0 0 0 0.25 0"/>
<feBlend mode="normal" in2="effect1_dropShadow_161_366" result="effect2_dropShadow_161_366"/>
<feBlend mode="normal" in="SourceGraphic" in2="effect2_dropShadow_161_366" result="shape"/>
</filter>
<filter id="filter1_d_161_366" x="0" y="0" width="91" height="98" filterUnits="userSpaceOnUse" color-interpolation-filters="sRGB">
<feFlood flood-opacity="0" result="BackgroundImageFix"/>
<feColorMatrix in="SourceAlpha" type="matrix" values="0 0 0 0 0 0 0 0 0 0 0 0 0 0 0 0 0 0 127 0" result="hardAlpha"/>
<feOffset dy="4"/>
<feGaussianBlur stdDeviation="2"/>
<feComposite in2="hardAlpha" operator="out"/>
<feColorMatrix type="matrix" values="0 0 0 0 0 0 0 0 0 0 0 0 0 0 0 0 0 0 0.25 0"/>
<feBlend mode="normal" in2="BackgroundImageFix" result="effect1_dropShadow_161_366"/>
<feBlend mode="normal" in="SourceGraphic" in2="effect1_dropShadow_161_366" result="shape"/>
</filter>
<filter id="filter2_dd_161_366" x="21.4805" y="18.8354" width="50.9511" height="66.2087" filterUnits="userSpaceOnUse" color-interpolation-filters="sRGB">
<feFlood flood-opacity="0" result="BackgroundImageFix"/>
<feColorMatrix in="SourceAlpha" type="matrix" values="0 0 0 0 0 0 0 0 0 0 0 0 0 0 0 0 0 0 127 0" result="hardAlpha"/>
<feOffset dy="4"/>
<feGaussianBlur stdDeviation="2"/>
<feComposite in2="hardAlpha" operator="out"/>
<feColorMatrix type="matrix" values="0 0 0 0 0 0 0 0 0 0 0 0 0 0 0 0 0 0 0.25 0"/>
<feBlend mode="normal" in2="BackgroundImageFix" result="effect1_dropShadow_161_366"/>
<feColorMatrix in="SourceAlpha" type="matrix" values="0 0 0 0 0 0 0 0 0 0 0 0 0 0 0 0 0 0 127 0" result="hardAlpha"/>
<feOffset dy="4"/>
<feGaussianBlur stdDeviation="2"/>
<feComposite in2="hardAlpha" operator="out"/>
<feColorMatrix type="matrix" values="0 0 0 0 0 0 0 0 0 0 0 0 0 0 0 0 0 0 0.25 0"/>
<feBlend mode="normal" in2="effect1_dropShadow_161_366" result="effect2_dropShadow_161_366"/>
<feBlend mode="normal" in="SourceGraphic" in2="effect2_dropShadow_161_366" result="shape"/>
</filter>
</defs>
</svg>
