<svg width="91" height="98" viewBox="0 0 91 98" fill="none" xmlns="http://www.w3.org/2000/svg">
<g filter="url(#filter0_dd_140_54)">
<g filter="url(#filter1_d_140_54)">
<ellipse cx="45.5" cy="45" rx="41.5" ry="45" fill="#D9D9D9"/>
</g>
<g filter="url(#filter2_dd_140_54)">
<path d="M29.6647 33.8122C30.9614 32.9816 31.7959 32.7001 33.1335 31.9372C34.4316 31.1968 35.0932 30.666 36.4147 29.9684C37.559 29.3644 38.2834 29.1901 39.4147 28.5622C40.64 27.8821 41.219 27.3241 42.4147 26.5934C43.3525 26.0204 43.85 25.638 44.8522 25.1872C46.1091 24.6218 46.8936 24.5034 48.2272 24.1559C49.5684 23.8065 50.3389 23.6872 51.696 23.4059C52.7928 23.1786 53.4176 23.0974 54.5085 22.8434C55.6156 22.5856 56.1929 22.2335 57.321 22.0934C58.3383 21.9671 58.9282 21.9706 59.946 22.0934C61.5897 22.2917 62.4198 22.8441 63.9772 23.4059C65.1221 23.8189 66.8835 24.5309 66.8835 24.5309C66.8835 24.5309 68.3803 24.8923 69.321 25.1872C70.7807 25.6448 72.1766 25.2898 72.9772 26.5934C73.667 27.7165 73.1237 28.4673 72.9772 29.9684L72.6022 33.8122C72.6022 33.8122 72.4459 35.9961 71.946 37.2809C71.2978 38.9469 70.2502 39.5038 69.321 41.0309C68.2315 42.8214 68.9791 45.8451 66.8835 45.8122C65.3786 45.7885 65.1244 44.2553 63.9772 43.2809C63.1055 42.5404 61.7272 41.4059 61.7272 41.4059L59.2897 39.8122C59.2897 39.8122 58.0486 38.9181 57.321 39.2497C56.5097 39.6193 56.571 41.4059 56.571 41.4059L56.1022 44.1247L54.8835 46.2809L52.5397 48.4372L50.3835 50.1247L48.2272 52.0934L46.5397 55.0934L45.5085 58.7497L44.8522 60.8122L43.6335 63.8122L43.071 66.4372L42.7429 67.3278L42.4147 68.2184L41.2897 69.7184H39.0397L37.1647 68.5934L35.6647 66.4372V62.6872L36.4147 59.7809L37.1647 57.4372C36.5926 57.6904 36.2623 57.8143 35.6647 57.9997C35.088 58.1786 34.7626 58.2904 34.1647 58.3747C33.3672 58.4871 32.8802 58.5834 32.1022 58.3747C31.3741 58.1793 30.4147 57.4372 30.4147 57.4372C30.4147 57.4372 29.943 58.8611 29.6647 59.7809C29.2687 61.0903 29.0631 61.8299 28.7272 63.1559C28.4503 64.2492 28.4257 64.8978 28.071 65.9684C27.6537 67.2282 27.3147 67.9051 26.6647 69.0622C26.0829 70.098 25.9636 70.9312 24.9772 71.5934C24.0999 72.1824 23.3838 72.4789 22.3522 72.2497C21.7928 72.1254 21.5523 71.8497 21.0397 71.5934C20.9868 70.8631 20.9868 70.4487 21.0397 69.7184C21.1484 68.2213 21.554 67.4329 21.8835 65.9684C22.2846 64.1819 22.49 63.1755 22.821 61.3747C23.1028 59.8415 23.2159 58.974 23.4772 57.4372C23.6579 56.375 23.946 54.7184 23.946 54.7184C23.946 54.7184 24.269 52.8291 24.5085 51.6247C24.867 49.8214 25.5397 47.0309 25.5397 47.0309L26.1022 44.1247C26.1022 44.1247 25.6629 43.0042 25.5397 42.2497C25.3864 41.3102 25.5397 40.7641 25.5397 39.8122C25.5397 38.8237 25.1605 38.1938 25.5397 37.2809C25.9171 36.3724 26.5751 36.1411 27.321 35.4997C28.1697 34.7698 28.7069 34.4257 29.6434 33.8258L29.6647 33.8122Z" fill="#ECCCC0"/>
<path d="M50.3835 50.1247L52.5397 48.4372L54.8835 46.2809L56.1022 44.1247L56.571 41.4059C56.571 41.4059 56.5097 39.6193 57.321 39.2497C58.0486 38.9181 59.2897 39.8122 59.2897 39.8122C60.2416 40.4346 60.7753 40.7835 61.7272 41.4059C61.7272 41.4059 63.1055 42.5404 63.9772 43.2809C65.1244 44.2553 65.3786 45.7885 66.8835 45.8122C68.9791 45.8451 68.2315 42.8214 69.321 41.0309C70.2502 39.5038 71.2978 38.9469 71.946 37.2809C72.4459 35.9961 72.6022 33.8122 72.6022 33.8122C72.7487 32.3111 72.8308 31.4695 72.9772 29.9684C73.1237 28.4673 73.667 27.7165 72.9772 26.5934C72.1766 25.2898 70.7807 25.6448 69.321 25.1872C68.3803 24.8923 66.8835 24.5309 66.8835 24.5309C66.8835 24.5309 65.1221 23.8189 63.9772 23.4059C62.4198 22.8441 61.5897 22.2917 59.946 22.0934C58.9282 21.9706 58.3383 21.9671 57.321 22.0934C56.1929 22.2335 55.6156 22.5856 54.5085 22.8434C53.4176 23.0974 52.7928 23.1786 51.696 23.4059C50.3389 23.6872 49.5684 23.8065 48.2272 24.1559C46.8936 24.5034 46.1091 24.6218 44.8522 25.1872C43.85 25.638 43.3525 26.0204 42.4147 26.5934C41.219 27.3241 40.64 27.8821 39.4147 28.5622C38.2834 29.1901 37.559 29.3644 36.4147 29.9684C35.0932 30.666 34.4316 31.1968 33.1335 31.9372C31.7959 32.7001 30.9614 32.9816 29.6647 33.8122C28.715 34.4205 28.1761 34.7643 27.321 35.4997C26.5751 36.1411 25.9171 36.3724 25.5397 37.2809C25.1605 38.1938 25.5397 38.8237 25.5397 39.8122C25.5397 40.7641 25.3864 41.3102 25.5397 42.2497C25.6629 43.0042 26.1022 44.1247 26.1022 44.1247M50.3835 50.1247L48.2272 52.0934L46.5397 55.0934L45.5085 58.7497M50.3835 50.1247L48.696 48.9059L47.0085 47.8747M45.5085 58.7497L44.8522 60.8122L43.6335 63.8122L43.071 66.4372L42.7429 67.3278M45.5085 58.7497L43.6335 58.3747L42.0397 57.9997L40.3522 57.4372M37.1647 68.5934L39.0397 69.7184H41.2897L42.4147 68.2184L42.7429 67.3278M37.1647 68.5934L35.6647 66.4372V62.6872L36.4147 59.7809C36.4147 59.7809 36.8718 58.3525 37.1647 57.4372M37.1647 68.5934L37.3522 66.7184V65.2184L38.1022 63.8122L39.0397 63.1559H40.1647L41.2897 63.8122L42.0397 64.5622L42.4147 65.9684L42.7429 67.3278M37.1647 57.4372C37.5309 56.229 38.1022 54.3434 38.1022 54.3434L39.4147 51.6247L40.1647 49.2809M37.1647 57.4372C36.5926 57.6904 36.2623 57.8143 35.6647 57.9997C35.088 58.1786 34.7626 58.2904 34.1647 58.3747C33.3672 58.4871 32.8802 58.5834 32.1022 58.3747C31.3741 58.1793 30.4147 57.4372 30.4147 57.4372M40.1647 49.2809L40.6335 47.0309L40.3522 45.5309L39.4147 43.6559M40.1647 49.2809L39.0397 48.4372L38.1022 47.8747L37.1647 47.0309M26.1022 44.1247L25.5397 47.0309C25.5397 47.0309 24.867 49.8213 24.5085 51.6247C24.269 52.8291 23.946 54.7184 23.946 54.7184M26.1022 44.1247C26.1022 44.1247 27.0621 43.0837 27.321 42.2497C27.6032 41.3406 27.2313 40.7598 27.321 39.8122C27.4448 38.5036 27.2599 37.5653 28.071 36.5309C28.4557 36.0403 28.7759 35.8528 29.2897 35.4997C30.2763 34.8217 30.9778 34.6916 32.1022 34.2809C32.646 34.0823 32.9519 33.9713 33.5085 33.8122C34.337 33.5753 34.8126 33.4719 35.6647 33.3434M23.946 54.7184C23.946 54.7184 23.6579 56.375 23.4772 57.4372C23.2159 58.974 23.1028 59.8415 22.821 61.3747C22.49 63.1755 22.2846 64.1819 21.8835 65.9684M23.946 54.7184L26.6647 55.0934C26.6647 55.0934 25.3506 54.8649 24.5085 54.7184M21.8835 65.9684C21.554 67.4329 21.1484 68.2213 21.0397 69.7184C20.9868 70.4487 20.9868 70.8631 21.0397 71.5934M21.8835 65.9684C22.2496 66.5908 22.6511 66.8603 22.821 67.5622C22.9588 68.1315 22.9622 68.4937 22.821 69.0622C22.7143 69.4915 22.5767 69.7122 22.3522 70.0934C21.9572 70.7641 21.6521 71.1129 21.0397 71.5934M21.0397 71.5934C21.5523 71.8497 21.7928 72.1254 22.3522 72.2497C23.3838 72.4789 24.0999 72.1824 24.9772 71.5934C25.9636 70.9312 26.0829 70.098 26.6647 69.0622C27.3147 67.9051 27.6537 67.2282 28.071 65.9684C28.4257 64.8978 28.4503 64.2492 28.7272 63.1559C29.0631 61.8299 29.2687 61.0903 29.6647 59.7809C29.943 58.8611 30.4147 57.4372 30.4147 57.4372M30.4147 57.4372C30.4147 57.4372 31.2466 54.9903 31.7272 53.4059C32.1141 52.1306 32.5677 51.4538 32.6647 50.1247C32.6994 49.65 32.3378 49.2518 32.6647 48.9059C33.0796 48.4672 33.5647 49.3487 34.1647 49.2809C34.8326 49.2055 35.1679 48.8898 35.6647 48.4372C36.0114 48.1214 36.4147 47.4997 36.4147 47.4997L37.1647 47.0309M30.4147 57.4372H29.6647C29.0083 57.3688 28.071 56.8747 28.071 56.8747M37.1647 47.0309V49.6559L36.4147 51.6247L35.0085 53.4059M37.1647 47.0309L35.6647 45.8122L34.5397 44.1247L34.1647 42.2497" stroke="#725050" stroke-width="0.3"/>
</g>
</g>
<defs>
<filter id="filter0_dd_140_54" x="0" y="0" width="91" height="98" filterUnits="userSpaceOnUse" color-interpolation-filters="sRGB">
<feFlood flood-opacity="0" result="BackgroundImageFix"/>
<feColorMatrix in="SourceAlpha" type="matrix" values="0 0 0 0 0 0 0 0 0 0 0 0 0 0 0 0 0 0 127 0" result="hardAlpha"/>
<feOffset dy="4"/>
<feGaussianBlur stdDeviation="2"/>
<feComposite in2="hardAlpha" operator="out"/>
<feColorMatrix type="matrix" values="0 0 0 0 0 0 0 0 0 0 0 0 0 0 0 0 0 0 0.25 0"/>
<feBlend mode="normal" in2="BackgroundImageFix" result="effect1_dropShadow_140_54"/>
<feColorMatrix in="SourceAlpha" type="matrix" values="0 0 0 0 0 0 0 0 0 0 0 0 0 0 0 0 0 0 127 0" result="hardAlpha"/>
<feOffset dy="4"/>
<feGaussianBlur stdDeviation="2"/>
<feComposite in2="hardAlpha" operator="out"/>
<feColorMatrix type="matrix" values="0 0 0 0 0 0 0 0 0 0 0 0 0 0 0 0 0 0 0.25 0"/>
<feBlend mode="normal" in2="effect1_dropShadow_140_54" result="effect2_dropShadow_140_54"/>
<feBlend mode="normal" in="SourceGraphic" in2="effect2_dropShadow_140_54" result="shape"/>
</filter>
<filter id="filter1_d_140_54" x="0" y="0" width="91" height="98" filterUnits="userSpaceOnUse" color-interpolation-filters="sRGB">
<feFlood flood-opacity="0" result="BackgroundImageFix"/>
<feColorMatrix in="SourceAlpha" type="matrix" values="0 0 0 0 0 0 0 0 0 0 0 0 0 0 0 0 0 0 127 0" result="hardAlpha"/>
<feOffset dy="4"/>
<feGaussianBlur stdDeviation="2"/>
<feComposite in2="hardAlpha" operator="out"/>
<feColorMatrix type="matrix" values="0 0 0 0 0 0 0 0 0 0 0 0 0 0 0 0 0 0 0.25 0"/>
<feBlend mode="normal" in2="BackgroundImageFix" result="effect1_dropShadow_140_54"/>
<feBlend mode="normal" in="SourceGraphic" in2="effect1_dropShadow_140_54" result="shape"/>
</filter>
<filter id="filter2_dd_140_54" x="16.85" y="21.85" width="60.619" height="58.6273" filterUnits="userSpaceOnUse" color-interpolation-filters="sRGB">
<feFlood flood-opacity="0" result="BackgroundImageFix"/>
<feColorMatrix in="SourceAlpha" type="matrix" values="0 0 0 0 0 0 0 0 0 0 0 0 0 0 0 0 0 0 127 0" result="hardAlpha"/>
<feOffset dy="4"/>
<feGaussianBlur stdDeviation="2"/>
<feComposite in2="hardAlpha" operator="out"/>
<feColorMatrix type="matrix" values="0 0 0 0 0 0 0 0 0 0 0 0 0 0 0 0 0 0 0.25 0"/>
<feBlend mode="normal" in2="BackgroundImageFix" result="effect1_dropShadow_140_54"/>
<feColorMatrix in="SourceAlpha" type="matrix" values="0 0 0 0 0 0 0 0 0 0 0 0 0 0 0 0 0 0 127 0" result="hardAlpha"/>
<feOffset dy="4"/>
<feGaussianBlur stdDeviation="2"/>
<feComposite in2="hardAlpha" operator="out"/>
<feColorMatrix type="matrix" values="0 0 0 0 0 0 0 0 0 0 0 0 0 0 0 0 0 0 0.25 0"/>
<feBlend mode="normal" in2="effect1_dropShadow_140_54" result="effect2_dropShadow_140_54"/>
<feBlend mode="normal" in="SourceGraphic" in2="effect2_dropShadow_140_54" result="shape"/>
</filter>
</defs>
</svg>
