<svg width="91" height="98" viewBox="0 0 91 98" fill="none" xmlns="http://www.w3.org/2000/svg">
<g filter="url(#filter0_d_140_71)">
<ellipse cx="45.5" cy="45" rx="41.5" ry="45" fill="#D9D9D9"/>
</g>
<g filter="url(#filter1_d_140_71)">
<path d="M53.7631 86.2224H33.26C33.26 86.2224 33.3727 76.6023 32.5006 70.5286C31.8392 65.9225 29.9693 63.5383 29.9693 58.8849C29.9693 49.899 31.1739 45.5634 28.4506 37.7489C25.5395 29.3958 20.4771 14.2083 24.274 13.5755C29.4521 12.7125 31.8676 34.7115 35.9178 33.6989C37.9426 33.1927 28.577 7.75719 35.0317 5.414C41.4864 3.0708 41.2334 32.5597 42.2457 32.5597C43.2884 32.5597 43.7646 30.7878 43.7646 30.1552C43.7646 27.585 42.2457 24.5863 43.7646 23.5739C45.413 22.4753 47.7781 23.2744 49.5864 25.4722C50.8476 27.0052 49.8322 30.9146 52.1176 30.9146C53.7631 30.9146 51.2318 3.07079 55.535 3.0708C60.5496 3.07082 59.9889 20.3013 59.8381 31.5474C59.7481 38.2603 57.8041 41.9212 57.9396 48.6333C58.0208 52.6555 58.6794 54.9305 57.9396 58.8849C57.1468 63.123 54.1682 64.3376 53.7631 68.6302C53.358 72.9228 53.7631 86.2224 53.7631 86.2224Z" fill="#ECCCC0"/>
<path d="M40.474 63.188C40.474 63.188 45.2229 54.6604 46.2959 48.6333C47.5458 41.6125 40.2672 27.2096 47.0551 29.3957C47.4071 29.509 47.7444 29.6524 48.0676 29.8229M55.3893 47.7474C55.3893 47.7474 55.1656 43.6322 53.9665 39.2675M48.0676 29.8229L45.5364 32.5597C45.5364 32.5597 47.61 35.2007 49.0801 34.5847C50.1537 34.1349 50.654 32.0535 50.654 32.0535M48.0676 29.8229C49.0553 30.3437 49.9117 31.1166 50.654 32.0535M50.654 32.0535C52.2043 34.0104 53.2564 36.6827 53.9665 39.2675M51.2317 41.2925H53.2567L53.9665 39.2675M35.9178 17.3722C35.9178 17.3722 36.8035 16.3597 37.1832 16.3597C37.5629 16.3597 38.0692 16.461 38.5754 16.866M25.7926 23.5739C25.7926 23.5739 25.9003 22.1547 26.8051 21.9285C27.3114 21.8019 28.4506 22.1816 28.4506 22.1816M53.9665 13.5755C53.9665 13.5755 55.1551 12.5628 56.1676 12.5628C57.0323 12.5628 57.9396 13.5755 57.9396 13.5755M43.7646 24.3331C43.7646 24.3331 44.8016 24.9659 45.5364 24.966C46.2711 24.966 47.3082 24.3331 47.3082 24.3331M33.26 86.2224H53.7631C53.7631 86.2224 53.358 72.9228 53.7631 68.6302C54.1682 64.3376 57.1468 63.123 57.9396 58.8849C58.6794 54.9305 58.0208 52.6555 57.9396 48.6333C57.8041 41.9212 59.7481 38.2603 59.8381 31.5474C59.9889 20.3013 60.5496 3.07082 55.535 3.0708C51.2318 3.07079 53.7631 30.9146 52.1176 30.9146C49.8322 30.9146 50.8476 27.0052 49.5864 25.4722C47.7781 23.2744 45.413 22.4753 43.7646 23.5739C42.2457 24.5863 43.7646 27.585 43.7646 30.1552C43.7646 30.7878 43.2884 32.5597 42.2457 32.5597C41.2334 32.5597 41.4864 3.0708 35.0317 5.414C28.577 7.75719 37.9426 33.1927 35.9178 33.6989C31.8676 34.7115 29.4521 12.7125 24.274 13.5755C20.4771 14.2083 25.5395 29.3958 28.4506 37.7489C31.1739 45.5634 29.9693 49.899 29.9693 58.8849C29.9693 63.5383 31.8392 65.9225 32.5006 70.5286C33.3727 76.6023 33.26 86.2224 33.26 86.2224Z" stroke="#725050" stroke-width="0.3"/>
</g>
<defs>
<filter id="filter0_d_140_71" x="0" y="0" width="91" height="98" filterUnits="userSpaceOnUse" color-interpolation-filters="sRGB">
<feFlood flood-opacity="0" result="BackgroundImageFix"/>
<feColorMatrix in="SourceAlpha" type="matrix" values="0 0 0 0 0 0 0 0 0 0 0 0 0 0 0 0 0 0 127 0" result="hardAlpha"/>
<feOffset dy="4"/>
<feGaussianBlur stdDeviation="2"/>
<feComposite in2="hardAlpha" operator="out"/>
<feColorMatrix type="matrix" values="0 0 0 0 0 0 0 0 0 0 0 0 0 0 0 0 0 0 0.25 0"/>
<feBlend mode="normal" in2="BackgroundImageFix" result="effect1_dropShadow_140_71"/>
<feBlend mode="normal" in="SourceGraphic" in2="effect1_dropShadow_140_71" result="shape"/>
</filter>
<filter id="filter1_d_140_71" x="17.9651" y="2.9209" width="46.9196" height="93.0514" filterUnits="userSpaceOnUse" color-interpolation-filters="sRGB">
<feFlood flood-opacity="0" result="BackgroundImageFix"/>
<feColorMatrix in="SourceAlpha" type="matrix" values="0 0 0 0 0 0 0 0 0 0 0 0 0 0 0 0 0 0 127 0" result="hardAlpha"/>
<feOffset dy="4.8"/>
<feGaussianBlur stdDeviation="2.4"/>
<feComposite in2="hardAlpha" operator="out"/>
<feColorMatrix type="matrix" values="0 0 0 0 0 0 0 0 0 0 0 0 0 0 0 0 0 0 0.25 0"/>
<feBlend mode="normal" in2="BackgroundImageFix" result="effect1_dropShadow_140_71"/>
<feBlend mode="normal" in="SourceGraphic" in2="effect1_dropShadow_140_71" result="shape"/>
</filter>
</defs>
</svg>
