<svg width="91" height="98" viewBox="0 0 91 98" fill="none" xmlns="http://www.w3.org/2000/svg">
<g filter="url(#filter0_dd_161_332)">
<g filter="url(#filter1_d_161_332)">
<g filter="url(#filter2_d_161_332)">
<ellipse cx="45.5" cy="45" rx="41.5" ry="45" fill="#D9D9D9"/>
</g>
<g filter="url(#filter3_dd_161_332)">
<g filter="url(#filter4_dd_161_332)">
<path d="M38.2109 73.6234C37.812 73.4213 37.5268 73.3734 37.2218 73.0464C36.4021 72.1676 37.4992 71.191 37.6339 69.9968C37.7499 68.9688 37.8362 68.3928 37.8812 67.3593C37.9204 66.4589 38.2546 65.8717 37.8812 65.0515C37.7369 64.7346 37.5736 64.6034 37.3867 64.3097C36.9302 63.5922 36.6894 63.1776 36.3152 62.414C35.9915 61.7536 35.83 61.3723 35.5734 60.6831C35.1074 59.4317 34.8943 58.702 34.6667 57.3862C34.5068 56.4615 34.522 55.9288 34.4195 54.996C34.299 53.9006 34.1644 53.293 34.0898 52.1936C33.9873 50.6842 34.0898 49.8326 34.0898 48.3198C34.0898 46.9357 33.9054 46.1473 34.0898 44.7756C34.2219 43.7929 34.4094 43.2605 34.6667 42.3029C34.7884 41.8503 34.9197 41.6114 34.9964 41.149C35.1071 40.4822 34.9688 40.0935 34.9964 39.4182C35.0361 38.4485 35.1194 37.908 35.2437 36.9455C35.302 36.494 35.3442 36.2422 35.4085 35.7916C35.4889 35.3435 35.5251 35.0903 35.5734 34.6377C35.7167 33.2934 35.5734 32.5278 35.5734 31.1759L35.9031 29.1978C36.0318 28.4253 35.8198 28.2377 35.9031 27.6318C35.985 27.0361 36.1196 26.7168 36.3152 26.1482C36.5076 25.5886 36.6052 25.2646 36.8921 24.747C37.1389 24.3019 37.163 23.8685 37.6339 23.6755C37.9616 23.5413 38.1221 23.181 38.5406 23.181C38.959 23.181 39.283 23.4171 39.6121 23.6755C39.8614 23.8713 39.9418 24.4173 39.9418 24.4173V24.0052V23.181V22.1095V20.6259V19.1423C39.9418 18.5629 39.7164 18.1093 39.9418 17.6587L40.5187 16.5048C40.8735 16.0796 41.1382 15.8259 41.6726 15.6806C42.0764 15.5707 42.3359 15.5887 42.7441 15.6806C43.1236 15.7659 43.3171 15.8928 43.6508 16.0927C43.8883 16.235 43.991 16.6485 44.2277 16.5048C44.4478 16.3711 44.1914 16.1003 44.2277 15.8454C44.2808 15.4724 44.3765 15.2692 44.5574 14.9388C44.777 14.5375 44.9802 14.3601 45.2992 14.0321C45.5694 13.7543 45.6866 13.5297 46.041 13.3727C46.5119 13.1642 46.857 13.261 47.3597 13.3727C47.9218 13.4976 48.2635 13.633 48.6785 14.0321C49.1454 14.4811 49.2248 14.8982 49.4203 15.5157C49.6168 16.1363 49.1206 17.5171 49.6676 17.1642C49.9227 16.9995 50.0797 16.5048 50.0797 16.5048H50.9039C51.4189 16.5048 51.7264 16.3672 52.2227 16.5048C52.93 16.7009 53.2982 17.0486 53.7063 17.6587C54.1316 18.2947 54.0052 18.8147 54.2008 19.5544C54.5162 20.7471 54.7867 21.3936 55.025 22.604C55.2942 23.9712 55.271 24.7647 55.4371 26.1482C55.6537 27.9518 55.7948 28.9606 56.0141 30.7638C56.1784 32.1153 56.2917 32.8708 56.4262 34.2256C56.5984 35.9599 56.5259 36.9487 56.7559 38.6764C56.8851 39.6468 57.0343 40.1792 57.168 41.149C57.3446 42.4308 57.3458 43.1609 57.4977 44.4459C57.6387 45.6394 57.8244 46.2968 57.9098 47.4955C58.0059 48.844 57.9098 49.6054 57.9098 50.9573C57.9098 52.5345 58.235 53.4526 57.9098 54.996C57.6535 56.2126 57.1891 56.7978 56.7559 57.9632C56.4579 58.7648 56.2622 59.2052 56.0141 60.0237C55.7355 60.9427 55.709 61.493 55.4371 62.414C55.1864 63.2633 54.9593 63.7116 54.6953 64.5569L54.6872 64.5829C54.4827 65.2378 54.3654 65.6137 54.2008 66.2878C53.9447 67.3366 53.7063 69.0077 53.7063 69.0077C53.7063 69.0077 54.4261 71.281 53.7063 72.387C53.7063 72.387 53.3714 72.8046 53.1293 73.0464C52.5918 73.5832 52.2487 73.8728 51.5633 74.2003C50.8812 74.5263 50.4361 74.5881 49.6946 74.6911L49.6676 74.6949C48.7749 74.8189 48.261 74.6949 47.3597 74.6949H45.2992H42.9914C42.3154 74.6949 41.9292 74.7933 41.2605 74.6949C40.5956 74.597 40.2447 74.4271 39.6121 74.2003L39.5433 74.1757C39.0281 73.9912 38.7166 73.8796 38.2109 73.6234Z" fill="#ECCCC0"/>
<path d="M39.9418 24.4173V24.0052C39.9418 23.6833 39.9418 23.5029 39.9418 23.181C39.9418 22.7625 39.9418 22.5279 39.9418 22.1095C39.9418 21.5301 39.9418 21.2053 39.9418 20.6259C39.9418 20.0465 39.9418 19.7217 39.9418 19.1423C39.9418 18.5629 39.7164 18.1093 39.9418 17.6587C40.1671 17.2081 40.2934 16.9554 40.5187 16.5048C40.8735 16.0796 41.1382 15.8259 41.6726 15.6806C42.0764 15.5707 42.3359 15.5887 42.7441 15.6806C43.1236 15.7659 43.3171 15.8928 43.6508 16.0927C43.8883 16.235 43.991 16.6485 44.2277 16.5048C44.4478 16.3711 44.1914 16.1003 44.2277 15.8454C44.2808 15.4724 44.3765 15.2692 44.5574 14.9388C44.777 14.5375 44.9802 14.3601 45.2992 14.0321C45.5694 13.7543 45.6866 13.5297 46.041 13.3727C46.5119 13.1642 46.857 13.261 47.3597 13.3727C47.9218 13.4976 48.2635 13.633 48.6785 14.0321C49.1454 14.4811 49.2248 14.8982 49.4203 15.5157C49.6168 16.1363 49.1206 17.5171 49.6676 17.1642C49.9227 16.9995 50.0797 16.5048 50.0797 16.5048C50.0797 16.5048 50.582 16.5048 50.9039 16.5048C51.4189 16.5048 51.7264 16.3672 52.2227 16.5048C52.93 16.7009 53.2982 17.0486 53.7063 17.6587C54.1316 18.2946 54.0052 18.8147 54.2008 19.5544C54.5162 20.7471 54.7867 21.3936 55.025 22.604C55.2942 23.9712 55.271 24.7647 55.4371 26.1482C55.6537 27.9518 55.7948 28.9606 56.0141 30.7638C56.1784 32.1153 56.2917 32.8708 56.4262 34.2256C56.5984 35.9599 56.5259 36.9487 56.7559 38.6764C56.8851 39.6468 57.0343 40.1792 57.168 41.149C57.3446 42.4308 57.3458 43.1609 57.4977 44.4459C57.6387 45.6394 57.8244 46.2968 57.9098 47.4955C58.0059 48.844 57.9098 49.6054 57.9098 50.9573C57.9098 52.5345 58.235 53.4526 57.9098 54.996C57.6535 56.2126 57.1891 56.7978 56.7559 57.9632C56.4579 58.7648 56.2622 59.2052 56.0141 60.0237C55.7355 60.9427 55.709 61.493 55.4371 62.414C55.1864 63.2633 54.9593 63.7116 54.6953 64.5569C54.4858 65.228 54.3675 65.6049 54.2008 66.2878C53.9447 67.3366 53.7063 69.0077 53.7063 69.0077C53.7063 69.0077 54.4261 71.281 53.7063 72.387C53.7063 72.387 53.3714 72.8046 53.1293 73.0464C52.5918 73.5832 52.2487 73.8728 51.5633 74.2003C50.873 74.5302 50.4254 74.5896 49.6676 74.6949C48.7749 74.8189 48.261 74.6949 47.3597 74.6949C46.5551 74.6949 46.1039 74.6949 45.2992 74.6949C44.3979 74.6949 43.8926 74.6949 42.9914 74.6949C42.3154 74.6949 41.9292 74.7933 41.2605 74.6949C40.5956 74.597 40.2447 74.4271 39.6121 74.2003C39.055 74.0007 38.7388 73.8908 38.2109 73.6234C37.812 73.4213 37.5268 73.3734 37.2218 73.0464C36.4021 72.1676 37.4992 71.191 37.6339 69.9968C37.7499 68.9688 37.8362 68.3928 37.8812 67.3593C37.9204 66.4589 38.2546 65.8717 37.8812 65.0515C37.7369 64.7346 37.5736 64.6034 37.3867 64.3097C36.9302 63.5922 36.6894 63.1776 36.3152 62.414C35.9915 61.7536 35.83 61.3723 35.5734 60.6831C35.1074 59.4317 34.8943 58.702 34.6667 57.3862C34.5068 56.4615 34.522 55.9288 34.4195 54.996C34.299 53.9006 34.1644 53.293 34.0898 52.1936C33.9873 50.6842 34.0898 49.8326 34.0898 48.3198C34.0898 46.9357 33.9054 46.1473 34.0898 44.7756C34.2219 43.7929 34.4094 43.2605 34.6667 42.3029C34.7884 41.8503 34.9197 41.6114 34.9964 41.149C35.1071 40.4822 34.9688 40.0935 34.9964 39.4182C35.0361 38.4485 35.1194 37.908 35.2437 36.9455C35.302 36.494 35.3442 36.2422 35.4085 35.7916M39.9418 24.4173C39.9418 24.4173 39.8614 23.8713 39.6121 23.6755C39.283 23.4171 38.959 23.181 38.5406 23.181C38.1221 23.181 37.9616 23.5413 37.6339 23.6755C37.163 23.8685 37.1389 24.3019 36.8921 24.747C36.6052 25.2646 36.5076 25.5886 36.3152 26.1482C36.1196 26.7168 35.985 27.0361 35.9031 27.6318C35.8198 28.2377 36.0318 28.4253 35.9031 29.1978C35.7743 29.9703 35.7021 30.4034 35.5734 31.1759M39.9418 24.4173V27.6318V31.588V35.6267V36.6158M35.5734 31.1759C35.5734 32.5278 35.7167 33.2934 35.5734 34.6377C35.5251 35.0903 35.4889 35.3435 35.4085 35.7916M35.5734 31.1759C36.0884 31.1759 36.8921 31.1759 36.8921 31.1759H37.6339H38.5406C38.5406 31.1759 36.7321 31.1759 35.5734 31.1759ZM35.4085 35.7916C35.8592 35.7272 36.5624 35.6267 36.5624 35.6267H37.6339H38.5406H39.6121C39.6121 35.6267 37.0501 35.7272 35.4085 35.7916Z" stroke="#725050" stroke-width="0.3"/>
</g>
<path d="M46.3708 48.5671L45.629 50.1332L44.8872 51.9464C44.8872 51.9464 44.6256 53.4518 44.4751 54.4191C44.3001 55.5436 43.9908 56.1682 44.063 57.3039C44.1131 58.0914 44.331 58.5062 44.4751 59.282C44.6655 60.307 44.5266 60.9414 44.8872 61.9195C45.1813 62.7174 45.4242 63.1538 45.9587 63.8152C46.302 64.2401 46.5136 64.4729 46.9478 64.8043C47.7037 65.3814 48.2372 65.6249 49.1732 65.7934C49.8701 65.9188 50.2783 65.7934 50.9864 65.7934C51.8877 65.7934 52.4119 65.977 53.2943 65.7934C53.9324 65.6606 54.2487 65.4417 54.8603 65.2164" stroke="#725050" stroke-width="0.164844"/>
<path d="M37.8811 64.7218C38.9433 64.7218 39.5447 64.8336 40.601 64.7218C41.4485 64.6321 42.744 64.3097 42.744 64.3097C42.744 64.3097 43.8265 63.9184 44.31 63.403C44.6462 63.0447 44.7119 62.75 44.9694 62.3315" stroke="#725050" stroke-width="0.164844"/>
<path d="M51.7281 50.9573C51.4317 50.3272 51.2067 49.9897 50.739 49.4737C50.2157 48.8964 49.8286 48.6584 49.173 48.2374C48.5915 47.864 48.1832 47.7948 47.607 47.4132C47.0914 47.0718 46.8299 46.8381 46.3706 46.4241C45.9649 46.0584 45.8224 45.7576 45.3816 45.435C44.7062 44.9409 44.1554 44.9782 43.4034 44.6108C42.5353 44.1867 42.0363 43.9504 41.2605 43.3745C40.2736 42.6419 39.5166 42.2799 39.0351 41.1491C38.7406 40.4577 38.6112 39.9989 38.7054 39.2534C38.7833 38.6366 38.9393 38.2882 39.2823 37.7698C39.5213 37.4086 40.0241 36.9456 40.0241 36.9456H40.9308C41.8432 37.0272 42.3142 37.3265 43.1562 37.6874C43.7516 37.9425 44.0275 38.2176 44.6398 38.4292C45.5907 38.7577 46.2272 38.4833 47.1949 38.7588C47.7238 38.9095 48.0239 39.0029 48.5136 39.2534C49.07 39.5379 49.3399 39.7753 49.8324 40.16C50.6397 40.7907 51.0463 41.2087 51.7281 41.9733C52.4007 42.7277 52.6012 43.298 53.2941 44.0339C53.8567 44.6313 54.3006 44.8347 54.8601 45.435C55.2029 45.8029 55.3536 46.0454 55.6843 46.4241C56.029 46.8188 56.2485 47.0166 56.591 47.4132C57.1003 48.0029 57.3445 48.3676 57.8273 48.9792" stroke="#725050" stroke-width="0.164844"/>
<path d="M47.8544 39.0886C47.7257 39.4427 47.5248 39.9953 47.5248 39.9953C47.396 40.3493 47.2481 40.5289 47.1951 40.9019C47.1588 41.1568 47.1951 41.3038 47.1951 41.5613" stroke="#725050" stroke-width="0.164844"/>
<path d="M50.7391 40.5722L51.6457 39.8304L52.1402 38.7589M42.9914 38.0996C43.1366 38.5262 43.2129 38.8611 42.9914 39.2535C42.7294 39.7175 41.755 39.8304 41.755 39.8304C41.755 39.8304 40.982 39.9663 40.5187 39.8304C39.8819 39.6437 39.3467 39.4061 39.1999 38.7589C39.0806 38.2327 39.246 37.8366 39.6121 37.4402C39.8857 37.1439 40.1303 37.0542 40.5187 36.9457C40.9837 36.8157 41.2959 36.7964 41.755 36.9457C42.3831 37.1498 42.7786 37.4743 42.9914 38.0996Z" stroke="#725050" stroke-width="0.164844"/>
<path d="M44.2275 37.1928C43.8456 37.679 43.6506 37.1928 43.6506 37.1928C43.6506 37.1928 42.7464 37.1928 42.167 37.1928M44.2275 37.1928C44.7572 36.5184 44.7442 35.8494 44.6055 35.1322M44.2275 37.1928L44.6055 35.1322M44.2275 16.4224C44.4317 18.3794 44.504 19.4832 44.5572 21.4501C44.5947 22.8337 44.503 23.6113 44.5572 24.9943C44.618 26.5435 44.8318 27.4011 44.8869 28.9505C44.9281 30.1086 44.8869 30.759 44.8869 31.9177C44.8869 32.734 44.4734 34.4495 44.6055 35.1322" stroke="#725050" stroke-width="0.164844"/>
<g filter="url(#filter5_dd_161_332)">
<path d="M49.8323 17.1643L49.4202 20.2964V22.1096L49.8323 23.6757L50.162 26.7253V36.1214" stroke="#725050" stroke-width="0.164844"/>
</g>
<path d="M50.7393 24.9121H55.0252" stroke="#725050" stroke-width="0.164844"/>
<path d="M50.8215 30.5167C51.4009 30.3236 51.701 30.1117 52.3051 30.0222C52.8146 29.9467 53.1166 29.9333 53.6239 30.0222C54.1657 30.1171 54.4804 30.2186 54.9426 30.5167C55.4017 30.8128 55.6356 31.0467 55.9317 31.5058" stroke="#725050" stroke-width="0.164844"/>
<path d="M44.8872 29.0331C45.4666 28.9044 45.7817 28.7753 46.3708 28.7034C47.1057 28.6138 47.5447 28.5391 48.2665 28.7034C49.0385 28.8792 49.476 29.098 50.0798 29.6101" stroke="#725050" stroke-width="0.164844"/>
<path d="M44.9695 22.6867C45.4523 22.5258 45.7031 22.354 46.2058 22.2746C46.6827 22.1993 46.9593 22.2746 47.4421 22.2746C47.8284 22.2746 48.0579 22.1753 48.4312 22.2746C48.923 22.4054 49.2071 22.6021 49.5027 23.0164" stroke="#725050" stroke-width="0.164844"/>
<path d="M39.8594 31.7531C40.0772 31.1542 40.4144 30.817 41.0133 30.5992C41.4973 30.4232 41.817 30.5992 42.332 30.5992C42.7827 30.5992 43.486 30.5992 43.486 30.5992C44.1432 30.7898 44.5286 31.127 44.8047 31.7531" stroke="#725050" stroke-width="0.164844"/>
<path d="M40.0242 25.2417C40.2495 24.9198 40.2518 24.5974 40.6011 24.4175C40.9445 24.2406 41.2039 24.4175 41.5902 24.4175C42.0408 24.4175 42.7441 24.4175 42.7441 24.4175C42.7441 24.4175 43.0992 24.3781 43.3211 24.4175C43.8663 24.5143 44.2065 24.7573 44.475 25.2417" stroke="#725050" stroke-width="0.164844"/>
</g>
</g>
</g>
<defs>
<filter id="filter0_dd_161_332" x="0" y="0" width="91" height="98" filterUnits="userSpaceOnUse" color-interpolation-filters="sRGB">
<feFlood flood-opacity="0" result="BackgroundImageFix"/>
<feColorMatrix in="SourceAlpha" type="matrix" values="0 0 0 0 0 0 0 0 0 0 0 0 0 0 0 0 0 0 127 0" result="hardAlpha"/>
<feOffset dy="4"/>
<feGaussianBlur stdDeviation="2"/>
<feComposite in2="hardAlpha" operator="out"/>
<feColorMatrix type="matrix" values="0 0 0 0 0 0 0 0 0 0 0 0 0 0 0 0 0 0 0.25 0"/>
<feBlend mode="normal" in2="BackgroundImageFix" result="effect1_dropShadow_161_332"/>
<feColorMatrix in="SourceAlpha" type="matrix" values="0 0 0 0 0 0 0 0 0 0 0 0 0 0 0 0 0 0 127 0" result="hardAlpha"/>
<feOffset dy="4"/>
<feGaussianBlur stdDeviation="2"/>
<feComposite in2="hardAlpha" operator="out"/>
<feColorMatrix type="matrix" values="0 0 0 0 0 0 0 0 0 0 0 0 0 0 0 0 0 0 0.25 0"/>
<feBlend mode="normal" in2="effect1_dropShadow_161_332" result="effect2_dropShadow_161_332"/>
<feBlend mode="normal" in="SourceGraphic" in2="effect2_dropShadow_161_332" result="shape"/>
</filter>
<filter id="filter1_d_161_332" x="0" y="0" width="91" height="98" filterUnits="userSpaceOnUse" color-interpolation-filters="sRGB">
<feFlood flood-opacity="0" result="BackgroundImageFix"/>
<feColorMatrix in="SourceAlpha" type="matrix" values="0 0 0 0 0 0 0 0 0 0 0 0 0 0 0 0 0 0 127 0" result="hardAlpha"/>
<feOffset dy="4"/>
<feGaussianBlur stdDeviation="2"/>
<feComposite in2="hardAlpha" operator="out"/>
<feColorMatrix type="matrix" values="0 0 0 0 0 0 0 0 0 0 0 0 0 0 0 0 0 0 0.25 0"/>
<feBlend mode="normal" in2="BackgroundImageFix" result="effect1_dropShadow_161_332"/>
<feBlend mode="normal" in="SourceGraphic" in2="effect1_dropShadow_161_332" result="shape"/>
</filter>
<filter id="filter2_d_161_332" x="0" y="0" width="91" height="98" filterUnits="userSpaceOnUse" color-interpolation-filters="sRGB">
<feFlood flood-opacity="0" result="BackgroundImageFix"/>
<feColorMatrix in="SourceAlpha" type="matrix" values="0 0 0 0 0 0 0 0 0 0 0 0 0 0 0 0 0 0 127 0" result="hardAlpha"/>
<feOffset dy="4"/>
<feGaussianBlur stdDeviation="2"/>
<feComposite in2="hardAlpha" operator="out"/>
<feColorMatrix type="matrix" values="0 0 0 0 0 0 0 0 0 0 0 0 0 0 0 0 0 0 0.25 0"/>
<feBlend mode="normal" in2="BackgroundImageFix" result="effect1_dropShadow_161_332"/>
<feBlend mode="normal" in="SourceGraphic" in2="effect1_dropShadow_161_332" result="shape"/>
</filter>
<filter id="filter3_dd_161_332" x="29.8579" y="13.1001" width="32.3464" height="69.7998" filterUnits="userSpaceOnUse" color-interpolation-filters="sRGB">
<feFlood flood-opacity="0" result="BackgroundImageFix"/>
<feColorMatrix in="SourceAlpha" type="matrix" values="0 0 0 0 0 0 0 0 0 0 0 0 0 0 0 0 0 0 127 0" result="hardAlpha"/>
<feOffset dy="3"/>
<feGaussianBlur stdDeviation="1.5"/>
<feComposite in2="hardAlpha" operator="out"/>
<feColorMatrix type="matrix" values="0 0 0 0 0 0 0 0 0 0 0 0 0 0 0 0 0 0 0.25 0"/>
<feBlend mode="normal" in2="BackgroundImageFix" result="effect1_dropShadow_161_332"/>
<feColorMatrix in="SourceAlpha" type="matrix" values="0 0 0 0 0 0 0 0 0 0 0 0 0 0 0 0 0 0 127 0" result="hardAlpha"/>
<feOffset dy="4"/>
<feGaussianBlur stdDeviation="2"/>
<feComposite in2="hardAlpha" operator="out"/>
<feColorMatrix type="matrix" values="0 0 0 0 0 0 0 0 0 0 0 0 0 0 0 0 0 0 0.25 0"/>
<feBlend mode="normal" in2="effect1_dropShadow_161_332" result="effect2_dropShadow_161_332"/>
<feBlend mode="normal" in="SourceGraphic" in2="effect2_dropShadow_161_332" result="shape"/>
</filter>
<filter id="filter4_dd_161_332" x="30.8579" y="13.1001" width="30.3464" height="67.7998" filterUnits="userSpaceOnUse" color-interpolation-filters="sRGB">
<feFlood flood-opacity="0" result="BackgroundImageFix"/>
<feColorMatrix in="SourceAlpha" type="matrix" values="0 0 0 0 0 0 0 0 0 0 0 0 0 0 0 0 0 0 127 0" result="hardAlpha"/>
<feOffset dy="3"/>
<feGaussianBlur stdDeviation="1.5"/>
<feComposite in2="hardAlpha" operator="out"/>
<feColorMatrix type="matrix" values="0 0 0 0 0 0 0 0 0 0 0 0 0 0 0 0 0 0 0.25 0"/>
<feBlend mode="normal" in2="BackgroundImageFix" result="effect1_dropShadow_161_332"/>
<feColorMatrix in="SourceAlpha" type="matrix" values="0 0 0 0 0 0 0 0 0 0 0 0 0 0 0 0 0 0 127 0" result="hardAlpha"/>
<feOffset dy="3"/>
<feGaussianBlur stdDeviation="1.5"/>
<feComposite in2="hardAlpha" operator="out"/>
<feColorMatrix type="matrix" values="0 0 0 0 0 0 0 0 0 0 0 0 0 0 0 0 0 0 0.25 0"/>
<feBlend mode="normal" in2="effect1_dropShadow_161_332" result="effect2_dropShadow_161_332"/>
<feBlend mode="normal" in="SourceGraphic" in2="effect2_dropShadow_161_332" result="shape"/>
</filter>
<filter id="filter5_dd_161_332" x="46.3376" y="17.1536" width="6.90723" height="24.9678" filterUnits="userSpaceOnUse" color-interpolation-filters="sRGB">
<feFlood flood-opacity="0" result="BackgroundImageFix"/>
<feColorMatrix in="SourceAlpha" type="matrix" values="0 0 0 0 0 0 0 0 0 0 0 0 0 0 0 0 0 0 127 0" result="hardAlpha"/>
<feOffset dy="3"/>
<feGaussianBlur stdDeviation="1.5"/>
<feComposite in2="hardAlpha" operator="out"/>
<feColorMatrix type="matrix" values="0 0 0 0 0 0 0 0 0 0 0 0 0 0 0 0 0 0 0.25 0"/>
<feBlend mode="normal" in2="BackgroundImageFix" result="effect1_dropShadow_161_332"/>
<feColorMatrix in="SourceAlpha" type="matrix" values="0 0 0 0 0 0 0 0 0 0 0 0 0 0 0 0 0 0 127 0" result="hardAlpha"/>
<feOffset dy="3"/>
<feGaussianBlur stdDeviation="1.5"/>
<feComposite in2="hardAlpha" operator="out"/>
<feColorMatrix type="matrix" values="0 0 0 0 0 0 0 0 0 0 0 0 0 0 0 0 0 0 0.25 0"/>
<feBlend mode="normal" in2="effect1_dropShadow_161_332" result="effect2_dropShadow_161_332"/>
<feBlend mode="normal" in="SourceGraphic" in2="effect2_dropShadow_161_332" result="shape"/>
</filter>
</defs>
</svg>
