<svg width="91" height="98" viewBox="0 0 91 98" fill="none" xmlns="http://www.w3.org/2000/svg">
<g filter="url(#filter0_dd_140_44)">
<g filter="url(#filter1_d_140_44)">
<ellipse cx="45.5" cy="45" rx="41.5" ry="45" fill="#D9D9D9"/>
</g>
<g filter="url(#filter2_dd_140_44)">
<path d="M27.4044 27.4774C27.4044 27.4774 30.2208 27.5511 32.0229 27.4774C33.0408 27.4357 34.6261 27.3106 34.6261 27.3106L37.2292 27.1437C37.2292 27.1437 51.5885 24.5 55.8711 25.6424C63 29.4998 71.0701 42.7406 71.0701 42.7406C74 48.4999 74.8489 69.4304 74.8489 69.4304H60.6575L58.2223 55.168C57.6387 54.4054 56.6866 54.9289 55.8711 54.4174C55.0076 53.8757 54.8669 53.1777 54.1077 52.4991C53.5518 52.0022 53.2292 51.7268 52.5962 51.3314C51.9754 50.9437 50.9167 50.4973 50.9167 50.4973C50.9167 50.4973 50.3886 50.0746 49.993 49.9135C49.1435 49.5675 48.5574 49.9822 47.6418 49.9135C46.615 49.8365 46.0376 49.7448 45.0387 49.4965C44.3042 49.3138 43.8514 49.2808 43.1913 48.9126C42.7223 48.6511 42.5243 48.4064 42.0996 48.0786C41.6386 47.7227 41.4018 47.4944 40.924 47.1611C40.3579 46.7662 39.4125 46.2436 39.4125 46.2436L39.1769 46.1266L37.901 45.493C37.901 45.493 36.1069 45.5734 34.962 45.493C33.8054 45.4118 33.1025 45.4958 32.0229 45.076C31.3941 44.8314 30.5114 44.2419 30.5114 44.2419L30.0916 43.9007C29.4259 43.6272 29.0657 43.3345 28.664 42.7406C28.1582 41.9928 28.0812 41.3861 28.1602 40.4886C28.2171 39.8421 28.3081 39.4482 28.664 38.9039C28.8539 38.6136 28.9773 38.4501 29.2518 38.2367C29.5394 38.0132 29.8028 37.9176 30.0916 37.8575L34.129 37.757C31.5399 36.0835 33.6184 34.4 33.6184 34.4C27.0839 34.498 20.4347 33.3158 19.5 32.9998C18.5653 32.6838 17.9991 32.6274 17.9995 30.8136C17.9999 28.9998 19.4023 27.6442 20.5522 27.4774C21.7021 27.3106 21.8829 27.4774 22.7355 27.4774H24.5001H25.0112H27.4044Z" fill="#ECCCC0"/>
<path d="M55.8711 25.6424C55.5281 26.3279 55.227 26.6869 54.6115 27.1437C54.1416 27.4926 53.268 27.811 53.268 27.811M55.8711 25.6424C51.5885 24.5 37.2292 27.1437 37.2292 27.1437L34.6261 27.3106M55.8711 25.6424C63 29.4998 71.0701 42.7406 71.0701 42.7406C74 48.4999 74.8489 69.4304 74.8489 69.4304H60.6575L58.2223 55.168C57.6387 54.4054 56.6866 54.9289 55.8711 54.4174C55.0076 53.8757 54.8669 53.1777 54.1077 52.4991C53.5518 52.0022 53.2292 51.7268 52.5962 51.3314C51.9754 50.9437 50.9167 50.4973 50.9167 50.4973C50.9167 50.4973 50.3886 50.0746 49.993 49.9135C49.1435 49.5675 48.5574 49.9822 47.6418 49.9135C46.615 49.8365 46.0376 49.7448 45.0387 49.4965C44.3042 49.3138 43.8514 49.2808 43.1913 48.9126C42.7223 48.6511 42.5243 48.4064 42.0996 48.0786C41.6386 47.7227 41.4018 47.4944 40.924 47.1611C40.3579 46.7662 39.4125 46.2436 39.4125 46.2436L39.1769 46.1266L37.901 45.493M45.7944 31.8145C45.7944 31.8145 45.3403 32.2786 45.0387 32.5651C44.3498 33.2196 44.077 33.7997 43.1913 34.1498C42.5751 34.3934 42.1728 34.3459 41.5118 34.4C40.6948 34.467 39.4125 34.4 39.4125 34.4H37.2292H33.6184M37.901 45.493C37.901 45.493 36.1069 45.5734 34.962 45.493C33.8054 45.4118 33.1025 45.4958 32.0229 45.076C31.3941 44.8314 30.5114 44.2419 30.5114 44.2419C30.5114 44.2419 30.2555 44.0339 30.0916 43.9007C29.4259 43.6272 29.0657 43.3345 28.664 42.7406C28.1582 41.9928 28.0812 41.3861 28.1602 40.4886C28.2171 39.8421 28.3081 39.4482 28.664 38.9039C28.8539 38.6136 28.9773 38.4501 29.2518 38.2367C29.5394 38.0132 29.8028 37.9176 30.0916 37.8575M37.901 45.493C37.901 45.493 38.1805 44.7377 38.3209 44.2419C38.4846 43.6637 38.5898 43.3375 38.6568 42.7406C38.7258 42.1255 38.6568 41.1559 38.6568 41.1559M34.962 37.7363H36.3055C36.3055 37.7363 37.2779 37.7363 37.901 37.7363M34.962 37.7363C34.962 37.7363 36.7532 37.7363 37.901 37.7363M34.962 37.7363L30.0916 37.8575M37.901 37.7363C38.9504 37.7363 40.5881 37.7363 40.5881 37.7363H43.1913M43.1913 37.7363H45.4585H48.2296H50.3289C50.3289 37.7363 51.5162 38.0062 52.2603 38.2367C52.9931 38.4637 53.436 38.5348 54.1077 38.9039C54.6014 39.1752 54.8898 39.3364 55.2833 39.738C55.8365 40.3026 55.9823 40.7638 56.291 41.4895C56.4928 41.9639 56.5469 42.252 56.7108 42.7406M43.1913 37.7363C43.1913 37.7363 42.542 37.348 42.0996 37.1524C41.6542 36.9555 41.3618 36.9483 40.924 36.7354C40.3522 36.4573 39.5805 35.8179 39.5805 35.8179M33.6184 34.4C33.6184 34.4 31.4558 36.1516 34.2902 37.8575C34.2902 37.8575 33.2956 39.3889 32.2784 39.738C31.4707 40.0152 30.0916 39.738 30.0916 39.738V37.8575M33.6184 34.4C27.0839 34.498 20.4347 33.3158 19.5 32.9998C18.5653 32.6838 17.9991 32.6274 17.9995 30.8136C17.9999 28.9998 19.4023 27.6442 20.5522 27.4774C21.7021 27.3106 21.8829 27.4774 22.7355 27.4774C23.3195 27.4774 23.9906 27.4774 24.5001 27.4774M46.2143 33.7328C46.2143 33.7328 47.5776 33.1973 48.2296 32.5651C48.7179 32.0917 49.2373 31.1472 49.2373 31.1472M48.4815 35.5677C48.4815 35.5677 49.6952 35.2063 50.3289 34.7337C50.9235 34.2903 51.1363 33.9019 51.5885 33.3158C52.0201 32.7565 52.5962 31.8145 52.5962 31.8145M51.5885 36.1516C51.5885 36.1516 53.2003 36.5292 54.1077 36.1516C54.6281 35.935 55.2833 35.3175 55.2833 35.3175M34.6261 27.3106C34.6261 27.3106 33.0408 27.4357 32.0229 27.4774C30.2208 27.5511 27.4044 27.4774 27.4044 27.4774H25.0112C25.0112 27.4774 24.806 27.4774 24.5001 27.4774M34.6261 27.3106C34.6261 27.3106 34.6659 28.0239 34.6261 28.4782C34.5708 29.1083 34.5384 29.4805 34.2902 30.0629C34.0951 30.5208 33.6184 31.1472 33.6184 31.1472M36.3055 27.4774C36.3055 27.4774 36.4091 28.1011 36.3055 28.4782C36.2283 28.7593 35.9696 29.1455 35.9696 29.1455M39.4125 45.493C39.4125 45.493 39.8911 44.5541 40.0003 43.9007C40.0965 43.3252 39.9242 42.9854 40.0003 42.407C40.057 41.9761 40.2394 41.7571 40.2522 41.3227C40.267 40.8247 40.0003 40.0716 40.0003 40.0716M55.8711 29.1455C55.8711 29.1455 56.4444 28.8007 56.7108 28.4782M21.5001 27.4774V29.4998C21.5001 29.4998 22.4477 29.6948 23.0001 29.4998C23.9273 29.1723 24.5001 27.4774 24.5001 27.4774M40.5881 45.493C40.5881 45.493 45.7671 49.231 49.5 48.9999C52.4685 48.8161 56.5 45.9999 56.5 45.9999" stroke="#725050" stroke-width="0.3"/>
</g>
</g>
<defs>
<filter id="filter0_dd_140_44" x="0" y="0" width="91" height="98" filterUnits="userSpaceOnUse" color-interpolation-filters="sRGB">
<feFlood flood-opacity="0" result="BackgroundImageFix"/>
<feColorMatrix in="SourceAlpha" type="matrix" values="0 0 0 0 0 0 0 0 0 0 0 0 0 0 0 0 0 0 127 0" result="hardAlpha"/>
<feOffset dy="4"/>
<feGaussianBlur stdDeviation="2"/>
<feComposite in2="hardAlpha" operator="out"/>
<feColorMatrix type="matrix" values="0 0 0 0 0 0 0 0 0 0 0 0 0 0 0 0 0 0 0.25 0"/>
<feBlend mode="normal" in2="BackgroundImageFix" result="effect1_dropShadow_140_44"/>
<feColorMatrix in="SourceAlpha" type="matrix" values="0 0 0 0 0 0 0 0 0 0 0 0 0 0 0 0 0 0 127 0" result="hardAlpha"/>
<feOffset dy="4"/>
<feGaussianBlur stdDeviation="2"/>
<feComposite in2="hardAlpha" operator="out"/>
<feColorMatrix type="matrix" values="0 0 0 0 0 0 0 0 0 0 0 0 0 0 0 0 0 0 0.25 0"/>
<feBlend mode="normal" in2="effect1_dropShadow_140_44" result="effect2_dropShadow_140_44"/>
<feBlend mode="normal" in="SourceGraphic" in2="effect2_dropShadow_140_44" result="shape"/>
</filter>
<filter id="filter1_d_140_44" x="0" y="0" width="91" height="98" filterUnits="userSpaceOnUse" color-interpolation-filters="sRGB">
<feFlood flood-opacity="0" result="BackgroundImageFix"/>
<feColorMatrix in="SourceAlpha" type="matrix" values="0 0 0 0 0 0 0 0 0 0 0 0 0 0 0 0 0 0 127 0" result="hardAlpha"/>
<feOffset dy="4"/>
<feGaussianBlur stdDeviation="2"/>
<feComposite in2="hardAlpha" operator="out"/>
<feColorMatrix type="matrix" values="0 0 0 0 0 0 0 0 0 0 0 0 0 0 0 0 0 0 0.25 0"/>
<feBlend mode="normal" in2="BackgroundImageFix" result="effect1_dropShadow_140_44"/>
<feBlend mode="normal" in="SourceGraphic" in2="effect1_dropShadow_140_44" result="shape"/>
</filter>
<filter id="filter2_dd_140_44" x="13.8495" y="25.2059" width="65.1556" height="52.3745" filterUnits="userSpaceOnUse" color-interpolation-filters="sRGB">
<feFlood flood-opacity="0" result="BackgroundImageFix"/>
<feColorMatrix in="SourceAlpha" type="matrix" values="0 0 0 0 0 0 0 0 0 0 0 0 0 0 0 0 0 0 127 0" result="hardAlpha"/>
<feOffset dy="4"/>
<feGaussianBlur stdDeviation="2"/>
<feComposite in2="hardAlpha" operator="out"/>
<feColorMatrix type="matrix" values="0 0 0 0 0 0 0 0 0 0 0 0 0 0 0 0 0 0 0.25 0"/>
<feBlend mode="normal" in2="BackgroundImageFix" result="effect1_dropShadow_140_44"/>
<feColorMatrix in="SourceAlpha" type="matrix" values="0 0 0 0 0 0 0 0 0 0 0 0 0 0 0 0 0 0 127 0" result="hardAlpha"/>
<feOffset dy="4"/>
<feGaussianBlur stdDeviation="2"/>
<feComposite in2="hardAlpha" operator="out"/>
<feColorMatrix type="matrix" values="0 0 0 0 0 0 0 0 0 0 0 0 0 0 0 0 0 0 0.25 0"/>
<feBlend mode="normal" in2="effect1_dropShadow_140_44" result="effect2_dropShadow_140_44"/>
<feBlend mode="normal" in="SourceGraphic" in2="effect2_dropShadow_140_44" result="shape"/>
</filter>
</defs>
</svg>
