<svg width="91" height="98" viewBox="0 0 91 98" fill="none" xmlns="http://www.w3.org/2000/svg">
<g filter="url(#filter0_dd_163_381)">
<g filter="url(#filter1_d_163_381)">
<ellipse cx="45.5" cy="45" rx="41.5" ry="45" fill="#D9D9D9"/>
</g>
<g filter="url(#filter2_dd_163_381)">
<path d="M57.5144 45.7643C58.0872 46.4113 58.5251 46.7359 58.8269 47.5456C60.463 54.2506 59.4118 59.0995 57.8016 64.5C56.781 67.9226 55.536 71.5669 54.6081 76.0456H38.5769C37.6854 72.8455 36.9264 69.859 36.2978 67C34.7568 59.9908 34.0001 53.7477 34 47.0001C34 45.0963 34.3581 44.5744 34.3581 42.6706V41.03C34.3581 41.03 34 40.1408 34 39.5001C34 39.5001 33.8777 37.4041 34.3581 36.2956C34.5479 35.8576 34.6589 35.583 35.0144 35.2643C35.5575 34.7774 36.0896 34.5184 36.7956 34.7018C37.4225 34.8647 37.8019 35.2149 38.0144 35.8268C38.0144 34.5454 37.4519 33.5911 38.0144 32.5456C38.5769 31.5001 41 31.0001 43.3581 32.5456C43.3581 32.5456 41 13.5143 41 12.5768C41 11.6393 41.9761 11.1332 42.5 11C43.5241 10.7397 43.7558 10.8728 44.4831 11.6393C44.777 11.9491 44.8191 12.2149 45.0456 12.5768C45.3957 13.1364 45.6013 13.9617 45.9831 14.5C46.7886 14.5 47.2671 13.7764 48.0456 13.9831C49.4095 14.3451 49.973 15.2083 50.7401 16.3834L50.7644 16.4206L56.5769 40.7018C56.988 42.4124 57.1935 43.3783 57.5144 45.1081V45.7643Z" fill="#ECCCC0"/>
<path d="M57.5144 45.7643C58.0872 46.4113 58.5251 46.7359 58.8269 47.5456C60.463 54.2506 59.4118 59.0995 57.8016 64.5M57.5144 45.7643C56.16 44.2347 54.9217 43.9075 53.2956 42.6706C52.2989 41.9124 51.7771 41.4384 50.7644 40.7018C49.8987 40.0723 49.2264 39.7183 48.5 39.2494M57.5144 45.7643V45.1081C57.1935 43.3783 56.988 42.4124 56.5769 40.7018L50.7644 16.4206C49.9848 15.2266 49.4239 14.3489 48.0456 13.9831C47.2671 13.7764 46.7886 14.5 45.9831 14.5M45.0456 36.2956C45.0076 36.1307 44.9802 35.9754 44.9585 35.8268C44.8547 35.1175 44.8961 34.7039 44.5 34C44.1689 33.4117 43.745 33.0988 43.3581 32.5456M45.0456 36.2956C44.8917 35.9767 44.6981 35.6996 44.4726 35.468M45.0456 36.2956C45.3263 36.5539 45.564 36.7834 45.7867 37M38.0144 35.8268C37.8019 35.2149 37.4225 34.8647 36.7956 34.7018C36.0896 34.5184 35.5575 34.7774 35.0144 35.2643C34.6589 35.583 34.5479 35.8576 34.3581 36.2956C33.8777 37.4041 34 39.5001 34 39.5001C34 40.1408 34.3581 41.03 34.3581 41.03M38.0144 35.8268C38.6001 36.852 39.5144 38.4518 39.5144 38.4518C39.5144 38.4518 39.7803 39.1213 40 40C40.1764 41.0292 40.5092 43.2236 40.6031 43.7714M38.0144 35.8268C38.0144 34.5454 37.4519 33.5911 38.0144 32.5456C38.5769 31.5001 41 31.0001 43.3581 32.5456M34.3581 41.03C34.3581 41.03 34.3581 42.0299 34.3581 42.6706C34.3581 44.5744 34 45.0963 34 47.0001C34.0001 53.7477 34.7568 59.9908 36.2978 67M34.3581 41.03C34.3581 41.03 38.5769 49.0001 40.0769 48.5001C41.5769 48.0001 41.5 47 41.5 47L41 45.5L40.6394 43.9831C40.6394 43.9831 40.6261 43.9056 40.6031 43.7714M43.3581 32.5456C43.3581 32.5456 41 13.5143 41 12.5768C41 11.6393 41.9761 11.1332 42.5 11C43.5241 10.7397 43.7558 10.8728 44.4831 11.6393C44.777 11.9491 44.8191 12.2149 45.0456 12.5768C45.3957 13.1364 45.6013 13.9617 45.9831 14.5M45.9831 14.5L49.1446 35.8268M49.8269 52.0001C49.8269 52.0001 48.5307 50.2271 48.5 49C48.4271 46.0916 45.5744 44.5456 45.5744 44.5456M40.6031 43.7714C40.6031 43.7714 42.4319 47.988 43.9588 47.0001C44.8929 46.3957 45.5744 44.5456 45.5744 44.5456M45.5744 44.5456C45.5744 44.5456 44.9963 43.7781 44.2845 42.6706M44.2845 42.6706C42.6915 40.1921 40.4285 36.0105 42.474 34.9152C43.2073 34.5225 43.3635 34.6805 43.9588 35.0526C44.1438 35.1682 44.3159 35.3071 44.4726 35.468M44.2845 42.6706C44.5639 43.385 45 44.5 45 44.5L42.3543 45.7643C42.3543 45.7643 41.6229 44.3117 42 43.5C42.2327 42.9991 42.4732 42.6659 43 42.5C43.4827 42.348 43.8582 42.3979 44.2845 42.6706ZM44.4726 35.468L43.302 36.2956C43.302 36.2956 43.7621 37.1329 44.2845 37.3072C44.8525 37.4967 45.7867 37 45.7867 37M45.7867 37C46.2899 37.4895 46.7163 37.9128 47.3894 38.4518C47.7903 38.7729 48.1514 39.0244 48.5 39.2494M48.0456 60.5C48.0456 60.5 49.8229 64.1436 52 65C54.1162 65.8324 57.8016 64.5 57.8016 64.5M57.8016 64.5C56.781 67.9226 55.536 71.5669 54.6081 76.0456H38.5769C37.6854 72.8455 36.9264 69.859 36.2978 67M46.5 63.5C46.5 63.5 44.619 65.7127 43 66.5C40.6396 67.6478 36.2978 67 36.2978 67M43.3581 20C43.3581 20 43.7558 18.9376 44.2845 19C44.6099 19.0384 44.9585 19.5 44.9585 19.5M50 28.5C50 28.5 50.2867 27.6158 50.7644 27.5C51.3677 27.3538 52 28.5 52 28.5M44.4726 28.5C44.4726 28.5 44.64 27.695 45.0456 27.5C45.6668 27.2014 46.5 28.5 46.5 28.5M48.5 20.5C48.5 20.5 48.7102 19.6648 49.1446 19.5C49.7596 19.2667 50.5 20.5 50.5 20.5M36.2978 40.2822C36.2978 40.2822 37.0426 40.8969 37.5 40.7018C37.9696 40.5016 38.0144 39.5001 38.0144 39.5001M47 40C47 40 48.2379 40.5239 48.5 40C48.6312 39.7379 48.5 39.2494 48.5 39.2494M39.3808 47.2638L41 46.5C41 46.5 40.8242 45.7924 40.5 45.5C40.1561 45.1898 39.7852 44.8825 39.3808 45.1081C39.05 45.2926 39 45.5 39 46C39 46.5858 39.3808 47.2638 39.3808 47.2638Z" stroke="#725050" stroke-width="0.3"/>
</g>
</g>
<defs>
<filter id="filter0_dd_163_381" x="0" y="0" width="91" height="98" filterUnits="userSpaceOnUse" color-interpolation-filters="sRGB">
<feFlood flood-opacity="0" result="BackgroundImageFix"/>
<feColorMatrix in="SourceAlpha" type="matrix" values="0 0 0 0 0 0 0 0 0 0 0 0 0 0 0 0 0 0 127 0" result="hardAlpha"/>
<feOffset dy="4"/>
<feGaussianBlur stdDeviation="2"/>
<feComposite in2="hardAlpha" operator="out"/>
<feColorMatrix type="matrix" values="0 0 0 0 0 0 0 0 0 0 0 0 0 0 0 0 0 0 0.25 0"/>
<feBlend mode="normal" in2="BackgroundImageFix" result="effect1_dropShadow_163_381"/>
<feColorMatrix in="SourceAlpha" type="matrix" values="0 0 0 0 0 0 0 0 0 0 0 0 0 0 0 0 0 0 127 0" result="hardAlpha"/>
<feOffset dy="4"/>
<feGaussianBlur stdDeviation="2"/>
<feComposite in2="hardAlpha" operator="out"/>
<feColorMatrix type="matrix" values="0 0 0 0 0 0 0 0 0 0 0 0 0 0 0 0 0 0 0.25 0"/>
<feBlend mode="normal" in2="effect1_dropShadow_163_381" result="effect2_dropShadow_163_381"/>
<feBlend mode="normal" in="SourceGraphic" in2="effect2_dropShadow_163_381" result="shape"/>
</filter>
<filter id="filter1_d_163_381" x="0" y="0" width="91" height="98" filterUnits="userSpaceOnUse" color-interpolation-filters="sRGB">
<feFlood flood-opacity="0" result="BackgroundImageFix"/>
<feColorMatrix in="SourceAlpha" type="matrix" values="0 0 0 0 0 0 0 0 0 0 0 0 0 0 0 0 0 0 127 0" result="hardAlpha"/>
<feOffset dy="4"/>
<feGaussianBlur stdDeviation="2"/>
<feComposite in2="hardAlpha" operator="out"/>
<feColorMatrix type="matrix" values="0 0 0 0 0 0 0 0 0 0 0 0 0 0 0 0 0 0 0.25 0"/>
<feBlend mode="normal" in2="BackgroundImageFix" result="effect1_dropShadow_163_381"/>
<feBlend mode="normal" in="SourceGraphic" in2="effect1_dropShadow_163_381" result="shape"/>
</filter>
<filter id="filter2_dd_163_381" x="29.8362" y="10.7285" width="33.9624" height="73.467" filterUnits="userSpaceOnUse" color-interpolation-filters="sRGB">
<feFlood flood-opacity="0" result="BackgroundImageFix"/>
<feColorMatrix in="SourceAlpha" type="matrix" values="0 0 0 0 0 0 0 0 0 0 0 0 0 0 0 0 0 0 127 0" result="hardAlpha"/>
<feOffset dy="4"/>
<feGaussianBlur stdDeviation="2"/>
<feComposite in2="hardAlpha" operator="out"/>
<feColorMatrix type="matrix" values="0 0 0 0 0 0 0 0 0 0 0 0 0 0 0 0 0 0 0.25 0"/>
<feBlend mode="normal" in2="BackgroundImageFix" result="effect1_dropShadow_163_381"/>
<feColorMatrix in="SourceAlpha" type="matrix" values="0 0 0 0 0 0 0 0 0 0 0 0 0 0 0 0 0 0 127 0" result="hardAlpha"/>
<feOffset dy="4"/>
<feGaussianBlur stdDeviation="2"/>
<feComposite in2="hardAlpha" operator="out"/>
<feColorMatrix type="matrix" values="0 0 0 0 0 0 0 0 0 0 0 0 0 0 0 0 0 0 0.25 0"/>
<feBlend mode="normal" in2="effect1_dropShadow_163_381" result="effect2_dropShadow_163_381"/>
<feBlend mode="normal" in="SourceGraphic" in2="effect2_dropShadow_163_381" result="shape"/>
</filter>
</defs>
</svg>
