<svg width="91" height="98" viewBox="0 0 91 98" fill="none" xmlns="http://www.w3.org/2000/svg">
<g filter="url(#filter0_dd_144_87)">
<g filter="url(#filter1_d_144_87)">
<ellipse cx="45.5" cy="45" rx="41.5" ry="45" fill="#D9D9D9"/>
</g>
<g filter="url(#filter2_d_144_87)">
<g filter="url(#filter3_d_144_87)">
<path d="M60.2282 67.849C59.3063 68.1206 58.7953 68.9054 57.8844 68.599C57.0444 68.3165 56.4782 66.8178 56.4782 66.8178L55.7282 65.224C55.7282 65.224 55.0762 64.283 54.6032 63.724C53.9343 62.9335 52.7282 61.849 52.7282 61.849L50.4782 60.0678C50.4782 60.0678 49.4456 59.7156 48.8844 59.3178C48.1651 58.8079 47.9793 58.2811 47.3844 57.6303C46.8427 57.0376 46.5518 56.6921 45.9782 56.1303C45.181 55.3495 44.5564 55.0954 43.8219 54.2553C43.0734 53.399 42.9138 52.7252 42.2282 51.8178C41.6488 51.051 41.2375 50.691 40.6344 49.9428C39.8303 48.9451 39.3928 48.373 38.6657 47.3178C38.0491 46.423 37.7868 45.8657 37.1657 44.974C36.5085 44.0307 36.1335 43.5024 35.3844 42.6303C34.7938 41.9427 34.4399 41.5754 33.7907 40.9428C32.9544 40.128 32.456 39.8161 31.5407 38.974L29.1969 36.8178C29.1969 36.8178 27.8736 35.8628 27.1344 35.1303C26.5815 34.5824 26.37 34.183 25.8219 33.6303C25.109 32.9112 24.5842 32.6435 23.8532 31.9428C23.1988 31.3156 22.7535 31.0153 22.2594 30.2553L22.2445 30.2323C21.8784 29.6693 21.6543 29.3246 21.5094 28.6615C21.3687 28.0177 21.3152 27.6038 21.5094 26.974C21.6741 26.44 21.8449 26.1301 22.2594 25.7553C22.7587 25.3039 23.1812 25.1381 23.8532 25.099C24.8181 25.0429 25.2974 25.5965 26.1032 26.1303C27.1391 26.8166 27.4745 27.5016 28.3532 28.3803C29.2685 29.2956 29.6397 29.9772 30.6969 30.724C31.5395 31.3193 32.1784 31.3765 33.0407 31.9428C33.7815 32.4293 34.1219 32.8055 34.8219 33.349C35.7299 34.0542 36.5841 36.122 37.1657 35.1303C37.462 34.625 37.1657 34.2161 37.1657 33.6303V31.9428C37.1657 31.4668 37.0808 31.1924 37.1657 30.724C37.2883 30.0472 37.4879 29.669 37.9157 29.1303C38.4212 28.4937 38.8594 28.2396 39.6032 27.9115C40.0909 27.6964 40.3876 27.609 40.9157 27.5365C41.4235 27.4669 41.8946 27.9257 42.2282 27.5365C42.5141 27.203 42.1503 26.8439 42.2282 26.4115C42.327 25.8627 42.4594 25.5477 42.7907 25.099C43.0059 24.8075 43.1906 24.6991 43.4469 24.4428C43.8497 24.0401 43.9533 23.6326 44.4782 23.4115C45.0181 23.1842 45.4676 23.1244 45.9782 23.4115C46.4122 23.6556 46.4353 24.0401 46.7282 24.4428L48.0407 23.8803C48.0407 23.1115 47.7776 22.634 48.0407 21.9115C48.1868 21.5104 48.3398 21.3101 48.6032 20.974C49.0196 20.4427 49.3606 20.2333 49.9157 19.849C50.2667 19.606 50.4594 19.4517 50.8532 19.2865C51.2708 19.1114 51.5266 18.9706 51.9782 19.0053C52.6167 19.0544 52.8323 19.5245 53.3844 19.849C54.1478 20.2978 54.6174 20.4813 55.3532 20.974C56.0042 21.41 56.3545 21.6801 56.9469 22.1928C57.6516 22.8027 57.9754 23.2213 58.6344 23.8803C59.2873 23.9769 59.6592 24.1082 60.2282 24.4428C60.8757 24.8236 61.0872 25.2407 61.6344 25.7553C62.3702 26.4472 62.7949 26.8227 63.5094 27.5365C64.5357 28.5619 65.1128 29.1402 66.0407 30.2553C66.776 31.139 67.3996 31.5298 67.8219 32.599C68.1492 33.4276 68.0783 33.9662 68.1969 34.849C68.3585 36.0514 68.4782 36.5149 68.4782 37.9428V41.599C68.4782 41.599 68.7036 43.1373 68.7594 44.1303C68.817 45.1538 68.8062 45.7312 68.7594 46.7553C68.7074 47.8944 68.2128 48.5526 68.4782 49.6615C68.7033 50.6023 69.2592 50.9552 69.6969 51.8178C70.3278 53.061 70.5671 53.8121 71.1032 55.099C71.5136 56.0844 72.0856 56.564 72.1344 57.6303C72.165 58.2977 72.0274 58.6728 71.8532 59.3178C71.6475 60.0791 71.3675 60.4498 71.1032 61.1928C70.8587 61.8801 70.9064 62.3428 70.5407 62.974C70.1754 63.6046 69.8305 63.8871 69.2797 64.3381L69.2282 64.3803C68.48 64.9934 67.9412 65.1747 67.0719 65.599C66.2165 66.0166 65.7182 66.2159 64.8219 66.5365C63.8512 66.8838 63.2826 67.0056 62.2907 67.2865C61.4874 67.5141 61.029 67.6132 60.2282 67.849Z" fill="#ECCCC0"/>
<path d="M58.6344 23.8803C59.2873 23.9769 59.6592 24.1082 60.2282 24.4428C60.8757 24.8236 61.0872 25.2407 61.6344 25.7553C62.3702 26.4472 62.7949 26.8227 63.5094 27.5365C64.5357 28.5619 65.1128 29.1402 66.0407 30.2553C66.776 31.139 67.3996 31.5298 67.8219 32.599C68.1492 33.4276 68.0783 33.9662 68.1969 34.849C68.3585 36.0514 68.4782 36.5149 68.4782 37.9428C68.4782 39.3707 68.4782 40.1712 68.4782 41.599C68.4782 41.599 68.7036 43.1373 68.7594 44.1303C68.817 45.1538 68.8062 45.7312 68.7594 46.7553C68.7074 47.8944 68.2128 48.5526 68.4782 49.6615C68.7033 50.6023 69.2592 50.9552 69.6969 51.8178C70.3278 53.061 70.5671 53.8121 71.1032 55.099C71.5136 56.0844 72.0856 56.564 72.1344 57.6303C72.165 58.2977 72.0274 58.6728 71.8532 59.3178C71.6475 60.0791 71.3675 60.4498 71.1032 61.1928C70.8587 61.8801 70.9064 62.3428 70.5407 62.974C70.1641 63.6241 69.8092 63.9042 69.2282 64.3803C68.48 64.9934 67.9411 65.1747 67.0719 65.599C66.2165 66.0166 65.7182 66.2159 64.8219 66.5365C63.8512 66.8838 63.2826 67.0056 62.2907 67.2865C61.4874 67.5141 61.029 67.6132 60.2282 67.849C59.3063 68.1206 58.7953 68.9054 57.8844 68.599C57.0444 68.3165 56.4782 66.8178 56.4782 66.8178L55.7282 65.224C55.7282 65.224 55.0762 64.283 54.6032 63.724C53.9343 62.9335 52.7282 61.849 52.7282 61.849L50.4782 60.0678M58.6344 23.8803C57.4995 23.8803 56.8631 23.8803 55.7282 23.8803C54.3735 23.8803 53.6141 23.8803 52.2594 23.8803C51.3441 23.8803 50.831 23.8803 49.9157 23.8803C49.1834 23.8803 48.7729 23.8803 48.0407 23.8803M58.6344 23.8803C57.9754 23.2213 57.6516 22.8027 56.9469 22.1928C56.3545 21.6801 56.0042 21.41 55.3532 20.974C54.6174 20.4813 54.1478 20.2978 53.3844 19.849C52.8323 19.5245 52.6167 19.0544 51.9782 19.0053C51.5266 18.9706 51.2708 19.1114 50.8532 19.2865C50.4594 19.4517 50.2667 19.606 49.9157 19.849C49.3606 20.2333 49.0196 20.4427 48.6032 20.974C48.3398 21.3101 48.1868 21.5104 48.0407 21.9115C47.7776 22.634 48.0407 23.1115 48.0407 23.8803M48.0407 23.8803C47.5281 24.1 47.2407 24.2231 46.7282 24.4428M46.7282 24.4428C46.5085 24.9554 46.3141 25.2178 46.1657 25.7553C45.9989 26.3594 45.9389 26.7236 45.9782 27.349C46.0038 27.7576 45.996 28.0078 46.1657 28.3803C46.4341 28.9698 46.8678 29.1146 47.3844 29.5053C48.2726 30.1769 48.8562 30.4751 49.9157 30.8178C50.592 31.0366 50.9896 31.122 51.6969 31.1928C52.3527 31.2585 52.7254 31.1928 53.3844 31.1928C53.8604 31.1928 54.1333 31.2686 54.6032 31.1928C55.1405 31.1061 55.4031 30.9071 55.9157 30.724C56.4282 30.541 56.9777 29.7721 57.2282 30.2553C57.4041 30.5947 56.9951 30.8136 56.9469 31.1928C56.8628 31.8556 56.829 32.3446 57.2282 32.8803C57.6001 33.3794 58.0596 33.3917 58.6344 33.6303C59.0621 33.8079 59.2982 33.9634 59.7594 34.0053H60.2282C60.2282 34.0053 59.6267 34.451 59.3844 34.849C59.2395 35.0872 59.116 35.2268 59.1032 35.5053C59.0888 35.8178 59.1994 36.0031 59.3844 36.2553C59.6187 36.5746 59.8589 36.6748 60.2282 36.8178C60.8427 37.0557 61.3011 37.0557 61.9157 36.8178M46.7282 24.4428C46.4353 24.0401 46.4122 23.6556 45.9782 23.4115C45.4676 23.1244 45.0181 23.1842 44.4782 23.4115C43.9533 23.6326 43.8497 24.0401 43.4469 24.4428C43.1906 24.6991 43.0059 24.8075 42.7907 25.099C42.4594 25.5477 42.327 25.8627 42.2282 26.4115C42.1503 26.8439 42.5141 27.203 42.2282 27.5365C41.8946 27.9257 41.4235 27.4669 40.9157 27.5365C40.3876 27.609 40.0909 27.6964 39.6032 27.9115C38.8594 28.2396 38.4212 28.4937 37.9157 29.1303C37.4879 29.669 37.2883 30.0472 37.1657 30.724C37.0808 31.1924 37.1657 31.4668 37.1657 31.9428C37.1657 32.6018 37.1657 32.9713 37.1657 33.6303C37.1657 34.2161 37.462 34.625 37.1657 35.1303C36.5841 36.122 35.7299 34.0542 34.8219 33.349C34.1219 32.8055 33.7815 32.4293 33.0407 31.9428C32.1784 31.3765 31.5395 31.3193 30.6969 30.724C29.6397 29.9772 29.2685 29.2956 28.3532 28.3803C27.4745 27.5016 27.1391 26.8166 26.1032 26.1303C25.2974 25.5965 24.8181 25.0429 23.8532 25.099C23.1812 25.1381 22.7587 25.3039 22.2594 25.7553C21.8449 26.1301 21.6741 26.44 21.5094 26.974C21.3152 27.6038 21.3687 28.0177 21.5094 28.6615C21.6563 29.3336 21.8845 29.6786 22.2594 30.2553C22.7535 31.0153 23.1988 31.3156 23.8532 31.9428C24.5842 32.6435 25.109 32.9112 25.8219 33.6303C26.37 34.183 26.5815 34.5824 27.1344 35.1303C27.8736 35.8628 29.1969 36.8178 29.1969 36.8178C30.1122 37.6599 30.6254 38.132 31.5407 38.974C32.456 39.8161 32.9544 40.128 33.7907 40.9428C34.4399 41.5754 34.7938 41.9427 35.3844 42.6303C36.1335 43.5024 36.5085 44.0307 37.1657 44.974C37.7868 45.8657 38.0491 46.423 38.6657 47.3178C39.3928 48.373 39.8303 48.9451 40.6344 49.9428C41.2375 50.691 41.6488 51.051 42.2282 51.8178C42.9138 52.7252 43.0734 53.399 43.8219 54.2553C44.5564 55.0954 45.181 55.3495 45.9782 56.1303C46.5518 56.6921 46.8427 57.0376 47.3844 57.6303C47.9793 58.2811 48.1651 58.8079 48.8844 59.3178C49.4456 59.7156 50.4782 60.0678 50.4782 60.0678M50.4782 60.0678C50.4782 60.0678 51.5523 60.37 52.2594 60.4428C52.9514 60.5141 54.0407 60.4428 54.0407 60.4428C54.0407 60.4428 54.8695 60.2919 55.3532 60.0678C55.8323 59.8458 56.4782 59.3178 56.4782 59.3178L57.8844 58.474C57.8844 58.474 58.6638 57.6946 59.1032 57.2553C59.5425 56.816 60.2282 56.1303 60.2282 56.1303" stroke="#725050" stroke-width="0.3"/>
</g>
<g filter="url(#filter4_d_144_87)">
<path d="M22.353 38.0314C22.353 38.0314 22.7097 36.464 22.1654 35.9741L19.2592 35.1304C19.2592 35.1304 18.7441 37.6923 18.5092 39.3491C18.2611 41.0985 18.1318 42.0846 18.0404 43.8491C17.9495 45.6041 18.0404 48.3491 18.0404 48.3491L18.2279 52.8439C18.2279 52.8439 18.3795 55.6678 19.2592 57.1616C19.9555 58.3442 20.5954 58.874 21.6967 59.6929C22.6956 60.4356 23.2981 60.9049 24.5092 61.1929C25.6133 61.4554 25.9189 61.3664 27.0405 61.1929C27.8655 61.0652 28.6327 61.0195 29.3843 60.7189C29.853 60.5314 30.0403 59.5614 30.7904 59.6929L33.0404 61.1929L34.3529 52.1929L27.4154 56.5054C27.4154 56.5054 29.0714 57.3075 28.8217 58.0991C28.7046 58.4703 28.1654 58.8491 28.1654 58.8491C28.1654 58.8491 27.1283 58.9552 26.4779 58.8491C25.6659 58.7167 24.5092 58.0991 24.5092 58.0991C24.5092 58.0991 23.3885 57.2476 22.9154 56.5054C22.4732 55.8116 22.3975 55.326 22.1654 54.5366C21.9021 53.6411 21.7877 53.1218 21.6967 52.1929C21.6073 51.2819 21.6967 50.7644 21.6967 49.8491V47.0366C21.6967 45.7918 21.8842 44.0314 21.8842 44.0314C21.8842 44.0314 22.0998 41.5161 22.1654 40.0054C22.2019 39.1641 22.353 38.0314 22.353 38.0314Z" fill="#725050"/>
<path d="M22.353 38.0314C22.353 38.0314 22.7097 36.464 22.1654 35.9741L19.2592 35.1304C19.2592 35.1304 18.7441 37.6923 18.5092 39.3491C18.2611 41.0985 18.1318 42.0846 18.0404 43.8491C17.9495 45.6041 18.0404 48.3491 18.0404 48.3491L18.2279 52.8439C18.2279 52.8439 18.3795 55.6678 19.2592 57.1616C19.9555 58.3442 20.5954 58.874 21.6967 59.6929C22.6956 60.4356 23.2981 60.9049 24.5092 61.1929C25.6133 61.4554 25.9189 61.3664 27.0405 61.1929C27.8655 61.0652 28.6327 61.0195 29.3843 60.7189C29.853 60.5314 30.0403 59.5614 30.7904 59.6929L33.0404 61.1929L34.3529 52.1929L27.4154 56.5054C27.4154 56.5054 29.0714 57.3075 28.8217 58.0991C28.7046 58.4703 28.1654 58.8491 28.1654 58.8491C28.1654 58.8491 27.1283 58.9552 26.4779 58.8491C25.6659 58.7167 24.5092 58.0991 24.5092 58.0991C24.5092 58.0991 23.3885 57.2476 22.9154 56.5054C22.4732 55.8116 22.3975 55.326 22.1654 54.5366C21.9021 53.6411 21.7877 53.1218 21.6967 52.1929C21.6073 51.2819 21.6967 50.7644 21.6967 49.8491V47.0366C21.6967 45.7918 21.8842 44.0314 21.8842 44.0314C21.8842 44.0314 22.0998 41.5161 22.1654 40.0054C22.2019 39.1641 22.353 38.0314 22.353 38.0314Z" stroke="#725050" stroke-width="0.3"/>
</g>
<path d="M46.3528 26.3179C46.6091 26.684 46.6482 26.9917 47.009 27.2554C47.4903 27.607 47.9134 27.5149 48.509 27.5366C49.249 27.5636 49.7435 27.6267 50.384 27.2554C50.832 26.9957 51.1318 26.7996 51.3215 26.3179C51.496 25.875 51.3215 25.5751 51.3215 25.0991C51.3215 24.733 51.3215 24.5277 51.3215 24.1616" stroke="#725050" stroke-width="0.3"/>
<path d="M45.3215 37.7554L46.3528 36.3491L46.9153 35.6929" stroke="#725050" stroke-width="0.3"/>
<path d="M48.6965 43.5679C48.6965 43.0187 48.6965 42.1616 48.6965 42.1616C48.6965 42.1616 48.423 41.2316 48.6965 40.7554C48.9045 40.3934 49.1425 40.2257 49.5403 40.0991C49.8892 39.9881 50.1117 40.0991 50.4778 40.0991C51.0636 40.0991 51.392 40.0991 51.9778 40.0991" stroke="#725050" stroke-width="0.3"/>
<path d="M52.6343 40.3804C52.6343 39.7946 52.4854 39.4469 52.6343 38.8804C52.7718 38.3576 52.8818 38.0153 53.2906 37.6616C53.6505 37.3502 53.9398 37.206 54.4156 37.1929C54.9253 37.1788 55.1937 37.405 55.6343 37.6616C56.0394 37.8976 56.2526 38.0682 56.5718 38.4116" stroke="#725050" stroke-width="0.3"/>
<path d="M52.4465 40.3804L53.9465 40.8491H55.259L56.1965 39.5366L56.4778 37.9429L55.9153 36.2554L54.3215 34.2866L53.9465 33.4429M53.9465 33.4429L52.9153 31.4741M53.9465 33.4429L52.9153 33.7241L52.0715 34.2866L51.4153 35.2241" stroke="#725050" stroke-width="0.3"/>
<path d="M59.1031 35.8804C58.7563 35.8994 58.5483 35.9688 58.2594 36.1616C57.7417 36.5072 57.785 37.0098 57.5094 37.5679C57.2773 38.0379 57.2133 38.3352 56.9469 38.7866C56.6938 39.2155 56.4614 39.3959 56.1969 39.8179C56.0401 40.068 55.9876 40.2298 55.8219 40.4741C55.5164 40.9246 55.1986 41.061 54.8844 41.5054C54.5723 41.9467 54.4149 42.2168 54.2281 42.7241C53.9348 43.521 53.9978 44.0327 53.9469 44.8804C53.9029 45.6113 53.7775 46.043 53.9469 46.7554C54.1287 47.5201 54.452 47.8801 54.8844 48.5366C55.4413 49.3823 55.7945 49.8565 56.5719 50.5054C57.3529 51.1572 57.8707 51.4573 58.8219 51.8179C59.5609 52.098 60.0183 52.1187 60.7906 52.2866C61.7378 52.4926 62.5325 52.9384 63.2281 52.7554C63.9238 52.5723 64.3138 52.4697 65.0094 52.2866C65.705 52.1036 65.9923 52.1485 66.5094 51.8179C67.0782 51.4542 67.195 51.0179 67.6344 50.5054" stroke="#725050" stroke-width="0.3"/>
<path d="M53.8528 50.0366L53.1028 48.6304V46.5679V44.9741L53.8528 44.1304" stroke="#725050" stroke-width="0.3"/>
<path d="M50.4778 51.5366V48.8179V46.5679V45.2554" stroke="#725050" stroke-width="0.3"/>
<path d="M48.509 47.1304C48.6555 46.2517 48.8383 45.77 48.884 44.8804C48.9047 44.4782 48.9047 44.2513 48.884 43.8491" stroke="#725050" stroke-width="0.3"/>
<path d="M40.8215 44.4116L43.7278 42.7241L45.2278 41.5054" stroke="#725050" stroke-width="0.3"/>
<path d="M35.7587 42.5366C35.7587 42.0241 35.6688 41.7287 35.7587 41.2241C35.8626 40.6418 36.0289 40.3321 36.3212 39.8179C36.5926 39.3404 36.8028 39.1056 37.165 38.6929C37.4724 38.3426 37.6128 38.0948 38.0087 37.8491C38.5824 37.4932 39.0237 37.4158 39.6962 37.4741C40.3668 37.5322 40.7042 37.7989 41.29 38.1304C41.6347 38.3254 42.1337 38.6929 42.1337 38.6929C42.1337 38.6929 42.711 39.0847 43.0712 39.3491C43.5967 39.7348 44.3837 40.3804 44.3837 40.3804L45.3212 41.2241L46.4462 42.2554L47.5712 43.0991L48.3212 43.4741C48.3212 43.4741 48.9306 43.7738 49.3525 43.8491C49.785 43.9263 50.0416 43.9042 50.4775 43.8491C51.0064 43.7823 51.2976 43.6784 51.79 43.4741C52.0925 43.3487 52.3007 43.3226 52.54 43.0991C52.8879 42.7743 53.0239 42.4498 53.0087 41.9741C52.9947 41.532 52.7251 41.3446 52.54 40.9429C52.2521 40.3181 52.1496 39.9355 51.79 39.3491C51.2876 38.5299 50.7955 38.2254 50.1962 37.4741C49.6255 36.7585 49.38 36.2989 48.79 35.5991C48.2057 34.9061 47.8274 34.5623 47.1962 33.9116C46.4753 33.1683 46.0132 32.8071 45.3212 32.0366C44.6603 31.3007 44.2268 30.9218 43.7275 30.0679C43.4216 29.5447 43.398 29.172 43.0712 28.6616C42.7629 28.18 42.1337 27.5366 42.1337 27.5366" stroke="#725050" stroke-width="0.3"/>
<path d="M30.9778 38.224C31.1975 37.5283 31.2101 37.0932 31.5403 36.4427C31.7793 35.9719 31.9551 35.7257 32.2903 35.3177C32.6189 34.9176 32.7918 34.6595 33.2278 34.3802C33.6861 34.0866 34.0012 33.9861 34.5403 33.9115C34.9029 33.8612 35.1151 33.8612 35.4778 33.9115" stroke="#725050" stroke-width="0.3"/>
<path d="M27.2278 34.6616C27.4475 34.0392 27.7903 33.0679 27.7903 33.0679L28.5403 32.0366C28.5403 32.0366 28.8299 31.5307 29.1028 31.2866C29.4688 30.9591 30.2278 30.7241 30.2278 30.7241" stroke="#725050" stroke-width="0.3"/>
</g>
</g>
<defs>
<filter id="filter0_dd_144_87" x="0" y="0" width="91" height="98" filterUnits="userSpaceOnUse" color-interpolation-filters="sRGB">
<feFlood flood-opacity="0" result="BackgroundImageFix"/>
<feColorMatrix in="SourceAlpha" type="matrix" values="0 0 0 0 0 0 0 0 0 0 0 0 0 0 0 0 0 0 127 0" result="hardAlpha"/>
<feOffset dy="4"/>
<feGaussianBlur stdDeviation="2"/>
<feComposite in2="hardAlpha" operator="out"/>
<feColorMatrix type="matrix" values="0 0 0 0 0 0 0 0 0 0 0 0 0 0 0 0 0 0 0.25 0"/>
<feBlend mode="normal" in2="BackgroundImageFix" result="effect1_dropShadow_144_87"/>
<feColorMatrix in="SourceAlpha" type="matrix" values="0 0 0 0 0 0 0 0 0 0 0 0 0 0 0 0 0 0 127 0" result="hardAlpha"/>
<feOffset dy="4"/>
<feGaussianBlur stdDeviation="2"/>
<feComposite in2="hardAlpha" operator="out"/>
<feColorMatrix type="matrix" values="0 0 0 0 0 0 0 0 0 0 0 0 0 0 0 0 0 0 0.25 0"/>
<feBlend mode="normal" in2="effect1_dropShadow_144_87" result="effect2_dropShadow_144_87"/>
<feBlend mode="normal" in="SourceGraphic" in2="effect2_dropShadow_144_87" result="shape"/>
</filter>
<filter id="filter1_d_144_87" x="0" y="0" width="91" height="98" filterUnits="userSpaceOnUse" color-interpolation-filters="sRGB">
<feFlood flood-opacity="0" result="BackgroundImageFix"/>
<feColorMatrix in="SourceAlpha" type="matrix" values="0 0 0 0 0 0 0 0 0 0 0 0 0 0 0 0 0 0 127 0" result="hardAlpha"/>
<feOffset dy="4"/>
<feGaussianBlur stdDeviation="2"/>
<feComposite in2="hardAlpha" operator="out"/>
<feColorMatrix type="matrix" values="0 0 0 0 0 0 0 0 0 0 0 0 0 0 0 0 0 0 0.25 0"/>
<feBlend mode="normal" in2="BackgroundImageFix" result="effect1_dropShadow_144_87"/>
<feBlend mode="normal" in="SourceGraphic" in2="effect1_dropShadow_144_87" result="shape"/>
</filter>
<filter id="filter2_d_144_87" x="13.8501" y="18.8501" width="62.4385" height="57.9688" filterUnits="userSpaceOnUse" color-interpolation-filters="sRGB">
<feFlood flood-opacity="0" result="BackgroundImageFix"/>
<feColorMatrix in="SourceAlpha" type="matrix" values="0 0 0 0 0 0 0 0 0 0 0 0 0 0 0 0 0 0 127 0" result="hardAlpha"/>
<feOffset dy="4"/>
<feGaussianBlur stdDeviation="2"/>
<feComposite in2="hardAlpha" operator="out"/>
<feColorMatrix type="matrix" values="0 0 0 0 0 0 0 0 0 0 0 0 0 0 0 0 0 0 0.25 0"/>
<feBlend mode="normal" in2="BackgroundImageFix" result="effect1_dropShadow_144_87"/>
<feBlend mode="normal" in="SourceGraphic" in2="effect1_dropShadow_144_87" result="shape"/>
</filter>
<filter id="filter3_d_144_87" x="17.2332" y="18.8501" width="59.0554" height="57.9688" filterUnits="userSpaceOnUse" color-interpolation-filters="sRGB">
<feFlood flood-opacity="0" result="BackgroundImageFix"/>
<feColorMatrix in="SourceAlpha" type="matrix" values="0 0 0 0 0 0 0 0 0 0 0 0 0 0 0 0 0 0 127 0" result="hardAlpha"/>
<feOffset dy="4"/>
<feGaussianBlur stdDeviation="2"/>
<feComposite in2="hardAlpha" operator="out"/>
<feColorMatrix type="matrix" values="0 0 0 0 0 0 0 0 0 0 0 0 0 0 0 0 0 0 0.25 0"/>
<feBlend mode="normal" in2="BackgroundImageFix" result="effect1_dropShadow_144_87"/>
<feBlend mode="normal" in="SourceGraphic" in2="effect1_dropShadow_144_87" result="shape"/>
</filter>
<filter id="filter4_d_144_87" x="13.8501" y="34.9408" width="24.6978" height="34.5673" filterUnits="userSpaceOnUse" color-interpolation-filters="sRGB">
<feFlood flood-opacity="0" result="BackgroundImageFix"/>
<feColorMatrix in="SourceAlpha" type="matrix" values="0 0 0 0 0 0 0 0 0 0 0 0 0 0 0 0 0 0 127 0" result="hardAlpha"/>
<feOffset dy="4"/>
<feGaussianBlur stdDeviation="2"/>
<feComposite in2="hardAlpha" operator="out"/>
<feColorMatrix type="matrix" values="0 0 0 0 0 0 0 0 0 0 0 0 0 0 0 0 0 0 0.25 0"/>
<feBlend mode="normal" in2="BackgroundImageFix" result="effect1_dropShadow_144_87"/>
<feBlend mode="normal" in="SourceGraphic" in2="effect1_dropShadow_144_87" result="shape"/>
</filter>
</defs>
</svg>
