<svg width="91" height="98" viewBox="0 0 91 98" fill="none" xmlns="http://www.w3.org/2000/svg">
<g filter="url(#filter0_d_149_252)">
<ellipse cx="45.5" cy="45" rx="41.5" ry="45" fill="#D9D9D9"/>
<g filter="url(#filter1_d_149_252)">
<path d="M63.704 75.5372L37.829 77.7872C37.829 77.7872 34.0642 70.4251 32.429 65.4122C29.3227 55.8899 29.054 39.9873 29.054 39.9873L28.7676 38.4123C28.7676 38.4123 22.921 29.1347 26.354 25.1373C27.8647 23.3782 30.629 23.5623 30.629 23.5623C30.629 23.5623 30.6745 21.0119 31.529 19.7373C32.6888 18.007 33.554 17.2623 36.254 17.2623C39.4739 17.2623 40.395 20.4528 40.6545 22.0507C40.4347 19.5373 40.274 12.5697 45.254 12.6206C49.7724 12.6668 49.4365 20.0664 48.9677 23.8553C49.6863 19.9161 51.6519 12.1209 55.829 13.2123C56.8124 13.4693 57.6274 13.9093 58.2959 14.4883C63.538 17.3599 66.5055 20.6578 66.179 34.3623L65.5568 44.7123L63.704 75.5372Z" fill="#ECCCC0"/>
<path d="M55.829 13.2123C50.2718 11.7602 48.629 26.0373 48.629 26.0373C48.629 26.0373 51.329 12.6828 45.254 12.6206C39.179 12.5585 40.754 22.9407 40.754 22.9407M55.829 13.2123C60.1827 14.3499 61.235 19.0753 60.8939 23.5623C60.6358 26.9566 56.954 31.3379 56.954 31.3379M55.829 13.2123C62.5901 16.613 66.5537 18.6347 66.179 34.3623L65.5568 44.7123M40.754 22.9407C40.754 22.9407 40.5496 17.2623 36.254 17.2623C33.554 17.2623 32.6888 18.007 31.529 19.7373C30.6745 21.0119 30.629 23.5623 30.629 23.5623M40.754 22.9407C40.754 22.9407 36.029 18.9367 34.229 25.1373C32.429 31.3379 41.8219 37.276 41.8219 37.276M40.754 22.9407C40.754 22.9407 50.8613 26.5656 56.954 31.3379M28.7676 38.4123C28.7676 38.4123 22.921 29.1347 26.354 25.1373C27.8647 23.3782 30.629 23.5623 30.629 23.5623M28.7676 38.4123L29.054 39.9873C29.054 39.9873 29.3227 55.8899 32.429 65.4122C34.0642 70.4251 37.829 77.7872 37.829 77.7872L63.704 75.5372L65.5568 44.7123M28.7676 38.4123C28.7676 38.4123 31.6293 42.5055 34.904 42.7401C42.9131 43.3138 30.629 23.5623 30.629 23.5623M37.6149 39.9873C37.6149 39.9873 39.0895 41.8827 41.204 40.6622C42.938 39.6613 41.8219 37.276 41.8219 37.276M41.8219 37.276C41.8219 37.276 46.4824 40.106 47.2789 41.1123C55.829 51.9123 48.1017 52.9056 48.629 60.4623M60.104 34.3623C62.9755 37.9156 65.5568 44.7123 65.5568 44.7123M60.104 34.3623C59.2386 33.2915 58.157 32.2802 56.954 31.3379M60.104 34.3623L56.954 31.3379M47.729 36.6123C47.729 36.6123 46.2986 34.0353 47.2789 33.0123C48.1909 32.0607 50.654 33.0123 50.654 33.0123M27.929 30.7623C27.929 30.7623 29.8842 31.8026 30.629 30.7623C31.0893 30.1193 31.079 28.7373 31.079 28.7373M36.254 28.7373L39.179 24.2373C39.179 24.2373 41.3195 24.8899 41.654 26.0373C41.965 27.1044 41.5034 27.9165 40.754 28.7373C39.9288 29.6411 39.0138 30.1688 37.829 29.8623C37.0972 29.6731 36.254 28.7373 36.254 28.7373ZM33.554 41.1123L36.254 38.4123C36.254 38.4123 35.3561 36.5187 34.229 36.1623C33.5587 35.9504 33.0473 35.8281 32.429 36.1623C31.5965 36.6123 31.4916 37.4667 31.529 38.4123C31.581 39.7293 33.554 41.1123 33.554 41.1123Z" stroke="#725050" stroke-width="0.3"/>
</g>
</g>
<defs>
<filter id="filter0_d_149_252" x="0" y="0" width="91" height="98" filterUnits="userSpaceOnUse" color-interpolation-filters="sRGB">
<feFlood flood-opacity="0" result="BackgroundImageFix"/>
<feColorMatrix in="SourceAlpha" type="matrix" values="0 0 0 0 0 0 0 0 0 0 0 0 0 0 0 0 0 0 127 0" result="hardAlpha"/>
<feOffset dy="4"/>
<feGaussianBlur stdDeviation="2"/>
<feComposite in2="hardAlpha" operator="out"/>
<feColorMatrix type="matrix" values="0 0 0 0 0 0 0 0 0 0 0 0 0 0 0 0 0 0 0.25 0"/>
<feBlend mode="normal" in2="BackgroundImageFix" result="effect1_dropShadow_149_252"/>
<feBlend mode="normal" in="SourceGraphic" in2="effect1_dropShadow_149_252" result="shape"/>
</filter>
<filter id="filter1_d_149_252" x="20.3238" y="12.4705" width="50.8295" height="75.0749" filterUnits="userSpaceOnUse" color-interpolation-filters="sRGB">
<feFlood flood-opacity="0" result="BackgroundImageFix"/>
<feColorMatrix in="SourceAlpha" type="matrix" values="0 0 0 0 0 0 0 0 0 0 0 0 0 0 0 0 0 0 127 0" result="hardAlpha"/>
<feOffset dy="4.8"/>
<feGaussianBlur stdDeviation="2.4"/>
<feComposite in2="hardAlpha" operator="out"/>
<feColorMatrix type="matrix" values="0 0 0 0 0 0 0 0 0 0 0 0 0 0 0 0 0 0 0.25 0"/>
<feBlend mode="normal" in2="BackgroundImageFix" result="effect1_dropShadow_149_252"/>
<feBlend mode="normal" in="SourceGraphic" in2="effect1_dropShadow_149_252" result="shape"/>
</filter>
</defs>
</svg>
