<svg width="91" height="98" viewBox="0 0 91 98" fill="none" xmlns="http://www.w3.org/2000/svg">
<g filter="url(#filter0_d_149_246)">
<ellipse cx="45.5" cy="45" rx="41.5" ry="45" fill="#D9D9D9"/>
<g filter="url(#filter1_d_149_246)">
<path d="M11.6789 61.0207L11.0039 36.4957C11.0039 36.4957 21.4211 33.1402 28.3289 32.2205C35.0378 31.3273 32.6039 32.4458 45.6539 31.7707C58.7039 31.0955 78.2789 25.4705 79.1789 31.7707C80.1836 38.8037 56.2289 37.099 56.2289 40.3205C56.2289 42.5705 84.4332 34.4451 83.0039 43.0207C81.8789 49.7705 56.0039 44.3707 55.5539 48.8707C55.2421 51.989 79.928 47.7455 78.3602 53.8205C76.9086 59.4455 53.6102 55.6205 53.6102 55.6205C50.0916 55.8455 54.067 57.2152 54.6539 58.0955C55.5539 59.4455 53.0789 61.4705 52.1789 61.4705C51.2789 61.4705 29.2289 60.1207 23.8289 58.9957C18.4289 57.8707 16.6289 61.0207 11.6789 61.0207Z" fill="#ECCCC0"/>
<path d="M66.3539 52.2455C66.3539 52.2455 67.6088 53.0759 67.4789 53.8205C67.361 54.4966 66.1289 54.9455 66.1289 54.9455M68.8289 41.4455C68.8289 41.4455 69.858 42.3241 69.7289 43.0207C69.6157 43.6316 68.6039 44.1455 68.6039 44.1455M64.7789 31.7707C64.7789 31.7707 66.3539 32.4757 66.3539 33.3455C66.3539 34.2154 64.7789 34.9205 64.7789 34.9205M11.0039 36.4957L11.6789 61.0207C16.6289 61.0207 18.4289 57.8707 23.8289 58.9957C29.2289 60.1207 51.2789 61.4705 52.1789 61.4705C53.0789 61.4705 55.5539 59.4455 54.6539 58.0955C54.067 57.2152 50.0916 55.8455 53.6102 55.6205C53.6102 55.6205 76.9086 59.4455 78.3602 53.8205C79.928 47.7455 55.2421 51.989 55.5539 48.8707C56.0039 44.3707 81.8789 49.7705 83.0039 43.0207C84.4332 34.4451 56.2289 42.5705 56.2289 40.3205C56.2289 37.099 80.1836 38.8037 79.1789 31.7707C78.2789 25.4705 58.7039 31.0955 45.6539 31.7707C32.6039 32.4458 35.0378 31.3273 28.3289 32.2205C21.4211 33.1402 11.0039 36.4957 11.0039 36.4957ZM75.5789 29.9706L76.0289 34.0205C76.0289 34.0205 74.617 34.7878 73.7789 34.4705C73.0213 34.1837 72.5519 33.6963 72.4289 32.8955C72.3149 32.1535 72.6315 31.6791 73.1039 31.0955C73.7719 30.2703 75.5789 29.9706 75.5789 29.9706ZM79.8539 40.9955V44.3705C79.8539 44.3705 78.7066 44.6316 78.0539 44.3705C77.3617 44.0937 76.7885 43.7614 76.7039 43.0207C76.6235 42.3168 77.052 41.8898 77.6039 41.4455C78.302 40.8837 79.8539 40.9955 79.8539 40.9955ZM76.0289 52.2455V54.7205C76.0289 54.7205 74.9985 55.0065 74.4539 54.7205C73.8929 54.426 73.499 54.0018 73.5539 53.3705C73.6026 52.81 73.9521 52.5001 74.4539 52.2455C75.0025 51.9673 76.0289 52.2455 76.0289 52.2455Z" stroke="#725050" stroke-width="0.3"/>
</g>
</g>
<defs>
<filter id="filter0_d_149_246" x="0" y="0" width="91" height="98" filterUnits="userSpaceOnUse" color-interpolation-filters="sRGB">
<feFlood flood-opacity="0" result="BackgroundImageFix"/>
<feColorMatrix in="SourceAlpha" type="matrix" values="0 0 0 0 0 0 0 0 0 0 0 0 0 0 0 0 0 0 127 0" result="hardAlpha"/>
<feOffset dy="4"/>
<feGaussianBlur stdDeviation="2"/>
<feComposite in2="hardAlpha" operator="out"/>
<feColorMatrix type="matrix" values="0 0 0 0 0 0 0 0 0 0 0 0 0 0 0 0 0 0 0.25 0"/>
<feBlend mode="normal" in2="BackgroundImageFix" result="effect1_dropShadow_149_246"/>
<feBlend mode="normal" in="SourceGraphic" in2="effect1_dropShadow_149_246" result="shape"/>
</filter>
<filter id="filter1_d_149_246" x="6.05083" y="28.6646" width="81.9555" height="42.5561" filterUnits="userSpaceOnUse" color-interpolation-filters="sRGB">
<feFlood flood-opacity="0" result="BackgroundImageFix"/>
<feColorMatrix in="SourceAlpha" type="matrix" values="0 0 0 0 0 0 0 0 0 0 0 0 0 0 0 0 0 0 127 0" result="hardAlpha"/>
<feOffset dy="4.8"/>
<feGaussianBlur stdDeviation="2.4"/>
<feComposite in2="hardAlpha" operator="out"/>
<feColorMatrix type="matrix" values="0 0 0 0 0 0 0 0 0 0 0 0 0 0 0 0 0 0 0.25 0"/>
<feBlend mode="normal" in2="BackgroundImageFix" result="effect1_dropShadow_149_246"/>
<feBlend mode="normal" in="SourceGraphic" in2="effect1_dropShadow_149_246" result="shape"/>
</filter>
</defs>
</svg>
