<svg width="91" height="98" viewBox="0 0 91 98" fill="none" xmlns="http://www.w3.org/2000/svg">
<g filter="url(#filter0_dd_163_387)">
<g filter="url(#filter1_d_163_387)">
<ellipse cx="45.5" cy="45" rx="41.5" ry="45" fill="#D9D9D9"/>
</g>
</g>
<g filter="url(#filter2_dd_163_387)">
<path d="M34.5557 83.0294L31.9718 81.2822L29.0188 79.535C29.0188 79.535 29.6989 76.5192 30.1261 74.5847C30.3437 73.5995 30.5866 73.0677 30.6798 72.061C30.7497 71.3065 30.6798 70.8778 30.6798 70.1197V67.7902C30.6798 66.6151 30.772 65.9522 30.6798 64.7812C30.5771 63.4769 30.3831 62.7615 30.1261 61.481C29.9041 60.3745 29.681 59.777 29.4802 58.6661C29.1954 57.091 29.0875 56.191 29.0188 54.5894C28.9765 53.6048 29.0188 53.0512 29.0188 52.0657V48.6684V46.8242L29.2495 45.3682C29.2495 45.3682 29.3415 44.4699 29.4802 43.9122C29.6562 43.2039 30.1261 42.1651 30.1261 42.1651L31.9718 40.4179C31.9718 40.4179 32.8091 39.7237 33.4483 39.5443C34.1099 39.3587 34.5277 39.672 35.2016 39.5443C35.9656 39.3996 37.0473 38.7678 37.0473 38.7678C37.0473 38.7678 37.6846 38.3727 37.9701 37.9913C38.4143 37.3978 38.0837 36.7438 38.5238 36.147C39.0279 35.4634 40.3694 35.0793 40.3694 35.0793C40.9084 34.7729 41.1614 34.4678 41.7536 34.3028C42.4155 34.1184 43.507 34.3028 43.507 34.3028C44.0652 34.4725 44.7989 35.0793 44.7989 35.0793L45.6294 34.3028C46.3316 33.5994 46.3622 32.6562 47.2905 32.3615C47.808 32.1972 48.6747 32.3615 48.6747 32.3615C49.3616 32.2435 49.6871 31.9474 50.3358 31.682V29.3525V26.3435V22.9462V19.9372L50.2315 18.6754C50.128 17.4245 50.0868 16.7215 49.9667 15.4722C49.7876 13.6104 48.6001 12.3806 49.413 10.716C49.763 9.99919 49.9994 9.47722 50.7049 9.163C51.3354 8.8822 51.7872 9.01976 52.4583 9.163C53.5667 9.39961 54.1861 9.83858 54.9499 10.716C55.7999 11.6926 55.8581 12.5611 56.2418 13.8221C56.8849 15.9359 56.98 19.4519 56.98 19.4519L57.8106 27.4112L58.4565 37.9913C58.7234 41.1056 59.2048 42.8248 59.2871 45.9506C59.315 47.0115 59.2871 48.6684 59.2871 48.6684C59.2871 48.6684 58.5135 50.5911 59.2871 50.998C59.6739 51.2014 59.9651 51.0526 60.3945 50.998C61.4989 50.8574 61.9393 50.1545 62.9783 49.7361C64.3421 49.187 65.3824 49.5513 66.5773 48.6684C67.0365 48.3291 67.6385 47.6492 67.6385 47.6492L68.6998 46.63C69.6366 45.8089 69.9503 45.127 71.2837 44.7858L74.6981 43.9122C74.6981 43.9122 76.224 43.7869 77.1897 43.9122C78.3786 44.0666 79.3321 43.858 80.1427 44.7858C80.806 45.5451 81.2154 46.3402 80.8809 47.3095C80.6287 48.0406 80.0839 48.1957 79.4967 48.6684C78.4343 49.5235 77.5231 49.4763 76.4514 50.3185C75.6958 50.9123 75.3806 51.3809 74.6981 52.0657C73.7206 53.0463 73.2394 53.6738 72.2065 54.5894C70.9219 55.728 70.0643 56.1793 68.6998 57.2101C67.6517 58.0018 67.0751 58.4618 66.0236 59.2485C64.8423 60.1322 63.9863 60.3851 62.9783 61.481C61.9636 62.5842 61.9072 63.624 60.9481 64.7812C60.0927 65.8134 59.497 66.2876 58.4565 67.1107C57.1773 68.1228 56.3873 68.6022 54.9499 69.3432C53.73 69.972 52.9813 70.1714 51.72 70.7021L50.7049 72.9346L49.413 76.2348L48.6747 79.535L44.7989 81.8646L41.7536 83.0294L37.9701 84L34.5557 83.0294Z" fill="#ECCCC0"/>
<path d="M31.9718 81.2822L29.4802 79.535H29.0188M31.9718 81.2822L34.5557 83.0294L37.9701 84L41.7536 83.0294L44.7989 81.8646L48.6747 79.535L49.413 76.2348L50.7049 72.9346C50.7049 72.9346 51.3236 71.574 51.72 70.7021M31.9718 81.2822L29.0188 79.535M51.72 70.7021C52.9813 70.1714 53.73 69.972 54.9499 69.3432C56.3873 68.6022 57.1773 68.1228 58.4565 67.1107C59.497 66.2876 60.0927 65.8134 60.9481 64.7812C61.9072 63.624 61.9636 62.5842 62.9783 61.481C63.9863 60.3851 64.8423 60.1322 66.0236 59.2485C67.0751 58.4618 67.6517 58.0018 68.6998 57.2101C70.0643 56.1793 70.9219 55.728 72.2065 54.5894C73.2394 53.6738 73.7206 53.0463 74.6981 52.0657C75.3806 51.3809 75.6958 50.9123 76.4514 50.3185C77.5231 49.4763 78.4343 49.5235 79.4967 48.6684C80.0839 48.1957 80.6287 48.0406 80.8809 47.3095C81.2154 46.3402 80.806 45.5451 80.1427 44.7858C79.3321 43.858 78.3786 44.0666 77.1897 43.9122C76.224 43.7869 74.6981 43.9122 74.6981 43.9122C73.3647 44.2534 72.6171 44.4446 71.2837 44.7858C69.9503 45.127 69.6366 45.8089 68.6998 46.63L67.6385 47.6492M51.72 70.7021C50.823 70.7905 50.31 70.7905 49.413 70.7021C48.3504 70.5975 47.6653 70.6732 46.7368 70.1197C45.7369 69.5237 44.7989 67.7902 44.7989 67.7902C43.9776 66.3935 43.6891 65.4416 43.507 63.8105C43.4061 62.907 43.3423 62.3741 43.507 61.481C43.7278 60.2826 44.3402 59.7874 44.7989 58.6661C45.1507 57.8061 46.1688 57.1783 45.6294 56.4336L45.168 56.0453M57.8106 27.4112C58.0628 31.543 58.4565 37.9913 58.4565 37.9913C58.7234 41.1056 59.2048 42.8248 59.2871 45.9506C59.315 47.0115 59.2871 48.6684 59.2871 48.6684C59.2871 48.6684 58.5135 50.5911 59.2871 50.998C59.6739 51.2014 59.9651 51.0526 60.3945 50.998C61.4989 50.8574 61.9393 50.1545 62.9783 49.7361C64.3421 49.187 65.3824 49.5513 66.5773 48.6684C67.0365 48.3291 67.6385 47.6492 67.6385 47.6492M57.8106 27.4112C57.4862 24.3029 56.98 19.4519 56.98 19.4519M57.8106 27.4112C57.4862 27.4112 57.3031 27.442 56.98 27.4112C55.9336 27.3115 55.5247 26.5261 54.4884 26.3435C53.7065 26.2056 53.2511 26.3435 52.4583 26.3435C51.7735 26.3435 51.3896 26.3435 50.7049 26.3435M56.98 19.4519C56.98 19.4519 56.8849 15.9359 56.2418 13.8221C55.8581 12.5611 55.7999 11.6926 54.9499 10.716C54.1861 9.83858 53.5667 9.39961 52.4583 9.163C51.7872 9.01976 51.3354 8.8822 50.7049 9.163C49.9994 9.47722 49.763 9.99919 49.413 10.716C48.6001 12.3806 49.7876 13.6104 49.9667 15.4722C50.0868 16.7215 50.128 17.4245 50.2315 18.6754M56.98 19.4519C56.98 19.4519 55.4672 19.1202 54.4884 18.9666C53.5556 18.8201 53.0312 18.7249 52.0891 18.6754C51.3646 18.6373 50.956 18.6373 50.2315 18.6754M50.3358 31.682C50.3358 30.7723 50.3358 30.2622 50.3358 29.3525C50.3358 28.1774 50.3358 27.5186 50.3358 26.3435C50.3358 25.0168 50.3358 22.9462 50.3358 22.9462V19.9372C50.3358 19.9372 50.2722 19.1681 50.2315 18.6754M50.3358 31.682C49.6871 31.9474 49.3616 32.2435 48.6747 32.3615C48.6747 32.3615 47.808 32.1972 47.2905 32.3615C46.3622 32.6562 46.3316 33.5994 45.6294 34.3028L44.7989 35.0793M50.3358 31.682L50.7049 32.3615C50.7049 32.3615 51.8806 33.4518 52.4583 34.3028C52.6936 34.6494 52.7957 34.8648 53.0119 35.2249M44.7989 35.0793C44.7989 35.0793 44.0652 34.4725 43.507 34.3028C43.507 34.3028 42.4155 34.1184 41.7536 34.3028C41.1614 34.4678 40.9084 34.7729 40.3694 35.0793C40.3694 35.0793 39.0279 35.4634 38.5238 36.147C38.0837 36.7438 38.4143 37.3978 37.9701 37.9913C37.6846 38.3727 37.0473 38.7678 37.0473 38.7678M44.7989 35.0793L45.6294 41.2915V46.63M37.0473 38.7678C37.0473 38.7678 35.9656 39.3996 35.2016 39.5443C34.5277 39.672 34.1099 39.3587 33.4483 39.5443C32.8091 39.7237 31.9718 40.4179 31.9718 40.4179C31.251 41.1002 30.1261 42.1651 30.1261 42.1651C30.1261 42.1651 29.6562 43.2039 29.4802 43.9122C29.3415 44.4699 29.2495 45.3682 29.2495 45.3682M37.0473 38.7678C37.0473 38.7678 38.0132 40.8087 38.5238 42.1651C39.0692 43.6139 39.3724 44.4366 39.7234 45.9506C40.1715 47.8828 40.3157 49.0099 40.3694 50.998C40.4887 51.5138 40.5887 51.9464 40.6836 52.3569M30.6798 70.1197C30.6798 69.21 30.6798 68.6999 30.6798 67.7902C30.6798 66.6151 30.772 65.9522 30.6798 64.7812C30.5771 63.4769 30.3831 62.7615 30.1261 61.481C29.9041 60.3745 29.681 59.777 29.4802 58.6661C29.1954 57.091 29.0875 56.191 29.0188 54.5894C28.9765 53.6048 29.0188 53.0512 29.0188 52.0657C29.0188 50.7389 29.0188 48.6684 29.0188 48.6684V46.8242L29.2495 45.3682M30.6798 70.1197C30.6798 70.8778 30.7497 71.3065 30.6798 72.061C30.5866 73.0677 30.3437 73.5995 30.1261 74.5847C29.6989 76.5192 29.0188 79.535 29.0188 79.535M30.6798 70.1197C31.761 70.3472 32.3489 70.6146 33.4483 70.7021C34.5477 70.7897 34.518 70.7428 35.2016 70.7021C35.8853 70.6615 37.2264 70.3472 38.5238 70.1197C39.8211 69.8923 40.4203 68.9579 41.1999 67.7902M29.2495 45.3682C29.2495 45.3682 29.9658 46.7129 30.6798 47.3095C31.1348 47.6897 31.41 47.9297 31.9718 48.086C32.5292 48.2411 32.8991 48.2709 33.4483 48.086C33.9433 47.9194 34.219 47.726 34.5557 47.3095M34.5557 47.3095C33.943 46.0586 33.5995 45.3573 32.9869 44.1063M34.5557 47.3095C34.8079 48.2571 35.2016 49.7361 35.2016 49.7361C35.2016 49.7361 35.8765 51.5109 36.309 52.6481C36.5973 53.4062 36.5195 53.9906 37.0473 54.5894C37.497 55.0997 37.9471 55.1218 38.5238 55.4629M38.5238 55.4629C39.1616 55.816 39.7316 55.816 40.3694 55.4629C40.7753 55.2382 41.1999 54.5894 41.1999 54.5894M38.5238 55.4629C38.4157 55.2115 38.3738 55.057 38.3392 54.7835C38.2868 54.3684 38.3509 54.1258 38.4315 53.7158C38.4846 53.4455 38.4914 53.2791 38.6161 53.0363C38.7017 52.8695 38.7626 52.7789 38.8929 52.6481C39.1261 52.414 39.3218 52.3552 39.6312 52.2598C39.91 52.1738 40.3694 52.1627 40.3694 52.1627L40.6836 52.3569M41.1999 54.5894C41.1924 54.5567 41.1849 54.5243 41.1775 54.4923M41.1999 54.5894C41.3661 54.8277 41.7536 55.3835 41.7536 55.3835M46.1831 52.0657C46.1831 52.0657 45.8878 49.1669 45.6986 47.3095M46.1831 52.0657L45.6294 46.63M46.1831 52.0657L46.2754 53.1334M45.6294 46.63C45.6294 46.63 45.6716 47.0441 45.6986 47.3095M42.215 48.6684C43.0079 48.441 43.4824 48.4075 44.2452 48.086C44.8362 47.837 45.1589 47.6645 45.6986 47.3095M52.0891 41.8253C51.945 42.375 51.72 43.2328 51.72 43.2328C51.72 43.2328 51.72 45.4216 51.72 46.8242C51.72 47.5444 51.72 47.9482 51.72 48.6684C51.72 49.9951 51.72 50.7389 51.72 52.0657V53.1334L51.5355 54.2496L51.074 54.9776L50.5204 55.4629C50.5204 55.4629 50.2954 55.5813 50.1512 55.6571M52.0891 41.8253C52.2003 41.2673 52.2817 40.957 52.4583 40.4179C52.7838 39.4241 53.3855 39.0252 53.5656 37.9913C53.6891 37.2828 53.8042 36.8221 53.5656 36.147C53.4246 35.7478 53.2941 35.5304 53.0119 35.2249M52.0891 41.8253C52.6657 41.6168 53.0486 41.6313 53.5656 41.2915C54.2817 40.8208 54.4011 40.2194 54.9499 39.5443C55.4477 38.9318 55.7307 38.5916 56.2418 37.9913M52.4583 43.2328C53.4313 43.2328 54.0551 43.6349 54.9499 43.2328C55.5399 42.9676 55.8572 42.7053 56.2418 42.1651M67.6385 47.6492C67.6385 47.6492 68.8478 48.9211 69.6226 49.7361M62.2401 60.8015L60.9481 56.4336L60.3945 53.4246M53.0119 35.2249C53.7686 35.2404 54.1932 35.2404 54.9499 35.2249C56.0681 35.202 56.6954 35.17 57.8106 35.0793M46.2754 53.1334C46.2754 53.1334 46.2192 53.5475 46.1831 53.8128M46.2754 53.1334C46.2754 53.1334 46.6074 52.6557 46.8291 52.3569C46.971 52.1655 47.03 52.0377 47.1982 51.8715C47.3296 51.7418 47.4034 51.659 47.5674 51.5803C47.7668 51.4846 47.9019 51.4886 48.121 51.4833C48.3758 51.477 48.5361 51.467 48.767 51.5803C48.9303 51.6605 48.9995 51.748 49.1361 51.8715C49.2907 52.0113 49.3611 52.1082 49.5053 52.2598C49.6494 52.4114 49.7415 52.4854 49.8744 52.6481C49.9919 52.7918 50.1086 52.8522 50.1512 53.0363C50.1768 53.1468 50.1433 53.2141 50.1512 53.3275C50.1646 53.5203 50.2239 53.6206 50.2435 53.8128C50.2666 54.039 50.2435 54.1678 50.2435 54.3952C50.2435 54.5468 50.256 54.6324 50.2435 54.7835C50.2276 54.976 50.1672 55.0762 50.1512 55.2688C50.1387 55.4199 50.1387 55.506 50.1512 55.6571M40.6836 52.3569C40.7667 52.7159 40.8458 53.0582 40.9306 53.4246M40.9306 53.4246C41.0062 53.7515 41.0862 54.0977 41.1775 54.4923M40.9306 53.4246L41.1775 54.4923M45.168 56.0453C45.168 56.0453 44.7289 56.2596 44.4298 56.3365C44.078 56.427 44.0241 56.5273 43.507 56.4336C43.507 56.4336 42.6168 56.4004 42.215 56.0453C41.9817 55.8392 41.7536 55.3835 41.7536 55.3835M45.168 56.0453C45.168 56.0453 45.406 55.8213 45.5372 55.6571C45.7043 55.4478 45.7791 55.3131 45.9063 55.0747C45.9851 54.9268 46.045 54.8489 46.0909 54.6864C46.1372 54.5219 46.137 54.2496 46.137 54.2496M46.1831 53.8128C46.1455 53.5269 46.0772 53.3593 45.9063 53.1334C45.7626 52.9435 45.6539 52.848 45.4449 52.7451C45.3417 52.6943 45.2762 52.686 45.168 52.6481C44.9518 52.5722 44.8421 52.462 44.6144 52.4539C44.4307 52.4474 44.1529 52.551 44.1529 52.551C44.1529 52.551 43.7232 52.4373 43.507 52.551C43.2907 52.6647 43.1695 52.7285 42.9533 52.8422C42.7371 52.9559 42.6239 53.1631 42.4919 53.4246C42.3849 53.6363 42.392 53.7844 42.3073 54.007C42.1876 54.3218 42.0566 54.4682 41.9382 54.7835C41.8521 55.0125 41.7536 55.3835 41.7536 55.3835M46.1831 53.8128C46.1651 53.9834 46.137 54.2496 46.137 54.2496M46.137 54.2496C46.137 54.2496 46.4704 54.7374 46.6445 55.0747C46.7215 55.2236 46.8291 55.4629 46.8291 55.4629L47.0137 55.6571L47.3828 55.8512C47.4751 55.8512 47.8442 56.0453 47.9365 56.0453H48.5825C48.6747 56.0453 49.1361 55.9483 49.2284 55.9483C49.2284 55.9483 49.6898 55.8835 49.8744 55.8512C50.059 55.8188 50.0431 55.7329 50.1512 55.6571" stroke="#725050" stroke-width="0.225"/>
</g>
<defs>
<filter id="filter0_dd_163_387" x="0" y="0" width="91" height="98" filterUnits="userSpaceOnUse" color-interpolation-filters="sRGB">
<feFlood flood-opacity="0" result="BackgroundImageFix"/>
<feColorMatrix in="SourceAlpha" type="matrix" values="0 0 0 0 0 0 0 0 0 0 0 0 0 0 0 0 0 0 127 0" result="hardAlpha"/>
<feOffset dy="4"/>
<feGaussianBlur stdDeviation="2"/>
<feComposite in2="hardAlpha" operator="out"/>
<feColorMatrix type="matrix" values="0 0 0 0 0 0 0 0 0 0 0 0 0 0 0 0 0 0 0.25 0"/>
<feBlend mode="normal" in2="BackgroundImageFix" result="effect1_dropShadow_163_387"/>
<feColorMatrix in="SourceAlpha" type="matrix" values="0 0 0 0 0 0 0 0 0 0 0 0 0 0 0 0 0 0 127 0" result="hardAlpha"/>
<feOffset dy="4"/>
<feGaussianBlur stdDeviation="2"/>
<feComposite in2="hardAlpha" operator="out"/>
<feColorMatrix type="matrix" values="0 0 0 0 0 0 0 0 0 0 0 0 0 0 0 0 0 0 0.25 0"/>
<feBlend mode="normal" in2="effect1_dropShadow_163_387" result="effect2_dropShadow_163_387"/>
<feBlend mode="normal" in="SourceGraphic" in2="effect2_dropShadow_163_387" result="shape"/>
</filter>
<filter id="filter1_d_163_387" x="0" y="0" width="91" height="98" filterUnits="userSpaceOnUse" color-interpolation-filters="sRGB">
<feFlood flood-opacity="0" result="BackgroundImageFix"/>
<feColorMatrix in="SourceAlpha" type="matrix" values="0 0 0 0 0 0 0 0 0 0 0 0 0 0 0 0 0 0 127 0" result="hardAlpha"/>
<feOffset dy="4"/>
<feGaussianBlur stdDeviation="2"/>
<feComposite in2="hardAlpha" operator="out"/>
<feColorMatrix type="matrix" values="0 0 0 0 0 0 0 0 0 0 0 0 0 0 0 0 0 0 0.25 0"/>
<feBlend mode="normal" in2="BackgroundImageFix" result="effect1_dropShadow_163_387"/>
<feBlend mode="normal" in="SourceGraphic" in2="effect1_dropShadow_163_387" result="shape"/>
</filter>
<filter id="filter2_dd_163_387" x="24.8875" y="8.88757" width="60.2252" height="83.2289" filterUnits="userSpaceOnUse" color-interpolation-filters="sRGB">
<feFlood flood-opacity="0" result="BackgroundImageFix"/>
<feColorMatrix in="SourceAlpha" type="matrix" values="0 0 0 0 0 0 0 0 0 0 0 0 0 0 0 0 0 0 127 0" result="hardAlpha"/>
<feOffset dy="4"/>
<feGaussianBlur stdDeviation="2"/>
<feComposite in2="hardAlpha" operator="out"/>
<feColorMatrix type="matrix" values="0 0 0 0 0 0 0 0 0 0 0 0 0 0 0 0 0 0 0.25 0"/>
<feBlend mode="normal" in2="BackgroundImageFix" result="effect1_dropShadow_163_387"/>
<feColorMatrix in="SourceAlpha" type="matrix" values="0 0 0 0 0 0 0 0 0 0 0 0 0 0 0 0 0 0 127 0" result="hardAlpha"/>
<feOffset dy="4"/>
<feGaussianBlur stdDeviation="2"/>
<feComposite in2="hardAlpha" operator="out"/>
<feColorMatrix type="matrix" values="0 0 0 0 0 0 0 0 0 0 0 0 0 0 0 0 0 0 0.25 0"/>
<feBlend mode="normal" in2="effect1_dropShadow_163_387" result="effect2_dropShadow_163_387"/>
<feBlend mode="normal" in="SourceGraphic" in2="effect2_dropShadow_163_387" result="shape"/>
</filter>
</defs>
</svg>
