<svg width="91" height="98" viewBox="0 0 91 98" fill="none" xmlns="http://www.w3.org/2000/svg">
<g filter="url(#filter0_dd_140_45)">
<g filter="url(#filter1_d_140_45)">
<ellipse cx="45.5" cy="45" rx="41.5" ry="45" fill="#D9D9D9"/>
</g>
<g filter="url(#filter2_dd_140_45)">
<path d="M28.9593 63.2969C28.3805 62.6162 28.1429 62.1664 27.6197 61.4421C26.78 60.9985 26.3521 60.4177 26.1771 59.4843C25.9384 58.2106 27.1465 57.7023 27.6197 56.496C27.9451 55.6668 28.1406 55.2 28.341 54.3321C28.5781 53.3059 28.6502 51.653 28.6502 51.653L28.9593 48.8708L29.3715 46.3977L30.1958 43.9247L31.0202 41.8638L31.7415 39.906L33.081 37.2269L34.1115 35.3721L35.0389 33.1051C35.0389 33.1051 35.5831 32.1555 36.0693 31.6625C36.4312 31.2956 36.6162 31.0163 37.0997 30.8382C37.6284 30.6434 37.9858 30.9255 38.5423 30.8382C39.3101 30.7178 39.7451 30.5399 40.3971 30.1169C41.0655 29.6832 41.2446 29.204 41.8397 28.6743C42.2669 28.294 42.4819 28.0397 42.9732 27.7469C43.5639 27.3949 43.9459 27.2545 44.6219 27.1286C45.334 26.996 45.9905 27.6655 46.4767 27.1286C46.7587 26.8172 46.598 26.474 46.7858 26.0982C47.0161 25.6372 47.2335 25.4195 47.6102 25.0678C48.0343 24.6716 47.8407 24.2434 48.8467 24.2434H51.4228C52.4288 24.2434 52.6801 25.1756 53.5867 25.583C54.1323 25.8282 54.4659 25.897 55.0293 26.0982C55.5899 26.1539 55.9113 26.1539 56.4719 26.0982C57.2974 26.0162 57.7072 25.5018 58.5328 25.583C59.1281 25.6415 59.9754 26.0982 59.9754 26.0982L61.1089 27.1286L62.6545 28.6743L64.4062 30.426C64.4062 30.426 65.6509 31.6362 66.3641 32.4869C67.2537 33.548 68.4249 35.3721 68.4249 35.3721L69.1462 36.7117L68.7341 40.3182C68.7341 40.3182 68.9079 41.7171 68.7341 42.5851C68.5815 43.3472 68.0128 44.4399 68.0128 44.4399L67.1884 46.3977L66.2891 48.8708C66.2891 48.8708 66.1234 49.453 65.9519 49.7982C65.7582 50.188 65.3336 50.7256 65.3336 50.7256L64.7154 51.653L63.2728 52.9925L61.521 54.3321L60.3876 55.414L59.2541 56.496L57.9145 57.7325H56.4719L55.0293 57.0112H53.5867L52.4532 57.7325L51.4228 58.763L50.4954 60.2056C50.4954 60.2056 49.5839 61.8604 49.1558 62.9877C48.8712 63.7373 48.8596 64.2113 48.5376 64.9456C48.2408 65.6221 48.1316 66.071 47.6102 66.5942C46.9237 67.2831 46.2878 67.3934 45.3432 67.6247C44.1315 67.9214 43.3963 67.6247 42.1489 67.6247H38.5423C37.5766 67.6247 37.0281 67.7408 36.0693 67.6247C34.6918 67.4578 33.8779 67.2752 32.6689 66.5942C31.7708 66.0885 31.3736 65.6356 30.608 64.9456C29.9316 64.336 29.5492 63.9905 28.9593 63.2969Z" fill="#ECCCC0"/>
<path d="M26.4863 59.4843C26.4863 59.4843 27.1771 60.6775 27.6197 61.4421M27.6197 61.4421C28.1429 62.1664 28.3805 62.6162 28.9593 63.2969C29.5492 63.9905 29.9316 64.336 30.608 64.9456C31.3736 65.6356 31.7708 66.0885 32.6689 66.5943C33.8779 67.2752 34.6918 67.4578 36.0693 67.6247C37.0281 67.7408 37.5766 67.6247 38.5423 67.6247C39.9508 67.6247 40.7404 67.6247 42.1489 67.6247C43.3963 67.6247 44.1315 67.9214 45.3432 67.6247C46.2878 67.3934 46.9237 67.2831 47.6102 66.5943C48.1316 66.071 48.2408 65.6221 48.5376 64.9456C48.8596 64.2113 48.8712 63.7373 49.1558 62.9877C49.5839 61.8604 50.4954 60.2056 50.4954 60.2056L51.4228 58.763L52.4532 57.7325L53.5867 57.0112M27.6197 61.4421C26.78 60.9985 26.3521 60.4177 26.1771 59.4843C25.9384 58.2106 27.1465 57.7023 27.6197 56.496C27.9451 55.6668 28.1406 55.2 28.341 54.3321C28.5781 53.3059 28.6502 51.653 28.6502 51.653L28.9593 48.8708L29.3715 46.3977L30.1958 43.9247L31.0202 41.8638L31.7415 39.906L33.081 37.2269L34.1115 35.3721L35.0389 33.1051C35.0389 33.1051 35.5831 32.1555 36.0693 31.6625C36.4312 31.2956 36.6162 31.0163 37.0997 30.8382C37.6284 30.6434 37.9858 30.9255 38.5423 30.8382C39.3101 30.7178 39.7451 30.5399 40.3971 30.1169C41.0655 29.6832 41.2446 29.204 41.8397 28.6743C42.2669 28.294 42.4819 28.0397 42.9732 27.7469C43.5639 27.3949 43.9459 27.2545 44.6219 27.1286C45.334 26.996 45.9905 27.6655 46.4767 27.1286C46.7587 26.8172 46.598 26.474 46.7858 26.0982C47.0161 25.6372 47.2335 25.4195 47.6102 25.0678C48.0343 24.6716 47.8407 24.2434 48.8467 24.2434C49.8527 24.2434 50.4167 24.2434 51.4228 24.2434C52.4288 24.2434 52.6801 25.1756 53.5867 25.583C54.1323 25.8282 54.4659 25.897 55.0293 26.0982M53.5867 57.0112H55.0293L56.4719 57.7325H57.9145L59.2541 56.496M53.5867 57.0112L51.4228 58.1447C51.4228 58.1447 50.3574 58.8914 49.568 59.0721C48.8227 59.2427 48.3724 59.1315 47.6102 59.0721C46.8385 59.0119 46.3713 59.0496 45.6523 58.763C44.9785 58.4943 44.1067 57.7325 44.1067 57.7325M59.2541 56.496H56.4719L55.0293 55.8777L54.3669 55.414M59.2541 56.496L60.3875 55.414M59.2541 56.496L59.5632 55.8777C59.5632 55.8777 59.398 55.1799 59.2541 54.7443C59.1462 54.4178 59.1564 54.191 58.9449 53.9199C58.5536 53.4182 58.0431 53.4047 57.3993 53.4047C56.7554 53.4047 56.3945 53.4047 55.7506 53.4047C55.1067 53.4047 55.4316 53.8408 55.2354 54.126C55.0709 54.3651 54.8232 54.7443 54.8232 54.7443L54.3669 55.414M64.7154 51.653C64.152 52.1761 63.2728 52.9925 63.2728 52.9925L61.521 54.3321L60.3875 55.414M64.7154 51.653C64.4337 51.653 64.2758 51.653 63.9941 51.653C63.7124 51.653 63.5545 51.653 63.2728 51.653C63.0313 51.653 62.8871 51.7176 62.6545 51.653C62.2197 51.5322 61.8449 50.8286 61.8449 50.8286M64.7154 51.653C64.9568 51.2908 65.3336 50.7256 65.3336 50.7256C65.3336 50.7256 65.7582 50.188 65.9519 49.7982C66.1234 49.453 66.2891 48.8708 66.2891 48.8708M69.1462 36.7117C68.9853 38.1201 68.7341 40.3182 68.7341 40.3182C68.7341 40.3182 68.9079 41.7171 68.7341 42.5851C68.5815 43.3472 68.0128 44.4399 68.0128 44.4399L67.1884 46.3977L66.2891 48.8708M69.1462 36.7117C68.8646 36.1885 68.4249 35.3721 68.4249 35.3721C68.4249 35.3721 67.2536 33.548 66.3641 32.4869C65.6509 31.6362 64.4062 30.426 64.4062 30.426L62.6545 28.6743L61.1089 27.1286L59.9754 26.0982C59.9754 26.0982 59.1281 25.6415 58.5328 25.583C57.7072 25.5018 57.2974 26.0162 56.4719 26.0982C55.9113 26.1539 55.5899 26.1539 55.0293 26.0982M69.1462 36.7117C68.3817 36.7117 67.9499 36.6432 67.1884 36.7117C66.2059 36.8 64.7154 37.2269 64.7154 37.2269M55.0293 26.0982C55.5927 27.1042 55.788 27.746 56.4719 28.6743C57.1641 29.6138 57.793 29.9357 58.5328 30.8382C59.3395 31.8223 59.5771 32.5362 60.3875 33.5173C61.0221 34.2855 61.6799 34.488 62.1393 35.3721C62.4859 36.0392 62.6545 37.2269 62.6545 37.2269M36.5845 39.906L37.821 41.8638L38.6866 43.3064M40.3971 45.9856L39.0576 43.9247L38.6866 43.3064M40.3971 45.9856L41.2215 47.9434L42.561 50.3134L44.1067 52.9925C44.1067 52.9925 44.8603 54.0602 45.3432 54.7443M40.3971 45.9856C40.3971 45.9856 40.136 46.988 39.7789 47.5312C39.6683 47.6993 39.5932 47.7845 39.4697 47.9434C39.1788 48.3177 39.0011 48.5161 38.6866 48.8708C38.3579 49.2414 38.203 49.4827 37.821 49.7982C37.2242 50.291 36.0693 50.7256 36.0693 50.7256M45.3432 54.7443C46.2285 55.4284 46.4957 56.5944 47.6102 56.496C47.9904 56.4624 48.1935 56.3522 48.5376 56.1869C48.9803 55.9741 49.284 55.8663 49.568 55.4656C49.7452 55.2155 49.7923 55.0387 49.8771 54.7443C50.1466 53.809 49.6887 53.237 49.568 52.2712M45.3432 54.7443C44.8603 55.6296 44.69 56.1886 44.1067 57.0112C43.579 57.7554 43.2965 58.2232 42.561 58.763C42.082 59.1145 41.767 59.2488 41.2215 59.4843C39.9751 60.0223 37.821 60.2056 37.821 60.2056C37.821 60.2056 36.8241 60.7689 35.6571 60.2056C34.4901 59.6422 32.6689 58.763 32.6689 58.763M45.3432 54.7443C45.5176 54.1763 45.6863 53.8629 46.0645 53.4047C46.541 52.8274 46.8996 52.5066 47.6102 52.2712C48.336 52.0308 48.8034 52.2712 49.568 52.2712M49.568 52.2712C49.2879 51.506 49.13 51.0774 48.8467 50.3134C48.3685 49.0239 47.9826 48.3399 47.6102 47.016C47.4198 46.3395 47.4545 45.9186 47.198 45.2643C46.9812 44.7111 46.8191 44.4102 46.4767 43.9247M46.4767 43.9247C45.3949 43.1933 44.8809 42.4224 44.6219 41.1425C44.4862 40.472 44.6219 39.3908 44.6219 39.3908C44.6219 39.3908 44.658 39.0113 44.6219 38.7725C44.5099 38.0324 43.8238 37.8961 43.4884 37.2269C43.2034 36.658 43.1744 36.2848 42.9732 35.6812M46.4767 43.9247C45.7524 44.5686 45.4989 45.161 44.6219 45.5734C43.8792 45.9227 42.561 45.9856 42.561 45.9856M47.6102 37.7421C47.1675 37.7421 46.8415 37.4913 46.4767 37.7421C46.1195 37.9876 46.1599 38.3497 46.0645 38.7725C45.9317 39.3614 46.0645 39.906 46.0645 40.3182C46.0645 40.3182 46.0645 40.8206 46.0645 41.1425C46.0645 41.7059 46.0645 42.5851 46.0645 42.5851C46.0645 42.5851 46.485 43.0453 46.7858 43.3064C47.0897 43.5702 47.3039 43.6636 47.6102 43.9247C47.9999 44.257 48.1327 44.5383 48.5376 44.8521C48.7669 45.0298 49.1558 45.2643 49.1558 45.2643C49.3168 45.2643 49.4105 45.2974 49.568 45.2643C50.3162 45.1068 49.568 44.071 49.568 43.3064M49.568 43.3064C49.1845 43.4285 48.921 43.4285 48.5376 43.3064C48.1003 43.1673 47.8555 42.9728 47.6102 42.5851C47.2228 41.9731 47.6102 41.2535 47.6102 40.7304C47.6102 40.2072 47.6102 39.6999 47.6102 39.3908C47.6102 39.0817 47.4041 38.6695 47.6102 38.4634C47.8163 38.2573 48.1254 38.4634 48.1254 38.4634C48.1254 38.4634 48.5703 38.4092 48.8467 38.4634C49.1474 38.5224 49.4473 38.1689 49.568 38.7725C49.6887 39.3761 49.7564 39.7146 49.8771 40.3182C49.8771 40.3182 50.1403 41.7399 49.8771 42.5851C49.786 42.8777 49.6887 43.0248 49.568 43.3064ZM60.3875 55.414L61.1089 53.4047L61.8449 50.8286M62.6545 37.2269V39.906V43.9247C62.6545 43.9247 62.8454 46.1358 62.6545 47.5312C62.5314 48.4307 62.1393 49.7982 62.1393 49.7982L61.8449 50.8286M62.6545 37.2269C62.6545 37.2269 61.5515 36.7117 60.7997 36.7117C60.048 36.7117 58.9449 37.2269 58.9449 37.2269M62.6545 48.8708C63.3243 48.6867 63.7139 48.618 64.4062 48.5617C65.0079 48.5127 65.9519 48.5617 65.9519 48.5617L66.2891 48.8708M55.7506 34.2386C55.7506 34.2386 54.6735 34.1251 53.9989 34.2386C53.3714 34.3442 53.0368 34.5002 52.4532 34.7538C51.7757 35.0483 50.8045 35.6812 50.8045 35.6812M50.4954 52.2712C50.8576 51.8286 50.9009 51.3717 51.4228 51.1377C51.9001 50.9237 52.2794 50.9365 52.7623 51.1377C53.2452 51.3389 53.516 51.4518 53.9989 51.653C54.4817 51.8542 53.9989 52.0298 53.9989 52.2712C53.9989 52.7139 53.9989 53.4047 53.9989 53.4047V54.7443V55.1564L54.3669 55.414M57.0902 49.7982C57.0902 49.7982 58.4015 50.4799 59.2541 50.3134C59.7313 50.2202 60.3875 49.7982 60.3875 49.7982M52.1441 48.5617C52.8684 48.5617 53.2745 48.5617 53.9989 48.5617M45.3432 51.653L46.7858 50.3134M34.6267 41.8638C34.6267 41.8638 35.6558 43.1077 36.5845 43.3064C37.0567 43.4075 37.821 43.3064 37.821 43.3064H38.6866" stroke="#725050" stroke-width="0.3"/>
<path d="M44.6219 35.5782C45.0244 35.9806 45.1888 36.2785 45.6524 36.6086C46.2249 37.0162 47.3011 37.3299 47.3011 37.3299C47.9449 37.6116 48.3059 37.7695 48.9498 38.0512C49.5936 38.3329 49.6767 38.9221 49.8772 39.5968C50.1063 40.3684 49.8772 40.8529 49.8772 41.6577C49.8772 42.6637 49.8772 43.2278 49.8772 44.2338C49.8772 44.8777 49.8772 45.8825 49.8772 45.8825V47.5312V49.0768C49.8772 49.0768 49.7225 50.4721 49.8772 51.3438C49.9573 51.7956 50.026 52.0474 50.1863 52.4773C50.3749 52.9831 50.4089 53.3464 50.8046 53.7138C51.1609 54.0447 51.4518 54.229 51.938 54.229C52.4243 54.229 53.0715 53.7138 53.0715 53.7138L54.1019 52.9925C54.1019 52.9925 54.7346 52.3492 55.0293 51.859C55.5278 51.0299 55.5378 50.4328 55.7506 49.489C56.0625 48.1061 56.0944 47.2984 56.1628 45.8825C56.2133 44.8375 56.1628 43.2034 56.1628 43.2034C56.1628 41.9157 56.1628 41.1937 56.1628 39.906C56.1628 38.6183 56.1628 37.8963 56.1628 36.6086C56.1628 35.7233 56.5153 35.1537 56.1628 34.3416C55.8114 33.532 54.5141 32.796 54.5141 32.796C54.5141 32.796 53.3168 31.9854 52.5563 31.4564C51.8689 30.9783 51.5137 30.6651 50.8046 30.2199C50.1028 29.7793 49.6719 29.5959 48.9498 29.1895C48.1016 28.7121 46.7859 27.9529 46.7859 27.9529" stroke="#725050" stroke-width="0.3"/>
</g>
</g>
<defs>
<filter id="filter0_dd_140_45" x="0" y="0" width="91" height="98" filterUnits="userSpaceOnUse" color-interpolation-filters="sRGB">
<feFlood flood-opacity="0" result="BackgroundImageFix"/>
<feColorMatrix in="SourceAlpha" type="matrix" values="0 0 0 0 0 0 0 0 0 0 0 0 0 0 0 0 0 0 127 0" result="hardAlpha"/>
<feOffset dy="4"/>
<feGaussianBlur stdDeviation="2"/>
<feComposite in2="hardAlpha" operator="out"/>
<feColorMatrix type="matrix" values="0 0 0 0 0 0 0 0 0 0 0 0 0 0 0 0 0 0 0.25 0"/>
<feBlend mode="normal" in2="BackgroundImageFix" result="effect1_dropShadow_140_45"/>
<feColorMatrix in="SourceAlpha" type="matrix" values="0 0 0 0 0 0 0 0 0 0 0 0 0 0 0 0 0 0 127 0" result="hardAlpha"/>
<feOffset dy="4"/>
<feGaussianBlur stdDeviation="2"/>
<feComposite in2="hardAlpha" operator="out"/>
<feColorMatrix type="matrix" values="0 0 0 0 0 0 0 0 0 0 0 0 0 0 0 0 0 0 0.25 0"/>
<feBlend mode="normal" in2="effect1_dropShadow_140_45" result="effect2_dropShadow_140_45"/>
<feBlend mode="normal" in="SourceGraphic" in2="effect2_dropShadow_140_45" result="shape"/>
</filter>
<filter id="filter1_d_140_45" x="0" y="0" width="91" height="98" filterUnits="userSpaceOnUse" color-interpolation-filters="sRGB">
<feFlood flood-opacity="0" result="BackgroundImageFix"/>
<feColorMatrix in="SourceAlpha" type="matrix" values="0 0 0 0 0 0 0 0 0 0 0 0 0 0 0 0 0 0 127 0" result="hardAlpha"/>
<feOffset dy="4"/>
<feGaussianBlur stdDeviation="2"/>
<feComposite in2="hardAlpha" operator="out"/>
<feColorMatrix type="matrix" values="0 0 0 0 0 0 0 0 0 0 0 0 0 0 0 0 0 0 0.25 0"/>
<feBlend mode="normal" in2="BackgroundImageFix" result="effect1_dropShadow_140_45"/>
<feBlend mode="normal" in="SourceGraphic" in2="effect1_dropShadow_140_45" result="shape"/>
</filter>
<filter id="filter2_dd_140_45" x="21.9962" y="24.0934" width="51.3044" height="51.8132" filterUnits="userSpaceOnUse" color-interpolation-filters="sRGB">
<feFlood flood-opacity="0" result="BackgroundImageFix"/>
<feColorMatrix in="SourceAlpha" type="matrix" values="0 0 0 0 0 0 0 0 0 0 0 0 0 0 0 0 0 0 127 0" result="hardAlpha"/>
<feOffset dy="4"/>
<feGaussianBlur stdDeviation="2"/>
<feComposite in2="hardAlpha" operator="out"/>
<feColorMatrix type="matrix" values="0 0 0 0 0 0 0 0 0 0 0 0 0 0 0 0 0 0 0.25 0"/>
<feBlend mode="normal" in2="BackgroundImageFix" result="effect1_dropShadow_140_45"/>
<feColorMatrix in="SourceAlpha" type="matrix" values="0 0 0 0 0 0 0 0 0 0 0 0 0 0 0 0 0 0 127 0" result="hardAlpha"/>
<feOffset dy="4"/>
<feGaussianBlur stdDeviation="2"/>
<feComposite in2="hardAlpha" operator="out"/>
<feColorMatrix type="matrix" values="0 0 0 0 0 0 0 0 0 0 0 0 0 0 0 0 0 0 0.25 0"/>
<feBlend mode="normal" in2="effect1_dropShadow_140_45" result="effect2_dropShadow_140_45"/>
<feBlend mode="normal" in="SourceGraphic" in2="effect2_dropShadow_140_45" result="shape"/>
</filter>
</defs>
</svg>
