<svg width="91" height="98" viewBox="0 0 91 98" fill="none" xmlns="http://www.w3.org/2000/svg">
<g filter="url(#filter0_d_156_327)">
<ellipse cx="45.5" cy="45" rx="41.5" ry="45" fill="#D9D9D9"/>
<g filter="url(#filter1_d_156_327)">
<path d="M68.5796 76H43.7329L35.9526 51.3028C35.9526 51.3028 33.9925 48.914 33.1919 48.1865C28.9304 44.3146 25.9741 34.4815 31.686 35.0384C39.4663 35.797 42.0972 46.8763 47.2465 45.1524C49.4607 44.411 54.5249 41.7068 54.7758 38.5783L50.5092 33.2684L45.4897 29.9814L40.3012 28.7171C39.0252 30.2918 38.2114 31.7514 38.2114 31.7514C38.2114 31.7514 32.4389 35.1876 30.9331 34.5327C29.9169 34.0907 29.6638 33.6695 29.655 32.9761C29.4458 34.1734 28.8113 35.8767 26.9093 36.3026C24.3854 36.8678 23.101 35.5979 23.0451 33.5348C22.4976 35.4204 20.2002 35.7718 18.3842 36.3026C16.2171 36.9361 15.4728 32.0042 16.3763 29.7285C17.9827 25.6829 23.5521 17.7106 25.4116 17.0861C26.9175 16.5804 28.4233 17.0861 28.4233 17.0861C28.4233 17.0861 29.8399 12.6253 32.188 12.282L41.2231 10.0063C43.4578 9.86063 46.4937 12.282 46.4937 12.282C46.4937 12.282 66.5718 19.3617 68.5796 27.2001C70.5874 35.0384 64.6894 47.2383 65.8189 60.0705C66.3726 66.3608 68.5796 76 68.5796 76Z" fill="#ECCCC0"/>
<path d="M46.4937 12.282C46.4937 12.282 66.5718 19.3617 68.5796 27.2001C70.5874 35.0384 64.6894 47.2383 65.8189 60.0705C66.3726 66.3608 68.5796 76 68.5796 76H43.7329L35.9526 51.3028M46.4937 12.282C46.4937 12.282 43.4578 9.86063 41.2231 10.0063L32.188 12.282C29.8399 12.6253 28.4233 17.0861 28.4233 17.0861M46.4937 12.282C46.4937 12.282 35.9526 15.3161 33.1919 21.1317C30.4312 26.9472 31.064 27.7058 31.064 27.7058M28.4233 17.0861C28.4233 17.0861 26.9175 16.5804 25.4116 17.0861C23.5521 17.7106 17.9827 25.6829 16.3763 29.7285C15.4728 32.0042 16.2171 36.9361 18.3842 36.3026C20.5512 35.6691 23.4038 35.2912 23.1503 32.257M28.4233 17.0861L24.908 27.2001M42.98 56.2777L35.9526 51.3028M35.9526 51.3028C35.9526 51.3028 33.9925 48.914 33.1919 48.1865C28.9304 44.3146 25.9741 34.4815 31.686 35.0384C39.4663 35.797 42.0972 46.8763 47.2465 45.1524C49.4607 44.411 54.5249 41.7068 54.7758 38.5783M23.1503 32.257L27.1684 32.7627C27.1684 32.7627 27.4845 31.0199 27.1684 29.9814C26.7599 28.6393 24.908 27.2001 24.908 27.2001M23.1503 32.257L24.908 27.2001M23.1503 32.257C22.6508 35.0384 23.8975 36.977 26.9093 36.3026C29.921 35.6283 29.7546 31.7514 29.7546 31.7514M29.7546 31.7514L33.6938 32.257C33.6938 32.257 33.983 30.821 33.6938 29.9814C33.25 28.6928 31.064 27.7058 31.064 27.7058M29.7546 31.7514L31.064 27.7058M29.7546 31.7514C29.5971 33.2684 29.4272 33.8778 30.9331 34.5327C32.4389 35.1876 38.2114 31.7514 38.2114 31.7514C38.2114 31.7514 39.0252 30.2918 40.3012 28.7171M38.7133 48.1865C38.7133 48.1865 37.7347 45.8096 38.7133 45.1524C39.3657 44.7142 40.7211 45.1524 40.7211 45.1524M43.7329 25.5876C44.3014 25.261 44.8909 25.025 45.4897 24.9244C50.0073 24.1659 56.1721 30.9804 55.5288 35.0384C55.328 36.3051 56.1073 37.9863 54.7758 38.5783M43.7329 25.5876L49.2543 28.7171L50.5092 33.2684M43.7329 25.5876C42.4318 26.3351 41.2411 27.5573 40.3012 28.7171M50.5092 33.2684L54.7758 38.5783M50.5092 33.2684L45.4897 29.9814L40.3012 28.7171M29.4272 38.5783L32.9409 36.0498C32.9409 36.0498 34.6548 37.3737 34.6977 38.5783C34.7324 39.5502 34.4727 40.2794 33.6938 40.8539C32.899 41.4402 32.1011 41.4689 31.184 41.1068C30.0701 40.667 29.4272 38.5783 29.4272 38.5783ZM16.6274 32.7627H20.643C20.643 32.7627 21.4921 31.578 21.3959 30.7399C21.2763 29.6972 20.6573 28.9397 19.6392 28.7171C18.5682 28.483 17.7868 29.0982 17.1293 29.9814C16.4719 30.8646 16.6274 32.7627 16.6274 32.7627Z" stroke="#725050" stroke-width="0.3"/>
</g>
</g>
<defs>
<filter id="filter0_d_156_327" x="0" y="0" width="91" height="98" filterUnits="userSpaceOnUse" color-interpolation-filters="sRGB">
<feFlood flood-opacity="0" result="BackgroundImageFix"/>
<feColorMatrix in="SourceAlpha" type="matrix" values="0 0 0 0 0 0 0 0 0 0 0 0 0 0 0 0 0 0 127 0" result="hardAlpha"/>
<feOffset dy="4"/>
<feGaussianBlur stdDeviation="2"/>
<feComposite in2="hardAlpha" operator="out"/>
<feColorMatrix type="matrix" values="0 0 0 0 0 0 0 0 0 0 0 0 0 0 0 0 0 0 0.25 0"/>
<feBlend mode="normal" in2="BackgroundImageFix" result="effect1_dropShadow_156_327"/>
<feBlend mode="normal" in="SourceGraphic" in2="effect1_dropShadow_156_327" result="shape"/>
</filter>
<filter id="filter1_d_156_327" x="11.5313" y="9.8501" width="61.9374" height="74.9372" filterUnits="userSpaceOnUse" color-interpolation-filters="sRGB">
<feFlood flood-opacity="0" result="BackgroundImageFix"/>
<feColorMatrix in="SourceAlpha" type="matrix" values="0 0 0 0 0 0 0 0 0 0 0 0 0 0 0 0 0 0 127 0" result="hardAlpha"/>
<feOffset dy="4.3187"/>
<feGaussianBlur stdDeviation="2.15935"/>
<feComposite in2="hardAlpha" operator="out"/>
<feColorMatrix type="matrix" values="0 0 0 0 0 0 0 0 0 0 0 0 0 0 0 0 0 0 0.25 0"/>
<feBlend mode="normal" in2="BackgroundImageFix" result="effect1_dropShadow_156_327"/>
<feBlend mode="normal" in="SourceGraphic" in2="effect1_dropShadow_156_327" result="shape"/>
</filter>
</defs>
</svg>
