<svg width="83" height="90" viewBox="0 0 83 90" fill="none" xmlns="http://www.w3.org/2000/svg">
<ellipse cx="41.5" cy="45" rx="41.5" ry="45" fill="#D9D9D9"/>
<g filter="url(#filter0_d_149_251)">
<path d="M53.533 72C47.5941 72 47 42.7944 46 42.7944C45 42.7944 48.5615 57.381 42 56.5C36.9409 55.8207 36.5 43.5 35.5 43.5C34.5 43.5 38.779 55 33.5 55C26.9012 55 25.5 42.7944 25 43.5C24.5 44.2056 27.5778 51.8504 22.7387 52.3032C20.0525 52.5546 17.2397 47.7752 17.2397 47.7752C17.2397 47.7752 12.3279 32.6244 14.6002 28.5312C18.1195 22.1921 30.4373 15.1737 38.7958 16.0793C43.1544 16.5515 55.5254 21.3081 55.9526 30.3425C56.0196 31.7587 56.6125 33.7385 56.6125 33.7385C56.6125 33.7385 74.5002 40.2522 73.9893 45.5113C73.3293 52.3032 58.3908 49.3601 57.2724 49.1337C57.2724 49.1337 60.0617 72 53.533 72Z" fill="#ECCCC0"/>
<path d="M57.2724 49.1337C57.2724 49.1337 60.0617 72 53.533 72C47.5941 72 47 42.7944 46 42.7944C45 42.7944 48.5615 57.381 42 56.5C36.9409 55.8207 36.5 43.5 35.5 43.5C34.5 43.5 38.779 55 33.5 55C26.9012 55 25.5 42.7944 25 43.5C24.5 44.2056 27.5778 51.8504 22.7387 52.3032C20.0525 52.5546 17.2397 47.7752 17.2397 47.7752C17.2397 47.7752 12.3279 32.6244 14.6002 28.5312C18.1195 22.1921 30.4373 15.1737 38.7958 16.0793C43.1544 16.5515 55.5254 21.3081 55.9526 30.3425C56.0196 31.7587 56.6125 33.7385 56.6125 33.7385M57.2724 49.1337C58.3908 49.3601 73.3293 52.3032 73.9893 45.5113C74.5002 40.2522 56.6125 33.7385 56.6125 33.7385M57.2724 49.1337L56.6125 33.7385M50.8935 54.3408C50.8935 54.3408 52.5591 55.7423 53.533 55.2464C54.2594 54.8766 54.6328 53.4352 54.6328 53.4352M60.5717 40.3041C60.5717 40.3041 59.0973 41.6981 59.252 42.7944C59.3753 43.6694 60.5717 44.6056 60.5717 44.6056M51.5534 68.3776H55.5126C55.5126 68.3776 56.0241 66.582 55.5126 65.6608C55.0517 64.8305 54.4605 64.3589 53.533 64.3024C52.6885 64.251 52.0912 64.5358 51.5534 65.208C50.7889 66.1635 51.5534 68.3776 51.5534 68.3776Z" stroke="#725050" stroke-width="0.3"/>
</g>
<defs>
<filter id="filter0_d_149_251" x="9.8501" y="15.8501" width="68.2998" height="64.2998" filterUnits="userSpaceOnUse" color-interpolation-filters="sRGB">
<feFlood flood-opacity="0" result="BackgroundImageFix"/>
<feColorMatrix in="SourceAlpha" type="matrix" values="0 0 0 0 0 0 0 0 0 0 0 0 0 0 0 0 0 0 127 0" result="hardAlpha"/>
<feOffset dy="4"/>
<feGaussianBlur stdDeviation="2"/>
<feComposite in2="hardAlpha" operator="out"/>
<feColorMatrix type="matrix" values="0 0 0 0 0 0 0 0 0 0 0 0 0 0 0 0 0 0 0.25 0"/>
<feBlend mode="normal" in2="BackgroundImageFix" result="effect1_dropShadow_149_251"/>
<feBlend mode="normal" in="SourceGraphic" in2="effect1_dropShadow_149_251" result="shape"/>
</filter>
</defs>
</svg>
