<svg width="91" height="98" viewBox="0 0 91 98" fill="none" xmlns="http://www.w3.org/2000/svg">
<g filter="url(#filter0_dd_144_96)">
<g filter="url(#filter1_d_144_96)">
<ellipse cx="45.5" cy="45" rx="41.5" ry="45" fill="#D9D9D9"/>
</g>
<g filter="url(#filter2_d_144_96)">
<g filter="url(#filter3_dd_144_96)">
<path fill-rule="evenodd" clip-rule="evenodd" d="M29.9674 72.6316C29.7083 72.4733 29.436 72.3858 29.1785 72.3031C28.7118 72.1531 28.2938 72.0188 28.0924 71.5066C27.9574 71.1634 27.9972 70.8993 28.0441 70.5877C28.0624 70.4662 28.0818 70.3375 28.0924 70.1941C28.1371 69.5858 28.2622 69.1527 28.3967 68.6871C28.4855 68.3797 28.5784 68.0582 28.6549 67.6629C28.8733 66.5342 29.1236 64.7566 29.1236 64.7566L29.4986 60.6316L29.9674 56.6941C29.9674 56.6941 30.3879 54.3703 30.7174 52.1004L31.5611 46.2879C31.8906 44.0179 32.2174 41.4129 32.2174 41.4129L32.9674 37.7566C32.9674 37.7566 33.3653 35.4234 33.4361 33.9129C33.465 33.2962 33.4564 32.8545 33.4468 32.3605C33.4416 32.0929 33.4361 31.8099 33.4361 31.4754C33.2124 30.4272 33.312 29.7051 33.8111 28.7566C34.1376 28.1363 34.5468 27.8381 35.0216 27.4923C35.2309 27.3398 35.4529 27.1781 35.6861 26.9754C35.8362 26.8449 35.9666 26.7259 36.0891 26.6141C36.4313 26.3016 36.7114 26.0459 37.1861 25.7566C37.5004 25.5651 37.7714 25.4688 38.0442 25.3719C38.3058 25.2789 38.5691 25.1853 38.8736 25.0066C39.4188 24.6867 39.7314 24.4181 40.1466 24.0614C40.2461 23.9759 40.3515 23.8854 40.4674 23.7879C41.2401 23.1376 42.3424 22.0066 42.3424 22.0066L44.5924 19.6629C44.5924 19.6629 45.7605 18.0943 46.6549 17.2254C46.7914 17.0927 46.9138 16.9688 47.0293 16.8519C47.4657 16.4104 47.804 16.068 48.4361 15.7254C48.5902 15.6419 48.7344 15.5537 48.8734 15.4688C49.4049 15.1441 49.8602 14.866 50.4986 15.0691L52.5611 15.7254C52.5611 15.7254 53.4817 16.0518 54.0611 16.2879C54.7508 16.5688 55.1746 16.7717 55.7679 17.0555C55.8795 17.1089 55.9971 17.1652 56.1236 17.2254C56.3786 17.3467 56.6043 17.4477 56.8163 17.5425C57.342 17.7775 57.7829 17.9747 58.3736 18.3504C59.7514 19.2266 60.3995 19.9276 61.4674 21.1629C61.4954 21.1953 61.5231 21.2273 61.5504 21.2588C61.573 21.2849 61.5953 21.3107 61.6175 21.3362C62.3533 22.1855 62.8225 22.727 63.3424 23.7879C63.9133 24.953 64.1291 25.6866 64.2799 26.9754V28.1004C64.2799 28.1004 63.7867 28.8048 63.3424 28.7566C63.0914 28.7294 62.9737 28.5692 62.842 28.3901C62.7707 28.2931 62.6953 28.1904 62.5924 28.1004C62.5924 28.1004 62.1353 27.7004 61.8424 27.4441C61.6959 27.7004 61.5611 28.0066 61.4674 28.1004C61.3736 28.1941 60.8682 28.1004 60.8682 28.1004C60.8682 28.1004 61.8424 29.2592 61.8424 29.8816V31.4754L60.7174 32.6004C60.7174 32.6004 59.8482 32.7149 59.3111 32.6004C58.476 32.4223 57.4361 31.4754 57.4361 31.4754L55.5611 29.8816L54.0611 28.1004L52.8424 27.4441H50.4986H49.4674L49.0924 28.1004C49.0924 28.1004 48.9078 28.9711 48.7174 29.5066C48.4869 30.1547 48.3085 30.5031 47.9674 31.1004C47.7961 31.4003 47.6931 31.565 47.4986 31.8504C47.5968 31.9377 47.6658 31.9802 47.7055 32.0047C47.7323 32.0213 47.7457 32.0296 47.7457 32.0379C47.7457 32.0462 47.7323 32.0544 47.7055 32.071C47.6658 32.0955 47.5968 32.1381 47.4986 32.2254L46.6549 32.9754C46.4735 33.1366 46.6914 33.3973 46.9548 33.7125C47.17 33.9699 47.4155 34.2636 47.4986 34.5691C47.7196 35.3817 47.7196 35.9128 47.4986 36.7254L49.4674 38.2254L51.7174 40.1004L52.8424 41.4129L54.9049 42.9597L55.2799 44.0379L56.1236 45.7254C56.1236 45.7254 56.6388 46.5552 56.8736 47.1316C57.087 47.6554 57.1464 48.0813 57.2081 48.5242C57.2569 48.8742 57.3071 49.2349 57.4361 49.6629C57.7303 50.6394 58.3736 52.1004 58.3736 52.1004C58.3736 52.1004 57.0193 53.7717 56.1236 54.8191C55.9531 55.0185 55.7996 55.1997 55.6551 55.3703L55.6546 55.3709C55.1278 55.9926 54.7221 56.4714 54.0611 57.1629C53.6159 57.6285 53.2456 57.9659 52.8737 58.3047C52.513 58.6333 52.1508 58.9632 51.7174 59.4129C51.3529 59.7909 51.0922 60.1458 50.8432 60.4846C50.4651 60.9993 50.1139 61.4773 49.4674 61.9441C48.7689 62.4485 48.3072 62.64 47.5164 62.968L47.4986 62.9754C47.2452 63.0805 47.0081 63.1166 46.7825 63.1509C46.4371 63.2034 46.119 63.2518 45.8111 63.5379C45.5091 63.8186 45.4082 64.0903 45.2841 64.4245C45.2455 64.5285 45.2047 64.6385 45.1549 64.7566C44.8779 65.4135 44.8025 65.8986 44.7113 66.4858C44.6775 66.7033 44.6415 66.9347 44.5924 67.1941L44.5657 67.3347C44.3955 68.2309 44.2916 68.7777 44.2174 69.7254C44.1826 70.1693 44.2614 70.5604 44.3362 70.9314C44.452 71.5058 44.5581 72.032 44.2174 72.6316C43.9931 73.0262 43.7796 73.2133 43.4582 73.4949C43.4308 73.5189 43.4026 73.5436 43.3736 73.5691C43.011 73.8884 42.7128 74.0478 42.3629 74.235C42.2124 74.3155 42.0524 74.401 41.8736 74.5066C41.6307 74.6501 41.418 74.7838 41.2182 74.9094C40.6526 75.265 40.1904 75.5555 39.4361 75.8191C39.3074 75.8641 39.1866 75.9082 39.071 75.9504C38.4253 76.1862 37.9437 76.362 37.1861 76.2879C36.7561 76.2458 36.4752 76.1312 36.1445 75.9963C36.0055 75.9395 35.8576 75.8792 35.6861 75.8191C35.567 75.7774 35.456 75.7392 35.3505 75.7029C34.7969 75.5124 34.3986 75.3753 33.8111 75.0691C33.397 74.8533 33.1202 74.6584 32.8158 74.444C32.637 74.3181 32.4487 74.1854 32.2174 74.0379C31.3437 73.4807 30.8515 73.172 29.9674 72.6316Z" fill="#ECCCC0"/>
<path d="M58.3736 52.1004L60.3424 50.1316L62.9674 47.7879L65.1236 45.3504L66.5299 43.2879C66.5299 43.2879 67.3085 41.917 67.4674 40.9441C67.5853 40.2215 67.3494 39.7918 67.4674 39.0691C67.6262 38.0962 68.4049 36.7254 68.4049 36.7254L69.5299 33.4441C69.5299 33.4441 69.903 32.1476 69.5299 31.4754C69.2523 30.9753 68.9334 30.7563 68.4049 30.5379C67.7281 30.2582 67.223 30.3019 66.5299 30.5379C66.2392 30.6368 66.1013 30.7521 65.8267 30.8894C65.7352 30.9352 65.6842 30.9615 65.5923 31.0066C65.1953 31.2017 64.9468 31.2587 64.5611 31.4754C64.2158 31.6693 63.7173 32.0379 63.7173 32.0379L62.5924 33.0691L61.6548 34.1941L61.5428 34.241C60.9519 34.6799 60.6619 35.031 60.3424 35.6941C60.1119 36.1725 60.0842 36.5591 60.0533 36.9915C60.0365 37.2258 60.0188 37.4736 59.9674 37.7566C59.776 37.9142 59.6084 38.048 59.4506 38.1734L59.3837 38.2266L59.3835 38.2267L59.3834 38.2268C59.0557 38.4871 58.7627 38.7198 58.3736 39.0691C58.0707 39.3411 57.8507 39.5663 57.6285 39.7939C57.4216 40.0057 57.2127 40.2197 56.9329 40.4754C56.727 40.6634 56.5681 40.8639 56.4177 41.0536C56.1109 41.4405 55.8399 41.7824 55.2799 41.8816C55.1591 41.903 55.0482 41.8746 54.9432 41.8477C54.7976 41.8104 54.6633 41.776 54.5299 41.8816C54.1803 42.1583 54.9049 42.9597 54.9049 42.9597L55.2799 44.0379L56.1236 45.7254C56.1236 45.7254 56.6388 46.5552 56.8736 47.1316C57.087 47.6554 57.1464 48.0813 57.2081 48.5242C57.2569 48.8742 57.3071 49.2349 57.4361 49.6629C57.7303 50.6394 58.3736 52.1004 58.3736 52.1004Z" fill="#ECCCC0"/>
<path d="M44.5924 67.1941C44.5833 67.242 44.5744 67.2888 44.5657 67.3347M44.5924 67.1941C44.6415 66.9347 44.6775 66.7033 44.7113 66.4858C44.8025 65.8986 44.8779 65.4135 45.1549 64.7566C45.2047 64.6385 45.2455 64.5285 45.2841 64.4245C45.4082 64.0903 45.5091 63.8186 45.8111 63.5379C46.119 63.2518 46.4371 63.2034 46.7825 63.1509C47.0081 63.1166 47.2452 63.0805 47.4986 62.9754M44.5924 67.1941L44.5657 67.3347M47.4986 62.9754L47.5164 62.968M47.4986 62.9754C47.5046 62.9729 47.5105 62.9704 47.5164 62.968M58.3736 52.1004C58.3736 52.1004 57.0193 53.7717 56.1236 54.8191C55.9531 55.0185 55.7996 55.1997 55.6551 55.3703L55.6546 55.3709C55.1278 55.9926 54.7221 56.4714 54.0611 57.1629C53.6159 57.6285 53.2456 57.9659 52.8737 58.3047C52.513 58.6333 52.1508 58.9632 51.7174 59.4129C51.3529 59.7909 51.0922 60.1458 50.8432 60.4846C50.4651 60.9993 50.1139 61.4773 49.4674 61.9441C48.7689 62.4485 48.3072 62.64 47.5164 62.968M58.3736 52.1004L60.3424 50.1316L62.9674 47.7879L65.1236 45.3504L66.5299 43.2879C66.5299 43.2879 67.3085 41.917 67.4674 40.9441C67.5853 40.2215 67.3494 39.7918 67.4674 39.0691C67.6262 38.0962 68.4049 36.7254 68.4049 36.7254L69.5299 33.4441C69.5299 33.4441 69.903 32.1476 69.5299 31.4754C69.2523 30.9753 68.9334 30.7563 68.4049 30.5379C67.7281 30.2582 67.223 30.3019 66.5299 30.5379C66.2392 30.6368 66.1013 30.7521 65.8267 30.8894C65.7352 30.9352 65.6842 30.9615 65.5923 31.0066C65.1953 31.2017 64.9468 31.2587 64.5611 31.4754C64.2158 31.6693 63.7173 32.0379 63.7173 32.0379L62.5924 33.0691L61.6548 34.1941L61.5428 34.241C60.9519 34.6799 60.6619 35.031 60.3424 35.6941C60.1119 36.1725 60.0842 36.5591 60.0533 36.9915C60.0365 37.2258 60.0188 37.4736 59.9674 37.7566M58.3736 52.1004C58.3736 52.1004 57.7303 50.6394 57.4361 49.6629C57.3071 49.2349 57.2569 48.8742 57.2081 48.5242C57.1464 48.0813 57.087 47.6554 56.8736 47.1316C56.6388 46.5552 56.1236 45.7254 56.1236 45.7254L55.2799 44.0379M64.2799 26.9754C64.1291 25.6866 63.9133 24.953 63.3424 23.7879C62.8225 22.727 62.3533 22.1855 61.6175 21.3362C61.5953 21.3107 61.573 21.2849 61.5504 21.2588C61.5231 21.2273 61.4954 21.1953 61.4674 21.1629C60.3995 19.9276 59.7514 19.2266 58.3736 18.3504C57.7829 17.9747 57.342 17.7775 56.8163 17.5425C56.6043 17.4477 56.3786 17.3467 56.1236 17.2254C55.9971 17.1652 55.8795 17.1089 55.7679 17.0555C55.1746 16.7717 54.7508 16.5688 54.0611 16.2879C53.4817 16.0518 52.5611 15.7254 52.5611 15.7254M64.2799 26.9754C64.2799 27.4147 64.2799 28.1004 64.2799 28.1004M64.2799 26.9754V28.1004M52.5611 15.7254C51.7557 15.4691 51.3041 15.3254 50.4986 15.0691M52.5611 15.7254L50.4986 15.0691M50.4986 15.0691C49.8602 14.866 49.4049 15.1441 48.8734 15.4688C48.7344 15.5537 48.5902 15.6419 48.4361 15.7254C47.804 16.068 47.4657 16.4104 47.0293 16.8519C46.9138 16.9688 46.7914 17.0927 46.6549 17.2254C45.7605 18.0943 44.5924 19.6629 44.5924 19.6629L42.3424 22.0066C42.3424 22.0066 41.2401 23.1376 40.4674 23.7879C40.3515 23.8854 40.2461 23.9759 40.1466 24.0614C39.7314 24.4181 39.4188 24.6867 38.8736 25.0066C38.5691 25.1853 38.3058 25.2789 38.0442 25.3719C37.7714 25.4688 37.5004 25.5651 37.1861 25.7566C36.7114 26.0459 36.4313 26.3016 36.0891 26.6141C35.9666 26.7259 35.8362 26.8449 35.6861 26.9754C35.4529 27.1781 35.2309 27.3398 35.0216 27.4923C34.5468 27.8381 34.1376 28.1363 33.8111 28.7566C33.312 29.7051 33.2124 30.4272 33.4361 31.4754M33.4361 31.4754C34.3148 30.5967 34.7691 30.064 35.6861 29.2254C36.7031 28.2953 37.3766 27.8931 38.4049 26.9754C39.4673 26.0271 39.9686 25.3937 41.0299 24.4441C41.9207 23.647 43.3736 22.4754 43.3736 22.4754L44.5924 20.6941C44.5924 20.6941 45.6443 19.7467 46.2799 19.1004C46.7703 18.6016 46.9094 18.1647 47.4986 17.7879C48.1722 17.3571 48.6682 17.252 49.4674 17.2254C50.3726 17.1952 50.8377 17.5723 51.7174 17.7879C52.6316 18.0119 53.1836 18.0099 54.0611 18.3504C54.6717 18.5873 55.0066 18.7518 55.5611 19.1004C56.3747 19.6118 57.4361 20.6941 57.4361 20.6941L58.8424 22.0066C58.8424 22.0066 59.6745 22.7905 59.9674 23.4129C60.2603 24.0353 60.4245 24.3842 60.7174 25.0066C60.7174 25.0066 61.2329 25.7773 61.4674 26.3191C61.6513 26.7441 61.6959 27.0048 61.8424 27.4441M33.4361 31.4754C33.4361 31.8099 33.4416 32.0929 33.4468 32.3605C33.4564 32.8545 33.465 33.2962 33.4361 33.9129C33.3653 35.4234 32.9674 37.7566 32.9674 37.7566L32.2174 41.4129M32.2174 41.4129C32.2174 41.4129 31.8906 44.0179 31.5611 46.2879M32.2174 41.4129C32.2174 41.4129 33.0054 40.4148 33.4361 39.7254C34.3481 38.2657 34.5585 37.2842 35.2174 35.6941C35.7144 34.4945 35.6742 33.6519 36.4361 32.6004C37.1677 31.5906 37.9394 31.3638 38.8736 30.5379C39.9216 29.6112 41.4986 28.1004 41.4986 28.1004C41.4986 28.1004 43.2573 26.778 44.2174 25.7566C44.8949 25.0359 45.0183 24.3795 45.8111 23.7879C46.547 23.2387 47.0698 23.0442 47.9674 22.8504C48.9336 22.6417 49.5101 22.8504 50.4986 22.8504C51.4139 22.8504 51.9285 22.799 52.8424 22.8504C53.7991 22.9041 54.3582 22.8696 55.2799 23.1316C55.9273 23.3157 56.4269 23.2843 56.8736 23.7879C56.8974 23.8147 56.9329 23.8579 56.9329 23.8579M31.5611 46.2879C31.2316 48.5578 31.0469 49.8304 30.7174 52.1004M31.5611 46.2879L30.7174 52.1004M30.7174 52.1004C30.3879 54.3703 29.9674 56.6941 29.9674 56.6941L29.4986 60.6316L29.1236 64.7566C29.1236 64.7566 28.8733 66.5342 28.6549 67.6629C28.5784 68.0582 28.4855 68.3797 28.3967 68.6871C28.2622 69.1527 28.1371 69.5858 28.0924 70.1941C28.0818 70.3375 28.0624 70.4662 28.0441 70.5877C27.9972 70.8993 27.9574 71.1634 28.0924 71.5066C28.2938 72.0188 28.7118 72.1531 29.1785 72.3031C29.436 72.3858 29.7083 72.4733 29.9674 72.6316C30.8515 73.172 31.3437 73.4807 32.2174 74.0379C32.4487 74.1854 32.637 74.3181 32.8158 74.444C33.1202 74.6584 33.397 74.8533 33.8111 75.0691C34.3986 75.3753 34.7969 75.5124 35.3505 75.7029C35.456 75.7392 35.567 75.7774 35.6861 75.8191C35.8576 75.8792 36.0055 75.9395 36.1445 75.9963C36.4752 76.1312 36.7561 76.2458 37.1861 76.2879C37.9437 76.362 38.4253 76.1862 39.071 75.9504C39.1866 75.9082 39.3074 75.8641 39.4361 75.8191C40.1904 75.5555 40.6526 75.265 41.2182 74.9094C41.418 74.7838 41.6307 74.6501 41.8736 74.5066C42.0524 74.401 42.2124 74.3155 42.3629 74.235C42.7128 74.0478 43.011 73.8884 43.3736 73.5691C43.4026 73.5436 43.4308 73.5189 43.4582 73.4949C43.7796 73.2133 43.9931 73.0262 44.2174 72.6316C44.5581 72.032 44.452 71.5058 44.3362 70.9314C44.2614 70.5604 44.1826 70.1693 44.2174 69.7254C44.2916 68.7777 44.3955 68.2309 44.5657 67.3347M61.8424 27.4441C61.6959 27.7004 61.5611 28.0066 61.4674 28.1004C61.3736 28.1941 60.8682 28.1004 60.8682 28.1004M61.8424 27.4441C62.1353 27.7004 62.2995 27.8441 62.5924 28.1004M61.8424 27.4441C62.1353 27.7004 62.5924 28.1004 62.5924 28.1004M60.8682 28.1004H60.7174C60.7174 28.1004 60.2906 27.3929 59.9674 26.9754C59.2857 26.0949 58.6549 25.8297 57.9049 25.0066C57.509 24.5723 56.9329 23.8579 56.9329 23.8579M60.8682 28.1004C60.8682 28.1004 61.8424 29.2592 61.8424 29.8816M61.8424 29.8816C61.8424 30.504 61.8424 30.853 61.8424 31.4754M61.8424 29.8816V31.4754M61.8424 31.4754L60.7174 32.6004C60.7174 32.6004 59.8482 32.7149 59.3111 32.6004C58.476 32.4223 57.4361 31.4754 57.4361 31.4754L55.5611 29.8816L54.0611 28.1004L52.8424 27.4441M52.8424 27.4441H50.4986H49.4674M52.8424 27.4441L54.0611 26.3191L54.5299 25.7566M49.4674 27.4441L49.0924 28.1004C49.0924 28.1004 48.9078 28.9711 48.7174 29.5066C48.4869 30.1547 48.3085 30.5031 47.9674 31.1004C47.7961 31.4003 47.6931 31.565 47.4986 31.8504M49.4674 27.4441C49.4674 27.4441 49.0148 27.151 48.7174 26.9754C48.2519 26.7005 47.4986 26.3191 47.4986 26.3191M47.4986 31.8504C47.0333 31.9504 46.7452 31.9504 46.2799 31.8504C45.6714 31.7196 44.8736 31.1004 44.8736 31.1004M47.4986 31.8504C47.5968 31.9377 47.6658 31.9802 47.7055 32.0047C47.7323 32.0213 47.7457 32.0296 47.7457 32.0379C47.7457 32.0462 47.7323 32.0544 47.7055 32.071C47.6658 32.0955 47.5968 32.1381 47.4986 32.2254M47.4986 32.2254C47.1691 32.5183 46.9844 32.6825 46.6549 32.9754M47.4986 32.2254L46.6549 32.9754M46.6549 32.9754C46.4735 33.1366 46.6914 33.3973 46.9548 33.7125C47.17 33.9699 47.4155 34.2636 47.4986 34.5691C47.7196 35.3817 47.7196 35.9128 47.4986 36.7254M47.4986 36.7254C47.1691 37.3112 46.9479 37.6205 46.6549 38.2254C46.4977 38.5499 46.2799 39.0691 46.2799 39.0691M47.4986 36.7254C48.2675 37.3112 49.4674 38.2254 49.4674 38.2254M47.4986 36.7254L49.4674 38.2254M46.2799 39.0691C46.2799 39.0691 45.8774 39.4175 45.8111 39.7254C45.6893 40.2913 46.4439 40.405 46.6549 40.9441C46.9884 41.7965 46.6549 43.2879 46.6549 43.2879V45.3504C46.6549 45.3504 46.6115 47.0654 46.6549 48.1629C46.7158 49.7063 46.9781 50.5566 47.0299 52.1004C47.0581 52.942 47.063 53.4152 47.0299 54.2566C46.9748 55.6545 47.087 56.4886 46.6549 57.8191C46.2243 59.1451 44.8736 60.9129 44.8736 60.9129C44.8736 60.9129 43.6166 62.1699 42.8111 62.9754M46.2799 39.0691C46.2799 39.0691 45.4228 39.0691 44.8736 39.0691C44.0682 39.0691 42.8111 39.0691 42.8111 39.0691M42.8111 62.9754C41.7128 63.671 41.097 64.061 39.9986 64.7566C38.9003 65.4522 37.8424 64.7566 37.8424 64.7566L35.6861 64.3816M42.8111 62.9754C42.445 64.0005 42.5585 64.7543 41.8736 65.6004C41.4311 66.147 41.0952 66.4084 40.4674 66.7254C39.73 67.0976 39.2284 67.1302 38.4049 67.1941C37.1505 67.2915 35.2174 66.7254 35.2174 66.7254M56.9329 23.8579C56.9329 23.8579 56.4396 24.558 56.1236 25.0066M62.5924 28.1004C62.6953 28.1904 62.7707 28.2931 62.842 28.3901C62.9737 28.5692 63.0914 28.7294 63.3424 28.7566C63.7867 28.8048 64.2799 28.1004 64.2799 28.1004M59.9674 37.7566C59.8794 38.2616 59.9674 39.0691 59.9674 39.0691C59.9674 39.0691 60.3673 40.3046 60.8682 40.9441C61.1938 41.3598 61.46 41.5175 61.8424 41.8816C62.4238 42.4354 63.3424 43.2879 63.3424 43.2879M59.9674 37.7566C59.776 37.9142 59.6084 38.048 59.4506 38.1734M55.2799 44.0379L54.9049 42.9597M55.2799 44.0379L52.5611 44.7879L50.0299 45.3504M49.4674 38.2254L51.7174 40.1004L52.8424 41.4129L54.9049 42.9597M54.9049 42.9597C54.9049 42.9597 54.1803 42.1583 54.5299 41.8816C54.6633 41.776 54.7976 41.8104 54.9432 41.8477C55.0482 41.8746 55.1591 41.903 55.2799 41.8816C55.8399 41.7824 56.1109 41.4405 56.4177 41.0536C56.5681 40.8639 56.727 40.6634 56.9329 40.4754C57.2127 40.2197 57.4216 40.0057 57.6285 39.7939C57.8507 39.5663 58.0707 39.3411 58.3736 39.0691C58.7627 38.7198 59.0557 38.4871 59.3834 38.2268L59.3835 38.2267L59.3837 38.2266M47.9674 36.7254L49.2798 37.4754M59.4506 38.1734C59.4281 38.1913 59.4058 38.209 59.3837 38.2266M59.4506 38.1734L59.3837 38.2266" stroke="#725050" stroke-width="0.3"/>
</g>
</g>
</g>
<defs>
<filter id="filter0_dd_144_96" x="0" y="0" width="91" height="98" filterUnits="userSpaceOnUse" color-interpolation-filters="sRGB">
<feFlood flood-opacity="0" result="BackgroundImageFix"/>
<feColorMatrix in="SourceAlpha" type="matrix" values="0 0 0 0 0 0 0 0 0 0 0 0 0 0 0 0 0 0 127 0" result="hardAlpha"/>
<feOffset dy="4"/>
<feGaussianBlur stdDeviation="2"/>
<feComposite in2="hardAlpha" operator="out"/>
<feColorMatrix type="matrix" values="0 0 0 0 0 0 0 0 0 0 0 0 0 0 0 0 0 0 0.25 0"/>
<feBlend mode="normal" in2="BackgroundImageFix" result="effect1_dropShadow_144_96"/>
<feColorMatrix in="SourceAlpha" type="matrix" values="0 0 0 0 0 0 0 0 0 0 0 0 0 0 0 0 0 0 127 0" result="hardAlpha"/>
<feOffset dy="4"/>
<feGaussianBlur stdDeviation="2"/>
<feComposite in2="hardAlpha" operator="out"/>
<feColorMatrix type="matrix" values="0 0 0 0 0 0 0 0 0 0 0 0 0 0 0 0 0 0 0.25 0"/>
<feBlend mode="normal" in2="effect1_dropShadow_144_96" result="effect2_dropShadow_144_96"/>
<feBlend mode="normal" in="SourceGraphic" in2="effect2_dropShadow_144_96" result="shape"/>
</filter>
<filter id="filter1_d_144_96" x="0" y="0" width="91" height="98" filterUnits="userSpaceOnUse" color-interpolation-filters="sRGB">
<feFlood flood-opacity="0" result="BackgroundImageFix"/>
<feColorMatrix in="SourceAlpha" type="matrix" values="0 0 0 0 0 0 0 0 0 0 0 0 0 0 0 0 0 0 127 0" result="hardAlpha"/>
<feOffset dy="4"/>
<feGaussianBlur stdDeviation="2"/>
<feComposite in2="hardAlpha" operator="out"/>
<feColorMatrix type="matrix" values="0 0 0 0 0 0 0 0 0 0 0 0 0 0 0 0 0 0 0.25 0"/>
<feBlend mode="normal" in2="BackgroundImageFix" result="effect1_dropShadow_144_96"/>
<feBlend mode="normal" in="SourceGraphic" in2="effect1_dropShadow_144_96" result="shape"/>
</filter>
<filter id="filter2_d_144_96" x="23.8501" y="14.8501" width="49.9956" height="69.605" filterUnits="userSpaceOnUse" color-interpolation-filters="sRGB">
<feFlood flood-opacity="0" result="BackgroundImageFix"/>
<feColorMatrix in="SourceAlpha" type="matrix" values="0 0 0 0 0 0 0 0 0 0 0 0 0 0 0 0 0 0 127 0" result="hardAlpha"/>
<feOffset dy="4"/>
<feGaussianBlur stdDeviation="2"/>
<feComposite in2="hardAlpha" operator="out"/>
<feColorMatrix type="matrix" values="0 0 0 0 0 0 0 0 0 0 0 0 0 0 0 0 0 0 0.25 0"/>
<feBlend mode="normal" in2="BackgroundImageFix" result="effect1_dropShadow_144_96"/>
<feBlend mode="normal" in="SourceGraphic" in2="effect1_dropShadow_144_96" result="shape"/>
</filter>
<filter id="filter3_dd_144_96" x="23.8501" y="14.8501" width="49.9956" height="69.605" filterUnits="userSpaceOnUse" color-interpolation-filters="sRGB">
<feFlood flood-opacity="0" result="BackgroundImageFix"/>
<feColorMatrix in="SourceAlpha" type="matrix" values="0 0 0 0 0 0 0 0 0 0 0 0 0 0 0 0 0 0 127 0" result="hardAlpha"/>
<feOffset dy="4"/>
<feGaussianBlur stdDeviation="2"/>
<feComposite in2="hardAlpha" operator="out"/>
<feColorMatrix type="matrix" values="0 0 0 0 0 0 0 0 0 0 0 0 0 0 0 0 0 0 0.25 0"/>
<feBlend mode="normal" in2="BackgroundImageFix" result="effect1_dropShadow_144_96"/>
<feColorMatrix in="SourceAlpha" type="matrix" values="0 0 0 0 0 0 0 0 0 0 0 0 0 0 0 0 0 0 127 0" result="hardAlpha"/>
<feOffset dy="4"/>
<feGaussianBlur stdDeviation="2"/>
<feComposite in2="hardAlpha" operator="out"/>
<feColorMatrix type="matrix" values="0 0 0 0 0 0 0 0 0 0 0 0 0 0 0 0 0 0 0.25 0"/>
<feBlend mode="normal" in2="effect1_dropShadow_144_96" result="effect2_dropShadow_144_96"/>
<feBlend mode="normal" in="SourceGraphic" in2="effect2_dropShadow_144_96" result="shape"/>
</filter>
</defs>
</svg>
