<svg width="91" height="98" viewBox="0 0 91 98" fill="none" xmlns="http://www.w3.org/2000/svg">
<g filter="url(#filter0_dd_144_79)">
<g filter="url(#filter1_d_144_79)">
<ellipse cx="45.5" cy="45" rx="41.5" ry="45" fill="#D9D9D9"/>
</g>
<g filter="url(#filter2_dd_144_79)">
<path d="M34.5272 78.0079C33.1654 77.0275 35.0402 75.5945 35.1586 74.0282C35.2674 72.5883 35.3009 71.7702 35.1586 70.3327C35.0291 69.0238 34.9849 68.264 34.5272 67.0162C34.1869 66.0885 33.7871 65.6438 33.3695 64.742C32.8142 63.5427 32.5433 62.8536 32.1067 61.6151C31.5668 60.0838 31.313 59.2082 30.9491 57.6353C30.559 55.9497 30.2124 53.2765 30.2124 53.2765V48.5387V45.4118V43.0428C30.2124 42.0807 29.7345 41.4397 30.2124 40.5792C30.5503 39.9707 30.9388 39.7065 31.5805 39.3473C32.0342 39.0934 32.3094 38.858 32.8433 38.8736C33.1876 38.8836 33.3565 39.0179 33.6853 39.1105C33.5883 38.4315 33.5883 38.0365 33.6853 37.3575C33.8228 36.3941 33.8903 35.7726 34.5272 34.9886C35.0804 34.3074 35.5819 34.0369 36.4215 33.662C37.0036 33.402 37.3612 33.2951 38 33.1882C38.8486 33.0462 39.347 33.1882 40.21 33.1882H40.8415C40.3411 32.024 40.5959 30.9422 41.5781 30.0612C42.0476 29.6401 42.4401 29.5334 43.0515 29.3032C43.9069 28.9811 44.4443 28.9145 45.3667 28.8294C46.1435 28.7577 46.6657 28.5189 47.3663 28.8294C48.2263 29.2106 48.2142 29.9465 48.6291 30.7245C48.9727 31.3688 49.0414 31.7779 49.3658 32.4301C49.764 33.2308 50.5234 34.42 50.5234 34.42V35.3676C50.5234 35.3676 51.2959 34.3355 51.9967 34.42C52.1704 34.441 52.2733 34.4457 52.3227 34.4246C52.5775 34.316 51.4065 33.5211 51.1548 30.7245C51.052 29.5811 51.2493 28.9311 51.1548 27.7871C51.0842 26.9311 50.9624 26.4588 50.8391 25.6077C50.7284 24.7552 50.6592 24.2778 50.5234 23.4283C50.1605 21.158 49.8179 19.9054 49.3658 17.6481C49.0336 16.1886 48.8022 15.376 48.3134 13.9526C47.9794 12.9799 47.4436 12.5047 47.3663 11.489C47.2979 10.5907 47.4724 10.0694 47.7872 9.21482C48.0303 8.55492 48.0384 8.05167 48.6291 7.60397C49.2165 7.1588 49.762 7.21915 50.5234 7.13018C51.2163 7.04923 51.67 6.88292 52.3125 7.13018C52.981 7.38751 53.1528 7.82926 53.5753 8.36202C54.4896 9.51462 54.4496 10.4285 54.9434 11.7732C55.5885 13.5299 56.4168 16.3215 56.4168 16.3215L56.8177 17.0796C57.0884 17.5534 57.2313 17.8235 57.4692 18.3114C57.8926 19.18 58.1275 19.6734 58.4163 20.5856C58.8608 21.9898 59.0477 24.2811 59.0477 24.2811L59.2525 25.0391C59.6796 26.0744 59.8461 26.6908 59.9949 27.7871C60.1494 28.9257 59.9508 29.5781 59.9949 30.7245C60.0706 32.6933 60.3156 33.7854 60.5211 35.7466L61.1525 37.6417L62.0996 42.19L62.6258 45.4118V48.5387V51.1919V53.2765C62.6258 53.2765 62.2204 54.999 62.0996 56.1192C61.9289 57.703 62.0996 58.6025 62.0996 60.1937V62.5626C62.0996 62.5626 62.0096 64.2949 61.5735 65.3106C61.2683 66.0213 60.5211 67.0162 60.5211 67.0162L59.0477 68.5323L57.4692 70.3327C57.4692 70.3327 56.7325 71.1855 56.4168 70.996C56.1011 70.8065 56.4168 73.8258 56.4168 75.639C56.4168 76.7492 57.0531 77.5309 56.4168 78.4817C55.8456 79.3351 53.9963 79.8083 53.9963 79.8083C53.9963 79.8083 52.7566 80.5737 51.8915 80.9454C50.6833 81.4645 49.9523 81.7103 48.6291 81.8929C47.3851 82.0647 46.6531 82.0024 45.4129 81.8969L45.3667 81.8929C43.5604 81.7393 42.5007 81.6064 40.8415 80.9454C39.9324 80.5833 39.5062 80.2334 38.6315 79.8083C37.4993 79.2581 35.6848 78.4817 35.6848 78.4817C35.6848 78.4817 34.915 78.2872 34.5272 78.0079Z" fill="#ECCCC0"/>
<path d="M30.2124 45.4118C30.2124 46.6329 30.2124 47.3176 30.2124 48.5387C30.2124 50.3889 30.2124 53.2765 30.2124 53.2765C30.2124 53.2765 30.559 55.9497 30.9491 57.6353C31.313 59.2082 31.5668 60.0838 32.1067 61.6151C32.5433 62.8536 32.8142 63.5427 33.3695 64.742C33.7871 65.6438 34.1869 66.0885 34.5272 67.0162C34.9849 68.264 35.0291 69.0238 35.1586 70.3327C35.3009 71.7702 35.2674 72.5883 35.1586 74.0282C35.0402 75.5945 33.1654 77.0275 34.5272 78.0079C34.915 78.2872 35.6848 78.4817 35.6848 78.4817C35.6848 78.4817 37.4993 79.2581 38.6315 79.8083C39.5062 80.2334 39.9324 80.5833 40.8415 80.9454C42.5007 81.6064 43.5604 81.7393 45.3667 81.8929C46.6351 82.0008 47.3698 82.0668 48.6291 81.8929C49.9523 81.7103 50.6833 81.4645 51.8915 80.9454C52.7566 80.5737 53.9963 79.8083 53.9963 79.8083C53.9963 79.8083 55.8456 79.3351 56.4168 78.4817C57.0531 77.5309 56.4168 76.7492 56.4168 75.639C56.4168 73.8258 56.1011 70.8065 56.4168 70.996C56.7325 71.1855 57.4692 70.3327 57.4692 70.3327L59.0477 68.5323L60.5211 67.0162C60.5211 67.0162 61.2683 66.0213 61.5735 65.3106C62.0096 64.2949 62.0996 62.5627 62.0996 62.5627C62.0996 62.5627 62.0996 61.1189 62.0996 60.1937M30.2124 45.4118C30.2124 44.4866 30.2124 43.968 30.2124 43.0428C30.2124 42.0807 29.7345 41.4397 30.2124 40.5792C30.5503 39.9707 30.9388 39.7065 31.5805 39.3473C32.0342 39.0934 32.3094 38.858 32.8433 38.8736C33.1876 38.8836 33.3565 39.0179 33.6853 39.1105M30.2124 45.4118C30.9522 46.8179 32.1067 49.0125 32.1067 49.0125L33.3695 50.9076L35.1586 52.708L36.4215 53.2765H38L38.6315 52.708L39.6838 51.6657V49.6758M39.6838 49.6758C39.6838 49.6758 40.26 50.6998 40.8415 51.1919C41.3399 51.6137 42.3148 52.0447 42.3148 52.0447C42.3148 52.0447 43.4458 52.256 44.1039 52.0447C44.6845 51.8582 45.0148 51.6476 45.3667 51.1919C45.6423 50.8349 45.8008 50.1496 45.8008 50.1496M39.6838 49.6758C39.6838 49.6758 39.3631 49.3293 39.1577 49.1072M44.7353 46.2646C44.9819 47.1527 45.3667 48.5387 45.3667 48.5387C45.5748 48.9985 46.0714 49.1837 45.9982 49.6758C45.969 49.8716 45.8008 50.1496 45.8008 50.1496M44.7353 46.2646C44.4887 45.3024 44.1039 43.8009 44.1039 43.8009L42.3148 41.5267L41.5781 38.8736L40.8415 35.7466C40.8415 35.7466 40.8415 34.1873 40.8415 33.1882M44.7353 46.2646C44.7353 46.2646 45.6345 45.3713 45.9982 45.0327C46.3618 44.6942 46.3678 44.4994 46.9453 44.1799C47.5228 43.8605 48.6291 43.8009 48.6291 43.8009C49.0509 43.9847 49.1074 44.3017 49.3658 44.6537C49.6242 45.0057 49.8676 45.2473 49.9972 45.696C50.1268 46.1448 50.1268 46.4791 49.9972 46.9279M40.8415 33.1882C40.3411 32.024 40.5959 30.9422 41.5781 30.0612C42.0476 29.6401 42.4401 29.5334 43.0515 29.3032C43.9069 28.9811 44.4443 28.9145 45.3667 28.8294C46.1435 28.7577 46.6657 28.5189 47.3663 28.8294C48.2263 29.2106 48.2142 29.9465 48.6291 30.7245C48.9727 31.3688 49.0414 31.7779 49.3658 32.4301C49.764 33.2308 50.5234 34.42 50.5234 34.42V35.3676M40.8415 33.1882C40.8415 33.1882 40.4566 33.1882 40.21 33.1882C39.347 33.1882 38.8486 33.0462 38 33.1882C37.3612 33.2951 37.0036 33.402 36.4215 33.662C35.5819 34.0369 35.0804 34.3074 34.5272 34.9886C33.8903 35.7726 33.8228 36.3941 33.6853 37.3575C33.5883 38.0365 33.5883 38.4315 33.6853 39.1105M33.6853 39.1105C34.014 39.203 34.5272 39.3473 34.5272 39.3473L35.6848 41.5267L36.4215 43.0428L37.2634 45.4118C37.2634 45.4118 37.8192 46.6823 38.1754 47.4964M57.4692 52.0447L56.4168 51.1919L54.6277 49.6758L53.0491 48.0649C53.0491 48.0649 52.6964 47.7184 52.4703 47.4964M57.4692 52.0447L59.0477 54.1293L60.5211 56.1192L61.5735 58.1091C61.5735 58.1091 61.8942 59.3796 62.0996 60.1937M57.4692 52.0447L58.4163 51.1919L59.2525 49.6758L59.3606 49.2494L59.4687 48.823M62.0996 60.1937C62.0996 58.6025 61.9289 57.703 62.0996 56.1192C62.2204 54.999 62.6258 53.2765 62.6258 53.2765V51.1919V48.5387V45.4118L62.0996 42.19L61.1525 37.6417C61.1525 37.6417 60.7677 36.4867 60.5211 35.7466M60.5211 35.7466C60.3156 33.7854 60.0706 32.6933 59.9949 30.7245C59.9508 29.5781 60.1494 28.9257 59.9949 27.7871C59.8461 26.6908 59.6796 26.0745 59.2525 25.0391M60.5211 35.7466C59.4936 35.7466 57.8901 35.7466 57.8901 35.7466L55.6801 35.3676L53.5753 34.9886L52.3125 34.42M49.3658 17.6481C49.0336 16.1886 48.8022 15.376 48.3134 13.9526C47.9794 12.9799 47.4436 12.5047 47.3663 11.489C47.2979 10.5907 47.4724 10.0694 47.7872 9.21482C48.0303 8.55492 48.0384 8.05167 48.6291 7.60397C49.2165 7.1588 49.762 7.21915 50.5234 7.13018C51.2163 7.04923 51.67 6.88292 52.3125 7.13018C52.981 7.38751 53.1527 7.82926 53.5753 8.36202C54.4896 9.51462 54.4496 10.4285 54.9434 11.7732C55.5885 13.5299 56.4168 16.3215 56.4168 16.3215L56.8177 17.0796M49.3658 17.6481C49.8179 19.9054 50.1605 21.158 50.5234 23.4283C50.6592 24.2778 50.7284 24.7552 50.8391 25.6077M49.3658 17.6481C50.3932 17.6481 50.9806 17.7851 51.9968 17.6481C52.8845 17.5285 53.3144 17.1671 54.2068 17.0796C54.7787 17.0235 55.1047 17.0796 55.6801 17.0796C56.1243 17.0796 56.3734 17.0796 56.8177 17.0796M50.5234 35.3676V36.3151C50.5234 36.3151 50.5234 37.8744 50.5234 38.8736C50.5234 39.5396 50.456 39.9159 50.5234 40.5792C50.6234 41.5625 51.1548 42.7468 51.1548 43.0428C51.1548 43.3389 51.1548 43.5049 51.1548 43.8009C51.1548 43.8009 51.0137 44.7956 51.1548 45.4118C51.2998 46.0447 51.4642 46.4086 51.8915 46.9279C52.0907 47.1699 52.2198 47.2968 52.4703 47.4964M50.5234 35.3676C50.5234 35.3676 51.2959 34.3355 51.9968 34.42C53.066 34.549 51.4553 34.0632 51.1548 30.7245C51.052 29.5811 51.2493 28.9311 51.1548 27.7871C51.0842 26.9311 50.9624 26.4588 50.8391 25.6077M50.8391 25.6077C52.1543 25.6077 52.9184 25.8456 54.2068 25.6077C54.9706 25.4666 55.3364 25.1767 56.1011 25.0391C57.3079 24.822 58.0218 25.0391 59.2525 25.0391M59.2525 25.0391L59.0477 24.2811C59.0477 24.2811 58.8608 21.9898 58.4163 20.5856C58.1275 19.6734 57.8926 19.18 57.4692 18.3114C57.2313 17.8235 57.0884 17.5534 56.8177 17.0796M49.9972 46.9279C50.6137 47.1129 50.9375 47.2918 51.5758 47.4016C51.9213 47.4611 52.1189 47.482 52.4703 47.4964M49.9972 46.9279C49.4629 47.3719 48.6291 48.0649 48.6291 48.0649C48.1458 48.4454 47.3663 49.0125 47.3663 49.0125L45.8008 50.1496M45.3667 52.0447C45.3667 52.8588 45.1696 53.3348 45.3667 54.1293C45.5115 54.7128 45.6625 55.0349 45.9982 55.5507C46.4106 56.1844 47.3663 56.972 47.3663 56.972C47.3663 56.972 48.1159 57.6839 48.6291 58.1091C49.1441 58.5358 49.9972 59.1514 49.9972 59.1514C49.9972 59.1514 50.7028 59.7867 51.1548 60.1937M51.1548 60.1937C52.9221 61.4889 55.6801 63.5102 55.6801 63.5102L54.2068 62.5627L52.4703 61.2361L51.8126 60.7149M51.1548 60.1937C51.8946 60.3788 52.5971 60.6675 53.0491 60.6675C53.5012 60.6675 53.7547 60.6675 54.2068 60.6675M51.1548 60.1937C51.4117 60.3973 51.8126 60.7149 51.8126 60.7149M52.4703 63.5102L52.3125 62.1836L51.8126 60.7149M38.1754 47.4964C38.2637 47.9266 38.6315 48.5387 38.6315 48.5387C38.8041 48.7824 38.9226 48.9104 39.1577 49.1072M38.1754 47.4964L36.4215 48.0649C36.0414 48.3598 35.8343 48.5813 35.6848 49.0125C35.5378 49.4364 35.6848 49.7055 35.6848 50.1496V51.1919C35.866 51.4652 36.0909 51.5527 36.4215 51.6657C36.4215 51.6657 37.2095 51.7855 37.6843 51.6657C37.6843 51.6657 38.3016 51.4305 38.6315 51.1919C38.6315 51.1919 39.318 50.8246 39.3681 50.4338C39.3681 50.4338 39.0706 49.9915 39.0524 49.6758C39.0524 49.6758 39.1166 49.3293 39.1577 49.1072" stroke="#725050" stroke-width="0.3"/>
<path d="M50.7334 39.8211L51.891 38.4945L52.6277 37.3574M45.5767 39.1578H47.5762M38.9467 43.7061L40.7357 42.8533M32.5271 45.4117L34.6319 43.7061M39.8938 62.3731L40.7357 59.6252L41.8933 58.1091L43.1562 56.3087L44.9452 54.9821L45.5767 53.7503L44.9452 52.4237V51.5709L44.1033 52.4237L43.1562 53.7503L42.209 54.9821L40.7357 56.3087L39.2624 58.1091L37.0524 60.0042M46.4186 55.8349L44.9452 57.4458L44.1033 61.0465V63.8892L44.9452 66.1634L46.8395 68.0585L48.8391 69.7641C48.8391 69.7641 50.3143 70.1106 51.2596 70.3326C52.2048 70.5547 53.68 70.9012 53.68 70.9012H56.5215M59.4682 56.3087L58.4158 57.4458L57.5739 58.1091L56.8372 59.1514M41.4724 51.5709C41.4724 50.6088 41.2173 50.0415 41.4724 49.1072C41.5872 48.6866 41.5831 48.3959 41.8933 48.0649C42.2489 47.6854 42.6179 47.6041 43.1562 47.4964C43.6376 47.4 43.9259 47.4964 44.4191 47.4964C44.6245 47.4964 44.7398 47.4964 44.9452 47.4964M30.6328 52.8027L34.6319 52.4237M35.4738 69.006L37.0524 70.9012H39.8938H41.8933H45.5767M56.5215 72.0382C55.4118 72.0382 54.7897 72.0382 53.68 72.0382C52.9814 72.0382 51.891 72.0382 51.891 72.0382C50.9942 71.8393 50.7363 71.2371 49.8915 70.9012C49.0342 70.5603 47.5762 70.3326 47.5762 70.3326M49.8915 49.1072C49.4537 49.491 49.2375 49.7325 48.8391 50.1495C48.3243 50.6885 47.9581 50.9488 47.5762 51.5709C47.5762 51.5709 47.1876 52.0604 47.1553 52.4237C47.1553 52.4237 47.8917 53.517 48.6286 53.9398C48.6286 53.9398 49.3573 54.4229 49.8915 54.4136C49.8915 54.4136 50.7489 54.0454 51.2596 53.7503C51.8268 53.4225 52.6277 52.8027 52.6277 52.8027L53.68 51.0023C53.5491 50.5972 52.9434 50.1495 52.9434 50.1495C52.5052 49.6116 52.5224 49.202 51.891 48.7282C51.891 48.7282 51.891 48.3492 51.2596 48.0649C50.6281 47.7806 50.3929 48.6676 49.8915 49.1072Z" stroke="#725050" stroke-width="0.3"/>
</g>
</g>
<defs>
<filter id="filter0_dd_144_79" x="0" y="0" width="91" height="98" filterUnits="userSpaceOnUse" color-interpolation-filters="sRGB">
<feFlood flood-opacity="0" result="BackgroundImageFix"/>
<feColorMatrix in="SourceAlpha" type="matrix" values="0 0 0 0 0 0 0 0 0 0 0 0 0 0 0 0 0 0 127 0" result="hardAlpha"/>
<feOffset dy="4"/>
<feGaussianBlur stdDeviation="2"/>
<feComposite in2="hardAlpha" operator="out"/>
<feColorMatrix type="matrix" values="0 0 0 0 0 0 0 0 0 0 0 0 0 0 0 0 0 0 0.25 0"/>
<feBlend mode="normal" in2="BackgroundImageFix" result="effect1_dropShadow_144_79"/>
<feColorMatrix in="SourceAlpha" type="matrix" values="0 0 0 0 0 0 0 0 0 0 0 0 0 0 0 0 0 0 127 0" result="hardAlpha"/>
<feOffset dy="4"/>
<feGaussianBlur stdDeviation="2"/>
<feComposite in2="hardAlpha" operator="out"/>
<feColorMatrix type="matrix" values="0 0 0 0 0 0 0 0 0 0 0 0 0 0 0 0 0 0 0.25 0"/>
<feBlend mode="normal" in2="effect1_dropShadow_144_79" result="effect2_dropShadow_144_79"/>
<feBlend mode="normal" in="SourceGraphic" in2="effect2_dropShadow_144_79" result="shape"/>
</filter>
<filter id="filter1_d_144_79" x="0" y="0" width="91" height="98" filterUnits="userSpaceOnUse" color-interpolation-filters="sRGB">
<feFlood flood-opacity="0" result="BackgroundImageFix"/>
<feColorMatrix in="SourceAlpha" type="matrix" values="0 0 0 0 0 0 0 0 0 0 0 0 0 0 0 0 0 0 127 0" result="hardAlpha"/>
<feOffset dy="4"/>
<feGaussianBlur stdDeviation="2"/>
<feComposite in2="hardAlpha" operator="out"/>
<feColorMatrix type="matrix" values="0 0 0 0 0 0 0 0 0 0 0 0 0 0 0 0 0 0 0.25 0"/>
<feBlend mode="normal" in2="BackgroundImageFix" result="effect1_dropShadow_144_79"/>
<feBlend mode="normal" in="SourceGraphic" in2="effect1_dropShadow_144_79" result="shape"/>
</filter>
<filter id="filter2_dd_144_79" x="25.8501" y="6.85046" width="40.9258" height="83.2996" filterUnits="userSpaceOnUse" color-interpolation-filters="sRGB">
<feFlood flood-opacity="0" result="BackgroundImageFix"/>
<feColorMatrix in="SourceAlpha" type="matrix" values="0 0 0 0 0 0 0 0 0 0 0 0 0 0 0 0 0 0 127 0" result="hardAlpha"/>
<feOffset dy="4"/>
<feGaussianBlur stdDeviation="2"/>
<feComposite in2="hardAlpha" operator="out"/>
<feColorMatrix type="matrix" values="0 0 0 0 0 0 0 0 0 0 0 0 0 0 0 0 0 0 0.25 0"/>
<feBlend mode="normal" in2="BackgroundImageFix" result="effect1_dropShadow_144_79"/>
<feColorMatrix in="SourceAlpha" type="matrix" values="0 0 0 0 0 0 0 0 0 0 0 0 0 0 0 0 0 0 127 0" result="hardAlpha"/>
<feOffset dy="4"/>
<feGaussianBlur stdDeviation="2"/>
<feComposite in2="hardAlpha" operator="out"/>
<feColorMatrix type="matrix" values="0 0 0 0 0 0 0 0 0 0 0 0 0 0 0 0 0 0 0.25 0"/>
<feBlend mode="normal" in2="effect1_dropShadow_144_79" result="effect2_dropShadow_144_79"/>
<feBlend mode="normal" in="SourceGraphic" in2="effect2_dropShadow_144_79" result="shape"/>
</filter>
</defs>
</svg>
