<svg width="563" height="561" viewBox="0 0 563 561" fill="none" xmlns="http://www.w3.org/2000/svg">
<path d="M511.5 559.5H52C24.3858 559.5 2 537.114 2 509.5V52C2 24.3858 24.3857 2 52 2H511.5C539.114 2 561.5 24.3858 561.5 52V509.5C561.5 537.114 539.114 559.5 511.5 559.5Z" fill="#EDDCC1" stroke="#EDDCC1" stroke-width="3"/>
<g filter="url(#filter0_dd_215_43)">
<path d="M123.542 446.844C126.641 439.898 128.367 435.999 131.417 429.031C132.666 426.177 133.271 424.534 134.605 421.719C135.261 420.333 136.236 418.414 136.731 417.449C136.238 416.599 136.439 414.893 136.48 413.656C136.578 410.63 137.792 407 137.792 407L153.355 389.594L157.283 387.406C157.283 387.406 160.946 386.999 161.698 386.586C161.698 386.586 162.822 384.289 164.042 383.281C165.28 382.258 166.253 382.052 167.792 381.594C170.047 380.922 171.44 381.125 173.792 381.031C175.548 380.961 178.292 381.031 178.292 381.031L182.042 381.594L186.729 383.281L190.854 384.781C190.854 384.781 191.443 385.181 191.792 385.472C192.817 386.227 193.326 386.75 194.417 387.406C195.793 388.234 196.863 388.156 198.167 389.094C198.167 389.094 198.64 389.753 199.292 390.535C199.848 391.202 200.535 391.959 201.167 392.469C201.657 392.864 201.946 393.071 202.479 393.406L203.792 394.344C203.792 394.344 204.527 395.425 204.729 396.219C204.965 397.141 205.11 397.784 204.729 398.656C204.336 399.559 203.635 399.743 202.854 400.344C201.847 401.118 200.15 402.016 199.818 402.189C199.876 402.174 199.886 402.254 199.292 402.969C198.449 403.984 196.104 404.094 196.104 404.094C195.162 404.228 194.619 404.094 193.667 404.094H191.792L190.573 403.531L189.354 402.969C188.599 402.514 188.27 402.112 187.667 401.469C187.276 401.052 186.729 400.344 186.729 400.344V399.125L183.917 401.469L180.917 402.219C179.61 402.387 177.542 402.219 177.542 402.219H175.854L174.917 404.094C174.917 404.094 174.26 405.367 173.792 406.156C173.118 407.291 172.343 407.719 171.917 408.969C171.7 409.605 171.58 410.656 171.58 410.656C171.58 410.656 171.423 412.547 170.98 413.656C170.564 414.694 169.927 415.069 169.48 416.094C169.053 417.071 169.176 417.75 168.73 418.719C168.117 420.049 166.661 420.266 166.48 421.719C166.434 422.082 166.48 422.656 166.48 422.656C166.48 422.656 166.343 424.265 166.48 425.281C166.686 426.819 167.792 429.031 167.792 429.031C167.792 429.031 169.642 430.714 170.605 432.969C170.874 433.601 170.98 434.688 170.98 434.688L173.229 437.844L173.882 438.782C174.677 438.758 177.542 440.094 177.542 440.094H180.917C182.218 439.756 183.917 438.406 183.917 438.406C183.917 438.406 185.504 436.751 186.729 435.969C187.691 435.355 188.279 435.068 189.354 434.688L190.573 434.094L191.792 432.969L193.573 432.125L195.354 431.281C195.354 431.281 196.938 429.715 198.167 429.031C199.261 428.423 201.167 427.906 201.167 427.906L205.854 427.156L209.042 427.906C209.042 427.906 212.4 429.35 212.792 431.281C212.923 431.927 212.849 432.312 212.792 432.969C212.792 432.969 212.573 434.884 212.042 435.969C211.29 437.504 210.326 438.027 209.042 439.156C207.501 440.511 206.188 440.713 204.729 442.156C203.917 442.961 202.854 444.406 202.854 444.406C202.153 445.328 201.964 446.004 201.167 446.844C199.61 448.484 198.021 448.455 196.104 449.656C194.366 450.746 193.54 451.583 191.792 452.656C190.228 453.616 189.401 454.307 187.667 454.906C186.255 455.394 183.917 455.656 183.917 455.656C183.917 455.656 182.178 457.062 180.917 457.719C180.277 458.052 179.905 458.217 179.23 458.469L151.292 475.625L137.042 496L109 478.906C109 478.906 117.94 459.4 123.542 446.844Z" fill="#ECCCC0"/>
<path d="M137.042 416.844C137.042 416.844 135.516 419.795 134.605 421.719C133.271 424.534 132.666 426.177 131.417 429.031C128.367 435.999 126.641 439.898 123.542 446.844C117.94 459.4 109 478.906 109 478.906L137.042 496L151.292 475.625L179.23 458.469M161.698 386.586C160.946 386.999 157.283 387.406 157.283 387.406L153.355 389.594L137.792 407C137.792 407 136.578 410.63 136.48 413.656C136.422 415.416 136.038 418.123 137.792 417.969L148.816 402.969L156.542 396.219C157.161 395.789 157.544 395.595 158.23 395.281C159.345 394.77 160.073 394.756 161.23 394.344C162.344 393.947 162.876 393.418 164.042 393.219C164.98 393.058 165.529 393.273 166.48 393.219C168.258 393.116 169.202 392.59 170.98 392.469C172.221 392.384 174.167 392.469 174.167 392.469L176.792 393.219C176.792 393.219 177.422 393.084 178.292 392.991C178.442 392.975 178.6 392.96 178.763 392.947M161.698 386.586L173.229 385.472C173.229 385.472 185.239 387.815 191.793 390.781M161.698 386.586C161.698 386.586 162.822 384.289 164.042 383.281C165.28 382.258 166.253 382.052 167.792 381.594C170.047 380.922 171.44 381.125 173.792 381.031C175.548 380.961 178.292 381.031 178.292 381.031L182.042 381.594L186.729 383.281L190.854 384.781C190.854 384.781 191.443 385.181 191.792 385.472C192.817 386.227 193.326 386.75 194.417 387.406C195.793 388.234 196.863 388.156 198.167 389.094C198.167 389.094 198.64 389.753 199.292 390.535M186.729 400.344C186.729 400.344 187.276 401.052 187.667 401.469C188.27 402.112 188.599 402.514 189.354 402.969L190.573 403.531M186.729 400.344L190.573 403.531M186.729 400.344V399.125M203.792 394.344C203.792 394.344 204.527 395.425 204.729 396.219C204.965 397.141 205.11 397.784 204.729 398.656C204.336 399.559 203.635 399.743 202.854 400.344C201.735 401.205 199.761 402.219 199.761 402.219M203.792 394.344C203.792 394.344 202.992 393.772 202.479 393.406C201.946 393.071 201.657 392.864 201.167 392.469C200.535 391.959 199.848 391.202 199.292 390.535M203.792 394.344C203.792 394.344 201.588 396.007 200.229 395.474C198.402 394.757 199.292 390.535 199.292 390.535M199.761 402.219L200.229 401.469L198.167 396.219M199.761 402.219C199.761 402.219 200.135 401.953 199.292 402.969C198.449 403.984 196.104 404.094 196.104 404.094C195.162 404.228 194.619 404.094 193.667 404.094C192.935 404.094 191.792 404.094 191.792 404.094L190.573 403.531M186.729 399.125V397.906C186.729 397.906 186.229 396.833 185.792 396.219C185.601 395.95 185.415 395.702 185.23 395.474M186.729 399.125L183.917 401.469C182.745 401.762 182.089 401.926 180.917 402.219C179.61 402.387 177.542 402.219 177.542 402.219H175.854M154.105 434.094V438.406C154.105 439.871 154.167 440.693 154.105 442.156C153.707 451.537 146.605 465 146.605 465M179.23 458.469C179.376 457.627 178.292 455.656 178.292 455.656C178.459 453.592 177.542 450.406 177.542 450.406L176.792 446.844C176.792 446.844 177.258 442.619 175.667 440.844C175.338 440.477 174.729 440 174.729 440M179.23 458.469C179.905 458.217 180.277 458.052 180.917 457.719C182.178 457.062 183.917 455.656 183.917 455.656C183.917 455.656 186.255 455.394 187.667 454.906C189.401 454.307 190.228 453.616 191.792 452.656C193.54 451.583 194.366 450.746 196.104 449.656C198.021 448.455 199.61 448.484 201.167 446.844C201.964 446.004 202.153 445.328 202.854 444.406C202.854 444.406 203.917 442.961 204.729 442.156C206.188 440.713 207.501 440.511 209.042 439.156C210.326 438.027 211.29 437.504 212.042 435.969C212.573 434.884 212.792 432.969 212.792 432.969C212.849 432.312 212.923 431.927 212.792 431.281C212.4 429.35 209.042 427.906 209.042 427.906L205.854 427.156L201.167 427.906C201.167 427.906 199.261 428.423 198.167 429.031C196.938 429.715 195.354 431.281 195.354 431.281L193.573 432.125M175.854 402.219H174.167C158.567 404.851 154.245 410.225 156.542 429.031C158.001 428.314 160.696 428.209 162.73 426.594C163.887 425.675 165.261 423.781 165.261 423.781L166.48 422.656M175.854 402.219L174.917 404.094C174.917 404.094 174.26 405.367 173.792 406.156C173.118 407.291 172.343 407.719 171.917 408.969C171.7 409.605 171.58 410.656 171.58 410.656C171.58 410.656 171.423 412.547 170.98 413.656C170.564 414.694 169.927 415.069 169.48 416.094C169.053 417.071 169.176 417.75 168.73 418.719C168.117 420.049 166.661 420.266 166.48 421.719C166.434 422.082 166.48 422.656 166.48 422.656M174.729 440C174.729 440 174.081 439.555 173.792 439.156C172.907 437.933 177.542 440.094 177.542 440.094H180.917C182.218 439.756 183.917 438.406 183.917 438.406C183.917 438.406 185.504 436.751 186.729 435.969C187.691 435.355 188.279 435.068 189.354 434.688C189.83 434.456 190.573 434.094 190.573 434.094L191.792 432.969L193.573 432.125M174.729 440L173.229 437.844L170.98 434.688C170.98 434.688 170.874 433.601 170.605 432.969C169.642 430.714 167.792 429.031 167.792 429.031C167.792 429.031 166.686 426.819 166.48 425.281C166.343 424.265 166.48 422.656 166.48 422.656M185.23 395.474C184.361 394.406 183.492 393.753 182.042 393.219C181.1 392.872 179.822 392.864 178.763 392.947M185.23 395.474C185.23 395.474 184.104 397.541 182.816 397.906C180.41 398.589 178.763 392.947 178.763 392.947M156.816 447C158.769 445.828 157.948 443.094 161.816 444M198.917 438.406C196.576 438.431 193.106 434.577 193.573 432.125M198.167 396.219L195.354 393.031C194.658 392.261 193.386 391.503 191.793 390.781M198.167 396.219C198.167 396.219 196.498 398.401 194.94 398.656C191.672 399.192 191.793 390.781 191.793 390.781" stroke="#725050" stroke-width="3"/>
</g>
<g filter="url(#filter1_dd_215_43)">
<path d="M435.434 220.132L389.934 222.382L388.434 200.132C373.809 177.191 371.499 164.035 376.184 140.132C376.184 140.132 377.318 129.886 382.184 127.132C385.762 125.108 392.936 125.975 392.936 125.975C392.936 125.975 395.719 119.006 399.934 117.882C403.098 117.039 408.184 119.382 408.184 119.382C408.184 119.382 412.97 112.89 417.434 112.632C421.752 112.383 427.184 117.882 427.184 117.882C427.184 117.882 430.284 113.118 433.434 112.632C436.427 112.171 440.684 115.382 440.684 115.382C440.684 115.382 445.106 105.991 450.684 104.382C456.587 102.679 456.637 106.886 456.411 112.632C456.294 115.591 456.104 118.957 456.602 122.136C456.877 123.892 457.362 125.591 458.186 127.132C467.936 145.386 435.434 194.79 435.434 194.79V220.132Z" fill="#ECCCC0"/>
<path d="M435.434 194.79V220.132L389.934 222.382L388.434 200.132M435.434 194.79C435.434 194.79 467.936 145.386 458.186 127.132C457.362 125.591 456.877 123.892 456.602 122.136M435.434 194.79C435.434 194.79 424.91 193.023 419.434 189.632C414.319 186.465 409.184 178.132 409.184 178.132M440.684 115.382C440.684 115.382 445.106 105.991 450.684 104.382C456.587 102.679 456.637 106.886 456.411 112.632M440.684 115.382C440.684 115.382 436.427 112.171 433.434 112.632C430.284 113.118 427.184 117.882 427.184 117.882M440.684 115.382C440.684 115.382 445.436 154.136 428.686 154.136C420.331 154.136 427.184 117.882 427.184 117.882M440.684 115.382C440.684 115.382 441.054 122.188 441.054 129.136C441.054 139.89 436.436 160.132 427.184 167.136M427.184 117.882C427.184 117.882 421.752 112.383 417.434 112.632C412.97 112.89 408.184 119.382 408.184 119.382M427.184 117.882C427.184 117.882 426.437 157.386 416.436 158.636C410.184 159.417 408.184 119.382 408.184 119.382M408.184 119.382C408.184 119.382 403.098 117.039 399.934 117.882C395.719 119.006 392.936 125.975 392.936 125.975M408.184 119.382C408.184 119.382 413.436 158.636 404.936 160.132C397.757 161.396 392.936 125.975 392.936 125.975M392.936 125.975C392.936 125.975 385.762 125.108 382.184 127.132C377.318 129.886 376.184 140.132 376.184 140.132C371.499 164.035 373.809 177.191 388.434 200.132M392.936 125.975C392.936 125.975 399.008 160.132 391.936 160.132C383.437 160.132 379.934 134.632 379.934 134.632M388.434 200.132C388.434 200.132 396.31 202.068 400.684 200.132C404.41 198.484 408.184 192.882 408.184 192.882M456.411 112.632H450.684C450.684 112.632 450.212 115.293 450.684 116.886C451.562 119.848 456.602 122.136 456.602 122.136M456.411 112.632C456.294 115.591 456.104 118.957 456.602 122.136M385.436 140.132C385.436 140.132 386.878 136.572 388.434 137.136C389.281 137.443 389.934 138.886 389.934 138.886M397.686 134.632C397.686 134.632 397.632 129.415 399.934 129.136C402.06 128.879 403.686 133.136 403.686 133.136M413.436 132.386C413.436 132.386 414.405 128.066 416.436 128.136C418.161 128.196 419.434 131.386 419.434 131.386M430.436 129.136C430.436 129.136 431.733 125.976 433.434 125.975C435.137 125.974 436.436 129.136 436.436 129.136M451.936 135.636C451.936 135.636 453.626 137.095 454.936 137.136C456.333 137.18 458.186 135.636 458.186 135.636M388.434 155.386L393.436 154.886C393.436 154.886 393.907 152.125 392.936 150.886C392.127 149.855 391.177 148.972 389.934 149.386C389.149 149.648 388.861 150.176 388.434 150.886C387.53 152.393 388.434 155.386 388.434 155.386ZM401.686 154.136H407.186C407.186 154.136 407.222 151.656 406.436 150.386C405.705 149.206 405.056 147.917 403.686 148.136C402.525 148.322 401.686 150.386 401.686 150.386C401.109 151.732 401.686 154.136 401.686 154.136ZM414.686 152.886H419.434C419.434 152.886 419.907 150.669 419.434 149.386C419.002 148.213 418.657 147.149 417.434 146.886C416.281 146.638 415.458 147.245 414.686 148.136C413.47 149.538 414.686 152.886 414.686 152.886ZM427.184 150.386H433.434C433.434 150.386 433.943 148.155 433.434 146.886C432.843 145.411 431.998 143.845 430.436 144.136C429.61 144.29 429.266 144.779 428.686 145.386C427.277 146.86 427.184 150.386 427.184 150.386Z" stroke="#725050" stroke-width="3"/>
</g>
<path d="M479.562 445.5C479.562 453.75 476.937 461.125 471.687 467.625C459.687 482.75 443.187 490.313 422.187 490.313C412.812 490.313 404.25 489.313 396.5 487.313C391.5 486.063 386.5 483.438 381.5 479.438C375.625 474.813 372.688 470.25 372.688 465.75C372.688 463.625 373.625 461.75 375.5 460.125C377.5 458.375 379.562 457.5 381.687 457.5C385.312 457.5 388 459.188 389.75 462.563C392.125 467.563 394.125 470.75 395.75 472.125C399.875 475.5 406.75 477.188 416.375 477.188C424.625 477.188 432.25 475.688 439.25 472.687C447 469.188 452.813 464.25 456.688 457.875C459.437 453.25 460.812 449.5 460.812 446.625C460.812 440.625 457.187 435.563 449.937 431.438C443.812 427.813 437.562 426 431.187 426C429.437 426 424.812 427.438 417.312 430.313C409.812 433.063 403.875 434.438 399.5 434.438C397.125 434.438 394.937 433.938 392.937 432.937C390.437 431.813 389.187 430.188 389.187 428.062C389.187 425.437 390.563 422.688 393.313 419.813C396.062 416.938 401 415.313 408.125 414.938C416.875 414.438 422.25 413.75 424.25 412.875C428 411.375 432.687 407.5 438.312 401.25C443.437 395.375 446 389.75 446 384.375C446 377.5 442.437 374.063 435.312 374.063C431.312 374.063 425.625 375.625 418.25 378.75C410.875 381.875 406.187 384.875 404.187 387.75V388.313C404.187 388.438 404.5 389.313 405.125 390.937C403.75 393.812 401.125 396.812 397.25 399.938C393 403.188 389.438 404.813 386.562 404.813C384.437 404.813 382.25 404.063 380 402.562C377.875 400.938 376.812 399.125 376.812 397.125C376.812 394.375 378.5 390.813 381.875 386.438C387.375 379.313 395.437 373 406.062 367.5C416.812 361.875 426.562 359.063 435.312 359.063C443.187 359.063 449.75 361.125 455 365.25C460.75 369.625 463.625 375.688 463.625 383.438C463.625 388.688 461.937 394.375 458.562 400.5C455.437 406 451.625 410.625 447.125 414.375C468.75 419.25 479.562 429.625 479.562 445.5Z" fill="#725050"/>
<line x1="284.5" y1="41" x2="284.5" y2="551" stroke="#725050" stroke-width="7" stroke-dasharray="2 2"/>
<line x1="27.9862" y1="294.5" x2="535.986" y2="292.5" stroke="#725050" stroke-width="7" stroke-dasharray="2 2"/>
<path d="M202.75 167.625C202.75 184.875 198.25 200.125 189.25 213.375C179 228.5 165.687 236.062 149.313 236.062C133.687 236.062 121.187 230.312 111.812 218.812C103.062 208.063 98.6875 194.75 98.6875 178.875C98.6875 164.875 102.563 151.125 110.313 137.625C118.937 122.625 129.562 113.438 142.187 110.063C146.687 108.813 151.812 108.187 157.562 108.187C171.062 108.187 182.25 114.938 191.125 128.438C198.875 140.313 202.75 153.375 202.75 167.625ZM186.062 166.688C186.062 154.688 183.75 144.813 179.125 137.062C173.625 127.437 165.25 122.625 154 122.625C150.375 122.625 146.625 123.75 142.75 126C134.125 131 127.375 138.688 122.5 149.063C118.125 158.563 115.937 168.688 115.937 179.438C115.937 190.938 118.812 200.313 124.562 207.563C130.937 215.438 139.75 219.375 151 219.375C162.875 219.375 172 213.25 178.375 201C183.5 191.25 186.062 179.813 186.062 166.688Z" fill="#725050"/>
<defs>
<filter id="filter0_dd_215_43" x="99.0811" y="379.5" width="123.283" height="134.514" filterUnits="userSpaceOnUse" color-interpolation-filters="sRGB">
<feFlood flood-opacity="0" result="BackgroundImageFix"/>
<feColorMatrix in="SourceAlpha" type="matrix" values="0 0 0 0 0 0 0 0 0 0 0 0 0 0 0 0 0 0 127 0" result="hardAlpha"/>
<feOffset dy="8"/>
<feGaussianBlur stdDeviation="4"/>
<feComposite in2="hardAlpha" operator="out"/>
<feColorMatrix type="matrix" values="0 0 0 0 0 0 0 0 0 0 0 0 0 0 0 0 0 0 0.25 0"/>
<feBlend mode="normal" in2="BackgroundImageFix" result="effect1_dropShadow_215_43"/>
<feColorMatrix in="SourceAlpha" type="matrix" values="0 0 0 0 0 0 0 0 0 0 0 0 0 0 0 0 0 0 127 0" result="hardAlpha"/>
<feOffset dy="8"/>
<feGaussianBlur stdDeviation="4"/>
<feComposite in2="hardAlpha" operator="out"/>
<feColorMatrix type="matrix" values="0 0 0 0 0 0 0 0 0 0 0 0 0 0 0 0 0 0 0.25 0"/>
<feBlend mode="normal" in2="effect1_dropShadow_215_43" result="effect2_dropShadow_215_43"/>
<feBlend mode="normal" in="SourceGraphic" in2="effect2_dropShadow_215_43" result="shape"/>
</filter>
<filter id="filter1_dd_215_43" x="364.5" y="102.5" width="105.01" height="137.453" filterUnits="userSpaceOnUse" color-interpolation-filters="sRGB">
<feFlood flood-opacity="0" result="BackgroundImageFix"/>
<feColorMatrix in="SourceAlpha" type="matrix" values="0 0 0 0 0 0 0 0 0 0 0 0 0 0 0 0 0 0 127 0" result="hardAlpha"/>
<feOffset dy="8"/>
<feGaussianBlur stdDeviation="4"/>
<feComposite in2="hardAlpha" operator="out"/>
<feColorMatrix type="matrix" values="0 0 0 0 0 0 0 0 0 0 0 0 0 0 0 0 0 0 0.25 0"/>
<feBlend mode="normal" in2="BackgroundImageFix" result="effect1_dropShadow_215_43"/>
<feColorMatrix in="SourceAlpha" type="matrix" values="0 0 0 0 0 0 0 0 0 0 0 0 0 0 0 0 0 0 127 0" result="hardAlpha"/>
<feOffset dy="8"/>
<feGaussianBlur stdDeviation="4"/>
<feComposite in2="hardAlpha" operator="out"/>
<feColorMatrix type="matrix" values="0 0 0 0 0 0 0 0 0 0 0 0 0 0 0 0 0 0 0.25 0"/>
<feBlend mode="normal" in2="effect1_dropShadow_215_43" result="effect2_dropShadow_215_43"/>
<feBlend mode="normal" in="SourceGraphic" in2="effect2_dropShadow_215_43" result="shape"/>
</filter>
</defs>
</svg>
