<svg width="91" height="98" viewBox="0 0 91 98" fill="none" xmlns="http://www.w3.org/2000/svg">
<g filter="url(#filter0_dd_140_42)">
<g filter="url(#filter1_d_140_42)">
<ellipse cx="45.5" cy="45" rx="41.5" ry="45" fill="#D9D9D9"/>
</g>
<g filter="url(#filter2_dd_140_42)">
<path d="M35.578 67.7925C35.6812 66.6178 35.6812 65.9476 35.578 64.7729L33.0977 61.9691L31.1566 57.8712L29.8625 53.234L28.9998 49.0283V44.2833V40.1854L29.3818 36.8423L29.4311 36.411C29.4311 36.411 30.0222 34.124 30.2938 32.6366C30.5003 31.5058 30.5167 30.8553 30.7252 29.7249C30.8735 28.9207 31.1566 27.6759 31.1566 27.6759L32.6663 26.5975C32.6663 26.5975 33.7588 25.9547 34.4996 25.627V23.0388C34.4996 22.0281 34.8557 21.4359 35.578 20.7742C36.1897 20.2138 36.7343 20.1803 37.5191 19.9114C38.1376 19.6995 38.483 19.4688 39.1367 19.4801C40.3866 19.5016 40.7799 20.5317 41.8327 21.2055L42.9111 18.833L44.7444 17.6468L46.9012 16.9998H48.8423L50.5678 18.0782L51.4844 19.4262L53.5873 18.833H56.0676L58.2244 19.9114L59.195 22.6074L60.3812 25.9505L60.8126 29.4014V32.6366L60.525 33.9307L60.3812 34.5777C60.3812 34.5777 59.8917 35.6836 59.6263 36.411L59.195 37.7051L58.2244 39.0227C59.4256 39.9417 60.0388 40.5741 60.9204 41.803C61.7002 42.8899 62.2013 43.5278 62.538 44.8225C62.8984 46.2083 62.8314 47.0876 62.538 48.4891C62.2252 49.9833 61.5227 50.645 60.9204 52.0478C60.2046 53.715 59.9446 54.7092 59.195 56.3614C58.5725 57.7335 58.4748 58.6899 57.4695 59.8123C56.4092 60.9961 55.3663 61.1268 54.0187 61.9691V62.5083C54.0187 62.5083 54.0488 64.7433 54.0187 66.1749C53.9609 68.9168 55.3364 71.072 53.5873 73.1845C52.2892 74.7523 50.7523 74.6375 48.8423 75.3413C46.5895 76.1714 45.3089 76.8362 42.9111 76.9589C40.7877 77.0675 39.4887 77.005 37.5191 76.204C36.2412 75.6843 35.0917 75.6167 34.4996 74.3707C33.8963 73.1011 34.8085 72.1986 35.0388 70.812C35.2351 69.6303 35.4731 68.9857 35.578 67.7925Z" fill="#ECCCC0"/>
<path d="M35.578 64.7729C35.6812 65.9476 35.6812 66.6178 35.578 67.7925C35.4731 68.9857 35.2351 69.6303 35.0388 70.812C34.8085 72.1986 33.8963 73.1011 34.4996 74.3707C35.0917 75.6167 36.2412 75.6843 37.5191 76.204C39.4887 77.005 40.7877 77.0675 42.9111 76.9589C45.3089 76.8362 46.5895 76.1714 48.8423 75.3413C50.7523 74.6375 52.2892 74.7523 53.5873 73.1845C55.3364 71.072 53.9609 68.9168 54.0187 66.1749C54.0488 64.7433 54.0187 62.5083 54.0187 62.5083M35.578 64.7729C34.6094 63.678 33.0977 61.9691 33.0977 61.9691L31.1566 57.8712L29.8625 53.234L28.9998 49.0283V44.2833M35.578 64.7729C36.8995 65.252 37.7326 65.3782 39.1367 65.3121C40.2092 65.2617 40.7886 65.0234 41.8327 64.7729C42.6175 64.5847 43.0979 64.5783 43.8278 64.2337C44.4986 63.917 44.7808 63.5765 45.3915 63.1553M54.0187 61.9691C55.3663 61.1268 56.4092 60.9961 57.4695 59.8123C58.4748 58.6899 58.5725 57.7335 59.195 56.3614C59.9446 54.7092 60.2046 53.715 60.9204 52.0478C61.5227 50.645 62.2252 49.9833 62.538 48.4891C62.8314 47.0876 62.8984 46.2083 62.538 44.8225C62.2013 43.5278 61.7002 42.8899 60.9204 41.803C60.0388 40.5741 59.4256 39.9417 58.2244 39.0227M54.0187 61.9691C53.8502 61.9691 53.5873 61.9691 53.5873 61.9691C53.5873 61.9691 51.6919 62.3254 50.5678 61.9691C49.4988 61.6302 49.1476 60.9436 48.1953 60.3515C47.2504 59.764 46.4335 59.7991 45.715 58.9496C45.0179 58.1254 45.0213 57.4047 44.7444 56.3614C44.4815 55.371 44.301 54.7978 44.3131 53.7732C44.3311 52.2404 44.9172 51.4566 45.3915 49.9988C45.9336 48.3325 46.9551 45.7931 46.9551 45.7931M54.0187 61.9691C54.0187 62.1797 54.0187 62.5083 54.0187 62.5083M47.4404 37.2737C46.3876 37.6527 44.7444 38.2443 44.7444 38.2443C44.7444 38.2443 44.1857 38.6058 43.8278 38.8374M47.4404 37.2737C47.6615 37.2316 48.0066 37.1659 48.0066 37.1659M47.4404 37.2737C47.8074 37.8439 47.9771 38.1953 48.1953 38.8374C48.5038 39.7454 48.5727 41.2638 48.5727 41.2638L48.0066 42.1265C47.6538 42.5599 47.4665 42.8717 46.9551 43.0971C46.3193 43.3773 45.8347 43.3177 45.1758 43.0971C44.5607 42.8911 44.2822 42.5894 43.8278 42.1265C43.1479 41.4341 42.594 39.9697 42.594 39.9697M42.9111 39.4305C43.0901 39.3147 43.3694 39.1339 43.3694 39.1339M42.9111 39.4305C42.1952 39.6411 41.8192 39.8838 41.0778 39.9697C40.5758 40.0278 40.2801 40.0648 39.7838 39.9697C39.2461 39.8666 38.9627 39.7062 38.4897 39.4305C37.8701 39.0693 37.6434 38.6977 37.0878 38.2443C36.5069 37.7701 35.578 37.058 35.578 37.058C35.0305 36.5526 34.7236 36.2693 34.1761 35.7639C34.1761 35.7639 33.716 35.3039 33.4212 35.0091C32.9256 34.6787 32.6732 34.4262 32.3428 33.9307C32.1339 33.6172 32.0368 33.4231 31.9114 33.0679M42.9111 39.4305C42.7873 39.6411 42.594 39.9697 42.594 39.9697M55.0971 46.3323C54.0442 46.3323 53.4539 46.3323 52.4011 46.3323M28.9998 44.2833V40.1854C28.9998 40.1854 29.2326 38.1479 29.3818 36.8423M28.9998 44.2833L31.9114 43.9598C32.501 43.6229 32.8316 43.434 33.4212 43.0971C33.4212 43.0971 34.0702 42.4634 35.0388 42.1265C36.0074 41.7896 36.5505 41.6007 37.5191 41.2638C37.5191 41.2638 38.5054 41.0023 39.1367 40.8324C40.0641 40.5829 40.5716 40.3931 41.5092 40.1854C41.9309 40.092 42.594 39.9697 42.594 39.9697M34.4996 25.627C33.7588 25.9547 32.6663 26.5975 32.6663 26.5975L31.1566 27.6759C31.1566 27.6759 30.8735 28.9207 30.7252 29.7249C30.5167 30.8553 30.5003 31.5058 30.2938 32.6366C30.0222 34.124 29.4311 36.411 29.4311 36.411C29.4311 36.411 29.4011 36.6739 29.3818 36.8423M34.4996 25.627C35.2577 25.7533 36.4407 25.9505 36.4407 25.9505L38.4897 28.2151L40.6465 31.019L41.8327 33.0679C41.8327 33.0679 42.49 34.251 42.9111 35.0091M34.4996 25.627C34.4996 24.6162 34.4996 24.0495 34.4996 23.0388C34.4996 22.0281 34.8557 21.4359 35.578 20.7742C36.1897 20.2138 36.7343 20.1803 37.5191 19.9114C38.1376 19.6995 38.483 19.4688 39.1367 19.4801C40.3866 19.5016 40.7799 20.5317 41.8327 21.2055M42.9111 35.0091C42.9111 35.3881 42.8335 35.6086 42.9111 35.9796C43.031 36.5523 43.4815 36.7185 43.666 37.2737C43.8596 37.8563 43.7646 38.2267 43.8278 38.8374M42.9111 35.0091C42.3396 35.2539 42.0283 35.4215 41.5092 35.7639C41.1577 35.9958 40.8517 36.0432 40.6465 36.411C40.4002 36.8523 40.552 37.2086 40.6465 37.7051C40.7349 38.1699 41.0778 38.8374 41.0778 38.8374L41.8327 39.2148C42.2941 39.3087 42.5616 38.8873 43.019 38.9991C43.1614 39.034 43.3694 39.1339 43.3694 39.1339M43.8278 38.8374L43.3694 39.1339M41.8327 21.2055C42.6118 21.9215 43.8278 23.0388 43.8278 23.0388L45.3915 25.3034L46.9012 27.6759C46.9012 27.6759 47.0815 28.2017 47.197 28.5386M41.8327 21.2055C42.2539 20.279 42.9111 18.833 42.9111 18.833L44.7444 17.6468L46.9012 16.9998H48.8423L50.5678 18.0782L51.4844 19.4262M48.5727 37.058L49.7051 36.8423C49.7051 36.8423 50.0994 36.8423 50.3521 36.8423M48.5727 37.058C48.5727 37.058 48.6381 36.2696 48.6267 35.7639C48.6025 34.698 48.2339 34.1335 48.1953 33.0679C48.1839 32.7523 48.1953 32.575 48.1953 32.2591M48.5727 37.058L48.0066 37.1659M53.4795 36.9502L54.0187 37.058C54.0187 37.058 54.6814 37.1655 55.0971 37.2737C56.0658 37.5258 56.6906 37.6155 57.4695 38.2443C57.799 38.5103 57.9296 38.7187 58.2244 39.0227M53.4795 36.9502L52.9403 36.8423C52.9403 36.8423 51.3495 36.6784 50.3521 36.8423M53.4795 36.9502C53.4795 36.9502 53.811 35.7679 54.0187 35.0091L54.1363 34.5777M51.4844 19.4262L52.4011 20.7742L54.0187 24.3329L54.6657 26.5975V32.6366L54.401 33.6071M51.4844 19.4262L53.5873 18.833H56.0676L58.2244 19.9114L59.195 22.6074L60.3812 25.9505L60.8126 29.4014V32.6366C60.8126 32.6366 60.6373 33.4253 60.525 33.9307M60.3812 34.5777L59.195 36.8423C59.195 36.8423 58.164 37.2882 57.4695 37.2737C56.6183 37.2559 56.0844 37.0618 55.4206 36.5286M60.3812 34.5777C60.3812 34.5777 60.4689 34.1833 60.525 33.9307M60.3812 34.5777C60.3812 34.5777 59.8917 35.6836 59.6263 36.411L59.195 37.7051C59.195 37.7051 58.6035 38.5081 58.2244 39.0227M54.1363 34.5777L55.0971 36.411C55.0971 36.411 55.2942 36.4827 55.4206 36.5286M54.1363 34.5777L54.401 33.6071M46.9551 45.7931C46.9551 45.7931 46.197 45.8403 45.715 45.7931C44.5618 45.68 43.8271 45.5321 42.9111 44.8225C42.4162 44.4391 41.8327 43.6363 41.8327 43.6363V43.0971M46.9551 45.7931C46.9551 45.7931 47.7115 45.7699 48.1953 45.7931C49.4332 45.8524 50.0845 46.2787 51.3227 46.3323C51.7434 46.3505 51.9803 46.3505 52.4011 46.3323M54.401 33.6071C54.401 33.6071 54.0239 32.5696 53.4795 32.2052C52.9441 31.8469 52.506 31.8729 51.8619 31.8817C51.2589 31.89 50.8266 31.8331 50.3521 32.2052C49.9656 32.5083 49.838 32.8108 49.7051 33.2836V34.5777C49.7051 34.5777 49.6533 35.1075 49.7051 35.4404C49.7976 36.0363 49.9587 36.3853 50.3521 36.8423M60.525 33.9307C60.3483 33.0984 59.9548 32.5879 59.195 32.2052C58.4051 31.8074 57.7204 31.8078 56.9303 32.2052C56.4773 32.4331 56.2802 32.6749 55.9598 33.0679C55.7087 33.3759 55.6046 33.5313 55.4206 33.9307C55.2366 34.33 55.0971 35.0091 55.0971 35.0091C55.0476 35.6138 55.129 35.9965 55.4206 36.5286M48.1953 32.2591C48.1953 31.9433 48.1953 31.4503 48.1953 31.4503C48.1953 31.4503 47.5869 29.6757 47.197 28.5386M48.1953 32.2591C47.4372 32.4908 46.9624 32.4963 46.2542 32.8523C45.6068 33.1776 45.0415 33.2698 44.7444 33.9307C44.5027 34.4684 44.7444 34.8508 44.7444 35.4404C44.7444 36.0721 44.4985 36.4761 44.7444 37.058C44.8626 37.3378 45.1758 37.7051 45.1758 37.7051M49.4894 27.4602C50.4159 27.4602 50.9353 27.4602 51.8619 27.4602M56.9303 26.8132C57.5199 26.8132 57.8505 26.8132 58.4401 26.8132M43.019 29.7249C43.5243 29.2616 43.6791 28.7996 44.3131 28.5386C45.014 28.2501 45.4961 28.5386 46.2542 28.5386C46.6224 28.5386 46.8288 28.5386 47.197 28.5386M37.5191 33.2836L38.8132 32.2052M48.0066 37.1659L42.594 39.9697M42.594 39.9697L41.8327 41.2638V43.0971M52.4011 46.3323C52.4011 46.8798 52.4011 47.7342 52.4011 47.7342L52.9403 49.5675M52.4011 46.3323C52.8643 46.8798 53.5873 47.7342 53.5873 47.7342L54.3422 48.3812M54.3422 48.3812L55.0971 49.0283L55.7441 49.3518L54.3422 48.3812ZM38.1662 48.3812C38.9187 47.3664 39.3437 46.7997 40.1073 45.7931C40.652 45.075 41.1234 44.7743 41.5092 43.9598C41.6632 43.6346 41.8327 43.0971 41.8327 43.0971M29.3818 36.8423C30.5382 36.8423 31.3011 37.3442 32.3428 36.8423M48.8423 63.5867C49.811 63.5867 50.3658 63.7369 51.3227 63.5867C51.9685 63.4853 52.3434 63.4222 52.9403 63.1553C53.3886 62.9548 54.0187 62.5083 54.0187 62.5083" stroke="#725050" stroke-width="0.3"/>
</g>
</g>
<defs>
<filter id="filter0_dd_140_42" x="0" y="0" width="91" height="98" filterUnits="userSpaceOnUse" color-interpolation-filters="sRGB">
<feFlood flood-opacity="0" result="BackgroundImageFix"/>
<feColorMatrix in="SourceAlpha" type="matrix" values="0 0 0 0 0 0 0 0 0 0 0 0 0 0 0 0 0 0 127 0" result="hardAlpha"/>
<feOffset dy="4"/>
<feGaussianBlur stdDeviation="2"/>
<feComposite in2="hardAlpha" operator="out"/>
<feColorMatrix type="matrix" values="0 0 0 0 0 0 0 0 0 0 0 0 0 0 0 0 0 0 0.25 0"/>
<feBlend mode="normal" in2="BackgroundImageFix" result="effect1_dropShadow_140_42"/>
<feColorMatrix in="SourceAlpha" type="matrix" values="0 0 0 0 0 0 0 0 0 0 0 0 0 0 0 0 0 0 127 0" result="hardAlpha"/>
<feOffset dy="4"/>
<feGaussianBlur stdDeviation="2"/>
<feComposite in2="hardAlpha" operator="out"/>
<feColorMatrix type="matrix" values="0 0 0 0 0 0 0 0 0 0 0 0 0 0 0 0 0 0 0.25 0"/>
<feBlend mode="normal" in2="effect1_dropShadow_140_42" result="effect2_dropShadow_140_42"/>
<feBlend mode="normal" in="SourceGraphic" in2="effect2_dropShadow_140_42" result="shape"/>
</filter>
<filter id="filter1_d_140_42" x="0" y="0" width="91" height="98" filterUnits="userSpaceOnUse" color-interpolation-filters="sRGB">
<feFlood flood-opacity="0" result="BackgroundImageFix"/>
<feColorMatrix in="SourceAlpha" type="matrix" values="0 0 0 0 0 0 0 0 0 0 0 0 0 0 0 0 0 0 127 0" result="hardAlpha"/>
<feOffset dy="4"/>
<feGaussianBlur stdDeviation="2"/>
<feComposite in2="hardAlpha" operator="out"/>
<feColorMatrix type="matrix" values="0 0 0 0 0 0 0 0 0 0 0 0 0 0 0 0 0 0 0.25 0"/>
<feBlend mode="normal" in2="BackgroundImageFix" result="effect1_dropShadow_140_42"/>
<feBlend mode="normal" in="SourceGraphic" in2="effect1_dropShadow_140_42" result="shape"/>
</filter>
<filter id="filter2_dd_140_42" x="24.8497" y="16.8497" width="42.0841" height="68.3" filterUnits="userSpaceOnUse" color-interpolation-filters="sRGB">
<feFlood flood-opacity="0" result="BackgroundImageFix"/>
<feColorMatrix in="SourceAlpha" type="matrix" values="0 0 0 0 0 0 0 0 0 0 0 0 0 0 0 0 0 0 127 0" result="hardAlpha"/>
<feOffset dy="4"/>
<feGaussianBlur stdDeviation="2"/>
<feComposite in2="hardAlpha" operator="out"/>
<feColorMatrix type="matrix" values="0 0 0 0 0 0 0 0 0 0 0 0 0 0 0 0 0 0 0.25 0"/>
<feBlend mode="normal" in2="BackgroundImageFix" result="effect1_dropShadow_140_42"/>
<feColorMatrix in="SourceAlpha" type="matrix" values="0 0 0 0 0 0 0 0 0 0 0 0 0 0 0 0 0 0 127 0" result="hardAlpha"/>
<feOffset dy="4"/>
<feGaussianBlur stdDeviation="2"/>
<feComposite in2="hardAlpha" operator="out"/>
<feColorMatrix type="matrix" values="0 0 0 0 0 0 0 0 0 0 0 0 0 0 0 0 0 0 0.25 0"/>
<feBlend mode="normal" in2="effect1_dropShadow_140_42" result="effect2_dropShadow_140_42"/>
<feBlend mode="normal" in="SourceGraphic" in2="effect2_dropShadow_140_42" result="shape"/>
</filter>
</defs>
</svg>
