<svg width="91" height="98" viewBox="0 0 91 98" fill="none" xmlns="http://www.w3.org/2000/svg">
<g filter="url(#filter0_dd_144_80)">
<g filter="url(#filter1_d_144_80)">
<ellipse cx="45.5" cy="45" rx="41.5" ry="45" fill="#D9D9D9"/>
</g>
<g filter="url(#filter2_dd_144_80)">
<path d="M37.4039 66.7167C37.5064 65.5669 37.5064 64.9109 37.4039 63.7611L34.9407 61.0167L33.013 57.0056L31.7279 52.4667L30.8711 48.35V43.7056V39.6944L31.2505 36.4222L31.2995 36C31.2995 36 31.8865 33.7615 32.1562 32.3056C32.3613 31.1987 32.3776 30.562 32.5846 29.4556C32.7319 28.6684 33.013 27.45 33.013 27.45L34.5123 26.3944C34.5123 26.3944 35.5972 25.7652 36.333 25.4444V22.9111C36.333 21.9218 36.6866 21.3421 37.4039 20.6944C38.0114 20.1459 38.5523 20.1132 39.3316 19.85C39.9459 19.6426 40.2889 19.4167 40.9381 19.4278C42.1793 19.4489 42.5699 20.4571 43.6154 21.1167L44.6864 18.7944L46.507 17.6333L48.6489 17H50.5767L52.2902 18.0556L53.2005 19.375L55.2889 18.7944H57.752L59.894 19.85L60.8578 22.4889L62.0359 25.7611L62.4642 29.1389V32.3056L62.1787 33.5722L62.0359 34.2056C62.0359 34.2056 61.5497 35.288 61.2862 36L60.8578 37.2667L59.894 38.5564C61.0868 39.456 61.6958 40.0749 62.5713 41.2778C63.3458 42.3417 63.8434 42.9661 64.1778 44.2333C64.5357 45.5898 64.4692 46.4504 64.1778 47.8222C63.8671 49.2848 63.1695 49.9325 62.5713 51.3055C61.8605 52.9374 61.6023 53.9105 60.8578 55.5278C60.2396 56.8708 60.1426 57.807 59.1443 58.9056C58.0913 60.0643 57.0556 60.1922 55.7172 61.0167V61.5444C55.7172 61.5444 55.7472 63.7321 55.7172 65.1333C55.6598 67.8172 57.0259 69.9267 55.2889 71.9944C53.9997 73.529 52.4734 73.4167 50.5767 74.1055C48.3394 74.9181 47.0676 75.5688 44.6864 75.6889C42.5776 75.7952 41.2876 75.734 39.3316 74.95C38.0626 74.4413 36.921 74.3751 36.333 73.1555C35.7338 71.9129 36.6397 71.0295 36.8684 69.6722C37.0633 68.5156 37.2998 67.8846 37.4039 66.7167Z" fill="#ECCCC0"/>
<path d="M37.4039 63.7611C37.5064 64.9109 37.5064 65.5669 37.4039 66.7167C37.2998 67.8846 37.0633 68.5156 36.8684 69.6722C36.6397 71.0295 35.7338 71.9129 36.333 73.1555C36.921 74.3751 38.0626 74.4413 39.3316 74.95C41.2876 75.734 42.5776 75.7952 44.6864 75.6889C47.0676 75.5688 48.3394 74.9181 50.5767 74.1055C52.4734 73.4167 53.9997 73.529 55.2889 71.9944C57.0259 69.9267 55.6598 67.8172 55.7172 65.1333C55.7472 63.7321 55.7172 61.5444 55.7172 61.5444M37.4039 63.7611C36.442 62.6893 34.9407 61.0167 34.9407 61.0167L33.013 57.0056L31.7279 52.4667L30.8711 48.35V43.7056M37.4039 63.7611C38.7163 64.23 39.5437 64.3536 40.9381 64.2889C42.0032 64.2395 42.5786 64.0062 43.6154 63.7611C44.3948 63.5769 44.8719 63.5706 45.5967 63.2333C46.2629 62.9233 46.5432 62.59 47.1496 62.1778M55.7172 61.0167C57.0556 60.1922 58.0913 60.0643 59.1443 58.9056C60.1426 57.807 60.2396 56.8708 60.8578 55.5278C61.6023 53.9105 61.8605 52.9374 62.5713 51.3056C63.1695 49.9325 63.8671 49.2848 64.1778 47.8222C64.4692 46.4504 64.5357 45.5898 64.1778 44.2333C63.8434 42.9661 63.3458 42.3417 62.5713 41.2778C61.6958 40.0749 61.0868 39.456 59.894 38.5564M55.7172 61.0167C55.5499 61.0167 55.2889 61.0167 55.2889 61.0167C55.2889 61.0167 53.4065 61.3654 52.2902 61.0167C51.2286 60.685 50.8798 60.0129 49.9341 59.4333C48.9957 58.8583 48.1845 58.8926 47.4709 58.0611C46.7786 57.2544 46.782 56.549 46.507 55.5278C46.246 54.5584 46.0666 53.9973 46.0786 52.9944C46.0966 51.494 46.6786 50.7269 47.1496 49.3C47.688 47.669 48.7025 45.1833 48.7025 45.1833M55.7172 61.0167C55.7172 61.2228 55.7172 61.5444 55.7172 61.5444M49.1844 36.8444C48.1388 37.2154 46.507 37.7944 46.507 37.7944C46.507 37.7944 45.9522 38.1483 45.5967 38.375M49.1844 36.8444C49.404 36.8032 49.7467 36.7389 49.7467 36.7389M49.1844 36.8444C49.5489 37.4025 49.7174 37.7466 49.9341 38.375C50.2405 39.2637 50.3089 40.75 50.3089 40.75L49.7467 41.5944C49.3964 42.0187 49.2103 42.3238 48.7025 42.5444C48.071 42.8188 47.5898 42.7604 46.9354 42.5444C46.3245 42.3428 46.0481 42.0475 45.5967 41.5944C44.9216 40.9167 44.3714 39.4833 44.3714 39.4833M44.6864 38.9556C44.8642 38.8422 45.1416 38.6653 45.1416 38.6653M44.6864 38.9556C43.9754 39.1617 43.602 39.3993 42.8658 39.4833C42.3672 39.5402 42.0735 39.5765 41.5806 39.4833C41.0467 39.3824 40.7652 39.2254 40.2955 38.9556C39.6802 38.602 39.455 38.2383 38.9033 37.7944C38.3264 37.3304 37.4039 36.6333 37.4039 36.6333C36.8602 36.1387 36.5554 35.8613 36.0117 35.3667C36.0117 35.3667 35.5548 34.9163 35.262 34.6278C34.7699 34.3044 34.5191 34.0573 34.1911 33.5722C33.9836 33.2654 33.8872 33.0755 33.7627 32.7278M44.6864 38.9556C44.5634 39.1617 44.3714 39.4833 44.3714 39.4833M56.7882 45.7111C55.7426 45.7111 55.1564 45.7111 54.1108 45.7111M30.8711 43.7056V39.6944C30.8711 39.6944 31.1023 37.7001 31.2505 36.4222M30.8711 43.7056L33.7627 43.3889C34.3482 43.0591 34.6765 42.8742 35.262 42.5444C35.262 42.5444 35.9065 41.9242 36.8684 41.5944C37.8304 41.2647 38.3697 41.0798 39.3316 40.75C39.3316 40.75 40.3111 40.4941 40.9381 40.3278C41.859 40.0835 42.363 39.8977 43.2942 39.6944C43.7129 39.603 44.3714 39.4833 44.3714 39.4833M36.333 25.4444C35.5972 25.7652 34.5123 26.3944 34.5123 26.3944L33.013 27.45C33.013 27.45 32.7319 28.6684 32.5846 29.4556C32.3776 30.562 32.3613 31.1987 32.1562 32.3056C31.8865 33.7615 31.2995 36 31.2995 36C31.2995 36 31.2696 36.2573 31.2505 36.4222M36.333 25.4444C37.0858 25.5681 38.2607 25.7611 38.2607 25.7611L40.2955 27.9778L42.4374 30.7222L43.6154 32.7278C43.6154 32.7278 44.2682 33.8858 44.6864 34.6278M36.333 25.4444C36.333 24.4551 36.333 23.9004 36.333 22.9111C36.333 21.9218 36.6866 21.3421 37.4039 20.6944C38.0114 20.1459 38.5523 20.1132 39.3316 19.85C39.9459 19.6426 40.2889 19.4167 40.9381 19.4278C42.1793 19.4489 42.5699 20.4571 43.6154 21.1167M44.6864 34.6278C44.6864 34.9988 44.6093 35.2146 44.6864 35.5778C44.8054 36.1383 45.2529 36.301 45.4361 36.8444C45.6283 37.4147 45.534 37.7773 45.5967 38.375M44.6864 34.6278C44.1188 34.8674 43.8096 35.0315 43.2942 35.3667C42.945 35.5937 42.6412 35.64 42.4374 36C42.1928 36.4319 42.3436 36.7807 42.4374 37.2667C42.5252 37.7217 42.8658 38.375 42.8658 38.375L43.6154 38.7444C44.0737 38.8363 44.3393 38.4238 44.7935 38.5333C44.935 38.5674 45.1416 38.6653 45.1416 38.6653M45.5967 38.375L45.1416 38.6653M43.6154 21.1167C44.3892 21.8174 45.5967 22.9111 45.5967 22.9111L47.1496 25.1278L48.6489 27.45C48.6489 27.45 48.828 27.9647 48.9427 28.2944M43.6154 21.1167C44.0337 20.2098 44.6864 18.7944 44.6864 18.7944L46.507 17.6333L48.6489 17H50.5767L52.2902 18.0556L53.2005 19.375M50.3089 36.6333L51.4334 36.4222C51.4334 36.4222 51.825 36.4222 52.076 36.4222M50.3089 36.6333C50.3089 36.6333 50.3739 35.8616 50.3625 35.3667C50.3384 34.3233 49.9724 33.7707 49.9341 32.7278C49.9227 32.4188 49.9341 32.2453 49.9341 31.9361M50.3089 36.6333L49.7467 36.7389M55.1818 36.5278L55.7172 36.6333C55.7172 36.6333 56.3754 36.7386 56.7882 36.8444C57.7503 37.0912 58.3708 37.179 59.1443 37.7944C59.4715 38.0548 59.6012 38.2588 59.894 38.5564M55.1818 36.5278L54.6463 36.4222C54.6463 36.4222 53.0665 36.2617 52.076 36.4222M55.1818 36.5278C55.1818 36.5278 55.511 35.3706 55.7172 34.6278L55.8341 34.2056M53.2005 19.375L54.1108 20.6944L55.7172 24.1778L56.3598 26.3944V32.3056L56.0969 33.2556M53.2005 19.375L55.2889 18.7944H57.752L59.894 19.85L60.8578 22.4889L62.0359 25.7611L62.4642 29.1389V32.3056C62.4642 32.3056 62.2902 33.0776 62.1787 33.5722M62.0359 34.2056L60.8578 36.4222C60.8578 36.4222 59.8339 36.8586 59.1443 36.8444C58.2989 36.8271 57.7687 36.637 57.1095 36.1151M62.0359 34.2056C62.0359 34.2056 62.1229 33.8196 62.1787 33.5722M62.0359 34.2056C62.0359 34.2056 61.5497 35.288 61.2862 36L60.8578 37.2667C60.8578 37.2667 60.2704 38.0527 59.894 38.5564M55.8341 34.2056L56.7882 36C56.7882 36 56.984 36.0702 57.1095 36.1151M55.8341 34.2056L56.0969 33.2556M48.7025 45.1833C48.7025 45.1833 47.9496 45.2296 47.4709 45.1833C46.3257 45.0727 45.5961 44.9279 44.6864 44.2333C44.1949 43.858 43.6154 43.0722 43.6154 43.0722V42.5444M48.7025 45.1833C48.7025 45.1833 49.4537 45.1606 49.9341 45.1833C51.1634 45.2414 51.8102 45.6587 53.0398 45.7111C53.4577 45.7289 53.693 45.7289 54.1108 45.7111M56.0969 33.2556C56.0969 33.2556 55.7225 32.24 55.1818 31.8833C54.6501 31.5326 54.215 31.558 53.5753 31.5667C52.9766 31.5747 52.5472 31.5191 52.076 31.8833C51.6922 32.18 51.5655 32.4761 51.4334 32.9389V34.2056C51.4334 34.2056 51.3821 34.7241 51.4334 35.05C51.5253 35.6332 51.6853 35.9749 52.076 36.4222M62.1787 33.5722C62.0032 32.7576 61.6124 32.2579 60.8578 31.8833C60.0734 31.4939 59.3934 31.4943 58.6088 31.8833C58.1589 32.1064 57.9632 32.343 57.645 32.7278C57.3957 33.0292 57.2922 33.1814 57.1095 33.5722C56.9267 33.9631 56.7882 34.6278 56.7882 34.6278C56.739 35.2197 56.82 35.5943 57.1095 36.1151M49.9341 31.9361C49.9341 31.6269 49.9341 31.1444 49.9341 31.1444C49.9341 31.1444 49.3298 29.4074 48.9427 28.2944M49.9341 31.9361C49.1813 32.1628 48.7097 32.1682 48.0064 32.5167C47.3634 32.8352 46.8021 32.9254 46.507 33.5722C46.267 34.0986 46.507 34.4729 46.507 35.05C46.507 35.6683 46.2629 36.0638 46.507 36.6333C46.6244 36.9071 46.9354 37.2667 46.9354 37.2667M51.2192 27.2389C52.1393 27.2389 52.6552 27.2389 53.5753 27.2389M58.6088 26.6056C59.1943 26.6056 59.5226 26.6056 60.1081 26.6056M44.7935 29.4556C45.2954 29.0021 45.4491 28.5499 46.0786 28.2944C46.7748 28.012 47.2535 28.2944 48.0064 28.2944C48.372 28.2944 48.577 28.2944 48.9427 28.2944M39.3316 32.9389L40.6168 31.8833M49.7467 36.7389L44.3714 39.4833M44.3714 39.4833L43.6154 40.75V42.5444M54.1108 45.7111C54.1108 46.247 54.1108 47.0833 54.1108 47.0833L54.6463 48.8778M54.1108 45.7111C54.5709 46.247 55.2889 47.0833 55.2889 47.0833L56.0385 47.7167M56.0385 47.7167L56.7882 48.35L57.4308 48.6667L56.0385 47.7167ZM39.9742 47.7167C40.7215 46.7233 41.1436 46.1686 41.9019 45.1833C42.4429 44.4805 42.9111 44.1862 43.2942 43.3889C43.4471 43.0706 43.6154 42.5444 43.6154 42.5444M31.2505 36.4222C32.3989 36.4222 33.1565 36.9135 34.1911 36.4222M50.5767 62.6C51.5386 62.6 52.0896 62.747 53.0398 62.6C53.6813 62.5007 54.0536 62.439 54.6463 62.1778C55.0915 61.9815 55.7172 61.5444 55.7172 61.5444" stroke="#725050" stroke-width="0.3"/>
</g>
</g>
<defs>
<filter id="filter0_dd_144_80" x="0" y="0" width="91" height="98" filterUnits="userSpaceOnUse" color-interpolation-filters="sRGB">
<feFlood flood-opacity="0" result="BackgroundImageFix"/>
<feColorMatrix in="SourceAlpha" type="matrix" values="0 0 0 0 0 0 0 0 0 0 0 0 0 0 0 0 0 0 127 0" result="hardAlpha"/>
<feOffset dy="4"/>
<feGaussianBlur stdDeviation="2"/>
<feComposite in2="hardAlpha" operator="out"/>
<feColorMatrix type="matrix" values="0 0 0 0 0 0 0 0 0 0 0 0 0 0 0 0 0 0 0.25 0"/>
<feBlend mode="normal" in2="BackgroundImageFix" result="effect1_dropShadow_144_80"/>
<feColorMatrix in="SourceAlpha" type="matrix" values="0 0 0 0 0 0 0 0 0 0 0 0 0 0 0 0 0 0 127 0" result="hardAlpha"/>
<feOffset dy="4"/>
<feGaussianBlur stdDeviation="2"/>
<feComposite in2="hardAlpha" operator="out"/>
<feColorMatrix type="matrix" values="0 0 0 0 0 0 0 0 0 0 0 0 0 0 0 0 0 0 0.25 0"/>
<feBlend mode="normal" in2="effect1_dropShadow_144_80" result="effect2_dropShadow_144_80"/>
<feBlend mode="normal" in="SourceGraphic" in2="effect2_dropShadow_144_80" result="shape"/>
</filter>
<filter id="filter1_d_144_80" x="0" y="0" width="91" height="98" filterUnits="userSpaceOnUse" color-interpolation-filters="sRGB">
<feFlood flood-opacity="0" result="BackgroundImageFix"/>
<feColorMatrix in="SourceAlpha" type="matrix" values="0 0 0 0 0 0 0 0 0 0 0 0 0 0 0 0 0 0 127 0" result="hardAlpha"/>
<feOffset dy="4"/>
<feGaussianBlur stdDeviation="2"/>
<feComposite in2="hardAlpha" operator="out"/>
<feColorMatrix type="matrix" values="0 0 0 0 0 0 0 0 0 0 0 0 0 0 0 0 0 0 0.25 0"/>
<feBlend mode="normal" in2="BackgroundImageFix" result="effect1_dropShadow_144_80"/>
<feBlend mode="normal" in="SourceGraphic" in2="effect1_dropShadow_144_80" result="shape"/>
</filter>
<filter id="filter2_dd_144_80" x="26.7212" y="16.85" width="41.8506" height="67.0289" filterUnits="userSpaceOnUse" color-interpolation-filters="sRGB">
<feFlood flood-opacity="0" result="BackgroundImageFix"/>
<feColorMatrix in="SourceAlpha" type="matrix" values="0 0 0 0 0 0 0 0 0 0 0 0 0 0 0 0 0 0 127 0" result="hardAlpha"/>
<feOffset dy="4"/>
<feGaussianBlur stdDeviation="2"/>
<feComposite in2="hardAlpha" operator="out"/>
<feColorMatrix type="matrix" values="0 0 0 0 0 0 0 0 0 0 0 0 0 0 0 0 0 0 0.25 0"/>
<feBlend mode="normal" in2="BackgroundImageFix" result="effect1_dropShadow_144_80"/>
<feColorMatrix in="SourceAlpha" type="matrix" values="0 0 0 0 0 0 0 0 0 0 0 0 0 0 0 0 0 0 127 0" result="hardAlpha"/>
<feOffset dy="4"/>
<feGaussianBlur stdDeviation="2"/>
<feComposite in2="hardAlpha" operator="out"/>
<feColorMatrix type="matrix" values="0 0 0 0 0 0 0 0 0 0 0 0 0 0 0 0 0 0 0.25 0"/>
<feBlend mode="normal" in2="effect1_dropShadow_144_80" result="effect2_dropShadow_144_80"/>
<feBlend mode="normal" in="SourceGraphic" in2="effect2_dropShadow_144_80" result="shape"/>
</filter>
</defs>
</svg>
