<svg width="91" height="98" viewBox="0 0 91 98" fill="none" xmlns="http://www.w3.org/2000/svg">
<g filter="url(#filter0_dd_163_389)">
<ellipse cx="45.5" cy="45" rx="41.5" ry="45" fill="#D9D9D9"/>
</g>
<g filter="url(#filter1_ddd_163_389)">
<path d="M30.5557 83.0294L27.9718 81.2822L25.0188 79.535C25.0188 79.535 25.6989 76.5192 26.1261 74.5847C26.3437 73.5995 26.5866 73.0677 26.6798 72.061C26.7497 71.3065 26.6798 70.8778 26.6798 70.1197V67.7902C26.6798 66.6151 26.772 65.9522 26.6798 64.7812C26.5771 63.4769 26.3831 62.7615 26.1261 61.481C25.9041 60.3745 25.681 59.777 25.4802 58.6661C25.1954 57.091 25.0875 56.191 25.0188 54.5894C24.9765 53.6048 25.0188 53.0512 25.0188 52.0657V48.6684V46.8242L25.2495 45.3682C25.2495 45.3682 25.3415 44.4699 25.4802 43.9122C25.6562 43.2039 26.1261 42.1651 26.1261 42.1651L27.9718 40.4179C27.9718 40.4179 28.8091 39.7237 29.4483 39.5443C30.1099 39.3587 30.5277 39.672 31.2016 39.5443C31.9656 39.3996 33.0473 38.7678 33.0473 38.7678C33.0473 38.7678 33.6846 38.3727 33.9701 37.9913C34.4143 37.3978 34.0837 36.7438 34.5238 36.147C35.0279 35.4634 36.3694 35.0793 36.3694 35.0793C36.9084 34.7729 37.1614 34.4678 37.7536 34.3028C38.4155 34.1184 39.507 34.3028 39.507 34.3028C40.0652 34.4725 40.7989 35.0793 40.7989 35.0793L41.6294 34.3028C42.3316 33.5994 42.3622 32.6562 43.2905 32.3615C43.808 32.1972 44.6747 32.3615 44.6747 32.3615C45.3616 32.2435 45.6871 31.9474 46.3358 31.682V29.3525V26.3435V22.9462V19.9372L46.2315 18.6754C46.128 17.4245 46.0868 16.7215 45.9667 15.4722C45.7876 13.6104 44.6001 12.3806 45.413 10.716C45.763 9.99919 45.9994 9.47722 46.7049 9.163C47.3354 8.8822 47.7872 9.01976 48.4583 9.163C49.5667 9.39961 50.1861 9.83858 50.9499 10.716C51.7999 11.6926 51.8581 12.5611 52.2418 13.8221C52.8849 15.9359 52.98 19.4519 52.98 19.4519L53.8106 27.4112L54.4565 37.9913C54.7234 41.1056 55.2048 42.8248 55.2871 45.9506C55.315 47.0115 55.2871 48.6684 55.2871 48.6684C55.2871 48.6684 54.5135 50.5911 55.2871 50.998C55.6739 51.2014 55.9651 51.0526 56.3945 50.998C57.4989 50.8574 57.9393 50.1545 58.9783 49.7361C60.3421 49.187 61.3824 49.5513 62.5773 48.6684C63.0365 48.3291 63.6385 47.6492 63.6385 47.6492L64.6998 46.63C65.6366 45.8089 65.9503 45.127 67.2837 44.7858L70.6981 43.9122C70.6981 43.9122 72.224 43.7869 73.1897 43.9122C74.3786 44.0666 75.3321 43.858 76.1427 44.7858C76.806 45.5451 77.2154 46.3402 76.8809 47.3095C76.6287 48.0406 76.0839 48.1957 75.4967 48.6684C74.4343 49.5235 73.5231 49.4763 72.4514 50.3185C71.6958 50.9123 71.3806 51.3809 70.6981 52.0657C69.7206 53.0463 69.2394 53.6738 68.2065 54.5894C66.9219 55.728 66.0643 56.1793 64.6998 57.2101C63.6517 58.0018 63.0751 58.4618 62.0236 59.2485C60.8423 60.1322 59.9863 60.3851 58.9783 61.481C57.9636 62.5842 57.9072 63.624 56.9481 64.7812C56.0927 65.8134 55.497 66.2876 54.4565 67.1107C53.1773 68.1228 52.3873 68.6022 50.9499 69.3432C49.73 69.972 48.9813 70.1714 47.72 70.7021L46.7049 72.9346L45.413 76.2348L44.6747 79.535L40.7989 81.8646L37.7536 83.0294L33.9701 84L30.5557 83.0294Z" fill="#ECCCC0"/>
<path d="M27.9718 81.2822L25.4802 79.535H25.0188M27.9718 81.2822L30.5557 83.0294L33.9701 84L37.7536 83.0294L40.7989 81.8646L44.6747 79.535L45.413 76.2348L46.7049 72.9346C46.7049 72.9346 47.3236 71.574 47.72 70.7021M27.9718 81.2822L25.0188 79.535M47.72 70.7021C48.9813 70.1714 49.73 69.972 50.9499 69.3432C52.3873 68.6022 53.1773 68.1228 54.4565 67.1107C55.497 66.2876 56.0927 65.8134 56.9481 64.7812C57.9072 63.624 57.9636 62.5842 58.9783 61.481C59.9863 60.3851 60.8423 60.1322 62.0236 59.2485C63.0751 58.4618 63.6517 58.0018 64.6998 57.2101C66.0643 56.1793 66.9219 55.728 68.2065 54.5894C69.2394 53.6738 69.7206 53.0463 70.6981 52.0657C71.3806 51.3809 71.6958 50.9123 72.4514 50.3185C73.5231 49.4763 74.4343 49.5235 75.4967 48.6684C76.0839 48.1957 76.6287 48.0406 76.8809 47.3095C77.2154 46.3402 76.806 45.5451 76.1427 44.7858C75.3321 43.858 74.3786 44.0666 73.1897 43.9122C72.224 43.7869 70.6981 43.9122 70.6981 43.9122C69.3647 44.2534 68.6171 44.4446 67.2837 44.7858C65.9503 45.127 65.6366 45.8089 64.6998 46.63L63.6385 47.6492M47.72 70.7021C46.823 70.7905 46.31 70.7905 45.413 70.7021C44.3504 70.5975 43.6653 70.6732 42.7368 70.1197C41.7369 69.5237 40.7989 67.7902 40.7989 67.7902C39.9776 66.3935 39.6891 65.4416 39.507 63.8105C39.4061 62.907 39.3423 62.3741 39.507 61.481C39.7278 60.2826 40.3402 59.7874 40.7989 58.6661C41.1507 57.8061 42.1688 57.1783 41.6294 56.4336L41.168 56.0453M53.8106 27.4112C54.0628 31.543 54.4565 37.9913 54.4565 37.9913C54.7234 41.1056 55.2048 42.8248 55.2871 45.9506C55.315 47.0115 55.2871 48.6684 55.2871 48.6684C55.2871 48.6684 54.5135 50.5911 55.2871 50.998C55.6739 51.2014 55.9651 51.0526 56.3945 50.998C57.4989 50.8574 57.9393 50.1545 58.9783 49.7361C60.3421 49.187 61.3824 49.5513 62.5773 48.6684C63.0365 48.3291 63.6385 47.6492 63.6385 47.6492M53.8106 27.4112C53.4862 24.3029 52.98 19.4519 52.98 19.4519M53.8106 27.4112C53.4862 27.4112 53.3031 27.442 52.98 27.4112C51.9336 27.3115 51.5247 26.5261 50.4884 26.3435C49.7065 26.2056 49.2511 26.3435 48.4583 26.3435C47.7735 26.3435 47.3896 26.3435 46.7049 26.3435M52.98 19.4519C52.98 19.4519 52.8849 15.9359 52.2418 13.8221C51.8581 12.5611 51.7999 11.6926 50.9499 10.716C50.1861 9.83858 49.5667 9.39961 48.4583 9.163C47.7872 9.01976 47.3354 8.8822 46.7049 9.163C45.9994 9.47722 45.763 9.99919 45.413 10.716C44.6001 12.3806 45.7876 13.6104 45.9667 15.4722C46.0868 16.7215 46.128 17.4245 46.2315 18.6754M52.98 19.4519C52.98 19.4519 51.4672 19.1202 50.4884 18.9666C49.5556 18.8201 49.0312 18.7249 48.0891 18.6754C47.3646 18.6373 46.956 18.6373 46.2315 18.6754M46.3358 31.682C46.3358 30.7723 46.3358 30.2622 46.3358 29.3525C46.3358 28.1774 46.3358 27.5186 46.3358 26.3435C46.3358 25.0168 46.3358 22.9462 46.3358 22.9462V19.9372C46.3358 19.9372 46.2722 19.1681 46.2315 18.6754M46.3358 31.682C45.6871 31.9474 45.3616 32.2435 44.6747 32.3615C44.6747 32.3615 43.808 32.1972 43.2905 32.3615C42.3622 32.6562 42.3316 33.5994 41.6294 34.3028L40.7989 35.0793M46.3358 31.682L46.7049 32.3615C46.7049 32.3615 47.8806 33.4518 48.4583 34.3028C48.6936 34.6494 48.7957 34.8648 49.0119 35.2249M40.7989 35.0793C40.7989 35.0793 40.0652 34.4725 39.507 34.3028C39.507 34.3028 38.4155 34.1184 37.7536 34.3028C37.1614 34.4678 36.9084 34.7729 36.3694 35.0793C36.3694 35.0793 35.0279 35.4634 34.5238 36.147C34.0837 36.7438 34.4143 37.3978 33.9701 37.9913C33.6846 38.3727 33.0473 38.7678 33.0473 38.7678M40.7989 35.0793L41.6294 41.2915V46.63M33.0473 38.7678C33.0473 38.7678 31.9656 39.3996 31.2016 39.5443C30.5277 39.672 30.1099 39.3587 29.4483 39.5443C28.8091 39.7237 27.9718 40.4179 27.9718 40.4179C27.251 41.1002 26.1261 42.1651 26.1261 42.1651C26.1261 42.1651 25.6562 43.2039 25.4802 43.9122C25.3415 44.4699 25.2495 45.3682 25.2495 45.3682M33.0473 38.7678C33.0473 38.7678 34.0132 40.8087 34.5238 42.1651C35.0692 43.6139 35.3724 44.4366 35.7234 45.9506C36.1715 47.8828 36.3157 49.0099 36.3694 50.998C36.4887 51.5138 36.5887 51.9464 36.6836 52.3569M26.6798 70.1197C26.6798 69.21 26.6798 68.6999 26.6798 67.7902C26.6798 66.6151 26.772 65.9522 26.6798 64.7812C26.5771 63.4769 26.3831 62.7615 26.1261 61.481C25.9041 60.3745 25.681 59.777 25.4802 58.6661C25.1954 57.091 25.0875 56.191 25.0188 54.5894C24.9765 53.6048 25.0188 53.0512 25.0188 52.0657C25.0188 50.7389 25.0188 48.6684 25.0188 48.6684V46.8242L25.2495 45.3682M26.6798 70.1197C26.6798 70.8778 26.7497 71.3065 26.6798 72.061C26.5866 73.0677 26.3437 73.5995 26.1261 74.5847C25.6989 76.5192 25.0188 79.535 25.0188 79.535M26.6798 70.1197C27.761 70.3472 28.3489 70.6146 29.4483 70.7021C30.5477 70.7897 30.518 70.7428 31.2016 70.7021C31.8853 70.6615 33.2264 70.3472 34.5238 70.1197C35.8211 69.8923 36.4203 68.9579 37.1999 67.7902M25.2495 45.3682C25.2495 45.3682 25.9658 46.7129 26.6798 47.3095C27.1348 47.6897 27.41 47.9297 27.9718 48.086C28.5292 48.2411 28.8991 48.2709 29.4483 48.086C29.9433 47.9194 30.219 47.726 30.5557 47.3095M30.5557 47.3095C29.943 46.0586 29.5995 45.3573 28.9869 44.1063M30.5557 47.3095C30.8079 48.2571 31.2016 49.7361 31.2016 49.7361C31.2016 49.7361 31.8765 51.5109 32.309 52.6481C32.5973 53.4062 32.5195 53.9906 33.0473 54.5894C33.497 55.0997 33.9471 55.1218 34.5238 55.4629M34.5238 55.4629C35.1616 55.816 35.7316 55.816 36.3694 55.4629C36.7753 55.2382 37.1999 54.5894 37.1999 54.5894M34.5238 55.4629C34.4157 55.2115 34.3738 55.057 34.3392 54.7835C34.2868 54.3684 34.3509 54.1258 34.4315 53.7158C34.4846 53.4455 34.4914 53.2791 34.6161 53.0363C34.7017 52.8695 34.7626 52.7789 34.8929 52.6481C35.1261 52.414 35.3218 52.3552 35.6312 52.2598C35.91 52.1738 36.3694 52.1627 36.3694 52.1627L36.6836 52.3569M37.1999 54.5894C37.1924 54.5567 37.1849 54.5243 37.1775 54.4923M37.1999 54.5894C37.3661 54.8277 37.7536 55.3835 37.7536 55.3835M42.1831 52.0657C42.1831 52.0657 41.8878 49.1669 41.6986 47.3095M42.1831 52.0657L41.6294 46.63M42.1831 52.0657L42.2754 53.1334M41.6294 46.63C41.6294 46.63 41.6716 47.0441 41.6986 47.3095M38.215 48.6684C39.0079 48.441 39.4824 48.4075 40.2452 48.086C40.8362 47.837 41.1589 47.6645 41.6986 47.3095M48.0891 41.8253C47.945 42.375 47.72 43.2328 47.72 43.2328C47.72 43.2328 47.72 45.4216 47.72 46.8242C47.72 47.5444 47.72 47.9482 47.72 48.6684C47.72 49.9951 47.72 50.7389 47.72 52.0657V53.1334L47.5355 54.2496L47.074 54.9776L46.5204 55.4629C46.5204 55.4629 46.2954 55.5813 46.1512 55.6571M48.0891 41.8253C48.2003 41.2673 48.2817 40.957 48.4583 40.4179C48.7838 39.4241 49.3855 39.0252 49.5656 37.9913C49.6891 37.2828 49.8042 36.8221 49.5656 36.147C49.4246 35.7478 49.2941 35.5304 49.0119 35.2249M48.0891 41.8253C48.6657 41.6168 49.0486 41.6313 49.5656 41.2915C50.2817 40.8208 50.4011 40.2194 50.9499 39.5443C51.4477 38.9318 51.7307 38.5916 52.2418 37.9913M48.4583 43.2328C49.4313 43.2328 50.0551 43.6349 50.9499 43.2328C51.5399 42.9676 51.8572 42.7053 52.2418 42.1651M63.6385 47.6492C63.6385 47.6492 64.8478 48.9211 65.6226 49.7361M58.2401 60.8015L56.9481 56.4336L56.3945 53.4246M49.0119 35.2249C49.7686 35.2404 50.1932 35.2404 50.9499 35.2249C52.0681 35.202 52.6954 35.17 53.8106 35.0793M42.2754 53.1334C42.2754 53.1334 42.2192 53.5475 42.1831 53.8128M42.2754 53.1334C42.2754 53.1334 42.6074 52.6557 42.8291 52.3569C42.971 52.1655 43.03 52.0377 43.1982 51.8715C43.3296 51.7418 43.4034 51.659 43.5674 51.5803C43.7668 51.4846 43.9019 51.4886 44.121 51.4833C44.3758 51.477 44.5361 51.467 44.767 51.5803C44.9303 51.6605 44.9995 51.748 45.1361 51.8715C45.2907 52.0113 45.3611 52.1082 45.5053 52.2598C45.6494 52.4114 45.7415 52.4854 45.8744 52.6481C45.9919 52.7918 46.1086 52.8522 46.1512 53.0363C46.1768 53.1468 46.1433 53.2141 46.1512 53.3275C46.1646 53.5203 46.2239 53.6206 46.2435 53.8128C46.2666 54.039 46.2435 54.1678 46.2435 54.3952C46.2435 54.5468 46.256 54.6324 46.2435 54.7835C46.2276 54.976 46.1672 55.0762 46.1512 55.2688C46.1387 55.4199 46.1387 55.506 46.1512 55.6571M36.6836 52.3569C36.7667 52.7159 36.8458 53.0582 36.9306 53.4246M36.9306 53.4246C37.0062 53.7515 37.0862 54.0977 37.1775 54.4923M36.9306 53.4246L37.1775 54.4923M41.168 56.0453C41.168 56.0453 40.7289 56.2596 40.4298 56.3365C40.078 56.427 40.0241 56.5273 39.507 56.4336C39.507 56.4336 38.6168 56.4004 38.215 56.0453C37.9817 55.8392 37.7536 55.3835 37.7536 55.3835M41.168 56.0453C41.168 56.0453 41.406 55.8213 41.5372 55.6571C41.7043 55.4478 41.7791 55.3131 41.9063 55.0747C41.9851 54.9268 42.045 54.8489 42.0909 54.6864C42.1372 54.5219 42.137 54.2496 42.137 54.2496M42.1831 53.8128C42.1455 53.5269 42.0772 53.3593 41.9063 53.1334C41.7626 52.9435 41.6539 52.848 41.4449 52.7451C41.3417 52.6943 41.2762 52.686 41.168 52.6481C40.9518 52.5722 40.8421 52.462 40.6144 52.4539C40.4307 52.4474 40.1529 52.551 40.1529 52.551C40.1529 52.551 39.7232 52.4373 39.507 52.551C39.2907 52.6647 39.1695 52.7285 38.9533 52.8422C38.7371 52.9559 38.6239 53.1631 38.4919 53.4246C38.3849 53.6363 38.392 53.7844 38.3073 54.007C38.1876 54.3218 38.0566 54.4682 37.9382 54.7835C37.8521 55.0125 37.7536 55.3835 37.7536 55.3835M42.1831 53.8128C42.1651 53.9834 42.137 54.2496 42.137 54.2496M42.137 54.2496C42.137 54.2496 42.4704 54.7374 42.6445 55.0747C42.7215 55.2236 42.8291 55.4629 42.8291 55.4629L43.0137 55.6571L43.3828 55.8512C43.4751 55.8512 43.8442 56.0453 43.9365 56.0453H44.5825C44.6747 56.0453 45.1361 55.9483 45.2284 55.9483C45.2284 55.9483 45.6898 55.8835 45.8744 55.8512C46.059 55.8188 46.0431 55.7329 46.1512 55.6571" stroke="#725050" stroke-width="0.225"/>
</g>
<defs>
<filter id="filter0_dd_163_389" x="0" y="0" width="91" height="98" filterUnits="userSpaceOnUse" color-interpolation-filters="sRGB">
<feFlood flood-opacity="0" result="BackgroundImageFix"/>
<feColorMatrix in="SourceAlpha" type="matrix" values="0 0 0 0 0 0 0 0 0 0 0 0 0 0 0 0 0 0 127 0" result="hardAlpha"/>
<feOffset dy="4"/>
<feGaussianBlur stdDeviation="2"/>
<feComposite in2="hardAlpha" operator="out"/>
<feColorMatrix type="matrix" values="0 0 0 0 0 0 0 0 0 0 0 0 0 0 0 0 0 0 0.25 0"/>
<feBlend mode="normal" in2="BackgroundImageFix" result="effect1_dropShadow_163_389"/>
<feColorMatrix in="SourceAlpha" type="matrix" values="0 0 0 0 0 0 0 0 0 0 0 0 0 0 0 0 0 0 127 0" result="hardAlpha"/>
<feOffset dy="4"/>
<feGaussianBlur stdDeviation="2"/>
<feComposite in2="hardAlpha" operator="out"/>
<feColorMatrix type="matrix" values="0 0 0 0 0 0 0 0 0 0 0 0 0 0 0 0 0 0 0.25 0"/>
<feBlend mode="normal" in2="effect1_dropShadow_163_389" result="effect2_dropShadow_163_389"/>
<feBlend mode="normal" in="SourceGraphic" in2="effect2_dropShadow_163_389" result="shape"/>
</filter>
<filter id="filter1_ddd_163_389" x="20.8875" y="8.88757" width="60.2253" height="83.2289" filterUnits="userSpaceOnUse" color-interpolation-filters="sRGB">
<feFlood flood-opacity="0" result="BackgroundImageFix"/>
<feColorMatrix in="SourceAlpha" type="matrix" values="0 0 0 0 0 0 0 0 0 0 0 0 0 0 0 0 0 0 127 0" result="hardAlpha"/>
<feOffset dy="4"/>
<feGaussianBlur stdDeviation="2"/>
<feComposite in2="hardAlpha" operator="out"/>
<feColorMatrix type="matrix" values="0 0 0 0 0 0 0 0 0 0 0 0 0 0 0 0 0 0 0.25 0"/>
<feBlend mode="normal" in2="BackgroundImageFix" result="effect1_dropShadow_163_389"/>
<feColorMatrix in="SourceAlpha" type="matrix" values="0 0 0 0 0 0 0 0 0 0 0 0 0 0 0 0 0 0 127 0" result="hardAlpha"/>
<feOffset dy="4"/>
<feGaussianBlur stdDeviation="2"/>
<feComposite in2="hardAlpha" operator="out"/>
<feColorMatrix type="matrix" values="0 0 0 0 0 0 0 0 0 0 0 0 0 0 0 0 0 0 0.25 0"/>
<feBlend mode="normal" in2="effect1_dropShadow_163_389" result="effect2_dropShadow_163_389"/>
<feColorMatrix in="SourceAlpha" type="matrix" values="0 0 0 0 0 0 0 0 0 0 0 0 0 0 0 0 0 0 127 0" result="hardAlpha"/>
<feOffset dy="4"/>
<feGaussianBlur stdDeviation="2"/>
<feComposite in2="hardAlpha" operator="out"/>
<feColorMatrix type="matrix" values="0 0 0 0 0 0 0 0 0 0 0 0 0 0 0 0 0 0 0.25 0"/>
<feBlend mode="normal" in2="effect2_dropShadow_163_389" result="effect3_dropShadow_163_389"/>
<feBlend mode="normal" in="SourceGraphic" in2="effect3_dropShadow_163_389" result="shape"/>
</filter>
</defs>
</svg>
