<svg width="91" height="98" viewBox="0 0 91 98" fill="none" xmlns="http://www.w3.org/2000/svg">
<g filter="url(#filter0_dd_140_51)">
<g filter="url(#filter1_d_140_51)">
<ellipse cx="45.5" cy="45" rx="41.5" ry="45" fill="#D9D9D9"/>
</g>
<g filter="url(#filter2_dd_140_51)">
<path d="M72.9635 45.0105C75.6225 47.8147 80.3697 51.573 80.3697 51.573C80.3697 51.573 80.3287 53.5342 80.0885 54.7605C79.8147 56.1581 79.569 56.9403 78.9635 58.2293C78.1689 59.9206 77.5317 60.812 76.2447 62.1668C74.8579 63.6267 73.9404 64.4004 72.1197 65.2605C70.7055 65.9286 69.8189 66.6417 68.276 66.3855C66.0773 66.0205 64.4322 62.1668 64.4322 62.1668H62.1822H57.2135H53.5572L50.4635 61.8855C49.2553 61.7757 48.2311 62.4389 46.9947 61.8855C46.3264 61.5864 46.0805 61.1999 45.4947 60.7605L44.0885 60.2918L41.9322 58.7918L41.1822 57.6668L40.8072 55.323L39.401 54.7605L38.276 54.2918C38.276 54.2918 37.4591 53.7707 37.151 53.2605C36.8019 52.6827 36.776 51.573 36.776 51.573V48.1043L35.0885 47.3543L33.9635 46.0418C32.7553 45.8587 32.0835 45.7141 30.8697 45.573C29.3747 45.3992 28.5277 45.3927 27.026 45.2918C25.1962 45.1688 22.3385 45.0105 22.3385 45.0105L21.9635 44.9871C20.3525 44.8864 19.4473 44.8589 17.8385 44.7293C16.6655 44.6348 15.9437 44.8519 14.8385 44.448C14.0835 44.1721 13.6305 43.9802 13.0572 43.4168C12.5864 42.9542 12.2995 42.6456 12.1197 42.0105C11.9601 41.4469 11.9601 41.0741 12.1197 40.5105C12.2995 39.8755 12.5566 39.5344 13.0572 39.1043C13.7597 38.5007 14.4064 38.5698 15.3072 38.3543C16.4908 38.071 17.1928 38.1257 18.401 37.9793C17.9483 37.1948 17.8083 36.6345 17.8385 35.7293C17.8651 34.9301 17.8848 34.3712 18.401 33.7605C19.029 33.0176 19.8141 33.2001 20.7447 32.9168C23.1246 32.1923 24.573 32.2704 27.026 31.8563C27.3921 31.7949 27.5974 31.7603 27.9635 31.698C29.4291 31.4488 30.2285 31.1149 31.7135 31.0418C32.5913 30.9985 33.0848 31.0747 33.9635 31.0958C37.6583 30.9238 39.7499 30.974 43.4322 31.323C43.8352 31.3612 44.0607 31.3875 44.4635 31.4288L49.4322 31.9384C49.9455 31.9828 50.233 32.0123 50.7447 32.073C53.4542 32.3946 55.0523 32.4731 57.5885 33.4793C59.1259 34.0892 59.9027 34.6268 61.3385 35.448C63.6112 36.748 64.7636 37.6764 66.9582 39.1043C67.8468 39.5782 68.3264 39.8902 69.1197 40.5105C70.9404 41.9341 71.3732 43.3334 72.9635 45.0105Z" fill="#ECCCC0"/>
<path d="M18.401 37.9793C17.9483 37.1948 17.8083 36.6345 17.8385 35.7293C17.8651 34.9301 17.8848 34.3712 18.401 33.7605C19.029 33.0176 19.8141 33.2001 20.7447 32.9168C23.1246 32.1923 24.573 32.2704 27.026 31.8563M18.401 37.9793C19.0966 38.2356 19.4517 38.5095 20.1822 38.6355C20.8677 38.7538 21.278 38.7538 21.9635 38.6355M18.401 37.9793C17.1928 38.1257 16.4908 38.071 15.3072 38.3543C14.4064 38.5698 13.7597 38.5007 13.0572 39.1043C12.5566 39.5344 12.2995 39.8755 12.1197 40.5105C11.9601 41.0741 11.9601 41.4469 12.1197 42.0105C12.2995 42.6456 12.5864 42.9542 13.0572 43.4168C13.6305 43.9802 14.0835 44.1721 14.8385 44.448C15.9437 44.8519 16.6655 44.6348 17.8385 44.7293C19.4473 44.8589 20.3525 44.8864 21.9635 44.9871M39.8697 38.6355C39.8697 38.6355 35.4701 38.4838 32.651 38.3866M39.8697 38.6355C39.8697 38.6355 40.6246 36.8428 41.1822 35.7293C41.6297 34.8357 41.8098 34.285 42.401 33.4793C43.0728 32.5635 43.658 32.2296 44.4635 31.4288M39.8697 38.6355C39.8697 38.6355 39.2983 40.2354 38.9322 41.2605M39.8697 38.6355C39.8697 38.6355 41.1268 38.7035 41.9322 38.747M33.9635 46.0418C32.7553 45.8587 32.0835 45.7141 30.8697 45.573C29.3747 45.3992 28.5277 45.3927 27.026 45.2918C25.1962 45.1688 22.3385 45.0105 22.3385 45.0105C22.3385 45.0105 22.1099 44.9962 21.9635 44.9871M33.9635 46.0418C34.4028 46.5543 35.0885 47.3543 35.0885 47.3543C35.0885 47.3543 36.1169 47.8114 36.776 48.1043M33.9635 46.0418C34.055 45.5292 34.1978 44.7293 34.1978 44.7293M36.776 48.1043C36.776 49.4589 36.776 51.573 36.776 51.573C36.776 51.573 36.8019 52.6827 37.151 53.2605C37.4591 53.7707 38.276 54.2918 38.276 54.2918L39.401 54.7605M36.776 48.1043C38.7896 47.9212 39.9885 48.1924 41.9322 47.6355C43.3974 47.2157 44.2053 46.8543 45.4947 46.0418M39.401 54.7605L40.8072 55.323L41.1822 57.6668L41.9322 58.7918L44.0885 60.2918C44.0885 60.2918 44.9455 60.5775 45.4947 60.7605M39.401 54.7605H41.1822L44.0885 54.2918L47.651 53.2605L49.9947 52.7918L51.5885 51.948C51.5885 51.948 52.0248 51.7195 52.3044 51.573M45.4947 60.7605C45.9707 60.5775 46.2536 60.5122 46.7135 60.2918C47.6385 59.8485 48.8697 58.7918 48.8697 58.7918L51.1197 57.4963M45.4947 60.7605C46.0805 61.1999 46.3264 61.5864 46.9947 61.8855C48.2311 62.4389 49.2553 61.7757 50.4635 61.8855C51.6716 61.9954 52.349 62.0569 53.5572 62.1668C53.5572 62.1668 55.7856 62.1668 57.2135 62.1668C59.1539 62.1668 60.2418 62.1668 62.1822 62.1668C63.0609 62.1668 64.4322 62.1668 64.4322 62.1668M54.776 51.573C55.1 52.3898 55.1 53.0063 54.776 53.823C54.7005 54.0133 54.6331 54.1087 54.5416 54.2918M54.776 51.573C54.4733 51.1252 54.0977 50.923 53.5572 50.9168C53.0049 50.9105 52.7936 51.3167 52.3044 51.573M54.776 51.573C54.8858 51.573 55.0572 51.573 55.0572 51.573C57.0784 51.6281 59.4635 54.2918 59.4635 54.2918M64.4322 62.1668C64.4322 62.1668 66.0773 66.0205 68.276 66.3855C69.8189 66.6417 70.7055 65.9286 72.1197 65.2605C73.9404 64.4004 74.8579 63.6267 76.2447 62.1668C77.5317 60.812 78.1689 59.9206 78.9635 58.2293C79.569 56.9403 79.8147 56.1581 80.0885 54.7605C80.3287 53.5342 80.3697 51.573 80.3697 51.573C80.3697 51.573 75.6225 47.8147 72.9635 45.0105C71.3732 43.3334 70.9404 41.9341 69.1197 40.5105C68.3264 39.8902 67.8468 39.5782 66.9582 39.1043M64.4322 62.1668C64.4322 62.1668 65.9237 61.1881 66.5885 60.2918C67.1249 59.5685 67.2782 59.0625 67.6197 58.2293C67.927 57.4794 68.1525 57.0615 68.276 56.2605C68.4552 55.0976 67.9947 53.2605 67.9947 53.2605M38.9322 41.2605C38.7308 41.2605 38.4166 41.2605 38.4166 41.2605M38.9322 41.2605C40.1038 40.2789 40.7606 39.7286 41.9322 38.747M66.9582 39.1043C64.7636 37.6764 63.6112 36.748 61.3385 35.448C59.9027 34.6268 59.1259 34.0892 57.5885 33.4793C55.0523 32.4731 53.4542 32.3946 50.7447 32.073C50.233 32.0123 49.9455 31.9828 49.4322 31.9384M66.9582 39.1043C64.251 38.0059 60.026 36.2918 60.026 36.2918C60.026 36.2918 57.8695 35.7389 56.4635 35.5125M45.4947 46.0418C46.0805 45.1631 46.9947 43.7918 46.9947 43.7918M45.4947 46.0418C46.3368 45.8587 46.8089 45.7561 47.651 45.573M47.651 45.573C48.0171 44.8774 48.2223 44.4874 48.5885 43.7918M47.651 45.573C48.5662 45.39 49.9947 45.1043 49.9947 45.1043M55.0572 42.948C55.0572 42.948 54.4574 43.5008 54.026 43.7918C52.8069 44.6139 51.9009 44.7008 50.4635 45.0105C50.281 45.0499 49.9947 45.1043 49.9947 45.1043M49.9947 45.1043C49.9947 45.1043 50.9661 46.3532 51.5885 47.1534M72.6822 46.0418C72.6822 46.0418 72.0298 47.6763 71.3697 48.573C70.5711 49.658 68.8385 50.9168 68.8385 50.9168C68.8385 50.9168 66.5323 52.2013 64.901 52.4168C63.2215 52.6387 62.2616 52.2133 60.5885 51.948C58.7019 51.6489 57.3931 51.9815 55.8072 50.9168C55.2146 50.5189 54.4451 49.698 54.4451 49.698M21.9635 44.9871C21.9635 44.0077 21.9635 43.4586 21.9635 42.4793C21.9635 42.0033 21.9635 41.7365 21.9635 41.2605M21.9635 38.6355C22.952 38.6355 23.5068 38.6692 24.4947 38.6355C25.853 38.5892 26.6056 38.4113 27.9635 38.3543C29.4266 38.2928 30.2495 38.3139 31.7135 38.3543C32.0797 38.3644 32.2849 38.3715 32.651 38.3866M21.9635 38.6355C21.9635 39.1847 21.9635 39.4926 21.9635 40.0418M27.026 31.8563C27.3921 31.7949 27.5974 31.7603 27.9635 31.698C29.4291 31.4488 30.2285 31.1149 31.7135 31.0418C32.5913 30.9985 33.0848 31.0747 33.9635 31.0958M27.026 31.8563C26.9161 33.259 26.699 34.0418 26.7447 35.448C26.777 36.4421 26.8393 37.0024 27.026 37.9793M33.9635 31.0958C37.6583 30.9238 39.7499 30.974 43.4322 31.323C43.8352 31.3612 44.0607 31.3875 44.4635 31.4288M33.9635 31.0958C33.6706 32.6124 33.2135 34.9793 33.2135 34.9793C33.2135 34.9793 32.8706 37.056 32.651 38.3866M44.4635 31.4288C46.4039 31.6278 47.4918 31.7394 49.4322 31.9384M49.4322 31.9384C49.3224 32.65 49.3438 33.0668 49.151 33.7605C48.8921 34.6918 48.7109 35.2458 48.1197 36.0105C47.9505 36.2294 47.834 36.3343 47.651 36.5418M47.651 36.5418C47.651 36.5418 48.7408 36.4157 49.4322 36.2918C51.2687 35.9626 52.1623 34.8908 54.026 34.9793C54.9993 35.0255 55.5116 35.3042 56.4635 35.5125M47.651 36.5418C46.6258 36.6857 46.0511 36.7663 45.026 36.9102M42.8831 37.9793C42.6948 38.1257 42.401 38.3543 42.401 38.3543C42.401 38.3543 42.1153 38.5936 41.9322 38.747M42.8831 37.9793C43.3538 37.6132 43.5258 37.2394 44.0885 37.0418C44.4373 36.9193 44.6569 36.8885 45.026 36.9102M42.8831 37.9793C43.0975 38.6383 43.0175 39.1115 43.4322 39.6668C43.7436 40.0837 44.4635 40.5105 44.4635 40.5105M45.026 36.9102C44.9161 37.3277 44.605 37.5708 44.7447 37.9793C44.8706 38.3475 45.4947 38.6355 45.4947 38.6355M56.4635 35.5125C56.5733 36.1097 56.6349 36.4445 56.7447 37.0418M52.3044 51.573C52.3909 52.1588 52.2454 52.5515 52.526 53.073C52.7103 53.4158 52.8701 53.5905 53.1822 53.823C53.6326 54.1585 53.9802 54.2783 54.5416 54.2918M54.5416 54.2918C54.3402 54.6945 54.026 55.323 54.026 55.323L51.9635 57.0105L51.1197 57.4963M38.4166 41.2605H37.901C37.901 41.2605 36.4713 41.266 35.7447 41.7293C35.0408 42.1781 34.7276 42.6359 34.4322 43.4168C34.248 43.9038 34.1978 44.7293 34.1978 44.7293M38.4166 41.2605L39.401 42.4793V43.7918V44.448C39.2359 45.1614 38.59 45.3254 37.901 45.573C37.1085 45.8578 36.5796 45.6823 35.7447 45.573C35.2249 45.505 34.4322 45.2918 34.4322 45.2918L34.1978 44.7293M49.4322 61.6043C49.4322 61.6043 49.8459 59.6243 50.4635 58.5105C50.6922 58.098 51.1197 57.4963 51.1197 57.4963M48.5885 47.3543C48.5885 47.3543 49.2586 48.0208 49.4322 48.573C49.6079 49.1318 49.4322 50.073 49.4322 50.073M51.5885 47.1534C51.7349 47.3417 51.9635 47.6355 51.9635 47.6355L54.026 49.323L54.4451 49.698M51.5885 47.1534C51.5885 48.0007 51.3935 48.4985 51.5885 49.323C51.687 49.7401 51.6469 50.0655 51.9635 50.3543C52.4233 50.7737 52.9787 50.584 53.5572 50.3543C53.9579 50.1952 54.4451 49.698 54.4451 49.698M28.7135 38.6355C28.7135 38.6355 28.1178 40.9724 28.2447 42.4793C28.3201 43.3737 28.7135 44.7293 28.7135 44.7293C28.7135 44.7293 29.4079 43.1105 29.4635 42.0105C29.5316 40.6621 28.7135 38.6355 28.7135 38.6355Z" stroke="#725050" stroke-width="0.3"/>
</g>
</g>
<defs>
<filter id="filter0_dd_140_51" x="0" y="0" width="91" height="98" filterUnits="userSpaceOnUse" color-interpolation-filters="sRGB">
<feFlood flood-opacity="0" result="BackgroundImageFix"/>
<feColorMatrix in="SourceAlpha" type="matrix" values="0 0 0 0 0 0 0 0 0 0 0 0 0 0 0 0 0 0 127 0" result="hardAlpha"/>
<feOffset dy="4"/>
<feGaussianBlur stdDeviation="2"/>
<feComposite in2="hardAlpha" operator="out"/>
<feColorMatrix type="matrix" values="0 0 0 0 0 0 0 0 0 0 0 0 0 0 0 0 0 0 0.25 0"/>
<feBlend mode="normal" in2="BackgroundImageFix" result="effect1_dropShadow_140_51"/>
<feColorMatrix in="SourceAlpha" type="matrix" values="0 0 0 0 0 0 0 0 0 0 0 0 0 0 0 0 0 0 127 0" result="hardAlpha"/>
<feOffset dy="4"/>
<feGaussianBlur stdDeviation="2"/>
<feComposite in2="hardAlpha" operator="out"/>
<feColorMatrix type="matrix" values="0 0 0 0 0 0 0 0 0 0 0 0 0 0 0 0 0 0 0.25 0"/>
<feBlend mode="normal" in2="effect1_dropShadow_140_51" result="effect2_dropShadow_140_51"/>
<feBlend mode="normal" in="SourceGraphic" in2="effect2_dropShadow_140_51" result="shape"/>
</filter>
<filter id="filter1_d_140_51" x="0" y="0" width="91" height="98" filterUnits="userSpaceOnUse" color-interpolation-filters="sRGB">
<feFlood flood-opacity="0" result="BackgroundImageFix"/>
<feColorMatrix in="SourceAlpha" type="matrix" values="0 0 0 0 0 0 0 0 0 0 0 0 0 0 0 0 0 0 127 0" result="hardAlpha"/>
<feOffset dy="4"/>
<feGaussianBlur stdDeviation="2"/>
<feComposite in2="hardAlpha" operator="out"/>
<feColorMatrix type="matrix" values="0 0 0 0 0 0 0 0 0 0 0 0 0 0 0 0 0 0 0.25 0"/>
<feBlend mode="normal" in2="BackgroundImageFix" result="effect1_dropShadow_140_51"/>
<feBlend mode="normal" in="SourceGraphic" in2="effect1_dropShadow_140_51" result="shape"/>
</filter>
<filter id="filter2_dd_140_51" x="7.85001" y="30.85" width="76.6712" height="43.7385" filterUnits="userSpaceOnUse" color-interpolation-filters="sRGB">
<feFlood flood-opacity="0" result="BackgroundImageFix"/>
<feColorMatrix in="SourceAlpha" type="matrix" values="0 0 0 0 0 0 0 0 0 0 0 0 0 0 0 0 0 0 127 0" result="hardAlpha"/>
<feOffset dy="4"/>
<feGaussianBlur stdDeviation="2"/>
<feComposite in2="hardAlpha" operator="out"/>
<feColorMatrix type="matrix" values="0 0 0 0 0 0 0 0 0 0 0 0 0 0 0 0 0 0 0.25 0"/>
<feBlend mode="normal" in2="BackgroundImageFix" result="effect1_dropShadow_140_51"/>
<feColorMatrix in="SourceAlpha" type="matrix" values="0 0 0 0 0 0 0 0 0 0 0 0 0 0 0 0 0 0 127 0" result="hardAlpha"/>
<feOffset dy="4"/>
<feGaussianBlur stdDeviation="2"/>
<feComposite in2="hardAlpha" operator="out"/>
<feColorMatrix type="matrix" values="0 0 0 0 0 0 0 0 0 0 0 0 0 0 0 0 0 0 0.25 0"/>
<feBlend mode="normal" in2="effect1_dropShadow_140_51" result="effect2_dropShadow_140_51"/>
<feBlend mode="normal" in="SourceGraphic" in2="effect2_dropShadow_140_51" result="shape"/>
</filter>
</defs>
</svg>
