<svg width="91" height="98" viewBox="0 0 91 98" fill="none" xmlns="http://www.w3.org/2000/svg">
<g filter="url(#filter0_dd_140_57)">
<g filter="url(#filter1_d_140_57)">
<ellipse cx="45.5" cy="45" rx="41.5" ry="45" fill="#D9D9D9"/>
</g>
<g filter="url(#filter2_dd_140_57)">
<path d="M34.3309 74.3331C33.3907 74.1374 32.4522 74.6498 31.9195 73.8508C31.3868 73.0517 32.3131 72.3957 32.4018 71.4394C32.4801 70.5955 32.3673 70.116 32.4018 69.2692C32.4441 68.2299 32.5256 67.6502 32.6429 66.6167C32.7609 65.5779 33.2436 64.982 33.0047 63.9642C32.8746 63.4103 32.4018 62.638 32.4018 62.638L31.0756 60.95L30.2316 59.1415L29.3876 57.4535L28.7848 55.5244L28.0614 52.9925L27.3379 50.4606L26.9762 48.4109V45.879L26.7351 43.347V41.0562V38.7654V36.8364L27.5791 34.6661L28.7848 32.9782L30.2316 31.0491C30.2316 31.0491 30.9983 30.1261 31.5578 29.6023C32.0464 29.1449 32.3515 28.9224 32.8841 28.5172C33.6116 27.9635 33.9549 27.5057 34.8132 27.1909C35.6577 26.8812 37.104 26.9498 37.104 26.9498C37.104 26.9498 37.4369 25.9319 37.8274 25.3824C38.2713 24.7576 38.6416 24.489 39.2742 24.0561C39.8824 23.64 40.285 23.5031 40.9621 23.2122C41.742 22.877 42.3251 22.9876 43.0118 22.4888C43.3889 22.2148 43.8558 21.6448 43.8558 21.6448C43.8558 21.6448 44.2547 20.5442 44.6998 19.9568C45.092 19.4392 45.3889 19.2051 45.9054 18.8114C46.5511 18.3193 46.9407 18.0338 47.714 17.7866C48.3039 17.598 48.662 17.5455 49.2814 17.5455C49.9007 17.5455 50.2588 17.598 50.8487 17.7866C51.622 18.0338 52.0596 18.2621 52.6573 18.8114C53.0768 19.1971 53.5615 19.9568 53.5615 19.9568L53.8629 19.2334L54.3452 18.0277C54.3452 18.0277 54.7192 17.0965 55.1892 16.7015C55.6578 16.3076 56.636 16.0986 56.636 16.0986H57.6006H58.324C58.9268 16.0986 59.1323 16.8335 59.6502 17.3043H60.3736H61.2176C61.7355 17.3043 62.0317 17.2271 62.5438 17.3043C63.1328 17.3931 63.4991 17.4503 63.9907 17.7866C64.3204 18.0122 64.4621 18.1999 64.7141 18.51C65.2452 19.1637 65.3019 19.6857 65.6786 20.4391C66.2315 21.2369 66.4589 21.7769 66.6432 22.7299C66.813 23.6082 66.7076 24.1284 66.6432 25.0207C66.5746 25.9704 66.4821 26.5012 66.2815 27.432C66.0961 28.2919 65.9962 28.782 65.6786 29.6023C65.3745 30.3877 65.2367 30.8708 64.7141 31.5314C64.3165 32.0339 63.5084 32.6443 63.5084 32.6443C63.5084 32.6443 63.2893 32.8493 63.1467 32.9782C62.601 33.4713 61.851 33.4641 61.6999 34.1839C61.5484 34.9051 62.2778 35.1845 62.5438 35.8718C62.8943 36.777 62.8894 37.3472 63.1467 38.2832C63.4467 39.3747 63.7455 39.9511 63.9907 41.0562C64.1868 41.9404 64.4014 42.4427 64.3524 43.347C64.2935 44.4325 63.8388 44.9639 63.5084 45.9995C63.1327 47.177 62.9715 47.8542 62.5438 49.0137C62.0839 50.2609 61.6728 50.8996 61.2176 52.1485C60.8453 53.1698 60.837 53.8177 60.3736 54.801C60.0226 55.5461 59.2885 56.6095 59.2885 56.6095L57.9623 58.7798L56.636 60.95C56.636 60.95 55.5545 62.4348 54.7069 63.2408C54.0515 63.8641 53.2774 63.8664 52.8984 64.6876C52.5432 65.4571 52.8984 66.0103 52.8984 66.8578V69.9926C52.8984 71.3581 53.7666 72.4352 52.8984 73.4891C52.5329 73.9327 52.2038 74.0701 51.6927 74.3331C50.8296 74.7772 50.2212 74.6931 49.2814 74.9359C48.0538 75.253 47.403 75.6104 46.1466 75.7799C44.84 75.9561 44.0864 75.8627 42.7707 75.7799C41.5875 75.7054 40.9285 75.597 39.7565 75.4182C38.7667 75.2671 38.1945 75.1531 37.2528 74.9655L37.104 74.9359C36.0171 74.7195 35.4159 74.5588 34.3309 74.3331Z" fill="#ECCCC0"/>
<path d="M59.2885 56.6095C59.2885 56.6095 58.4802 57.9322 57.9623 58.7798C57.4443 59.6273 56.636 60.95 56.636 60.95C56.636 60.95 55.5545 62.4348 54.7069 63.2408C54.0515 63.8641 53.2774 63.8664 52.8984 64.6876C52.5432 65.4571 52.8984 66.0103 52.8984 66.8578C52.8984 68.082 52.8984 68.7684 52.8984 69.9926C52.8984 71.3581 53.7666 72.4352 52.8984 73.4891C52.5329 73.9327 52.2038 74.0701 51.6927 74.3331C50.8296 74.7772 50.2212 74.6931 49.2814 74.9359C48.0538 75.253 47.403 75.6104 46.1466 75.7799C44.84 75.9561 44.0864 75.8627 42.7707 75.7799C41.5874 75.7054 40.9285 75.597 39.7565 75.4182C38.7157 75.2593 38.1366 75.1415 37.104 74.9359C36.0171 74.7195 35.4159 74.5588 34.3309 74.3331C33.3907 74.1374 32.4522 74.6498 31.9195 73.8508C31.3868 73.0517 32.3131 72.3957 32.4018 71.4394C32.4801 70.5955 32.3673 70.116 32.4018 69.2692C32.4441 68.2299 32.5256 67.6502 32.6429 66.6167C32.7609 65.5779 33.2436 64.982 33.0047 63.9642C32.8746 63.4103 32.4018 62.6379 32.4018 62.6379M59.2885 56.6095C59.2885 56.6095 60.0226 55.5461 60.3736 54.801C60.837 53.8177 60.8453 53.1698 61.2176 52.1485C61.6728 50.8996 62.0839 50.2609 62.5438 49.0137C62.9715 47.8542 63.1327 47.177 63.5084 45.9995C63.8388 44.9639 64.2935 44.4325 64.3524 43.347C64.4014 42.4427 64.1868 41.9404 63.9907 41.0562C63.7455 39.9511 63.4467 39.3747 63.1467 38.2832C62.8894 37.3472 62.8943 36.777 62.5438 35.8718C62.2778 35.1845 61.5484 34.9051 61.6999 34.1839C61.851 33.4641 62.601 33.4713 63.1467 32.9782C63.2893 32.8493 63.5084 32.6443 63.5084 32.6443M59.2885 56.6095C59.2885 56.6095 58.6743 57.096 58.324 57.4535L57.6006 58.2975C57.6006 58.2975 56.8227 59.1382 56.2743 59.6237C55.8229 60.0235 55.5395 60.3058 55.0686 60.5883C54.5978 60.8708 54.3338 61.0292 53.8629 61.3117L53.2601 61.6734C53.2601 61.6734 52.5593 62.1273 52.0544 62.2762C51.2415 62.5161 50.7317 62.2762 49.8842 62.2762C49.0367 62.2762 48.5434 62.4506 47.714 62.2762C47.0722 62.1413 46.693 62.036 46.1466 61.6734C45.6472 61.3421 45.0615 60.5883 45.0615 60.5883M65.6786 20.4391C66.2315 21.2369 66.4589 21.7769 66.6432 22.7299C66.813 23.6082 66.7076 24.1284 66.6432 25.0207C66.5746 25.9704 66.4821 26.5012 66.2815 27.432C66.0961 28.2919 65.9962 28.782 65.6786 29.6023C65.3745 30.3877 65.2367 30.8708 64.7141 31.5314C64.3165 32.0339 63.5084 32.6443 63.5084 32.6443M65.6786 20.4391C65.3019 19.6857 65.2452 19.1637 64.7141 18.51C64.4621 18.1999 64.3204 18.0122 63.9907 17.7866C63.4991 17.4503 63.1328 17.3931 62.5438 17.3043C62.0317 17.2271 61.7355 17.3043 61.2176 17.3043C60.888 17.3043 60.3736 17.3043 60.3736 17.3043C60.3736 17.3043 59.9327 17.3043 59.6502 17.3043M65.6786 20.4391C65.1607 20.4391 64.7141 21.0419 63.9907 21.1625C63.2673 21.2831 62.9056 21.1625 62.0616 20.9214M59.6502 17.3043C59.4148 17.5868 59.2047 17.6953 59.0474 18.0277C58.913 18.3116 58.8665 18.8114 58.8665 18.8114M59.6502 17.3043C59.1323 16.8335 58.9268 16.0986 58.324 16.0986C57.7211 16.0986 57.6006 16.0986 57.6006 16.0986H56.636C56.636 16.0986 55.6578 16.3076 55.1892 16.7015C54.7192 17.0965 54.3452 18.0277 54.3452 18.0277L53.8629 19.2334L53.5615 19.9568M58.324 23.2122C58.324 23.2122 58.6201 22.0467 58.6857 21.2831C58.7421 20.6263 58.5847 20.2465 58.6857 19.5951C58.7338 19.2847 58.8665 18.8114 58.8665 18.8114M58.324 23.2122C58.324 23.2122 58.0887 24.3116 57.9623 25.0207C57.7951 25.9581 57.6006 27.432 57.6006 27.432V28.8789L57.9623 30.4462L58.324 30.9888M58.324 23.2122L57.9623 23.5739C57.9623 23.5739 57.3513 23.8069 57.1183 23.5739C56.8852 23.3408 56.6515 22.818 56.636 22.4888C56.6048 21.8236 56.636 21.2831 56.636 21.2831C56.6293 20.5706 56.6183 20.3074 56.636 19.5951C56.6401 19.4304 56.6079 18.4313 56.636 18.2689C56.6972 17.9148 58.3644 18.43 58.6857 18.2689C59.2054 18.0082 58.8665 18.8114 58.8665 18.8114M63.5084 32.6443L61.6999 32.4959L60.0119 32.1342L58.6857 31.5314L58.324 30.9888M53.2601 36.8364V34.6661V32.4959V32.1342M53.2601 36.8364L52.6573 38.5243C52.6573 38.5243 52.1061 39.002 51.753 39.308C51.3669 39.5712 51.1641 39.7469 50.8487 40.0917C50.6087 40.3541 50.2955 40.8151 50.2955 40.8151L49.2814 42.1414M53.2601 36.8364L54.3452 37.3186C54.9573 37.6953 55.3005 37.9065 55.9126 38.2832C56.5247 38.6599 56.4873 39.0289 56.8771 39.4889C57.2867 39.9721 57.5482 40.2152 57.9623 40.6945C58.3228 41.112 58.8665 41.7797 58.8665 41.7797C58.8665 41.7797 59.3442 42.5145 59.6502 42.9853M49.2814 42.1414C49.2814 42.1414 47.8909 42.9818 47.2317 43.8293C46.5725 44.6768 46.2029 45.152 45.5437 45.9995L44.6998 47.4464C44.6998 47.4464 43.9806 49.1695 43.8558 50.34C43.7809 51.0423 43.8558 52.1485 43.8558 52.1485C43.8558 53.0902 43.8558 53.6182 43.8558 54.5599V56.0067V57.0918M49.2814 42.1414L47.714 41.4179L47.2317 40.6945M55.0686 30.6874C55.0686 30.6874 55.5597 30.9856 55.9126 31.0491C56.1906 31.0991 56.3535 31.0491 56.636 31.0491C57.0127 31.0491 57.6006 31.0491 57.6006 31.0491L58.324 30.9888M53.5615 19.9568L53.2601 20.6802V22.127V23.5739V25.7441V28.0349V29.8434V32.1342M53.5615 19.9568C53.5615 19.9568 53.0768 19.1971 52.6573 18.8114C52.0596 18.2621 51.622 18.0338 50.8487 17.7866C50.2588 17.598 49.9007 17.5455 49.2814 17.5455C48.662 17.5455 48.3039 17.598 47.714 17.7866C46.9407 18.0338 46.5511 18.3193 45.9054 18.8114C45.3889 19.2051 45.092 19.4392 44.6998 19.9568C44.2547 20.5442 43.8558 21.6448 43.8558 21.6448M43.8558 21.6448C43.8558 21.6448 43.3889 22.2148 43.0118 22.4888C42.3251 22.9876 41.742 22.877 40.9621 23.2122C40.285 23.5031 39.8824 23.64 39.2742 24.0561C38.6416 24.489 38.2713 24.7576 37.8274 25.3824C37.4369 25.9319 37.104 26.9498 37.104 26.9498M43.8558 21.6448C43.8558 21.6448 44.4634 22.7863 44.6998 23.5739C44.9467 24.3968 45.0615 25.7441 45.0615 25.7441L45.5437 28.0349L46.1466 29.8434L46.6289 32.1342L46.87 34.425V35.0278M37.104 26.9498C37.104 26.9498 35.6577 26.8812 34.8132 27.1909C33.9549 27.5057 33.6116 27.9635 32.8841 28.5172C32.3515 28.9224 32.0464 29.1449 31.5578 29.6023C30.9983 30.1261 30.2316 31.0491 30.2316 31.0491L28.7848 32.9782L27.5791 34.6661M37.104 26.9498L37.8274 28.0349C37.8274 28.0349 38.495 28.9478 38.7919 29.6023C39.038 30.1447 39.2742 31.0491 39.2742 31.0491L40.1182 32.9782L40.6004 35.0278L40.7813 36.1732M27.5791 34.6661L26.7351 36.8364V38.7655V41.0562M27.5791 34.6661L28.3025 35.8718L28.7848 36.2335H29.8699L30.5933 35.8718C30.5933 35.8718 30.7746 34.2464 31.3167 34.6661C31.6002 34.8857 31.7153 34.7331 31.9195 35.0278C32.2253 35.4691 32.3604 35.4951 32.6429 35.8718C32.9255 36.2485 33.0838 36.4597 33.3664 36.8364C33.6489 37.213 34.04 38.1259 34.3309 39.0066C34.5888 39.7874 34.5306 40.284 34.8132 41.0562C34.9725 41.4917 35.1093 41.7166 35.2954 42.1414C35.5833 42.7982 35.544 43.2918 36.0189 43.8293C36.5488 44.4292 37.0416 44.6415 37.8274 44.7939C38.3358 44.8924 38.5886 45.0293 39.1536 44.7939C39.7186 44.5584 40.0354 44.4264 40.6004 44.191C41.1655 43.9556 41.0827 43.8293 41.0827 43.8293M26.7351 41.0562V43.347L26.9762 45.879V48.4109L27.3379 50.4606L28.0614 52.9925L28.7848 55.5244L29.3876 57.4535L30.2316 59.1415L31.0756 60.95L32.4018 62.6379M26.7351 41.0562L28.3025 40.3328L29.6287 39.8506L31.9195 39.4889M32.4018 62.6379C32.4018 62.6379 33.5059 63.4326 34.3309 63.6025C34.9765 63.7354 35.3626 63.6646 36.0189 63.6025C36.7359 63.5347 37.1272 63.4098 37.8274 63.2408C38.3492 63.1148 38.6294 62.9948 39.1536 62.8791C39.713 62.7556 40.0471 62.7861 40.6004 62.6379C41.4963 62.3981 42.0661 62.2765 42.7707 61.6734C43.3072 61.2141 43.8558 60.2266 43.8558 60.2266M47.2317 40.6945L47.1111 39.0066L46.87 36.2335V35.0278M47.2317 40.6945C47.2317 40.6945 46.9729 41.1193 46.87 41.4179C46.7303 41.8233 46.703 42.5031 46.703 42.5031C46.703 42.5031 46.6797 42.8017 46.6289 42.9853C46.493 43.4762 46.2474 43.693 45.9054 44.0704C45.614 44.3922 45.4492 44.5987 45.0615 44.7939C44.6325 45.0097 44.3358 45.0452 43.8558 45.035C43.4218 45.0258 42.7707 44.7939 42.7707 44.7939L42.5295 44.7034C42.5295 44.7034 42.0666 44.5844 41.8061 44.4322C41.3193 44.1477 41.0827 43.8293 41.0827 43.8293M49.2814 32.9782C49.2814 32.9782 49.8612 33.2718 50.2459 33.2193H50.8487C50.8487 33.2193 51.5928 33.1382 52.0544 32.9782C52.5375 32.8107 53.2601 32.1342 53.2601 32.1342M36.5011 37.6803C36.5011 37.6803 37.3485 38.007 37.8274 38.042C38.5846 38.0974 38.8435 37.6722 39.5153 37.3186C39.9583 37.0855 40.1182 36.8364 40.1182 36.8364L40.7813 36.1732M40.7813 36.1732L40.9621 37.3186V39.0066V41.0562V42.9853L41.0827 43.8293M43.0118 36.2335C43.0118 36.2335 44.0508 36.4957 44.6998 36.2335C45.0322 36.0992 45.2231 36.0325 45.5437 35.8718C46.0926 35.5968 46.87 35.0278 46.87 35.0278M37.4657 43.347L39.877 42.5031C39.877 42.5031 39.9093 40.8093 39.1536 40.3328C38.7083 40.052 38.3275 39.9273 37.8274 40.0917C37.2546 40.28 37.0283 40.7176 36.8628 41.2974C36.6338 42.0997 37.4657 43.347 37.4657 43.347ZM42.7707 42.3825C44.1361 42.1471 44.1195 42.1959 45.485 41.9605C46.8505 41.7251 44.7616 39.308 44.7616 39.308C44.7616 39.308 44.4962 39.1272 43.8558 39.1272C43.1324 39.1272 43.0118 39.4889 43.0118 39.4889C43.0118 39.4889 41.4052 42.6179 42.7707 42.3825ZM48.7991 38.4037L51.2104 38.2832C51.2104 38.2832 52.2371 36.2615 51.4516 35.5101C51.0212 35.0984 50.5979 34.9738 50.0048 35.0278C49.4172 35.0814 49.0509 35.2936 48.6785 35.7512C48.0241 36.5556 48.7991 38.4037 48.7991 38.4037ZM58.9268 29.4817L63.9907 29.8434C63.9436 29.043 63.9172 28.5942 63.8701 27.7938C63.8701 27.7938 63.7704 26.8956 63.2673 26.3469C62.8685 25.9121 62.5438 25.6235 61.941 25.6235C61.3382 25.6235 60.9122 25.4823 60.2531 25.6235C59.5939 25.7648 59.3787 26.1687 59.0474 26.7086C58.4805 27.6326 58.9268 29.4817 58.9268 29.4817Z" stroke="#725050" stroke-width="0.3"/>
</g>
</g>
<defs>
<filter id="filter0_dd_140_57" x="0" y="0" width="91" height="98" filterUnits="userSpaceOnUse" color-interpolation-filters="sRGB">
<feFlood flood-opacity="0" result="BackgroundImageFix"/>
<feColorMatrix in="SourceAlpha" type="matrix" values="0 0 0 0 0 0 0 0 0 0 0 0 0 0 0 0 0 0 127 0" result="hardAlpha"/>
<feOffset dy="4"/>
<feGaussianBlur stdDeviation="2"/>
<feComposite in2="hardAlpha" operator="out"/>
<feColorMatrix type="matrix" values="0 0 0 0 0 0 0 0 0 0 0 0 0 0 0 0 0 0 0.25 0"/>
<feBlend mode="normal" in2="BackgroundImageFix" result="effect1_dropShadow_140_57"/>
<feColorMatrix in="SourceAlpha" type="matrix" values="0 0 0 0 0 0 0 0 0 0 0 0 0 0 0 0 0 0 127 0" result="hardAlpha"/>
<feOffset dy="4"/>
<feGaussianBlur stdDeviation="2"/>
<feComposite in2="hardAlpha" operator="out"/>
<feColorMatrix type="matrix" values="0 0 0 0 0 0 0 0 0 0 0 0 0 0 0 0 0 0 0.25 0"/>
<feBlend mode="normal" in2="effect1_dropShadow_140_57" result="effect2_dropShadow_140_57"/>
<feBlend mode="normal" in="SourceGraphic" in2="effect2_dropShadow_140_57" result="shape"/>
</filter>
<filter id="filter1_d_140_57" x="0" y="0" width="91" height="98" filterUnits="userSpaceOnUse" color-interpolation-filters="sRGB">
<feFlood flood-opacity="0" result="BackgroundImageFix"/>
<feColorMatrix in="SourceAlpha" type="matrix" values="0 0 0 0 0 0 0 0 0 0 0 0 0 0 0 0 0 0 127 0" result="hardAlpha"/>
<feOffset dy="4"/>
<feGaussianBlur stdDeviation="2"/>
<feComposite in2="hardAlpha" operator="out"/>
<feColorMatrix type="matrix" values="0 0 0 0 0 0 0 0 0 0 0 0 0 0 0 0 0 0 0.25 0"/>
<feBlend mode="normal" in2="BackgroundImageFix" result="effect1_dropShadow_140_57"/>
<feBlend mode="normal" in="SourceGraphic" in2="effect1_dropShadow_140_57" result="shape"/>
</filter>
<filter id="filter2_dd_140_57" x="22.5851" y="15.9487" width="48.2999" height="68.0813" filterUnits="userSpaceOnUse" color-interpolation-filters="sRGB">
<feFlood flood-opacity="0" result="BackgroundImageFix"/>
<feColorMatrix in="SourceAlpha" type="matrix" values="0 0 0 0 0 0 0 0 0 0 0 0 0 0 0 0 0 0 127 0" result="hardAlpha"/>
<feOffset dy="4"/>
<feGaussianBlur stdDeviation="2"/>
<feComposite in2="hardAlpha" operator="out"/>
<feColorMatrix type="matrix" values="0 0 0 0 0 0 0 0 0 0 0 0 0 0 0 0 0 0 0.25 0"/>
<feBlend mode="normal" in2="BackgroundImageFix" result="effect1_dropShadow_140_57"/>
<feColorMatrix in="SourceAlpha" type="matrix" values="0 0 0 0 0 0 0 0 0 0 0 0 0 0 0 0 0 0 127 0" result="hardAlpha"/>
<feOffset dy="4"/>
<feGaussianBlur stdDeviation="2"/>
<feComposite in2="hardAlpha" operator="out"/>
<feColorMatrix type="matrix" values="0 0 0 0 0 0 0 0 0 0 0 0 0 0 0 0 0 0 0.25 0"/>
<feBlend mode="normal" in2="effect1_dropShadow_140_57" result="effect2_dropShadow_140_57"/>
<feBlend mode="normal" in="SourceGraphic" in2="effect2_dropShadow_140_57" result="shape"/>
</filter>
</defs>
</svg>
