<svg width="91" height="98" viewBox="0 0 91 98" fill="none" xmlns="http://www.w3.org/2000/svg">
<g filter="url(#filter0_dd_144_88)">
<g filter="url(#filter1_d_144_88)">
<ellipse cx="45.5" cy="45" rx="41.5" ry="45" fill="#D9D9D9"/>
</g>
<g filter="url(#filter2_ddd_144_88)">
<path d="M51.4492 48.5844L53.599 47.9948L54.0289 48.5844L52.5671 49.0266" stroke="#725050" stroke-width="0.3"/>
<path d="M52.1372 50.4025L54.201 49.7145" stroke="#725050" stroke-width="0.3"/>
<path d="M37.4045 79.1734V77.4053V76.7054C37.4045 76.7054 37.8616 75.3263 37.4045 74.6057C37.1324 74.1766 36.3717 73.7216 36.3717 73.7216C36.3717 73.7216 35.4395 72.6908 34.9945 71.9535C34.3457 70.8783 34.2414 70.1754 33.8756 69.0065C33.5992 68.1233 33.4264 67.6276 33.2731 66.7227C33.0991 65.6961 33.2704 65.0976 33.1009 64.0704C32.9322 63.0476 32.5811 62.5147 32.4123 61.4919C32.2429 60.4647 32.2702 59.8767 32.2402 58.8396C32.2161 58.0055 32.1347 57.5326 32.2402 56.7031C32.3179 56.0917 32.357 55.7394 32.5845 55.156C32.7845 54.6432 32.9398 54.3627 33.2731 53.9035C33.6138 53.4341 33.8337 53.1754 34.3059 52.7984C34.7289 52.4608 35.0465 52.3567 35.5109 52.0617C35.9537 51.7805 36.3465 51.7297 36.6299 51.325C37.0272 50.7573 36.5428 50.288 36.6299 49.6305C36.7153 48.9855 36.9084 48.6456 37.0602 48.0097C37.2107 47.3794 37.2034 47.0088 37.4045 46.3889C37.6467 45.6424 37.7137 45.1613 38.2652 44.547C38.6718 44.0942 38.9679 43.8585 39.5563 43.5893C40.0532 43.3619 40.7058 43.6621 40.9335 43.2209V42.5579V40.6424V38.2848V36.0009V34.0854V33.7171C40.9335 33.0266 40.9691 32.6387 40.9335 31.9489C40.8887 31.0823 40.7709 30.6023 40.6753 29.7387C40.6052 29.106 40.5324 28.753 40.5031 28.1179C40.4806 27.6292 40.3991 27.3464 40.5031 26.8655C40.5941 26.4449 40.563 26.121 40.9335 25.834C41.2487 25.5898 41.548 25.6044 41.9663 25.5393C42.4955 25.457 42.8222 25.426 43.3435 25.5393C44.0483 25.6926 44.4251 25.9469 44.8928 26.4234C45.4268 26.9675 45.4241 27.4385 45.6674 28.1179C46.2235 29.6703 46.0423 30.6316 46.27 32.2436C46.3512 32.8189 46.3962 33.1415 46.4755 33.7171C46.6641 35.0693 46.9585 35.9713 46.9585 37.1797V40.274C47.1102 40.5402 47.3889 40.6728 47.7332 40.6424C48.1614 40.6045 48.1218 40.1699 48.4218 39.9056C48.8388 39.5382 49.0634 39.2681 49.6268 39.0952C50.228 38.9107 50.6331 39.0005 51.2621 39.0952C51.8589 39.1851 52.3213 39.9238 52.7254 39.5373C53.0167 39.2585 52.7062 38.9532 52.7254 38.5795C52.7837 37.4406 53.3279 35.7062 53.3279 35.7062C53.3279 35.7062 53.2033 33.8156 53.3279 32.612C53.4361 31.566 53.5997 30.9887 53.8443 29.9597C53.9679 29.4399 53.7931 29.0421 54.1886 28.6336C54.4866 28.3259 54.7762 28.2383 55.2215 28.1179C55.8304 27.9532 56.2523 27.9417 56.8568 28.1179C57.5782 28.3282 57.9795 28.6395 58.32 29.223C58.7256 29.918 58.32 30.4354 58.32 31.2122V34.0854C58.32 35.8405 58.3694 36.825 58.32 38.5795C58.2342 41.635 57.999 43.342 57.7175 46.3889C57.5633 48.0586 57.3596 48.9881 57.2872 50.6619C57.2325 51.927 57.2872 53.9035 57.2872 53.9035V58.0292V61.2709V64.2915V66.7227L56.8568 69.0065C56.6888 69.8984 56.4303 70.0825 55.9961 70.701C55.6256 71.2288 55.0125 71.3487 54.8772 71.9535C54.8203 72.2078 54.8555 72.3583 54.8772 72.6165C54.9215 73.1457 55.1399 73.4167 55.2215 73.9426C55.3453 74.7412 55.2215 75.1999 55.2215 76.0055C55.2215 77.2427 56.1734 78.2425 55.2215 79.1734C54.8037 79.5819 54.3814 79.6215 53.8443 79.9102C53.2046 80.254 52.8732 80.4865 52.2089 80.7943C51.4016 81.1684 50.9188 81.3335 50.0571 81.6047C49.1687 81.8842 48.6547 82.0088 47.7332 82.194C46.7702 82.3876 46.2262 82.5577 45.2371 82.5624C44.2148 82.5673 43.6473 82.4044 42.6549 82.194C41.7985 82.0125 41.344 81.8333 40.5031 81.6047C39.8648 81.4311 39.4851 81.3848 38.8678 81.1626C38.2717 80.9481 37.7269 80.9793 37.4045 80.4996C37.1029 80.0506 37.4045 79.6913 37.4045 79.1734Z" fill="#ECCCC0"/>
<path d="M37.4045 74.9004C37.4045 74.9004 37.4045 75.5739 37.4045 76.0055C37.4045 76.2788 37.4045 76.7054 37.4045 76.7054M46.9585 40.274C47.1102 40.5402 47.3889 40.6728 47.7332 40.6424C48.1614 40.6045 48.1218 40.1699 48.4218 39.9056C48.8388 39.5382 49.0634 39.2681 49.6268 39.0952C50.228 38.9107 50.6331 39.0005 51.2621 39.0952C51.8589 39.1851 52.3213 39.9238 52.7254 39.5373C53.0167 39.2585 52.7062 38.9532 52.7254 38.5795C52.7837 37.4406 53.3279 35.7062 53.3279 35.7062C53.3279 35.7062 53.2033 33.8156 53.3279 32.612C53.4361 31.566 53.5997 30.9887 53.8443 29.9597C53.9679 29.4399 53.7931 29.0421 54.1886 28.6336C54.4866 28.3259 54.7762 28.2383 55.2215 28.1179C55.8304 27.9532 56.2523 27.9417 56.8568 28.1179C57.5782 28.3282 57.9795 28.6395 58.32 29.223C58.7256 29.918 58.32 30.4354 58.32 31.2122C58.32 32.3343 58.32 32.9634 58.32 34.0854C58.32 35.8405 58.3694 36.825 58.32 38.5795C58.2342 41.635 57.999 43.342 57.7175 46.3889C57.5633 48.0586 57.3596 48.9881 57.2872 50.6619C57.2325 51.927 57.2872 53.9035 57.2872 53.9035V58.0292V61.2709V64.2915V66.7227C57.1191 67.6146 57.0249 68.1146 56.8568 69.0065C56.6888 69.8984 56.4303 70.0825 55.9961 70.701C55.6256 71.2288 55.0125 71.3487 54.8772 71.9535C54.8203 72.2078 54.8555 72.3583 54.8772 72.6165C54.9215 73.1457 55.1399 73.4167 55.2215 73.9426C55.3453 74.7412 55.2215 75.1999 55.2215 76.0055C55.2215 77.2427 56.1734 78.2425 55.2215 79.1734C54.8037 79.5819 54.3814 79.6215 53.8443 79.9102C53.2046 80.254 52.8732 80.4865 52.2089 80.7943C51.4016 81.1684 50.9188 81.3335 50.0571 81.6047C49.1687 81.8842 48.6547 82.0088 47.7332 82.194C46.7702 82.3876 46.2262 82.5577 45.2371 82.5624C44.2148 82.5673 43.6473 82.4044 42.6549 82.194C41.7985 82.0125 41.344 81.8333 40.5031 81.6047C39.8648 81.4311 39.4851 81.3848 38.8678 81.1626C38.2717 80.9481 37.7269 80.9793 37.4045 80.4996C37.1029 80.0506 37.4045 79.6913 37.4045 79.1734C37.4045 78.4829 37.4045 78.0958 37.4045 77.4053C37.4045 77.132 37.4045 76.7054 37.4045 76.7054M46.9585 40.274C46.9585 39.0656 46.9585 38.3881 46.9585 37.1797C46.9585 35.9713 46.6641 35.0693 46.4755 33.7171M46.9585 40.274C46.2863 40.274 45.9094 40.274 45.2371 40.274C44.2287 40.274 43.6633 40.274 42.6549 40.274C42.1507 40.274 41.868 40.274 41.3638 40.274M37.4045 76.7054C37.4045 76.7054 37.8616 75.3263 37.4045 74.6057C37.1324 74.1766 36.3717 73.7216 36.3717 73.7216C36.3717 73.7216 35.4395 72.6908 34.9945 71.9535C34.3457 70.8783 34.2414 70.1754 33.8756 69.0065C33.5992 68.1233 33.4264 67.6276 33.2731 66.7227C33.0991 65.6961 33.2704 65.0976 33.1009 64.0704C32.9322 63.0476 32.5811 62.5147 32.4123 61.4919C32.2429 60.4647 32.2702 59.8767 32.2402 58.8396C32.2161 58.0055 32.1347 57.5326 32.2402 56.7031C32.3179 56.0917 32.357 55.7394 32.5845 55.156C32.7845 54.6432 32.9398 54.3627 33.2731 53.9035C33.6138 53.4341 33.8337 53.1754 34.3059 52.7984C34.7289 52.4608 35.0465 52.3567 35.5109 52.0617C35.9537 51.7805 36.3465 51.7297 36.6299 51.325C37.0272 50.7573 36.5428 50.288 36.6299 49.6305C36.7153 48.9855 36.9084 48.6456 37.0602 48.0097C37.2107 47.3794 37.2034 47.0088 37.4045 46.3889C37.6467 45.6424 37.7137 45.1613 38.2652 44.547C38.6718 44.0942 38.9679 43.8585 39.5563 43.5893C40.0532 43.3619 40.7058 43.6621 40.9335 43.2209V42.5579C40.9335 42.5579 40.9335 41.3904 40.9335 40.6424C40.9335 39.7217 40.9335 39.2055 40.9335 38.2848C40.9335 37.3929 40.9335 36.8928 40.9335 36.0009C40.9335 35.2529 40.9335 34.0854 40.9335 34.0854C40.9335 34.0854 40.9335 33.8609 40.9335 33.7171M40.9335 33.7171C40.9335 33.0266 40.9691 32.6387 40.9335 31.9489C40.8887 31.0823 40.7709 30.6023 40.6753 29.7387C40.6052 29.106 40.5324 28.753 40.5031 28.1179C40.4806 27.6292 40.3991 27.3464 40.5031 26.8655C40.5941 26.4449 40.563 26.121 40.9335 25.834C41.2487 25.5898 41.548 25.6044 41.9663 25.5393C42.4955 25.457 42.8222 25.426 43.3435 25.5393C44.0483 25.6926 44.4251 25.9469 44.8928 26.4234C45.4268 26.9675 45.4241 27.4385 45.6674 28.1179C46.2235 29.6703 46.0423 30.6316 46.27 32.2436C46.3512 32.8189 46.3962 33.1415 46.4755 33.7171M40.9335 33.7171C41.3368 33.7171 41.5631 33.71 41.9663 33.7171C42.6058 33.7282 42.9622 33.7907 43.6017 33.7907C44.2413 33.7907 44.5977 33.7295 45.2371 33.7171C45.7206 33.7077 46.4755 33.7171 46.4755 33.7171M53.8443 35.7062C54.3821 35.7062 54.6836 35.7062 55.2215 35.7062C55.8601 35.7062 56.2842 35.4235 56.8568 35.7062C57.0395 35.7964 57.2872 36.0009 57.2872 36.0009" stroke="#725050" stroke-width="0.3"/>
<path d="M52.9971 41.1156L55.1468 41.397L56.3507 41.7488L57.9845 42.6634" stroke="#725050" stroke-width="0.3"/>
<path d="M34.7671 56.2706C34.7671 56.2706 35.6913 56.456 36.2289 56.7146C36.9546 57.0637 37.274 57.4233 37.8627 57.9727C38.5834 58.6452 39.4965 59.8968 39.4965 59.8968L40.6144 61.3768C40.6144 61.3768 41.1764 62.1269 41.6462 62.4869C42.2361 62.9388 42.6366 63.1594 43.366 63.3009C43.9265 63.4096 44.3834 63.6592 44.8279 63.3009C45.1077 63.0753 45.1807 62.838 45.2578 62.4869C45.3198 62.2046 45.2578 61.7469 45.2578 61.7469C45.2578 61.7469 45.2842 61.2946 45.2578 61.0068C45.2029 60.4074 45.0438 60.0886 44.8279 59.5268C44.5846 58.8939 44.3742 58.5703 44.054 57.9727C43.4459 56.8381 43.0604 56.2235 42.3342 55.1606C41.7025 54.2361 41.2468 53.7905 40.6144 52.8665C40.3024 52.4106 40.2616 52.04 39.8405 51.6824C39.3232 51.2432 38.8779 51.1904 38.2067 51.0904C37.7084 51.0162 36.9168 51.0904 36.9168 51.0904" stroke="#725050" stroke-width="0.3"/>
<path d="M44.4393 58.4854C44.4393 58.4854 45.153 58.8928 45.6584 59.0014C46.2236 59.1227 46.5898 59.1826 47.1387 59.0014C47.5141 58.8774 47.7669 58.7975 48.0095 58.4854C48.4158 57.9627 48.0095 57.4522 48.0095 56.7902C48.0095 56.0706 48.1679 55.6495 48.0095 54.9476C47.7888 53.9692 47.1722 53.623 46.7034 52.7364C46.2569 51.8921 45.6584 50.5253 45.6584 50.5253C45.6584 50.5253 44.9988 48.9963 44.4393 48.093C44.01 47.3997 43.6898 47.0645 43.2202 46.3978C42.7372 45.7118 42.5035 45.3008 42.0012 44.6288C41.6721 44.1886 41.1304 43.5233 41.1304 43.5233M43.2202 62.6129L43.968 62.269L44.5699 61.839L44.7419 61.581L44.312 60.7211L43.796 60.2052H43.2202L42.7642 60.7211L42.4202 61.2371L42.5062 61.925L43.2202 62.6129ZM45.0859 57.8835L45.7738 57.5395L46.7034 57.1096L47.1387 56.7902L47.4076 56.6796L46.7034 55.1318L46.1178 54.7879L45.4298 54.9476L44.8279 55.4758L44.7419 56.1637V56.7902L44.8279 57.2816L45.0859 57.8835Z" stroke="#725050" stroke-width="0.3"/>
<path d="M57.1242 54.9855C56.6779 54.5866 56.4482 54.3425 56.0885 53.8847C55.4097 53.021 55.1655 52.4527 54.7938 51.4631C54.4077 50.4352 54.6046 49.7679 54.1896 48.748C53.9233 48.0936 53.6929 47.7521 53.3265 47.1336C52.7828 46.2162 51.8973 45.8806 51.7728 44.8588C51.7416 44.6023 51.7543 44.4556 51.7728 44.1984C51.7948 43.8929 51.8435 43.6718 51.9072 43.4373M47.6298 40.6027L47.2846 42.6574C47.2846 42.6574 47.0187 43.7695 46.9393 44.4919C46.8264 45.5191 46.9393 47.1336 46.9393 47.1336L47.2846 48.2344L47.9751 48.748H47.6298V49.7754V51.4631L47.9751 52.7106L48.4929 53.8847C48.4929 53.8847 48.7034 54.3767 48.8382 54.6919M48.8382 54.6919C49.1415 55.0358 49.615 55.5725 49.615 55.5725L50.5644 56.3063C50.5644 56.3063 51.3573 56.5436 51.7728 56.82C52.8888 57.5623 47.8441 53.8562 48.8382 54.6919ZM48.8382 54.6919C48.5011 54.9212 47.9751 55.279 47.9751 55.279M43.832 63.2042C43.832 63.2042 44.0807 64.2944 44.3499 64.9654C44.5743 65.5245 44.8252 65.7979 45.0404 66.3596C45.276 66.9744 45.1437 67.3908 45.472 67.974C45.763 68.491 46.1032 68.6896 46.5077 69.1481M52.3949 39.7397C52.3949 39.7397 52.5481 40.2596 52.5668 40.6027C52.5926 41.0757 52.4991 41.3414 52.3949 41.8035C52.2944 42.2491 52.1678 42.4798 52.0509 42.9214C51.9987 43.1187 51.9496 43.281 51.9072 43.4373M52.3949 40.5137C52.3949 40.5137 52.021 40.3428 51.7728 40.2557C51.5493 40.1772 51.3952 39.9635 51.191 40.0837C51.007 40.192 51.019 40.6027 51.019 40.6027C51.019 40.6027 50.8721 41.1192 50.8471 41.4595C50.8323 41.6605 50.8471 41.9755 50.8471 41.9755C50.8471 41.9755 50.7825 42.3005 50.8471 42.4914C50.9159 42.6951 51.039 42.7693 51.191 42.9214C51.3431 43.0734 51.621 43.2653 51.621 43.2653L51.9072 43.4373" stroke="#725050" stroke-width="0.3"/>
<path d="M47.3218 71.8998L49.7295 72.7597H51.6213L53.599 72.473L54.7169 71.8998" stroke="#725050" stroke-width="0.3"/>
<path d="M37.3467 74.438L38.9123 74.8234L40.8258 74.438L42.8263 73.8983L44.9138 72.5877" stroke="#725050" stroke-width="0.3"/>
<path d="M51.879 24.0897H49.0413L48.8263 16.9525L48.6114 9.81541L46.1177 9.12749L50.5031 5L53.9427 9.55744H51.1911L51.879 24.0897Z" fill="#725050" stroke="#725050" stroke-width="0.3"/>
</g>
</g>
<defs>
<filter id="filter0_dd_144_88" x="0" y="0" width="91" height="98" filterUnits="userSpaceOnUse" color-interpolation-filters="sRGB">
<feFlood flood-opacity="0" result="BackgroundImageFix"/>
<feColorMatrix in="SourceAlpha" type="matrix" values="0 0 0 0 0 0 0 0 0 0 0 0 0 0 0 0 0 0 127 0" result="hardAlpha"/>
<feOffset dy="4"/>
<feGaussianBlur stdDeviation="2"/>
<feComposite in2="hardAlpha" operator="out"/>
<feColorMatrix type="matrix" values="0 0 0 0 0 0 0 0 0 0 0 0 0 0 0 0 0 0 0.25 0"/>
<feBlend mode="normal" in2="BackgroundImageFix" result="effect1_dropShadow_144_88"/>
<feColorMatrix in="SourceAlpha" type="matrix" values="0 0 0 0 0 0 0 0 0 0 0 0 0 0 0 0 0 0 127 0" result="hardAlpha"/>
<feOffset dy="4"/>
<feGaussianBlur stdDeviation="2"/>
<feComposite in2="hardAlpha" operator="out"/>
<feColorMatrix type="matrix" values="0 0 0 0 0 0 0 0 0 0 0 0 0 0 0 0 0 0 0.25 0"/>
<feBlend mode="normal" in2="effect1_dropShadow_144_88" result="effect2_dropShadow_144_88"/>
<feBlend mode="normal" in="SourceGraphic" in2="effect2_dropShadow_144_88" result="shape"/>
</filter>
<filter id="filter1_d_144_88" x="0" y="0" width="91" height="98" filterUnits="userSpaceOnUse" color-interpolation-filters="sRGB">
<feFlood flood-opacity="0" result="BackgroundImageFix"/>
<feColorMatrix in="SourceAlpha" type="matrix" values="0 0 0 0 0 0 0 0 0 0 0 0 0 0 0 0 0 0 127 0" result="hardAlpha"/>
<feOffset dy="4"/>
<feGaussianBlur stdDeviation="2"/>
<feComposite in2="hardAlpha" operator="out"/>
<feColorMatrix type="matrix" values="0 0 0 0 0 0 0 0 0 0 0 0 0 0 0 0 0 0 0.25 0"/>
<feBlend mode="normal" in2="BackgroundImageFix" result="effect1_dropShadow_144_88"/>
<feBlend mode="normal" in="SourceGraphic" in2="effect1_dropShadow_144_88" result="shape"/>
</filter>
<filter id="filter2_ddd_144_88" x="28.0376" y="4.77612" width="34.6125" height="85.9364" filterUnits="userSpaceOnUse" color-interpolation-filters="sRGB">
<feFlood flood-opacity="0" result="BackgroundImageFix"/>
<feColorMatrix in="SourceAlpha" type="matrix" values="0 0 0 0 0 0 0 0 0 0 0 0 0 0 0 0 0 0 127 0" result="hardAlpha"/>
<feOffset dy="4"/>
<feGaussianBlur stdDeviation="2"/>
<feComposite in2="hardAlpha" operator="out"/>
<feColorMatrix type="matrix" values="0 0 0 0 0 0 0 0 0 0 0 0 0 0 0 0 0 0 0.25 0"/>
<feBlend mode="normal" in2="BackgroundImageFix" result="effect1_dropShadow_144_88"/>
<feColorMatrix in="SourceAlpha" type="matrix" values="0 0 0 0 0 0 0 0 0 0 0 0 0 0 0 0 0 0 127 0" result="hardAlpha"/>
<feOffset dy="4"/>
<feGaussianBlur stdDeviation="2"/>
<feComposite in2="hardAlpha" operator="out"/>
<feColorMatrix type="matrix" values="0 0 0 0 0 0 0 0 0 0 0 0 0 0 0 0 0 0 0.25 0"/>
<feBlend mode="normal" in2="effect1_dropShadow_144_88" result="effect2_dropShadow_144_88"/>
<feColorMatrix in="SourceAlpha" type="matrix" values="0 0 0 0 0 0 0 0 0 0 0 0 0 0 0 0 0 0 127 0" result="hardAlpha"/>
<feOffset dy="4"/>
<feGaussianBlur stdDeviation="2"/>
<feComposite in2="hardAlpha" operator="out"/>
<feColorMatrix type="matrix" values="0 0 0 0 0 0 0 0 0 0 0 0 0 0 0 0 0 0 0.25 0"/>
<feBlend mode="normal" in2="effect2_dropShadow_144_88" result="effect3_dropShadow_144_88"/>
<feBlend mode="normal" in="SourceGraphic" in2="effect3_dropShadow_144_88" result="shape"/>
</filter>
</defs>
</svg>
