<svg width="91" height="98" viewBox="0 0 91 98" fill="none" xmlns="http://www.w3.org/2000/svg">
<g filter="url(#filter0_d_144_124)">
<ellipse cx="45.5" cy="45" rx="41.5" ry="45" fill="#D9D9D9"/>
<g filter="url(#filter1_d_144_124)">
<g filter="url(#filter2_d_144_124)">
<path fill-rule="evenodd" clip-rule="evenodd" d="M41.2051 51.7382C41.7629 52.1193 42.0739 52.3412 42.5762 52.7929C42.5762 52.7929 45.0513 54.059 45.3958 51.0002C45.7403 47.9414 37.3932 36.2415 37.3932 36.2415C36.9379 36.6736 36.5584 37.0337 36.2481 37.7109C35.9168 38.4339 35.8913 38.9741 35.8586 39.6658C35.8502 39.8457 35.8412 40.0359 35.8262 40.2421C35.7895 40.7484 35.8004 41.1117 35.8126 41.518C35.8192 41.7382 35.8262 41.971 35.8262 42.246C35.8262 42.6079 35.8107 42.9148 35.7961 43.2051C35.7691 43.7409 35.7449 44.2199 35.8262 44.8828C35.8427 45.017 35.8576 45.1459 35.8721 45.2705C35.99 46.2872 36.0742 47.0121 36.67 47.9414C36.954 48.3844 37.22 48.6331 37.5393 48.9318C37.6622 49.0466 37.7929 49.1689 37.9356 49.3124C38.0454 49.4229 38.1448 49.5248 38.2386 49.621C38.619 50.0109 38.9065 50.3057 39.4122 50.6835C39.761 50.9442 40.0583 51.0968 40.3625 51.2529C40.4318 51.2885 40.5016 51.3243 40.5723 51.3615C40.7701 51.4657 40.976 51.5816 41.2051 51.7382Z" fill="#ECCCC0"/>
<path d="M41.5368 32.8827C41.5368 32.8827 43.9997 37.0002 48.8969 35.3626C48.8969 35.3626 46.6796 33.0061 44.7911 32.6484C43.5392 32.4112 42.7418 32.4686 41.5368 32.8827Z" fill="#ECCCC0"/>
<path d="M66.9997 23.9999C66.9997 21.5 55.4997 9.99993 53.4997 10.5C51.4997 11 49.306 11.3816 48.2207 13.0702C54.1773 18.0636 58.517 22.6172 64.4736 27.6106C65.4601 26.2006 66.9997 25.7208 66.9997 23.9999Z" fill="#ECCCC0"/>
<path d="M36.2481 55.9299C35.9712 56.187 35.8262 56.8007 35.8262 56.8007L41.2051 59.6213C41.2051 59.6213 41.5995 58.1915 41.2051 57.4335C41.0261 57.0895 40.9018 56.7811 40.5723 56.6681L39.7286 56.3789L38.4629 55.9299L37.574 55.6406C37.574 55.6406 36.6364 55.5692 36.2481 55.9299Z" fill="#ECCCC0"/>
<path d="M28.4998 48C28.4998 48 29.5878 49.6254 29.92 50.6835C29.9998 50.9379 30.0559 51.1651 30.1088 51.379C30.2288 51.8651 30.3318 52.2822 30.6583 52.7929C30.9673 53.2764 31.2771 53.5354 31.6415 53.8401L31.6425 53.841C31.6853 53.8768 31.7288 53.9132 31.7732 53.9507C31.8876 54.0473 32.0077 54.1511 32.1348 54.2695C32.2572 54.3835 32.3679 54.4885 32.4721 54.5874C32.8773 54.9719 33.186 55.2649 33.7168 55.6406C34.4843 56.1837 34.9522 56.4545 35.8262 56.8007C35.8262 56.8007 35.9712 56.187 36.2481 55.9299C36.6364 55.5692 37.574 55.6406 37.574 55.6406L38.4629 55.9299L39.7286 56.3789L40.5723 56.6681C40.9018 56.7811 41.0261 57.0895 41.2051 57.4335C41.5995 58.1915 41.2051 59.6213 41.2051 59.6213C41.7406 59.333 42.5762 57.4335 42.5762 57.4335C43.1302 56.8932 43.42 55.6406 43.42 55.6406C43.42 55.6406 43.7933 54.3244 43.42 53.6367C43.1977 53.2271 42.5762 52.7929 42.5762 52.7929C42.0739 52.3412 41.7629 52.1193 41.2051 51.7382C40.976 51.5816 40.7701 51.4657 40.5723 51.3615C40.5016 51.3243 40.4318 51.2885 40.3625 51.2529C40.0583 51.0968 39.761 50.9442 39.4122 50.6835C38.9065 50.3057 38.619 50.0109 38.2386 49.621C38.1448 49.5248 38.0454 49.4229 37.9356 49.3124C37.7929 49.1689 37.6622 49.0466 37.5393 48.9318C37.22 48.6331 36.954 48.3844 36.67 47.9414C36.0742 47.0121 35.99 46.2872 35.8721 45.2705C35.8576 45.1459 35.8427 45.017 35.8262 44.8828C35.7449 44.2199 35.7691 43.7409 35.7961 43.2051C35.8107 42.9148 35.8262 42.6079 35.8262 42.246C35.8262 41.971 35.8192 41.7382 35.8126 41.518C35.8004 41.1117 35.7895 40.7484 35.8262 40.2421C35.8412 40.0359 35.8502 39.8457 35.8586 39.6658C35.8913 38.9741 35.9168 38.4339 36.2481 37.7109C36.5584 37.0337 36.9379 36.6736 37.3932 36.2415C37.5633 36.0802 37.744 35.9087 37.9356 35.707L41.5368 32.8827C42.7418 32.4686 43.5392 32.4112 44.7911 32.6484C46.6796 33.0061 48.8969 35.3626 48.8969 35.3626C48.8969 35.3626 49.4183 35.8122 49.959 36.6562C50.4997 37.5002 50.0129 47.9107 45.7403 52.2656L43.42 55.6406C43.42 55.6406 43.1302 56.8932 42.5762 57.4335C42.5762 57.4335 41.7406 59.333 41.2051 59.6213C44.5204 66.2832 46.905 71.5325 51.2024 74.0163C52.8791 74.9854 53.382 73.3677 53.3726 71C53.3683 69.93 53.2594 68.7068 53.107 67.5C52.7322 64.533 52.094 61.6648 52.0998 61.4142C52.2533 61.1034 51.9425 60.6157 52.0998 60.3406L64.4736 27.6106C58.517 22.6172 54.1773 18.0636 48.2207 13.0702C36.67 23.9999 30.436 26.5 26.4997 42.246C25.9997 44.246 28.4998 48 28.4998 48Z" fill="#ECCCC0"/>
<path d="M48.2207 13.0702C49.306 11.3816 51.4997 11 53.4997 10.5C55.4997 9.99993 66.9997 21.5 66.9997 23.9999C66.9997 25.7208 65.4601 26.2006 64.4736 27.6106M48.2207 13.0702C36.67 23.9999 30.436 26.5 26.4997 42.246M48.2207 13.0702C54.1773 18.0636 58.517 22.6172 64.4736 27.6106M35.8262 56.8007C34.9522 56.4545 34.4843 56.1837 33.7168 55.6406C33.186 55.2649 32.8773 54.9719 32.4721 54.5874C32.3679 54.4885 32.2572 54.3835 32.1348 54.2695C32.0077 54.1511 31.8876 54.0473 31.7732 53.9507M35.8262 56.8007C35.8262 56.8007 35.9712 56.187 36.2481 55.9299C36.6364 55.5692 37.574 55.6406 37.574 55.6406L38.4629 55.9299L39.7286 56.3789M35.8262 56.8007L41.2051 59.6213M41.2051 59.6213C41.7406 59.333 42.5762 57.4335 42.5762 57.4335C43.1302 56.8932 43.42 55.6406 43.42 55.6406M41.2051 59.6213C41.2051 59.6213 41.5995 58.1915 41.2051 57.4335C41.0261 57.0895 40.9018 56.7811 40.5723 56.6681M41.2051 59.6213C44.5204 66.2832 46.905 71.5325 51.2024 74.0163C52.8791 74.9854 53.382 73.3677 53.3726 71M43.42 55.6406C43.42 55.6406 43.7933 54.3244 43.42 53.6367C43.1977 53.2271 42.5762 52.7929 42.5762 52.7929M43.42 55.6406L45.7403 52.2656C50.0129 47.9107 50.4997 37.5002 49.959 36.6562C49.4183 35.8122 48.8969 35.3626 48.8969 35.3626M42.5762 52.7929C42.0739 52.3412 41.7629 52.1193 41.2051 51.7382C40.976 51.5816 40.7701 51.4657 40.5723 51.3615M42.5762 52.7929C42.5762 52.7929 45.0513 54.059 45.3958 51.0002C45.7403 47.9414 37.3932 36.2415 37.3932 36.2415M37.9356 35.707C37.744 35.9087 37.5633 36.0802 37.3932 36.2415M37.9356 35.707C37.9356 35.707 40.1304 33.9857 41.5368 32.8827M37.9356 35.707L41.5368 32.8827M52.0998 61.4142C52.0998 61.4142 50.9162 61.4405 50.4412 61.4142C50.0792 61.3942 49.8726 61.3407 49.5372 61.2033M52.0998 61.4142C52.2533 61.1034 51.9425 60.6157 52.0998 60.3406M52.0998 61.4142C52.094 61.6648 52.7322 64.533 53.107 67.5M39.7286 56.3789C40.0581 56.4918 40.2428 56.5552 40.5723 56.6681M39.7286 56.3789L40.5723 56.6681M49.959 59.6213C49.959 59.6213 50.5062 59.841 50.863 59.9648C51.3399 60.1303 52.0998 60.3406 52.0998 60.3406M52.0998 60.3406C52.0998 60.3406 59.6413 40.3925 64.4736 27.6106M52.0998 60.3406L64.4736 27.6106M33.2497 52.7929C33.2497 52.7929 33.0329 53.196 32.8279 53.3986C32.4973 53.7255 31.7732 53.9507 31.7732 53.9507M31.7732 53.9507C31.7288 53.9132 31.6853 53.8768 31.6425 53.841L31.6415 53.8401C31.2771 53.5354 30.9673 53.2764 30.6583 52.7929C30.3318 52.2822 30.2288 51.8651 30.1088 51.379C30.0559 51.1651 29.9998 50.9379 29.92 50.6835C29.5878 49.6254 28.4998 48 28.4998 48C28.4998 48 25.9997 44.246 26.4997 42.246M29.5583 44.5392C29.1169 44.6733 26.9997 42.246 26.4997 42.246M35.8586 39.6658C35.8502 39.8457 35.8412 40.0359 35.8262 40.2421C35.7895 40.7484 35.8004 41.1117 35.8126 41.518C35.8192 41.7382 35.8262 41.971 35.8262 42.246C35.8262 42.6079 35.8107 42.9148 35.7961 43.2051C35.7691 43.7409 35.7449 44.2199 35.8262 44.8828C35.8427 45.017 35.8576 45.1459 35.8721 45.2705C35.99 46.2872 36.0742 47.0121 36.67 47.9414C36.954 48.3844 37.22 48.6331 37.5393 48.9318C37.6622 49.0466 37.7929 49.1689 37.9356 49.3124C38.0454 49.4229 38.1448 49.5248 38.2386 49.621C38.619 50.0109 38.9065 50.3057 39.4122 50.6835C39.761 50.9442 40.0583 51.0968 40.3625 51.2529C40.4318 51.2885 40.5016 51.3243 40.5723 51.3615M35.8586 39.6658C35.8913 38.9741 35.9168 38.4339 36.2481 37.7109C36.5584 37.0337 36.9379 36.6736 37.3932 36.2415M35.8586 39.6658C35.8586 39.6658 42.5762 48.9318 42.4998 50.5002C42.4233 52.0686 40.5723 51.3615 40.5723 51.3615M41.5368 32.8827C41.5368 32.8827 43.9997 37.0002 48.8969 35.3626M41.5368 32.8827C42.7418 32.4686 43.5392 32.4112 44.7911 32.6484C46.6796 33.0061 48.8969 35.3626 48.8969 35.3626M53.3726 71L50.4412 71.5C50.4412 71.5 50.1812 70.2365 50.4412 69.5C50.8743 68.2727 53.107 67.5 53.107 67.5M53.3726 71C53.3683 69.93 53.2594 68.7068 53.107 67.5" stroke="#725050" stroke-width="0.3"/>
</g>
</g>
</g>
<defs>
<filter id="filter0_d_144_124" x="0" y="0" width="91" height="98" filterUnits="userSpaceOnUse" color-interpolation-filters="sRGB">
<feFlood flood-opacity="0" result="BackgroundImageFix"/>
<feColorMatrix in="SourceAlpha" type="matrix" values="0 0 0 0 0 0 0 0 0 0 0 0 0 0 0 0 0 0 127 0" result="hardAlpha"/>
<feOffset dy="4"/>
<feGaussianBlur stdDeviation="2"/>
<feComposite in2="hardAlpha" operator="out"/>
<feColorMatrix type="matrix" values="0 0 0 0 0 0 0 0 0 0 0 0 0 0 0 0 0 0 0.25 0"/>
<feBlend mode="normal" in2="BackgroundImageFix" result="effect1_dropShadow_144_124"/>
<feBlend mode="normal" in="SourceGraphic" in2="effect1_dropShadow_144_124" result="shape"/>
</filter>
<filter id="filter1_d_144_124" x="20.2837" y="10.3342" width="52.866" height="76.1179" filterUnits="userSpaceOnUse" color-interpolation-filters="sRGB">
<feFlood flood-opacity="0" result="BackgroundImageFix"/>
<feColorMatrix in="SourceAlpha" type="matrix" values="0 0 0 0 0 0 0 0 0 0 0 0 0 0 0 0 0 0 127 0" result="hardAlpha"/>
<feOffset dy="6"/>
<feGaussianBlur stdDeviation="3"/>
<feComposite in2="hardAlpha" operator="out"/>
<feColorMatrix type="matrix" values="0 0 0 0 0 0 0 0 0 0 0 0 0 0 0 0 0 0 0.25 0"/>
<feBlend mode="normal" in2="BackgroundImageFix" result="effect1_dropShadow_144_124"/>
<feBlend mode="normal" in="SourceGraphic" in2="effect1_dropShadow_144_124" result="shape"/>
</filter>
<filter id="filter2_d_144_124" x="25.4399" y="10.3342" width="42.5535" height="65.8054" filterUnits="userSpaceOnUse" color-interpolation-filters="sRGB">
<feFlood flood-opacity="0" result="BackgroundImageFix"/>
<feColorMatrix in="SourceAlpha" type="matrix" values="0 0 0 0 0 0 0 0 0 0 0 0 0 0 0 0 0 0 127 0" result="hardAlpha"/>
<feOffset dy="0.84375"/>
<feGaussianBlur stdDeviation="0.421875"/>
<feComposite in2="hardAlpha" operator="out"/>
<feColorMatrix type="matrix" values="0 0 0 0 0 0 0 0 0 0 0 0 0 0 0 0 0 0 0.25 0"/>
<feBlend mode="normal" in2="BackgroundImageFix" result="effect1_dropShadow_144_124"/>
<feBlend mode="normal" in="SourceGraphic" in2="effect1_dropShadow_144_124" result="shape"/>
</filter>
</defs>
</svg>
