<svg width="91" height="98" viewBox="0 0 91 98" fill="none" xmlns="http://www.w3.org/2000/svg">
<g filter="url(#filter0_dd_140_46)">
<g filter="url(#filter1_d_140_46)">
<ellipse cx="45.5" cy="45" rx="41.5" ry="45" fill="#D9D9D9"/>
</g>
<g filter="url(#filter2_d_140_46)">
<g filter="url(#filter3_dd_140_46)">
<path d="M58.1921 65.1742C57.6849 66.6602 58.1921 68.6812 58.1921 70.9284V73.9331H34.7268V59.6298C34.7268 59.6298 34.3757 59.7093 33.5146 58.6775C32.6534 57.6457 27.4534 34.9182 27.4534 34.9182C27.6458 33.4178 27.957 32.5504 28.7522 31.2986C29.4656 30.1756 30.1929 29.2095 31.0901 28.8855C31.9874 28.5615 33.3034 28.3957 33.3034 28.3957C33.3034 28.3957 35.7225 26.4774 37.624 26.108C39.4949 25.7445 42.4034 27.0957 42.4034 27.0957C42.4034 27.0957 40.0576 25.8463 39.1534 24.4957C37.8763 22.5879 35.5037 18.5836 38.274 18.6831C41.0442 18.7826 41.9124 20.2265 43.2124 20.9039C43.2124 20.9039 44.3134 14.6733 47.3686 14.133C50.4494 13.5882 53.1546 19.1884 53.2227 19.3304C53.1917 19.264 52.6453 18.0057 55.2481 17.0059C57.9223 15.9786 64.0769 27.9632 64.0769 27.9632C65.574 29.0831 65.2021 28.8496 66.0252 29.9245C66.874 31.0331 66.874 31.6831 66.8509 32.5051C66.8279 33.3271 61.8288 57.0069 61.8288 57.0069C60.9158 58.7104 59.9982 59.8829 59.4909 61.369L58.1921 65.1742Z" fill="#ECCCC0"/>
<path d="M61.8288 57.0069C60.9158 58.7104 59.9982 59.8829 59.4909 61.369C58.9837 62.855 58.6993 63.6882 58.1921 65.1742C57.6849 66.6602 58.1921 68.6812 58.1921 70.9284V73.9331H34.7268V59.6298M61.8288 57.0069C61.8288 57.0069 55.8914 60.3418 52.6505 58.6775C50.9102 57.7838 49.187 55.0579 49.187 55.0579M61.8288 57.0069C61.8288 57.0069 66.8279 33.3271 66.8509 32.5051C66.874 31.6831 66.874 31.0331 66.0252 29.9245C65.2021 28.8496 65.574 29.0831 64.0769 27.9632M53.224 19.3331C53.224 19.3331 52.574 18.0331 55.2481 17.0059C57.9223 15.9786 64.0769 27.9632 64.0769 27.9632M53.224 19.3331C53.224 19.3331 50.4889 13.5812 47.3686 14.133C44.3134 14.6733 43.2124 20.9039 43.2124 20.9039M53.224 19.3331C53.224 19.3331 53.6877 39.4831 54.1058 40.7831C54.524 42.0831 55.824 44.0331 57.774 42.7331C59.724 41.4331 61.0246 26.5467 61.8288 26.9365C62.633 27.3263 63.2286 27.7023 64.0769 27.9632M53.224 19.3331C53.224 19.3331 55.2481 43.3831 49.974 44.0331C45.9193 44.5328 42.4034 27.0957 42.4034 27.0957M43.2124 20.9039L43.0534 22.5457L42.824 24.4957C42.824 24.4957 42.4034 25.7957 42.4034 27.0957M43.2124 20.9039C41.9124 20.2265 41.0442 18.7826 38.274 18.6831M43.2124 20.9039C43.2124 20.9039 41.6995 21.7913 40.874 21.9331C39.7916 22.1191 38.1037 20.42 38.1037 20.42L38.274 18.6831M38.274 18.6831C35.5037 18.5836 37.8763 22.5879 39.1534 24.4957C40.0576 25.8463 42.4034 27.0957 42.4034 27.0957M42.4034 27.0957C42.4034 27.0957 49.3755 48.4916 44.3534 50.6045C39.3313 52.7173 36.8708 31.2986 33.3034 28.3957M42.4034 27.0957C42.4034 27.0957 39.4949 25.7445 37.624 26.108C35.7225 26.4774 33.3034 28.3957 33.3034 28.3957M33.3034 28.3957C33.3034 28.3957 31.9874 28.5615 31.0901 28.8855C30.1929 29.2095 29.4656 30.1756 28.7522 31.2986C27.957 32.5504 27.6458 33.4178 27.4534 34.9182M33.3034 28.3957C33.3034 28.3957 43.6454 51.0423 39.8355 52.7377C36.0256 54.433 27.4534 34.9182 27.4534 34.9182M27.4534 34.9182C27.4534 34.9182 32.6534 57.6457 33.5146 58.6775C34.3757 59.7093 34.7268 59.6298 34.7268 59.6298M61.8288 37.424C61.8288 37.424 63.4759 37.021 64.4264 36.4959C65.0351 36.1597 65.8984 35.475 65.8984 35.475M34.7268 59.6298C34.7268 59.6298 37.8929 60.1537 39.8355 59.6984C41.9739 59.1972 44.7739 57.0069 44.7739 57.0069M38.1037 51.1831L39.8355 50.2954C39.8355 50.2954 39.6472 48.8083 38.924 48.5831C38.6181 48.4879 38.3891 48.4377 38.1037 48.5831C37.8226 48.7264 37.624 49.2331 37.624 49.2331C37.3225 49.9571 38.1037 51.1831 38.1037 51.1831ZM42.174 48.5831L45.424 47.2831C45.424 47.2831 45.3416 45.9007 44.774 45.3331C44.2064 44.7655 43.5984 44.4719 42.824 44.6831C42.1313 44.872 41.7871 45.3151 41.524 45.9831C41.1404 46.9569 42.174 48.5831 42.174 48.5831ZM48.024 42.0831L51.274 41.4331C51.274 41.4331 51.5078 40.2078 51.274 39.4831C50.9223 38.3935 50.288 37.1099 49.187 37.424C48.2989 37.6775 48.2699 38.5929 48.024 39.4831C47.7536 40.4618 48.024 42.0831 48.024 42.0831ZM55.174 40.7831L58.1921 41.0313C58.1921 41.0313 58.4951 39.6363 58.1921 38.8331C57.9484 38.187 57.809 37.5107 57.124 37.424C56.5407 37.3503 56.2295 37.7575 55.824 38.1831C55.1019 38.9408 55.174 40.7831 55.174 40.7831Z" stroke="#725050" stroke-width="0.39"/>
</g>
</g>
</g>
<defs>
<filter id="filter0_dd_140_46" x="0" y="0" width="91" height="98" filterUnits="userSpaceOnUse" color-interpolation-filters="sRGB">
<feFlood flood-opacity="0" result="BackgroundImageFix"/>
<feColorMatrix in="SourceAlpha" type="matrix" values="0 0 0 0 0 0 0 0 0 0 0 0 0 0 0 0 0 0 127 0" result="hardAlpha"/>
<feOffset dy="4"/>
<feGaussianBlur stdDeviation="2"/>
<feComposite in2="hardAlpha" operator="out"/>
<feColorMatrix type="matrix" values="0 0 0 0 0 0 0 0 0 0 0 0 0 0 0 0 0 0 0.25 0"/>
<feBlend mode="normal" in2="BackgroundImageFix" result="effect1_dropShadow_140_46"/>
<feColorMatrix in="SourceAlpha" type="matrix" values="0 0 0 0 0 0 0 0 0 0 0 0 0 0 0 0 0 0 127 0" result="hardAlpha"/>
<feOffset dy="4"/>
<feGaussianBlur stdDeviation="2"/>
<feComposite in2="hardAlpha" operator="out"/>
<feColorMatrix type="matrix" values="0 0 0 0 0 0 0 0 0 0 0 0 0 0 0 0 0 0 0.25 0"/>
<feBlend mode="normal" in2="effect1_dropShadow_140_46" result="effect2_dropShadow_140_46"/>
<feBlend mode="normal" in="SourceGraphic" in2="effect2_dropShadow_140_46" result="shape"/>
</filter>
<filter id="filter1_d_140_46" x="0" y="0" width="91" height="98" filterUnits="userSpaceOnUse" color-interpolation-filters="sRGB">
<feFlood flood-opacity="0" result="BackgroundImageFix"/>
<feColorMatrix in="SourceAlpha" type="matrix" values="0 0 0 0 0 0 0 0 0 0 0 0 0 0 0 0 0 0 127 0" result="hardAlpha"/>
<feOffset dy="4"/>
<feGaussianBlur stdDeviation="2"/>
<feComposite in2="hardAlpha" operator="out"/>
<feColorMatrix type="matrix" values="0 0 0 0 0 0 0 0 0 0 0 0 0 0 0 0 0 0 0.25 0"/>
<feBlend mode="normal" in2="BackgroundImageFix" result="effect1_dropShadow_140_46"/>
<feBlend mode="normal" in="SourceGraphic" in2="effect1_dropShadow_140_46" result="shape"/>
</filter>
<filter id="filter2_d_140_46" x="22.0556" y="13.9006" width="50.1964" height="70.6274" filterUnits="userSpaceOnUse" color-interpolation-filters="sRGB">
<feFlood flood-opacity="0" result="BackgroundImageFix"/>
<feColorMatrix in="SourceAlpha" type="matrix" values="0 0 0 0 0 0 0 0 0 0 0 0 0 0 0 0 0 0 127 0" result="hardAlpha"/>
<feOffset dy="5.2"/>
<feGaussianBlur stdDeviation="2.6"/>
<feComposite in2="hardAlpha" operator="out"/>
<feColorMatrix type="matrix" values="0 0 0 0 0 0 0 0 0 0 0 0 0 0 0 0 0 0 0.25 0"/>
<feBlend mode="normal" in2="BackgroundImageFix" result="effect1_dropShadow_140_46"/>
<feBlend mode="normal" in="SourceGraphic" in2="effect1_dropShadow_140_46" result="shape"/>
</filter>
<filter id="filter3_dd_140_46" x="22.0556" y="13.9006" width="50.1964" height="70.6274" filterUnits="userSpaceOnUse" color-interpolation-filters="sRGB">
<feFlood flood-opacity="0" result="BackgroundImageFix"/>
<feColorMatrix in="SourceAlpha" type="matrix" values="0 0 0 0 0 0 0 0 0 0 0 0 0 0 0 0 0 0 127 0" result="hardAlpha"/>
<feOffset dy="5.2"/>
<feGaussianBlur stdDeviation="2.6"/>
<feComposite in2="hardAlpha" operator="out"/>
<feColorMatrix type="matrix" values="0 0 0 0 0 0 0 0 0 0 0 0 0 0 0 0 0 0 0.25 0"/>
<feBlend mode="normal" in2="BackgroundImageFix" result="effect1_dropShadow_140_46"/>
<feColorMatrix in="SourceAlpha" type="matrix" values="0 0 0 0 0 0 0 0 0 0 0 0 0 0 0 0 0 0 127 0" result="hardAlpha"/>
<feOffset dy="5.2"/>
<feGaussianBlur stdDeviation="2.6"/>
<feComposite in2="hardAlpha" operator="out"/>
<feColorMatrix type="matrix" values="0 0 0 0 0 0 0 0 0 0 0 0 0 0 0 0 0 0 0.25 0"/>
<feBlend mode="normal" in2="effect1_dropShadow_140_46" result="effect2_dropShadow_140_46"/>
<feBlend mode="normal" in="SourceGraphic" in2="effect2_dropShadow_140_46" result="shape"/>
</filter>
</defs>
</svg>
