<svg width="91" height="98" viewBox="0 0 91 98" fill="none" xmlns="http://www.w3.org/2000/svg">
<g filter="url(#filter0_dd_140_53)">
<ellipse cx="45.5" cy="45" rx="41.5" ry="45" fill="#D9D9D9"/>
<g filter="url(#filter1_dd_140_53)">
<path d="M11.0362 37.0006C12.0346 36.9584 13.5675 36.6256 13.5675 36.6256C13.5675 36.6256 15.8076 36.4847 17.2237 36.2506C18.4069 36.055 19.0577 35.8748 20.2237 35.5943C21.2166 35.3555 22.755 34.9381 22.755 34.9381C22.755 34.9381 24.356 34.37 25.38 34.0006C26.1862 33.7097 26.6101 33.4548 27.4425 33.2506C28.5499 32.9789 30.3487 32.9693 30.3487 32.9693C30.3487 32.9693 31.8951 33.0543 32.88 32.9693C33.9175 32.8798 35.505 32.5006 35.505 32.5006L38.13 31.8443L40.755 31.0006L42.9112 30.4381C42.9112 30.4381 44.2003 29.8951 45.0675 29.6881C46.3894 29.3725 48.5362 29.4068 48.5362 29.4068C48.5362 29.4068 50.5963 29.1423 51.9112 28.9381C53.1959 28.7386 53.9176 28.6305 55.1925 28.3756C56.3334 28.1474 56.9622 27.9684 58.0987 27.7193C59.3051 27.4549 59.9646 27.1961 61.1925 27.0631C62.5028 26.9211 63.2494 27.0631 64.5675 27.0631C65.7756 27.0631 66.4552 26.9905 67.6612 27.0631C68.876 27.1362 69.5498 27.2689 70.755 27.4381C72.114 27.6289 72.9142 27.5903 74.2237 28.0006C75.4584 28.3875 76.1705 28.6553 77.2237 29.4068C78.2987 30.1739 79.5675 31.8443 79.5675 31.8443C79.5675 31.8443 80.5435 33.1551 81.1612 34.0006C82.0123 35.1656 82.4961 35.8144 83.3175 37.0006C84.1441 38.1944 85.0044 38.6917 85.38 40.0943C85.683 41.226 85.4925 41.9282 85.38 43.0943C85.2689 44.245 84.8175 46.0006 84.8175 46.0006L83.88 48.7193C83.5138 49.7811 82.9697 49.5806 82.38 50.1256C81.2947 51.1285 80.7557 51.7785 79.5675 52.6568C78.497 53.4481 77.8586 53.8565 76.6612 54.4381C75.8784 54.8183 75.4486 55.0945 74.5987 55.2818C73.5261 55.5183 72.753 55.8031 71.7862 55.2818C70.5752 54.629 70.8892 53.3309 70.2862 52.0943C69.8556 51.2114 69.6006 50.723 69.1612 49.8443C68.9415 49.405 68.8842 49.1191 68.5987 48.7193C68.2978 48.298 67.6612 47.7818 67.6612 47.7818L65.9737 49.3756L63.4425 49.8443H61.1925L59.13 51.1568L55.4737 52.6568L52.9425 53.5006L50.2237 54.8131L48.5362 55.8443L47.6925 57.2506L45.0675 59.8756L43.4737 62.2193L41.7862 64.1881L39.9112 65.1256L37.6612 64.1881L37.38 66.2506L37.005 68.4068L36.1612 70.3756L34.8487 71.6881L33.255 72.1568L31.2862 71.6881L30.8175 69.4381V66.2506V65.5943V62.2193V58.6568V55.8443V52.6568V50.5943L31.2862 48.7193L32.6925 46.0006L34.0987 43.0943L34.8487 41.2193H32.6925L28.755 41.4068H25.755L22.1925 41.6881L18.1612 42.0631H15.255C14.1932 42.0631 13.5908 42.1859 12.5362 42.0631C11.7945 41.9767 11.3047 42.067 10.6612 41.6881C10.1704 41.3991 9.93207 41.1397 9.62997 40.6568C9.34127 40.1955 9.26032 39.8795 9.16122 39.3443C9.04788 38.7324 8.86359 38.2972 9.16122 37.7506C9.37203 37.3634 9.59025 37.1502 10.005 37.0006C10.3838 36.864 10.6338 37.0176 11.0362 37.0006Z" fill="#ECCCC0"/>
<path d="M67.6612 47.7818C67.6612 47.7818 68.2978 48.298 68.5987 48.7193C68.8842 49.1191 68.9415 49.405 69.1612 49.8443C69.6006 50.723 69.8556 51.2114 70.2862 52.0943C70.8892 53.3309 70.5752 54.629 71.7862 55.2818C72.753 55.8031 73.5261 55.5183 74.5987 55.2818C75.4486 55.0945 75.8784 54.8183 76.6612 54.4381C77.8586 53.8565 78.497 53.4481 79.5675 52.6568C80.7557 51.7785 81.2947 51.1285 82.38 50.1256C82.9697 49.5806 83.5138 49.7811 83.88 48.7193C84.2461 47.6576 84.4513 47.0623 84.8175 46.0006C84.8175 46.0006 85.2689 44.245 85.38 43.0943C85.4925 41.9282 85.683 41.226 85.38 40.0943C85.0044 38.6917 84.1441 38.1944 83.3175 37.0006C82.4961 35.8144 82.0123 35.1656 81.1612 34.0006C80.5435 33.1551 79.5675 31.8443 79.5675 31.8443C79.5675 31.8443 78.2987 30.1739 77.2237 29.4068C76.1705 28.6553 75.4584 28.3875 74.2237 28.0006C72.9142 27.5903 72.114 27.6289 70.755 27.4381C69.5498 27.2689 68.876 27.1362 67.6612 27.0631C66.4552 26.9905 65.7756 27.0631 64.5675 27.0631C63.2494 27.0631 62.5028 26.9211 61.1925 27.0631C59.9646 27.1961 59.3051 27.4549 58.0987 27.7193C56.9622 27.9684 56.3334 28.1474 55.1925 28.3756C53.9176 28.6305 53.1959 28.7386 51.9112 28.9381C50.5963 29.1423 48.5362 29.4068 48.5362 29.4068C48.5362 29.4068 46.3894 29.3725 45.0675 29.6881C44.2003 29.8951 42.9112 30.4381 42.9112 30.4381L40.755 31.0006L38.13 31.8443L35.505 32.5006C35.505 32.5006 33.9175 32.8798 32.88 32.9693C31.8951 33.0543 30.3487 32.9693 30.3487 32.9693C30.3487 32.9693 28.5499 32.9789 27.4425 33.2506C26.6101 33.4548 26.1862 33.7097 25.38 34.0006C24.356 34.37 22.755 34.9381 22.755 34.9381C22.755 34.9381 21.2166 35.3555 20.2237 35.5943C19.0577 35.8748 18.4069 36.055 17.2237 36.2506C15.8076 36.4847 13.5675 36.6256 13.5675 36.6256C13.5675 36.6256 12.0346 36.9584 11.0362 37.0006C10.6338 37.0176 10.3838 36.864 10.005 37.0006C9.59025 37.1502 9.37203 37.3634 9.16122 37.7506C8.86359 38.2972 9.04788 38.7324 9.16122 39.3443C9.26032 39.8795 9.34127 40.1955 9.62997 40.6568C9.93207 41.1397 10.1704 41.3991 10.6612 41.6881C11.3047 42.067 11.7945 41.9767 12.5362 42.0631C13.5908 42.1859 14.1932 42.0631 15.255 42.0631C16.3899 42.0631 17.0263 42.0631 18.1612 42.0631M67.6612 47.7818L65.9737 49.3756L63.4425 49.8443H61.1925L59.13 51.1568L55.4737 52.6568L52.9425 53.5006L50.2237 54.8131L48.5362 55.8443L47.6925 57.2506M67.6612 47.7818C67.6612 47.7818 68.5639 46.5163 69.1612 45.7193C69.7717 44.9048 70.1722 44.4915 70.755 43.6568C71.1794 43.049 71.2312 42.5546 71.7862 42.0631C72.3625 41.5528 72.8427 41.4786 73.5675 41.2193C74.5883 40.8542 75.2045 40.731 76.2862 40.6568C76.8341 40.6193 77.6925 40.6568 77.6925 40.6568M47.6925 57.2506L45.0675 59.8756L43.4737 62.2193L41.7862 64.1881L39.9112 65.1256L37.6612 64.1881M47.6925 57.2506L46.8956 55.8443L46.38 54.4381M47.6925 57.2506H47.4112C47.4112 57.2506 47.0936 57.2874 46.8956 57.2506C46.3471 57.1485 46.2206 56.6988 45.8175 56.3131C45.6304 56.1341 45.3487 55.8443 45.3487 55.8443C45.3487 55.8443 44.9057 55.4814 44.5987 55.2818C44.2827 55.0764 43.755 54.8131 43.755 54.8131M37.6612 64.1881L36.1612 62.2193V59.8756L37.005 57.2506M37.6612 64.1881L37.38 66.2506L37.005 68.4069L36.1612 70.3756L34.8487 71.6881L33.255 72.1569L31.2862 71.6881M37.005 57.2506L38.5987 55.2818L40.4737 53.1256L42.1612 51.7193L44.0362 50.1256L46.0987 48.7193L46.8956 47.6881M37.005 57.2506L38.5987 53.5006M51.4425 41.6881L50.505 43.0943L49.38 44.7818L48.5362 45.7193M18.1612 42.0631C19.7355 41.9167 22.1925 41.6881 22.1925 41.6881L25.755 41.4068M18.1612 42.0631C18.5392 41.5894 18.6972 41.2508 18.8175 40.6568C18.9192 40.1545 18.8175 39.3443 18.8175 39.3443M25.755 41.4068H28.755L32.6925 41.2193H34.8487M25.755 41.4068L27.4425 41.2193C27.4425 41.2193 27.9033 40.5749 28.005 40.0943C28.0883 39.7003 28.005 39.0631 28.005 39.0631M35.505 41.2193C35.505 41.2193 36.446 41.3945 37.005 41.2193C37.8206 40.9638 37.9763 40.3051 38.5987 39.7193M35.505 41.2193H34.8487M35.505 41.2193L36.4425 42.0631L37.005 43.0943L38.13 44.3976L40.4737 46.2818M38.5987 39.7193C39.1189 39.0643 39.3269 38.579 39.4425 37.7506C39.5032 37.3155 39.4425 36.6256 39.4425 36.6256M38.5987 39.7193C39.4408 39.8658 40.755 40.0943 40.755 40.0943L42.63 40.6568L43.755 41.2193L45.0675 42.0631L46.0987 43.0943L47.13 44.2193L48.0675 45.3443L48.5362 45.7193M48.5362 45.7193L47.6925 46.6568L46.8956 47.6881M34.8487 41.2193L34.0987 43.0943L32.6925 46.0006L31.2862 48.7193L30.8175 50.5943M30.8175 50.5943V52.6568V55.8443V58.6568V62.2193V65.5944V66.2506M30.8175 50.5943C30.8175 50.5943 31.7727 50.8096 32.3175 50.5943C32.7535 50.4221 33.255 49.8443 33.255 49.8443M31.2862 71.6881L30.8175 69.4381V66.2506M31.2862 71.6881C31.2862 71.6881 31.6657 71.3155 31.8487 71.0319C32.1252 70.6033 32.3175 69.8131 32.3175 69.8131C32.4618 69.4461 32.6925 68.8756 32.6925 68.8756C32.6925 68.8756 32.4639 68.0185 32.3175 67.4694C32.3175 67.4694 32.1641 66.7927 31.8487 66.5319C31.5271 66.2658 30.8175 66.2506 30.8175 66.2506M46.8956 47.6881L45.0675 47.4068L42.63 47.1256L40.4737 46.2818M40.4737 46.2818V48.3443L39.9112 50.1256L39.0675 52.0943L38.5987 53.5006M38.5987 53.5006C38.5987 53.5006 37.8036 53.3874 37.38 53.1256C36.917 52.8395 36.4425 52.0943 36.4425 52.0943M45.0675 52.0943C45.0675 52.0943 45.5687 52.6942 45.8175 53.1256C46.0961 53.6087 46.38 54.4381 46.38 54.4381M46.38 54.4381C46.38 54.4381 45.7383 54.5401 45.3487 54.4381C45.0319 54.3551 44.869 54.248 44.5987 54.0631C44.0182 53.666 43.4737 52.6568 43.4737 52.6568M54.7237 47.4068C54.7237 47.4068 55.5617 48.1326 55.9425 48.7193C56.3717 49.3809 56.6925 50.5943 56.6925 50.5943M45.0675 37.7506C45.0675 37.7506 45.1839 38.5639 45.0675 39.0631C44.9669 39.4939 44.5987 40.0943 44.5987 40.0943M38.13 59.1256C37.8521 59.5532 37.7709 59.8463 37.6612 60.3443C37.5037 61.0594 37.3588 61.5525 37.6612 62.2193C37.886 62.715 38.5987 63.2506 38.5987 63.2506L40.4737 63.8131C40.4737 63.8131 41.1752 63.5695 41.505 63.2506C41.917 62.8523 41.9314 62.4631 42.1612 61.9381C42.3657 61.471 42.5886 61.2276 42.63 60.7193C42.6825 60.0727 42.5279 59.6608 42.1612 59.1256C41.8828 58.7193 41.6442 58.5384 41.2237 58.2818C40.7591 57.9984 40.4553 57.7991 39.9112 57.8131C39.0474 57.8353 38.6008 58.4011 38.13 59.1256Z" stroke="#725050" stroke-width="0.3"/>
</g>
</g>
<defs>
<filter id="filter0_dd_140_53" x="0" y="0" width="91" height="98" filterUnits="userSpaceOnUse" color-interpolation-filters="sRGB">
<feFlood flood-opacity="0" result="BackgroundImageFix"/>
<feColorMatrix in="SourceAlpha" type="matrix" values="0 0 0 0 0 0 0 0 0 0 0 0 0 0 0 0 0 0 127 0" result="hardAlpha"/>
<feOffset dy="4"/>
<feGaussianBlur stdDeviation="2"/>
<feComposite in2="hardAlpha" operator="out"/>
<feColorMatrix type="matrix" values="0 0 0 0 0 0 0 0 0 0 0 0 0 0 0 0 0 0 0.25 0"/>
<feBlend mode="normal" in2="BackgroundImageFix" result="effect1_dropShadow_140_53"/>
<feColorMatrix in="SourceAlpha" type="matrix" values="0 0 0 0 0 0 0 0 0 0 0 0 0 0 0 0 0 0 127 0" result="hardAlpha"/>
<feOffset dy="4"/>
<feGaussianBlur stdDeviation="2"/>
<feComposite in2="hardAlpha" operator="out"/>
<feColorMatrix type="matrix" values="0 0 0 0 0 0 0 0 0 0 0 0 0 0 0 0 0 0 0.25 0"/>
<feBlend mode="normal" in2="effect1_dropShadow_140_53" result="effect2_dropShadow_140_53"/>
<feBlend mode="normal" in="SourceGraphic" in2="effect2_dropShadow_140_53" result="shape"/>
</filter>
<filter id="filter1_dd_140_53" x="4.85052" y="26.85" width="84.8426" height="53.462" filterUnits="userSpaceOnUse" color-interpolation-filters="sRGB">
<feFlood flood-opacity="0" result="BackgroundImageFix"/>
<feColorMatrix in="SourceAlpha" type="matrix" values="0 0 0 0 0 0 0 0 0 0 0 0 0 0 0 0 0 0 127 0" result="hardAlpha"/>
<feOffset dy="4"/>
<feGaussianBlur stdDeviation="2"/>
<feComposite in2="hardAlpha" operator="out"/>
<feColorMatrix type="matrix" values="0 0 0 0 0 0 0 0 0 0 0 0 0 0 0 0 0 0 0.25 0"/>
<feBlend mode="normal" in2="BackgroundImageFix" result="effect1_dropShadow_140_53"/>
<feColorMatrix in="SourceAlpha" type="matrix" values="0 0 0 0 0 0 0 0 0 0 0 0 0 0 0 0 0 0 127 0" result="hardAlpha"/>
<feOffset dy="4"/>
<feGaussianBlur stdDeviation="2"/>
<feComposite in2="hardAlpha" operator="out"/>
<feColorMatrix type="matrix" values="0 0 0 0 0 0 0 0 0 0 0 0 0 0 0 0 0 0 0.25 0"/>
<feBlend mode="normal" in2="effect1_dropShadow_140_53" result="effect2_dropShadow_140_53"/>
<feBlend mode="normal" in="SourceGraphic" in2="effect2_dropShadow_140_53" result="shape"/>
</filter>
</defs>
</svg>
