<svg width="91" height="98" viewBox="0 0 91 98" fill="none" xmlns="http://www.w3.org/2000/svg">
<g filter="url(#filter0_d_140_64)">
<ellipse cx="45.5" cy="45" rx="41.5" ry="45" fill="#D9D9D9"/>
</g>
<g filter="url(#filter1_d_140_64)">
<path d="M33.5804 73.3641C32.6029 68.5787 30.3752 66.3666 29.1133 61.6438C27.4189 55.3022 27.0712 44.9888 27.0712 44.9888C27.0712 44.9888 26.4532 39.5669 28.8581 37.9567C30.4344 36.9013 33.708 37.2164 33.708 37.2164C33.708 37.2164 34.2515 34.8452 35.3672 33.8854C36.6768 32.7589 39.7067 32.7751 39.7067 32.7751C39.7067 32.7751 41.5695 29.4919 43.6632 29.1973C45.7588 28.9026 49.1514 31.418 49.1514 31.418L51.4487 28.3337C51.4487 28.3337 51.8316 7.73084 52.4698 6.86724C53.1079 6.00365 53.8047 5.9853 54.7671 6.00365C55.6833 6.02111 56.1969 6.34479 56.9369 6.86724C58.757 8.15232 58.7237 12.1722 58.7237 12.1722C58.7237 12.1722 57.0718 30.4036 58.7237 41.9045C59.0503 44.1784 59.7235 47.7029 59.7235 47.7029L60 49.3068C60 49.3068 59.4322 57.8907 57.8303 63.1243C56.953 65.9901 55.792 67.3852 55.0224 70.2798C53.8891 74.5425 54.0013 81.5065 54.0013 81.5065L34.3462 82C34.3462 82 34.2587 76.6849 33.5804 73.3641Z" fill="#ECCCC0"/>
<path d="M28.8581 43.1382C28.8581 43.1382 30.9398 47.6873 33.0699 50.047C34.1129 51.2024 35.7501 52.5144 35.7501 52.5144C35.7501 52.5144 36.7406 53.1266 37.4093 53.1312C38.2389 53.137 39.3238 52.391 39.3238 52.391M51.4487 28.3337C51.4487 28.3337 51.8316 7.73084 52.4698 6.86724C53.1079 6.00365 53.8047 5.9853 54.7671 6.00365C55.6833 6.02111 56.1969 6.34479 56.9369 6.86724C58.757 8.15232 58.7237 12.1722 58.7237 12.1722C58.7237 12.1722 57.0718 30.4036 58.7237 41.9045C59.0503 44.1784 59.7235 47.7029 59.7235 47.7029M51.4487 28.3337L49.1514 31.418M51.4487 28.3337C51.4487 28.3337 54.6395 27.8403 55.7882 28.5805C56.1441 28.8099 56.2795 29.5369 56.2968 30.431M49.1514 31.418C49.1514 31.418 45.7588 28.9026 43.6632 29.1973C41.5695 29.4919 39.7067 32.7751 39.7067 32.7751C39.7067 32.7751 36.6768 32.7589 35.3672 33.8854C34.2515 34.8452 33.708 37.2164 33.708 37.2164M49.1514 31.418C49.1514 31.418 47.8466 33.5714 48.3856 36.2295C48.7921 38.2343 50.1558 40.6496 50.3 42.5214C50.5186 45.3561 50.1724 49.6769 50.1724 49.6769C50.1724 49.6769 49.427 51.2639 48.258 51.5274C46.8428 51.8464 44.9396 50.4171 44.9396 50.4171M33.708 37.2164C33.708 37.2164 30.4344 36.9013 28.8581 37.9567C26.4532 39.5669 27.0712 44.9888 27.0712 44.9888C27.0712 44.9888 27.4189 55.3022 29.1133 61.6438C30.3752 66.3666 32.6029 68.5787 33.5804 73.3641C34.2587 76.6849 34.3462 82 34.3462 82L54.0013 81.5065C54.0013 81.5065 53.8891 74.5425 55.0224 70.2798C55.792 67.3852 56.953 65.9901 57.8303 63.1243C59.4322 57.8907 60 49.3068 60 49.3068L59.7235 47.7029M33.708 37.2164C33.708 37.2164 36.8927 42.5844 38.0475 46.3459C38.7566 48.6558 39.3238 52.391 39.3238 52.391M55.7882 35.2425C55.7882 35.2425 56.3352 32.4223 56.2968 30.431M55.7882 35.2425L53.4908 32.7751V30.431H56.2968M55.7882 35.2425L58.2818 43.1382M59.7235 47.7029L58.2818 43.1382M39.7067 33.2686L44.9396 50.4171M44.9396 50.4171L45.0672 52.6378C45.0672 52.6378 44.8196 53.9528 43.9185 54.365C42.8735 54.8429 42.2488 54.6611 41.2383 54.1182C40.312 53.6206 39.3238 52.391 39.3238 52.391M55.7882 42.6448L58.2818 43.1382M44.8119 41.2877C44.8119 41.2877 45.5102 41.8651 46.0882 41.6578C46.7374 41.4249 46.854 40.5474 46.854 40.5474M39.0685 43.385C39.0685 43.385 39.5734 43.7744 40.0896 43.6317C40.69 43.4657 40.7277 42.6448 40.7277 42.6448M33.0699 46.2225C33.0699 46.2225 33.6622 46.4203 34.2186 46.0991C34.8313 45.7454 34.9843 44.9888 34.9843 44.9888M54 20.5C54 20.5 54.5656 19.9557 55 20C55.3626 20.037 55.7882 20.5 55.7882 20.5M54 14.5C54 14.5 54.4516 13.435 55 13.5C55.4938 13.5585 55.7882 14.5 55.7882 14.5M36.133 52.1443L38.558 51.034C38.558 51.034 38.2844 50.0485 37.7922 49.6769C37.2682 49.2811 36.7318 49.0271 36.133 49.3068C35.6476 49.5335 35.4654 49.9047 35.3672 50.4171C35.229 51.1387 36.133 52.1443 36.133 52.1443ZM41.2383 53.1312L44.3014 52.1443C44.3014 52.1443 44.2066 50.9041 43.6632 50.4171C43.1311 49.9401 42.5712 49.721 41.8764 49.9236C41.2691 50.1008 40.9538 50.461 40.7277 51.034C40.4176 51.8201 41.2383 53.1312 41.2383 53.1312ZM46.2159 50.4171L49.5343 49.3068C49.5343 49.3068 49.4271 47.904 48.7685 47.4562C48.2323 47.0916 47.7341 47.0175 47.1093 47.2095C46.5373 47.3852 46.2327 47.6793 45.9606 48.1964C45.5514 48.9742 46.2159 50.4171 46.2159 50.4171Z" stroke="#725050" stroke-width="0.3"/>
</g>
<defs>
<filter id="filter0_d_140_64" x="0" y="0" width="91" height="98" filterUnits="userSpaceOnUse" color-interpolation-filters="sRGB">
<feFlood flood-opacity="0" result="BackgroundImageFix"/>
<feColorMatrix in="SourceAlpha" type="matrix" values="0 0 0 0 0 0 0 0 0 0 0 0 0 0 0 0 0 0 127 0" result="hardAlpha"/>
<feOffset dy="4"/>
<feGaussianBlur stdDeviation="2"/>
<feComposite in2="hardAlpha" operator="out"/>
<feColorMatrix type="matrix" values="0 0 0 0 0 0 0 0 0 0 0 0 0 0 0 0 0 0 0.25 0"/>
<feBlend mode="normal" in2="BackgroundImageFix" result="effect1_dropShadow_140_64"/>
<feBlend mode="normal" in="SourceGraphic" in2="effect1_dropShadow_140_64" result="shape"/>
</filter>
<filter id="filter1_d_140_64" x="21.6501" y="5.84985" width="43.7008" height="86.704" filterUnits="userSpaceOnUse" color-interpolation-filters="sRGB">
<feFlood flood-opacity="0" result="BackgroundImageFix"/>
<feColorMatrix in="SourceAlpha" type="matrix" values="0 0 0 0 0 0 0 0 0 0 0 0 0 0 0 0 0 0 127 0" result="hardAlpha"/>
<feOffset dy="5.2"/>
<feGaussianBlur stdDeviation="2.6"/>
<feComposite in2="hardAlpha" operator="out"/>
<feColorMatrix type="matrix" values="0 0 0 0 0 0 0 0 0 0 0 0 0 0 0 0 0 0 0.25 0"/>
<feBlend mode="normal" in2="BackgroundImageFix" result="effect1_dropShadow_140_64"/>
<feBlend mode="normal" in="SourceGraphic" in2="effect1_dropShadow_140_64" result="shape"/>
</filter>
</defs>
</svg>
