<svg width="91" height="98" viewBox="0 0 91 98" fill="none" xmlns="http://www.w3.org/2000/svg">
<g filter="url(#filter0_dd_140_56)">
<g filter="url(#filter1_d_140_56)">
<ellipse cx="45.5" cy="45" rx="41.5" ry="45" fill="#D9D9D9"/>
</g>
<g filter="url(#filter2_dd_140_56)">
<path d="M32.8097 70.762C32.8097 70.762 31.7836 70.2843 31.41 69.7122C30.8122 68.7968 31.41 68.006 31.41 66.9127V63.53V59.564C31.41 59.564 30.1469 58.1089 29.6603 56.9978C29.1727 55.8844 29.2689 55.1408 28.9604 53.965C28.6349 52.7243 28.3858 52.0473 28.0273 50.8156C27.6565 49.542 27.2867 48.862 27.0941 47.5495C26.8824 46.1073 27.0941 45.2746 27.0941 43.8169C27.0941 41.8581 26.9738 40.7562 27.0941 38.8011C27.1756 37.4755 27.0991 36.7009 27.444 35.4184C27.6989 34.4708 27.8931 33.939 28.3772 33.0855C28.7952 32.3484 29.6603 31.3358 29.6603 31.3358C29.6603 31.3358 30.707 29.9692 31.41 29.1195C31.9454 28.4724 32.176 28.0378 32.8097 27.4865C33.5347 26.8558 33.969 26.4014 34.9093 26.2034C35.4888 26.0814 35.8463 26.0814 36.4257 26.2034C36.608 25.3834 36.5298 24.8615 36.8923 24.1038C37.2424 23.3722 37.5747 23.0157 38.1754 22.4707C38.812 21.8932 39.24 21.6141 40.0418 21.3043C41.0695 20.9072 41.7409 20.8989 42.8412 20.9543C43.6266 20.9939 44.0728 21.0726 44.8242 21.3043C45.052 20.8032 45.1665 20.5161 45.4074 20.0212C45.8625 19.0863 45.8507 18.3013 46.6906 17.6883C47.4134 17.1606 48.0205 17.2289 48.9068 17.105C49.9445 16.96 50.5507 16.97 51.5897 17.105C52.5209 17.226 53.094 17.2463 53.9226 17.6883C54.6637 18.0835 54.7161 19.1149 55.5556 19.088C56.2123 19.067 56.3333 18.3661 56.9554 18.1548C57.7318 17.8912 58.2363 18.1084 59.055 18.1548C60.1099 18.2147 60.7742 18.0713 61.7378 18.5048C62.5943 18.89 62.9985 19.3035 63.6042 20.0212C64.4189 20.9865 64.6249 21.7323 65.0039 22.9373C65.5398 24.6409 65.3945 25.7022 65.4705 27.4865C65.5248 28.7608 65.5248 29.4782 65.4705 30.7526C65.4705 32.3925 65.2112 33.3325 65.4705 34.9518C65.6575 36.1196 66.0118 36.7178 66.287 37.868C66.5573 38.9974 66.7642 39.6276 66.8702 40.7841C66.9617 41.7821 67.1096 42.3771 66.8702 43.3503C66.5473 44.6632 65.7458 45.1361 65.0039 46.2664C64.068 47.6924 63.5392 48.4898 62.5544 49.8825C61.4076 51.5041 60.7619 52.4138 59.5216 53.965C58.5527 55.1768 57.99 55.8417 56.9554 56.9978L55.5556 58.6309C55.5556 58.6309 54.9832 59.594 54.7391 60.2639C54.1758 61.8101 54.4627 62.8192 54.3892 64.4632C54.3037 66.3745 55.3177 67.6895 54.3892 69.3623C53.6985 70.6066 52.8283 70.9944 51.5897 71.6952C50.6105 72.2492 49.9881 72.4342 48.9068 72.745C47.5753 73.1277 46.7875 73.2059 45.4074 73.3282C43.8193 73.4689 41.3249 73.3282 41.3249 73.3282C41.3249 73.3282 39.389 73.0482 38.1754 72.745C36.8756 72.4202 36.1559 72.1862 34.9093 71.6952C34.0745 71.3663 32.8097 70.762 32.8097 70.762Z" fill="#ECCCC0"/>
<path d="M56.9554 56.9978C56.4087 57.6356 55.5556 58.6309 55.5556 58.6309C55.5556 58.6309 54.9832 59.594 54.7391 60.2639C54.1758 61.8101 54.4627 62.8192 54.3892 64.4631C54.3037 66.3745 55.3177 67.6895 54.3892 69.3623C53.6985 70.6066 52.8283 70.9944 51.5897 71.6952C50.6105 72.2492 49.9881 72.4342 48.9068 72.745C47.5753 73.1277 46.7875 73.2059 45.4074 73.3282C43.8193 73.4689 41.3249 73.3282 41.3249 73.3282C41.3249 73.3282 39.389 73.0482 38.1754 72.745C36.8756 72.4202 36.1559 72.1862 34.9093 71.6952C34.0745 71.3663 32.8097 70.762 32.8097 70.762C32.8097 70.762 31.7836 70.2843 31.41 69.7122C30.8122 68.7968 31.41 68.006 31.41 66.9127C31.41 65.5917 31.41 64.851 31.41 63.53C31.41 61.9812 31.41 59.564 31.41 59.564M56.9554 56.9978C57.99 55.8417 58.5527 55.1768 59.5216 53.965C60.7619 52.4138 61.4076 51.5041 62.5544 49.8824C63.5392 48.4898 64.068 47.6924 65.0039 46.2664C65.7458 45.1361 66.5473 44.6632 66.8702 43.3503C67.1096 42.3771 66.9617 41.7821 66.8702 40.7841C66.7642 39.6276 66.5573 38.9974 66.287 37.868C66.0118 36.7178 65.6575 36.1196 65.4705 34.9518C65.2112 33.3325 65.4705 32.3925 65.4705 30.7526M56.9554 56.9978C55.9941 57.4963 55.4241 57.7294 54.3892 58.0476C53.3217 58.3758 52.7009 58.52 51.5897 58.6309C50.5471 58.7349 49.913 58.9229 48.9068 58.6309C48.1631 58.415 47.7868 58.1485 47.1571 57.6977C46.3714 57.1352 45.4074 55.948 45.4074 55.948M65.4705 30.7526C65.5248 29.4782 65.5248 28.7608 65.4705 27.4865C65.3945 25.7022 65.5398 24.6409 65.0039 22.9373C64.6249 21.7323 64.4189 20.9865 63.6042 20.0212C62.9985 19.3035 62.5943 18.89 61.7378 18.5048C60.7742 18.0713 60.1099 18.2147 59.055 18.1548C58.2363 18.1084 57.7318 17.8912 56.9554 18.1548C56.3333 18.3661 56.2123 19.067 55.5556 19.088M65.4705 30.7526C64.9694 29.4771 64.1874 27.4865 64.1874 27.4865M55.5556 19.088C54.7161 19.1149 54.6637 18.0835 53.9226 17.6883C53.094 17.2463 52.5209 17.226 51.5897 17.105C50.5507 16.97 49.9445 16.96 48.9068 17.105C48.0205 17.2289 47.4134 17.1606 46.6906 17.6883C45.8507 18.3013 45.8625 19.0863 45.4074 20.0212C45.1665 20.5161 45.052 20.8032 44.8242 21.3043M55.5556 19.088V20.3711V22.3249M44.8242 21.3043C44.0728 21.0726 43.6266 20.9939 42.8412 20.9543C41.7409 20.8989 41.0695 20.9072 40.0418 21.3043C39.24 21.6141 38.812 21.8932 38.1754 22.4707C37.5747 23.0157 37.2424 23.3722 36.8923 24.1038C36.5298 24.8615 36.608 25.3834 36.4257 26.2034M44.8242 21.3043C45.052 21.942 45.4074 22.9373 45.4074 22.9373L45.9907 25.3869L46.6906 28.4197L47.1571 32.7355V37.1681V37.868M36.4257 26.2034C35.8463 26.0814 35.4888 26.0814 34.9093 26.2034C33.969 26.4014 33.5347 26.8558 32.8097 27.4865C32.176 28.0378 31.9454 28.4724 31.41 29.1195C30.707 29.9692 29.6603 31.3358 29.6603 31.3358C29.6603 31.3358 28.7952 32.3484 28.3772 33.0855C27.8931 33.939 27.6989 34.4708 27.444 35.4184C27.0991 36.7009 27.1756 37.4755 27.0941 38.8011C26.9738 40.7562 27.0941 41.8581 27.0941 43.8169C27.0941 45.2746 26.8824 46.1073 27.0941 47.5495C27.2867 48.862 27.6565 49.542 28.0273 50.8156C28.3858 52.0473 28.6349 52.7243 28.9604 53.965C29.2689 55.1408 29.1727 55.8844 29.6603 56.9978C30.1469 58.1089 31.41 59.564 31.41 59.564M36.4257 26.2034C36.608 26.5678 36.8923 27.1366 36.8923 27.1366L38.1754 28.4197L38.9919 30.7526L40.0418 33.6687L40.3917 37.868V39.7343M31.41 59.564C31.41 59.564 33.2074 60.8946 34.5594 61.1971C35.7152 61.4557 36.4078 61.1971 37.5922 61.1971C38.4121 61.1971 38.874 61.2564 39.6918 61.1971C40.9394 61.1065 41.8491 61.3756 42.8412 60.6138C43.5728 60.0521 44.1243 58.6309 44.1243 58.6309M44.1243 52.9152C43.851 52.2775 43.5828 51.9577 43.4245 51.2822C43.2166 50.3952 43.4245 49.8603 43.4245 48.9493C43.4245 48.1293 43.1619 47.6264 43.4245 46.8497C43.7047 46.0207 44.2776 45.7833 44.8242 45.1C45.3709 44.4167 46.1827 43.4062 47.1571 42.4171C47.8131 41.7513 48.1637 41.351 48.9068 40.7841C49.5096 40.3242 50.5399 39.7343 50.5399 39.7343M50.5399 39.7343L52.5228 38.8011M50.5399 39.7343C50.5399 39.7343 49.1648 39.5974 48.4402 39.1511C47.8369 38.7793 47.1571 37.868 47.1571 37.868M52.5228 38.8011C52.5228 38.8011 53.6603 39.0144 54.3892 39.1511M52.5228 38.8011C52.5228 38.8011 53.0205 37.8058 53.3394 37.1681M54.3892 39.1511C54.8447 39.7888 55.5556 40.7841 55.5556 40.7841C55.5556 40.7841 56.379 41.8061 56.9554 42.4171C57.309 42.792 57.5136 42.9967 57.8885 43.3503M54.3892 39.1511C54.5258 38.1489 54.7391 36.5848 54.7391 36.5848M54.7391 36.5848L55.5556 36.0016M54.7391 36.5848V34.9518V33.6687L55.5556 33.0855M55.5556 36.0016H57.4219H57.8885H55.5556ZM55.5556 33.0855H56.6054H57.8885M55.5556 33.0855L53.3394 31.919M64.1874 27.4865L62.5544 26.2034L58.4718 24.1038C58.4718 24.1038 57.9315 23.8194 57.5852 23.6372M64.1874 27.4865C64.1874 27.4865 63.2618 28.5601 62.5544 29.1195C61.9597 29.5898 61.608 29.8481 60.9213 30.1693C60.2297 30.4929 59.055 30.7526 59.055 30.7526M53.3394 31.919L51.5897 30.7526L50.1899 29.1195L48.9068 27.8364C48.9068 27.8364 48.1911 26.905 47.9737 26.2034C47.677 25.2461 47.6996 24.6011 47.9737 23.6372C48.1854 22.8923 48.4404 22.5057 48.9068 21.8875C49.431 21.1928 49.6914 20.5648 50.5399 20.3711C50.9173 20.2849 51.5313 20.3711 51.5313 20.3711M53.3394 31.919L53.9226 33.0855V35.4184C53.9226 35.4184 53.5671 36.4848 53.3394 37.1681M53.3394 31.919C53.3394 31.919 52.8415 31.9082 52.5228 31.919C51.7435 31.9455 51.3183 32.1082 50.5399 32.1523C49.8122 32.1935 49.4012 32.1935 48.6735 32.1523M28.9604 34.2519H30.8268L31.7599 34.9518L32.8097 36.5848L33.6262 38.8011M33.6262 38.8011L34.2095 40.2009L34.9093 41.9505L35.6092 43.3503L36.4257 44.4001L37.5922 45.1M33.6262 38.8011H32.8097H31.7599C31.7599 38.8011 30.267 38.8011 29.3104 38.8011C28.5815 38.8011 27.444 38.8011 27.444 38.8011M37.5922 45.1C37.5922 45.1 38.4713 45.2666 38.9919 45.1C39.4612 44.9498 39.7515 44.7983 40.0418 44.4001C40.2963 44.0509 40.2861 43.7693 40.3917 43.3503C40.7368 41.981 40.3917 39.7343 40.3917 39.7343M37.5922 45.1C37.5922 45.1 37.4486 44.0183 37.5922 43.3503C37.7166 42.7713 38.1754 41.9505 38.1754 41.9505C38.1754 41.9505 38.6119 41.1899 38.9919 40.7841C39.459 40.2854 40.3917 39.7343 40.3917 39.7343M40.8583 42.4171C40.8583 42.4171 41.4981 42.9859 41.9081 43.3503M41.9081 43.3503C42.5003 43.5325 42.8063 43.7751 43.4245 43.8169C44.2182 43.8705 44.7254 43.7599 45.4074 43.3503C46.0432 42.9685 46.6906 41.9505 46.6906 41.9505L47.1571 40.2009M41.9081 43.3503C42.0903 42.8037 42.3747 41.9505 42.3747 41.9505L42.8412 40.7841L44.1243 39.7343H45.4074L47.1571 40.2009M47.1571 40.2009V37.868M53.3394 37.1681C53.0273 36.931 52.8483 36.8031 52.5228 36.5848C52.1659 36.3455 51.9596 36.2203 51.5897 36.0016C51.186 35.7629 50.9943 35.5343 50.5399 35.4184C50.0985 35.3058 49.7949 35.2456 49.3734 35.4184C48.8336 35.6396 48.7221 36.0741 48.4402 36.5848C48.1826 37.0516 48.076 37.3447 47.9737 37.868M35.6092 37.518C35.6092 37.518 36.8716 38.1828 37.5922 37.868C38.1855 37.6088 38.642 36.5848 38.642 36.5848M42.3747 36.0016C42.3747 36.0016 43.4081 36.6602 44.1243 36.5848C44.6717 36.5272 45.4074 36.0016 45.4074 36.0016M51.5313 20.3711C51.5313 20.3711 52.1399 20.314 52.5228 20.3711C53.3288 20.4913 54.3892 21.3043 54.3892 21.3043L55.5556 22.3249M51.5313 20.3711C51.5313 20.3711 50.9302 21.2974 50.5399 21.8875C50.268 22.2985 49.84 22.9373 49.84 22.9373C49.84 22.9373 49.2261 23.9237 49.3734 24.5704C49.5238 25.2306 50.5399 25.8535 50.5399 25.8535C51.3143 26.1723 51.7484 26.3511 52.5228 26.67C52.5228 26.67 53.6379 27.1366 54.3892 27.1366C55.1404 27.1366 55.6897 27.1642 56.2555 26.67C56.6854 26.2945 56.7165 25.9053 56.9554 25.3869C57.2592 24.7273 57.399 24.3391 57.5852 23.6372M57.5852 23.6372C57.0659 23.3639 56.2555 22.9373 56.2555 22.9373L55.5556 22.3249" stroke="#725050" stroke-width="0.3"/>
</g>
</g>
<defs>
<filter id="filter0_dd_140_56" x="0" y="0" width="91" height="98" filterUnits="userSpaceOnUse" color-interpolation-filters="sRGB">
<feFlood flood-opacity="0" result="BackgroundImageFix"/>
<feColorMatrix in="SourceAlpha" type="matrix" values="0 0 0 0 0 0 0 0 0 0 0 0 0 0 0 0 0 0 127 0" result="hardAlpha"/>
<feOffset dy="4"/>
<feGaussianBlur stdDeviation="2"/>
<feComposite in2="hardAlpha" operator="out"/>
<feColorMatrix type="matrix" values="0 0 0 0 0 0 0 0 0 0 0 0 0 0 0 0 0 0 0.25 0"/>
<feBlend mode="normal" in2="BackgroundImageFix" result="effect1_dropShadow_140_56"/>
<feColorMatrix in="SourceAlpha" type="matrix" values="0 0 0 0 0 0 0 0 0 0 0 0 0 0 0 0 0 0 127 0" result="hardAlpha"/>
<feOffset dy="4"/>
<feGaussianBlur stdDeviation="2"/>
<feComposite in2="hardAlpha" operator="out"/>
<feColorMatrix type="matrix" values="0 0 0 0 0 0 0 0 0 0 0 0 0 0 0 0 0 0 0.25 0"/>
<feBlend mode="normal" in2="effect1_dropShadow_140_56" result="effect2_dropShadow_140_56"/>
<feBlend mode="normal" in="SourceGraphic" in2="effect2_dropShadow_140_56" result="shape"/>
</filter>
<filter id="filter1_d_140_56" x="0" y="0" width="91" height="98" filterUnits="userSpaceOnUse" color-interpolation-filters="sRGB">
<feFlood flood-opacity="0" result="BackgroundImageFix"/>
<feColorMatrix in="SourceAlpha" type="matrix" values="0 0 0 0 0 0 0 0 0 0 0 0 0 0 0 0 0 0 127 0" result="hardAlpha"/>
<feOffset dy="4"/>
<feGaussianBlur stdDeviation="2"/>
<feComposite in2="hardAlpha" operator="out"/>
<feColorMatrix type="matrix" values="0 0 0 0 0 0 0 0 0 0 0 0 0 0 0 0 0 0 0.25 0"/>
<feBlend mode="normal" in2="BackgroundImageFix" result="effect1_dropShadow_140_56"/>
<feBlend mode="normal" in="SourceGraphic" in2="effect1_dropShadow_140_56" result="shape"/>
</filter>
<filter id="filter2_dd_140_56" x="22.85" y="16.85" width="48.2999" height="64.6908" filterUnits="userSpaceOnUse" color-interpolation-filters="sRGB">
<feFlood flood-opacity="0" result="BackgroundImageFix"/>
<feColorMatrix in="SourceAlpha" type="matrix" values="0 0 0 0 0 0 0 0 0 0 0 0 0 0 0 0 0 0 127 0" result="hardAlpha"/>
<feOffset dy="4"/>
<feGaussianBlur stdDeviation="2"/>
<feComposite in2="hardAlpha" operator="out"/>
<feColorMatrix type="matrix" values="0 0 0 0 0 0 0 0 0 0 0 0 0 0 0 0 0 0 0.25 0"/>
<feBlend mode="normal" in2="BackgroundImageFix" result="effect1_dropShadow_140_56"/>
<feColorMatrix in="SourceAlpha" type="matrix" values="0 0 0 0 0 0 0 0 0 0 0 0 0 0 0 0 0 0 127 0" result="hardAlpha"/>
<feOffset dy="4"/>
<feGaussianBlur stdDeviation="2"/>
<feComposite in2="hardAlpha" operator="out"/>
<feColorMatrix type="matrix" values="0 0 0 0 0 0 0 0 0 0 0 0 0 0 0 0 0 0 0.25 0"/>
<feBlend mode="normal" in2="effect1_dropShadow_140_56" result="effect2_dropShadow_140_56"/>
<feBlend mode="normal" in="SourceGraphic" in2="effect2_dropShadow_140_56" result="shape"/>
</filter>
</defs>
</svg>
