<svg width="91" height="98" viewBox="0 0 91 98" fill="none" xmlns="http://www.w3.org/2000/svg">
<g filter="url(#filter0_dd_140_55)">
<g filter="url(#filter1_d_140_55)">
<ellipse cx="45.5" cy="45" rx="41.5" ry="45" fill="#D9D9D9"/>
</g>
<g filter="url(#filter2_dd_140_55)">
<path d="M39.3125 78.356C38.6956 78.1879 38.2729 78.2999 37.7188 77.981C36.127 77.0651 37.5397 75.1194 37.3438 73.2935C37.2177 72.1195 36.9688 70.2935 36.9688 70.2935C36.9688 70.2935 37.0793 69.5377 36.9688 69.0747C36.7102 67.9917 35.553 68.0124 34.9062 67.106C34.1244 66.0101 33.9918 65.2045 33.5938 63.9185C33.2497 62.807 33.2158 62.142 32.9375 61.0122C32.6656 59.9085 32.4217 59.3121 32.1875 58.1997C31.9358 57.004 31.7188 55.106 31.7188 55.106V52.106L32.1875 48.9185C32.1875 48.9185 32.0128 47.077 32.1875 45.9185C32.2828 45.2862 32.4161 44.9471 32.5625 44.3247C32.7011 43.7006 32.7833 43.3515 32.9375 42.731C33.1753 41.7743 33.066 41.1261 33.5938 40.2935C33.9818 39.6812 34.3386 39.4318 34.9062 38.981C35.3197 38.6526 36.0312 38.231 36.0312 38.231L36.9688 37.856C36.9688 37.856 37.157 36.0788 37.3438 34.9497C37.4715 34.1776 37.2468 33.6054 37.7188 32.981C38.0862 32.4949 38.4541 32.3326 39.0312 32.1372C39.7942 31.879 40.2887 32.1106 41.0938 32.1372C41.7169 32.1579 42.1219 31.9686 42.6875 32.231C43.2751 32.5036 43.5885 32.842 43.8125 33.4497C44.0151 33.9994 44.0151 34.4001 43.8125 34.9497L44.8438 35.6997L45.7812 34.9497V32.231V29.4185V26.1372L46.3438 22.0122C45.7763 21.3325 45.5163 20.8775 45.2188 20.0435C44.9194 19.2045 44.9182 18.6812 44.8438 17.7935C44.7672 16.8814 44.313 16.1954 44.8438 15.4497C45.2335 14.9022 45.6734 14.6547 46.3438 14.606C46.3438 13.7639 46.1766 13.275 46.3438 12.4497C46.5356 11.5024 46.6125 10.7938 47.375 10.1997C47.8685 9.81526 48.2498 9.66039 48.875 9.63724C49.5692 9.61153 49.9698 9.83751 50.5625 10.1997C51.181 10.5777 51.4983 10.8929 51.875 11.5122C52.2541 12.1355 52.3184 12.5738 52.4375 13.2935C52.575 14.1243 52.4375 14.6077 52.4375 15.4497V17.0435V18.9185V20.981L53.75 23.3247L54.6838 25.1924L54.875 25.5747L56.2812 30.0747L57.5938 34.0122L58.0625 36.1685L58.625 38.231L59.4688 40.856L60.0312 43.106V45.5435L59.4688 49.6685L58.625 52.9497L57.5938 56.5122L56.6562 60.2622C56.6562 60.2622 55.8622 61.9791 55.3438 63.0747C54.9445 63.9185 54.5357 64.3246 54.3125 65.231C54.0499 66.2975 54.3125 68.0435 54.3125 68.0435V70.9497C54.3125 72.4508 55.018 73.4685 54.3125 74.7935C53.8378 75.685 52.4375 76.5747 52.4375 76.5747L50.5625 77.981C50.5625 77.981 49.5769 78.6433 48.875 78.9185C48.1392 79.207 47.6911 79.2942 46.9062 79.3872C46.1064 79.482 45.6492 79.3872 44.8438 79.3872C44.0017 79.3872 43.5186 79.5228 42.6875 79.3872C42.0472 79.2828 41.7144 79.1073 41.0938 78.9185C40.3959 78.7061 40.0163 78.5478 39.3125 78.356Z" fill="#ECCCC0"/>
<path d="M60.0312 43.106V45.5435L59.4688 49.6685L58.625 52.9497L57.5938 56.5122L56.6562 60.2622C56.6562 60.2622 55.8622 61.9792 55.3438 63.0747C54.9445 63.9185 54.5357 64.3247 54.3125 65.231C54.0499 66.2975 54.3125 68.0435 54.3125 68.0435C54.3125 68.0435 54.3125 69.8148 54.3125 70.9497C54.3125 72.4508 55.018 73.4685 54.3125 74.7935C53.8378 75.685 52.4375 76.5747 52.4375 76.5747L50.5625 77.981C50.5625 77.981 49.5769 78.6433 48.875 78.9185C48.1392 79.207 47.6911 79.2942 46.9062 79.3872C46.1064 79.4821 45.6492 79.3872 44.8438 79.3872C44.0017 79.3872 43.5186 79.5228 42.6875 79.3872C42.0472 79.2828 41.7144 79.1073 41.0938 78.9185C40.3959 78.7061 40.0163 78.5478 39.3125 78.356C38.6956 78.1879 38.2729 78.2999 37.7188 77.981C36.127 77.0651 37.5397 75.1194 37.3438 73.2935C37.2177 72.1195 36.9688 70.2935 36.9688 70.2935C36.9688 70.2935 37.0793 69.5377 36.9688 69.0747C36.7102 67.9917 35.553 68.0124 34.9062 67.106C34.1244 66.0101 33.9918 65.2045 33.5938 63.9185C33.2497 62.807 33.2158 62.142 32.9375 61.0122C32.6656 59.9085 32.4217 59.3121 32.1875 58.1997C31.9358 57.004 31.7188 55.106 31.7188 55.106V52.106L32.1875 48.9185C32.1875 48.9185 32.0128 47.077 32.1875 45.9185C32.2828 45.2862 32.4161 44.9471 32.5625 44.3247M60.0312 43.106L59.4688 40.856M60.0312 43.106C60.0312 43.106 58.9918 44.9522 58.0625 45.9185C57.4321 46.574 56.9769 46.8327 56.2812 47.4185M59.4688 40.856L58.625 38.231M59.4688 40.856C59.4688 40.856 58.785 42.1691 58.0625 42.731C57.1759 43.4204 56.4513 43.4825 55.3438 43.6685C54.2317 43.8552 52.4562 43.6685 52.4562 43.6685M58.625 38.231L58.0625 36.1685L57.5938 34.0122L56.2812 30.0747M58.625 38.231C58.625 38.231 57.1752 38.101 56.2812 37.856C55.4878 37.6386 55.104 37.3307 54.3125 37.106C53.5942 36.902 53.1672 36.8898 52.4375 36.731C51.5177 36.5308 50.0938 36.1685 50.0938 36.1685M56.2812 30.0747L54.875 25.5747L54.6838 25.1924M56.2812 30.0747C56.2812 30.0747 54.7385 30.0747 53.75 30.0747C53.2374 30.0747 52.9444 29.9984 52.4375 30.0747C51.6576 30.1921 51.2775 30.492 50.5625 30.8247C50.0206 31.0769 49.2031 31.5279 49.2031 31.5279M52.4375 20.981L53.75 23.3247L54.6838 25.1924M52.4375 20.981L51.0312 18.1685L49.5312 16.0122C49.5312 16.0122 48.7889 14.872 48.0312 14.606C47.4095 14.3877 47.0028 14.606 46.3438 14.606M52.4375 20.981V18.9185C52.4375 18.9185 52.4375 17.7757 52.4375 17.0435C52.4375 16.4211 52.4375 16.0721 52.4375 15.4497C52.4375 14.6077 52.575 14.1243 52.4375 13.2935C52.3184 12.5738 52.2541 12.1355 51.875 11.5122C51.4983 10.8929 51.181 10.5777 50.5625 10.1997C49.9698 9.83751 49.5692 9.61153 48.875 9.63724C48.2498 9.66039 47.8685 9.81526 47.375 10.1997C46.6125 10.7938 46.5356 11.5024 46.3438 12.4497C46.1766 13.275 46.3438 13.7639 46.3438 14.606M46.3438 14.606C45.6734 14.6547 45.2335 14.9022 44.8438 15.4497C44.313 16.1954 44.7672 16.8814 44.8438 17.7935C44.9182 18.6812 44.9194 19.2045 45.2188 20.0435C45.5163 20.8775 45.7763 21.3325 46.3438 22.0122M46.3438 22.0122C46.5634 22.7445 46.9062 23.8872 46.9062 23.8872C46.9062 23.8872 47.1919 24.9157 47.375 25.5747M46.3438 22.0122C46.1241 23.6232 45.7812 26.1372 45.7812 26.1372V29.4185V32.231V34.9497L44.8438 35.6997M47.375 25.5747V26.7935L48.0312 28.5747L48.875 30.8247L49.2031 31.5279M47.375 25.5747C47.7798 25.2036 48.0304 25.0157 48.5 24.731C49.2442 24.2799 49.7012 24.0116 50.5625 23.8872C51.0698 23.814 51.3624 23.8872 51.875 23.8872C52.6072 23.8872 53.75 23.8872 53.75 23.8872L54.6838 25.1924M50.0938 34.9497L49.5312 32.231L49.2031 31.5279M50.0938 34.9497V36.1685M50.0938 34.9497C50.0938 34.9497 48.8367 34.9497 48.0312 34.9497C47.3722 34.9497 46.3438 34.9497 46.3438 34.9497M50.0938 36.1685L49.5312 39.5026M50.0938 36.1685C50.0938 36.1685 49.1224 36.1685 48.5 36.1685C47.8776 36.1685 46.9062 36.1685 46.9062 36.1685M36.9688 37.856L36.0312 38.231C36.0312 38.231 35.3197 38.6526 34.9062 38.981C34.3386 39.4318 33.9818 39.6812 33.5938 40.2935C33.066 41.1261 33.1753 41.7743 32.9375 42.731C32.7833 43.3515 32.7011 43.7006 32.5625 44.3247M36.9688 37.856C36.9688 37.856 37.157 36.0788 37.3438 34.9497C37.4715 34.1776 37.2468 33.6054 37.7188 32.981C38.0862 32.4949 38.4541 32.3326 39.0312 32.1372C39.7942 31.879 40.2887 32.1106 41.0938 32.1372C41.7169 32.1579 42.1219 31.9686 42.6875 32.231C43.2751 32.5036 43.5885 32.842 43.8125 33.4497C44.0151 33.9994 44.0151 34.4001 43.8125 34.9497M36.9688 37.856L37.7188 38.981L39.3125 41.4185L40.8125 42.5435M43.8125 34.9497C44.2152 35.2426 44.8438 35.6997 44.8438 35.6997M43.8125 34.9497C43.1697 34.3912 42.6825 34.1592 41.8438 34.0122C41.3028 33.9174 40.9673 33.8677 40.4375 34.0122C39.8007 34.1859 39.4962 34.4813 39.0312 34.9497C38.6234 35.3606 38.4867 35.6729 38.1875 36.1685V37.106L38.4688 38.231L39.0312 38.606C39.8117 38.8531 40.2853 39.1096 41.0938 38.981C41.7731 38.8729 42.1995 38.7157 42.6875 38.231C43.1522 37.7695 43.2186 37.3482 43.4375 36.731C43.6751 36.061 43.7598 35.6587 43.8125 34.9497ZM44.8438 35.6997L46.9062 37.106L49.2031 38.981M45.7812 48.2622C45.414 48.8107 45.2088 49.1186 44.8438 49.6685C43.9958 50.946 43.3022 51.545 42.6875 52.9497C42.2137 54.0324 42.0068 54.6855 41.8438 55.856C41.6872 56.9801 41.8438 58.7622 41.8438 58.7622C41.8438 58.7622 41.492 60.7557 41.8438 61.9497C41.9783 62.4063 42.1387 62.6317 42.3125 63.0747C42.6381 63.9047 42.6781 64.4265 43.0625 65.231C43.317 65.7637 43.7292 65.9591 43.8125 66.5435C43.8977 67.1413 43.7686 67.5386 43.4375 68.0435C43.031 68.6634 41.8438 69.0747 41.8438 69.0747C41.8438 69.0747 40.1296 69.5318 39.0312 69.8247M45.7812 48.2622C46.0009 47.9327 46.3438 47.4185 46.3438 47.4185L45.9922 46.481M45.7812 48.2622C46.2206 48.8114 46.4946 49.0982 46.9062 49.6685C47.2153 50.0966 47.305 50.3992 47.6562 50.7935C47.9495 51.1227 48.1387 51.2909 48.5 51.5435M49.2031 38.981L49.5312 39.5026M49.2031 38.981L48.875 40.2935L48.0312 41.4185L46.9062 42.731M49.5312 39.5026L51.0312 41.8872L52.4562 43.6685M52.4562 43.6685L53.2812 44.6997L56.2812 47.8872V50.4185V53.3247L56 56.1372L55.3438 58.7622C55.3438 58.7622 55.1187 60.1484 54.875 61.0122C54.5446 62.1836 54.3744 62.8739 53.75 63.9185C53.3239 64.6313 53.098 65.079 52.4562 65.606C51.8185 66.1297 51.551 66.5435 50.5625 66.5435C49.574 66.5435 49.0198 66.5435 48.0312 66.5435H46.3438H44.1875M34.4375 41.8872C34.4375 41.8872 34.6687 43.3849 34.9062 44.3247C35.0652 44.9537 35.1919 45.2961 35.375 45.9185M35.375 45.9185C35.5786 46.7029 35.7234 47.1375 36.0312 47.8872C36.1993 48.2965 36.3033 48.5222 36.5 48.9185C36.7988 49.5205 36.9729 49.858 37.3438 50.4185C37.6468 50.8765 37.858 51.1041 38.1875 51.5435M35.375 45.9185C34.7892 45.6622 34.4308 45.5783 33.875 45.2622C33.3275 44.9508 33.0346 44.7417 32.5625 44.3247M38.1875 51.5435C38.6268 51.7632 39.3125 52.106 39.3125 52.106C39.3125 52.106 39.9982 52.6202 40.4375 52.9497M38.1875 51.5435C37.858 51.9462 37.6589 52.1607 37.3438 52.5747C36.7841 53.3101 36.0312 54.5435 36.0312 54.5435M40.4375 52.9497C40.9867 52.6202 41.4452 52.6073 41.8438 52.106C42.119 51.7597 42.19 51.4998 42.3125 51.0747C42.5457 50.2656 42.5457 49.7276 42.3125 48.9185M40.4375 52.9497C40.0868 52.7234 39.9143 52.5017 39.7812 52.106C39.7812 52.106 39.7812 51.3061 39.7812 50.7935C39.7812 50.3541 39.7812 49.6685 39.7812 49.6685C40.25 48.5435 40.4375 48.9185 40.4375 48.9185C41.0564 48.5271 41.6936 48.5271 42.3125 48.9185M42.3125 48.9185C42.221 48.5524 42.0781 47.981 42.0781 47.981M40.8125 42.5435L42.3125 43.6685L43.8125 44.6997L45.7812 45.9185L45.9922 46.481M40.8125 42.5435L41.0938 43.6685L41.4688 44.6997L41.8438 47.0435L42.0781 47.981M42.0781 47.981C42.0781 47.981 42.9704 46.7856 43.8125 46.481C44.613 46.1914 45.9922 46.481 45.9922 46.481M39.7812 58.1997C39.7812 58.1997 39.8612 55.8748 40.4375 54.5435C40.6523 54.0474 41.0938 53.3247 41.0938 53.3247L41.8438 52.5747" stroke="#725050" stroke-width="0.3"/>
</g>
</g>
<defs>
<filter id="filter0_dd_140_55" x="0" y="0" width="91" height="98" filterUnits="userSpaceOnUse" color-interpolation-filters="sRGB">
<feFlood flood-opacity="0" result="BackgroundImageFix"/>
<feColorMatrix in="SourceAlpha" type="matrix" values="0 0 0 0 0 0 0 0 0 0 0 0 0 0 0 0 0 0 127 0" result="hardAlpha"/>
<feOffset dy="4"/>
<feGaussianBlur stdDeviation="2"/>
<feComposite in2="hardAlpha" operator="out"/>
<feColorMatrix type="matrix" values="0 0 0 0 0 0 0 0 0 0 0 0 0 0 0 0 0 0 0.25 0"/>
<feBlend mode="normal" in2="BackgroundImageFix" result="effect1_dropShadow_140_55"/>
<feColorMatrix in="SourceAlpha" type="matrix" values="0 0 0 0 0 0 0 0 0 0 0 0 0 0 0 0 0 0 127 0" result="hardAlpha"/>
<feOffset dy="4"/>
<feGaussianBlur stdDeviation="2"/>
<feComposite in2="hardAlpha" operator="out"/>
<feColorMatrix type="matrix" values="0 0 0 0 0 0 0 0 0 0 0 0 0 0 0 0 0 0 0.25 0"/>
<feBlend mode="normal" in2="effect1_dropShadow_140_55" result="effect2_dropShadow_140_55"/>
<feBlend mode="normal" in="SourceGraphic" in2="effect2_dropShadow_140_55" result="shape"/>
</filter>
<filter id="filter1_d_140_55" x="0" y="0" width="91" height="98" filterUnits="userSpaceOnUse" color-interpolation-filters="sRGB">
<feFlood flood-opacity="0" result="BackgroundImageFix"/>
<feColorMatrix in="SourceAlpha" type="matrix" values="0 0 0 0 0 0 0 0 0 0 0 0 0 0 0 0 0 0 127 0" result="hardAlpha"/>
<feOffset dy="4"/>
<feGaussianBlur stdDeviation="2"/>
<feComposite in2="hardAlpha" operator="out"/>
<feColorMatrix type="matrix" values="0 0 0 0 0 0 0 0 0 0 0 0 0 0 0 0 0 0 0.25 0"/>
<feBlend mode="normal" in2="BackgroundImageFix" result="effect1_dropShadow_140_55"/>
<feBlend mode="normal" in="SourceGraphic" in2="effect1_dropShadow_140_55" result="shape"/>
</filter>
<filter id="filter2_dd_140_55" x="27.5687" y="9.48523" width="36.6125" height="78.1123" filterUnits="userSpaceOnUse" color-interpolation-filters="sRGB">
<feFlood flood-opacity="0" result="BackgroundImageFix"/>
<feColorMatrix in="SourceAlpha" type="matrix" values="0 0 0 0 0 0 0 0 0 0 0 0 0 0 0 0 0 0 127 0" result="hardAlpha"/>
<feOffset dy="4"/>
<feGaussianBlur stdDeviation="2"/>
<feComposite in2="hardAlpha" operator="out"/>
<feColorMatrix type="matrix" values="0 0 0 0 0 0 0 0 0 0 0 0 0 0 0 0 0 0 0.25 0"/>
<feBlend mode="normal" in2="BackgroundImageFix" result="effect1_dropShadow_140_55"/>
<feColorMatrix in="SourceAlpha" type="matrix" values="0 0 0 0 0 0 0 0 0 0 0 0 0 0 0 0 0 0 127 0" result="hardAlpha"/>
<feOffset dy="4"/>
<feGaussianBlur stdDeviation="2"/>
<feComposite in2="hardAlpha" operator="out"/>
<feColorMatrix type="matrix" values="0 0 0 0 0 0 0 0 0 0 0 0 0 0 0 0 0 0 0.25 0"/>
<feBlend mode="normal" in2="effect1_dropShadow_140_55" result="effect2_dropShadow_140_55"/>
<feBlend mode="normal" in="SourceGraphic" in2="effect2_dropShadow_140_55" result="shape"/>
</filter>
</defs>
</svg>
