<svg width="563" height="561" viewBox="0 0 563 561" fill="none" xmlns="http://www.w3.org/2000/svg">
<path d="M511.5 559.5H52C24.3858 559.5 2 537.114 2 509.5V52C2 24.3858 24.3857 2 52 2H511.5C539.114 2 561.5 24.3858 561.5 52V509.5C561.5 537.114 539.114 559.5 511.5 559.5Z" fill="#EDDCC1" stroke="#EDDCC1" stroke-width="3"/>
<path d="M511.5 559.5H52C24.3858 559.5 2 537.114 2 509.5V52C2 24.3858 24.3857 2 52 2H511.5C539.114 2 561.5 24.3858 561.5 52V509.5C561.5 537.114 539.114 559.5 511.5 559.5Z" fill="#EDDCC1" stroke="#EDDCC1" stroke-width="3"/>
<path d="M141.764 271.424L141.48 271.585L141.528 271.909L152.508 345.907L152.547 346.169L152.789 346.275L556.676 522.438L557.344 522.729V522V36V35.1795L556.63 35.585L141.764 271.424Z" fill="#725050" fill-opacity="0.5" stroke="#725050" stroke-width="0.954813"/>
<path d="M319.62 296.34C319.62 311.7 315.26 323.38 306.54 331.38C311.58 338.26 314.9 343.94 316.5 348.42C315.78 351.78 314.02 353.46 311.22 353.46C309.22 353.46 306.66 350.58 303.54 344.82C300.42 339.06 298.54 336.18 297.9 336.18C297.58 336.18 296.54 336.5 294.78 337.14C293.02 337.78 292.02 338.1 291.78 338.1C290.34 338.5 288.3 338.7 285.66 338.7C274.78 338.7 266.58 335.14 261.06 328.02C256.02 321.54 253.5 312.74 253.5 301.62C253.5 289.7 256.22 279.34 261.66 270.54C268.06 260.22 276.86 255.06 288.06 255.06C297.9 255.06 305.82 259.62 311.82 268.74C317.02 276.74 319.62 285.94 319.62 296.34ZM308.58 296.22C308.58 288.62 307.22 282.06 304.5 276.54C300.98 269.42 295.78 265.86 288.9 265.86C282.98 265.86 277.58 268.9 272.7 274.98C268.38 280.42 265.74 286.26 264.78 292.5C264.38 295.54 264.18 298.98 264.18 302.82C264.18 310.74 265.74 317.1 268.86 321.9C272.62 327.5 278.26 330.3 285.78 330.3C287.22 330.3 288.86 330.06 290.7 329.58C288.22 328.06 285.78 326.54 283.38 325.02C280.02 322.86 278.34 320.9 278.34 319.14C278.34 317.54 279.1 316.22 280.62 315.18C281.9 314.3 283.38 313.86 285.06 313.86C287.54 313.86 292.58 317.14 300.18 323.7C305.78 317.54 308.58 308.38 308.58 296.22ZM379.875 293.46C379.875 300.1 379.075 307.14 377.475 314.58C375.555 323.78 372.915 330.14 369.555 333.66C365.395 338.06 360.275 340.26 354.195 340.26C348.755 340.26 343.995 338.62 339.915 335.34C335.435 331.66 332.355 326.66 330.675 320.34C329.475 315.86 328.875 309.86 328.875 302.34C328.875 298.66 329.115 293.14 329.595 285.78C330.075 278.34 330.315 272.78 330.315 269.1C330.315 268.46 330.075 267.54 329.595 266.34C329.115 265.06 328.875 264.1 328.875 263.46C328.875 261.46 330.475 259.82 333.675 258.54C336.155 257.5 338.595 256.98 340.995 256.98C343.715 256.98 345.075 257.82 345.075 259.5C345.075 260.38 344.675 261.66 343.875 263.34C343.075 265.02 342.675 266.34 342.675 267.3C342.675 270.5 342.275 275.34 341.475 281.82C340.675 288.3 340.275 293.18 340.275 296.46V311.34C340.275 315.9 341.155 319.94 342.915 323.46C345.075 327.94 348.235 330.18 352.395 330.18C360.395 330.18 365.715 322.82 368.355 308.1C369.555 301.22 370.155 290.54 370.155 276.06C370.155 270.78 369.355 266.5 367.755 263.22C367.275 262.26 367.035 261.5 367.035 260.94C367.035 259.5 367.555 258.1 368.595 256.74C369.715 255.38 370.995 254.7 372.435 254.7C373.955 254.7 375.555 255.26 377.235 256.38C378.995 257.5 379.875 258.78 379.875 260.22V293.46ZM406.436 262.74C406.436 263.14 406.076 264.02 405.356 265.38C405.036 266.02 404.716 267.82 404.396 270.78C402.716 288.7 401.876 304.42 401.876 317.94C401.876 321.46 402.196 324.3 402.836 326.46C403.396 328.3 404.556 330.82 406.316 334.02C406.396 334.18 406.436 334.42 406.436 334.74C406.436 336.42 404.476 337.26 400.556 337.26H399.476C395.396 337.18 392.916 333.9 392.036 327.42C390.916 319.5 390.356 308.58 390.356 294.66C390.356 291.38 390.396 286.46 390.476 279.9C390.636 273.26 390.716 268.26 390.716 264.9C390.716 263.06 391.676 261.3 393.596 259.62C395.516 257.94 397.396 257.1 399.236 257.1C400.676 257.1 402.236 257.7 403.916 258.9C405.596 260.1 406.436 261.38 406.436 262.74ZM482.051 264.9C482.051 269.54 477.131 276.22 467.291 284.94C458.171 292.54 449.051 300.14 439.931 307.74C430.091 316.3 425.171 322.58 425.171 326.58C425.171 328.18 427.011 328.98 430.691 328.98C434.371 328.98 439.811 328.54 447.011 327.66C454.291 326.78 459.771 326.34 463.451 326.34C466.091 326.34 468.731 326.98 471.371 328.26C474.491 329.78 476.291 331.7 476.771 334.02C475.491 336.34 473.771 337.5 471.611 337.5C471.051 337.5 470.171 337.3 468.971 336.9C467.851 336.5 466.971 336.3 466.331 336.3H465.611C463.611 336.46 458.091 336.94 449.051 337.74C442.251 338.38 436.691 338.7 432.371 338.7C426.291 338.7 421.971 338.14 419.411 337.02C415.491 335.26 413.531 331.7 413.531 326.34C413.531 320.42 418.491 312.9 428.411 303.78C437.691 296.26 446.971 288.74 456.251 281.22C466.171 272.98 471.131 266.86 471.131 262.86C471.131 261.18 469.651 260.34 466.691 260.34C461.491 260.34 455.651 261.22 449.171 262.98C442.771 264.66 437.291 266.78 432.731 269.34C430.651 270.62 428.571 271.9 426.491 273.18C423.291 275.1 421.251 276.06 420.371 276.06C416.771 276.06 414.971 273.42 414.971 268.14C414.971 266.7 415.491 265.58 416.531 264.78C416.851 264.54 418.011 263.94 420.011 262.98C438.011 254.58 453.211 250.38 465.611 250.38C469.851 250.38 473.331 251.46 476.051 253.62C477.571 254.82 478.931 256.54 480.131 258.78C481.411 261.02 482.051 263.06 482.051 264.9ZM514.496 261.42C514.496 261.98 514.296 262.58 513.896 263.22C513.336 264.1 512.976 264.66 512.816 264.9C510.976 269.46 509.616 275.26 508.736 282.3C508.336 284.78 507.736 290.78 506.936 300.3C506.936 300.7 506.816 301.5 506.576 302.7C506.416 303.82 506.336 304.7 506.336 305.34C506.336 307.42 506.776 310.18 507.656 313.62C507.176 314.26 506.376 315.14 505.256 316.26C504.376 316.5 503.416 316.62 502.376 316.62C500.776 316.62 499.296 316.22 497.936 315.42C496.736 313.18 496.136 310.3 496.136 306.78C496.136 303.1 496.856 297.66 498.296 290.46C499.816 283.18 500.576 277.7 500.576 274.02C500.576 272.58 500.296 270.42 499.736 267.54C499.256 264.58 499.016 262.38 499.016 260.94C499.016 260.14 499.096 259.46 499.256 258.9C501.256 257.22 503.696 256.38 506.576 256.38C508.256 256.38 509.936 256.78 511.616 257.58C513.536 258.62 514.496 259.9 514.496 261.42ZM511.016 329.7C511.016 335.78 507.536 338.82 500.576 338.82C499.296 338.82 496.856 338.06 493.256 336.54C492.296 334.78 491.816 333.1 491.816 331.5C491.816 326.86 494.656 324.54 500.336 324.54C502.416 324.54 504.536 324.94 506.696 325.74C509.576 326.78 511.016 328.1 511.016 329.7Z" fill="black"/>
<path d="M125.447 370.396H20.4276C14.1163 370.396 9 365.28 9 358.969V254.406C9 248.095 14.1163 242.979 20.4276 242.979H125.447C131.759 242.979 136.875 248.095 136.875 254.406V358.969C136.875 365.28 131.759 370.396 125.447 370.396Z" fill="#EDDCC1" stroke="#EDDCC1" stroke-width="0.685657"/>
<g filter="url(#filter0_dd_215_40)">
<path d="M32.3855 348.211C33.1602 346.474 33.5918 345.5 34.3543 343.758C34.6665 343.044 34.8178 342.634 35.1511 341.93C35.3152 341.583 35.5591 341.103 35.6827 340.862C35.5594 340.65 35.6098 340.223 35.6199 339.914C35.6444 339.158 35.948 338.25 35.948 338.25L39.8386 333.898L40.8207 333.352C40.8207 333.352 41.7366 333.25 41.9246 333.146C41.9246 333.146 42.2055 332.572 42.5105 332.32C42.82 332.065 43.0632 332.013 43.448 331.898C44.0119 331.73 44.3601 331.781 44.948 331.758C45.387 331.74 46.073 331.758 46.073 331.758L47.0105 331.898L48.1824 332.32L49.2136 332.695C49.2136 332.695 49.3607 332.795 49.448 332.868C49.7043 333.057 49.8314 333.188 50.1042 333.352C50.4483 333.558 50.7158 333.539 51.0417 333.773C51.0417 333.773 51.1601 333.938 51.323 334.134C51.4621 334.301 51.6337 334.49 51.7917 334.617C51.9143 334.716 51.9866 334.768 52.1199 334.852L52.448 335.086C52.448 335.086 52.6318 335.356 52.6824 335.555C52.7412 335.785 52.7775 335.946 52.6824 336.164C52.5839 336.39 52.4088 336.436 52.2136 336.586C51.9619 336.78 51.5375 337.004 51.4545 337.047C51.469 337.043 51.4714 337.063 51.323 337.242C51.1121 337.496 50.5261 337.523 50.5261 337.523C50.2905 337.557 50.1547 337.523 49.9167 337.523H49.448L49.1433 337.383L48.8386 337.242C48.6498 337.128 48.5676 337.028 48.4167 336.867C48.3189 336.763 48.1824 336.586 48.1824 336.586V336.281L47.4792 336.867L46.7292 337.055C46.4024 337.097 45.8855 337.055 45.8855 337.055H45.4636L45.2292 337.523C45.2292 337.523 45.0651 337.842 44.948 338.039C44.7795 338.323 44.5857 338.43 44.4792 338.742C44.4251 338.901 44.3949 339.164 44.3949 339.164C44.3949 339.164 44.3558 339.637 44.2449 339.914C44.1411 340.173 43.9817 340.267 43.8699 340.523C43.7632 340.768 43.7939 340.938 43.6824 341.18C43.5291 341.512 43.1653 341.566 43.1199 341.93C43.1085 342.02 43.1199 342.164 43.1199 342.164C43.1199 342.164 43.0857 342.566 43.1199 342.82C43.1716 343.205 43.448 343.758 43.448 343.758C43.448 343.758 43.9105 344.179 44.1511 344.742C44.2186 344.9 44.2449 345.172 44.2449 345.172L44.8074 345.961L44.9705 346.195C45.1692 346.19 45.8855 346.523 45.8855 346.523H46.7292C47.0546 346.439 47.4792 346.102 47.4792 346.102C47.4792 346.102 47.8761 345.688 48.1824 345.492C48.4227 345.339 48.5698 345.267 48.8386 345.172L49.1433 345.023L49.448 344.742L49.8933 344.531L50.3386 344.32C50.3386 344.32 50.7344 343.929 51.0417 343.758C51.3151 343.606 51.7917 343.477 51.7917 343.477L52.9636 343.289L53.7605 343.477C53.7605 343.477 54.5999 343.838 54.698 344.32C54.7308 344.482 54.7122 344.578 54.698 344.742C54.698 344.742 54.6432 345.221 54.5105 345.492C54.3226 345.876 54.0814 346.007 53.7605 346.289C53.3753 346.628 53.0469 346.678 52.6824 347.039C52.4791 347.24 52.2136 347.602 52.2136 347.602C52.0384 347.832 51.991 348.001 51.7917 348.211C51.4024 348.621 51.0052 348.614 50.5261 348.914C50.0916 349.186 49.8851 349.396 49.448 349.664C49.057 349.904 48.8503 350.077 48.4167 350.227C48.0639 350.349 47.4792 350.414 47.4792 350.414C47.4792 350.414 47.0445 350.766 46.7292 350.93C46.5693 351.013 46.4763 351.054 46.3074 351.117L39.323 355.406L35.7605 360.5L28.75 356.227C28.75 356.227 30.985 351.35 32.3855 348.211Z" fill="#ECCCC0"/>
<path d="M35.7605 340.711C35.7605 340.711 35.3789 341.449 35.1511 341.93C34.8178 342.634 34.6665 343.044 34.3543 343.758C33.5918 345.5 33.1602 346.474 32.3855 348.211C30.985 351.35 28.75 356.227 28.75 356.227L35.7605 360.5L39.323 355.406L46.3074 351.117M41.9246 333.146C41.7366 333.25 40.8207 333.352 40.8207 333.352L39.8386 333.898L35.948 338.25C35.948 338.25 35.6444 339.158 35.6199 339.914C35.6056 340.354 35.5096 341.031 35.948 340.992L38.7041 337.242L40.6355 335.555C40.7903 335.447 40.886 335.399 41.0574 335.32C41.3364 335.193 41.5183 335.189 41.8074 335.086C42.0859 334.987 42.219 334.855 42.5105 334.805C42.7451 334.765 42.8823 334.818 43.1199 334.805C43.5645 334.779 43.8005 334.647 44.2449 334.617C44.5554 334.596 45.0417 334.617 45.0417 334.617L45.698 334.805C45.698 334.805 45.8555 334.771 46.073 334.748C46.1106 334.744 46.15 334.74 46.1907 334.737M41.9246 333.146L44.8074 332.868C44.8074 332.868 47.8098 333.454 49.4481 334.195M41.9246 333.146C41.9246 333.146 42.2055 332.572 42.5105 332.32C42.82 332.065 43.0632 332.013 43.448 331.898C44.0119 331.73 44.3601 331.781 44.948 331.758C45.387 331.74 46.073 331.758 46.073 331.758L47.0105 331.898L48.1824 332.32L49.2136 332.695C49.2136 332.695 49.3607 332.795 49.448 332.868C49.7043 333.057 49.8314 333.188 50.1042 333.352C50.4483 333.558 50.7158 333.539 51.0417 333.773C51.0417 333.773 51.1601 333.938 51.323 334.134M48.1824 336.586C48.1824 336.586 48.3189 336.763 48.4167 336.867C48.5676 337.028 48.6498 337.128 48.8386 337.242L49.1433 337.383M48.1824 336.586L49.1433 337.383M48.1824 336.586V336.281M52.448 335.086C52.448 335.086 52.6318 335.356 52.6824 335.555C52.7412 335.785 52.7775 335.946 52.6824 336.164C52.5839 336.39 52.4088 336.436 52.2136 336.586C51.9337 336.801 51.4402 337.055 51.4402 337.055M52.448 335.086C52.448 335.086 52.248 334.943 52.1199 334.852C51.9866 334.768 51.9143 334.716 51.7917 334.617C51.6337 334.49 51.4621 334.301 51.323 334.134M52.448 335.086C52.448 335.086 51.8971 335.502 51.5574 335.368C51.1004 335.189 51.323 334.134 51.323 334.134M51.4402 337.055L51.5574 336.867L51.0417 335.555M51.4402 337.055C51.4402 337.055 51.5339 336.988 51.323 337.242C51.1121 337.496 50.5261 337.523 50.5261 337.523C50.2905 337.557 50.1547 337.523 49.9167 337.523C49.7337 337.523 49.448 337.523 49.448 337.523L49.1433 337.383M48.1824 336.281V335.977C48.1824 335.977 48.0572 335.708 47.948 335.555C47.9002 335.487 47.8538 335.426 47.8074 335.368M48.1824 336.281L47.4792 336.867C47.1864 336.94 47.0221 336.981 46.7292 337.055C46.4024 337.097 45.8855 337.055 45.8855 337.055H45.4636M40.0261 345.023V346.102C40.0261 346.468 40.0416 346.673 40.0261 347.039C39.9267 349.384 38.1511 352.75 38.1511 352.75M46.3074 351.117C46.344 350.907 46.073 350.414 46.073 350.414C46.1148 349.898 45.8855 349.102 45.8855 349.102L45.698 348.211C45.698 348.211 45.8145 347.155 45.4167 346.711C45.3346 346.619 45.1824 346.5 45.1824 346.5M46.3074 351.117C46.4763 351.054 46.5693 351.013 46.7292 350.93C47.0445 350.766 47.4792 350.414 47.4792 350.414C47.4792 350.414 48.0639 350.349 48.4167 350.227C48.8503 350.077 49.057 349.904 49.448 349.664C49.8851 349.396 50.0916 349.186 50.5261 348.914C51.0052 348.614 51.4024 348.621 51.7917 348.211C51.991 348.001 52.0384 347.832 52.2136 347.602C52.2136 347.602 52.4791 347.24 52.6824 347.039C53.0469 346.678 53.3753 346.628 53.7605 346.289C54.0814 346.007 54.3226 345.876 54.5105 345.492C54.6432 345.221 54.698 344.742 54.698 344.742C54.7122 344.578 54.7308 344.482 54.698 344.32C54.5999 343.838 53.7605 343.477 53.7605 343.477L52.9636 343.289L51.7917 343.477C51.7917 343.477 51.3151 343.606 51.0417 343.758C50.7344 343.929 50.3386 344.32 50.3386 344.32L49.8933 344.531M45.4636 337.055H45.0417C41.1418 337.713 40.0614 339.056 40.6355 343.758C41.0003 343.578 41.674 343.552 42.1824 343.148C42.4716 342.919 42.8152 342.445 42.8152 342.445L43.1199 342.164M45.4636 337.055L45.2292 337.523C45.2292 337.523 45.0651 337.842 44.948 338.039C44.7795 338.323 44.5857 338.43 44.4792 338.742C44.4251 338.901 44.3949 339.164 44.3949 339.164C44.3949 339.164 44.3558 339.637 44.2449 339.914C44.1411 340.173 43.9817 340.267 43.8699 340.523C43.7632 340.768 43.7939 340.938 43.6824 341.18C43.5291 341.512 43.1653 341.566 43.1199 341.93C43.1085 342.02 43.1199 342.164 43.1199 342.164M45.1824 346.5C45.1824 346.5 45.0202 346.389 44.948 346.289C44.7268 345.983 45.8855 346.523 45.8855 346.523H46.7292C47.0546 346.439 47.4792 346.102 47.4792 346.102C47.4792 346.102 47.8761 345.688 48.1824 345.492C48.4227 345.339 48.5698 345.267 48.8386 345.172C48.9576 345.114 49.1433 345.023 49.1433 345.023L49.448 344.742L49.8933 344.531M45.1824 346.5L44.8074 345.961L44.2449 345.172C44.2449 345.172 44.2186 344.9 44.1511 344.742C43.9105 344.179 43.448 343.758 43.448 343.758C43.448 343.758 43.1716 343.205 43.1199 342.82C43.0857 342.566 43.1199 342.164 43.1199 342.164M47.8074 335.368C47.5902 335.101 47.373 334.938 47.0105 334.805C46.775 334.718 46.4555 334.716 46.1907 334.737M47.8074 335.368C47.8074 335.368 47.5259 335.885 47.2041 335.977C46.6025 336.147 46.1907 334.737 46.1907 334.737M40.7041 348.25C41.1923 347.957 40.9871 347.273 41.9541 347.5M51.2292 346.102C50.6441 346.108 49.7764 345.144 49.8933 344.531M51.0417 335.555L50.3386 334.758C50.1644 334.565 49.8466 334.376 49.4481 334.195M51.0417 335.555C51.0417 335.555 50.6246 336.1 50.235 336.164C49.4179 336.298 49.4481 334.195 49.4481 334.195" stroke="#725050" stroke-width="0.75"/>
</g>
<g filter="url(#filter1_dd_215_40)">
<path d="M110.359 291.533L98.9836 292.096L98.6086 286.533C94.9524 280.798 94.3747 277.509 95.5461 271.533C95.5461 271.533 95.8295 268.972 97.0461 268.283C97.9405 267.777 99.7339 267.994 99.7339 267.994C99.7339 267.994 100.43 266.252 101.484 265.971C102.275 265.76 103.546 266.346 103.546 266.346C103.546 266.346 104.742 264.723 105.859 264.658C106.938 264.596 108.296 265.971 108.296 265.971C108.296 265.971 109.071 264.78 109.859 264.658C110.607 264.543 111.671 265.346 111.671 265.346C111.671 265.346 112.777 262.998 114.171 262.596C115.647 262.17 115.659 263.221 115.603 264.658C115.573 265.398 115.526 266.239 115.651 267.034C115.719 267.473 115.841 267.898 116.046 268.283C118.484 272.847 110.359 285.197 110.359 285.197V291.533Z" fill="#ECCCC0"/>
<path d="M110.359 285.197V291.533L98.9836 292.096L98.6086 286.533M110.359 285.197C110.359 285.197 118.484 272.847 116.046 268.283C115.841 267.898 115.719 267.473 115.651 267.034M110.359 285.197C110.359 285.197 107.728 284.756 106.359 283.908C105.08 283.116 103.796 281.033 103.796 281.033M111.671 265.346C111.671 265.346 112.777 262.998 114.171 262.596C115.647 262.17 115.659 263.221 115.603 264.658M111.671 265.346C111.671 265.346 110.607 264.543 109.859 264.658C109.071 264.78 108.296 265.971 108.296 265.971M111.671 265.346C111.671 265.346 112.859 275.034 108.671 275.034C106.583 275.034 108.296 265.971 108.296 265.971M111.671 265.346C111.671 265.346 111.764 267.047 111.764 268.784C111.764 271.472 110.609 276.533 108.296 278.284M108.296 265.971C108.296 265.971 106.938 264.596 105.859 264.658C104.742 264.723 103.546 266.346 103.546 266.346M108.296 265.971C108.296 265.971 108.109 275.847 105.609 276.159C104.046 276.354 103.546 266.346 103.546 266.346M103.546 266.346C103.546 266.346 102.275 265.76 101.484 265.971C100.43 266.252 99.7339 267.994 99.7339 267.994M103.546 266.346C103.546 266.346 104.859 276.159 102.734 276.533C100.939 276.849 99.7339 267.994 99.7339 267.994M99.7339 267.994C99.7339 267.994 97.9405 267.777 97.0461 268.283C95.8295 268.972 95.5461 271.533 95.5461 271.533C94.3747 277.509 94.9524 280.798 98.6086 286.533M99.7339 267.994C99.7339 267.994 101.252 276.533 99.4839 276.533C97.3592 276.533 96.4836 270.158 96.4836 270.158M98.6086 286.533C98.6086 286.533 100.577 287.017 101.671 286.533C102.602 286.121 103.546 284.721 103.546 284.721M115.603 264.658H114.171C114.171 264.658 114.053 265.323 114.171 265.722C114.391 266.462 115.651 267.034 115.651 267.034M115.603 264.658C115.573 265.398 115.526 266.239 115.651 267.034M97.8589 271.533C97.8589 271.533 98.2195 270.643 98.6086 270.784C98.8202 270.861 98.9836 271.222 98.9836 271.222M100.921 270.158C100.921 270.158 100.908 268.854 101.484 268.784C102.015 268.72 102.421 269.784 102.421 269.784M104.859 269.597C104.859 269.597 105.101 268.516 105.609 268.534C106.04 268.549 106.359 269.347 106.359 269.347M109.109 268.784C109.109 268.784 109.433 267.994 109.859 267.994C110.284 267.994 110.609 268.784 110.609 268.784M114.484 270.409C114.484 270.409 114.907 270.774 115.234 270.784C115.583 270.795 116.046 270.409 116.046 270.409M98.6086 275.347L99.8589 275.222C99.8589 275.222 99.9767 274.531 99.7339 274.222C99.5318 273.964 99.2943 273.743 98.9836 273.847C98.7871 273.912 98.7151 274.044 98.6086 274.222C98.3826 274.598 98.6086 275.347 98.6086 275.347ZM101.921 275.034H103.296C103.296 275.034 103.305 274.414 103.109 274.097C102.926 273.802 102.764 273.479 102.421 273.534C102.131 273.58 101.921 274.097 101.921 274.097C101.777 274.433 101.921 275.034 101.921 275.034ZM105.171 274.722H106.359C106.359 274.722 106.477 274.167 106.359 273.847C106.251 273.553 106.164 273.287 105.859 273.222C105.57 273.16 105.365 273.311 105.171 273.534C104.868 273.884 105.171 274.722 105.171 274.722ZM108.296 274.097H109.859C109.859 274.097 109.986 273.539 109.859 273.222C109.711 272.853 109.499 272.461 109.109 272.534C108.902 272.572 108.816 272.695 108.671 272.847C108.319 273.215 108.296 274.097 108.296 274.097Z" stroke="#725050" stroke-width="0.75"/>
</g>
<path d="M121.391 348.625C121.391 350.688 120.734 352.531 119.422 354.156C116.422 357.938 112.297 359.828 107.047 359.828C104.703 359.828 102.562 359.578 100.625 359.078C99.375 358.766 98.125 358.109 96.875 357.109C95.4062 355.953 94.6719 354.812 94.6719 353.687C94.6719 353.156 94.9062 352.688 95.375 352.281C95.875 351.844 96.3906 351.625 96.9219 351.625C97.8281 351.625 98.5 352.047 98.9375 352.891C99.5313 354.141 100.031 354.938 100.438 355.281C101.469 356.125 103.187 356.547 105.594 356.547C107.656 356.547 109.562 356.172 111.312 355.422C113.25 354.547 114.703 353.313 115.672 351.719C116.359 350.563 116.703 349.625 116.703 348.906C116.703 347.406 115.797 346.141 113.984 345.109C112.453 344.203 110.891 343.75 109.297 343.75C108.859 343.75 107.703 344.109 105.828 344.828C103.953 345.516 102.469 345.859 101.375 345.859C100.781 345.859 100.234 345.734 99.7344 345.484C99.1094 345.203 98.7969 344.797 98.7969 344.266C98.7969 343.609 99.1406 342.922 99.8281 342.203C100.516 341.484 101.75 341.078 103.531 340.984C105.719 340.859 107.062 340.688 107.562 340.469C108.5 340.094 109.672 339.125 111.078 337.563C112.359 336.094 113 334.687 113 333.344C113 331.625 112.109 330.766 110.328 330.766C109.328 330.766 107.906 331.156 106.062 331.938C104.219 332.719 103.047 333.469 102.547 334.187V334.328C102.547 334.359 102.625 334.578 102.781 334.984C102.437 335.703 101.781 336.453 100.812 337.234C99.75 338.047 98.8594 338.453 98.1406 338.453C97.6094 338.453 97.0625 338.266 96.5 337.891C95.9687 337.484 95.7031 337.031 95.7031 336.531C95.7031 335.844 96.125 334.953 96.9688 333.859C98.3437 332.078 100.359 330.5 103.016 329.125C105.703 327.719 108.141 327.016 110.328 327.016C112.297 327.016 113.937 327.531 115.25 328.563C116.687 329.656 117.406 331.172 117.406 333.109C117.406 334.422 116.984 335.844 116.141 337.375C115.359 338.75 114.406 339.906 113.281 340.844C118.687 342.063 121.391 344.656 121.391 348.625Z" fill="#725050"/>
<line x1="72.625" y1="246.75" x2="72.625" y2="374.25" stroke="#725050" stroke-width="1.75" stroke-dasharray="0.5 0.5"/>
<line x1="8.49656" y1="310.125" x2="135.497" y2="309.625" stroke="#725050" stroke-width="1.75" stroke-dasharray="0.5 0.5"/>
<path d="M52.1875 279.156C52.1875 283.469 51.0625 287.281 48.8125 290.594C46.25 294.375 42.9219 296.266 38.8281 296.266C34.9219 296.266 31.7969 294.828 29.4531 291.953C27.2656 289.266 26.1719 285.938 26.1719 281.969C26.1719 278.469 27.1406 275.031 29.0781 271.656C31.2344 267.906 33.8906 265.609 37.0469 264.766C38.1719 264.453 39.4531 264.297 40.8906 264.297C44.2656 264.297 47.0625 265.984 49.2812 269.359C51.2187 272.328 52.1875 275.594 52.1875 279.156ZM48.0156 278.922C48.0156 275.922 47.4375 273.453 46.2812 271.516C44.9062 269.109 42.8125 267.906 40 267.906C39.0937 267.906 38.1562 268.188 37.1875 268.75C35.0312 270 33.3437 271.922 32.125 274.516C31.0312 276.891 30.4844 279.422 30.4844 282.109C30.4844 284.984 31.2031 287.328 32.6406 289.141C34.2344 291.109 36.4375 292.094 39.25 292.094C42.2187 292.094 44.5 290.563 46.0938 287.5C47.375 285.063 48.0156 282.203 48.0156 278.922Z" fill="#725050"/>
<defs>
<filter id="filter0_dd_215_40" x="26.2703" y="331.375" width="30.8208" height="33.6289" filterUnits="userSpaceOnUse" color-interpolation-filters="sRGB">
<feFlood flood-opacity="0" result="BackgroundImageFix"/>
<feColorMatrix in="SourceAlpha" type="matrix" values="0 0 0 0 0 0 0 0 0 0 0 0 0 0 0 0 0 0 127 0" result="hardAlpha"/>
<feOffset dy="2"/>
<feGaussianBlur stdDeviation="1"/>
<feComposite in2="hardAlpha" operator="out"/>
<feColorMatrix type="matrix" values="0 0 0 0 0 0 0 0 0 0 0 0 0 0 0 0 0 0 0.25 0"/>
<feBlend mode="normal" in2="BackgroundImageFix" result="effect1_dropShadow_215_40"/>
<feColorMatrix in="SourceAlpha" type="matrix" values="0 0 0 0 0 0 0 0 0 0 0 0 0 0 0 0 0 0 127 0" result="hardAlpha"/>
<feOffset dy="2"/>
<feGaussianBlur stdDeviation="1"/>
<feComposite in2="hardAlpha" operator="out"/>
<feColorMatrix type="matrix" values="0 0 0 0 0 0 0 0 0 0 0 0 0 0 0 0 0 0 0.25 0"/>
<feBlend mode="normal" in2="effect1_dropShadow_215_40" result="effect2_dropShadow_215_40"/>
<feBlend mode="normal" in="SourceGraphic" in2="effect2_dropShadow_215_40" result="shape"/>
</filter>
<filter id="filter1_dd_215_40" x="92.625" y="262.125" width="26.2524" height="34.3633" filterUnits="userSpaceOnUse" color-interpolation-filters="sRGB">
<feFlood flood-opacity="0" result="BackgroundImageFix"/>
<feColorMatrix in="SourceAlpha" type="matrix" values="0 0 0 0 0 0 0 0 0 0 0 0 0 0 0 0 0 0 127 0" result="hardAlpha"/>
<feOffset dy="2"/>
<feGaussianBlur stdDeviation="1"/>
<feComposite in2="hardAlpha" operator="out"/>
<feColorMatrix type="matrix" values="0 0 0 0 0 0 0 0 0 0 0 0 0 0 0 0 0 0 0.25 0"/>
<feBlend mode="normal" in2="BackgroundImageFix" result="effect1_dropShadow_215_40"/>
<feColorMatrix in="SourceAlpha" type="matrix" values="0 0 0 0 0 0 0 0 0 0 0 0 0 0 0 0 0 0 127 0" result="hardAlpha"/>
<feOffset dy="2"/>
<feGaussianBlur stdDeviation="1"/>
<feComposite in2="hardAlpha" operator="out"/>
<feColorMatrix type="matrix" values="0 0 0 0 0 0 0 0 0 0 0 0 0 0 0 0 0 0 0.25 0"/>
<feBlend mode="normal" in2="effect1_dropShadow_215_40" result="effect2_dropShadow_215_40"/>
<feBlend mode="normal" in="SourceGraphic" in2="effect2_dropShadow_215_40" result="shape"/>
</filter>
</defs>
</svg>
