<svg width="91" height="98" viewBox="0 0 91 98" fill="none" xmlns="http://www.w3.org/2000/svg">
<g filter="url(#filter0_dd_144_95)">
<ellipse cx="45.5" cy="45" rx="41.5" ry="45" fill="#D9D9D9"/>
<g filter="url(#filter1_d_144_95)">
<g filter="url(#filter2_d_144_95)">
<path d="M10.0362 36.0006C11.0346 35.9584 12.5675 35.6256 12.5675 35.6256C12.5675 35.6256 14.8076 35.4847 16.2237 35.2506C17.4069 35.055 18.0577 34.8748 19.2237 34.5943C20.2166 34.3555 21.755 33.9381 21.755 33.9381C21.755 33.9381 23.356 33.37 24.38 33.0006C25.1862 32.7097 25.6101 32.4548 26.4425 32.2506C27.5499 31.9789 29.3487 31.9693 29.3487 31.9693C29.3487 31.9693 30.8951 32.0543 31.88 31.9693C32.9175 31.8798 34.505 31.5006 34.505 31.5006L37.13 30.8443L39.755 30.0006L41.9112 29.4381C41.9112 29.4381 43.2003 28.8951 44.0675 28.6881C45.3894 28.3725 47.5362 28.4068 47.5362 28.4068C47.5362 28.4068 49.5963 28.1423 50.9112 27.9381C52.1959 27.7386 52.9176 27.6305 54.1925 27.3756C55.3334 27.1474 55.9622 26.9684 57.0987 26.7193C58.3051 26.4549 58.9646 26.1961 60.1925 26.0631C61.5028 25.9211 62.2494 26.0631 63.5675 26.0631C64.7756 26.0631 65.4552 25.9905 66.6612 26.0631C67.876 26.1362 68.5498 26.2689 69.755 26.4381C71.114 26.6289 71.9142 26.5903 73.2237 27.0006C74.4584 27.3875 75.1705 27.6553 76.2237 28.4068C77.2987 29.1739 78.5675 30.8443 78.5675 30.8443C78.5675 30.8443 79.5435 32.1551 80.1612 33.0006C81.0123 34.1656 81.4961 34.8144 82.3175 36.0006C83.1441 37.1944 84.0044 37.6917 84.38 39.0943C84.683 40.226 84.4925 40.9282 84.38 42.0943C84.2689 43.245 83.8175 45.0006 83.8175 45.0006L82.88 47.7193C82.5138 48.7811 81.9697 48.5806 81.38 49.1256C80.2947 50.1285 79.7557 50.7785 78.5675 51.6568C77.497 52.4481 76.8586 52.8565 75.6612 53.4381C74.8784 53.8183 74.4486 54.0945 73.5987 54.2818C72.5261 54.5183 71.753 54.8031 70.7862 54.2818C69.5752 53.629 69.8892 52.3309 69.2862 51.0943C68.8556 50.2114 68.6006 49.723 68.1612 48.8443C67.9415 48.405 67.8842 48.1191 67.5987 47.7193C67.2978 47.298 66.6612 46.7818 66.6612 46.7818L64.9737 48.3756L62.4425 48.8443H60.1925L58.13 50.1568L54.4737 51.6568L51.9425 52.5006L49.2237 53.8131L47.5362 54.8443L46.6925 56.2506L44.0675 58.8756L42.4737 61.2193L40.7862 63.1881L38.9112 64.1256L36.6612 63.1881L36.38 65.2506L36.005 67.4068L35.1612 69.3756L33.8487 70.6881L32.255 71.1568L30.2862 70.6881L29.8175 68.4381V65.2506V64.5943V61.2193V57.6568V54.8443V51.6568V49.5943L30.2862 47.7193L31.6925 45.0006L33.0987 42.0943L33.8487 40.2193H31.6925L27.755 40.4068H24.755L21.1925 40.6881L17.1612 41.0631H14.255C13.1932 41.0631 12.5908 41.1859 11.5362 41.0631C10.7945 40.9767 10.3047 41.067 9.66122 40.6881C9.17042 40.3991 8.93207 40.1397 8.62997 39.6568C8.34127 39.1955 8.26032 38.8795 8.16122 38.3443C8.04788 37.7324 7.86359 37.2972 8.16122 36.7506C8.37203 36.3634 8.59025 36.1502 9.00497 36.0006C9.38381 35.864 9.63385 36.0176 10.0362 36.0006Z" fill="#ECCCC0"/>
<path d="M66.6612 46.7818C66.6612 46.7818 67.2978 47.298 67.5987 47.7193C67.8842 48.1191 67.9415 48.405 68.1612 48.8443C68.6006 49.723 68.8556 50.2114 69.2862 51.0943C69.8892 52.3309 69.5752 53.629 70.7862 54.2818C71.753 54.8031 72.5261 54.5183 73.5987 54.2818C74.4486 54.0945 74.8784 53.8183 75.6612 53.4381C76.8586 52.8565 77.497 52.4481 78.5675 51.6568C79.7557 50.7785 80.2947 50.1285 81.38 49.1256C81.9697 48.5806 82.5138 48.7811 82.88 47.7193C83.2461 46.6576 83.4513 46.0623 83.8175 45.0006C83.8175 45.0006 84.2689 43.245 84.38 42.0943C84.4925 40.9282 84.683 40.226 84.38 39.0943C84.0044 37.6917 83.1441 37.1944 82.3175 36.0006C81.4961 34.8144 81.0123 34.1656 80.1612 33.0006C79.5435 32.1551 78.5675 30.8443 78.5675 30.8443C78.5675 30.8443 77.2987 29.1739 76.2237 28.4068C75.1705 27.6553 74.4584 27.3875 73.2237 27.0006C71.9142 26.5903 71.114 26.6289 69.755 26.4381C68.5498 26.2689 67.876 26.1362 66.6612 26.0631C65.4552 25.9905 64.7756 26.0631 63.5675 26.0631C62.2494 26.0631 61.5028 25.9211 60.1925 26.0631C58.9646 26.1961 58.3051 26.4549 57.0987 26.7193C55.9622 26.9684 55.3334 27.1474 54.1925 27.3756C52.9176 27.6305 52.1959 27.7386 50.9112 27.9381C49.5963 28.1423 47.5362 28.4068 47.5362 28.4068C47.5362 28.4068 45.3894 28.3725 44.0675 28.6881C43.2003 28.8951 41.9112 29.4381 41.9112 29.4381L39.755 30.0006L37.13 30.8443L34.505 31.5006C34.505 31.5006 32.9175 31.8798 31.88 31.9693C30.8951 32.0543 29.3487 31.9693 29.3487 31.9693C29.3487 31.9693 27.5499 31.9789 26.4425 32.2506C25.6101 32.4548 25.1862 32.7097 24.38 33.0006C23.356 33.37 21.755 33.9381 21.755 33.9381C21.755 33.9381 20.2166 34.3555 19.2237 34.5943C18.0577 34.8748 17.4069 35.055 16.2237 35.2506C14.8076 35.4847 12.5675 35.6256 12.5675 35.6256C12.5675 35.6256 11.0346 35.9584 10.0362 36.0006C9.63385 36.0176 9.38381 35.864 9.00497 36.0006C8.59025 36.1502 8.37203 36.3634 8.16122 36.7506C7.86359 37.2972 8.04788 37.7324 8.16122 38.3443C8.26032 38.8795 8.34127 39.1955 8.62997 39.6568C8.93207 40.1397 9.17042 40.3991 9.66122 40.6881C10.3047 41.067 10.7945 40.9767 11.5362 41.0631C12.5908 41.1859 13.1932 41.0631 14.255 41.0631C15.3899 41.0631 16.0263 41.0631 17.1612 41.0631M66.6612 46.7818L64.9737 48.3756L62.4425 48.8443H60.1925L58.13 50.1568L54.4737 51.6568L51.9425 52.5006L49.2237 53.8131L47.5362 54.8443L46.6925 56.2506M66.6612 46.7818C66.6612 46.7818 67.5639 45.5163 68.1612 44.7193C68.7717 43.9048 69.1722 43.4915 69.755 42.6568C70.1794 42.049 70.2312 41.5546 70.7862 41.0631C71.3625 40.5528 71.8427 40.4786 72.5675 40.2193C73.5883 39.8542 74.2045 39.731 75.2862 39.6568C75.8341 39.6193 76.6925 39.6568 76.6925 39.6568M46.6925 56.2506L44.0675 58.8756L42.4737 61.2193L40.7862 63.1881L38.9112 64.1256L36.6612 63.1881M46.6925 56.2506L45.8956 54.8443L45.38 53.4381M46.6925 56.2506H46.4112C46.4112 56.2506 46.0936 56.2874 45.8956 56.2506C45.3471 56.1485 45.2206 55.6988 44.8175 55.3131C44.6304 55.1341 44.3487 54.8443 44.3487 54.8443C44.3487 54.8443 43.9057 54.4814 43.5987 54.2818C43.2827 54.0764 42.755 53.8131 42.755 53.8131M36.6612 63.1881L35.1612 61.2193V58.8756L36.005 56.2506M36.6612 63.1881L36.38 65.2506L36.005 67.4069L35.1612 69.3756L33.8487 70.6881L32.255 71.1569L30.2862 70.6881M36.005 56.2506L37.5987 54.2818L39.4737 52.1256L41.1612 50.7193L43.0362 49.1256L45.0987 47.7193L45.8956 46.6881M36.005 56.2506L37.5987 52.5006M50.4425 40.6881L49.505 42.0943L48.38 43.7818L47.5362 44.7193M17.1612 41.0631C18.7355 40.9167 21.1925 40.6881 21.1925 40.6881L24.755 40.4068M17.1612 41.0631C17.5392 40.5894 17.6972 40.2508 17.8175 39.6568C17.9192 39.1545 17.8175 38.3443 17.8175 38.3443M24.755 40.4068H27.755L31.6925 40.2193H33.8487M24.755 40.4068L26.4425 40.2193C26.4425 40.2193 26.9033 39.5749 27.005 39.0943C27.0883 38.7003 27.005 38.0631 27.005 38.0631M34.505 40.2193C34.505 40.2193 35.446 40.3945 36.005 40.2193C36.8206 39.9638 36.9763 39.3051 37.5987 38.7193M34.505 40.2193H33.8487M34.505 40.2193L35.4425 41.0631L36.005 42.0943L37.13 43.3976L39.4737 45.2818M37.5987 38.7193C38.1189 38.0643 38.3269 37.579 38.4425 36.7506C38.5032 36.3155 38.4425 35.6256 38.4425 35.6256M37.5987 38.7193C38.4408 38.8658 39.755 39.0943 39.755 39.0943L41.63 39.6568L42.755 40.2193L44.0675 41.0631L45.0987 42.0943L46.13 43.2193L47.0675 44.3443L47.5362 44.7193M47.5362 44.7193L46.6925 45.6568L45.8956 46.6881M33.8487 40.2193L33.0987 42.0943L31.6925 45.0006L30.2862 47.7193L29.8175 49.5943M29.8175 49.5943V51.6568V54.8443V57.6568V61.2193V64.5944V65.2506M29.8175 49.5943C29.8175 49.5943 30.7727 49.8096 31.3175 49.5943C31.7535 49.4221 32.255 48.8443 32.255 48.8443M30.2862 70.6881L29.8175 68.4381V65.2506M30.2862 70.6881C30.2862 70.6881 30.6657 70.3155 30.8487 70.0319C31.1252 69.6033 31.3175 68.8131 31.3175 68.8131C31.4618 68.4461 31.6925 67.8756 31.6925 67.8756C31.6925 67.8756 31.4639 67.0185 31.3175 66.4694C31.3175 66.4694 31.1641 65.7927 30.8487 65.5319C30.5271 65.2658 29.8175 65.2506 29.8175 65.2506M45.8956 46.6881L44.0675 46.4068L41.63 46.1256L39.4737 45.2818M39.4737 45.2818V47.3443L38.9112 49.1256L38.0675 51.0943L37.5987 52.5006M37.5987 52.5006C37.5987 52.5006 36.8036 52.3874 36.38 52.1256C35.917 51.8395 35.4425 51.0943 35.4425 51.0943M44.0675 51.0943C44.0675 51.0943 44.5687 51.6942 44.8175 52.1256C45.0961 52.6087 45.38 53.4381 45.38 53.4381M45.38 53.4381C45.38 53.4381 44.7383 53.5401 44.3487 53.4381C44.0319 53.3551 43.869 53.248 43.5987 53.0631C43.0182 52.666 42.4737 51.6568 42.4737 51.6568M53.7237 46.4068C53.7237 46.4068 54.5617 47.1326 54.9425 47.7193C55.3717 48.3809 55.6925 49.5943 55.6925 49.5943M44.0675 36.7506C44.0675 36.7506 44.1839 37.5639 44.0675 38.0631C43.9669 38.4939 43.5987 39.0943 43.5987 39.0943M37.13 58.1256C36.8521 58.5532 36.7709 58.8463 36.6612 59.3443C36.5037 60.0594 36.3588 60.5525 36.6612 61.2193C36.886 61.715 37.5987 62.2506 37.5987 62.2506L39.4737 62.8131C39.4737 62.8131 40.1752 62.5695 40.505 62.2506C40.917 61.8523 40.9314 61.4631 41.1612 60.9381C41.3657 60.471 41.5886 60.2276 41.63 59.7193C41.6825 59.0727 41.5279 58.6608 41.1612 58.1256C40.8828 57.7193 40.6442 57.5384 40.2237 57.2818C39.7591 56.9984 39.4553 56.7991 38.9112 56.8131C38.0474 56.8353 37.6008 57.4011 37.13 58.1256Z" stroke="#725050" stroke-width="0.3"/>
</g>
</g>
</g>
<defs>
<filter id="filter0_dd_144_95" x="0" y="0" width="91" height="98" filterUnits="userSpaceOnUse" color-interpolation-filters="sRGB">
<feFlood flood-opacity="0" result="BackgroundImageFix"/>
<feColorMatrix in="SourceAlpha" type="matrix" values="0 0 0 0 0 0 0 0 0 0 0 0 0 0 0 0 0 0 127 0" result="hardAlpha"/>
<feOffset dy="4"/>
<feGaussianBlur stdDeviation="2"/>
<feComposite in2="hardAlpha" operator="out"/>
<feColorMatrix type="matrix" values="0 0 0 0 0 0 0 0 0 0 0 0 0 0 0 0 0 0 0.25 0"/>
<feBlend mode="normal" in2="BackgroundImageFix" result="effect1_dropShadow_144_95"/>
<feColorMatrix in="SourceAlpha" type="matrix" values="0 0 0 0 0 0 0 0 0 0 0 0 0 0 0 0 0 0 127 0" result="hardAlpha"/>
<feOffset dy="4"/>
<feGaussianBlur stdDeviation="2"/>
<feComposite in2="hardAlpha" operator="out"/>
<feColorMatrix type="matrix" values="0 0 0 0 0 0 0 0 0 0 0 0 0 0 0 0 0 0 0.25 0"/>
<feBlend mode="normal" in2="effect1_dropShadow_144_95" result="effect2_dropShadow_144_95"/>
<feBlend mode="normal" in="SourceGraphic" in2="effect2_dropShadow_144_95" result="shape"/>
</filter>
<filter id="filter1_d_144_95" x="3.85059" y="25.85" width="84.8425" height="53.462" filterUnits="userSpaceOnUse" color-interpolation-filters="sRGB">
<feFlood flood-opacity="0" result="BackgroundImageFix"/>
<feColorMatrix in="SourceAlpha" type="matrix" values="0 0 0 0 0 0 0 0 0 0 0 0 0 0 0 0 0 0 127 0" result="hardAlpha"/>
<feOffset dy="4"/>
<feGaussianBlur stdDeviation="2"/>
<feComposite in2="hardAlpha" operator="out"/>
<feColorMatrix type="matrix" values="0 0 0 0 0 0 0 0 0 0 0 0 0 0 0 0 0 0 0.25 0"/>
<feBlend mode="normal" in2="BackgroundImageFix" result="effect1_dropShadow_144_95"/>
<feBlend mode="normal" in="SourceGraphic" in2="effect1_dropShadow_144_95" result="shape"/>
</filter>
<filter id="filter2_d_144_95" x="3.85059" y="25.85" width="84.8425" height="53.462" filterUnits="userSpaceOnUse" color-interpolation-filters="sRGB">
<feFlood flood-opacity="0" result="BackgroundImageFix"/>
<feColorMatrix in="SourceAlpha" type="matrix" values="0 0 0 0 0 0 0 0 0 0 0 0 0 0 0 0 0 0 127 0" result="hardAlpha"/>
<feOffset dy="4"/>
<feGaussianBlur stdDeviation="2"/>
<feComposite in2="hardAlpha" operator="out"/>
<feColorMatrix type="matrix" values="0 0 0 0 0 0 0 0 0 0 0 0 0 0 0 0 0 0 0.25 0"/>
<feBlend mode="normal" in2="BackgroundImageFix" result="effect1_dropShadow_144_95"/>
<feBlend mode="normal" in="SourceGraphic" in2="effect1_dropShadow_144_95" result="shape"/>
</filter>
</defs>
</svg>
