<svg width="563" height="561" viewBox="0 0 563 561" fill="none" xmlns="http://www.w3.org/2000/svg">
<path d="M511.5 559.5H52C24.3858 559.5 2 537.114 2 509.5V52C2 24.3858 24.3857 2 52 2H511.5C539.114 2 561.5 24.3858 561.5 52V509.5C561.5 537.114 539.114 559.5 511.5 559.5Z" fill="#EDDCC1" stroke="#EDDCC1" stroke-width="3"/>
<ellipse cx="291.5" cy="491.577" rx="149.5" ry="15" fill="#725050"/>
<path d="M413.782 186.515L491.282 106.015C434.282 99.0154 386.774 115.176 344.282 147.515L334.282 159.016V186.515C334.282 186.515 322.282 166.016 322.282 174.516C322.282 176.64 320.003 180.2 317.043 184.823C308.161 198.697 293.154 222.138 315.282 245.015C334.282 252.016 344.782 250.516 365.282 238.016L404.282 197.516L388.782 192.016L413.782 186.515Z" fill="#EEC1B1"/>
<path d="M409.782 297.515C404.282 291 379.282 304.864 379.282 304.864C379.282 304.864 267 323 258.282 334.015C254.882 338.311 257.936 351.277 260.703 366C264.004 383.562 266.897 403.623 257.939 414.447C255.15 417.817 251.213 420.291 245.782 421.516C255.487 419.648 266.236 417.216 277.5 414.447C306.742 407.257 339.451 397.789 366.372 389.996L366.376 389.995C398.687 380.643 410.5 382.077 422.282 376.015C434.064 369.954 426.36 351.328 425.162 340.5C422.732 318.537 413.466 301.879 409.782 297.515Z" fill="white"/>
<path d="M329.282 99.0154C314.282 76.5149 148.782 137.016 148.782 137.016C148.782 137.016 162.623 184.789 179.1 245.015C192.824 295.179 208.376 353.983 219.282 401.016C227.719 420.697 233.282 421.516 245.782 421.516C251.213 420.291 255.15 417.817 257.939 414.447C266.897 403.623 264.004 383.562 260.703 366C257.936 351.277 254.882 338.311 258.282 334.015C267 323 379.282 304.864 379.282 304.864L365.282 238.016C344.782 250.516 334.282 252.016 315.282 245.015C293.154 222.138 308.161 198.697 317.043 184.823C320.003 180.2 322.282 176.64 322.282 174.516C322.282 166.016 334.282 186.515 334.282 186.515V159.016L344.282 147.515C344.282 147.515 344.282 121.516 329.282 99.0154Z" fill="white"/>
<path d="M115.282 179.516C115.282 179.516 123.782 253.016 136.282 257.516C140.899 259.178 147.947 257.907 155 255.642C167.042 251.776 179.1 245.015 179.1 245.015C162.623 184.789 148.782 137.016 148.782 137.016C144.135 136.911 139.975 136.987 136.282 137.307C114.953 139.158 109.205 149.162 115.282 179.516Z" fill="white"/>
<path d="M148.782 137.016C148.782 137.016 314.282 76.5149 329.282 99.0154C344.282 121.516 344.282 147.515 344.282 147.515M148.782 137.016C148.782 137.016 162.623 184.789 179.1 245.015M148.782 137.016C144.135 136.911 139.975 136.987 136.282 137.307C114.953 139.158 109.205 149.162 115.282 179.516C115.282 179.516 123.782 253.016 136.282 257.516C140.899 259.178 147.947 257.907 155 255.642C167.042 251.776 179.1 245.015 179.1 245.015M245.782 421.516C233.282 421.516 227.719 420.697 219.282 401.016C208.376 353.983 192.824 295.179 179.1 245.015M245.782 421.516C255.487 419.648 266.236 417.216 277.5 414.447C306.742 407.257 339.451 397.789 366.372 389.996L366.376 389.995C398.687 380.643 410.5 382.077 422.282 376.015C434.064 369.954 426.36 351.328 425.162 340.5C422.732 318.537 413.466 301.879 409.782 297.515C404.282 291 379.282 304.864 379.282 304.864M245.782 421.516C251.213 420.291 255.15 417.817 257.939 414.447C266.897 403.623 264.004 383.562 260.703 366C257.936 351.277 254.882 338.311 258.282 334.015C267 323 379.282 304.864 379.282 304.864M344.282 147.515C386.774 115.176 434.282 99.0154 491.282 106.015L413.782 186.515L388.782 192.016L404.282 197.516L365.282 238.016M344.282 147.515L334.282 159.016V186.515C334.282 186.515 322.282 166.016 322.282 174.516C322.282 176.64 320.003 180.2 317.043 184.823C308.161 198.697 293.154 222.138 315.282 245.015M365.282 238.016L379.282 304.864M365.282 238.016C344.782 250.516 334.282 252.016 315.282 245.015M315.282 245.015L285.782 297.515" stroke="#662E2E" stroke-width="6"/>
<path d="M232.531 309.916C234.291 307.936 235.498 305.549 236.754 303.265C237.947 301.096 239.48 298.113 239.628 295.595C239.698 294.42 240.789 296.383 240.951 296.638C241.876 298.088 242.612 299.651 243.52 301.115C244.541 302.759 245.652 304.306 246.713 305.897C246.755 305.961 247.368 304.943 247.425 304.867C248.393 303.577 249.046 302.058 249.93 300.708C251.231 298.724 252.146 296.534 253.364 294.527C253.581 294.17 255.077 290.482 255.552 290.482C256.182 290.482 257.454 293.469 257.714 293.891C258.599 295.327 259.642 296.622 260.589 297.999C262.518 300.805 265.185 305.245 269.263 303.392C271.07 302.57 271.846 300.674 273.511 299.792C275.34 298.824 276.481 298.47 278.662 298.47C279.272 298.47 279.883 298.47 280.493 298.47C280.939 298.47 281.346 298.063 281.752 298.012C282.4 297.931 283.012 297.153 283.584 296.867" stroke="black" stroke-width="3" stroke-linecap="round"/>
<path d="M263.438 242.61C266.042 242.409 268.785 241.306 271.311 240.651C274.268 239.884 277.2 239.047 280.188 238.374C282.445 237.867 284.791 237.848 287.018 237.23C288.976 236.686 290.897 235.712 292.945 235.525C294.936 235.344 297.321 234.63 299.151 233.859C300.747 233.187 302.991 233.487 304.417 232.537" stroke="black" stroke-width="3" stroke-linecap="round"/>
<path d="M231.845 229.56C234.715 229.56 237.542 228.183 240.404 227.971C242.811 227.792 245.277 227.007 247.641 226.47C250.873 225.735 254.093 225.695 257.371 225.452C261.136 225.173 264.95 224.162 268.601 223.138C272.465 222.053 276.402 221.587 280.277 220.632C282.132 220.175 283.896 219.74 285.695 219.08C287.059 218.58 288.171 217.997 289.612 217.656C291.13 217.296 292.64 217.103 294.166 216.791C294.697 216.682 295.7 216.613 296.124 216.231C297.408 215.076 300.25 215.626 301.669 214.68" stroke="black" stroke-width="3" stroke-linecap="round"/>
<path d="M256.119 204.55C259.082 204.254 262.352 203.167 265.199 202.414C267.738 201.741 270.404 201.437 272.943 200.873C274.628 200.499 275.824 200.053 277.38 199.188C279.213 198.17 281.653 198.994 283.482 198.182C285.183 197.426 287.328 197.828 289.028 197.073C291.412 196.013 294.89 196.404 297.368 195.696C298.884 195.263 301.177 195.13 302.525 194.381C302.969 194.135 304.478 193.853 304.928 193.827C305.892 193.77 306.507 193.457 307.517 193.457" stroke="black" stroke-width="3" stroke-linecap="round"/>
<path d="M236.521 188.28C239.787 188.28 243.053 188.28 246.32 188.28C247.86 188.28 249.502 187.171 251.127 187.171C254.692 187.171 258.124 186.724 261.48 185.692C264.349 184.809 267.383 184.07 270.17 182.816C271.858 182.056 273.84 182.469 275.634 181.912C276.731 181.571 279.28 181.435 280.071 180.802C281.12 179.964 282.749 180.041 284.036 179.755C285.714 179.382 287.442 178.583 289.172 178.317C292.128 177.862 294.525 176.861 297.368 175.913C298.605 175.501 301.192 175.738 302.257 174.886C303.09 174.22 305.347 173.614 306.407 173.489C308.316 173.265 310.341 171.707 311.954 170.901" stroke="black" stroke-width="3" stroke-linecap="round"/>
<path d="M251.312 146.866C253.007 145.36 256.941 145.246 259.159 144.648C262.956 143.623 266.7 143.394 270.457 142.141C272.523 141.453 275.177 141.687 277.113 140.58C279.217 139.378 282.565 138.895 284.96 138.279C290.533 136.847 295.949 135.034 301.6 135.034" stroke="black" stroke-width="3" stroke-linecap="round"/>
<path d="M320.502 234.439C359.002 175.938 388.502 151.439 451.502 116.439" stroke="black"/>
</svg>
