<svg width="91" height="98" viewBox="0 0 91 98" fill="none" xmlns="http://www.w3.org/2000/svg">
<g filter="url(#filter0_d_140_68)">
<ellipse cx="45.5" cy="45" rx="41.5" ry="45" fill="#D9D9D9"/>
</g>
<g filter="url(#filter1_d_140_68)">
<path d="M54.2654 81.877V84.3115L44.4314 84.3115H34.4654C34.4654 84.3115 34.1373 80.5186 33.5414 78.1613C33.0365 76.1636 31.8254 73.1644 31.8254 73.1644L28.5255 63.0422L26.0175 49.8401L25.0935 44.9762C25.0935 44.9762 25.1923 43.1761 25.0935 42.0293C24.8028 38.6548 23.1278 36.7393 22.3216 33.4447C21.5517 30.2983 21.5295 28.0633 21.5295 28.0633C21.5295 28.0633 20.3381 22.4595 21.5295 21.1444C22.2761 20.3204 22.5234 19.8289 23.6415 19.9913C24.49 20.1145 25.0935 21.9132 25.0935 21.9132L26.5455 28.9602C26.7898 29.0636 29.7134 38.9542 30.3734 39.723C31.0335 40.4917 31.4029 40.094 31.9575 39.9792C32.7019 39.8251 33.01 39.3549 33.5414 38.8261C34.2366 38.1343 34.5849 37.6729 34.4654 36.5198C34.3459 35.3666 33.8055 13.0724 33.8055 13.0724C33.8055 13.0724 33.926 11.2094 34.4654 10.5098C35.0588 9.74029 36.5774 9.86917 36.5774 9.86917C36.5774 9.86917 38.4255 10.1254 38.5575 10.8942C38.6895 11.663 39.4814 29.0884 39.4814 29.0884C39.4814 29.0884 39.4814 34.726 40.0094 35.2385C40.5374 35.751 41.4615 34.5979 41.4615 34.5979L41.8574 33.1884L43.9694 7.30662C43.9694 7.30662 45.0124 5.03116 46.4774 5.00032C47.9826 4.96863 48.9854 7.30662 48.9854 7.30662L49.2494 16.0193L48.1934 34.3416C48.1934 34.3416 48.5371 35.0851 48.9854 35.2385C49.7768 35.5093 50.5694 33.8291 50.5694 33.8291L53.3414 21.6569L55.1894 9.86917C55.1894 9.86917 56.1134 7.94725 57.6973 8.97228C58.8042 9.68858 59.5453 11.663 59.5453 11.663C59.5453 11.663 60.0338 18.7909 59.6773 23.1945C59.3071 27.7677 57.6973 34.3416 57.6973 34.3416C57.6973 34.3416 56.2454 39.7263 56.5094 43.1824C56.6523 45.0528 56.4301 45.9771 56.9053 47.795C57.4589 49.9124 57.4461 52.8909 59.6773 53.1764C61.3358 53.3886 63.2413 50.8701 63.2413 50.8701C63.2413 50.8701 65.11 47.6543 66.8053 46.0012C68.7421 44.1128 72.6133 42.5418 72.6133 42.5418L76.8373 41.5168C76.8373 41.5168 78.4969 41.3962 79.2133 42.2855C79.9119 43.1527 80.2821 44.0087 79.7413 44.9762C79.1252 46.0784 76.5733 46.8981 76.5733 46.8981L72.0853 51.6389L68.3893 58.3015C68.3893 58.3015 68.3893 59.9672 68.1254 61.2484C68.0037 61.8393 65.6174 64.0673 65.6174 64.0673C65.6174 64.0673 57.4334 70.3455 54.3974 75.3425C53.5594 76.7217 54.1334 80.0832 54.1334 80.0832L54.2654 81.877Z" fill="#ECCCC0"/>
<path d="M24.8295 35.2385C24.8295 35.2385 25.2148 34.5791 26.0175 34.3416C26.5599 34.1811 27.0735 34.3416 27.0735 34.3416M23.5095 28.9602C23.5095 28.9602 23.679 28.612 24.4335 28.4477C24.8359 28.3601 25.4895 28.4477 25.4895 28.4477M34.9934 17.8131C34.9934 17.8131 35.251 17.3852 35.9174 17.3006C36.7635 17.1931 37.3694 17.8131 37.3694 17.8131M35.1254 28.4477C35.1254 28.4477 35.8336 27.6281 36.5774 27.8071C36.9682 27.9011 37.3694 28.0633 37.3694 28.0633M43.9694 26.0133C43.9694 26.0133 44.5025 25.6289 45.2894 25.6289C46.0763 25.6289 46.7414 26.0133 46.7414 26.0133M44.3654 16.0193C44.3654 16.0193 44.8077 15.3957 45.6854 15.3787C46.5003 15.3629 47.1374 16.0193 47.1374 16.0193M66.8053 48.4357C66.8053 48.4357 67.6719 48.2347 68.3893 48.9482C68.971 49.5267 68.9174 50.1013 68.9174 50.1013M55.1894 17.8131C55.1894 17.8131 56.0818 17.0957 56.9053 17.3006C57.5149 17.4522 57.9613 18.0694 57.9613 18.0694M53.8694 26.9102C53.8694 26.9102 54.3596 26.4424 55.1894 26.6539C55.9933 26.8589 56.2454 27.4227 56.2454 27.4227M43.0454 44.3356C43.0454 44.3356 40.9015 46.0646 39.3494 46.8981C37.2377 48.0323 35.8619 48.304 33.5414 48.9482C31.762 49.4421 30.7693 49.8726 28.9215 49.9732C27.7879 50.0349 26.0175 49.8401 26.0175 49.8401M26.0175 49.8401L25.0935 44.9762C25.0935 44.9762 25.1923 43.1761 25.0935 42.0293C24.8028 38.6548 23.1278 36.7393 22.3216 33.4447C21.5517 30.2984 21.5295 28.0633 21.5295 28.0633C21.5295 28.0633 20.3381 22.4595 21.5295 21.1444C22.2761 20.3204 22.5234 19.8289 23.6415 19.9913C24.49 20.1145 25.0935 21.9132 25.0935 21.9132L26.5455 28.9602C26.7898 29.0636 29.7134 38.9542 30.3734 39.723C31.0335 40.4917 31.4029 40.094 31.9575 39.9792C32.7019 39.8251 33.01 39.3549 33.5414 38.8261C34.2366 38.1343 34.5849 37.6729 34.4654 36.5198C34.3459 35.3666 33.8055 13.0724 33.8055 13.0724C33.8055 13.0724 33.926 11.2094 34.4654 10.5098C35.0588 9.74029 36.5774 9.86917 36.5774 9.86917C36.5774 9.86917 38.4255 10.1254 38.5575 10.8942C38.6895 11.663 39.4814 29.0884 39.4814 29.0884C39.4814 29.0884 39.4814 34.726 40.0094 35.2385C40.5374 35.751 41.4615 34.5979 41.4615 34.5979L41.8574 33.1885L43.9694 7.30662C43.9694 7.30662 45.0124 5.03116 46.4774 5.00032C47.9826 4.96863 48.9854 7.30662 48.9854 7.30662L49.2494 16.0193L48.1934 34.3416C48.1934 34.3416 48.5371 35.0851 48.9854 35.2385C49.7768 35.5093 50.5694 33.8291 50.5694 33.8291L53.3414 21.6569L55.1894 9.86917C55.1894 9.86917 56.1134 7.94725 57.6973 8.97228C58.8042 9.68858 59.5453 11.663 59.5453 11.663C59.5453 11.663 60.0338 18.7909 59.6773 23.1945C59.3071 27.7677 57.6973 34.3416 57.6973 34.3416C57.6973 34.3416 56.2454 39.7263 56.5094 43.1824C56.6523 45.0528 56.4301 45.9771 56.9053 47.795C57.4589 49.9124 57.4461 52.8909 59.6773 53.1764C61.3358 53.3886 63.2413 50.8701 63.2413 50.8701C63.2413 50.8701 65.11 47.6543 66.8053 46.0012C68.7421 44.1128 72.6133 42.5418 72.6133 42.5418L76.8373 41.5168C76.8373 41.5168 78.497 41.3962 79.2133 42.2855C79.9119 43.1527 80.2821 44.0087 79.7413 44.9762C79.1252 46.0784 76.5733 46.8981 76.5733 46.8981L72.0853 51.6389L68.3893 58.3015C68.3893 58.3015 68.3893 59.9672 68.1254 61.2484C68.0037 61.8393 65.6174 64.0673 65.6174 64.0673C65.6174 64.0673 57.4334 70.3455 54.3974 75.3425C53.5594 76.7217 54.1334 80.0832 54.1334 80.0832L54.2654 81.877V84.3115L44.4314 84.3115H34.4654C34.4654 84.3115 34.1373 80.5186 33.5414 78.1613C33.0365 76.1636 31.8254 73.1643 31.8254 73.1643L28.5255 63.0422L26.0175 49.8401ZM52.6814 73.6769C52.6814 73.6769 45.0883 73.7236 41.8574 70.858C38.9592 68.2875 38.1164 65.6939 37.8974 61.8891C37.7077 58.5933 38.3864 56.5896 40.0094 53.6889C41.8534 50.3932 47.0054 46.8981 47.0054 46.8981" stroke="#725050" stroke-width="0.3"/>
</g>
<defs>
<filter id="filter0_d_140_68" x="0" y="0" width="91" height="98" filterUnits="userSpaceOnUse" color-interpolation-filters="sRGB">
<feFlood flood-opacity="0" result="BackgroundImageFix"/>
<feColorMatrix in="SourceAlpha" type="matrix" values="0 0 0 0 0 0 0 0 0 0 0 0 0 0 0 0 0 0 127 0" result="hardAlpha"/>
<feOffset dy="4"/>
<feGaussianBlur stdDeviation="2"/>
<feComposite in2="hardAlpha" operator="out"/>
<feColorMatrix type="matrix" values="0 0 0 0 0 0 0 0 0 0 0 0 0 0 0 0 0 0 0.25 0"/>
<feBlend mode="normal" in2="BackgroundImageFix" result="effect1_dropShadow_140_68"/>
<feBlend mode="normal" in="SourceGraphic" in2="effect1_dropShadow_140_68" result="shape"/>
</filter>
<filter id="filter1_d_140_68" x="15.8206" y="4.8501" width="69.3588" height="89.6703" filterUnits="userSpaceOnUse" color-interpolation-filters="sRGB">
<feFlood flood-opacity="0" result="BackgroundImageFix"/>
<feColorMatrix in="SourceAlpha" type="matrix" values="0 0 0 0 0 0 0 0 0 0 0 0 0 0 0 0 0 0 127 0" result="hardAlpha"/>
<feOffset dy="5.02951"/>
<feGaussianBlur stdDeviation="2.51475"/>
<feComposite in2="hardAlpha" operator="out"/>
<feColorMatrix type="matrix" values="0 0 0 0 0 0 0 0 0 0 0 0 0 0 0 0 0 0 0.25 0"/>
<feBlend mode="normal" in2="BackgroundImageFix" result="effect1_dropShadow_140_68"/>
<feBlend mode="normal" in="SourceGraphic" in2="effect1_dropShadow_140_68" result="shape"/>
</filter>
</defs>
</svg>
