<svg width="91" height="98" viewBox="0 0 91 98" fill="none" xmlns="http://www.w3.org/2000/svg">
<g filter="url(#filter0_dd_144_92)">
<g filter="url(#filter1_d_144_92)">
<ellipse cx="45.5" cy="45" rx="41.5" ry="45" fill="#D9D9D9"/>
</g>
<g filter="url(#filter2_dd_144_92)">
<path d="M31.8097 72.3895C31.8097 72.3895 30.7836 71.9151 30.41 71.3469C29.8122 70.4379 30.41 69.6525 30.41 68.5668V65.2076V61.2691C30.41 61.2691 29.1469 59.824 28.6603 58.7207C28.1727 57.615 28.2689 56.8765 27.9604 55.7089C27.6349 54.4767 27.3858 53.8044 27.0273 52.5813C26.6565 51.3165 26.2867 50.6412 26.0941 49.3378C25.8824 47.9056 26.0941 47.0786 26.0941 45.6311C26.0941 43.6858 25.9738 42.5916 26.0941 40.65C26.1756 39.3337 26.0991 38.5644 26.444 37.2908C26.6989 36.3498 26.8931 35.8216 27.3772 34.974C27.7952 34.2421 28.6603 33.2365 28.6603 33.2365C28.6603 33.2365 29.707 31.8793 30.41 31.0355C30.9454 30.3929 31.176 29.9613 31.8097 29.4138C32.5347 28.7875 32.969 28.3363 33.9093 28.1396C34.4888 28.0184 34.8463 28.0184 35.4257 28.1396C35.608 27.3253 35.5298 26.807 35.8923 26.0545C36.2424 25.328 36.5747 24.974 37.1754 24.4328C37.812 23.8593 38.24 23.5821 39.0418 23.2744C40.0695 22.8801 40.7409 22.8719 41.8412 22.9269C42.6266 22.9662 43.0728 23.0444 43.8242 23.2744C44.052 22.7768 44.1665 22.4917 44.4074 22.0002C44.8625 21.0718 44.8507 20.2923 45.6906 19.6835C46.4134 19.1595 47.0205 19.2273 47.9068 19.1043C48.9445 18.9603 49.5507 18.9702 50.5897 19.1043C51.5209 19.2245 52.094 19.2446 52.9226 19.6835C53.6637 20.076 53.7161 21.1002 54.5556 21.0735C55.2123 21.0526 55.3333 20.3566 55.9554 20.1468C56.7318 19.885 57.2363 20.1007 58.055 20.1468C59.1099 20.2063 59.7742 20.0639 60.7378 20.4944C61.5943 20.8769 61.9985 21.2875 62.6042 22.0002C63.4189 22.9589 63.6249 23.6995 64.0039 24.8962C64.5398 26.588 64.3945 27.6419 64.4705 29.4138C64.5248 30.6793 64.5248 31.3918 64.4705 32.6573C64.4705 34.2858 64.2112 35.2194 64.4705 36.8274C64.6575 37.9871 65.0118 38.5812 65.287 39.7233C65.5573 40.845 65.7642 41.4708 65.8702 42.6193C65.9617 43.6103 66.1096 44.2013 65.8702 45.1677C65.5473 46.4716 64.7458 46.9411 64.0039 48.0636C63.068 49.4797 62.5392 50.2716 61.5544 51.6546C60.4076 53.265 59.7619 54.1684 58.5216 55.7089C57.5527 56.9123 56.99 57.5726 55.9554 58.7207L54.5556 60.3424C54.5556 60.3424 53.9832 61.2988 53.7391 61.9641C53.1758 63.4996 53.4627 64.5017 53.3892 66.1343C53.3037 68.0323 54.3177 69.3382 53.3892 70.9994C52.6985 72.2351 51.8283 72.6202 50.5897 73.3162C49.6105 73.8664 48.9881 74.0501 47.9068 74.3587C46.5753 74.7388 45.7875 74.8165 44.4074 74.9379C42.8193 75.0776 40.3249 74.9379 40.3249 74.9379C40.3249 74.9379 38.389 74.6598 37.1754 74.3587C35.8756 74.0362 35.1559 73.8038 33.9093 73.3162C33.0745 72.9896 31.8097 72.3895 31.8097 72.3895Z" fill="#ECCCC0"/>
<path d="M55.9554 58.7207C55.4087 59.354 54.5556 60.3424 54.5556 60.3424C54.5556 60.3424 53.9832 61.2988 53.7391 61.9641C53.1758 63.4996 53.4627 64.5017 53.3892 66.1343C53.3037 68.0323 54.3177 69.3382 53.3892 70.9994C52.6985 72.2351 51.8283 72.6202 50.5897 73.3162C49.6105 73.8664 48.9881 74.0501 47.9068 74.3587C46.5753 74.7388 45.7875 74.8165 44.4074 74.9379C42.8193 75.0776 40.3249 74.9379 40.3249 74.9379C40.3249 74.9379 38.389 74.6598 37.1754 74.3587C35.8756 74.0362 35.1559 73.8038 33.9093 73.3162C33.0745 72.9896 31.8097 72.3895 31.8097 72.3895C31.8097 72.3895 30.7836 71.9151 30.41 71.3469C29.8122 70.4379 30.41 69.6525 30.41 68.5668C30.41 67.255 30.41 66.5194 30.41 65.2076C30.41 63.6695 30.41 61.2691 30.41 61.2691M55.9554 58.7207C56.99 57.5726 57.5527 56.9123 58.5216 55.7089C59.7619 54.1684 60.4076 53.265 61.5544 51.6546C62.5392 50.2716 63.068 49.4797 64.0039 48.0636C64.7458 46.9411 65.5473 46.4716 65.8702 45.1677C66.1096 44.2013 65.9617 43.6103 65.8702 42.6193C65.7642 41.4708 65.5573 40.845 65.287 39.7233C65.0118 38.5812 64.6575 37.9871 64.4705 36.8274C64.2112 35.2194 64.4705 34.2858 64.4705 32.6573M55.9554 58.7207C54.9941 59.2156 54.4241 59.4472 53.3892 59.7632C52.3217 60.0891 51.7009 60.2323 50.5897 60.3424C49.5471 60.4457 48.913 60.6324 47.9068 60.3424C47.1631 60.128 46.7868 59.8633 46.1571 59.4157C45.3714 58.8571 44.4074 57.6781 44.4074 57.6781M64.4705 32.6573C64.5248 31.3918 64.5248 30.6793 64.4705 29.4138C64.3945 27.6419 64.5398 26.588 64.0039 24.8962C63.6249 23.6995 63.4189 22.9589 62.6042 22.0002C61.9985 21.2875 61.5943 20.8769 60.7378 20.4944C59.7742 20.0639 59.1099 20.2063 58.055 20.1468C57.2363 20.1007 56.7318 19.885 55.9554 20.1468C55.3333 20.3566 55.2123 21.0526 54.5556 21.0735M64.4705 32.6573C63.9694 31.3906 63.1874 29.4138 63.1874 29.4138M54.5556 21.0735C53.7161 21.1002 53.6637 20.076 52.9226 19.6835C52.094 19.2446 51.5209 19.2245 50.5897 19.1043C49.5507 18.9702 48.9445 18.9603 47.9068 19.1043C47.0205 19.2273 46.4134 19.1595 45.6906 19.6835C44.8507 20.2923 44.8625 21.0718 44.4074 22.0002C44.1665 22.4917 44.052 22.7768 43.8242 23.2744M54.5556 21.0735V22.3478V24.288M43.8242 23.2744C43.0728 23.0444 42.6266 22.9662 41.8412 22.9269C40.7409 22.8719 40.0695 22.8801 39.0418 23.2744C38.24 23.5821 37.812 23.8593 37.1754 24.4328C36.5747 24.974 36.2424 25.328 35.8923 26.0545C35.5298 26.807 35.608 27.3253 35.4257 28.1396M43.8242 23.2744C44.052 23.9078 44.4074 24.8962 44.4074 24.8962L44.9907 27.3288L45.6906 30.3405L46.1571 34.6265V39.0283V39.7233M35.4257 28.1396C34.8463 28.0184 34.4888 28.0184 33.9093 28.1396C32.969 28.3363 32.5347 28.7875 31.8097 29.4138C31.176 29.9613 30.9454 30.3929 30.41 31.0355C29.707 31.8793 28.6603 33.2365 28.6603 33.2365C28.6603 33.2365 27.7952 34.2421 27.3772 34.974C26.8931 35.8216 26.6989 36.3498 26.444 37.2908C26.0991 38.5644 26.1756 39.3337 26.0941 40.65C25.9738 42.5916 26.0941 43.6858 26.0941 45.6311C26.0941 47.0786 25.8824 47.9056 26.0941 49.3378C26.2867 50.6412 26.6565 51.3165 27.0273 52.5813C27.3858 53.8044 27.6349 54.4767 27.9604 55.7089C28.2689 56.8765 28.1727 57.615 28.6603 58.7207C29.1469 59.824 30.41 61.2691 30.41 61.2691M35.4257 28.1396C35.608 28.5015 35.8923 29.0663 35.8923 29.0663L37.1754 30.3405L37.9919 32.6573L39.0418 35.5532L39.3917 39.7233V41.5767M30.41 61.2691C30.41 61.2691 32.2074 62.5904 33.5594 62.8908C34.7152 63.1476 35.4078 62.8908 36.5922 62.8908C37.4121 62.8908 37.874 62.9498 38.6918 62.8908C39.9394 62.8009 40.8491 63.0681 41.8412 62.3116C42.5728 61.7538 43.1243 60.3424 43.1243 60.3424M43.1243 54.6664C42.851 54.033 42.5828 53.7155 42.4245 53.0446C42.2166 52.1638 42.4245 51.6326 42.4245 50.7279C42.4245 49.9136 42.1619 49.4142 42.4245 48.6428C42.7047 47.8196 43.2776 47.5838 43.8242 46.9053C44.3709 46.2267 45.1827 45.2232 46.1571 44.241C46.8131 43.5798 47.1637 43.1823 47.9068 42.6193C48.5096 42.1626 49.5399 41.5767 49.5399 41.5767M49.5399 41.5767L51.5228 40.65M49.5399 41.5767C49.5399 41.5767 48.1648 41.4409 47.4402 40.9976C46.8369 40.6284 46.1571 39.7233 46.1571 39.7233M51.5228 40.65C51.5228 40.65 52.6603 40.8618 53.3892 40.9976M51.5228 40.65C51.5228 40.65 52.0205 39.6616 52.3393 39.0283M53.3892 40.9976C53.8447 41.6309 54.5556 42.6193 54.5556 42.6193C54.5556 42.6193 55.379 43.6342 55.9554 44.241C56.309 44.6133 56.5136 44.8165 56.8885 45.1677M53.3892 40.9976C53.5258 40.0023 53.7391 38.4491 53.7391 38.4491M53.7391 38.4491L54.5556 37.87M53.7391 38.4491V36.8274V35.5532L54.5556 34.974M54.5556 37.87H56.4219H56.8885H54.5556ZM54.5556 34.974H55.6054H56.8885M54.5556 34.974L52.3393 33.8156M63.1874 29.4138L61.5544 28.1396L57.4718 26.0545C57.4718 26.0545 56.9315 25.7721 56.5852 25.5912M63.1874 29.4138C63.1874 29.4138 62.2618 30.48 61.5544 31.0355C60.9597 31.5025 60.608 31.759 59.9213 32.0781C59.2297 32.3994 58.055 32.6573 58.055 32.6573M52.3393 33.8156L50.5897 32.6573L49.1899 31.0355L47.9068 29.7613C47.9068 29.7613 47.1911 28.8364 46.9737 28.1396C46.677 27.189 46.6996 26.5485 46.9737 25.5912C47.1854 24.8515 47.4404 24.4675 47.9068 23.8536C48.431 23.1637 48.6914 22.5401 49.5399 22.3478C49.9173 22.2622 50.5313 22.3478 50.5313 22.3478M52.3393 33.8156L52.9226 34.974V37.2908C52.9226 37.2908 52.5671 38.3498 52.3393 39.0283M52.3393 33.8156C52.3393 33.8156 51.8415 33.8049 51.5228 33.8156C50.7435 33.8419 50.3183 34.0035 49.5399 34.0473C48.8122 34.0882 48.4012 34.0882 47.6735 34.0473M27.9604 36.1324H29.8268L30.7599 36.8274L31.8097 38.4491L32.6262 40.65M32.6262 40.65L33.2095 42.0401L33.9093 43.7777L34.6092 45.1677L35.4257 46.2102L36.5922 46.9053M32.6262 40.65H31.8097H30.7599C30.7599 40.65 29.267 40.65 28.3104 40.65C27.5815 40.65 26.444 40.65 26.444 40.65M36.5922 46.9053C36.5922 46.9053 37.4713 47.0707 37.9919 46.9053C38.4612 46.7561 38.7515 46.6057 39.0418 46.2102C39.2963 45.8634 39.2861 45.5838 39.3917 45.1677C39.7368 43.8079 39.3917 41.5767 39.3917 41.5767M36.5922 46.9053C36.5922 46.9053 36.4486 45.8311 36.5922 45.1677C36.7166 44.5927 37.1754 43.7777 37.1754 43.7777C37.1754 43.7777 37.6119 43.0223 37.9919 42.6193C38.459 42.124 39.3917 41.5767 39.3917 41.5767M39.8583 44.241C39.8583 44.241 40.4981 44.8058 40.9081 45.1677M40.9081 45.1677C41.5003 45.3487 41.8063 45.5896 42.4245 45.6311C43.2182 45.6843 43.7254 45.5744 44.4074 45.1677C45.0432 44.7886 45.6906 43.7777 45.6906 43.7777L46.1571 42.0401M40.9081 45.1677C41.0903 44.6249 41.3747 43.7777 41.3747 43.7777L41.8412 42.6193L43.1243 41.5767H44.4074L46.1571 42.0401M46.1571 42.0401V39.7233M52.3393 39.0283C52.0273 38.7929 51.8483 38.6659 51.5228 38.4491C51.1659 38.2114 50.9596 38.0872 50.5897 37.87C50.186 37.6329 49.9943 37.4059 49.5399 37.2908C49.0985 37.1789 48.7949 37.1192 48.3734 37.2908C47.8336 37.5105 47.7221 37.942 47.4402 38.4491C47.1826 38.9127 47.076 39.2037 46.9737 39.7233M34.6092 39.3758C34.6092 39.3758 35.8716 40.036 36.5922 39.7233C37.1855 39.4659 37.642 38.4491 37.642 38.4491M41.3747 37.87C41.3747 37.87 42.408 38.524 43.1243 38.4491C43.6717 38.3919 44.4074 37.87 44.4074 37.87M50.5313 22.3478C50.5313 22.3478 51.1399 22.291 51.5228 22.3478C52.3288 22.4671 53.3892 23.2744 53.3892 23.2744L54.5556 24.288M50.5313 22.3478C50.5313 22.3478 49.9302 23.2676 49.5399 23.8536C49.268 24.2618 48.84 24.8962 48.84 24.8962C48.84 24.8962 48.2261 25.8757 48.3734 26.5179C48.5238 27.1736 49.5399 27.7921 49.5399 27.7921C50.3143 28.1088 50.7484 28.2863 51.5228 28.603C51.5228 28.603 52.6379 29.0663 53.3892 29.0663C54.1404 29.0663 54.6897 29.0938 55.2555 28.603C55.6854 28.2301 55.7166 27.8436 55.9554 27.3288C56.2592 26.6737 56.399 26.2883 56.5852 25.5912M56.5852 25.5912C56.0659 25.3198 55.2555 24.8962 55.2555 24.8962L54.5556 24.288" stroke="#725050" stroke-width="0.3"/>
</g>
</g>
<defs>
<filter id="filter0_dd_144_92" x="0" y="0" width="91" height="98" filterUnits="userSpaceOnUse" color-interpolation-filters="sRGB">
<feFlood flood-opacity="0" result="BackgroundImageFix"/>
<feColorMatrix in="SourceAlpha" type="matrix" values="0 0 0 0 0 0 0 0 0 0 0 0 0 0 0 0 0 0 127 0" result="hardAlpha"/>
<feOffset dy="4"/>
<feGaussianBlur stdDeviation="2"/>
<feComposite in2="hardAlpha" operator="out"/>
<feColorMatrix type="matrix" values="0 0 0 0 0 0 0 0 0 0 0 0 0 0 0 0 0 0 0.25 0"/>
<feBlend mode="normal" in2="BackgroundImageFix" result="effect1_dropShadow_144_92"/>
<feColorMatrix in="SourceAlpha" type="matrix" values="0 0 0 0 0 0 0 0 0 0 0 0 0 0 0 0 0 0 127 0" result="hardAlpha"/>
<feOffset dy="4"/>
<feGaussianBlur stdDeviation="2"/>
<feComposite in2="hardAlpha" operator="out"/>
<feColorMatrix type="matrix" values="0 0 0 0 0 0 0 0 0 0 0 0 0 0 0 0 0 0 0.25 0"/>
<feBlend mode="normal" in2="effect1_dropShadow_144_92" result="effect2_dropShadow_144_92"/>
<feBlend mode="normal" in="SourceGraphic" in2="effect2_dropShadow_144_92" result="shape"/>
</filter>
<filter id="filter1_d_144_92" x="0" y="0" width="91" height="98" filterUnits="userSpaceOnUse" color-interpolation-filters="sRGB">
<feFlood flood-opacity="0" result="BackgroundImageFix"/>
<feColorMatrix in="SourceAlpha" type="matrix" values="0 0 0 0 0 0 0 0 0 0 0 0 0 0 0 0 0 0 127 0" result="hardAlpha"/>
<feOffset dy="4"/>
<feGaussianBlur stdDeviation="2"/>
<feComposite in2="hardAlpha" operator="out"/>
<feColorMatrix type="matrix" values="0 0 0 0 0 0 0 0 0 0 0 0 0 0 0 0 0 0 0.25 0"/>
<feBlend mode="normal" in2="BackgroundImageFix" result="effect1_dropShadow_144_92"/>
<feBlend mode="normal" in="SourceGraphic" in2="effect1_dropShadow_144_92" result="shape"/>
</filter>
<filter id="filter2_dd_144_92" x="21.8501" y="18.85" width="48.2998" height="64.3" filterUnits="userSpaceOnUse" color-interpolation-filters="sRGB">
<feFlood flood-opacity="0" result="BackgroundImageFix"/>
<feColorMatrix in="SourceAlpha" type="matrix" values="0 0 0 0 0 0 0 0 0 0 0 0 0 0 0 0 0 0 127 0" result="hardAlpha"/>
<feOffset dy="4"/>
<feGaussianBlur stdDeviation="2"/>
<feComposite in2="hardAlpha" operator="out"/>
<feColorMatrix type="matrix" values="0 0 0 0 0 0 0 0 0 0 0 0 0 0 0 0 0 0 0.25 0"/>
<feBlend mode="normal" in2="BackgroundImageFix" result="effect1_dropShadow_144_92"/>
<feColorMatrix in="SourceAlpha" type="matrix" values="0 0 0 0 0 0 0 0 0 0 0 0 0 0 0 0 0 0 127 0" result="hardAlpha"/>
<feOffset dy="4"/>
<feGaussianBlur stdDeviation="2"/>
<feComposite in2="hardAlpha" operator="out"/>
<feColorMatrix type="matrix" values="0 0 0 0 0 0 0 0 0 0 0 0 0 0 0 0 0 0 0.25 0"/>
<feBlend mode="normal" in2="effect1_dropShadow_144_92" result="effect2_dropShadow_144_92"/>
<feBlend mode="normal" in="SourceGraphic" in2="effect2_dropShadow_144_92" result="shape"/>
</filter>
</defs>
</svg>
